<?xml version="1.0" encoding="utf-8"?>
<!-- Generator: Adobe Illustrator 13.0.0, SVG Export Plug-In . SVG Version: 6.00 Build 14948)  -->
<svg version="1.2" baseProfile="tiny" id="Layer_1" xmlns="http://www.w3.org/2000/svg" xmlns:xlink="http://www.w3.org/1999/xlink"
	 x="0px" y="0px" width="472.896px" height="472.898px" viewBox="0 0 472.896 472.898" xml:space="preserve">
<g>
	<g>
		<path fill="#FFFFFF" d="M471.002,236.449c-42.646,26.498-48.016,51.741-18.434,91.3c-49.006,6.359-63.057,27.036-50.268,74.555
			c-47.518-12.791-68.195,1.262-74.553,50.268c-39.561-29.583-64.801-24.213-91.299,18.433
			c-26.498-42.646-51.742-48.016-91.299-18.433c-6.361-49.006-27.037-63.059-74.557-50.268c12.791-47.519-1.26-68.195-50.268-74.555
			c29.584-39.559,24.215-64.802-18.432-91.3c42.646-26.498,48.016-51.739,18.432-91.298c49.008-6.359,63.059-27.038,50.268-74.557
			c47.52,12.791,68.195-1.26,74.557-50.267c39.557,29.584,64.801,24.214,91.299-18.433c26.498,42.646,51.738,48.017,91.299,18.433
			c6.357,49.007,27.035,63.058,74.553,50.267c-12.789,47.519,1.262,68.197,50.268,74.557
			C422.986,184.709,428.355,209.951,471.002,236.449z"/>
		<path fill="none" stroke="#231F20" stroke-width="2" stroke-miterlimit="10" d="M471.002,236.449
			c-42.646,26.498-48.016,51.741-18.434,91.3c-49.006,6.359-63.057,27.036-50.268,74.555c-47.518-12.791-68.195,1.262-74.553,50.268
			c-39.561-29.583-64.801-24.213-91.299,18.433c-26.498-42.646-51.742-48.016-91.299-18.433
			c-6.361-49.006-27.037-63.059-74.557-50.268c12.791-47.519-1.26-68.195-50.268-74.555c29.584-39.559,24.215-64.802-18.432-91.3
			c42.646-26.498,48.016-51.739,18.432-91.298c49.008-6.359,63.059-27.038,50.268-74.557c47.52,12.791,68.195-1.26,74.557-50.267
			c39.557,29.584,64.801,24.214,91.299-18.433c26.498,42.646,51.738,48.017,91.299,18.433c6.357,49.007,27.035,63.058,74.553,50.267
			c-12.789,47.519,1.262,68.197,50.268,74.557C422.986,184.709,428.355,209.951,471.002,236.449z"/>
	</g>
	<g>
		<g>
			<g>
				<path fill="#FFFFFF" d="M350.777,100.3c0.625-2.891,3.27-12.434,2.008-12.682c-4.293-0.841-9.768-2.107-12.949-2.794
					c-1.418,2.72-3.184,11.874-2.295,12.475C338.393,97.879,347.357,100.236,350.777,100.3z"/>
				<g>
					<path fill="#231F20" d="M352.021,100.102c0.855-3.826,2.121-7.665,2.354-11.598c0.117-1.974-1.93-1.688-3.457-2.006
						c-3.363-0.702-6.707-1.476-10.063-2.206c-0.652-0.142-1.934,0.038-2.264,0.73c-1.102,2.298-1.611,4.894-2.078,7.382
						c-0.236,1.259-1.08,4.189-0.15,5.345c0.863,1.074,4.232,1.382,5.453,1.688c2.656,0.664,5.42,1.316,8.164,1.438
						c0.615,0.028,2.904-1.092,1.594-1.15c-2.363-0.105-4.697-0.643-6.994-1.177c-1.867-0.433-4.16-0.768-5.863-1.7
						c-0.857-0.47,0.277-4.784,0.42-5.544c0.422-2.252,0.951-4.601,1.943-6.678c-0.754,0.244-1.508,0.486-2.262,0.73
						c2.352,0.512,4.699,1.041,7.051,1.557c1.328,0.292,2.662,0.575,3.994,0.853c1.242,0.259,1.998,0.072,2,1.411
						c0.006,3.759-1.518,7.679-2.33,11.321C349.373,101.213,351.865,100.806,352.021,100.102z"/>
				</g>
			</g>
			<g>
				<path fill="#FFFFFF" d="M354.67,80.887c0,0,13.672-46.883,16.146-58.719c0,0-13.398-3.164-18.803-3.924
					c-0.914,4.331-9.371,54.129-10.197,59.343L354.67,80.887z"/>
				<g>
					<path fill="#231F20" d="M355.924,80.719c5.662-19.431,11.9-38.921,16.145-58.719c0.068-0.313-0.23-0.429-0.475-0.487
						c-6.227-1.464-12.482-2.951-18.805-3.924c-0.555-0.085-1.885,0.113-2.029,0.822c-4.01,19.631-7.029,39.561-10.197,59.343
						c-0.051,0.32,0.219,0.421,0.479,0.488c4.283,1.099,8.568,2.198,12.852,3.299c0.754,0.193,2.953-0.95,1.555-1.31
						c-2.543-0.652-5.084-1.306-7.627-1.957c-1.346-0.346-2.695-0.691-4.041-1.038c-1.371-0.352-0.713,0.185-0.527-0.947
						c1.018-6.214,2.084-12.422,3.139-18.632c2.238-13.187,4.197-26.475,6.875-39.581c-0.676,0.274-1.354,0.549-2.029,0.822
						c4.336,0.667,8.621,1.625,12.902,2.574c1.543,0.343,3.088,0.696,4.629,1.054c1.535,0.354,0.67,0.425,0.316,1.957
						c-1.639,7.088-3.633,14.1-5.572,21.108c-3.273,11.845-6.656,23.663-10.094,35.462
						C353.172,81.896,355.686,81.532,355.924,80.719z"/>
				</g>
			</g>
		</g>
		<g>
			<g>
				<path fill="#FFFFFF" d="M364.291,119.744c1.49-2.555,6.961-10.81,5.838-11.437c-3.822-2.13-8.635-5.029-11.445-6.667
					c-2.193,2.146-6.707,10.302-6.051,11.148C353.266,113.604,361.059,118.621,364.291,119.744z"/>
				<g>
					<path fill="#231F20" d="M365.535,119.545c2-3.367,4.469-6.646,5.836-10.339c0.684-1.845-1.797-2.327-3.072-3.062
						c-2.826-1.627-5.623-3.31-8.439-4.957c-0.639-0.373-1.844-0.008-2.326,0.501c-1.709,1.81-2.982,4.049-4.189,6.21
						c-0.66,1.183-2.463,3.755-1.965,5.227c0.453,1.344,3.834,2.795,4.932,3.477c2.213,1.377,4.518,2.744,6.961,3.672
						c0.623,0.237,2.908-0.731,2.039-1.062c-3.922-1.49-8.15-3.986-11.354-6.722c-1.498-1.281,4.928-9.898,5.875-10.9
						c-0.775,0.166-1.551,0.334-2.326,0.501c2.127,1.243,4.246,2.503,6.369,3.751c1.627,0.956,5.631,2.071,4.832,4.229
						c-1.301,3.51-3.76,6.669-5.66,9.87C362.777,120.393,365.137,120.217,365.535,119.545z"/>
				</g>
			</g>
			<g>
				<path fill="#FFFFFF" d="M374.006,102.491c0,0,27.525-40.339,33.545-50.826c0,0-11.76-7.159-16.66-9.557
					c-2.213,3.835-25.682,48.562-28.082,53.263L374.006,102.491z"/>
				<g>
					<path fill="#231F20" d="M375.17,102.498c11.406-16.718,23.375-33.318,33.545-50.826c0.158-0.272,0.104-0.435-0.158-0.595
						c-5.465-3.321-10.953-6.673-16.662-9.557c-0.566-0.286-1.844,0.009-2.168,0.581c-9.896,17.421-18.943,35.435-28.082,53.262
						c-0.146,0.285-0.111,0.425,0.158,0.596c3.732,2.373,7.467,4.747,11.199,7.12c0.652,0.415,2.986-0.556,2.008-1.176
						c-2.213-1.408-4.428-2.816-6.643-4.224c-1.174-0.747-2.348-1.493-3.521-2.24c-1.111-0.705-0.859-0.094-0.35-1.079
						c2.893-5.593,5.828-11.165,8.754-16.741c6.217-11.845,12.195-23.872,18.805-35.505c-0.723,0.194-1.447,0.389-2.17,0.582
						c3.914,1.978,7.693,4.216,11.469,6.443c1.363,0.806,2.719,1.62,4.074,2.437c1.32,0.795,0.633,0.654-0.162,1.976
						c-3.752,6.23-7.822,12.28-11.836,18.344c-6.785,10.247-13.66,20.437-20.588,30.588
						C372.215,103.405,374.732,103.139,375.17,102.498z"/>
				</g>
			</g>
		</g>
		<g>
			<path fill="#FFFFFF" d="M136.238,20.223c-6.822-5.376-16.104-9.678-23.893-10.429c-10.426-1.163-22.18,2.21-28.83,10.848
				c-7.023,9.231-7.811,16.861-4.299,27.734c3.4,10.394,12.635,17.587,22.354,17.895c12.133-0.244,34.613-0.427,27.881,15.013
				c-8.002,18.344-36.986,1.955-42.188-0.049c-1.982,5.898-3.217,11.438-4.027,17.852c24.846,10.888,70.896,13.862,62.584-31.798
				c-2.221-12.2-13.623-18.205-28.137-17.267c-6.934,0.448-14.246,2.106-18.801-4.466c-2.334-3.528-1.928-12.085,0.896-15.274
				c7.355-7.782,23.621-0.34,30.938,4.244C133.605,27.937,135.625,23.454,136.238,20.223z"/>
			<g>
				<path fill="#231F20" d="M137.223,19.566c-14.736-11.13-34.938-15.437-50.547-3.467c-15.705,12.044-13.049,36.512,2.523,47.205
					c6.371,4.374,13.652,3.565,20.939,3.776c6.799,0.195,19.844,0.873,19.205,10.392c-0.85,12.686-14.979,12.419-23.938,9.979
					c-6.002-1.636-11.434-4.546-17.156-6.875c-0.752-0.306-1.969-0.08-2.248,0.789c-1.891,5.859-3.191,11.753-4.027,17.852
					c-0.029,0.211,0.072,0.439,0.277,0.527c19.457,8.349,55.305,13.979,64.295-11.836c2.576-7.4,1.938-16.754-0.301-24.129
					c-2.496-8.235-10.598-12.526-18.471-14.083c-10.41-2.058-28.742,4.947-29.145-11.224c-0.449-18.119,22.545-8.498,31.102-3.289
					c0.578,0.354,1.877,0.081,2.168-0.582c2.066-4.712,4.451-9.463,5.6-14.51c0.244-1.073-2.307-0.701-2.523,0.262
					c-1.117,4.908-3.428,9.507-5.441,14.096c0.723-0.194,1.445-0.387,2.168-0.581c-11.34-6.905-36.09-14.995-35.557,6.475
					c0.197,7.982,7.332,11.328,14.447,10.971c12.82-0.642,27.586-1.028,33.143,13.139c3.26,8.315,2.607,19.876-1.463,27.794
					c-3.92,7.629-12.15,11.146-20.217,12.356c-7.828,1.174-15.965,0.183-23.633-1.532c-3.496-0.782-6.924-1.853-10.291-3.068
					c-4.324-1.561-3.275-3.9-2.525-7.959c0.688-3.717,1.762-7.347,2.918-10.939c-0.748,0.263-1.498,0.525-2.246,0.788
					c10.158,4.133,21.508,10.903,32.936,8.395c9.801-2.15,19.344-17.347,6.361-22.352c-6.291-2.426-13.23-2.536-19.887-2.517
					c-12.996,0.04-22.102-7.065-25.861-19.511c-4.396-14.547,3.559-28.952,17.783-33.938c13.145-4.607,27.119,0.966,37.641,8.912
					C136.002,21.448,138.283,20.367,137.223,19.566z"/>
			</g>
		</g>
		<g>
			<path fill="#FFFFFF" d="M176.229,6.554c7.52,1.511,10.242,1.795,17.035,3.161c-3.939,19.415-4.305,26.274-7.43,46.219
				c5.791-6.652,14.227-5.982,20.15-4.309c13.318,3.758,17.221,17.004,15.605,30.689c-1.1,9.315-7.328,25.792-7.328,25.792
				s-10.266-1.687-14.633-2.563c1.949-7.813,14.496-33.816-0.355-37.811c-14.377-3.867-18.432,23.555-19.953,33.983
				c-3.885-0.78-10.992-1.831-16.209-2.878C164.629,85.636,172.809,29.218,176.229,6.554z"/>
			<g>
				<path fill="#231F20" d="M175.191,7.023c4.959,0.978,9.943,1.808,14.91,2.743c2.967,0.559-0.412,12.51-0.785,14.706
					c-1.799,10.563-3.094,21.211-4.738,31.799c-0.068,0.437,2.172-0.228,2.387-0.448c7.414-7.56,19.205-5.255,26.404,0.939
					c5.326,4.581,6.936,12.18,7.287,18.837c0.584,11.065-3.791,22.518-7.631,32.738c0.758-0.233,1.514-0.467,2.273-0.699
					c-4.516-0.744-9.029-1.507-13.527-2.348c-1.518-0.284,2.879-11.444,3.305-12.808c2.379-7.632,5.908-20.473-3.41-24.772
					c-17.449-8.054-22.125,24.257-23.602,34.342c0.764-0.268,1.527-0.537,2.291-0.805c-1.641-0.314-16.053-2.188-15.916-3.376
					c0.316-2.696,0.678-5.388,1.035-8.079c1.207-9.072,2.492-18.134,3.781-27.194c2.672-18.804,5.398-37.6,8.229-56.38
					c0.035-0.235-2.4-0.063-2.512,0.673c-4.625,30.701-9.516,61.442-13.117,92.283c0.047,0.083,0.121,0.127,0.219,0.132
					c5.389,1.044,10.818,1.846,16.209,2.878c0.512,0.1,2.195-0.14,2.293-0.805c1.258-8.59,5.68-41.122,20.752-31.74
					c10.492,6.531-0.66,27.683-2.936,36.134c-0.041,0.159,0.047,0.21,0.201,0.239c4.859,0.948,9.744,1.76,14.631,2.563
					c0.51,0.085,2.051-0.109,2.271-0.7c5.332-14.187,11.375-30.911,4.818-45.674c-5.887-13.256-25.701-16.263-35.611-6.156
					c0.795-0.149,1.59-0.298,2.387-0.447c2.391-15.398,4.342-30.826,7.408-46.113c0.033-0.159-0.035-0.206-0.197-0.237
					c-5.668-1.116-11.367-2.046-17.035-3.161C176.695,5.973,174.539,6.895,175.191,7.023z"/>
			</g>
		</g>
		<g>
			<g>
				<path fill="#FFFFFF" d="M235.074,35.528c0.904,4.362,3.238,19.081,4.76,18.728c5.188-1.196,11.9-2.461,15.779-3.263
					c0.066-4.563-3.025-18.256-4.33-18.604C250.027,32.057,238.873,33.731,235.074,35.528z"/>
				<g>
					<path fill="#231F20" d="M233.82,35.864c1.166,5.788,1.791,11.866,3.807,17.441c0.443,1.225,1.035,1.723,2.336,1.428
						c5.127-1.161,10.289-2.138,15.439-3.19c0.418-0.085,1.473-0.296,1.465-0.886c-0.043-3.821-0.91-7.658-1.762-11.365
						c-0.412-1.795-0.885-6.239-2.645-7.354c-1.531-0.967-5.535,0.254-7.104,0.501c-3.607,0.568-7.369,1.268-10.74,2.719
						c-1.627,0.701-0.098,1.179,0.914,0.741c2.969-1.278,6.236-1.822,9.406-2.361c2.262-0.383,5.049-1.648,6.047,0.819
						c2.064,5.103,3.309,11.476,3.373,16.974c0.488-0.296,0.977-0.591,1.465-0.886c-3.889,0.794-7.783,1.55-11.67,2.359
						c-0.26,0.055-3.43,0.888-3.506,0.827c-0.664-0.536-0.906-2.168-1.125-2.926c-1.469-5.065-2.148-10.352-3.191-15.514
						C236.197,34.53,233.674,35.139,233.82,35.864z"/>
				</g>
			</g>
			<g>
				<path fill="#FFFFFF" d="M240.752,62.045c0,0,7.752,38.84,10.064,47.11c0,0,11.797-1.823,16.156-3.452
					c-0.33-3.086-2.789-22.881-9.365-47.24C257.607,58.463,247.855,58.989,240.752,62.045z"/>
				<g>
					<path fill="#231F20" d="M239.496,62.382c3.135,15.7,5.859,31.655,10.066,47.109c0.105,0.394,0.779,0.367,1.074,0.321
						c5.639-0.884,11.402-1.802,16.822-3.631c0.328-0.11,0.814-0.411,0.77-0.815c-1.766-15.938-5.25-31.766-9.365-47.24
						c-0.076-0.285-0.52-0.356-0.758-0.343c-6.102,0.377-12.143,1.558-17.84,3.783c-1.643,0.642-0.131,1.388,0.973,0.957
						c3.896-1.523,7.873-2.394,12.006-2.984c1.139-0.162,2.283-0.266,3.428-0.365c-0.16,0.014,1.426,6.364,1.531,6.784
						c2.027,8.076,3.707,16.242,5.172,24.438c0.846,4.723,1.58,9.468,2.176,14.229c0.285,2.265-11.225,3.333-13.885,3.767
						c-0.045,0.007,0.047-0.91-0.311-2.379c-0.506-2.062-0.965-4.136-1.428-6.209c-1.203-5.4-2.336-10.817-3.463-16.235
						c-1.516-7.28-3-14.567-4.459-21.859C241.844,60.894,239.322,61.515,239.496,62.382z"/>
				</g>
			</g>
		</g>
		<g>
			<path fill="#FFFFFF" d="M268.867,26.519c5.752,1.354,14.602,2.963,19.07,3.983c0.656-5.316,3.813-15.38,3.813-15.38
				s11.662,2.667,17.246,3.944c-1.264,5.177-2.799,9.967-3.715,14.607l18.988,4.341c-0.844,4.068-2.076,9.073-3.734,16.332
				c-10.719-2.596-19.234-4.544-19.234-4.544s-5.01,18.687-2.861,23.436c3.607,7.993,11.512,3.633,16.318-2.613
				c8.117,8.182,9.982,9.658,9.982,9.658c-8.533,10.977-17.346,16.101-29.203,13.355c-17.604-4.075-18.637-18.713-11.43-47.101
				c-9.232-1.378-18.027-3.318-18.027-3.318C267.32,37.907,268.285,29.071,268.867,26.519z"/>
			<g>
				<path fill="#231F20" d="M267.828,26.984c6.334,1.448,12.73,2.581,19.072,3.983c0.498,0.11,2.197-0.158,2.293-0.801
					c0.768-5.184,2.238-10.279,3.791-15.276c-0.758,0.231-1.514,0.465-2.273,0.697c3.797,0.867,7.592,1.735,11.385,2.604
					c3.822,0.873,5.771,0.821,4.535,5.458c-0.908,3.412-1.846,6.803-2.584,10.259c-0.037,0.161,0.037,0.194,0.197,0.231
					c4.564,1.043,9.129,2.087,13.693,3.13c2.051,0.469,5.254,0.235,4.801,2.372c-1.061,4.997-2.295,9.961-3.439,14.939
					c0.758-0.233,1.516-0.466,2.275-0.698c-6.406-1.546-12.816-3.072-19.236-4.543c-0.445-0.102-2.125,0.142-2.273,0.696
					c-1.787,6.74-5.238,16.722-2.881,23.54c3.457,10.01,15.186,1.195,18.809-3.185c-0.807,0.218-1.615,0.434-2.422,0.65
					c2.65,2.661,5.309,5.314,8.035,7.896c1.807,1.709,2.275,1.109,0.549,3.263c-5.127,6.396-11.729,11.608-20.393,11.677
					c-4.486,0.036-9.188-1.53-12.963-3.888c-13.523-8.44-6.389-31.927-3.457-43.684c0.039-0.153-0.041-0.208-0.197-0.232
					c-5.969-0.926-11.91-2.002-17.816-3.271c0.219,0.046,2.471-14.991,2.775-16.517c0.098-0.493-2.355-0.109-2.471,0.467
					c-1.104,5.538-1.59,11.175-2.789,16.699c-0.033,0.162,0.039,0.197,0.197,0.232c5.146,1.124,10.332,2.069,15.527,2.931
					c3.254,0.539-0.904,15.066-1.289,17.756c-1.072,7.518-1.674,17.598,3.943,23.645c5.018,5.396,13.648,7.76,20.85,6.614
					c9.406-1.495,16.086-7.321,21.902-14.579c0.045-0.076,0.027-0.138-0.049-0.183c-3.57-2.905-6.744-6.406-9.982-9.659
					c-0.441-0.442-2.102,0.265-2.422,0.65c-3.729,4.508-11.377,9.132-14.068,1.348c-0.822-2.384-0.199-5.524,0.086-7.945
					c0.584-4.946,1.719-9.877,2.996-14.69c-0.756,0.231-1.516,0.465-2.271,0.697c6.42,1.472,12.83,2.997,19.232,4.544
					c0.43,0.103,2.148-0.148,2.273-0.698c1.252-5.441,2.576-10.868,3.734-16.331c0.035-0.163-0.039-0.196-0.197-0.232
					c-4.18-0.955-8.361-1.911-12.541-2.867c-2.014-0.459-4.027-0.92-6.041-1.381c-0.482-0.11,3.129-12.974,3.506-14.469
					c0.041-0.16-0.043-0.195-0.197-0.231c-5.748-1.313-11.496-2.629-17.246-3.944c-0.463-0.105-2.1,0.14-2.273,0.697
					c-1.574,5.069-3.053,10.226-3.832,15.484c0.764-0.267,1.529-0.534,2.293-0.801c-6.34-1.402-12.738-2.535-19.068-3.984
					C269.346,25.926,267.18,26.833,267.828,26.984z"/>
			</g>
		</g>
		<g>
			<g>
				<path fill="#FCD900" d="M392.008,132.687c7.867,8.238,35.896,13.607,48.027-7.867c1.734-3.073,2.949-9.18-0.986-10.162
					c-2.949-0.655-8.822,4.626-10.816,6.229c-8.359,6.721-24.59,9.344-34.506,2.541c-2.111-1.448-5.549-8.241-7.295-12.376
					c-2.621,1.639-7.293,2.622-9.996,3.934c1.824,4.426,2.129,7.869,1.803,11.475c-1.313,9.509-7.871,15.736-15.408,20.653
					c-13.77,8.525-23.113,10.901-31.324-4.974c-2.771,15.875,8.006,23.414,17.063,23.169c17.033-0.464,27.211-9.509,32.947-28.972
					c0.328,16.72,0.656,25.692-18.625,34.686c-3.199,1.493-10.225,3.63-12.52,6.254c-3.605,4.261-1.07,7.481,3.34,8.666
					c15.348,4.118,32.082-4.905,37.967-15.062C400.037,156.456,396.432,147.112,392.008,132.687z"/>
				<g>
					<path fill="#231F20" d="M391.145,133.097c14.33,14.006,40.166,7.837,49.787-8.18c1.539-2.561,3.094-8.214-0.027-10.288
						c-3.133-2.083-7.02,1.001-9.473,2.771c-7.201,5.193-13.266,8.867-22.504,9.328c-5.125,0.256-10.148-1.141-14.473-3.834
						c-3.496-2.179-5.553-8.6-7.08-12.096c-0.221-0.504-0.922-0.513-1.355-0.284c-3.184,1.676-6.689,2.536-9.996,3.934
						c-0.262,0.11-0.652,0.457-0.531,0.79c5.023,13.577-2.172,24.012-13.283,31.463c-4.973,3.334-11.252,6.747-17.402,6.354
						c-6.076-0.388-9.855-6.587-12.438-11.325c-0.354-0.647-1.727-0.143-1.814,0.487c-2.18,15.408,7.756,25.171,22.83,23.364
						c16.104-1.93,24.646-14.907,29.082-29.32c-0.635,0.051-1.27,0.102-1.904,0.152c0.109,5.631,0.326,11.303-0.859,16.843
						c-1.719,8.02-8.516,12.78-15.361,16.331c-5.369,2.785-12.203,3.745-15.828,8.972c-2.723,3.927,1.357,6.868,4.65,8.005
						c12.57,4.34,27.906-2.36,36.469-11.529c11.58-12.398,7.742-28.252,3.316-42.599c-0.262-0.845-2.141-0.329-1.885,0.505
						c4.365,14.146,7.541,27.26-1.945,40.291c-4.199,5.769-11.023,9.443-17.656,11.602c-4.334,1.41-8.895,1.634-13.396,1.226
						c-2.316-0.167-4.488-0.802-6.518-1.905c-6.881-3.703,2.561-8.688,4.346-9.536c8.354-3.972,17.178-6.685,22.762-14.609
						c4.746-6.737,3.963-15.969,3.811-23.747c-0.02-1.036-1.68-0.578-1.904,0.152c-3.898,12.663-10.59,23.89-24.207,27.313
						c-15.229,3.83-26.078-6.229-23.896-21.664c-0.605,0.162-1.211,0.324-1.816,0.487c3.094,5.674,7.701,12.136,14.965,11.922
						c8.16-0.24,15.924-5.27,22.213-10.068c6.592-5.027,12.283-13.108,11.443-21.79c-0.199-2.037-2.434-7.186,0.551-8.239
						c0.605-0.215,5.902-2.552,6.316-1.605c1.496,3.426,3.299,8.001,6.119,10.523c5.615,5.022,15.148,5.619,22.182,4.185
						c4.094-0.835,8.289-2.073,11.83-4.372c2.412-1.566,11.887-11.022,14.236-5.806c2.461,5.468-4.934,12.898-8.508,15.879
						c-4.32,3.604-9.889,5.306-15.385,5.919c-7.893,0.878-17.875-1.092-23.734-6.818
						C392.275,131.697,390.494,132.462,391.145,133.097z"/>
				</g>
			</g>
			<g>
				<path fill="#231F20" d="M396.465,128.272c12.387,7.147,29.414,3.056,37.711-8.575c0.412-0.577-1.436-0.317-1.721,0.083
					c-7.668,10.749-22.723,14.456-34.223,7.819C397.73,127.31,396.131,128.078,396.465,128.272L396.465,128.272z"/>
			</g>
			<g>
				<path fill="#231F20" d="M336.947,154.488c3.986,4.309,10.791,3.258,15.871,1.946c8.854-2.285,16.344-8.391,21.756-15.559
					c0.102-0.132-1.523-0.092-1.854,0.346c-6.027,7.981-24.279,23.144-33.994,12.637
					C338.416,153.523,336.688,154.206,336.947,154.488L336.947,154.488z"/>
			</g>
			<g>
				<path fill="#231F20" d="M383.443,139.477c1.02,9.379,0.293,18.848-6.549,25.942c-4.832,5.009-12.023,7.181-18.467,9.198
					c-1.119,0.351-0.854,1.404,0.279,1.049c7.121-2.229,14.166-4.678,19.719-9.862c7.338-6.855,7.916-17.491,6.9-26.833
					C385.25,138.27,383.359,138.703,383.443,139.477L383.443,139.477z"/>
			</g>
			<g>
				<path fill="#685121" d="M375.287,112.199c-0.248-0.778,8.547-4.247,9.529-3.754c0.492,0.327,1.615,2.606,1.615,2.606
					c-0.326,0.492-8.004,3.522-9.996,3.934C376.436,114.985,375.344,112.374,375.287,112.199z"/>
				<g>
					<path fill="#231F20" d="M376.236,112.106c0.018-0.534,3.623-1.734,4.182-1.95c0.969-0.376,1.955-0.701,2.961-0.97
						c1.025-0.275,0.873-0.088,1.447,0.873c0.225,0.379,0.426,0.773,0.625,1.166c-0.176-0.349,0.355-0.448-0.51-0.037
						c-0.92,0.438-1.867,0.816-2.811,1.196c-1.898,0.765-3.846,1.576-5.848,2.036c0.365,0.104,0.729,0.208,1.094,0.313
						c-0.387-0.926-0.793-1.848-1.148-2.787c-0.289-0.767-2.16-0.224-1.883,0.505c0.355,0.938,0.762,1.86,1.146,2.787
						c0.178,0.423,0.719,0.398,1.096,0.313c2.002-0.46,3.955-1.276,5.867-2.023c1.463-0.573,3.598-1.108,4.75-2.255
						c0.098-0.097,0.244-0.321,0.17-0.474c-0.465-0.931-1.035-2.64-2.115-2.967c-1.105-0.337-2.668,0.343-3.693,0.674
						c-1.746,0.566-3.467,1.257-5.113,2.068c-0.594,0.292-2.086,0.891-2.113,1.718C374.307,113.189,376.211,112.851,376.236,112.106
						z"/>
				</g>
			</g>
		</g>
		<g>
			<g>
				<path fill="#FCD900" d="M54.6,218.455c-1.588,8.298,7.238,27.537,25.43,25.618c2.604-0.277,6.18-3.587,5.713-4.971
					c-0.428-1.265-6.59-3.336-8.42-3.852c-7.656-2.156-16.229-10.827-16.391-19.744c-0.033-1.899,2.588-6.899,4.334-9.733
					c-2.119-0.878-4.725-3.276-6.682-4.346c-1.887,3.009-3.834,4.675-6.152,6.03c-6.307,3.301-12.891,2.023-19.107-0.411
					C22.248,202.4,18.506,196,22.842,185.988c-11.014,3.699-10.695,14.915-6.646,20.279c7.615,10.086,17.457,12.339,31.684,7.422
					c-9.955,7.398-15.234,11.46-28.967,3.688c-2.279-1.291-6.555-4.22-9.168-4.869c-4.018-0.998-4.979,2.574-3.795,5.747
					c4.123,11.042,16.775,17.264,25.443,16.445C43.703,233.539,47.795,227.338,54.6,218.455z"/>
				<g>
					<path fill="#231F20" d="M53.965,218.505c-2.049,14.148,13.367,29.453,27.535,25.616c1.436-0.389,4.633-2.544,4.797-4.241
						c0.238-2.476-3.418-3.224-5.254-3.932c-6.508-2.514-11.506-4.729-15.902-10.535c-5.146-6.797-3.203-12.971,0.725-19.576
						c0.08-0.136,0.029-0.345-0.115-0.42c-2.373-1.233-4.418-2.93-6.68-4.346c-0.281-0.176-0.813-0.105-1.01,0.18
						c-7.176,10.387-19.531,8.485-29.174,2.961c-7.207-4.128-8.34-10.857-5.447-18.159c0.221-0.554-0.557-0.548-0.873-0.424
						c-14.926,5.847-9.879,21.891,1.582,28.493c6.049,3.485,13.414,2.763,19.896,1.192c4.18-1.012,0.574,0.202-0.996,1.32
						c-2.398,1.706-4.873,3.097-7.676,4c-7.189,2.319-14.598-2.81-20.434-6.289c-2.047-1.22-9.09-4.808-9.895,0.052
						c-1.252,7.574,7.043,14.435,12.881,17.688c6.521,3.638,13.711,3.756,20.688,1.536c7.391-2.351,12.041-9.136,16.51-14.991
						c0.482-0.633-0.709-0.795-1.047-0.354c-6.633,8.691-13.174,16.308-25.172,16.014c-9.793-0.238-20.131-8.152-22.699-17.574
						c-2-7.327,8.775-1.055,9.412-0.675c1.662,0.99,3.279,2.044,5.029,2.879c3.252,1.552,6.895,3.199,10.6,3.1
						c6.73-0.181,11.838-4.191,17.047-8.057c0.533-0.396-0.039-0.853-0.525-0.693c-12.043,3.931-22.791,3.044-30.996-7.277
						c-2.48-3.119-2.883-7.397-2.125-11.161c0.742-3.69,3.656-6.202,6.824-7.842c0.098-0.051-0.686,3.434-0.764,3.763
						c-3.445,14.802,21.715,23.614,32.137,16.979c1.477-0.939,2.691-1.9,3.951-3.098c2.477-2.354,2.529-2.097,5.281-0.107
						c3.875,2.803-1.125,6.335-1.643,10.042c-1.178,8.436,6.564,16.203,13.314,19.842c3.219,1.735,6.984,2.312,10.27,3.983
						c-1.938,4.389-4.865,6.131-8.785,5.224c-1.488-0.168-2.934-0.498-4.34-0.991c-2.27-0.699-4.275-2.024-6.158-3.427
						c-5.959-4.436-10.59-13.279-9.5-20.797C55.326,217.779,54.043,217.956,53.965,218.505z"/>
				</g>
			</g>
			<g>
				<path fill="#231F20" d="M59.141,219.802c0.877,10.318,10.551,18.41,20.799,18.31c0.377-0.003,1.365-0.58,0.525-0.571
					c-9.994,0.097-19.227-8.162-20.068-18.073C60.371,219.173,59.109,219.417,59.141,219.802L59.141,219.802z"/>
			</g>
			<g>
				<path fill="#231F20" d="M19.139,190.852c-6.727,13.241,12.166,20.104,22.096,20.359c0.25,0.007,1.43-0.475,0.82-0.489
					c-9.732-0.251-28.291-7.086-21.68-20.101C20.453,190.466,19.297,190.542,19.139,190.852L19.139,190.852z"/>
			</g>
			<g>
				<path fill="#231F20" d="M46.857,216.538c-6.594,5.756-13.982,9.137-22.504,5.641c-3.395-1.393-6.395-3.767-9.297-5.959
					c-0.359-0.273-1.51,0.25-0.99,0.642c4.998,3.776,9.992,7.156,16.375,7.73c6.672,0.601,12.703-3.666,17.438-7.798
					C48.439,216.304,47.195,216.243,46.857,216.538L46.857,216.538z"/>
			</g>
			<g>
				<path fill="#685121" d="M59.773,199.536c0.365-0.483,6.244,3.333,6.371,4.139c0.014,0.437-0.879,2.099-0.879,2.099
					c-0.439,0.014-5.576-3.319-6.682-4.346C58.584,201.427,59.691,199.645,59.773,199.536z"/>
				<g>
					<path fill="#231F20" d="M60.178,199.777c-0.49,0.343-0.492,0.081,0.084,0.35c0.389,0.18,0.762,0.397,1.133,0.61
						c0.797,0.461,1.563,0.973,2.313,1.503c0.604,0.426,1.219,0.871,1.705,1.429c0.334,0.381-0.527,1.661-0.74,2.061
						c0.275-0.122,0.549-0.244,0.824-0.366c-0.467-0.073-1.172-0.665-1.592-0.923c-0.947-0.58-1.875-1.197-2.793-1.824
						c-0.338-0.232-0.672-0.47-1.006-0.71c-0.248-0.18-0.738-0.74-0.902-0.475c0.385-0.618,0.756-1.246,1.164-1.851
						c0.361-0.535-0.918-0.487-1.186-0.089c-0.418,0.615-0.799,1.259-1.189,1.892c-0.053,0.082-0.07,0.233,0.014,0.307
						c1.164,1.037,2.518,1.881,3.82,2.729c0.924,0.601,2.086,1.59,3.209,1.765c0.275,0.043,0.688-0.109,0.824-0.365
						c0.303-0.57,1.107-1.708,0.889-2.389c-0.246-0.756-1.465-1.431-2.057-1.859c-1.016-0.734-3.922-3.253-5.322-2.275
						C58.67,199.785,59.723,200.094,60.178,199.777z"/>
				</g>
			</g>
		</g>
		<g>
			<g>
				<path fill="#ED312F" d="M95.225,122.63c-2.494,2.493-8.563,1.33-7.896,5.485c0.664,2.246,6.982,0.502,8.477,1.997
					c2.494,2.493,0,7.479,2.494,9.474s8.479-1.496,10.475,0.002c2.992,2.493,0.996,8.976,0.498,12.467
					c0,5.984,2.494,18.453,9.975,7.98c3.492-3.99-1.412-10.39,1.08-14.879c1.496-2.992,6.125,2.577,6.4-4.074
					c3.158,0.085,5.32,9.229,5.818,5.818c-0.082-13.547,10.143-2.826,16.625-6.317c4.488-2.493,5.486-9.476,8.977-12.468
					c4.488-4.487,7.48-2.493,7.48-9.975c0-7.978-8.977-21.942-12.965-27.929c-2.992-3.99-10.973-9.476-16.957-7.481
					c-3.99,1.497-7.896,10.891-9.975,5.486c-0.168-5.568-1.746-11.054-6.484-5.983c-2.93,3.135-2.494,5.485-6.484,6.982
					c-13.963,0-25.934,33.414-10.971,42.391"/>
				<g>
					<path fill="#231F20" d="M94.242,122.52c-1.473,1.1-8.123,1.815-8.156,4.731c-0.059,5.083,8.307,0.634,9.613,5.816
						c0.879,3.489-0.637,8.263,4.801,7.714c5.029-0.508,9.01-0.782,8.508,5.652c-0.223,2.865-1.078,5.4-0.885,8.291
						c0.619,9.254,6.105,13.122,12.273,5.269c2.344-2.982-0.949-15.569,2.793-14.916c3.045,0.531,4.441-1.44,4.783-4.189
						c-0.756,0.245-1.51,0.489-2.264,0.734c3.217,0.825,3.006,4.794,5.275,6.492c0.563,0.422,1.662-0.004,2.156-0.344
						c0.457-0.315,0.639-0.597,0.66-1.206c0.164-4.835,1.887-6.518,6.771-5.349c2.51,0.599,5.561,1.23,8.061,0.175
						c3.291-1.39,5.004-3.969,6.645-7.048c1.705-3.195,3.18-5.805,6.141-8.019c1.48-1.105,2.996-1.687,4.244-3.056
						c5.998-6.581-4.723-22.186-8.035-27.625c-4.113-6.752-11.324-15.839-20.521-13.753c-3.344,0.759-5.137,2.666-7.371,5.224
						c-3.893,4.458-2.01-6.964-5.943-7.407c-3.055-0.343-5.139,1.884-6.916,4.07c-1.688,2.076-2.941,4.61-5.84,5.085
						c-1.33,0.218-2.566,0.785-3.771,1.362c-13.035,6.244-19.951,32.991-6.648,41.838c0.652,0.434,2.857-0.574,2.35-0.912
						c-7.039-4.681-7.559-13.333-6.139-20.96c1.365-7.33,6.604-19.895,15.418-20.379c1.543-0.086,3.551-1.206,4.473-2.416
						c1.021-1.341,4.094-7.26,5.951-6.132c2.268,1.376,1.301,6.329,2.361,8.346c2.057,3.897,8.078-3.796,8.877-4.672
						c5.316-5.832,15.18,2.111,18.135,6.567c2.635,3.975,5.094,8.057,7.342,12.261c2.26,4.219,4.238,8.708,4.922,13.471
						c0.846,5.876-2.637,6.685-6.121,9.846c-2.914,2.64-4.336,5.657-6.166,9.091c-3.426,6.424-8.482,3.756-13.809,3.089
						c-1.352-0.169-3.164,0.055-4.316,0.85c-0.59,0.406-1.184,0.784-1.52,1.459c-0.35,0.708-0.906,5.781-1.193,5.979
						c0.719-0.116,1.438-0.23,2.156-0.346c-2.418-1.811-2.18-5.784-5.592-6.661c-0.486-0.125-2.176,0.021-2.264,0.733
						c-0.498,4.003-1.797,1.514-4.4,2.561c-2.588,1.04-2.785,3.516-2.682,6.096c0.084,2.104,0.715,4.207,0.893,6.314
						c0.355,4.168-4.969,9.335-7.322,4.108c-2.086-4.641-1.15-9.518-0.469-14.31c0.389-2.739,0.309-6.233-2.629-7.345
						c-0.951-0.359-2.482,0.043-3.424,0.19c-4.164,0.647-7.121-0.307-7.143-4.968c-0.018-3.774-1.496-4.913-4.867-5.095
						c-0.912-0.029-1.824-0.055-2.736-0.075c0.041-1.229,0.078-2.458,0.117-3.687c0.828-0.21,1.648-0.452,2.459-0.727
						c1.168-0.369,1.969-0.886,2.928-1.601C97.285,121.936,94.76,122.134,94.242,122.52L94.242,122.52z"/>
				</g>
			</g>
			<g>
				<path fill="#5E9340" d="M119.996,119.473c-1.225-1.413-6.424-0.352-10.393-4.074c4.488-0.414,9.811,0.667,11.139-0.249
					c0.998-0.914-1.414-7.314,1.08-12.799c2.826,2.574,2.469,10.141,4.629,10.389c1.58-0.248,6.012-4.155,9.17-5.402
					c-0.654,3.057-5.404,7.813-4.732,10.098c0.992,2.372,5.313,5.279,6.561,9.021c-4.404-0.832-8.479-6.151-11.969-5.321
					c-1.33,1.021-3.037,9.997-6.65,11.388C118.498,128.453,120.992,120.469,119.996,119.473z"/>
				<g>
					<path fill="#231F20" d="M120.969,118.77c-3.152-2.124-7.146-1.568-10.393-4.074c-0.365,0.526-0.73,1.055-1.096,1.582
						c3.014-0.147,9.277,1.44,12.084-0.591c0.65-0.471,0.67-1.277,0.697-1.995c0.16-4.018-0.666-7.233,0.756-11.22
						c-0.783,0.142-1.564,0.281-2.348,0.421c1.967,2.308,1.74,9.17,4.518,10.423c3.154,1.424,8.533-4.131,10.979-5.279
						c-0.58-0.273-1.16-0.548-1.742-0.821c-1.131,3.419-3.84,6.008-4.842,9.479c-0.801,2.782,5.551,7.681,6.613,10.097
						c0.662-0.385,1.324-0.77,1.986-1.152c-3.576-1.054-9.111-7.147-13.248-5.204c-3.748,1.761-2.652,9.148-6.65,11.388
						c0.605,0.197,1.211,0.395,1.816,0.593c-0.082-3.829,2.688-9.747,1.15-13.279c-0.467-1.074-2.953-0.343-2.51,0.673
						c1.404,3.232-1.256,9.241-1.18,12.82c0.02,0.878,1.213,0.929,1.814,0.593c3.078-1.726,4.287-4.98,5.51-8.141
						c1.148-2.962,1.258-3.636,4.6-1.64c2.42,1.445,4.502,3.024,7.232,3.83c0.541,0.159,2.402-0.211,1.988-1.153
						c-1.441-3.28-3.982-5.526-6.148-8.311c-1.748-2.249,3.482-8.003,4.26-10.349c0.352-1.064-1.066-1.139-1.742-0.821
						c-1.971,0.924-8.1,6.065-8.998,3.184c-0.883-2.831-1.115-5.683-3.102-8.013c-0.531-0.622-2.064-0.375-2.348,0.42
						c-1.113,3.123-1.324,6.055-1.102,9.35c0.307,4.538-6.697,2.789-9.801,2.941c-0.695,0.035-1.992,0.891-1.096,1.582
						c3.254,2.513,7.264,1.964,10.393,4.074C119.896,120.766,122.129,119.55,120.969,118.77z"/>
				</g>
			</g>
			<g>
				<path fill="#231F20" d="M94.242,122.52c-1.473,1.1-8.123,1.815-8.156,4.731c-0.059,5.083,8.307,0.634,9.613,5.816
					c0.879,3.489-0.637,8.263,4.801,7.714c5.029-0.508,9.01-0.782,8.508,5.652c-0.223,2.865-1.078,5.4-0.885,8.291
					c0.619,9.254,6.105,13.122,12.273,5.269c2.344-2.982-0.949-15.569,2.793-14.916c3.045,0.531,4.441-1.44,4.783-4.189
					c-0.756,0.245-1.51,0.489-2.264,0.734c3.217,0.825,3.006,4.794,5.275,6.492c0.563,0.422,1.662-0.004,2.156-0.344
					c0.457-0.315,0.639-0.597,0.66-1.206c0.164-4.835,1.887-6.518,6.771-5.349c2.51,0.599,5.561,1.23,8.061,0.175
					c3.291-1.39,5.004-3.969,6.645-7.048c1.705-3.195,3.18-5.805,6.141-8.019c1.48-1.105,2.996-1.687,4.244-3.056
					c5.998-6.581-4.723-22.186-8.035-27.625c-4.113-6.752-11.324-15.839-20.521-13.753c-3.344,0.759-5.137,2.666-7.371,5.224
					c-3.893,4.458-2.01-6.964-5.943-7.407c-3.055-0.343-5.139,1.884-6.916,4.07c-1.688,2.076-2.941,4.61-5.84,5.085
					c-1.33,0.218-2.566,0.785-3.771,1.362c-13.035,6.244-19.951,32.991-6.648,41.838c0.652,0.434,2.857-0.574,2.35-0.912
					c-7.039-4.681-7.559-13.333-6.139-20.96c1.365-7.33,6.604-19.895,15.418-20.379c1.543-0.086,3.551-1.206,4.473-2.416
					c1.021-1.341,4.094-7.26,5.951-6.132c2.268,1.376,1.301,6.329,2.361,8.346c2.057,3.897,8.078-3.796,8.877-4.672
					c5.316-5.832,15.18,2.111,18.135,6.567c2.635,3.975,5.094,8.057,7.342,12.261c2.26,4.219,4.238,8.708,4.922,13.471
					c0.846,5.876-2.637,6.685-6.121,9.846c-2.914,2.64-4.336,5.657-6.166,9.091c-3.426,6.424-8.482,3.756-13.809,3.089
					c-1.352-0.169-3.164,0.055-4.316,0.85c-0.59,0.406-1.184,0.784-1.52,1.459c-0.35,0.708-0.906,5.781-1.193,5.979
					c0.719-0.116,1.438-0.23,2.156-0.346c-2.418-1.811-2.18-5.784-5.592-6.661c-0.486-0.125-2.176,0.021-2.264,0.733
					c-0.498,4.003-1.797,1.514-4.4,2.561c-2.588,1.04-2.785,3.516-2.682,6.096c0.084,2.104,0.715,4.207,0.893,6.314
					c0.355,4.168-4.969,9.335-7.322,4.108c-2.086-4.641-1.15-9.518-0.469-14.31c0.389-2.739,0.309-6.233-2.629-7.345
					c-0.951-0.359-2.482,0.043-3.424,0.19c-4.164,0.647-7.121-0.307-7.143-4.968c-0.018-3.774-1.496-4.913-4.867-5.095
					c-0.912-0.029-1.824-0.055-2.736-0.075c0.041-1.229,0.078-2.458,0.117-3.687c0.828-0.21,1.648-0.452,2.459-0.727
					c1.168-0.369,1.969-0.886,2.928-1.601C97.285,121.936,94.76,122.134,94.242,122.52L94.242,122.52z"/>
			</g>
			<g>
				<path fill="#FFFFFF" d="M144.842,89.548c4.322,3.789,6.893,8.495,8.85,13.836c0.307,0.833,2.793,0.09,2.512-0.673
					c-1.996-5.451-4.611-10.256-9.023-14.122C146.543,88.031,144.207,88.993,144.842,89.548L144.842,89.548z"/>
			</g>
			<g>
				<path fill="#FFFFFF" d="M155.297,110.487c0.891,2.365,1.129,4.822,1.145,7.333c0.004,0.409,2.518,0.041,2.512-0.673
					c-0.016-2.511-0.256-4.968-1.145-7.333C157.584,109.219,155.115,110.003,155.297,110.487L155.297,110.487z"/>
			</g>
			<g>
				<path fill="#FFFFFF" d="M99.848,108.269c-1.813,5.974-2.254,13.156,3.055,17.474c0.629,0.512,2.928-0.462,2.346-0.937
					c-5.156-4.19-4.658-11.113-2.902-16.897C102.578,107.147,100.08,107.505,99.848,108.269L99.848,108.269z"/>
			</g>
		</g>
	</g>
</g>
</svg>
