<?xml version="1.0" encoding="utf-8"?>
<!-- Generator: Adobe Illustrator 13.0.0, SVG Export Plug-In . SVG Version: 6.00 Build 14948)  -->
<svg version="1.2" baseProfile="tiny" id="Layer_1" xmlns="http://www.w3.org/2000/svg" xmlns:xlink="http://www.w3.org/1999/xlink"
	 x="0px" y="0px" width="397.029px" height="345.698px" viewBox="0 0 397.029 345.698" xml:space="preserve">
<g>
	<g>
		<g>
			<path fill="#FFFFFF" stroke="#231F20" stroke-width="2" stroke-linecap="round" stroke-linejoin="round" d="M360.523,54.555"/>
			<path fill="#FFFFFF" stroke="#231F20" stroke-width="2" stroke-linecap="round" stroke-linejoin="round" d="M211.059,344.027
				c103.238-5.452,184.971-77.691,184.971-166.026c0-31.609-10.469-61.16-28.641-86.331c9.264-9.625,14.967-22.702,14.967-37.115
				C382.355,24.978,358.375,1,328.799,1c-19.682,0-36.869,10.622-46.18,26.44c-25.52-10.135-54.025-15.808-84.105-15.808
				c-30.688,0-59.744,5.896-85.654,16.417C103.639,11.896,86.262,1,66.33,1C36.75,1,12.775,24.978,12.775,54.556
				c0,14.983,6.158,28.519,16.074,38.241C11.168,117.72,1,146.859,1,178.001c0,88.097,81.293,160.187,184.135,165.981
				C185.135,343.982,203.887,345.563,211.059,344.027z"/>
		</g>
		<path fill="#231F20" stroke="#FFFFFF" stroke-width="2" stroke-linecap="round" stroke-linejoin="round" d="M328.389,22.419
			c-11.018,0-20.734,5.551-26.523,14.004c19.674,10.251,37.053,23.322,51.332,38.556c4.578-5.553,7.326-12.668,7.326-20.425
			C360.523,36.808,346.135,22.419,328.389,22.419z"/>
		<path fill="#231F20" stroke="#FFFFFF" stroke-width="2" stroke-linecap="round" stroke-linejoin="round" d="M65.92,22.419
			c-17.746,0-32.131,14.389-32.131,32.136c0,8.263,3.141,15.77,8.264,21.463C56.17,60.711,73.393,47.542,92.92,37.172
			C87.199,28.304,77.254,22.419,65.92,22.419z"/>
	</g>
	<g>
		<g>
			<path fill="#231F20" d="M202.762,78.477c5.277,0,7.063,3.499,3.971,7.773l-2.594,3.587c-3.094,4.276-8.156,4.276-11.248,0
				l-2.594-3.585c-3.092-4.277-1.307-7.775,3.971-7.775H202.762z"/>
			<path fill="none" d="M202.762,78.477c5.277,0,7.063,3.499,3.971,7.773l-2.594,3.587c-3.094,4.276-8.156,4.276-11.248,0
				l-2.594-3.585c-3.092-4.277-1.307-7.775,3.971-7.775H202.762z"/>
		</g>
		<g>
			<path fill="none" stroke="#231F20" stroke-width="2" stroke-linecap="round" stroke-linejoin="round" stroke-miterlimit="10" d="
				M121.758,76.89c0-5.828,4.727-10.554,10.555-10.554c5.83,0,10.555,4.726,10.555,10.554"/>
			<path fill="none" stroke="#231F20" stroke-width="2" stroke-linecap="round" stroke-linejoin="round" stroke-miterlimit="10" d="
				M252.25,76.89c0-5.828,4.727-10.554,10.555-10.554c5.83,0,10.555,4.726,10.555,10.554"/>
		</g>
	</g>
</g>
</svg>
