<?xml version="1.0" encoding="utf-8"?>
<!-- Generator: Adobe Illustrator 13.0.0, SVG Export Plug-In . SVG Version: 6.00 Build 14948)  -->
<svg version="1.2" baseProfile="tiny" id="Layer_1" xmlns="http://www.w3.org/2000/svg" xmlns:xlink="http://www.w3.org/1999/xlink"
	 x="0px" y="0px" width="417.271px" height="448.072px" viewBox="0 0 417.271 448.072" xml:space="preserve">
<g>
	<path fill="#FFFFFF" stroke="#231F20" stroke-width="2" stroke-linecap="round" stroke-linejoin="round" d="M29.117,305.688
		C11.273,276.273,1,241.76,1,204.846C1,97.324,88.16,10.16,195.688,10.16c107.52,0,194.684,87.164,194.684,194.686
		c0,70.609-37.586,132.436-93.848,166.566h0.004c0,0-74.523,47.076-240.063,75.66c0,0,24.543-43.58-27.348-141.383V305.688z"/>
	<g>
		<g>
			<g>
				<path fill="#FBE901" d="M331.465,137.129c-37.532,0-68.066-30.534-68.066-68.064C263.398,31.533,293.933,1,331.465,1
					c37.53,0,68.063,30.533,68.063,68.064C399.527,106.595,368.995,137.129,331.465,137.129z"/>
			</g>
			<g>
				<path fill="#231F20" d="M331.465,2c37.039,0,67.063,30.023,67.063,67.064s-30.023,67.064-67.063,67.064
					c-37.043,0-67.066-30.023-67.066-67.064S294.422,2,331.465,2 M331.465,0c-38.083,0-69.066,30.982-69.066,69.064
					s30.983,69.064,69.066,69.064c38.081,0,69.063-30.982,69.063-69.064S369.546,0,331.465,0L331.465,0z"/>
			</g>
		</g>
		<g>
			<path fill="#231F20" d="M369.483,64.623c-0.179,0-0.36-0.048-0.523-0.149l-12.668-7.809c-0.296-0.182-0.476-0.504-0.476-0.851
				c0-0.348,0.18-0.67,0.476-0.852l13.156-8.105c0.469-0.291,1.085-0.144,1.376,0.327c0.289,0.47,0.144,1.086-0.327,1.376
				l-11.774,7.254l11.286,6.957c0.471,0.29,0.616,0.906,0.327,1.376C370.146,64.454,369.819,64.623,369.483,64.623z"/>
		</g>
		<g>
			<path fill="#231F20" d="M299.364,64.623c-0.336,0-0.663-0.169-0.853-0.476c-0.289-0.471-0.144-1.086,0.327-1.376l11.29-6.957
				l-11.774-7.254c-0.471-0.29-0.616-0.906-0.327-1.376c0.29-0.471,0.905-0.618,1.376-0.327l13.156,8.105
				c0.296,0.182,0.476,0.504,0.476,0.852c0,0.347-0.18,0.669-0.476,0.852l-12.672,7.809
				C299.725,64.575,299.543,64.623,299.364,64.623z"/>
		</g>
		<g>
			<g>
				<path fill="#B5E3F0" d="M408.723,56.607c5.547-1.605,8.738-7.412,7.129-12.955c-1.609-5.545-7.41-8.742-12.957-7.129
					c-5.543,1.607-22.109,17.301-22.109,17.301S403.176,58.217,408.723,56.607z"/>
				<path fill="#231F20" d="M405.081,57.962C405.081,57.962,405.081,57.962,405.081,57.962c-8.304,0-23.831-3.027-24.488-3.156
					c-0.367-0.072-0.664-0.344-0.768-0.703c-0.104-0.359,0.001-0.747,0.272-1.005c0.684-0.647,16.808-15.879,22.519-17.535
					c1.044-0.304,2.121-0.457,3.199-0.457c5.062,0,9.584,3.399,10.996,8.268c0.854,2.938,0.511,6.033-0.965,8.715
					c-1.476,2.684-3.907,4.629-6.846,5.479C408.087,57.833,406.805,57.962,405.081,57.962z M382.91,53.205
					c4.495,0.822,15.753,2.757,22.17,2.757c0.001,0,0.001,0,0.001,0c1.512,0,2.643-0.106,3.363-0.315
					c2.426-0.702,4.433-2.308,5.65-4.522c1.218-2.214,1.501-4.769,0.797-7.193c-1.167-4.019-4.898-6.825-9.076-6.825
					c-0.89,0-1.778,0.127-2.642,0.378C399.214,38.632,388.29,48.225,382.91,53.205z"/>
			</g>
			<g>
				<g>
					<path fill="#FFFFFF" d="M403.984,40.268c-4.023,1.166-13.813,9.715-18.902,14.338c-2.57-0.449-4.297-0.781-4.297-0.781
						s16.566-15.693,22.109-17.301c5.547-1.613,11.348,1.584,12.957,7.129c0.184,0.641,0.293,1.283,0.355,1.928
						C413.98,41.184,408.887,38.846,403.984,40.268z"/>
				</g>
			</g>
			<g>
				<path fill="#231F20" d="M405.081,57.962C405.081,57.962,405.081,57.962,405.081,57.962c-8.304,0-23.831-3.027-24.488-3.156
					c-0.367-0.072-0.664-0.344-0.768-0.703c-0.104-0.359,0.001-0.747,0.272-1.005c0.684-0.647,16.808-15.879,22.519-17.535
					c1.044-0.304,2.121-0.457,3.199-0.457c5.062,0,9.584,3.399,10.996,8.268c0.854,2.938,0.511,6.033-0.965,8.715
					c-1.476,2.684-3.907,4.629-6.846,5.479C408.087,57.833,406.805,57.962,405.081,57.962z M382.91,53.205
					c4.495,0.822,15.753,2.757,22.17,2.757c0.001,0,0.001,0,0.001,0c1.512,0,2.643-0.106,3.363-0.315
					c2.426-0.702,4.433-2.308,5.65-4.522c1.218-2.214,1.501-4.769,0.797-7.193c-1.167-4.019-4.898-6.825-9.076-6.825
					c-0.89,0-1.778,0.127-2.642,0.378C399.214,38.632,388.29,48.225,382.91,53.205z"/>
			</g>
		</g>
		<g>
			<g>
				<path fill="#B5E3F0" d="M254.203,56.607c-5.547-1.609-8.734-7.414-7.129-12.957c1.609-5.545,7.414-8.74,12.957-7.131
					c5.547,1.611,22.109,17.305,22.109,17.305S259.75,58.215,254.203,56.607z"/>
				<path fill="#231F20" d="M257.843,57.961c-1.724,0-3.005-0.129-3.918-0.394c-6.064-1.76-9.568-8.128-7.812-14.195
					c1.414-4.869,5.938-8.27,11.002-8.27c1.077,0,2.152,0.153,3.195,0.456c5.714,1.66,21.834,16.892,22.518,17.539
					c0.272,0.258,0.377,0.646,0.272,1.005c-0.104,0.359-0.4,0.631-0.768,0.703C281.676,54.935,266.145,57.961,257.843,57.961z
					 M257.115,37.103c-4.18,0-7.914,2.808-9.081,6.826c-1.45,5.009,1.441,10.266,6.447,11.718c0.72,0.209,1.851,0.314,3.361,0.314
					c6.417,0,17.678-1.934,22.173-2.756c-5.379-4.98-16.302-14.574-20.264-15.726C258.891,37.229,258.004,37.103,257.115,37.103z"/>
			</g>
			<g>
				<g>
					<path fill="#FFFFFF" d="M258.945,40.268c4.02,1.166,13.809,9.715,18.902,14.338c2.566-0.449,4.293-0.781,4.293-0.781
						s-16.563-15.693-22.109-17.305c-5.543-1.609-11.348,1.586-12.957,7.131c-0.184,0.643-0.289,1.285-0.352,1.93
						C248.949,41.182,254.039,38.842,258.945,40.268z"/>
				</g>
			</g>
			<g>
				<path fill="#231F20" d="M257.843,57.961c-1.724,0-3.005-0.129-3.918-0.394c-6.064-1.76-9.568-8.128-7.812-14.195
					c1.414-4.869,5.938-8.27,11.002-8.27c1.077,0,2.152,0.153,3.195,0.456c5.714,1.66,21.834,16.892,22.518,17.539
					c0.272,0.258,0.377,0.646,0.272,1.005c-0.104,0.359-0.4,0.631-0.768,0.703C281.676,54.935,266.145,57.961,257.843,57.961z
					 M257.115,37.103c-4.18,0-7.914,2.808-9.081,6.826c-1.45,5.009,1.441,10.266,6.447,11.718c0.72,0.209,1.851,0.314,3.361,0.314
					c6.417,0,17.678-1.934,22.173-2.756c-5.379-4.98-16.302-14.574-20.264-15.726C258.891,37.229,258.004,37.103,257.115,37.103z"/>
			</g>
		</g>
		<g>
			<path fill="#FFFFFF" d="M292.371,91.906c0,9.729,18.93,17.613,42.293,17.613c23.359,0,42.289-7.885,42.289-17.613
				c0-9.73-18.93-17.615-42.289-17.615C311.301,74.291,292.371,82.176,292.371,91.906z"/>
			<path fill="#231F20" d="M334.664,110.52c-24.276,0-43.293-8.176-43.293-18.613c0-10.438,19.017-18.615,43.293-18.615
				c24.274,0,43.289,8.177,43.289,18.615C377.953,102.344,358.938,110.52,334.664,110.52z M334.664,75.291
				c-22.383,0-41.293,7.608-41.293,16.615c0,9.005,18.91,16.613,41.293,16.613c22.381,0,41.289-7.608,41.289-16.613
				C375.953,82.899,357.045,75.291,334.664,75.291z"/>
		</g>
	</g>
</g>
</svg>
