<?xml version="1.0" encoding="utf-8"?>
<!-- Generator: Adobe Illustrator 13.0.0, SVG Export Plug-In . SVG Version: 6.00 Build 14948)  -->
<svg version="1.2" baseProfile="tiny" id="Layer_1" xmlns="http://www.w3.org/2000/svg" xmlns:xlink="http://www.w3.org/1999/xlink"
	 x="0px" y="0px" width="417.271px" height="448.072px" viewBox="0 0 417.271 448.072" xml:space="preserve">
<g>
	<path fill="#FFFFFF" stroke="#231F20" stroke-width="2" stroke-linecap="round" stroke-linejoin="round" d="M388.154,305.688
		c17.844-29.414,28.117-63.928,28.117-100.842c0-107.521-87.16-194.686-194.688-194.686C114.064,10.16,26.9,97.324,26.9,204.846
		c0,70.609,37.586,132.436,93.848,166.566h-0.004c0,0,74.523,47.076,240.063,75.66c0,0-24.543-43.58,27.348-141.383V305.688z"/>
	<g>
		<g>
			<g>
				<path fill="#FBE901" d="M85.806,137.129c-37.53,0-68.063-30.534-68.063-68.064C17.744,31.533,48.276,1,85.806,1
					c37.532,0,68.066,30.533,68.066,68.064C153.873,106.595,123.338,137.129,85.806,137.129z"/>
			</g>
			<g>
				<path fill="#231F20" d="M85.806,2c37.043,0,67.066,30.023,67.066,67.064s-30.023,67.064-67.066,67.064
					c-37.039,0-67.063-30.023-67.063-67.064S48.767,2,85.806,2 M85.806,0C47.725,0,16.744,30.982,16.744,69.064
					s30.981,69.064,69.063,69.064c38.083,0,69.066-30.982,69.066-69.064S123.889,0,85.806,0L85.806,0z"/>
			</g>
		</g>
		<g>
			<path fill="#231F20" d="M47.788,64.623c-0.336,0-0.663-0.169-0.853-0.476c-0.289-0.47-0.144-1.087,0.327-1.376l11.286-6.957
				l-11.774-7.254c-0.471-0.291-0.616-0.906-0.327-1.377c0.29-0.469,0.905-0.617,1.376-0.326l13.156,8.105
				c0.296,0.182,0.476,0.504,0.476,0.852c0,0.346-0.18,0.668-0.476,0.851l-12.668,7.809C48.148,64.574,47.966,64.623,47.788,64.623z
				"/>
		</g>
		<g>
			<path fill="#231F20" d="M117.907,64.623c-0.179,0-0.36-0.049-0.523-0.148l-12.672-7.809c-0.296-0.183-0.476-0.505-0.476-0.852
				c0-0.348,0.18-0.67,0.476-0.852l13.156-8.105c0.469-0.291,1.085-0.143,1.376,0.326c0.289,0.471,0.144,1.086-0.327,1.377
				l-11.774,7.254l11.29,6.957c0.471,0.289,0.616,0.905,0.327,1.375C118.57,64.453,118.243,64.623,117.907,64.623z"/>
		</g>
		<g>
			<g>
				<path fill="#B5E3F0" d="M8.548,56.607c-5.547-1.605-8.738-7.412-7.129-12.955c1.609-5.545,7.41-8.742,12.957-7.129
					c5.543,1.607,22.109,17.301,22.109,17.301S14.095,58.217,8.548,56.607z"/>
				<path fill="#231F20" d="M12.191,57.961c-1.725,0-3.007-0.129-3.921-0.394c-2.938-0.851-5.37-2.796-6.846-5.479
					c-1.476-2.682-1.818-5.777-0.965-8.715c1.412-4.868,5.935-8.268,10.996-8.268c1.078,0,2.155,0.153,3.2,0.457
					c5.71,1.656,21.834,16.888,22.518,17.535c0.271,0.258,0.377,0.645,0.272,1.005c-0.104,0.359-0.4,0.63-0.768,0.702
					C36.021,54.934,20.494,57.961,12.191,57.961z M11.456,37.105c-4.178,0-7.909,2.807-9.076,6.825
					c-0.704,2.425-0.421,4.979,0.797,7.193s3.225,3.82,5.65,4.522c0.721,0.209,1.853,0.314,3.364,0.314
					c6.419,0,17.675-1.934,22.17-2.756c-5.38-4.98-16.305-14.574-20.263-15.722C13.234,37.232,12.345,37.105,11.456,37.105z"/>
			</g>
			<g>
				<g>
					<path fill="#FFFFFF" d="M13.287,40.268c4.023,1.166,13.813,9.715,18.902,14.338c2.57-0.449,4.297-0.781,4.297-0.781
						S19.919,38.131,14.376,36.523C8.83,34.91,3.029,38.107,1.419,43.652c-0.184,0.641-0.293,1.283-0.355,1.928
						C3.291,41.184,8.384,38.846,13.287,40.268z"/>
				</g>
			</g>
			<g>
				<path fill="#231F20" d="M12.191,57.961c-1.725,0-3.007-0.129-3.921-0.394c-2.938-0.851-5.37-2.796-6.846-5.479
					c-1.476-2.682-1.818-5.777-0.965-8.715c1.412-4.868,5.935-8.268,10.996-8.268c1.078,0,2.155,0.153,3.2,0.457
					c5.71,1.656,21.834,16.888,22.518,17.535c0.271,0.258,0.377,0.645,0.272,1.005c-0.104,0.359-0.4,0.63-0.768,0.702
					C36.021,54.934,20.494,57.961,12.191,57.961z M11.456,37.105c-4.178,0-7.909,2.807-9.076,6.825
					c-0.704,2.425-0.421,4.979,0.797,7.193s3.225,3.82,5.65,4.522c0.721,0.209,1.853,0.314,3.364,0.314
					c6.419,0,17.675-1.934,22.17-2.756c-5.38-4.98-16.305-14.574-20.263-15.722C13.234,37.232,12.345,37.105,11.456,37.105z"/>
			</g>
		</g>
		<g>
			<g>
				<path fill="#B5E3F0" d="M163.068,56.607c5.547-1.609,8.734-7.414,7.129-12.957c-1.609-5.545-7.414-8.74-12.957-7.131
					c-5.547,1.611-22.109,17.305-22.109,17.305S157.521,58.215,163.068,56.607z"/>
				<path fill="#231F20" d="M159.43,57.961c0,0-0.001,0-0.002,0c-8.303,0-23.833-3.027-24.49-3.156
					c-0.367-0.072-0.664-0.343-0.768-0.702c-0.104-0.359,0-0.747,0.272-1.005c0.684-0.647,16.804-15.879,22.518-17.539
					c1.043-0.303,2.118-0.456,3.195-0.456c5.064,0,9.588,3.399,11.001,8.269c1.758,6.068-1.746,12.437-7.811,14.196
					C162.433,57.832,161.152,57.961,159.43,57.961z M137.255,53.205c4.495,0.822,15.756,2.756,22.174,2.756h0.001
					c1.51,0,2.64-0.105,3.359-0.314c5.006-1.452,7.897-6.709,6.446-11.719c-1.166-4.018-4.9-6.825-9.08-6.825
					c-0.889,0-1.775,0.126-2.637,0.377C153.557,38.631,142.634,48.225,137.255,53.205z"/>
			</g>
			<g>
				<g>
					<path fill="#FFFFFF" d="M158.326,40.268c-4.02,1.166-13.809,9.715-18.902,14.338c-2.566-0.449-4.293-0.781-4.293-0.781
						s16.563-15.693,22.109-17.305c5.543-1.609,11.348,1.586,12.957,7.131c0.184,0.643,0.289,1.285,0.352,1.93
						C168.322,41.182,163.232,38.842,158.326,40.268z"/>
				</g>
			</g>
			<g>
				<path fill="#231F20" d="M159.43,57.961c0,0-0.001,0-0.002,0c-8.303,0-23.833-3.027-24.49-3.156
					c-0.367-0.072-0.664-0.343-0.768-0.702c-0.104-0.359,0-0.747,0.272-1.005c0.684-0.647,16.804-15.879,22.518-17.539
					c1.043-0.303,2.118-0.456,3.195-0.456c5.064,0,9.588,3.399,11.001,8.269c1.758,6.068-1.746,12.437-7.811,14.196
					C162.433,57.832,161.152,57.961,159.43,57.961z M137.255,53.205c4.495,0.822,15.756,2.756,22.174,2.756h0.001
					c1.51,0,2.64-0.105,3.359-0.314c5.006-1.452,7.897-6.709,6.446-11.719c-1.166-4.018-4.9-6.825-9.08-6.825
					c-0.889,0-1.775,0.126-2.637,0.377C153.557,38.631,142.634,48.225,137.255,53.205z"/>
			</g>
		</g>
		<g>
			<path fill="#FFFFFF" d="M124.9,91.906c0,9.729-18.93,17.613-42.293,17.613c-23.359,0-42.289-7.885-42.289-17.613
				c0-9.73,18.93-17.615,42.289-17.615C105.97,74.291,124.9,82.176,124.9,91.906z"/>
			<path fill="#231F20" d="M82.607,110.52c-24.274,0-43.289-8.176-43.289-18.613c0-10.439,19.015-18.615,43.289-18.615
				c24.276,0,43.293,8.176,43.293,18.615C125.9,102.344,106.883,110.52,82.607,110.52z M82.607,75.291
				c-22.381,0-41.289,7.608-41.289,16.615c0,9.005,18.908,16.613,41.289,16.613c22.383,0,41.293-7.608,41.293-16.613
				C123.9,82.899,104.99,75.291,82.607,75.291z"/>
		</g>
	</g>
</g>
</svg>
