<?xml version="1.0" encoding="utf-8"?>
<!-- Generator: Adobe Illustrator 13.0.0, SVG Export Plug-In . SVG Version: 6.00 Build 14948)  -->
<svg version="1.2" baseProfile="tiny" id="Layer_1" xmlns="http://www.w3.org/2000/svg" xmlns:xlink="http://www.w3.org/1999/xlink"
	 x="0px" y="0px" width="462.416px" height="462.416px" viewBox="0 0 462.416 462.416" xml:space="preserve">
<g>
	<g>
		<g>
			<path fill="#FFFFFF" d="M461.208,231.208c0,14.553-25.354,26.429-28.074,40.183c-2.803,14.173,16.027,34.82,10.62,47.861
				c-5.501,13.265-33.47,14.526-41.363,26.319c-7.957,11.883,1.528,38.197-8.547,48.271c-10.075,10.075-36.393,0.591-48.274,8.546
				c-11.791,7.895-13.053,35.861-26.32,41.363c-13.038,5.406-33.687-13.421-47.857-10.618c-13.756,2.72-25.631,28.074-40.184,28.074
				s-26.428-25.353-40.182-28.074c-14.172-2.803-34.818,16.025-47.859,10.619c-13.268-5.501-14.527-33.468-26.319-41.363
				c-11.883-7.955-38.2,1.53-48.272-8.544c-10.076-10.076-0.593-36.392-8.547-48.274c-7.894-11.793-35.862-13.053-41.363-26.319
				c-5.407-13.041,13.42-33.688,10.617-47.86c-2.719-13.753-28.074-25.631-28.074-40.184s25.353-26.429,28.074-40.182
				c2.803-14.174-16.024-34.821-10.617-47.861c5.501-13.268,33.47-14.527,41.363-26.319c7.954-11.883-1.529-38.197,8.547-48.271
				c10.074-10.076,36.39-0.592,48.272-8.547c11.792-7.895,13.052-35.862,26.319-41.363c13.041-5.407,33.688,13.422,47.859,10.619
				c13.754-2.723,25.629-28.075,40.182-28.075s26.428,25.355,40.184,28.075c14.174,2.803,34.819-16.025,47.859-10.618
				c13.268,5.503,14.527,33.469,26.32,41.364c11.883,7.955,38.199-1.529,48.272,8.546c10.075,10.075,0.593,36.39,8.547,48.272
				c7.894,11.793,35.862,13.054,41.363,26.32c5.407,13.04-13.421,33.688-10.618,47.858
				C435.856,204.78,461.208,216.655,461.208,231.208z"/>
		</g>
		<g>
			<path d="M231.208,462.416c-8.277,0-15.543-7.49-22.57-14.734c-5.802-5.981-11.802-12.167-17.846-13.363
				c-0.884-0.175-1.836-0.263-2.831-0.263c-5.806,0-12.739,2.991-19.443,5.884c-6.839,2.951-13.91,6.002-20.054,6.002
				c-2.103,0.001-4.041-0.36-5.759-1.072c-7.515-3.116-11.324-12.745-15.009-22.058c-3.097-7.828-6.3-15.923-11.52-19.418
				c-4.385-2.936-11.151-3.341-17.811-3.341c-1.559,0-3.136,0.023-4.713,0.045c-1.588,0.023-3.175,0.046-4.745,0.046
				c-7.617,0-16.165-0.421-21.187-5.443c-5.688-5.688-5.542-15.981-5.401-25.937c0.12-8.472,0.244-17.232-3.296-22.521
				c-3.495-5.222-11.59-8.424-19.419-11.521c-9.312-3.685-18.941-7.494-22.056-15.007c-3.043-7.34,1.009-16.731,4.928-25.814
				c3.38-7.833,6.875-15.933,5.62-22.274c-1.195-6.044-7.38-12.045-13.362-17.848C7.491,246.751,0,239.484,0,231.208
				c0-8.277,7.491-15.544,14.735-22.57c5.981-5.803,12.167-11.802,13.363-17.846c1.254-6.342-2.241-14.442-5.621-22.276
				c-3.919-9.083-7.971-18.475-4.928-25.813c3.116-7.514,12.745-11.323,22.058-15.008c7.828-3.098,15.923-6.3,19.417-11.521
				c3.54-5.288,3.416-14.048,3.296-22.52c-0.141-9.954-0.287-20.247,5.401-25.935c5.024-5.024,13.576-5.445,21.197-5.445
				c1.566,0,3.151,0.022,4.736,0.045c1.574,0.022,3.148,0.045,4.704,0.045c6.662,0,13.432-0.404,17.817-3.341
				c5.22-3.495,8.423-11.59,11.52-19.418c3.685-9.313,7.494-18.941,15.009-22.057c1.718-0.713,3.656-1.074,5.759-1.074
				c6.144,0,13.215,3.052,20.054,6.003c6.704,2.893,13.637,5.884,19.443,5.884c0.995,0,1.947-0.088,2.831-0.263
				c6.044-1.196,12.043-7.382,17.846-13.363C215.665,7.491,222.931,0,231.208,0c8.276,0,15.542,7.49,22.568,14.734
				c5.803,5.982,11.804,12.169,17.85,13.364c0.884,0.175,1.837,0.263,2.831,0.263c5.807,0,12.739-2.991,19.444-5.884
				c6.838-2.951,13.909-6.002,20.053-6.002c2.104,0,4.042,0.361,5.76,1.074c7.514,3.116,11.323,12.745,15.008,22.057
				c3.098,7.829,6.301,15.924,11.521,19.419c4.386,2.936,11.154,3.341,17.815,3.341c1.557,0,3.132-0.022,4.707-0.045
				c1.586-0.022,3.171-0.045,4.738-0.045c7.62,0,16.171,0.421,21.194,5.444c5.687,5.688,5.541,15.98,5.4,25.935
				c-0.12,8.472-0.244,17.232,3.296,22.521c3.494,5.222,11.59,8.424,19.419,11.521c9.312,3.685,18.94,7.494,22.056,15.008
				c3.044,7.339-1.009,16.731-4.928,25.814c-3.38,7.833-6.875,15.933-5.621,22.272c1.196,6.044,7.381,12.044,13.362,17.847
				c7.243,7.026,14.733,14.292,14.733,22.569c0,8.276-7.49,15.543-14.734,22.569c-5.982,5.803-12.168,11.803-13.363,17.848
				c-1.254,6.341,2.241,14.441,5.622,22.275c3.919,9.083,7.973,18.475,4.929,25.814c-3.115,7.512-12.743,11.321-22.055,15.006
				c-7.829,3.098-15.925,6.301-19.42,11.522c-3.542,5.289-3.417,14.05-3.297,22.523c0.141,9.952,0.287,20.244-5.399,25.931
				c-5.024,5.023-13.575,5.444-21.196,5.444c-1.567,0-3.152-0.022-4.739-0.045c-1.574-0.022-3.149-0.045-4.706-0.045
				c-6.661,0-13.431,0.404-17.815,3.341c-5.22,3.495-8.423,11.589-11.52,19.417c-3.686,9.313-7.495,18.942-15.01,22.058
				c-1.718,0.713-3.654,1.073-5.759,1.073c-6.144,0.001-13.215-3.05-20.054-6.001c-6.704-2.893-13.637-5.884-19.442-5.884
				c-0.995,0-1.947,0.088-2.831,0.263c-6.046,1.195-12.047,7.382-17.85,13.364C246.75,454.926,239.484,462.416,231.208,462.416z
				 M187.961,431.64c1.152,0,2.262,0.104,3.3,0.31c6.784,1.342,13.051,7.803,19.111,14.051c6.677,6.883,13.581,14,20.836,14
				c7.254,0,14.158-7.117,20.835-14c6.061-6.248,12.329-12.709,19.114-14.051c1.038-0.205,2.147-0.31,3.3-0.31
				c6.305,0,13.47,3.092,20.399,6.082c6.613,2.854,13.452,5.804,19.097,5.804c1.81,0,3.391-0.291,4.833-0.889
				c6.57-2.725,10.189-11.871,13.688-20.716c3.234-8.172,6.577-16.622,12.423-20.536c4.921-3.294,12.116-3.749,19.159-3.749
				c1.567,0,3.154,0.022,4.741,0.046c1.574,0.021,3.148,0.044,4.704,0.044c8.854,0,15.557-0.806,19.487-4.737
				c4.966-4.964,4.827-14.737,4.692-24.188c-0.125-8.844-0.255-17.987,3.705-23.901c3.914-5.847,12.365-9.191,20.539-12.425
				c8.844-3.5,17.989-7.118,20.713-13.686c2.651-6.395-1.196-15.311-4.916-23.932c-3.526-8.173-7.174-16.623-5.773-23.701
				c1.341-6.784,7.802-13.052,14.051-19.112c6.883-6.677,14-13.581,14-20.836s-7.117-14.159-13.999-20.836
				c-6.248-6.061-12.708-12.327-14.05-19.111c-1.4-7.077,2.246-15.526,5.772-23.698c3.72-8.622,7.566-17.537,4.915-23.932
				c-2.725-6.569-11.87-10.188-20.714-13.687c-8.173-3.234-16.624-6.578-20.538-12.425c-3.958-5.914-3.829-15.057-3.704-23.898
				c0.134-9.452,0.272-19.227-4.693-24.191c-3.931-3.932-10.632-4.737-19.485-4.737c-1.556,0-3.13,0.022-4.704,0.044
				c-1.587,0.023-3.173,0.046-4.741,0.046c-7.042,0-14.238-0.455-19.159-3.749c-5.847-3.915-9.19-12.365-12.424-20.538
				c-3.499-8.844-7.118-17.989-13.688-20.715c-1.443-0.598-3.024-0.889-4.834-0.889c-5.645,0-12.483,2.95-19.096,5.804
				c-6.93,2.99-14.096,6.082-20.401,6.082c-1.151,0-2.262-0.104-3.3-0.31c-6.785-1.342-13.054-7.803-19.115-14.052
				c-6.676-6.883-13.58-14-20.834-14c-7.255,0-14.159,7.117-20.836,14.001c-6.06,6.248-12.327,12.708-19.111,14.051
				c-1.038,0.205-2.148,0.31-3.3,0.31c-6.305,0-13.471-3.092-20.4-6.082c-6.613-2.854-13.452-5.805-19.097-5.805
				c-1.81,0-3.391,0.291-4.834,0.889c-6.569,2.725-10.188,11.87-13.687,20.715c-3.233,8.173-6.577,16.623-12.423,20.537
				c-4.921,3.295-12.117,3.749-19.161,3.749c-1.567,0-3.153-0.022-4.738-0.045c-1.574-0.022-3.147-0.045-4.702-0.045
				c-8.855,0-15.558,0.806-19.489,4.738c-4.966,4.965-4.828,14.739-4.694,24.191c0.125,8.842,0.255,17.984-3.703,23.897
				c-3.914,5.846-12.364,9.189-20.537,12.423c-8.845,3.499-17.991,7.118-20.715,13.688c-2.652,6.395,1.194,15.31,4.914,23.931
				c3.526,8.173,7.172,16.624,5.772,23.702c-1.343,6.783-7.803,13.05-14.05,19.11c-6.883,6.678-14.001,13.582-14.001,20.837
				s7.118,14.159,14.001,20.837c6.248,6.061,12.709,12.328,14.05,19.112c1.399,7.078-2.247,15.528-5.772,23.7
				c-3.72,8.621-7.566,17.536-4.915,23.932c2.724,6.569,11.869,10.188,20.713,13.687c8.173,3.233,16.625,6.577,20.538,12.424
				c3.958,5.913,3.829,15.057,3.703,23.898c-0.134,9.453-0.272,19.228,4.694,24.193c3.93,3.931,10.629,4.736,19.479,4.736
				c1.558,0,3.134-0.022,4.71-0.045c1.588-0.022,3.177-0.045,4.747-0.045c7.041,0,14.233,0.454,19.154,3.748
				c5.846,3.914,9.189,12.365,12.422,20.537c3.5,8.845,7.118,17.99,13.688,20.715c1.443,0.598,3.024,0.889,4.834,0.889
				c5.645-0.001,12.484-2.951,19.097-5.805C174.49,434.731,181.656,431.64,187.961,431.64z"/>
		</g>
	</g>
	<g>
		<g>
			<g>
				<g>
					<path fill="#77CBF2" d="M137.775,338.284c-3.196-3.712-8.132-7.549-12.493-8.906c-5.813-1.9-13.676-1.267-18.617,2.533
						c-5.232,4.074-7.453,8.748-6.869,14.994c0.578,5.976,2.87,11.232,10.617,13.119c6.904,1.683,16.368,4.498,13.619,9.746
						c-3.829,7.312-20.794-1.938-23.506-3.648c-1.91,2.911-3.801,6.441-5.105,9.77c12.787,8.873,39.021,14.988,41.354-5.87
						c1-8.93-5.245-14.053-13.618-16.869c-4.594-1.547-9.678-1.94-11.053-6.499c-0.942-3.121,0.932-5.869,3.432-6.621
						c5.904-1.771,12.281,3.149,15.867,6.5C133.921,343.363,137.001,339.938,137.775,338.284z"/>
				</g>
				<g>
					<g>
						<path d="M139.141,337.79c-7.451-8.233-16.93-11.97-27.761-8.825c-9.327,2.708-14.242,11.353-12.701,20.675
							c2.048,12.389,15.211,9.636,22.984,15.92c2.345,1.896,1.468,5.949-1.688,6.365c-2.445,0.323-5.145-0.595-7.448-1.328
							c-3.689-1.175-7.335-2.94-10.636-4.969c-0.662-0.406-2.394,0.118-2.794,0.749c-1.986,3.124-3.691,6.347-5.105,9.77
							c-0.047,0.099-0.026,0.178,0.064,0.239c10.559,7.135,30.783,13.887,40.769,2.184c6.427-7.532,3.57-18.211-4.227-23.181
							c-4.705-2.999-10.825-3.035-15.26-6.321c-1.465-1.086-1.766-2.691-2.03-4.324c-0.794-4.902,6.095-4.438,9.021-3.205
							c2.894,1.219,5.416,3.398,7.711,5.488c0.502,0.457,2.312-0.149,2.677-0.603c2.199-2.722,4.742-5.343,6.489-8.395
							c0.218-0.38-2.442-0.218-2.858,0.51c-1.688,2.948-4.125,5.466-6.255,8.102c0.893-0.201,1.785-0.401,2.677-0.603
							c-5.39-4.907-15.853-11.105-21.668-3.329c-3.313,4.429,2.458,8.331,5.863,9.521c6.419,2.24,12.871,3.655,16.774,9.785
							c2.899,4.554,1.832,10.906-0.606,15.389c-2.928,5.385-9.121,6.381-14.692,5.996c-5.101-0.352-10.157-2.046-14.788-4.123
							c-2.121-0.951-4.144-2.106-6.099-3.36c-1.686-1.081,3.69-8.928,4.402-10.049c-0.932,0.25-1.863,0.499-2.794,0.749
							c5.269,3.236,12.314,6.774,18.651,6.515c5.798-0.237,11.641-5.384,4.892-9.782c-4.492-2.928-10.208-3.027-14.95-5.333
							c-4.903-2.386-6.297-7.954-6.594-12.912c-0.523-8.719,7.046-15.407,15.283-16.139c7.992-0.709,14.875,4.186,19.967,9.813
							C136.901,339.32,139.591,338.288,139.141,337.79z"/>
					</g>
				</g>
			</g>
			<g>
				<g>
					<path fill="#77CBF2" d="M189.821,339.322c-3.197-3.712-8.133-7.55-12.493-8.907c-5.813-1.9-13.677-1.266-18.616,2.535
						c-5.233,4.072-7.455,8.748-6.875,14.992c0.584,5.974,2.877,11.232,10.622,13.119c6.906,1.684,16.368,4.498,13.618,9.747
						c-3.828,7.312-20.793-1.938-23.505-3.647c-1.911,2.91-3.799,6.438-5.106,9.769c12.791,8.871,39.023,14.988,41.357-5.873
						c0.998-8.929-5.248-14.05-13.619-16.866c-4.596-1.547-9.68-1.94-11.054-6.497c-0.942-3.125,0.933-5.873,3.433-6.622
						c5.906-1.772,12.281,3.148,15.867,6.497C185.97,344.4,189.046,340.975,189.821,339.322z"/>
				</g>
				<g>
					<g>
						<path d="M191.16,338.729c-7.105-7.851-15.949-11.792-26.484-9.494c-9.504,2.073-15.26,10.91-14.146,20.28
							c0.494,4.161,2.373,7.593,5.687,10.121c4.449,3.393,11.109,3.315,16.03,5.996c3.337,1.818,3.92,6.408-0.68,7.016
							c-2.404,0.317-5.053-0.589-7.314-1.309c-3.657-1.165-7.267-2.921-10.54-4.93c-0.739-0.453-2.059-0.027-2.502,0.67
							c-1.987,3.124-3.691,6.347-5.106,9.769c-0.149,0.36-0.114,0.606,0.223,0.834c10.023,6.771,31.461,14.485,40.597,2.113
							c5.038-6.821,4.741-17.029-2.448-22.23c-4.094-2.961-8.64-4.275-13.408-5.718c-1.829-0.554-3.16-1.269-4.486-2.643
							c-3.242-3.358,0.023-8.412,5.624-7.25c3.758,0.779,7.167,3.714,9.907,6.208c0.623,0.566,1.999,0.359,2.52-0.284
							c2.221-2.747,4.788-5.396,6.553-8.474c0.737-1.285-2.195-1.088-2.726-0.164c-1.672,2.918-4.081,5.411-6.189,8.019
							c0.84-0.095,1.68-0.189,2.52-0.284c-3.417-3.11-7.73-6.675-12.542-7.071c-3.329-0.275-8.236,0.4-9.384,4.263
							c-1.264,4.252,1.323,7.603,5.298,8.989c6.347,2.215,12.792,3.484,17.114,9.13c3.599,4.701,2.442,11.931-0.533,16.609
							c-3.106,4.884-9.413,5.587-14.654,5.226c-5.043-0.348-10.035-2.011-14.615-4.064c-2.121-0.951-4.145-2.106-6.1-3.359
							c-1.133-0.727,3.979-8.537,4.562-9.453c-0.834,0.223-1.668,0.446-2.502,0.67c5.34,3.277,12.464,6.834,18.88,6.571
							c5.009-0.205,11.385-5.681,5.12-9.765c-4.11-2.679-8.936-3.612-13.583-4.938c-6.592-1.88-8.697-8.64-8.625-14.768
							c0.093-7.847,7.059-13.473,14.296-14.569c8.369-1.269,15.605,3.553,20.962,9.472
							C189.237,340.749,192.004,339.661,191.16,338.729z"/>
					</g>
				</g>
			</g>
			<g>
				<g>
					<g>
						<g>
							<path fill="#77CBF2" d="M296.179,316.138c0,0-0.894,23.98-1.572,32.116c0,0-12.188-13.037-26.83-2.581
								c-6.721,4.8-9.891,13.568-8.4,20.731c2.168,10.438,7.911,16.763,17.072,17.619c7.724,0.717,14.77-2.441,17.481-6.37
								l-0.136,6.249c2.439,0,11.247,0.847,14.499,0.305c0-1.626,2.437-67.765,2.437-67.765L296.179,316.138z M284.872,369.604
								c-3.686,3.379-9.41,3.104-12.207-1.402c-1.465-2.361-2.942-11.575,5.357-13.265
								C288.007,352.633,291.636,363.763,284.872,369.604z"/>
						</g>
					</g>
					<g>
						<g>
							<path d="M294.708,316.235c-0.4,10.704-0.72,21.438-1.572,32.117c0.931-0.25,1.862-0.5,2.794-0.749
								c-11.683-12.216-33.325-7.212-37.573,9.623c-2.373,9.405,1.398,20.602,9.97,25.614c8.073,4.723,21.011,2.667,26.825-4.728
								c-0.897-0.12-1.795-0.241-2.692-0.362c-0.046,2.084-0.091,4.166-0.136,6.25c-0.018,0.778,0.707,0.994,1.354,1.007
								c4.812,0.095,9.697,0.896,14.5,0.305c0.599-0.074,1.579-0.447,1.587-1.204c0.241-22.58,1.605-45.197,2.437-67.764
								c0.029-0.779-0.717-0.994-1.354-1.008c-4.851-0.102-9.701-0.203-14.551-0.305c-1.692-0.035-2.189,2.17-0.234,2.211
								c4.851,0.102,9.701,0.203,14.551,0.305c-0.451-0.336-0.902-0.672-1.354-1.008c-0.832,22.568-2.196,45.184-2.437,67.766
								c0.528-0.401,1.058-0.803,1.587-1.204c-4.8,0.591-9.686-0.21-14.498-0.305c0.451,0.336,0.902,0.672,1.354,1.007
								c0.046-2.082,0.091-4.166,0.136-6.248c0.031-1.4-2.077-1.145-2.692-0.362c-5.803,7.38-18.014,7.54-25.032,1.963
								c-5.834-4.637-8.009-13.789-6.714-20.789c2.818-15.237,21.936-20.322,32.321-9.463c0.739,0.772,2.693,0.511,2.794-0.749
								c0.854-10.678,1.172-21.412,1.572-32.115C297.708,314.476,294.759,314.865,294.708,316.235z"/>
						</g>
						<g>
							<path d="M283.9,368.902c-7.715,6.488-14.952-6.05-8.608-11.615c3.085-2.706,8.292-1.862,10.507,1.395
								C288.022,361.951,286.585,366.435,283.9,368.902c-1.444,1.328,0.831,2.425,1.943,1.402c3.778-3.473,5.356-8.874,2.303-13.364
								c-3.219-4.731-10.7-4.072-14.798-1.056c-3.624,2.669-4.036,8.308-2.405,12.185c2.558,6.08,10.503,5.934,14.9,2.235
								C287.35,369.038,285.05,367.936,283.9,368.902z"/>
						</g>
					</g>
				</g>
			</g>
			<g>
				<g>
					<g>
						<g>
							<path fill="#77CBF2" d="M243.44,365.869c0,0-9.247,7.511-19.561,6.429c-5.016-0.528-10.809-5.195-10.67-12.448
								c6.969,0.347,33.379-1.777,33.379-1.777c5.681-25.823-22.169-32.805-34.015-24.578c-20.074,10.294-15.69,45.608,4.16,50.159
								c18.501,4.24,32.591-8.618,32.591-8.618C244.946,368.33,243.44,365.869,243.44,365.869z M224.191,342.073
								c5.272-0.222,8.802,3.088,9.952,6.646c0,0-15.352,0.886-17.338,0.5C216.126,346.032,219.747,342.26,224.191,342.073z"/>
						</g>
					</g>
					<g>
						<g>
							<path d="M242.277,365.626c-9.058,7.2-27.014,9.446-27.619-6.164c-0.67,0.404-1.34,0.81-2.011,1.215
								c11.187,0.43,22.601-0.903,33.745-1.796c0.522-0.042,1.522-0.373,1.646-0.988c2.914-14.574-5.219-26.542-20.128-28.319
								c-12.603-1.502-24.381,6.434-28.398,18.316c-4.278,12.653,0.36,29.938,13.254,35.58c11.904,5.209,28.398,0.178,37.722-8.191
								c0.263-0.236,0.384-0.503,0.183-0.813c-1.982-3.04-3.984-6.073-5.885-9.166c-0.507-0.823-3.325,0.105-2.691,1.139
								c0.664,1.078,1.349,2.144,2.03,3.211c0.957,1.499,1.927,2.99,2.896,4.481c0.811,1.249,1.51,0.389,0.258,1.4
								c-5.559,4.492-12.506,7.21-19.566,8.02c-17.075,1.957-27.106-11.979-26.724-27.757c0.318-13.128,10.02-24.979,23.687-24.725
								c15.039,0.279,23.263,13.189,20.465,27.183c0.549-0.329,1.097-0.659,1.646-0.988c-10.909,0.874-22.065,2.179-33.013,1.759
								c-0.686-0.026-2.045,0.333-2.011,1.215c0.708,18.29,23.163,13.569,32.842,5.875
								C245.907,365.076,243.008,365.046,242.277,365.626z"/>
						</g>
						<g>
							<path d="M223.629,342.9c4.25,0.021,7.581,2.229,9.066,6.208c0.548-0.399,1.096-0.798,1.645-1.197
								c-3,0.172-6.002,0.315-9.005,0.435c-1.941,0.077-3.883,0.137-5.825,0.144c-1.495,0.006-1.381,0.345-1.276-0.947
								c0.225-2.772,3.362-4.411,5.761-4.66c1.418-0.147,2.401-1.826,0.393-1.617c-4.303,0.447-9.584,3.326-9.031,8.344
								c0.026,0.233,0.376,0.376,0.563,0.403c5.796,0.853,12.197-0.149,18.027-0.483c0.428-0.024,1.904-0.503,1.646-1.197
								c-1.767-4.731-5.918-7.062-10.839-7.085C223.661,341.24,221.669,342.892,223.629,342.9z"/>
						</g>
					</g>
				</g>
			</g>
			<g>
				<g>
					<path fill="#77CBF2" d="M330.286,371.404c-4.127,1.343-4.35,5.237-2.939,7.76c1.764,3.158,9.113,2.682,10.389-1.055
						C339.107,374.183,334.601,369.204,330.286,371.404z"/>
				</g>
				<g>
					<g>
						<path d="M329.772,371.026c-3.592,1.332-5.694,4.383-4.064,8.156c1.351,3.129,5.729,2.925,8.461,2.32
							c3.495-0.773,6.126-3.434,4.918-7.146c-1.381-4.249-6.12-4.752-9.647-3.187c-0.275,0.122-0.976,0.646-0.337,0.821
							c0.657,0.182,1.437-0.089,2.03-0.353c2.5-1.11,4.88,2.532,5.32,4.442c0.572,2.483-1.162,4.397-3.557,4.541
							c-4.998,0.302-6.932-7.048-2.097-8.84C332.732,371.065,330.91,370.605,329.772,371.026z"/>
					</g>
				</g>
			</g>
			<g>
				<g>
					<path fill="#77CBF2" d="M351.151,371.404c-4.127,1.343-4.35,5.237-2.94,7.76c1.763,3.158,9.115,2.682,10.39-1.055
						C359.974,374.183,355.466,369.204,351.151,371.404z"/>
				</g>
				<g>
					<g>
						<path d="M350.638,371.026c-3.592,1.332-5.694,4.383-4.065,8.156c1.35,3.129,5.729,2.925,8.462,2.32
							c3.494-0.773,6.126-3.434,4.919-7.146c-1.382-4.249-6.122-4.752-9.648-3.187c-0.275,0.122-0.976,0.646-0.337,0.821
							c0.657,0.182,1.437-0.089,2.03-0.353c2.501-1.11,4.88,2.532,5.32,4.442c0.572,2.484-1.162,4.397-3.558,4.541
							c-4.998,0.302-6.931-7.048-2.096-8.84C353.598,371.065,351.775,370.605,350.638,371.026z"/>
					</g>
				</g>
			</g>
			<g>
				<g>
					<path fill="#77CBF2" d="M372.576,371.404c-4.126,1.343-4.348,5.237-2.939,7.76c1.763,3.158,9.115,2.682,10.392-1.055
						C381.399,374.183,376.891,369.204,372.576,371.404z"/>
				</g>
				<g>
					<g>
						<path d="M372.063,371.026c-3.592,1.332-5.692,4.383-4.064,8.156c1.35,3.13,5.73,2.925,8.462,2.32
							c3.495-0.773,6.129-3.434,4.919-7.146c-1.383-4.248-6.122-4.753-9.649-3.187c-0.275,0.122-0.976,0.646-0.337,0.821
							c0.657,0.182,1.437-0.089,2.03-0.353c2.501-1.11,4.881,2.532,5.322,4.442c0.574,2.485-1.163,4.397-3.559,4.541
							c-4.997,0.302-6.932-7.048-2.097-8.84C375.022,371.065,373.2,370.604,372.063,371.026z"/>
					</g>
				</g>
			</g>
		</g>
		<g>
			<g>
				<g>
					<path fill="#77CBF2" d="M247.913,241.457l12.691-0.109c0,0,0.211,10.524,0.313,17.413c3.142-10.185,7.764-14.222,16.798-14.535
						c13.138-0.455,17.868,9.376,20.573,14.69c-2.309,2.877-8.76,10.653-8.76,10.653s-4.439-9.754-11.363-9.557
						c-8.131,0.23-15.878,14.45-15.605,32.622l-13.965-0.108C248.595,292.526,248.007,255.242,247.913,241.457z"/>
				</g>
				<g>
					<g>
						<path d="M247.796,242.563c4.23-0.036,8.462-0.073,12.692-0.109c-0.452-0.336-0.903-0.672-1.354-1.008
							c0.115,5.805,0.224,11.608,0.313,17.413c0.021,1.439,2.489,1.24,2.862,0.092c1.92-5.909,4.571-11.304,10.982-13.084
							c6.675-1.854,13.742,0.355,18.384,5.323c1.329,1.423,2.384,3.098,3.373,4.765c1.266,2.134,1.944,2.604,0.354,4.553
							c-2.35,2.88-4.722,5.741-7.095,8.602c0.891,0.024,1.78,0.049,2.671,0.072c-3.047-6.495-9.174-12.428-16.68-9.253
							c-11.103,4.696-13.214,22.732-13.209,32.805c0.529-0.4,1.058-0.802,1.587-1.203c-4.654-0.036-9.31-0.072-13.964-0.108
							c0.451,0.336,0.902,0.672,1.354,1.008c-0.268-17.022-0.559-34.046-0.682-51.069c-0.011-1.571-2.951-1.169-2.941,0.195
							c0.123,17.024,0.413,34.048,0.682,51.069c0.012,0.772,0.684,1.003,1.354,1.008c4.655,0.036,9.311,0.072,13.966,0.108
							c0.593,0.005,1.588-0.503,1.587-1.203c-0.004-9.534,1.575-19.849,7.636-27.542c5.849-7.425,13.267-1.747,16.413,4.963
							c0.486,1.036,2.011,0.868,2.671,0.072c2.935-3.539,5.874-7.075,8.76-10.654c0.29-0.359,0.304-0.713,0.102-1.11
							c-4.264-8.388-9.946-14.549-19.869-15.14c-10.764-0.642-17.064,5.742-20.217,15.445c0.954,0.03,1.908,0.061,2.862,0.092
							c-0.088-5.805-0.196-11.609-0.313-17.413c-0.015-0.765-0.681-1.014-1.354-1.008c-4.23,0.036-8.46,0.073-12.69,0.109
							C246.343,240.366,245.832,242.579,247.796,242.563z"/>
					</g>
				</g>
			</g>
			<g>
				<g>
					<g>
						<g>
							<path fill="#77CBF2" d="M171.518,273.74c0,0-9.249,7.511-19.562,6.429c-5.016-0.528-10.807-5.197-10.67-12.447
								c6.969,0.344,33.38-1.78,33.38-1.78c5.679-25.819-22.173-32.802-34.014-24.576c-20.077,10.293-15.693,45.609,4.157,50.16
								c18.501,4.237,32.593-8.62,32.593-8.62C173.024,276.201,171.518,273.74,171.518,273.74z M152.267,249.942
								c5.273-0.22,8.805,3.089,9.953,6.65c0,0-15.352,0.885-17.339,0.498C144.202,253.903,147.82,250.129,152.267,249.942z"/>
						</g>
					</g>
					<g>
						<g>
							<path d="M170.588,273.197c-8.993,7.147-27.234,10.021-27.854-5.864c-0.661,0.441-1.321,0.883-1.982,1.323
								c11.194,0.426,22.597-0.894,33.749-1.787c0.599-0.048,1.488-0.403,1.622-1.075c2.892-14.465-4.957-26.142-19.595-28.385
								c-12.817-1.965-24.888,6.309-28.949,18.318c-4.278,12.651,0.376,30.031,13.279,35.677c11.983,5.243,28.342,0.258,37.73-8.169
								c0.283-0.254,0.356-0.615,0.149-0.932c-1.982-3.041-3.983-6.073-5.885-9.165c-0.59-0.96-3.388,0.04-2.672,1.203
								c0.663,1.079,1.348,2.145,2.03,3.212c0.957,1.498,1.926,2.989,2.895,4.48c0.756,1.165,1.492,0.276,0.104,1.365
								c-5.6,4.388-12.407,7.095-19.454,7.902c-17.047,1.956-27.066-11.8-26.683-27.604c0.318-13.112,10.078-24.903,23.706-24.65
								c15.007,0.279,23.229,13.029,20.429,27.041c0.541-0.359,1.082-0.717,1.622-1.075c-10.902,0.873-22.069,2.189-33.011,1.773
								c-0.798-0.03-2.02,0.353-1.982,1.323c0.704,18.07,22.864,13.918,32.609,6.173
								C173.988,273.058,171.593,272.399,170.588,273.197z"/>
						</g>
						<g>
							<path d="M151.733,250.877c4.227,0.022,7.55,2.108,9.038,6.104c0.538-0.439,1.075-0.878,1.613-1.316
								c-5.468,0.313-11.538,1.293-16.97,0.491c0.305,0.183,0.61,0.364,0.916,0.546c-0.371-3.365,2.757-5.519,5.773-5.832
								c1.515-0.157,2.321-2.063,0.328-1.855c-4.38,0.454-9.555,3.413-8.999,8.465c0.044,0.401,0.619,0.502,0.916,0.546
								c5.671,0.837,12.005-0.178,17.708-0.505c0.511-0.029,1.897-0.553,1.613-1.316c-1.761-4.728-5.922-7.171-10.869-7.196
								C151.566,249.001,149.771,250.866,151.733,250.877z"/>
						</g>
					</g>
				</g>
			</g>
			<g>
				<g>
					<g>
						<g>
							<path fill="#77CBF2" d="M351.906,273.74c0,0-9.249,7.511-19.562,6.428c-5.015-0.529-10.807-5.196-10.67-12.448
								c6.969,0.346,33.379-1.778,33.379-1.778c5.68-25.82-22.17-32.804-34.013-24.576c-20.075,10.292-15.69,45.606,4.16,50.16
								c18.501,4.237,32.59-8.62,32.59-8.62C353.411,276.199,351.906,273.74,351.906,273.74z M332.655,249.942
								c5.273-0.221,8.803,3.089,9.954,6.649c0,0-15.353,0.886-17.339,0.499C324.589,253.902,328.21,250.129,332.655,249.942z"/>
						</g>
					</g>
					<g>
						<g>
							<path d="M350.946,273.082c-8.671,6.892-27.189,10.282-27.804-5.474c-0.657,0.387-1.313,0.774-1.971,1.161
								c11.197,0.429,22.597-0.878,33.752-1.771c0.681-0.055,1.453-0.444,1.598-1.168c2.889-14.45-4.97-26.29-19.634-28.538
								c-12.693-1.944-24.805,6.176-28.845,18.123c-4.224,12.493-0.054,29.452,12.338,35.668c11.859,5.948,28.9,0.982,38.37-7.52
								c0.386-0.347,0.695-0.791,0.367-1.295c-1.982-3.041-3.984-6.073-5.885-9.166c-0.683-1.109-3.447-0.016-2.654,1.275
								c1.901,3.092,3.903,6.124,5.885,9.164c0.123-0.432,0.245-0.863,0.367-1.295c-8.665,7.779-22.551,11.573-33.608,7.416
								c-11.808-4.438-15.19-20.144-13.118-31.159c2.305-12.25,13.478-20.578,25.777-19.112
								c13.796,1.646,20.278,13.785,17.704,26.661c0.532-0.39,1.065-0.778,1.598-1.168c-10.897,0.873-22.068,2.204-33.006,1.785
								c-0.624-0.023-2.005,0.273-1.971,1.161c0.711,18.239,22.588,14.571,32.659,6.567
								C354.409,273.172,352.071,272.188,350.946,273.082z"/>
						</g>
						<g>
							<path d="M332.525,250.999c4.037,0.021,7.232,2.224,8.635,5.98c0.526-0.481,1.053-0.963,1.579-1.444
								c-5.46,0.313-11.542,1.307-16.966,0.506c0.315,0.221,0.631,0.441,0.946,0.661
								C326.351,253.376,329.596,251.304,332.525,250.999c1.613-0.167,2.235-2.318,0.26-2.113c-4.467,0.464-9.528,3.494-8.964,8.594
								c0.047,0.422,0.608,0.611,0.946,0.661c5.68,0.838,12.001-0.164,17.712-0.492c0.602-0.034,1.887-0.619,1.579-1.444
								c-1.85-4.955-6.14-7.293-11.273-7.318C331.131,248.877,330.561,250.989,332.525,250.999z"/>
						</g>
					</g>
				</g>
			</g>
			<g>
				<g>
					<g>
						<g>
							<path fill="#77CBF2" d="M238.192,260.915c-1.244-26.502-35.463-22.551-50.299-17.97c-2.168,24.603,0.744,66.308,0.727,71.152
								c3.855,0.201,11.689-0.055,13.99-0.241c0-9.406,0.238-21.467,0.238-30.149C217.563,286.964,239.149,281.295,238.192,260.915z
								 M202.637,270.354c-0.632-5.546-0.67-11.246-0.429-16.795c10.449-4.221,22.314-1.436,22.953,6.511
								C225.885,269.114,216.478,273.939,202.637,270.354z"/>
						</g>
					</g>
					<g>
						<g>
							<path d="M239.642,260.526c-1.723-25.667-33.946-23.37-51.851-17.963c-0.334,0.102-1.307,0.305-1.346,0.77
								c-1.997,23.776,0.603,47.397,0.727,71.152c0,0.166,0.434,0.154,0.497,0.157c4.755,0.188,9.552,0.07,14.299-0.261
								c0.404-0.028,2.091-0.313,2.092-0.914c0.013-10.05,0.225-20.099,0.238-30.148c-0.883,0.305-1.765,0.61-2.648,0.916
								C218.394,287.68,240.103,280.592,239.642,260.526c-0.01-0.385-2.915,0.034-2.898,0.777
								c0.414,17.998-17.011,25.103-32.695,21.875c-0.488-0.1-2.647,0.208-2.648,0.916c-0.014,10.051-0.226,20.1-0.238,30.15
								c0.697-0.305,1.395-0.609,2.092-0.914c-3.812,0.266-7.646,0.313-11.466,0.287c-2.4-0.016-1.747-1.381-1.837-3.427
								c-0.257-5.841-0.558-11.68-0.793-17.521c-0.671-16.66-1.211-33.476,0.186-50.112c-0.449,0.256-0.897,0.513-1.346,0.77
								c17.46-5.272,47.108-6.447,48.747,17.977C236.772,261.726,239.689,261.241,239.642,260.526z"/>
						</g>
						<g>
							<path d="M204.085,269.966c-0.577-5.596-0.643-11.178-0.429-16.795c-0.322,0.217-0.643,0.435-0.965,0.652
								c6.769-2.533,19.653-2.983,21.021,6.635c1.582,11.128-12.55,11.128-19.876,9.367c-0.635-0.152-3.131,0.881-2.398,1.057
								c8.147,1.957,22.711,2.396,25.039-8.328c2.964-13.66-17.286-12.054-24.752-9.26c-0.258,0.097-0.951,0.287-0.965,0.652
								c-0.214,5.618-0.148,11.2,0.429,16.795C201.234,271.192,204.157,270.654,204.085,269.966z"/>
						</g>
					</g>
				</g>
			</g>
			<g>
				<g>
					<g>
						<g>
							<path fill="#77CBF2" d="M116.7,251.067c-6.219-25.648-32.753-29.603-53.492-25.837c-1.258,23.223-0.329,62.973-0.222,67.054
								c10.058,1.256,27.232,2.927,38.128-3.139C116.775,280.426,120.071,264.98,116.7,251.067z M101.397,260.143
								c-0.628,9.937-7.246,18.749-22.37,16.363v-34.344C90.214,240.276,102.069,249.591,101.397,260.143z"/>
						</g>
					</g>
					<g>
						<g>
							<path d="M118.149,250.679c-6.448-24.762-32.438-30.261-54.776-26.374c-0.518,0.091-1.587,0.376-1.623,1.073
								c-1.16,22.301-0.799,44.737-0.222,67.054c0.015,0.553,0.421,0.723,0.924,0.784c14.183,1.744,29.754,2.846,42.303-5.188
								C117.483,279.881,121.354,264.805,118.149,250.679c-0.266-1.171-3.169-0.419-2.897,0.777
								c2.973,13.102-0.123,26.19-11.097,34.61c-11.284,8.657-27.394,6.914-40.634,5.286c0.308,0.261,0.616,0.522,0.924,0.784
								c-0.578-22.317-0.938-44.753,0.222-67.054c-0.541,0.357-1.082,0.715-1.623,1.073c21.488-3.739,46.018,1.528,52.208,25.3
								C115.557,252.629,118.456,251.856,118.149,250.679z"/>
						</g>
						<g>
							<path d="M99.939,260.29c-0.979,11.496-9.183,16.787-20.378,15.283c0.308,0.262,0.616,0.523,0.924,0.785
								c0-11.448,0-22.896,0-34.344c-0.541,0.357-1.082,0.715-1.623,1.073C89.107,241.785,100.103,249.396,99.939,260.29
								c-0.021,1.366,2.899,0.824,2.916-0.295c0.185-12.323-12.256-20.209-23.663-18.759c-0.49,0.063-1.623,0.399-1.623,1.073
								c0,11.448,0,22.896,0,34.344c0,0.557,0.433,0.719,0.924,0.785c12.479,1.675,23.23-4.157,24.362-17.443
								C102.97,258.654,100.036,259.157,99.939,260.29z"/>
						</g>
					</g>
				</g>
			</g>
			<g>
				<g>
					<path fill="#77CBF2" d="M401.86,270.665c0.018-2.511,1.135-10.9-1.24-10.897c-8.082,0.009-18.461-0.137-24.473-0.182
						c-1.521,2.5-1.201,10.421,0.633,10.776C378.544,270.704,395.651,271.179,401.86,270.665z"/>
				</g>
				<g>
					<g>
						<path d="M403.31,270.276c0.069-2.284,1.836-10.806-1.77-11.173c-8.086-0.822-16.648-0.123-24.789-0.188
							c-0.62-0.006-1.741,0.273-2.04,0.898c-1.367,2.863-1.258,6.653-0.403,9.642c0.545,1.908,2.483,1.685,4.086,1.775
							c7.566,0.426,15.301,0.65,22.863,0.106c0.861-0.063,3.135-1.482,1.207-1.344c-6.484,0.467-13.052,0.249-19.542,0.025
							c-1.768-0.061-4.88,0.535-5.717-1.34c-1.174-2.631-0.82-6.809,0.379-9.32c-0.681,0.299-1.36,0.6-2.04,0.898
							c6.576,0.054,13.151,0.138,19.728,0.173c1.014,0.005,4.378-0.476,4.99,0.74c0.499,0.989,0.398,2.425,0.427,3.492
							c0.057,2.132-0.212,4.263-0.277,6.392C400.393,271.665,403.28,271.231,403.31,270.276z"/>
					</g>
				</g>
			</g>
		</g>
	</g>
	<g>
		<g>
			<g>
				<path fill="#808285" d="M71.342,126.54c-12.629,3.067-26.149-9.598-16.378-20.839c8.418-9.684,24.183-6.94,30.869,3.713
					c-7.385-13.559,9.822-22.948,22.45-22.92c10.836,0.023,29.466,6.94,21.398,23.727c10.137-14.365,25.61-12.104,30.519-5.003
					c5.958,8.622-1.047,17.994-10.523,20.177c8.799,2.18,9.688,12.805,1.227,18.723c-7.107,5.294-18.365,1.689-21.748-6.941
					c-0.953,18.053-35.476,17.819-35.137,0.377c-3.449,13.123-21.34,11.836-25.725,6.079
					C64.124,138.158,61.354,131.221,71.342,126.54z"/>
			</g>
			<g>
				<g>
					<path d="M71.125,125.729c-12.252,2.434-23.851-10.256-14.086-20.688c8.113-8.667,21.722-3.547,27.455,4.962
						c0.54,0.802,3.253-0.039,2.788-0.978c-13.339-26.948,54.914-29.982,41.039,1.12c-0.658,1.475,2.186,0.869,2.722,0.148
						c5.672-7.629,15.121-12.704,24.246-7.739c3.809,2.072,5.791,6.342,5.602,10.569c-0.267,5.995-6.225,10.046-11.431,11.459
						c-0.733,0.198-1.96,1.26-0.654,1.658c8.97,2.739,7.483,12.549,1.179,17.371c-6.899,5.276-16.292,0.123-19.38-6.825
						c-0.432-0.974-2.815-0.491-2.904,0.547c-1.404,16.443-31.985,16.923-32.227,0.059c-0.02-1.381-2.614-0.655-2.91,0.318
						c-2.494,8.193-10.785,10.623-18.424,8.264c-3.03-0.936-4.722-3.033-6.332-5.621c-3.39-5.453-1.493-10.245,4.129-13.136
						c1.776-0.914,0.151-2.047-1.189-1.357c-4.811,2.475-8.614,5.89-7.373,11.699c0.899,4.208,4.188,8.334,8.23,9.819
						c9.304,3.42,20.799,0.099,23.869-9.986c-0.97,0.106-1.94,0.212-2.91,0.318c0.281,19.601,36.458,17.896,38.047-0.695
						c-0.968,0.183-1.936,0.365-2.904,0.547c4.012,9.029,14.531,12.35,23.122,7.725c8.835-4.756,10.332-17.5-0.281-20.741
						c-0.218,0.553-0.436,1.105-0.654,1.658c5.986-1.624,10.986-5.077,13.36-10.948c2.197-5.433-1.112-11.308-5.683-14.189
						c-10.29-6.489-22.935,0.586-29.25,9.079c0.907,0.05,1.814,0.099,2.722,0.148c6.69-14.997-6.94-23.547-20.445-24.636
						c-12.67-1.021-33.948,8.519-26.213,24.143c0.929-0.325,1.859-0.651,2.788-0.978c-7.563-11.226-23.902-13.555-33.387-3.422
						c-4.634,4.951-4.551,11.573-0.373,16.674c4.316,5.269,11.832,6.529,18.146,5.274C73.358,126.993,72.882,125.38,71.125,125.729z
						"/>
				</g>
			</g>
		</g>
		<g>
			<g>
				<path fill="#808285" d="M185.878,87.612c-25.908,6.29-53.647-19.69-33.601-42.754c17.272-19.867,49.616-14.237,63.331,7.618
					c-15.151-27.817,20.154-47.081,46.063-47.024c22.232,0.047,60.455,14.239,43.9,48.679
					c20.797-29.472,52.547-24.837,62.615-10.266c12.225,17.689-2.147,36.921-21.592,41.396c18.055,4.474,19.88,26.271,2.519,38.411
					c-14.583,10.865-37.681,3.471-44.618-14.237c-1.957,37.039-72.787,36.559-72.092,0.772
					c-7.078,26.925-43.781,24.284-52.776,12.472C171.073,111.449,165.388,97.218,185.878,87.612z"/>
			</g>
			<g>
				<g>
					<path d="M185.661,86.802c-12.215,2.702-25.106-1.545-33.249-11.051c-8.381-9.783-6.255-22.499,1.935-31.582
						c17.057-18.917,47.329-10.476,59.922,8.897c0.534,0.821,3.264-0.064,2.788-0.979C201.322,21.858,242.367,4.54,266.51,6.613
						c11.578,0.994,23.764,5.026,32.596,12.761c10.557,9.245,10.697,22.628,5.105,34.683c-0.674,1.451,2.187,0.886,2.721,0.148
						c11.823-16.327,33.305-27.511,52.525-16.497c8.337,4.776,12.903,14.463,11.431,23.916
						c-1.866,11.976-13.559,20.092-24.51,22.826c-0.723,0.18-1.974,1.295-0.654,1.658c7.591,2.092,12.901,7.432,13.917,15.348
						c1.127,8.773-4.746,16.816-11.446,21.712c-14.793,10.81-35.657,1.657-42.25-14.122c-0.411-0.983-2.833-0.48-2.904,0.548
						c-2.408,34.991-69.286,36.384-69.182,0.454c0.004-1.37-2.632-0.666-2.91,0.318c-5.008,17.688-24.203,23.306-40.438,17.948
						c-7.517-2.48-11.937-8.384-15.167-15.374c-5.139-11.122,0.941-19.647,11.129-24.649c1.797-0.883,0.158-2.019-1.189-1.357
						c-9.76,4.792-17.252,12.378-13.944,23.859c2.404,8.342,8.376,15.966,16.623,18.928c17.869,6.418,40.345-0.068,45.896-19.673
						c-0.97,0.106-1.94,0.212-2.91,0.318c-0.111,38.669,72.446,36.045,75.002-1.091c-0.968,0.183-1.936,0.365-2.904,0.548
						c7.361,17.617,29.631,25.468,45.979,15.065c7.85-4.995,13.759-13.407,13.595-22.93c-0.153-8.997-6.935-15.281-15.154-17.546
						c-0.218,0.553-0.436,1.105-0.654,1.658c11.375-2.839,21.721-9.991,26.029-21.208c4.056-10.559-1.321-22.211-10.329-28.169
						c-20.308-13.434-45.753,0.034-58.301,17.362c0.907,0.05,1.813,0.099,2.721,0.148c6.101-13.149,5.434-26.744-5.886-36.657
						c-9.472-8.295-22.979-11.994-35.294-12.872c-24.899-1.774-67.755,17.138-51.592,48.189c0.929-0.326,1.859-0.652,2.788-0.979
						c-14.381-22.123-47.471-27.709-65.849-7.327c-8.927,9.9-9.237,23.184-0.594,33.273c8.59,10.027,23.081,13.357,35.59,10.59
						C187.881,88.028,187.419,86.412,185.661,86.802z"/>
				</g>
			</g>
		</g>
		<g>
			<g>
				<path d="M246.2,102.104c-0.672,5.464,2.146,12.338,8.215,13.098c0.926,0.116,3.414-1.386,1.77-1.592
					c-5.348-0.67-7.665-7.149-7.084-11.863C249.245,100.573,246.323,101.106,246.2,102.104L246.2,102.104z"/>
			</g>
		</g>
		<g>
			<g>
				<path d="M269.543,103.684c0.051,1.73,0.794,3.068,1.733,4.48c0.627,0.942,3.422-0.076,2.672-1.203
					c-0.723-1.086-1.45-2.223-1.489-3.572C272.419,102.014,269.511,102.578,269.543,103.684L269.543,103.684z"/>
			</g>
		</g>
		<g>
			<g>
				<path d="M109.317,125.866c-0.372,2-0.435,4.039-0.806,6.039c-0.202,1.09,2.716,0.593,2.895-0.373
					c0.371-2.001,0.434-4.039,0.806-6.039C112.415,124.403,109.497,124.9,109.317,125.866L109.317,125.866z"/>
			</g>
		</g>
		<g>
			<g>
				<path d="M123.523,126.3c0.696,1.075,1.058,2.25,1.077,3.534c0.021,1.452,2.944,0.949,2.926-0.258
					c-0.025-1.671-0.429-3.11-1.341-4.517C125.521,124.034,122.741,125.092,123.523,126.3L123.523,126.3z"/>
			</g>
		</g>
		<g>
			<g>
				<path d="M290.202,39.735c0.755,1.167,1.154,2.46,1.494,3.798c0.317,1.244,3.217,0.475,2.898-0.777
					c-0.384-1.507-0.878-2.94-1.729-4.253C292.211,37.491,289.428,38.54,290.202,39.735L290.202,39.735z"/>
			</g>
		</g>
		<g>
			<g>
				<g>
					<path fill="#DFF3FB" d="M131.997,184.262c-1.133,11.104-8.688,19.845-5.475,29.766c2.58,7.963,13.117,8.818,16.021-1.972
						C145.278,201.884,134.06,196.897,131.997,184.262z"/>
				</g>
				<g>
					<g>
						<path d="M130.543,184.426c-1.201,9.258-6.989,17.679-6.11,27.185c0.517,5.583,5.559,10.841,11.487,9.08
							c6.158-1.829,9.251-8.241,8.266-14.407c-0.508-3.183-2.666-6.127-4.413-8.737c-2.887-4.312-5.325-8.525-6.327-13.672
							c-0.211-1.089-3.12-0.363-2.897,0.775c2.117,10.881,15.987,20.637,8.511,31.938c-2.678,4.048-7.271,2.722-9.815-0.402
							c-2.307-2.832-2.227-7.244-1.787-10.619c0.964-7.392,5.026-14.013,5.993-21.469
							C133.612,182.855,130.681,183.362,130.543,184.426z"/>
					</g>
				</g>
			</g>
			<g>
				<g>
					<path fill="#FFFFFF" d="M129.125,202.91c-0.028,2.962-0.36,5.917,0.002,8.87c0.124,1.014,3.036,0.352,2.897-0.775
						c-0.344-2.812-0.024-5.623,0.002-8.442C132.038,201.315,129.134,201.921,129.125,202.91L129.125,202.91z"/>
				</g>
			</g>
			<g>
				<g>
					<path fill="#FFFFFF" d="M131.85,215.392c0.395,0.644,1.298,0.851,1.997,0.881c0.652,0.028,1.532-0.226,1.909-0.805
						c0.381-0.586-0.322-0.884-0.8-0.904c-0.273-0.012,0.151,0.088-0.148-0.045c-0.136-0.061-0.195-0.156-0.272-0.281
						c-0.33-0.537-1.505-0.236-1.925-0.056C132.14,214.384,131.505,214.83,131.85,215.392L131.85,215.392z"/>
				</g>
			</g>
		</g>
		<g>
			<g>
				<g>
					<path fill="#DFF3FB" d="M198.688,119.221c-1.133,11.105-8.689,19.846-5.475,29.767c2.58,7.963,13.117,8.817,16.02-1.973
						C211.97,136.843,200.749,131.856,198.688,119.221z"/>
				</g>
				<g>
					<g>
						<path d="M197.235,119.385c-1.201,9.259-6.99,17.679-6.11,27.186c0.517,5.583,5.559,10.841,11.487,9.079
							c6.157-1.829,9.25-8.241,8.265-14.407c-0.508-3.183-2.667-6.127-4.414-8.737c-2.887-4.312-5.325-8.525-6.326-13.672
							c-0.211-1.088-3.119-0.363-2.897,0.775c2.116,10.882,15.986,20.636,8.51,31.938c-2.677,4.048-7.27,2.723-9.814-0.401
							c-2.307-2.832-2.227-7.244-1.787-10.619c0.964-7.392,5.027-14.014,5.994-21.47
							C200.303,117.814,197.373,118.321,197.235,119.385z"/>
					</g>
				</g>
			</g>
			<g>
				<g>
					<path fill="#FFFFFF" d="M196.704,138.831c-0.892,3.03-1.419,6.729,0.862,9.27c0.456,0.508,3.119-0.535,2.738-0.959
						c-2.125-2.365-1.569-6.063-0.75-8.848C199.7,137.799,196.907,138.141,196.704,138.831L196.704,138.831z"/>
				</g>
			</g>
			<g>
				<g>
					<path fill="#FFFFFF" d="M199.075,149.739c0.018,0.62,0.132,1.223,0.657,1.623c0.661,0.504,1.524,0.457,2.292,0.292
						c0.585-0.126,1.362-0.714,1.177-1.401c-0.195-0.729-1.136-0.752-1.72-0.626c0.249-0.054,0.451,0.006,0.627,0.182
						c-0.169-0.169,0.03,0.164-0.055-0.087c0.002,0.006-0.042-0.313-0.039-0.191c-0.021-0.729-0.679-1.023-1.346-0.976
						C200.104,148.595,199.054,149.019,199.075,149.739L199.075,149.739z"/>
				</g>
			</g>
		</g>
		<g>
			<g>
				<g>
					<path fill="#DFF3FB" d="M260.513,128.051c-1.132,11.104-8.688,19.845-5.474,29.766c2.579,7.963,13.117,8.818,16.021-1.972
						C273.794,145.673,262.575,140.687,260.513,128.051z"/>
				</g>
				<g>
					<g>
						<path d="M259.06,128.215c-1.2,9.258-6.988,17.679-6.109,27.185c0.517,5.583,5.559,10.841,11.486,9.08
							c6.158-1.829,9.251-8.24,8.266-14.407c-0.509-3.183-2.666-6.127-4.414-8.737c-2.887-4.312-5.324-8.525-6.326-13.672
							c-0.212-1.089-3.12-0.363-2.898,0.775c2.118,10.88,15.988,20.638,8.513,31.938c-2.678,4.048-7.271,2.722-9.815-0.402
							c-2.307-2.832-2.227-7.244-1.786-10.619c0.964-7.392,5.025-14.013,5.991-21.469
							C262.127,126.645,259.197,127.151,259.06,128.215z"/>
					</g>
				</g>
			</g>
			<g>
				<g>
					<path fill="#FFFFFF" d="M258.1,148.689c-0.89,2.926-2.271,7.787,1.267,9.483c0.533,0.256,1.347-0.003,1.86-0.186
						c0.078-0.027,1.33-0.566,0.874-0.785c-3.342-1.604-1.981-6.293-1.147-9.038C261.114,147.634,258.315,147.979,258.1,148.689
						L258.1,148.689z"/>
				</g>
			</g>
			<g>
				<g>
					<path fill="#FFFFFF" d="M262.098,160.021c0.544,0.234,1.156,0.265,1.74,0.266c0.693,0.001,1.537-0.183,1.894-0.86
						c0.314-0.599-0.27-1.117-0.856-1.118c-0.185,0-0.368-0.004-0.553-0.013c-0.271-0.014-0.282-0.02-0.523-0.124
						c-0.64-0.275-1.603,0.064-2.049,0.55C261.267,159.245,261.511,159.767,262.098,160.021L262.098,160.021z"/>
				</g>
			</g>
		</g>
		<g>
			<g>
				<g>
					<path fill="#DFF3FB" d="M311.247,148.885c-1.132,11.104-8.688,19.845-5.474,29.766c2.579,7.963,13.117,8.818,16.021-1.972
						C324.528,166.506,313.31,161.521,311.247,148.885z"/>
				</g>
				<g>
					<g>
						<path d="M309.794,149.049c-1.2,9.258-6.989,17.679-6.109,27.185c0.517,5.583,5.559,10.841,11.486,9.08
							c6.158-1.829,9.251-8.241,8.266-14.408c-0.509-3.183-2.666-6.127-4.414-8.736c-2.887-4.313-5.324-8.525-6.326-13.672
							c-0.212-1.089-3.12-0.363-2.898,0.775c2.118,10.88,15.988,20.637,8.513,31.938c-2.678,4.048-7.271,2.722-9.815-0.402
							c-2.307-2.832-2.227-7.244-1.786-10.619c0.964-7.392,5.025-14.013,5.991-21.469
							C312.861,147.479,309.932,147.985,309.794,149.049z"/>
					</g>
				</g>
			</g>
			<g>
				<g>
					<path fill="#FFFFFF" d="M308.001,171.562c0.002,2.248,0.017,4.508,0.805,6.643c0.353,0.954,3.219,0.094,2.898-0.775
						c-0.788-2.136-0.804-4.396-0.805-6.643C310.898,169.969,308.001,170.494,308.001,171.562L308.001,171.562z"/>
				</g>
			</g>
			<g>
				<g>
					<path fill="#FFFFFF" d="M313.142,181.682c1.645,0,2.233-2.092,0.266-2.092C311.763,179.59,311.174,181.682,313.142,181.682
						L313.142,181.682z"/>
				</g>
			</g>
		</g>
		<g>
			<g>
				<g>
					<path fill="#DFF3FB" d="M343.709,115.477c-0.796,7.797-6.1,13.933-3.843,20.896c1.812,5.591,9.209,6.192,11.248-1.384
						C353.034,127.848,345.157,124.347,343.709,115.477z"/>
				</g>
				<g>
					<g>
						<path d="M342.256,115.641c-0.972,7.141-5.778,13.771-3.839,21.12c1.02,3.861,5.051,5.313,8.591,4.391
							c4.282-1.115,6.233-6.139,5.729-10.139c-0.298-2.363-1.968-4.593-3.251-6.508c-1.994-2.976-3.618-5.875-4.327-9.416
							c-0.219-1.09-3.126-0.36-2.898,0.775c1.504,7.504,10.762,14.078,6.254,21.929c-1.556,2.709-4.429,2.046-6.151,0.163
							c-1.811-1.978-1.702-5.322-1.379-7.74c0.686-5.124,3.477-9.732,4.179-14.903C345.331,114.073,342.4,114.577,342.256,115.641z"
							/>
					</g>
				</g>
			</g>
			<g>
				<g>
					<path fill="#FFFFFF" d="M341.804,131.437c-0.65,2.092-0.525,4.555,1.142,6.144c0.532,0.508,1.316,0.492,1.961,0.188
						c0.413-0.195,1.231-0.935,0.697-1.444c-1.445-1.378-1.43-3.331-0.87-5.13c0.22-0.706-0.88-0.938-1.326-0.901
						C342.688,130.353,342.022,130.731,341.804,131.437L341.804,131.437z"/>
				</g>
			</g>
		</g>
		<g>
			<g>
				<g>
					<path fill="#DFF3FB" d="M349.626,172.131c-0.795,7.797-6.099,13.933-3.842,20.896c1.811,5.591,9.209,6.192,11.247-1.384
						C358.952,184.502,351.075,181.001,349.626,172.131z"/>
				</g>
				<g>
					<g>
						<path d="M348.173,172.295c-0.971,7.142-5.777,13.771-3.838,21.12c1.02,3.861,5.051,5.313,8.591,4.391
							c4.282-1.115,6.232-6.139,5.728-10.139c-0.298-2.363-1.967-4.593-3.25-6.508c-1.994-2.976-3.619-5.875-4.328-9.416
							c-0.219-1.09-3.126-0.36-2.898,0.775c1.504,7.504,10.762,14.078,6.254,21.929c-1.555,2.709-4.429,2.046-6.15,0.163
							c-1.811-1.978-1.702-5.322-1.379-7.74c0.686-5.124,3.476-9.732,4.178-14.903C351.248,170.728,348.316,171.231,348.173,172.295
							z"/>
					</g>
				</g>
			</g>
			<g>
				<g>
					<path fill="#FFFFFF" d="M347.255,189.88c0.013,1.43,0.29,2.688,1.297,3.753c0.563,0.595,3.274-0.445,2.719-1.033
						c-0.92-0.972-1.106-2.203-1.117-3.495C350.147,188.487,347.247,188.957,347.255,189.88L347.255,189.88z"/>
				</g>
			</g>
		</g>
		<g>
			<g>
				<g>
					<path fill="#DFF3FB" d="M394.104,147.327c-0.795,7.797-6.1,13.933-3.843,20.896c1.812,5.591,9.209,6.192,11.248-1.384
						C403.429,159.698,395.552,156.197,394.104,147.327z"/>
				</g>
				<g>
					<g>
						<path d="M392.649,147.491c-0.97,7.141-5.777,13.771-3.838,21.121c1.02,3.861,5.051,5.312,8.591,4.39
							c4.282-1.115,6.233-6.139,5.729-10.139c-0.298-2.363-1.968-4.593-3.251-6.507c-1.994-2.977-3.618-5.876-4.327-9.418
							c-0.219-1.089-3.126-0.359-2.898,0.777c1.504,7.503,10.762,14.077,6.254,21.928c-1.556,2.709-4.429,2.046-6.151,0.163
							c-1.811-1.978-1.702-5.321-1.379-7.739c0.687-5.125,3.477-9.733,4.18-14.904C395.726,145.924,392.794,146.428,392.649,147.491
							z"/>
					</g>
				</g>
			</g>
			<g>
				<g>
					<path fill="#FFFFFF" d="M391.731,165.077c0.013,1.429,0.292,2.688,1.298,3.752c0.563,0.596,3.274-0.445,2.719-1.033
						c-0.92-0.972-1.107-2.203-1.118-3.496C394.624,163.684,391.724,164.153,391.731,165.077L391.731,165.077z"/>
				</g>
			</g>
		</g>
		<g>
			<g>
				<g>
					<path fill="#DFF3FB" d="M274.149,192.451c-0.795,7.796-6.1,13.932-3.843,20.896c1.812,5.591,9.21,6.192,11.247-1.383
						C283.475,204.821,275.598,201.32,274.149,192.451z"/>
				</g>
				<g>
					<g>
						<path d="M272.696,192.615c-0.971,7.141-5.778,13.77-3.839,21.12c1.02,3.861,5.052,5.312,8.591,4.39
							c4.283-1.114,6.232-6.139,5.728-10.139c-0.298-2.362-1.967-4.593-3.25-6.507c-1.994-2.977-3.618-5.875-4.327-9.416
							c-0.219-1.09-3.126-0.36-2.898,0.775c1.504,7.504,10.761,14.077,6.254,21.928c-1.556,2.71-4.429,2.045-6.151,0.163
							c-1.811-1.978-1.702-5.321-1.379-7.739c0.687-5.125,3.477-9.733,4.179-14.903C275.771,191.048,272.84,191.552,272.696,192.615
							z"/>
					</g>
				</g>
			</g>
			<g>
				<g>
					<path fill="#FFFFFF" d="M272.17,208.196c-0.463,2.663-0.569,6.146,2.572,7.038c0.907,0.258,3.409-1.098,1.777-1.561
						c-2.218-0.63-1.743-4.176-1.453-5.847C275.26,206.716,272.34,207.219,272.17,208.196L272.17,208.196z"/>
				</g>
			</g>
		</g>
		<g>
			<g>
				<g>
					<path fill="#DFF3FB" d="M228.685,166.795c-0.795,7.797-6.1,13.933-3.844,20.896c1.813,5.591,9.21,6.192,11.248-1.384
						C238.009,179.166,230.132,175.665,228.685,166.795z"/>
				</g>
				<g>
					<g>
						<path d="M227.231,166.959c-0.97,7.142-5.778,13.771-3.839,21.12c1.019,3.862,5.052,5.313,8.591,4.391
							c4.282-1.115,6.232-6.139,5.728-10.139c-0.298-2.363-1.968-4.593-3.25-6.508c-1.994-2.976-3.619-5.875-4.328-9.416
							c-0.218-1.09-3.125-0.36-2.897,0.775c1.502,7.505,10.759,14.078,6.252,21.929c-1.555,2.709-4.428,2.045-6.151,0.163
							c-1.812-1.979-1.703-5.321-1.378-7.74c0.687-5.124,3.477-9.732,4.179-14.903C230.307,165.392,227.375,165.896,227.231,166.959
							z"/>
					</g>
				</g>
			</g>
			<g>
				<g>
					<path fill="#FFFFFF" d="M226.278,183.062c-0.386,1.886-0.229,3.964,1.491,5.137c0.518,0.352,1.362,0.128,1.89-0.077
						c0.18-0.07,1.328-0.634,0.823-0.978c-1.521-1.036-1.671-2.849-1.328-4.525C229.334,181.74,226.448,182.231,226.278,183.062
						L226.278,183.062z"/>
				</g>
			</g>
		</g>
		<g>
			<g>
				<g>
					<path fill="#DFF3FB" d="M174.716,172.133c-0.795,7.796-6.1,13.932-3.844,20.896c1.813,5.591,9.21,6.192,11.248-1.383
						C184.04,184.503,176.164,181.002,174.716,172.133z"/>
				</g>
				<g>
					<g>
						<path d="M173.262,172.297c-0.97,7.141-5.778,13.77-3.839,21.12c1.019,3.861,5.052,5.312,8.591,4.39
							c4.283-1.114,6.232-6.139,5.728-10.139c-0.298-2.362-1.967-4.593-3.25-6.507c-1.994-2.977-3.618-5.876-4.327-9.416
							c-0.218-1.09-3.125-0.36-2.897,0.775c1.503,7.504,10.76,14.078,6.253,21.928c-1.556,2.709-4.429,2.045-6.151,0.163
							c-1.812-1.978-1.703-5.321-1.378-7.739c0.687-5.125,3.477-9.732,4.179-14.903
							C176.338,170.729,173.407,171.233,173.262,172.297z"/>
					</g>
				</g>
			</g>
			<g>
				<g>
					<path fill="#FFFFFF" d="M172.273,189.894c0.025,1.811,0.696,3.463,2.496,4.122c0.578,0.212,1.304,0.007,1.859-0.189
						c0.053-0.02,1.341-0.607,0.876-0.777c-1.74-0.638-2.309-2.191-2.334-3.931C175.165,188.692,172.262,189.111,172.273,189.894
						L172.273,189.894z"/>
				</g>
			</g>
		</g>
		<g>
			<g>
				<g>
					<path fill="#DFF3FB" d="M105.358,138.102c-0.795,7.796-6.1,13.932-3.844,20.896c1.813,5.591,9.21,6.192,11.248-1.383
						C114.683,150.472,106.806,146.971,105.358,138.102z"/>
				</g>
				<g>
					<g>
						<path d="M103.905,138.266c-0.97,7.141-5.778,13.77-3.839,21.12c1.019,3.861,5.052,5.312,8.591,4.39
							c4.283-1.114,6.232-6.139,5.728-10.139c-0.298-2.362-1.968-4.593-3.25-6.507c-1.994-2.977-3.618-5.875-4.327-9.416
							c-0.218-1.09-3.125-0.36-2.897,0.775c1.502,7.504,10.76,14.078,6.253,21.928c-1.556,2.709-4.429,2.045-6.151,0.163
							c-1.812-1.978-1.703-5.321-1.378-7.739c0.687-5.125,3.477-9.732,4.179-14.903C106.98,136.698,104.049,137.202,103.905,138.266
							z"/>
					</g>
				</g>
			</g>
			<g>
				<g>
					<path fill="#FFFFFF" d="M103.064,154.409c-0.187,2.417,0.241,4.99,2.539,6.263c0.625,0.347,1.5,0.162,2.065-0.222
						c0.434-0.295,0.828-0.974,0.204-1.319c-1.804-0.999-2.035-3.141-1.891-5.013C106.086,152.763,103.152,153.265,103.064,154.409
						L103.064,154.409z"/>
				</g>
			</g>
		</g>
		<g>
			<g>
				<g>
					<path fill="#DFF3FB" d="M70.949,172.13c-0.795,7.797-6.1,13.933-3.843,20.896c1.812,5.591,9.209,6.192,11.248-1.384
						C80.274,184.501,72.397,181,70.949,172.13z"/>
				</g>
				<g>
					<g>
						<path d="M69.496,172.294c-0.97,7.141-5.778,13.771-3.838,21.121c1.019,3.861,5.051,5.312,8.59,4.39
							c4.283-1.115,6.233-6.139,5.729-10.139c-0.298-2.363-1.968-4.593-3.251-6.507c-1.994-2.977-3.618-5.876-4.328-9.418
							c-0.218-1.089-3.125-0.359-2.897,0.777c1.503,7.503,10.761,14.077,6.253,21.928c-1.556,2.709-4.429,2.046-6.151,0.163
							c-1.811-1.978-1.702-5.321-1.379-7.739c0.687-5.125,3.477-9.733,4.179-14.904C72.571,170.727,69.64,171.23,69.496,172.294z"/>
					</g>
				</g>
			</g>
			<g>
				<g>
					<path fill="#FFFFFF" d="M68.238,189.784c0.46,1.188,0.736,2.45,1.425,3.539c0.81,1.278,2.304,1.661,3.729,1.601
						c0.651-0.027,1.512-0.476,1.589-1.198c0.08-0.749-0.757-1.024-1.353-0.999c-1.729,0.073-2.022-2.505-2.493-3.72
						C70.612,187.656,67.729,188.47,68.238,189.784L68.238,189.784z"/>
				</g>
			</g>
		</g>
		<g>
			<g>
				<g>
					<path fill="#DFF3FB" d="M363.076,311.516c-1.132,11.104-8.688,19.845-5.474,29.766c2.579,7.963,13.117,8.818,16.02-1.972
						C376.357,329.138,365.138,324.151,363.076,311.516z"/>
				</g>
				<g>
					<g>
						<path d="M361.623,311.68c-1.2,9.258-6.989,17.679-6.109,27.185c0.517,5.583,5.559,10.841,11.486,9.08
							c6.157-1.829,9.25-8.241,8.265-14.407c-0.508-3.183-2.666-6.127-4.413-8.737c-2.887-4.312-5.325-8.525-6.326-13.672
							c-0.212-1.089-3.12-0.363-2.898,0.775c2.117,10.881,15.987,20.637,8.512,31.938c-2.678,4.048-7.271,2.722-9.814-0.402
							c-2.307-2.832-2.227-7.244-1.787-10.619c0.964-7.392,5.026-14.013,5.992-21.469
							C364.69,310.109,361.761,310.616,361.623,311.68z"/>
					</g>
				</g>
			</g>
			<g>
				<g>
					<path fill="#FFFFFF" d="M359.978,333.291c-0.46,3.074-0.762,6.602,1.344,9.163c0.808,0.983,3.57-0.146,2.658-1.256
						c-1.869-2.273-1.478-5.435-1.072-8.149C363.121,331.622,360.165,332.033,359.978,333.291L359.978,333.291z"/>
				</g>
			</g>
			<g>
				<g>
					<path fill="#FFFFFF" d="M365.478,344.46c1.109-0.065,2.173-0.616,2.969-1.374c0.441-0.421,0.331-0.922-0.283-1.055
						c-0.666-0.145-1.55,0.073-2.049,0.549c-0.074,0.071-0.163,0.165-0.247,0.224c-0.409,0.29,0.462-0.016-0.005,0.012
						c-0.546,0.032-1.499,0.384-1.643,0.998C364.063,344.482,365.094,344.482,365.478,344.46L365.478,344.46z"/>
				</g>
			</g>
		</g>
	</g>
</g>
</svg>
