<?xml version="1.0" encoding="utf-8"?>
<!-- Generator: Adobe Illustrator 13.0.0, SVG Export Plug-In . SVG Version: 6.00 Build 14948)  -->
<svg version="1.2" baseProfile="tiny" id="Layer_1" xmlns="http://www.w3.org/2000/svg" xmlns:xlink="http://www.w3.org/1999/xlink"
	 x="0px" y="0px" width="462.416px" height="462.416px" viewBox="0 0 462.416 462.416" xml:space="preserve">
<g>
	<g>
		<g>
			<path fill="#FFFFFF" d="M461.209,231.208c0,14.554-25.354,26.43-28.074,40.184c-2.804,14.173,16.026,34.819,10.62,47.86
				c-5.501,13.266-33.471,14.526-41.363,26.319c-7.957,11.883,1.528,38.197-8.547,48.271c-10.075,10.075-36.394,0.592-48.274,8.547
				c-11.791,7.895-13.053,35.86-26.32,41.362c-13.037,5.406-33.687-13.421-47.856-10.617c-13.756,2.72-25.631,28.073-40.185,28.073
				c-14.553,0-26.428-25.353-40.182-28.073c-14.172-2.804-34.818,16.024-47.859,10.619c-13.268-5.502-14.526-33.469-26.318-41.363
				c-11.884-7.955-38.2,1.529-48.272-8.545c-10.076-10.075-0.593-36.392-8.547-48.273c-7.894-11.793-35.862-13.053-41.363-26.319
				c-5.407-13.041,13.42-33.688,10.617-47.859C26.565,257.639,1.21,245.761,1.21,231.208c0-14.553,25.354-26.429,28.074-40.182
				c2.803-14.174-16.024-34.821-10.617-47.861c5.501-13.268,33.471-14.526,41.363-26.318c7.954-11.884-1.529-38.197,8.547-48.271
				c10.074-10.076,36.39-0.592,48.272-8.547c11.792-7.896,13.052-35.862,26.318-41.363c13.041-5.407,33.688,13.422,47.859,10.619
				c13.754-2.723,25.629-28.075,40.182-28.075c14.554,0,26.429,25.355,40.185,28.075c14.174,2.803,34.819-16.025,47.859-10.618
				c13.268,5.503,14.526,33.47,26.319,41.364c11.883,7.955,38.199-1.529,48.272,8.546c10.075,10.075,0.593,36.39,8.547,48.272
				c7.894,11.793,35.862,13.054,41.363,26.319c5.406,13.04-13.421,33.688-10.618,47.858
				C435.856,204.78,461.209,216.655,461.209,231.208z"/>
		</g>
		<g>
			<path d="M231.208,462.416c-8.276,0-15.543-7.489-22.569-14.733c-5.803-5.981-11.803-12.167-17.847-13.363
				c-0.884-0.175-1.836-0.263-2.831-0.263c-5.806,0-12.738,2.991-19.442,5.884c-6.839,2.951-13.91,6.002-20.055,6.002
				c-2.103,0.001-4.041-0.36-5.759-1.072c-7.515-3.115-11.324-12.744-15.009-22.058c-3.097-7.828-6.3-15.923-11.521-19.418
				c-4.385-2.937-11.15-3.341-17.811-3.341c-1.559,0-3.136,0.022-4.713,0.045c-1.588,0.022-3.175,0.046-4.745,0.046
				c-7.617,0-16.165-0.421-21.187-5.443c-5.688-5.688-5.542-15.98-5.401-25.937c0.12-8.473,0.244-17.232-3.296-22.521
				c-3.495-5.222-11.59-8.424-19.419-11.521c-9.313-3.686-18.941-7.494-22.057-15.008c-3.043-7.34,1.01-16.73,4.929-25.813
				c3.38-7.833,6.875-15.934,5.62-22.274c-1.195-6.044-7.381-12.045-13.362-17.848C7.491,246.751,0,239.484,0,231.208
				s7.491-15.544,14.735-22.569c5.98-5.804,12.167-11.803,13.363-17.847c1.254-6.342-2.241-14.441-5.621-22.275
				c-3.919-9.083-7.972-18.476-4.929-25.813c3.116-7.514,12.745-11.323,22.059-15.008c7.828-3.098,15.923-6.3,19.417-11.521
				c3.54-5.287,3.416-14.048,3.296-22.52c-0.141-9.954-0.287-20.247,5.401-25.935c5.023-5.024,13.575-5.445,21.196-5.445
				c1.566,0,3.151,0.021,4.736,0.045c1.574,0.021,3.148,0.045,4.704,0.045c6.662,0,13.432-0.404,17.816-3.341
				c5.221-3.495,8.424-11.59,11.521-19.418c3.685-9.313,7.494-18.941,15.009-22.058c1.718-0.713,3.656-1.073,5.759-1.073
				c6.145,0,13.216,3.052,20.055,6.003c6.704,2.893,13.637,5.884,19.442,5.884c0.995,0,1.947-0.088,2.831-0.263
				c6.044-1.196,12.043-7.383,17.847-13.363C215.665,7.491,222.931,0,231.208,0s15.542,7.49,22.568,14.734
				c5.803,5.981,11.804,12.169,17.85,13.364c0.885,0.175,1.837,0.263,2.831,0.263c5.808,0,12.739-2.991,19.444-5.884
				c6.838-2.951,13.909-6.002,20.053-6.002c2.104,0,4.042,0.36,5.761,1.073c7.514,3.116,11.322,12.745,15.008,22.058
				c3.098,7.829,6.301,15.924,11.521,19.419c4.387,2.936,11.154,3.341,17.815,3.341c1.557,0,3.132-0.021,4.707-0.045
				c1.586-0.022,3.171-0.045,4.738-0.045c7.619,0,16.171,0.421,21.193,5.444c5.688,5.688,5.541,15.979,5.4,25.935
				c-0.12,8.472-0.244,17.232,3.296,22.521c3.494,5.222,11.59,8.424,19.419,11.521c9.313,3.685,18.94,7.494,22.056,15.008
				c3.044,7.339-1.009,16.731-4.928,25.814c-3.38,7.833-6.875,15.933-5.621,22.271c1.196,6.044,7.381,12.044,13.362,17.848
				c7.243,7.025,14.732,14.292,14.732,22.568s-7.489,15.543-14.733,22.569c-5.982,5.803-12.168,11.803-13.363,17.848
				c-1.254,6.341,2.241,14.441,5.622,22.275c3.919,9.083,7.973,18.475,4.929,25.813c-3.114,7.513-12.743,11.321-22.055,15.007
				c-7.829,3.098-15.925,6.301-19.42,11.521c-3.542,5.289-3.417,14.05-3.297,22.523c0.141,9.951,0.287,20.243-5.399,25.931
				c-5.023,5.023-13.575,5.444-21.195,5.444c-1.567,0-3.152-0.022-4.739-0.045c-1.574-0.022-3.149-0.046-4.706-0.046
				c-6.661,0-13.432,0.404-17.815,3.342c-5.22,3.494-8.423,11.589-11.52,19.417c-3.687,9.313-7.495,18.941-15.01,22.058
				c-1.719,0.713-3.654,1.073-5.76,1.073c-6.144,0.001-13.215-3.05-20.054-6.001c-6.704-2.893-13.638-5.884-19.442-5.884
				c-0.995,0-1.947,0.088-2.831,0.263c-6.046,1.195-12.047,7.382-17.85,13.364C246.75,454.927,239.484,462.416,231.208,462.416z
				 M187.961,431.64c1.152,0,2.263,0.104,3.301,0.31c6.783,1.343,13.051,7.804,19.11,14.052c6.677,6.883,13.581,14,20.836,14
				c7.254,0,14.158-7.117,20.835-14c6.062-6.248,12.329-12.71,19.114-14.052c1.038-0.205,2.147-0.31,3.3-0.31
				c6.306,0,13.471,3.092,20.399,6.082c6.613,2.854,13.452,5.804,19.097,5.804c1.811,0,3.392-0.291,4.833-0.889
				c6.57-2.726,10.189-11.871,13.688-20.717c3.234-8.172,6.577-16.622,12.423-20.536c4.921-3.294,12.116-3.748,19.159-3.748
				c1.566,0,3.154,0.021,4.741,0.046c1.573,0.021,3.147,0.044,4.704,0.044c8.854,0,15.557-0.807,19.486-4.737
				c4.966-4.964,4.827-14.737,4.692-24.188c-0.125-8.844-0.255-17.986,3.705-23.9c3.914-5.847,12.364-9.191,20.539-12.425
				c8.844-3.5,17.988-7.118,20.713-13.687c2.65-6.395-1.196-15.311-4.916-23.932c-3.526-8.173-7.174-16.623-5.773-23.701
				c1.341-6.784,7.802-13.052,14.051-19.112c6.884-6.677,14-13.581,14-20.836s-7.116-14.159-13.999-20.836
				c-6.247-6.061-12.707-12.327-14.05-19.11c-1.399-7.077,2.246-15.526,5.772-23.698c3.72-8.622,7.565-17.537,4.915-23.933
				c-2.726-6.568-11.87-10.188-20.714-13.687c-8.173-3.234-16.624-6.578-20.538-12.425c-3.958-5.914-3.829-15.058-3.704-23.898
				c0.134-9.452,0.271-19.227-4.693-24.19c-3.931-3.933-10.632-4.737-19.484-4.737c-1.557,0-3.131,0.021-4.704,0.044
				c-1.587,0.023-3.173,0.046-4.741,0.046c-7.042,0-14.238-0.455-19.159-3.749c-5.847-3.915-9.189-12.365-12.424-20.538
				c-3.499-8.844-7.118-17.989-13.688-20.715c-1.442-0.598-3.023-0.889-4.834-0.889c-5.645,0-12.482,2.949-19.096,5.804
				c-6.93,2.99-14.096,6.082-20.401,6.082c-1.15,0-2.262-0.104-3.3-0.31c-6.785-1.343-13.054-7.804-19.115-14.053
				c-6.676-6.883-13.58-14-20.834-14c-7.255,0-14.159,7.117-20.836,14.001c-6.06,6.248-12.327,12.708-19.11,14.052
				c-1.038,0.204-2.148,0.31-3.301,0.31c-6.305,0-13.471-3.092-20.399-6.082c-6.613-2.854-13.452-5.805-19.098-5.805
				c-1.81,0-3.391,0.291-4.834,0.889c-6.568,2.725-10.188,11.87-13.687,20.715c-3.233,8.173-6.577,16.623-12.423,20.537
				c-4.921,3.295-12.117,3.749-19.161,3.749c-1.567,0-3.153-0.021-4.738-0.045c-1.574-0.022-3.146-0.045-4.702-0.045
				c-8.854,0-15.558,0.806-19.488,4.738c-4.967,4.965-4.828,14.738-4.694,24.19c0.125,8.842,0.255,17.984-3.703,23.897
				c-3.914,5.846-12.364,9.188-20.537,12.423c-8.845,3.499-17.991,7.118-20.715,13.688c-2.652,6.396,1.194,15.311,4.914,23.932
				c3.526,8.173,7.172,16.624,5.771,23.702c-1.343,6.782-7.803,13.05-14.05,19.109c-6.883,6.678-14.001,13.582-14.001,20.837
				s7.118,14.159,14.001,20.837c6.248,6.062,12.709,12.328,14.05,19.112c1.399,7.078-2.246,15.528-5.771,23.7
				c-3.72,8.621-7.566,17.536-4.915,23.932c2.724,6.569,11.869,10.188,20.713,13.688c8.173,3.232,16.625,6.577,20.538,12.424
				c3.958,5.913,3.829,15.057,3.703,23.898c-0.134,9.452-0.272,19.228,4.694,24.192c3.93,3.931,10.629,4.736,19.479,4.736
				c1.558,0,3.134-0.022,4.71-0.045c1.588-0.022,3.177-0.045,4.747-0.045c7.041,0,14.233,0.454,19.154,3.748
				c5.846,3.913,9.188,12.364,12.422,20.536c3.5,8.846,7.118,17.99,13.688,20.716c1.443,0.598,3.024,0.889,4.834,0.889
				c5.646-0.001,12.484-2.951,19.098-5.805C174.49,434.731,181.656,431.64,187.961,431.64z"/>
		</g>
	</g>
	<g>
		<g>
			<g>
				<g>
					<path fill="#77CBF2" d="M137.775,338.284c-3.196-3.712-8.132-7.549-12.493-8.906c-5.813-1.899-13.676-1.267-18.617,2.533
						c-5.231,4.074-7.453,8.748-6.869,14.994c0.578,5.976,2.87,11.232,10.617,13.119c6.904,1.683,16.368,4.498,13.619,9.746
						c-3.829,7.312-20.794-1.938-23.506-3.648c-1.91,2.911-3.801,6.441-5.105,9.771c12.787,8.873,39.021,14.987,41.354-5.87
						c1-8.931-5.245-14.054-13.618-16.869c-4.594-1.547-9.678-1.94-11.053-6.499c-0.942-3.121,0.932-5.869,3.432-6.621
						c5.904-1.771,12.281,3.149,15.867,6.5C133.921,343.363,137.001,339.938,137.775,338.284z"/>
				</g>
				<g>
					<g>
						<path d="M139.141,337.79c-7.451-8.232-16.931-11.97-27.762-8.825c-9.326,2.708-14.241,11.354-12.7,20.676
							c2.048,12.389,15.211,9.636,22.983,15.92c2.345,1.896,1.468,5.948-1.688,6.364c-2.445,0.323-5.146-0.595-7.448-1.327
							c-3.689-1.176-7.335-2.94-10.636-4.97c-0.662-0.405-2.395,0.118-2.794,0.749c-1.986,3.124-3.691,6.348-5.105,9.771
							c-0.047,0.099-0.026,0.178,0.064,0.239c10.559,7.135,30.782,13.887,40.769,2.184c6.427-7.532,3.57-18.211-4.227-23.181
							c-4.705-2.999-10.825-3.035-15.261-6.321c-1.465-1.086-1.766-2.691-2.029-4.324c-0.794-4.902,6.095-4.438,9.021-3.205
							c2.895,1.219,5.416,3.398,7.711,5.488c0.502,0.457,2.313-0.149,2.677-0.604c2.199-2.722,4.742-5.343,6.489-8.395
							c0.218-0.38-2.441-0.218-2.857,0.51c-1.688,2.948-4.125,5.466-6.256,8.103c0.894-0.201,1.785-0.401,2.678-0.604
							c-5.391-4.907-15.854-11.104-21.668-3.329c-3.313,4.43,2.458,8.331,5.862,9.521c6.419,2.24,12.871,3.654,16.774,9.785
							c2.899,4.554,1.832,10.905-0.606,15.389c-2.928,5.385-9.12,6.381-14.691,5.996c-5.102-0.353-10.157-2.046-14.788-4.123
							c-2.121-0.951-4.145-2.106-6.099-3.36c-1.687-1.081,3.689-8.928,4.401-10.049c-0.932,0.25-1.863,0.499-2.794,0.749
							c5.27,3.236,12.314,6.774,18.651,6.515c5.798-0.236,11.641-5.384,4.892-9.781c-4.492-2.929-10.208-3.027-14.95-5.333
							c-4.902-2.387-6.297-7.954-6.594-12.912c-0.522-8.719,7.046-15.407,15.283-16.14c7.992-0.709,14.875,4.187,19.967,9.813
							C136.901,339.32,139.591,338.288,139.141,337.79z"/>
					</g>
				</g>
			</g>
			<g>
				<g>
					<path fill="#77CBF2" d="M189.821,339.322c-3.197-3.712-8.133-7.55-12.493-8.907c-5.813-1.899-13.677-1.266-18.616,2.535
						c-5.232,4.072-7.455,8.748-6.875,14.992c0.584,5.974,2.877,11.231,10.622,13.119c6.906,1.684,16.368,4.498,13.618,9.747
						c-3.828,7.312-20.793-1.938-23.505-3.647c-1.911,2.91-3.799,6.438-5.106,9.77c12.791,8.87,39.023,14.987,41.357-5.873
						c0.998-8.93-5.248-14.051-13.619-16.866c-4.596-1.547-9.68-1.94-11.054-6.497c-0.942-3.125,0.933-5.873,3.433-6.622
						c5.906-1.772,12.281,3.148,15.867,6.497C185.97,344.4,189.046,340.975,189.821,339.322z"/>
				</g>
				<g>
					<g>
						<path d="M191.16,338.729c-7.104-7.852-15.949-11.792-26.484-9.494c-9.504,2.073-15.26,10.91-14.146,20.28
							c0.494,4.161,2.373,7.593,5.687,10.121c4.449,3.393,11.109,3.314,16.03,5.995c3.337,1.818,3.92,6.408-0.68,7.017
							c-2.404,0.316-5.053-0.589-7.314-1.31c-3.656-1.165-7.267-2.921-10.54-4.93c-0.738-0.453-2.059-0.027-2.502,0.67
							c-1.986,3.124-3.69,6.348-5.105,9.77c-0.149,0.359-0.114,0.605,0.223,0.834c10.023,6.771,31.461,14.484,40.597,2.112
							c5.038-6.82,4.741-17.028-2.447-22.229c-4.095-2.961-8.641-4.275-13.408-5.718c-1.829-0.555-3.16-1.27-4.486-2.644
							c-3.242-3.357,0.023-8.412,5.624-7.25c3.758,0.779,7.167,3.714,9.907,6.208c0.623,0.566,1.999,0.359,2.521-0.284
							c2.221-2.747,4.787-5.396,6.553-8.474c0.736-1.285-2.195-1.088-2.727-0.164c-1.672,2.918-4.081,5.411-6.188,8.02
							c0.84-0.096,1.68-0.189,2.52-0.284c-3.417-3.11-7.729-6.675-12.542-7.071c-3.329-0.275-8.235,0.4-9.384,4.263
							c-1.264,4.252,1.323,7.604,5.298,8.989c6.348,2.215,12.792,3.484,17.114,9.13c3.599,4.701,2.442,11.932-0.533,16.609
							c-3.105,4.884-9.413,5.587-14.654,5.226c-5.043-0.348-10.034-2.011-14.614-4.063c-2.121-0.951-4.146-2.106-6.101-3.359
							c-1.133-0.727,3.979-8.537,4.563-9.453c-0.834,0.224-1.668,0.446-2.502,0.67c5.34,3.277,12.464,6.834,18.88,6.571
							c5.009-0.205,11.385-5.681,5.12-9.765c-4.11-2.68-8.937-3.612-13.583-4.938c-6.592-1.88-8.697-8.64-8.625-14.768
							c0.093-7.848,7.059-13.474,14.296-14.569c8.369-1.269,15.604,3.553,20.962,9.472
							C189.237,340.749,192.004,339.661,191.16,338.729z"/>
					</g>
				</g>
			</g>
			<g>
				<g>
					<g>
						<g>
							<path fill="#77CBF2" d="M296.179,316.138c0,0-0.895,23.979-1.572,32.115c0,0-12.188-13.037-26.83-2.581
								c-6.721,4.801-9.891,13.568-8.4,20.731c2.168,10.438,7.911,16.763,17.072,17.619c7.724,0.717,14.771-2.441,17.481-6.37
								l-0.137,6.249c2.439,0,11.247,0.847,14.5,0.305c0-1.626,2.437-67.765,2.437-67.765L296.179,316.138z M284.872,369.604
								c-3.686,3.379-9.41,3.104-12.207-1.402c-1.465-2.361-2.941-11.575,5.357-13.265
								C288.007,352.633,291.636,363.763,284.872,369.604z"/>
						</g>
					</g>
					<g>
						<g>
							<path d="M294.708,316.235c-0.399,10.704-0.72,21.438-1.571,32.117c0.931-0.25,1.861-0.5,2.794-0.749
								c-11.684-12.216-33.325-7.212-37.573,9.623c-2.373,9.404,1.397,20.602,9.97,25.613c8.073,4.724,21.011,2.667,26.825-4.728
								c-0.897-0.12-1.795-0.241-2.692-0.362c-0.046,2.084-0.091,4.166-0.136,6.25c-0.018,0.778,0.707,0.994,1.354,1.007
								c4.812,0.096,9.697,0.896,14.5,0.306c0.599-0.074,1.579-0.447,1.587-1.204c0.241-22.58,1.604-45.197,2.437-67.765
								c0.029-0.778-0.717-0.993-1.354-1.008c-4.851-0.102-9.701-0.203-14.552-0.305c-1.691-0.035-2.188,2.17-0.233,2.211
								c4.852,0.102,9.701,0.203,14.551,0.305c-0.45-0.336-0.901-0.672-1.354-1.008c-0.832,22.568-2.196,45.185-2.438,67.767
								c0.528-0.401,1.059-0.804,1.587-1.204c-4.8,0.591-9.686-0.21-14.498-0.306c0.451,0.336,0.902,0.672,1.354,1.007
								c0.046-2.081,0.091-4.165,0.136-6.247c0.031-1.4-2.077-1.146-2.692-0.362c-5.803,7.38-18.014,7.54-25.031,1.963
								c-5.834-4.637-8.01-13.789-6.715-20.789c2.818-15.237,21.937-20.322,32.321-9.463c0.739,0.771,2.693,0.511,2.794-0.749
								c0.854-10.678,1.172-21.412,1.572-32.115C297.708,314.476,294.759,314.865,294.708,316.235z"/>
						</g>
						<g>
							<path d="M283.9,368.902c-7.715,6.488-14.952-6.05-8.608-11.615c3.085-2.706,8.292-1.862,10.507,1.396
								C288.022,361.951,286.585,366.435,283.9,368.902c-1.444,1.328,0.831,2.425,1.942,1.402c3.778-3.474,5.356-8.874,2.304-13.364
								c-3.219-4.731-10.7-4.072-14.798-1.057c-3.624,2.67-4.036,8.309-2.405,12.186c2.558,6.08,10.503,5.934,14.899,2.235
								C287.35,369.038,285.05,367.936,283.9,368.902z"/>
						</g>
					</g>
				</g>
			</g>
			<g>
				<g>
					<g>
						<g>
							<path fill="#77CBF2" d="M243.44,365.869c0,0-9.247,7.511-19.562,6.429c-5.016-0.527-10.809-5.194-10.67-12.447
								c6.97,0.347,33.379-1.777,33.379-1.777c5.682-25.823-22.169-32.805-34.015-24.578c-20.074,10.294-15.69,45.608,4.16,50.159
								c18.501,4.24,32.591-8.618,32.591-8.618C244.946,368.33,243.44,365.869,243.44,365.869z M224.191,342.073
								c5.271-0.222,8.802,3.088,9.952,6.646c0,0-15.353,0.886-17.338,0.5C216.126,346.032,219.747,342.26,224.191,342.073z"/>
						</g>
					</g>
					<g>
						<g>
							<path d="M242.277,365.626c-9.058,7.2-27.014,9.446-27.619-6.164c-0.67,0.404-1.34,0.811-2.011,1.216
								c11.187,0.43,22.601-0.903,33.745-1.797c0.521-0.042,1.521-0.373,1.646-0.987c2.914-14.574-5.219-26.542-20.128-28.319
								c-12.603-1.502-24.381,6.434-28.397,18.316c-4.278,12.652,0.359,29.938,13.254,35.58c11.903,5.209,28.397,0.178,37.722-8.191
								c0.263-0.236,0.384-0.503,0.183-0.813c-1.981-3.039-3.983-6.072-5.885-9.165c-0.507-0.823-3.325,0.104-2.69,1.139
								c0.663,1.078,1.349,2.144,2.029,3.211c0.957,1.499,1.927,2.99,2.896,4.48c0.811,1.249,1.51,0.39,0.258,1.4
								c-5.559,4.492-12.506,7.21-19.566,8.021c-17.074,1.956-27.105-11.979-26.724-27.758c0.318-13.128,10.02-24.979,23.687-24.725
								c15.039,0.279,23.264,13.188,20.466,27.183c0.549-0.329,1.097-0.658,1.646-0.987c-10.909,0.874-22.064,2.179-33.013,1.759
								c-0.687-0.026-2.045,0.333-2.011,1.215c0.708,18.29,23.162,13.569,32.842,5.875
								C245.907,365.076,243.008,365.046,242.277,365.626z"/>
						</g>
						<g>
							<path d="M223.629,342.9c4.25,0.021,7.581,2.229,9.066,6.208c0.548-0.399,1.096-0.798,1.645-1.197
								c-3,0.172-6.002,0.315-9.005,0.436c-1.94,0.076-3.883,0.137-5.825,0.144c-1.494,0.006-1.381,0.345-1.275-0.947
								c0.225-2.771,3.362-4.411,5.761-4.66c1.418-0.146,2.401-1.825,0.394-1.616c-4.304,0.446-9.584,3.325-9.031,8.344
								c0.025,0.233,0.376,0.376,0.563,0.403c5.796,0.853,12.197-0.149,18.027-0.483c0.428-0.024,1.904-0.503,1.646-1.197
								c-1.767-4.73-5.918-7.062-10.839-7.085C223.661,341.24,221.669,342.892,223.629,342.9z"/>
						</g>
					</g>
				</g>
			</g>
			<g>
				<g>
					<path fill="#77CBF2" d="M330.286,371.404c-4.127,1.343-4.35,5.237-2.938,7.76c1.764,3.158,9.113,2.683,10.389-1.055
						C339.107,374.183,334.601,369.204,330.286,371.404z"/>
				</g>
				<g>
					<g>
						<path d="M329.772,371.026c-3.592,1.332-5.694,4.383-4.063,8.156c1.351,3.129,5.729,2.925,8.461,2.319
							c3.494-0.772,6.126-3.434,4.918-7.146c-1.382-4.249-6.12-4.752-9.647-3.188c-0.275,0.122-0.976,0.646-0.337,0.821
							c0.657,0.182,1.437-0.089,2.03-0.353c2.5-1.11,4.88,2.531,5.319,4.441c0.572,2.483-1.162,4.397-3.557,4.541
							c-4.998,0.302-6.932-7.048-2.097-8.84C332.732,371.065,330.91,370.605,329.772,371.026z"/>
					</g>
				</g>
			</g>
			<g>
				<g>
					<path fill="#77CBF2" d="M351.151,371.404c-4.127,1.343-4.35,5.237-2.939,7.76c1.763,3.158,9.114,2.683,10.39-1.055
						C359.974,374.183,355.467,369.204,351.151,371.404z"/>
				</g>
				<g>
					<g>
						<path d="M350.638,371.026c-3.592,1.332-5.694,4.383-4.065,8.156c1.351,3.129,5.729,2.925,8.462,2.319
							c3.494-0.772,6.126-3.434,4.919-7.146c-1.382-4.249-6.122-4.752-9.647-3.188c-0.275,0.122-0.977,0.646-0.337,0.821
							c0.657,0.182,1.437-0.089,2.029-0.353c2.501-1.11,4.881,2.531,5.32,4.441c0.572,2.484-1.162,4.397-3.558,4.541
							c-4.998,0.302-6.932-7.048-2.097-8.84C353.598,371.065,351.775,370.605,350.638,371.026z"/>
					</g>
				</g>
			</g>
			<g>
				<g>
					<path fill="#77CBF2" d="M372.576,371.404c-4.126,1.343-4.348,5.237-2.938,7.76c1.763,3.158,9.115,2.683,10.392-1.055
						C381.399,374.183,376.891,369.204,372.576,371.404z"/>
				</g>
				<g>
					<g>
						<path d="M372.063,371.026c-3.592,1.332-5.692,4.383-4.064,8.156c1.351,3.13,5.73,2.925,8.463,2.319
							c3.494-0.772,6.129-3.434,4.919-7.146c-1.384-4.248-6.122-4.753-9.649-3.188c-0.275,0.122-0.976,0.646-0.337,0.821
							c0.657,0.182,1.437-0.089,2.03-0.353c2.501-1.11,4.881,2.531,5.321,4.441c0.574,2.485-1.162,4.397-3.559,4.541
							c-4.997,0.302-6.932-7.048-2.097-8.84C375.022,371.065,373.2,370.604,372.063,371.026z"/>
					</g>
				</g>
			</g>
		</g>
		<g>
			<g>
				<g>
					<path fill="#77CBF2" d="M247.913,241.457l12.691-0.108c0,0,0.211,10.523,0.313,17.413c3.143-10.186,7.765-14.223,16.798-14.535
						c13.139-0.455,17.868,9.376,20.573,14.689c-2.309,2.877-8.76,10.653-8.76,10.653s-4.439-9.754-11.363-9.557
						c-8.131,0.229-15.878,14.449-15.604,32.622l-13.965-0.108C248.595,292.526,248.007,255.242,247.913,241.457z"/>
				</g>
				<g>
					<g>
						<path d="M247.796,242.563c4.23-0.036,8.462-0.073,12.692-0.109c-0.452-0.336-0.903-0.672-1.354-1.008
							c0.115,5.805,0.225,11.608,0.313,17.413c0.021,1.438,2.489,1.24,2.862,0.092c1.92-5.909,4.57-11.304,10.981-13.084
							c6.675-1.854,13.742,0.355,18.384,5.323c1.329,1.423,2.385,3.098,3.373,4.765c1.267,2.134,1.944,2.604,0.354,4.553
							c-2.351,2.881-4.722,5.741-7.095,8.603c0.891,0.023,1.779,0.049,2.671,0.072c-3.047-6.495-9.174-12.429-16.681-9.253
							c-11.103,4.695-13.214,22.731-13.209,32.805c0.529-0.4,1.059-0.802,1.587-1.203c-4.653-0.036-9.31-0.072-13.964-0.108
							c0.451,0.336,0.902,0.673,1.354,1.009c-0.269-17.022-0.56-34.046-0.683-51.069c-0.011-1.571-2.95-1.169-2.94,0.195
							c0.123,17.023,0.413,34.048,0.682,51.068c0.013,0.772,0.685,1.003,1.354,1.008c4.654,0.036,9.311,0.072,13.966,0.108
							c0.593,0.005,1.588-0.503,1.587-1.203c-0.004-9.534,1.575-19.849,7.636-27.542c5.85-7.425,13.268-1.747,16.413,4.963
							c0.486,1.036,2.011,0.868,2.671,0.072c2.936-3.539,5.874-7.075,8.761-10.654c0.29-0.358,0.304-0.713,0.102-1.109
							c-4.264-8.389-9.946-14.549-19.869-15.141c-10.764-0.642-17.063,5.742-20.217,15.445c0.954,0.03,1.908,0.062,2.862,0.092
							c-0.089-5.805-0.196-11.608-0.313-17.413c-0.015-0.765-0.681-1.014-1.354-1.008c-4.23,0.036-8.46,0.073-12.69,0.109
							C246.343,240.366,245.832,242.579,247.796,242.563z"/>
					</g>
				</g>
			</g>
			<g>
				<g>
					<g>
						<g>
							<path fill="#77CBF2" d="M171.518,273.74c0,0-9.249,7.511-19.563,6.429c-5.016-0.527-10.807-5.196-10.67-12.446
								c6.969,0.344,33.38-1.78,33.38-1.78c5.68-25.819-22.173-32.802-34.014-24.576c-20.077,10.293-15.693,45.609,4.157,50.16
								c18.501,4.237,32.593-8.62,32.593-8.62C173.024,276.201,171.518,273.74,171.518,273.74z M152.267,249.942
								c5.272-0.22,8.805,3.089,9.953,6.649c0,0-15.353,0.886-17.34,0.498C144.202,253.903,147.82,250.129,152.267,249.942z"/>
						</g>
					</g>
					<g>
						<g>
							<path d="M170.588,273.197c-8.992,7.147-27.233,10.021-27.854-5.864c-0.661,0.441-1.321,0.883-1.982,1.323
								c11.194,0.426,22.598-0.894,33.749-1.787c0.6-0.048,1.488-0.403,1.622-1.075c2.893-14.465-4.957-26.142-19.595-28.385
								c-12.817-1.965-24.888,6.309-28.949,18.318c-4.278,12.65,0.376,30.03,13.279,35.677c11.982,5.243,28.342,0.258,37.729-8.169
								c0.283-0.254,0.356-0.615,0.149-0.932c-1.982-3.041-3.983-6.073-5.885-9.165c-0.59-0.96-3.389,0.04-2.672,1.202
								c0.662,1.079,1.348,2.146,2.029,3.213c0.957,1.497,1.927,2.988,2.896,4.479c0.756,1.165,1.492,0.276,0.104,1.365
								c-5.6,4.388-12.406,7.095-19.454,7.901c-17.047,1.956-27.065-11.8-26.683-27.604c0.318-13.112,10.078-24.903,23.706-24.65
								c15.007,0.279,23.229,13.029,20.429,27.041c0.541-0.358,1.082-0.717,1.622-1.074c-10.901,0.872-22.068,2.188-33.011,1.772
								c-0.798-0.03-2.021,0.354-1.982,1.323c0.704,18.07,22.864,13.918,32.609,6.173
								C173.988,273.058,171.593,272.399,170.588,273.197z"/>
						</g>
						<g>
							<path d="M151.733,250.877c4.227,0.022,7.55,2.108,9.038,6.104c0.538-0.439,1.075-0.878,1.612-1.316
								c-5.468,0.313-11.537,1.293-16.97,0.491c0.306,0.183,0.61,0.364,0.916,0.546c-0.371-3.365,2.757-5.519,5.773-5.832
								c1.515-0.157,2.32-2.063,0.328-1.854c-4.381,0.454-9.556,3.413-8.999,8.465c0.044,0.4,0.618,0.502,0.916,0.546
								c5.671,0.837,12.005-0.178,17.708-0.505c0.511-0.029,1.896-0.554,1.612-1.316c-1.761-4.728-5.922-7.171-10.869-7.196
								C151.566,249.001,149.771,250.866,151.733,250.877z"/>
						</g>
					</g>
				</g>
			</g>
			<g>
				<g>
					<g>
						<g>
							<path fill="#77CBF2" d="M351.906,273.74c0,0-9.249,7.511-19.562,6.428c-5.016-0.528-10.808-5.195-10.67-12.447
								c6.969,0.346,33.379-1.778,33.379-1.778c5.68-25.82-22.17-32.804-34.014-24.576c-20.074,10.292-15.689,45.606,4.16,50.16
								c18.501,4.237,32.59-8.62,32.59-8.62C353.411,276.199,351.906,273.74,351.906,273.74z M332.655,249.942
								c5.273-0.221,8.804,3.089,9.954,6.648c0,0-15.353,0.887-17.339,0.499C324.59,253.902,328.211,250.129,332.655,249.942z"/>
						</g>
					</g>
					<g>
						<g>
							<path d="M350.946,273.082c-8.671,6.893-27.188,10.282-27.804-5.474c-0.657,0.387-1.313,0.773-1.971,1.161
								c11.196,0.429,22.597-0.878,33.752-1.771c0.681-0.055,1.453-0.443,1.598-1.168c2.889-14.45-4.97-26.29-19.634-28.538
								c-12.693-1.943-24.806,6.177-28.845,18.123c-4.225,12.493-0.055,29.452,12.338,35.668c11.858,5.948,28.899,0.982,38.37-7.52
								c0.386-0.348,0.694-0.791,0.366-1.295c-1.981-3.041-3.983-6.073-5.885-9.166c-0.683-1.109-3.447-0.017-2.654,1.274
								c1.901,3.093,3.903,6.124,5.886,9.164c0.123-0.432,0.245-0.862,0.366-1.295c-8.664,7.779-22.551,11.573-33.607,7.416
								c-11.809-4.438-15.19-20.144-13.118-31.159c2.305-12.25,13.478-20.578,25.777-19.111
								c13.796,1.646,20.277,13.784,17.704,26.66c0.531-0.39,1.064-0.777,1.598-1.168c-10.897,0.873-22.068,2.204-33.006,1.785
								c-0.624-0.022-2.005,0.273-1.972,1.161c0.712,18.239,22.589,14.571,32.659,6.567
								C354.409,273.172,352.071,272.188,350.946,273.082z"/>
						</g>
						<g>
							<path d="M332.525,250.999c4.037,0.021,7.232,2.225,8.635,5.98c0.526-0.481,1.054-0.963,1.579-1.444
								c-5.46,0.313-11.542,1.307-16.966,0.506c0.315,0.222,0.631,0.441,0.946,0.661
								C326.351,253.376,329.596,251.304,332.525,250.999c1.613-0.167,2.235-2.317,0.26-2.112c-4.467,0.464-9.527,3.493-8.964,8.594
								c0.047,0.422,0.608,0.61,0.946,0.661c5.68,0.838,12.001-0.164,17.712-0.492c0.602-0.034,1.887-0.619,1.579-1.444
								c-1.85-4.955-6.14-7.293-11.273-7.317C331.132,248.877,330.561,250.989,332.525,250.999z"/>
						</g>
					</g>
				</g>
			</g>
			<g>
				<g>
					<g>
						<g>
							<path fill="#77CBF2" d="M238.192,260.915c-1.244-26.502-35.463-22.551-50.299-17.97c-2.168,24.603,0.744,66.308,0.727,71.152
								c3.855,0.2,11.689-0.056,13.99-0.241c0-9.406,0.238-21.467,0.238-30.149C217.563,286.964,239.149,281.295,238.192,260.915z
								 M202.637,270.354c-0.633-5.546-0.671-11.246-0.43-16.795c10.449-4.222,22.314-1.437,22.953,6.511
								C225.885,269.114,216.478,273.939,202.637,270.354z"/>
						</g>
					</g>
					<g>
						<g>
							<path d="M239.642,260.526c-1.724-25.667-33.946-23.37-51.852-17.963c-0.334,0.102-1.307,0.305-1.346,0.77
								c-1.997,23.776,0.603,47.397,0.727,71.152c0,0.166,0.435,0.154,0.497,0.157c4.755,0.188,9.553,0.069,14.299-0.262
								c0.404-0.027,2.092-0.313,2.093-0.913c0.013-10.051,0.225-20.1,0.237-30.148c-0.883,0.305-1.765,0.61-2.647,0.916
								C218.394,287.68,240.103,280.592,239.642,260.526c-0.011-0.385-2.915,0.034-2.898,0.777
								c0.414,17.997-17.011,25.103-32.695,21.875c-0.487-0.101-2.646,0.208-2.647,0.916c-0.014,10.051-0.227,20.1-0.238,30.149
								c0.697-0.305,1.396-0.609,2.092-0.914c-3.812,0.267-7.646,0.313-11.466,0.287c-2.399-0.016-1.747-1.381-1.837-3.427
								c-0.257-5.841-0.558-11.681-0.793-17.521c-0.671-16.66-1.211-33.476,0.187-50.111c-0.449,0.256-0.897,0.513-1.347,0.77
								c17.46-5.271,47.108-6.447,48.747,17.978C236.772,261.726,239.689,261.241,239.642,260.526z"/>
						</g>
						<g>
							<path d="M204.085,269.966c-0.577-5.596-0.643-11.178-0.429-16.795c-0.322,0.218-0.643,0.436-0.965,0.652
								c6.769-2.533,19.653-2.983,21.021,6.635c1.582,11.128-12.55,11.128-19.876,9.367c-0.635-0.152-3.131,0.881-2.397,1.057
								c8.146,1.957,22.711,2.396,25.039-8.327c2.964-13.66-17.286-12.055-24.752-9.261c-0.259,0.098-0.951,0.287-0.965,0.652
								c-0.215,5.618-0.148,11.2,0.429,16.795C201.234,271.192,204.157,270.654,204.085,269.966z"/>
						</g>
					</g>
				</g>
			</g>
			<g>
				<g>
					<g>
						<g>
							<path fill="#77CBF2" d="M116.7,251.067c-6.219-25.648-32.753-29.604-53.492-25.837c-1.258,23.223-0.329,62.973-0.222,67.054
								c10.058,1.256,27.231,2.927,38.128-3.139C116.775,280.426,120.071,264.98,116.7,251.067z M101.397,260.143
								c-0.628,9.937-7.246,18.749-22.37,16.362v-34.344C90.214,240.276,102.069,249.591,101.397,260.143z"/>
						</g>
					</g>
					<g>
						<g>
							<path d="M118.149,250.679c-6.448-24.763-32.438-30.262-54.776-26.374c-0.518,0.091-1.587,0.376-1.623,1.072
								c-1.16,22.302-0.799,44.737-0.222,67.055c0.015,0.553,0.421,0.723,0.924,0.783c14.183,1.744,29.754,2.847,42.303-5.188
								C117.483,279.881,121.354,264.805,118.149,250.679c-0.267-1.172-3.169-0.419-2.897,0.776
								c2.974,13.103-0.123,26.19-11.097,34.61c-11.284,8.657-27.394,6.914-40.634,5.286c0.308,0.261,0.616,0.521,0.924,0.784
								c-0.578-22.317-0.938-44.754,0.222-67.055c-0.541,0.357-1.082,0.715-1.623,1.073c21.488-3.739,46.019,1.528,52.208,25.3
								C115.557,252.629,118.456,251.856,118.149,250.679z"/>
						</g>
						<g>
							<path d="M99.939,260.29c-0.979,11.496-9.184,16.787-20.378,15.283c0.308,0.262,0.616,0.523,0.924,0.785
								c0-11.448,0-22.896,0-34.344c-0.541,0.356-1.082,0.715-1.623,1.072C89.107,241.785,100.103,249.396,99.939,260.29
								c-0.021,1.366,2.898,0.824,2.916-0.295c0.185-12.323-12.256-20.209-23.663-18.759c-0.49,0.063-1.623,0.399-1.623,1.073
								c0,11.447,0,22.896,0,34.344c0,0.557,0.433,0.719,0.924,0.785c12.479,1.675,23.23-4.157,24.362-17.443
								C102.97,258.654,100.036,259.157,99.939,260.29z"/>
						</g>
					</g>
				</g>
			</g>
			<g>
				<g>
					<path fill="#77CBF2" d="M401.86,270.665c0.019-2.511,1.135-10.899-1.24-10.896c-8.082,0.009-18.461-0.138-24.473-0.183
						c-1.521,2.5-1.201,10.421,0.633,10.776C378.545,270.704,395.651,271.179,401.86,270.665z"/>
				</g>
				<g>
					<g>
						<path d="M403.31,270.276c0.069-2.284,1.836-10.806-1.771-11.173c-8.086-0.822-16.647-0.123-24.788-0.188
							c-0.62-0.006-1.741,0.273-2.04,0.898c-1.367,2.863-1.259,6.652-0.403,9.642c0.545,1.908,2.482,1.686,4.086,1.775
							c7.566,0.426,15.301,0.649,22.863,0.105c0.86-0.063,3.135-1.481,1.207-1.344c-6.484,0.467-13.053,0.249-19.542,0.025
							c-1.769-0.062-4.88,0.535-5.718-1.34c-1.174-2.632-0.819-6.81,0.379-9.32c-0.681,0.299-1.359,0.6-2.039,0.897
							c6.575,0.055,13.15,0.139,19.728,0.174c1.014,0.005,4.378-0.477,4.99,0.739c0.499,0.989,0.397,2.425,0.427,3.492
							c0.057,2.132-0.212,4.263-0.277,6.393C400.393,271.665,403.28,271.231,403.31,270.276z"/>
					</g>
				</g>
			</g>
		</g>
	</g>
	<g>
		<g>
			<g>
				<path fill="#808285" d="M71.342,126.54c-12.629,3.067-26.148-9.598-16.378-20.839c8.418-9.684,24.184-6.939,30.869,3.713
					c-7.385-13.559,9.822-22.948,22.45-22.92c10.836,0.023,29.466,6.94,21.398,23.728c10.137-14.365,25.609-12.104,30.519-5.003
					c5.958,8.621-1.047,17.993-10.522,20.177c8.799,2.18,9.688,12.805,1.227,18.723c-7.107,5.294-18.365,1.689-21.748-6.94
					c-0.953,18.053-35.476,17.818-35.137,0.377c-3.449,13.123-21.34,11.836-25.726,6.078
					C64.124,138.158,61.354,131.221,71.342,126.54z"/>
			</g>
			<g>
				<g>
					<path d="M71.125,125.729c-12.252,2.434-23.851-10.256-14.086-20.688c8.113-8.667,21.723-3.547,27.455,4.962
						c0.54,0.803,3.253-0.039,2.788-0.978c-13.339-26.948,54.914-29.982,41.039,1.12c-0.658,1.475,2.186,0.869,2.722,0.147
						c5.672-7.629,15.121-12.704,24.246-7.738c3.81,2.071,5.791,6.342,5.603,10.568c-0.268,5.995-6.226,10.046-11.432,11.459
						c-0.732,0.198-1.96,1.261-0.653,1.658c8.97,2.739,7.482,12.549,1.179,17.371c-6.899,5.276-16.292,0.123-19.38-6.825
						c-0.433-0.974-2.815-0.491-2.904,0.547c-1.404,16.443-31.985,16.923-32.227,0.06c-0.021-1.381-2.614-0.655-2.91,0.317
						c-2.494,8.193-10.785,10.623-18.424,8.265c-3.03-0.937-4.723-3.033-6.332-5.621c-3.391-5.453-1.493-10.245,4.129-13.137
						c1.775-0.913,0.15-2.047-1.189-1.356c-4.811,2.475-8.614,5.89-7.373,11.699c0.899,4.208,4.188,8.334,8.23,9.818
						c9.304,3.42,20.799,0.1,23.869-9.985c-0.971,0.105-1.94,0.212-2.91,0.317c0.281,19.602,36.458,17.896,38.047-0.694
						c-0.968,0.183-1.937,0.364-2.904,0.547c4.013,9.028,14.531,12.35,23.122,7.725c8.835-4.756,10.332-17.5-0.281-20.741
						c-0.218,0.554-0.436,1.105-0.653,1.658c5.985-1.624,10.985-5.077,13.359-10.948c2.197-5.433-1.111-11.308-5.683-14.188
						c-10.29-6.489-22.935,0.586-29.25,9.079c0.907,0.05,1.813,0.099,2.722,0.147c6.69-14.997-6.939-23.547-20.444-24.636
						c-12.67-1.021-33.948,8.52-26.214,24.143c0.93-0.324,1.859-0.65,2.788-0.978c-7.563-11.226-23.901-13.555-33.387-3.422
						c-4.634,4.951-4.551,11.573-0.373,16.674c4.316,5.27,11.832,6.529,18.146,5.274C73.358,126.993,72.882,125.38,71.125,125.729z"
						/>
				</g>
			</g>
		</g>
		<g>
			<g>
				<path fill="#808285" d="M185.878,87.612c-25.907,6.29-53.646-19.69-33.601-42.754c17.271-19.867,49.616-14.237,63.331,7.618
					c-15.151-27.817,20.154-47.081,46.063-47.024c22.232,0.047,60.456,14.239,43.9,48.679
					c20.797-29.472,52.547-24.837,62.615-10.266c12.225,17.689-2.147,36.921-21.592,41.396c18.055,4.474,19.88,26.271,2.519,38.41
					c-14.583,10.865-37.681,3.472-44.618-14.236c-1.957,37.039-72.787,36.559-72.092,0.771
					c-7.078,26.925-43.781,24.284-52.776,12.473C171.073,111.449,165.388,97.219,185.878,87.612z"/>
			</g>
			<g>
				<g>
					<path d="M185.661,86.802c-12.215,2.701-25.105-1.546-33.249-11.052c-8.381-9.782-6.255-22.499,1.936-31.582
						c17.057-18.917,47.328-10.476,59.922,8.897c0.534,0.821,3.264-0.064,2.788-0.979C201.322,21.858,242.367,4.54,266.51,6.613
						c11.577,0.994,23.764,5.026,32.596,12.761c10.557,9.245,10.697,22.628,5.105,34.684c-0.675,1.45,2.187,0.886,2.721,0.147
						c11.823-16.327,33.305-27.511,52.524-16.497c8.338,4.776,12.903,14.463,11.432,23.916c-1.866,11.977-13.56,20.092-24.51,22.826
						c-0.724,0.18-1.975,1.295-0.654,1.658c7.591,2.092,12.901,7.432,13.917,15.348c1.127,8.773-4.746,16.816-11.446,21.712
						c-14.793,10.811-35.657,1.657-42.25-14.122c-0.411-0.982-2.833-0.479-2.904,0.549c-2.407,34.99-69.286,36.384-69.182,0.453
						c0.004-1.369-2.632-0.666-2.91,0.318c-5.008,17.688-24.203,23.306-40.438,17.948c-7.518-2.48-11.938-8.384-15.167-15.374
						c-5.14-11.122,0.94-19.647,11.129-24.649c1.797-0.883,0.157-2.019-1.189-1.356c-9.76,4.792-17.252,12.378-13.944,23.858
						c2.404,8.343,8.376,15.966,16.623,18.929c17.869,6.418,40.346-0.068,45.896-19.674c-0.97,0.106-1.94,0.213-2.91,0.318
						c-0.111,38.669,72.446,36.045,75.002-1.091c-0.968,0.183-1.936,0.365-2.903,0.548c7.36,17.617,29.631,25.468,45.979,15.065
						c7.851-4.995,13.759-13.407,13.595-22.931c-0.152-8.997-6.935-15.28-15.153-17.546c-0.218,0.553-0.437,1.105-0.654,1.658
						c11.375-2.839,21.721-9.991,26.029-21.208c4.056-10.559-1.321-22.211-10.329-28.169c-20.309-13.435-45.753,0.034-58.301,17.362
						c0.906,0.05,1.813,0.099,2.721,0.147c6.101-13.148,5.434-26.744-5.886-36.657c-9.473-8.295-22.979-11.993-35.295-12.872
						c-24.898-1.773-67.755,17.139-51.592,48.189c0.929-0.326,1.859-0.652,2.788-0.979c-14.381-22.122-47.471-27.709-65.849-7.326
						c-8.928,9.899-9.237,23.184-0.595,33.272c8.591,10.027,23.081,13.357,35.591,10.59
						C187.881,88.028,187.419,86.412,185.661,86.802z"/>
				</g>
			</g>
		</g>
		<g>
			<g>
				<path d="M246.2,102.104c-0.672,5.464,2.146,12.338,8.215,13.098c0.926,0.116,3.414-1.386,1.771-1.592
					c-5.349-0.67-7.665-7.149-7.084-11.863C249.245,100.573,246.323,101.106,246.2,102.104L246.2,102.104z"/>
			</g>
		</g>
		<g>
			<g>
				<path d="M269.543,103.684c0.052,1.729,0.794,3.067,1.733,4.479c0.627,0.942,3.422-0.076,2.672-1.203
					c-0.723-1.086-1.45-2.223-1.489-3.571C272.419,102.014,269.511,102.578,269.543,103.684L269.543,103.684z"/>
			</g>
		</g>
		<g>
			<g>
				<path d="M109.317,125.866c-0.372,2-0.436,4.039-0.806,6.039c-0.202,1.09,2.716,0.593,2.895-0.373
					c0.371-2.001,0.434-4.039,0.806-6.039C112.415,124.403,109.497,124.9,109.317,125.866L109.317,125.866z"/>
			</g>
		</g>
		<g>
			<g>
				<path d="M123.523,126.3c0.696,1.075,1.058,2.25,1.077,3.534c0.021,1.452,2.943,0.949,2.926-0.258
					c-0.025-1.671-0.429-3.11-1.341-4.517C125.521,124.034,122.741,125.092,123.523,126.3L123.523,126.3z"/>
			</g>
		</g>
		<g>
			<g>
				<path d="M290.202,39.735c0.755,1.167,1.154,2.46,1.494,3.798c0.317,1.244,3.217,0.475,2.898-0.777
					c-0.385-1.507-0.879-2.939-1.729-4.253C292.211,37.491,289.428,38.54,290.202,39.735L290.202,39.735z"/>
			</g>
		</g>
		<g>
			<g>
				<g>
					<path fill="#DFF3FB" d="M131.997,184.262c-1.133,11.104-8.688,19.845-5.475,29.766c2.58,7.963,13.117,8.818,16.021-1.972
						C145.278,201.884,134.06,196.897,131.997,184.262z"/>
				</g>
				<g>
					<g>
						<path d="M130.543,184.426c-1.201,9.259-6.988,17.68-6.109,27.186c0.517,5.583,5.559,10.841,11.486,9.08
							c6.158-1.829,9.251-8.241,8.267-14.407c-0.508-3.183-2.666-6.127-4.413-8.737c-2.887-4.312-5.325-8.524-6.327-13.672
							c-0.211-1.089-3.12-0.362-2.897,0.775c2.117,10.881,15.987,20.637,8.512,31.938c-2.679,4.049-7.271,2.723-9.815-0.401
							c-2.307-2.832-2.227-7.244-1.787-10.619c0.964-7.393,5.026-14.013,5.993-21.469
							C133.612,182.855,130.681,183.362,130.543,184.426z"/>
					</g>
				</g>
			</g>
			<g>
				<g>
					<path fill="#FFFFFF" d="M129.125,202.91c-0.027,2.962-0.359,5.917,0.002,8.87c0.124,1.014,3.036,0.352,2.897-0.775
						c-0.344-2.812-0.024-5.623,0.002-8.441C132.038,201.315,129.134,201.921,129.125,202.91L129.125,202.91z"/>
				</g>
			</g>
			<g>
				<g>
					<path fill="#FFFFFF" d="M131.85,215.392c0.395,0.644,1.298,0.851,1.997,0.881c0.651,0.027,1.531-0.227,1.908-0.805
						c0.382-0.587-0.321-0.885-0.8-0.904c-0.272-0.012,0.151,0.088-0.147-0.045c-0.137-0.062-0.195-0.156-0.272-0.281
						c-0.33-0.537-1.505-0.236-1.925-0.056C132.14,214.384,131.505,214.83,131.85,215.392L131.85,215.392z"/>
				</g>
			</g>
		</g>
		<g>
			<g>
				<g>
					<path fill="#DFF3FB" d="M198.688,119.221c-1.133,11.104-8.689,19.846-5.476,29.767c2.58,7.963,13.117,8.817,16.021-1.973
						C211.97,136.844,200.749,131.856,198.688,119.221z"/>
				</g>
				<g>
					<g>
						<path d="M197.235,119.385c-1.201,9.259-6.99,17.679-6.11,27.186c0.518,5.583,5.56,10.841,11.487,9.079
							c6.157-1.829,9.25-8.241,8.265-14.407c-0.508-3.183-2.667-6.127-4.414-8.737c-2.887-4.312-5.324-8.524-6.325-13.672
							c-0.212-1.088-3.119-0.362-2.897,0.775c2.116,10.882,15.986,20.636,8.51,31.938c-2.677,4.049-7.27,2.724-9.813-0.4
							c-2.308-2.832-2.228-7.244-1.787-10.619c0.964-7.392,5.026-14.014,5.994-21.47
							C200.303,117.814,197.373,118.321,197.235,119.385z"/>
					</g>
				</g>
			</g>
			<g>
				<g>
					<path fill="#FFFFFF" d="M196.704,138.831c-0.892,3.03-1.419,6.729,0.862,9.271c0.456,0.508,3.119-0.535,2.738-0.959
						c-2.125-2.365-1.569-6.063-0.75-8.849C199.7,137.799,196.907,138.141,196.704,138.831L196.704,138.831z"/>
				</g>
			</g>
			<g>
				<g>
					<path fill="#FFFFFF" d="M199.075,149.739c0.018,0.62,0.132,1.223,0.657,1.623c0.661,0.504,1.523,0.457,2.292,0.292
						c0.585-0.126,1.362-0.714,1.177-1.401c-0.195-0.729-1.136-0.752-1.72-0.626c0.249-0.054,0.451,0.006,0.627,0.183
						c-0.169-0.169,0.03,0.164-0.055-0.087c0.002,0.006-0.042-0.313-0.039-0.191c-0.021-0.729-0.68-1.023-1.347-0.976
						C200.104,148.595,199.054,149.019,199.075,149.739L199.075,149.739z"/>
				</g>
			</g>
		</g>
		<g>
			<g>
				<g>
					<path fill="#DFF3FB" d="M260.513,128.052c-1.133,11.104-8.688,19.845-5.475,29.766c2.579,7.963,13.117,8.818,16.021-1.972
						C273.794,145.673,262.575,140.687,260.513,128.052z"/>
				</g>
				<g>
					<g>
						<path d="M259.06,128.215c-1.2,9.259-6.988,17.68-6.109,27.186c0.517,5.583,5.56,10.841,11.486,9.08
							c6.158-1.829,9.251-8.24,8.266-14.407c-0.509-3.183-2.666-6.127-4.414-8.737c-2.887-4.312-5.324-8.524-6.326-13.672
							c-0.212-1.089-3.119-0.362-2.897,0.775c2.118,10.88,15.988,20.638,8.513,31.938c-2.678,4.048-7.271,2.723-9.814-0.401
							c-2.308-2.832-2.228-7.244-1.786-10.619c0.964-7.393,5.024-14.013,5.991-21.469
							C262.127,126.645,259.197,127.151,259.06,128.215z"/>
					</g>
				</g>
			</g>
			<g>
				<g>
					<path fill="#FFFFFF" d="M258.1,148.689c-0.891,2.926-2.271,7.787,1.267,9.482c0.533,0.257,1.347-0.003,1.86-0.186
						c0.078-0.027,1.33-0.566,0.874-0.785c-3.343-1.604-1.981-6.293-1.147-9.038C261.114,147.634,258.315,147.979,258.1,148.689
						L258.1,148.689z"/>
				</g>
			</g>
			<g>
				<g>
					<path fill="#FFFFFF" d="M262.098,160.021c0.544,0.233,1.155,0.265,1.739,0.266c0.693,0.001,1.537-0.183,1.895-0.859
						c0.313-0.6-0.271-1.117-0.856-1.118c-0.185,0-0.368-0.004-0.553-0.014c-0.271-0.014-0.282-0.02-0.523-0.124
						c-0.64-0.274-1.603,0.064-2.049,0.551C261.267,159.245,261.511,159.767,262.098,160.021L262.098,160.021z"/>
				</g>
			</g>
		</g>
		<g>
			<g>
				<g>
					<path fill="#DFF3FB" d="M311.247,148.885c-1.132,11.104-8.688,19.845-5.474,29.766c2.579,7.963,13.117,8.818,16.021-1.972
						C324.528,166.506,313.31,161.521,311.247,148.885z"/>
				</g>
				<g>
					<g>
						<path d="M309.795,149.049c-1.2,9.259-6.989,17.68-6.109,27.186c0.517,5.583,5.559,10.841,11.486,9.08
							c6.157-1.829,9.251-8.241,8.266-14.408c-0.509-3.183-2.666-6.127-4.414-8.736c-2.887-4.313-5.324-8.524-6.326-13.672
							c-0.212-1.089-3.12-0.363-2.897,0.775c2.118,10.88,15.987,20.637,8.513,31.938c-2.678,4.048-7.271,2.723-9.815-0.401
							c-2.307-2.832-2.227-7.244-1.785-10.619c0.964-7.393,5.024-14.013,5.99-21.469
							C312.861,147.479,309.932,147.985,309.795,149.049z"/>
					</g>
				</g>
			</g>
			<g>
				<g>
					<path fill="#FFFFFF" d="M308.002,171.562c0.002,2.248,0.017,4.508,0.805,6.643c0.353,0.954,3.219,0.094,2.897-0.774
						c-0.788-2.137-0.804-4.396-0.805-6.644C310.898,169.969,308.002,170.494,308.002,171.562L308.002,171.562z"/>
				</g>
			</g>
			<g>
				<g>
					<path fill="#FFFFFF" d="M313.142,181.682c1.645,0,2.232-2.093,0.266-2.093C311.763,179.59,311.175,181.682,313.142,181.682
						L313.142,181.682z"/>
				</g>
			</g>
		</g>
		<g>
			<g>
				<g>
					<path fill="#DFF3FB" d="M343.71,115.477c-0.797,7.797-6.101,13.933-3.844,20.896c1.813,5.591,9.209,6.192,11.248-1.384
						C353.034,127.848,345.157,124.347,343.71,115.477z"/>
				</g>
				<g>
					<g>
						<path d="M342.257,115.641c-0.973,7.141-5.778,13.771-3.839,21.12c1.02,3.86,5.051,5.313,8.591,4.391
							c4.282-1.115,6.232-6.139,5.729-10.139c-0.298-2.363-1.968-4.594-3.251-6.509c-1.994-2.976-3.618-5.875-4.327-9.416
							c-0.219-1.09-3.126-0.359-2.897,0.775c1.504,7.504,10.762,14.078,6.254,21.929c-1.556,2.709-4.429,2.046-6.151,0.163
							c-1.811-1.978-1.702-5.322-1.379-7.74c0.687-5.124,3.478-9.731,4.179-14.902C345.331,114.073,342.4,114.577,342.257,115.641z"
							/>
					</g>
				</g>
			</g>
			<g>
				<g>
					<path fill="#FFFFFF" d="M341.804,131.437c-0.65,2.092-0.525,4.555,1.142,6.144c0.532,0.508,1.316,0.492,1.961,0.188
						c0.413-0.195,1.231-0.936,0.697-1.444c-1.445-1.378-1.43-3.331-0.87-5.13c0.22-0.706-0.88-0.938-1.326-0.901
						C342.688,130.353,342.022,130.731,341.804,131.437L341.804,131.437z"/>
				</g>
			</g>
		</g>
		<g>
			<g>
				<g>
					<path fill="#DFF3FB" d="M349.627,172.131c-0.796,7.798-6.1,13.934-3.843,20.896c1.812,5.591,9.209,6.192,11.247-1.384
						C358.952,184.502,351.075,181.001,349.627,172.131z"/>
				</g>
				<g>
					<g>
						<path d="M348.174,172.295c-0.972,7.143-5.777,13.771-3.838,21.12c1.02,3.861,5.051,5.313,8.591,4.392
							c4.282-1.115,6.231-6.14,5.728-10.14c-0.298-2.362-1.967-4.593-3.25-6.508c-1.994-2.976-3.619-5.875-4.328-9.416
							c-0.219-1.09-3.126-0.36-2.897,0.775c1.504,7.504,10.762,14.078,6.254,21.929c-1.555,2.709-4.429,2.046-6.15,0.163
							c-1.811-1.979-1.702-5.322-1.379-7.74c0.687-5.124,3.477-9.731,4.178-14.903C351.248,170.728,348.316,171.231,348.174,172.295
							z"/>
					</g>
				</g>
			</g>
			<g>
				<g>
					<path fill="#FFFFFF" d="M347.256,189.88c0.013,1.431,0.29,2.688,1.297,3.753c0.563,0.596,3.273-0.444,2.719-1.032
						c-0.92-0.973-1.106-2.203-1.117-3.495C350.147,188.487,347.247,188.957,347.256,189.88L347.256,189.88z"/>
				</g>
			</g>
		</g>
		<g>
			<g>
				<g>
					<path fill="#DFF3FB" d="M394.104,147.327c-0.795,7.797-6.1,13.934-3.843,20.896c1.812,5.591,9.209,6.191,11.248-1.385
						C403.429,159.698,395.552,156.197,394.104,147.327z"/>
				</g>
				<g>
					<g>
						<path d="M392.649,147.491c-0.97,7.141-5.777,13.771-3.838,21.121c1.02,3.861,5.051,5.312,8.591,4.39
							c4.282-1.114,6.233-6.139,5.729-10.139c-0.299-2.363-1.969-4.593-3.251-6.507c-1.994-2.978-3.618-5.876-4.327-9.418
							c-0.22-1.089-3.126-0.359-2.898,0.776c1.504,7.504,10.762,14.077,6.254,21.929c-1.556,2.709-4.429,2.046-6.15,0.163
							c-1.812-1.979-1.702-5.321-1.379-7.739c0.687-5.125,3.477-9.733,4.18-14.904C395.726,145.924,392.795,146.428,392.649,147.491
							z"/>
					</g>
				</g>
			</g>
			<g>
				<g>
					<path fill="#FFFFFF" d="M391.731,165.077c0.013,1.429,0.292,2.688,1.298,3.752c0.563,0.596,3.274-0.445,2.719-1.033
						c-0.92-0.972-1.106-2.203-1.117-3.496C394.624,163.684,391.724,164.153,391.731,165.077L391.731,165.077z"/>
				</g>
			</g>
		</g>
		<g>
			<g>
				<g>
					<path fill="#DFF3FB" d="M274.149,192.451c-0.795,7.796-6.101,13.932-3.843,20.896c1.812,5.591,9.21,6.191,11.247-1.384
						C283.475,204.821,275.598,201.32,274.149,192.451z"/>
				</g>
				<g>
					<g>
						<path d="M272.696,192.615c-0.971,7.141-5.778,13.771-3.839,21.12c1.02,3.861,5.052,5.312,8.591,4.39
							c4.283-1.113,6.232-6.139,5.729-10.139c-0.299-2.362-1.968-4.593-3.25-6.507c-1.994-2.978-3.618-5.875-4.327-9.416
							c-0.22-1.09-3.126-0.36-2.898,0.774c1.504,7.504,10.761,14.077,6.254,21.929c-1.556,2.71-4.429,2.045-6.15,0.163
							c-1.812-1.979-1.702-5.321-1.38-7.739c0.688-5.125,3.478-9.733,4.18-14.903C275.771,191.048,272.84,191.552,272.696,192.615z"
							/>
					</g>
				</g>
			</g>
			<g>
				<g>
					<path fill="#FFFFFF" d="M272.17,208.196c-0.463,2.663-0.568,6.146,2.572,7.038c0.907,0.258,3.409-1.098,1.777-1.562
						c-2.218-0.63-1.743-4.176-1.453-5.847C275.26,206.716,272.34,207.219,272.17,208.196L272.17,208.196z"/>
				</g>
			</g>
		</g>
		<g>
			<g>
				<g>
					<path fill="#DFF3FB" d="M228.685,166.795c-0.795,7.797-6.101,13.934-3.845,20.896c1.813,5.591,9.21,6.191,11.248-1.384
						C238.009,179.166,230.132,175.665,228.685,166.795z"/>
				</g>
				<g>
					<g>
						<path d="M227.231,166.959c-0.97,7.143-5.778,13.771-3.839,21.12c1.019,3.862,5.052,5.313,8.591,4.392
							c4.282-1.115,6.231-6.14,5.728-10.14c-0.298-2.363-1.968-4.593-3.25-6.508c-1.994-2.976-3.619-5.875-4.328-9.416
							c-0.218-1.09-3.125-0.36-2.896,0.775c1.502,7.505,10.759,14.078,6.252,21.929c-1.555,2.709-4.428,2.045-6.151,0.163
							c-1.812-1.979-1.703-5.321-1.378-7.74c0.688-5.124,3.478-9.731,4.18-14.903C230.307,165.392,227.375,165.896,227.231,166.959z
							"/>
					</g>
				</g>
			</g>
			<g>
				<g>
					<path fill="#FFFFFF" d="M226.278,183.062c-0.386,1.886-0.229,3.964,1.491,5.137c0.518,0.352,1.361,0.128,1.89-0.077
						c0.18-0.069,1.328-0.634,0.823-0.978c-1.521-1.036-1.671-2.85-1.328-4.525C229.334,181.74,226.448,182.231,226.278,183.062
						L226.278,183.062z"/>
				</g>
			</g>
		</g>
		<g>
			<g>
				<g>
					<path fill="#DFF3FB" d="M174.716,172.133c-0.795,7.797-6.1,13.933-3.844,20.896c1.813,5.591,9.21,6.192,11.248-1.383
						C184.04,184.503,176.164,181.002,174.716,172.133z"/>
				</g>
				<g>
					<g>
						<path d="M173.262,172.297c-0.971,7.142-5.778,13.771-3.84,21.12c1.02,3.861,5.053,5.313,8.592,4.391
							c4.282-1.114,6.231-6.14,5.728-10.14c-0.298-2.361-1.967-4.593-3.25-6.507c-1.994-2.977-3.618-5.876-4.327-9.416
							c-0.218-1.09-3.125-0.359-2.896,0.775c1.503,7.504,10.76,14.078,6.253,21.928c-1.557,2.709-4.43,2.045-6.151,0.163
							c-1.812-1.979-1.703-5.321-1.378-7.739c0.688-5.125,3.478-9.731,4.179-14.902
							C176.338,170.729,173.407,171.233,173.262,172.297z"/>
					</g>
				</g>
			</g>
			<g>
				<g>
					<path fill="#FFFFFF" d="M172.273,189.894c0.024,1.811,0.696,3.463,2.496,4.122c0.578,0.212,1.304,0.007,1.858-0.189
						c0.054-0.02,1.342-0.606,0.876-0.777c-1.739-0.638-2.309-2.19-2.334-3.931C175.165,188.692,172.262,189.111,172.273,189.894
						L172.273,189.894z"/>
				</g>
			</g>
		</g>
		<g>
			<g>
				<g>
					<path fill="#DFF3FB" d="M105.358,138.102c-0.795,7.796-6.101,13.932-3.844,20.896c1.813,5.591,9.21,6.192,11.248-1.383
						C114.683,150.472,106.806,146.971,105.358,138.102z"/>
				</g>
				<g>
					<g>
						<path d="M103.905,138.266c-0.97,7.141-5.778,13.77-3.839,21.12c1.019,3.86,5.052,5.312,8.591,4.39
							c4.283-1.114,6.232-6.139,5.728-10.139c-0.298-2.362-1.968-4.594-3.25-6.508c-1.993-2.977-3.617-5.875-4.326-9.416
							c-0.219-1.09-3.125-0.359-2.897,0.775c1.502,7.504,10.76,14.078,6.253,21.928c-1.556,2.709-4.429,2.045-6.15,0.163
							c-1.813-1.978-1.703-5.321-1.379-7.739c0.688-5.125,3.478-9.731,4.18-14.902C106.98,136.698,104.049,137.202,103.905,138.266z
							"/>
					</g>
				</g>
			</g>
			<g>
				<g>
					<path fill="#FFFFFF" d="M103.064,154.409c-0.188,2.417,0.241,4.99,2.539,6.263c0.625,0.348,1.5,0.162,2.064-0.222
						c0.435-0.295,0.828-0.974,0.204-1.319c-1.804-0.999-2.035-3.141-1.891-5.013C106.086,152.763,103.152,153.265,103.064,154.409
						L103.064,154.409z"/>
				</g>
			</g>
		</g>
		<g>
			<g>
				<g>
					<path fill="#DFF3FB" d="M70.949,172.13c-0.795,7.798-6.1,13.934-3.843,20.896c1.812,5.591,9.209,6.192,11.248-1.384
						C80.274,184.501,72.397,181,70.949,172.13z"/>
				</g>
				<g>
					<g>
						<path d="M69.496,172.294c-0.97,7.142-5.778,13.771-3.838,21.121c1.02,3.861,5.051,5.313,8.59,4.391
							c4.283-1.115,6.233-6.14,5.729-10.14c-0.298-2.362-1.969-4.593-3.251-6.507c-1.994-2.977-3.618-5.876-4.328-9.418
							c-0.218-1.089-3.125-0.359-2.897,0.777c1.503,7.503,10.762,14.077,6.253,21.928c-1.556,2.709-4.429,2.046-6.15,0.163
							c-1.812-1.979-1.702-5.321-1.379-7.739c0.687-5.125,3.477-9.732,4.179-14.904C72.571,170.727,69.64,171.23,69.496,172.294z"/>
					</g>
				</g>
			</g>
			<g>
				<g>
					<path fill="#FFFFFF" d="M68.238,189.784c0.46,1.188,0.736,2.45,1.425,3.539c0.811,1.278,2.304,1.661,3.729,1.601
						c0.65-0.026,1.512-0.476,1.589-1.197c0.08-0.749-0.757-1.024-1.354-0.999c-1.729,0.072-2.021-2.505-2.493-3.721
						C70.612,187.656,67.729,188.47,68.238,189.784L68.238,189.784z"/>
				</g>
			</g>
		</g>
		<g>
			<g>
				<g>
					<path fill="#DFF3FB" d="M363.076,311.516c-1.132,11.104-8.688,19.845-5.474,29.766c2.579,7.963,13.117,8.818,16.02-1.972
						C376.357,329.138,365.138,324.151,363.076,311.516z"/>
				</g>
				<g>
					<g>
						<path d="M361.623,311.68c-1.199,9.258-6.988,17.679-6.108,27.185c0.517,5.583,5.559,10.841,11.485,9.08
							c6.157-1.829,9.25-8.241,8.266-14.407c-0.508-3.183-2.666-6.127-4.413-8.737c-2.887-4.312-5.325-8.524-6.326-13.672
							c-0.212-1.089-3.12-0.362-2.897,0.775c2.116,10.881,15.986,20.637,8.512,31.938c-2.678,4.049-7.271,2.723-9.814-0.401
							c-2.307-2.832-2.227-7.244-1.787-10.619c0.965-7.392,5.026-14.013,5.992-21.469
							C364.69,310.109,361.761,310.616,361.623,311.68z"/>
					</g>
				</g>
			</g>
			<g>
				<g>
					<path fill="#FFFFFF" d="M359.978,333.291c-0.46,3.074-0.762,6.603,1.344,9.163c0.809,0.983,3.57-0.146,2.658-1.256
						c-1.869-2.273-1.478-5.435-1.072-8.149C363.121,331.622,360.165,332.033,359.978,333.291L359.978,333.291z"/>
				</g>
			</g>
			<g>
				<g>
					<path fill="#FFFFFF" d="M365.478,344.46c1.109-0.064,2.173-0.615,2.969-1.374c0.441-0.421,0.331-0.922-0.283-1.055
						c-0.666-0.145-1.55,0.073-2.049,0.549c-0.074,0.071-0.163,0.165-0.247,0.225c-0.409,0.29,0.462-0.017-0.005,0.012
						c-0.546,0.032-1.499,0.384-1.643,0.998C364.063,344.482,365.094,344.482,365.478,344.46L365.478,344.46z"/>
				</g>
			</g>
		</g>
	</g>
</g>
</svg>
