<?xml version="1.0" encoding="utf-8"?>
<!-- Generator: Adobe Illustrator 13.0.0, SVG Export Plug-In . SVG Version: 6.00 Build 14948)  -->
<svg version="1.2" baseProfile="tiny" id="Layer_1" xmlns="http://www.w3.org/2000/svg" xmlns:xlink="http://www.w3.org/1999/xlink"
	 x="0px" y="0px" width="462.416px" height="462.416px" viewBox="0 0 462.416 462.416" xml:space="preserve">
<path d="M384.916,398.091c-1.309,0.595-2.614,1.188-3.925,1.778c5.267-0.477,10.298-1.764,13.707-5.172
	c0.52-0.518,0.974-1.086,1.397-1.676c-0.9,0.407-1.8,0.814-2.7,1.224C391.176,396.256,388.258,397.428,384.916,398.091z"/>
<path fill="#FFFFFF" stroke="#231F20" d="M231.208,461.208c-14.552,0-26.427-25.353-40.18-28.073
	c-14.175-2.804-34.82,16.024-47.86,10.619c-13.267-5.503-14.524-33.469-26.317-41.362c-11.886-7.955-38.199,1.527-48.272-8.545
	c-10.076-10.075-0.594-36.394-8.548-48.273c-7.894-11.793-35.861-13.053-41.362-26.32c-5.406-13.04,13.421-33.687,10.617-47.857
	C26.565,257.642,1.21,245.764,1.21,231.21c0-14.553,25.354-26.43,28.075-40.183c2.804-14.173-16.023-34.82-10.617-47.861
	c5.501-13.267,33.472-14.524,41.362-26.317c7.954-11.885-1.528-38.197,8.548-48.271c10.074-10.075,36.389-0.591,48.272-8.547
	c11.793-7.896,13.053-35.861,26.317-41.363c13.04-5.406,33.688,13.422,47.86,10.619c13.753-2.722,25.628-28.074,40.18-28.074
	c14.557,0,26.431,25.354,40.187,28.074c14.173,2.803,34.819-16.023,47.859-10.617c13.268,5.502,14.524,33.469,26.318,41.364
	c11.882,7.954,38.2-1.53,48.272,8.545c10.075,10.075,0.592,36.391,8.547,48.272c7.894,11.793,35.86,13.054,41.363,26.319
	c5.404,13.039-13.421,33.688-10.618,47.857c0.848,4.287,3.895,8.391,7.687,12.451c0.383-0.186,0.769-0.365,1.151-0.547
	c-3.76-3.994-6.846-8.058-7.653-12.141c-1.253-6.34,2.241-14.438,5.621-22.271c3.919-9.083,7.971-18.477,4.928-25.813
	c-3.114-7.514-12.744-11.323-22.057-15.009c-7.828-3.097-15.924-6.3-19.418-11.521c-3.541-5.286-3.416-14.049-3.297-22.521
	c0.142-9.954,0.287-20.247-5.399-25.934c-5.021-5.024-13.571-5.445-21.19-5.445c-1.567,0-3.154,0.021-4.741,0.045
	c-1.576,0.021-3.152,0.045-4.709,0.045c-6.66,0-13.428-0.404-17.813-3.34c-5.222-3.496-8.425-11.591-11.521-19.42
	c-3.687-9.313-7.494-18.94-15.008-22.058c-1.719-0.713-3.656-1.072-5.762-1.072c-6.145,0-13.216,3.051-20.054,6.002
	c-6.704,2.893-13.637,5.883-19.443,5.883c-0.995,0-1.945-0.088-2.831-0.263c-6.046-1.195-12.046-7.383-17.849-13.363
	C246.752,7.49,239.485,0,231.208,0c-8.274,0-15.542,7.49-22.567,14.734c-5.804,5.979-11.803,12.167-17.847,13.363
	c-0.884,0.175-1.837,0.263-2.832,0.263c-5.807,0-12.738-2.991-19.443-5.885c-6.838-2.95-13.909-6.001-20.055-6.001
	c-2.104,0-4.041,0.358-5.759,1.07c-7.514,3.116-11.322,12.745-15.007,22.059c-3.098,7.829-6.3,15.924-11.521,19.419
	c-4.387,2.937-11.155,3.342-17.818,3.342c-1.557,0-3.13-0.022-4.704-0.045c-1.585-0.022-3.17-0.045-4.735-0.045
	c-7.621,0-16.172,0.421-21.193,5.444c-5.688,5.688-5.543,15.979-5.402,25.935c0.12,8.472,0.244,17.231-3.296,22.52
	c-3.494,5.224-11.59,8.426-19.418,11.521c-9.313,3.685-18.94,7.494-22.058,15.007c-3.044,7.34,1.011,16.731,4.93,25.814
	c3.38,7.833,6.874,15.934,5.62,22.273c-1.196,6.044-7.384,12.044-13.363,17.848C7.491,215.664,0,222.931,0,231.208
	c0,8.277,7.491,15.544,14.735,22.571c5.98,5.803,12.168,11.803,13.363,17.847c1.254,6.342-2.241,14.441-5.621,22.275
	c-3.918,9.082-7.973,18.474-4.929,25.813c3.115,7.516,12.744,11.323,22.058,15.01c7.829,3.098,15.924,6.3,19.418,11.521
	c3.54,5.287,3.416,14.048,3.296,22.521c-0.141,9.953-0.286,20.248,5.401,25.936c5.021,5.024,13.57,5.444,21.189,5.444
	c1.567,0,3.153-0.022,4.739-0.045c1.576-0.022,3.152-0.046,4.71-0.046c6.66,0,13.429,0.404,17.813,3.342
	c5.223,3.495,8.426,11.59,11.521,19.419c3.684,9.313,7.493,18.938,15.007,22.055c1.718,0.713,3.656,1.074,5.76,1.074
	c6.146,0,13.217-3.052,20.055-6.002c6.705-2.895,13.639-5.885,19.443-5.885c0.995,0,1.947,0.089,2.831,0.263
	c6.044,1.196,12.043,7.382,17.847,13.363c7.024,7.244,14.293,14.733,22.567,14.733c8.278,0,15.544-7.489,22.57-14.732
	c2.959-3.051,5.97-6.15,9.012-8.618c-0.561-0.055-1.121-0.112-1.68-0.182C251.375,447.189,242.032,461.208,231.208,461.208z"/>
<path d="M319.253,443.753c-7.929,3.285-18.664-2.381-29.052-6.7c-0.714,0.148-1.43,0.29-2.146,0.429
	c1.943,0.778,3.902,1.622,5.844,2.459c6.84,2.951,13.912,6.003,20.056,6.002c2.104,0,4.042-0.361,5.762-1.074
	c7.514-3.113,11.321-12.744,15.008-22.057c0.214-0.542,0.43-1.085,0.646-1.628c-0.525,0.243-1.058,0.479-1.586,0.723
	C330.072,431.273,326.41,440.782,319.253,443.753z"/>
<path fill="#FFFFFF" stroke="#231F20" d="M252.045,445.999c-6.677,6.886-13.581,14.003-20.837,14.003
	c-7.255,0-14.158-7.117-20.835-14.003c-6.061-6.246-12.327-12.708-19.108-14.051c-1.038-0.205-2.147-0.31-3.302-0.31
	c-6.306,0-13.472,3.093-20.4,6.083c-6.612,2.854-13.451,5.804-19.098,5.804c-1.81,0-3.391-0.291-4.834-0.889
	c-6.567-2.727-10.188-11.869-13.687-20.715c-3.233-8.173-6.577-16.623-12.424-20.538c-4.922-3.294-12.116-3.746-19.158-3.746
	c-1.569,0-3.157,0.021-4.744,0.045c-1.575,0.021-3.148,0.044-4.705,0.045c-8.852,0-15.552-0.808-19.48-4.737
	c-4.969-4.965-4.828-14.74-4.694-24.193c0.125-8.842,0.254-17.982-3.704-23.896c-3.913-5.847-12.364-9.19-20.537-12.424
	c-8.844-3.499-17.989-7.118-20.714-13.688c-2.651-6.395,1.195-15.309,4.915-23.93c3.525-8.173,7.172-16.623,5.771-23.701
	c-1.342-6.784-7.803-13.051-14.052-19.112c-6.883-6.678-14.001-13.582-14.001-20.837s7.118-14.16,14.002-20.837
	c6.247-6.061,12.708-12.328,14.051-19.109c1.399-7.078-2.245-15.528-5.771-23.701c-3.72-8.622-7.566-17.537-4.915-23.934
	c2.725-6.567,11.869-10.188,20.714-13.687c8.173-3.233,16.624-6.577,20.537-12.424c3.958-5.913,3.829-15.058,3.704-23.897
	c-0.134-9.452-0.272-19.227,4.694-24.19c3.931-3.933,10.633-4.736,19.485-4.736c1.557,0,3.128,0.021,4.701,0.044
	c1.586,0.022,3.172,0.045,4.738,0.045c7.044,0,14.241-0.454,19.163-3.749c5.847-3.914,9.188-12.365,12.424-20.538
	c3.499-8.844,7.117-17.989,13.687-20.714c1.442-0.598,3.023-0.889,4.833-0.889c5.646,0,12.482,2.951,19.098,5.804
	c6.931,2.991,14.097,6.083,20.4,6.083c1.152,0,2.265-0.104,3.303-0.31c6.782-1.344,13.05-7.805,19.108-14.052
	c6.677-6.884,13.58-14.001,20.835-14.001c7.256,0,14.16,7.117,20.837,14c6.063,6.248,12.328,12.71,19.113,14.053
	c1.038,0.203,2.148,0.31,3.3,0.31c6.308,0,13.473-3.092,20.4-6.081c6.613-2.854,13.451-5.804,19.097-5.804
	c1.812,0,3.393,0.291,4.834,0.89c6.569,2.725,10.188,11.869,13.688,20.713c3.233,8.173,6.577,16.624,12.424,20.539
	c4.921,3.294,12.114,3.748,19.156,3.748c1.566,0,3.155-0.021,4.743-0.045c1.573-0.021,3.148-0.045,4.707-0.045
	c8.853,0,15.554,0.806,19.481,4.737c4.966,4.965,4.827,14.737,4.693,24.189c-0.125,8.842-0.255,17.985,3.704,23.898
	c3.914,5.847,12.363,9.188,20.537,12.425c8.845,3.499,17.987,7.118,20.715,13.688c2.648,6.395-1.195,15.31-4.915,23.932
	c-3.526,8.171-7.172,16.621-5.772,23.698c0.88,4.447,3.966,8.675,7.744,12.768c0.375-0.186,0.75-0.37,1.127-0.551
	c-3.792-4.063-6.839-8.164-7.687-12.451c-2.804-14.171,16.022-34.818,10.618-47.857c-5.504-13.268-33.472-14.526-41.363-26.319
	c-7.955-11.882,1.527-38.197-8.547-48.272c-10.072-10.075-36.393-0.591-48.272-8.545c-11.794-7.896-13.053-35.862-26.32-41.364
	c-13.038-5.405-33.687,13.421-47.857,10.617c-13.758-2.72-25.63-28.074-40.187-28.074c-14.552,0-26.427,25.354-40.18,28.074
	c-14.175,2.804-34.82-16.023-47.86-10.619c-13.267,5.502-14.524,33.471-26.317,41.363c-11.886,7.956-38.198-1.528-48.272,8.547
	c-10.076,10.074-0.594,36.39-8.548,48.271c-7.895,11.793-35.861,13.053-41.362,26.317c-5.407,13.041,13.421,33.688,10.617,47.861
	c-2.722,13.753-28.075,25.63-28.075,40.183c0,14.555,25.355,26.433,28.075,40.186c2.804,14.173-16.024,34.817-10.617,47.857
	c5.501,13.27,33.47,14.527,41.362,26.32c7.954,11.882-1.528,38.198,8.548,48.273c10.073,10.072,36.389,0.59,48.272,8.545
	c11.793,7.896,13.053,35.861,26.317,41.362c13.04,5.405,33.688-13.421,47.86-10.619c13.753,2.723,25.628,28.075,40.18,28.075
	c10.824,0,20.167-14.021,29.902-22.326c-0.526-0.065-1.051-0.146-1.575-0.222C256.991,440.906,254.501,443.469,252.045,445.999z"/>
<path d="M318.788,442.635c-1.44,0.599-3.021,0.89-4.834,0.89c-5.646,0.001-12.482-2.95-19.099-5.804
	c-0.867-0.375-1.739-0.75-2.612-1.122c-0.68,0.153-1.358,0.308-2.042,0.452c10.388,4.319,21.123,9.985,29.052,6.7
	c7.157-2.971,10.819-12.479,14.528-21.849c-0.526,0.242-1.057,0.483-1.586,0.725C328.781,431.247,325.183,439.983,318.788,442.635z"
	/>
<path d="M393.396,394.245c-2.827,1.281-5.653,2.563-8.479,3.846C388.258,397.428,391.176,396.256,393.396,394.245z"/>
<path fill="#FFFFFF" d="M461.21,231.208c0,14.555-25.354,26.43-28.075,40.185c-2.803,14.173,16.026,34.818,10.622,47.858
	c-5.503,13.267-33.472,14.527-41.363,26.32c-7.409,11.062,0.294,34.626-6.736,45.956c0.607-0.275,1.215-0.55,1.822-0.825
	c2.839-5.86,2.733-14.001,2.62-21.936c-0.12-8.476-0.244-17.234,3.298-22.523c3.495-5.222,11.591-8.425,19.42-11.522
	c9.313-3.686,18.938-7.493,22.055-15.007c3.043-7.339-1.01-16.729-4.93-25.813c-3.38-7.833-6.876-15.936-5.623-22.274
	c1.196-6.045,7.382-12.045,13.364-17.848c7.244-7.026,14.734-14.293,14.734-22.569c0-8.274-7.49-15.543-14.733-22.567
	c-1.707-1.656-3.428-3.33-5.048-5.017c-0.381,0.186-0.76,0.371-1.142,0.561C449.825,212.902,461.21,221.454,461.21,231.208z"/>
<path fill="#FFFFFF" d="M271.393,433.135c-2.818,0.558-5.559,2.072-8.256,4.118c0.604,0.063,1.213,0.121,1.821,0.172
	c2.211-1.54,4.438-2.664,6.667-3.105c0.883-0.174,1.836-0.263,2.83-0.263c3.314,0,6.996,0.977,10.792,2.351
	c0.789-0.126,1.578-0.258,2.367-0.399C281.827,433.743,276.231,432.177,271.393,433.135z"/>
<path fill="#FFFFFF" d="M345.569,402.388c-4.932,3.302-8.021,10.115-10.917,17.327c0.541-0.261,1.082-0.521,1.621-0.781
	c2.658-6.498,5.609-12.624,9.968-15.542c4.387-2.938,11.152-3.34,17.813-3.34c1.558,0,3.133,0.021,4.709,0.045
	c1.587,0.021,3.174,0.045,4.741,0.045c1.062,0,2.141-0.013,3.227-0.038c0.998-0.452,1.995-0.904,2.993-1.356
	C368.018,399.561,353.546,397.049,345.569,402.388z"/>
<path fill="#FFFFFF" d="M271.158,431.948c-3.352,0.663-6.577,2.577-9.714,5.098c0.563,0.075,1.126,0.146,1.692,0.207
	c2.697-2.046,5.438-3.563,8.256-4.118c4.839-0.957,10.435,0.608,16.224,2.871c0.732-0.135,1.464-0.274,2.195-0.423
	c-5.294-2.162-10.572-3.942-15.354-3.942C273.306,431.639,272.195,431.743,271.158,431.948z"/>
<path fill="#FFFFFF" d="M368.799,397.681c-1.587-0.022-3.177-0.045-4.743-0.045c-7.041,0-14.235,0.452-19.156,3.746
	c-5.506,3.688-8.791,11.396-11.854,19.108c0.537-0.257,1.073-0.517,1.609-0.775c2.896-7.212,5.985-14.025,10.917-17.327
	c7.977-5.341,22.448-2.827,34.154-3.643c1.168-0.529,2.336-1.059,3.504-1.588c-2.856,0.427-6.106,0.566-9.724,0.566
	C371.948,397.726,370.373,397.703,368.799,397.681z"/>
<path fill="#FFFFFF" d="M446.003,210.372c6.883,6.677,13.997,13.581,13.997,20.836s-7.115,14.158-14.001,20.835
	c-6.246,6.063-12.709,12.328-14.051,19.113c-1.397,7.078,2.248,15.528,5.774,23.7c3.721,8.622,7.565,17.537,4.917,23.932
	c-2.727,6.567-11.87,10.188-20.713,13.688c-8.175,3.232-16.625,6.579-20.539,12.426c-3.961,5.914-3.831,15.059-3.705,23.901
	c0.13,9.196,0.251,18.688-4.318,23.766c0.766-0.347,1.527-0.692,2.291-1.039c7.03-11.33-0.673-34.896,6.736-45.956
	c7.894-11.793,35.86-13.056,41.363-26.32c5.404-13.04-13.425-33.688-10.622-47.858c2.721-13.755,28.073-25.63,28.073-40.185
	c0-9.754-11.383-18.306-19.713-27.023c-0.378,0.187-0.755,0.373-1.13,0.563C442.162,206.646,444.093,208.52,446.003,210.372z"/>
<path d="M391.427,394.291c-1.589,0.722-3.161,1.434-4.702,2.131C388.51,395.913,390.088,395.226,391.427,394.291z"/>
<path d="M382.057,398.537c-1.109,0.503-2.204,0.998-3.282,1.487c0.741-0.038,1.481-0.088,2.217-0.155
	c1.311-0.593,2.616-1.186,3.927-1.778C383.991,398.273,383.038,398.423,382.057,398.537z"/>
<path d="M262.127,438.04c-0.339,0.274-0.678,0.555-1.017,0.844c0.559,0.067,1.119,0.127,1.68,0.182
	c0.36-0.292,0.724-0.576,1.083-0.85C263.289,438.164,262.707,438.104,262.127,438.04z"/>
<path d="M288.879,436.51c-0.749,0.145-1.499,0.28-2.25,0.413c0.477,0.182,0.949,0.366,1.428,0.559
	c0.717-0.139,1.433-0.278,2.146-0.429C289.76,436.867,289.318,436.686,288.879,436.51z"/>
<path d="M394.799,392.764c-0.3,0.377-0.611,0.736-0.952,1.079c-0.145,0.143-0.3,0.268-0.449,0.4c0.9-0.407,1.8-0.814,2.7-1.224
	c0.278-0.388,0.539-0.785,0.78-1.199C396.177,392.139,395.488,392.451,394.799,392.764z"/>
<path d="M334.199,420.848c-0.14,0.353-0.277,0.705-0.418,1.057c0.528-0.241,1.061-0.479,1.586-0.723
	c0.146-0.366,0.293-0.733,0.439-1.102C335.285,420.333,334.75,420.588,334.199,420.848z"/>
<path d="M386.725,396.422c-1.586,0.72-3.139,1.424-4.668,2.115c0.979-0.114,1.935-0.264,2.857-0.446
	c2.826-1.28,5.652-2.563,8.479-3.846c0.149-0.135,0.307-0.26,0.449-0.402c0.341-0.341,0.652-0.7,0.952-1.077
	c-1.137,0.515-2.26,1.021-3.37,1.525C390.088,395.226,388.51,395.913,386.725,396.422z"/>
<path d="M332.476,421.921c-0.093,0.235-0.188,0.473-0.28,0.708c0.529-0.239,1.06-0.48,1.586-0.725
	c0.141-0.352,0.278-0.704,0.418-1.057c-0.52,0.244-1.051,0.493-1.595,0.748C332.562,421.704,332.519,421.813,332.476,421.921z"/>
<path d="M259.535,438.66c0.524,0.078,1.049,0.156,1.575,0.224c0.339-0.289,0.678-0.567,1.017-0.844
	c-0.547-0.061-1.091-0.133-1.634-0.208C260.173,438.103,259.854,438.381,259.535,438.66z"/>
<path d="M291.011,436.079c-0.712,0.149-1.422,0.292-2.134,0.431c0.439,0.178,0.882,0.357,1.322,0.543
	c0.684-0.146,1.362-0.299,2.042-0.452C291.833,436.426,291.422,436.253,291.011,436.079z"/>
<path d="M383.228,397.159c1.243-0.187,2.409-0.428,3.497-0.737c1.541-0.697,3.113-1.409,4.702-2.131
	c0.562-0.392,1.084-0.823,1.563-1.303c0.133-0.133,0.248-0.282,0.374-0.422c-1.915,0.867-3.829,1.732-5.743,2.602
	C386.156,395.832,384.692,396.496,383.228,397.159z"/>
<path d="M285.249,436.405c0.458,0.166,0.919,0.339,1.38,0.518c0.751-0.133,1.501-0.271,2.25-0.413
	c-0.422-0.17-0.844-0.34-1.263-0.504C286.827,436.147,286.038,436.279,285.249,436.405z"/>
<path d="M394.799,392.764c0.689-0.313,1.38-0.625,2.079-0.941c0.213-0.364,0.416-0.736,0.602-1.12
	c-0.607,0.275-1.215,0.55-1.822,0.825C395.39,391.957,395.106,392.371,394.799,392.764z"/>
<path d="M376.73,400.104c0.68-0.02,1.362-0.044,2.044-0.079c1.078-0.489,2.173-0.984,3.282-1.487
	c-0.763,0.089-1.543,0.155-2.333,0.21C378.726,399.199,377.729,399.651,376.73,400.104z"/>
<path d="M263.137,437.253c-0.339,0.256-0.676,0.518-1.012,0.787c0.58,0.064,1.162,0.124,1.746,0.176
	c0.361-0.274,0.726-0.538,1.087-0.791C264.35,437.374,263.742,437.316,263.137,437.253z"/>
<path d="M334.652,419.717c-0.148,0.379-0.303,0.755-0.453,1.133c0.551-0.262,1.086-0.517,1.607-0.768
	c0.155-0.384,0.311-0.767,0.467-1.146C335.734,419.196,335.193,419.456,334.652,419.717z"/>
<path d="M333.044,420.492c-0.146,0.368-0.294,0.736-0.438,1.104c0.544-0.253,1.075-0.502,1.595-0.748
	c0.15-0.378,0.305-0.754,0.453-1.133C334.116,419.976,333.58,420.235,333.044,420.492z"/>
<path d="M261.444,437.046c-0.317,0.256-0.635,0.521-0.951,0.786c0.543,0.075,1.087,0.147,1.634,0.208
	c0.336-0.271,0.673-0.531,1.012-0.787C262.57,437.189,262.007,437.121,261.444,437.046z"/>
<path d="M289.812,435.583c-0.731,0.146-1.463,0.288-2.195,0.423c0.419,0.164,0.841,0.334,1.263,0.504
	c0.712-0.139,1.424-0.279,2.134-0.431C290.611,435.911,290.211,435.746,289.812,435.583z"/>
<path d="M383.228,397.159c-1.168,0.529-2.336,1.059-3.504,1.588c0.79-0.055,1.57-0.121,2.333-0.21
	c1.529-0.691,3.082-1.396,4.668-2.115C385.637,396.731,384.471,396.973,383.228,397.159z"/>
<path d="M393.364,392.566c-0.126,0.14-0.241,0.289-0.374,0.422c-0.479,0.479-1.002,0.911-1.563,1.303
	c1.11-0.504,2.233-1.013,3.37-1.525c0.31-0.395,0.593-0.809,0.856-1.236C394.892,391.874,394.13,392.22,393.364,392.566z"/>
<path d="M440.895,203.553c0.372-0.207,0.737-0.407,1.099-0.604c-0.007-0.007-0.013-0.013-0.019-0.021
	c-0.385,0.182-0.771,0.361-1.151,0.547C440.848,203.502,440.871,203.527,440.895,203.553z"/>
<path d="M439.818,204.159c0.365-0.209,0.721-0.408,1.076-0.604c-0.023-0.025-0.047-0.053-0.071-0.076
	c-0.377,0.181-0.752,0.363-1.127,0.551C439.737,204.07,439.777,204.115,439.818,204.159z"/>
<path d="M440.895,203.553c0.197,0.211,0.4,0.42,0.601,0.63c0.382-0.188,0.761-0.375,1.142-0.561
	c-0.215-0.225-0.432-0.448-0.644-0.674C441.634,203.146,441.267,203.346,440.895,203.553z"/>
<path d="M440.365,204.746c0.375-0.188,0.752-0.377,1.13-0.563c-0.198-0.21-0.401-0.419-0.601-0.63
	c-0.355,0.196-0.711,0.396-1.076,0.604C440,204.354,440.181,204.551,440.365,204.746z"/>
<g>
	<path fill="#FFFFFF" stroke="#231F20" d="M461.21,231.208c0,14.555-25.354,26.43-28.075,40.185
		c-2.803,14.173,16.026,34.818,10.622,47.858c-5.503,13.267-33.472,14.527-41.363,26.32c-7.958,11.882,1.528,38.197-8.547,48.271
		c-10.075,10.075-36.396,0.593-48.275,8.547c-11.791,7.895-13.052,35.86-26.316,41.363c-13.039,5.405-33.688-13.422-47.858-10.618
		c-13.756,2.721-25.63,28.073-40.187,28.073c-14.552,0-26.427-25.353-40.18-28.073c-14.175-2.804-34.82,16.024-47.86,10.618
		c-13.267-5.501-14.524-33.468-26.317-41.361c-11.886-7.955-38.199,1.527-48.272-8.546c-10.076-10.074-0.594-36.393-8.548-48.272
		c-7.893-11.793-35.861-13.053-41.362-26.32c-5.405-13.04,13.421-33.687,10.617-47.857C26.565,257.639,1.21,245.76,1.21,231.208
		c0-14.552,25.354-26.43,28.075-40.183c2.804-14.173-16.022-34.82-10.617-47.861c5.501-13.267,33.472-14.524,41.362-26.317
		c7.954-11.885-1.528-38.197,8.548-48.271c10.074-10.075,36.389-0.591,48.272-8.547c11.793-7.896,13.053-35.861,26.317-41.363
		c13.04-5.406,33.688,13.422,47.86,10.619c13.753-2.722,25.628-28.074,40.18-28.074c14.557,0,26.431,25.354,40.187,28.074
		c14.173,2.803,34.819-16.023,47.859-10.617c13.268,5.502,14.524,33.469,26.318,41.364c11.882,7.954,38.2-1.53,48.272,8.545
		c10.075,10.075,0.592,36.391,8.547,48.272c7.894,11.793,35.86,13.054,41.363,26.319c5.404,13.039-13.42,33.688-10.618,47.857
		C435.856,204.779,461.21,216.655,461.21,231.208z"/>
</g>
<g>
	<path fill="#FFFFFF" stroke="#231F20" d="M231.208,462.416c-8.274,0-15.543-7.489-22.567-14.733
		c-5.804-5.981-11.803-12.167-17.847-13.363c-0.884-0.174-1.836-0.263-2.831-0.263c-5.807,0-12.738,2.991-19.443,5.885
		c-6.838,2.95-13.909,6.002-20.055,6.002c-2.104,0-4.042-0.361-5.76-1.074c-7.514-3.113-11.323-12.741-15.007-22.055
		c-3.098-7.829-6.301-15.924-11.521-19.419c-4.387-2.938-11.153-3.341-17.813-3.341c-1.558,0-3.134,0.021-4.71,0.045
		c-1.586,0.021-3.172,0.045-4.739,0.045c-7.619,0-16.168-0.42-21.189-5.444c-5.688-5.687-5.542-15.979-5.401-25.936
		c0.12-8.474,0.244-17.232-3.296-22.521c-3.494-5.222-11.589-8.424-19.418-11.521c-9.313-3.687-18.94-7.494-22.056-15.01
		c-3.046-7.339,1.009-16.729,4.927-25.813c3.38-7.834,6.875-15.935,5.621-22.275c-1.195-6.044-7.381-12.044-13.363-17.847
		C7.491,246.752,0,239.485,0,231.208c0-8.275,7.491-15.544,14.735-22.569c5.979-5.804,12.167-11.804,13.363-17.848
		c1.254-6.342-2.24-14.44-5.62-22.273c-3.919-9.083-7.974-18.477-4.93-25.814c3.115-7.513,12.743-11.322,22.058-15.007
		c7.828-3.098,15.924-6.3,19.418-11.521c3.54-5.286,3.416-14.048,3.296-22.52c-0.141-9.954-0.286-20.247,5.402-25.935
		c5.021-5.023,13.572-5.444,21.193-5.444c1.565,0,3.15,0.021,4.735,0.045c1.574,0.021,3.146,0.045,4.704,0.045
		c6.663,0,13.434-0.405,17.817-3.342c5.224-3.495,8.426-11.59,11.521-19.419c3.685-9.313,7.493-18.94,15.007-22.059
		c1.718-0.712,3.655-1.07,5.759-1.07c6.146,0,13.216,3.051,20.055,6.001c6.705,2.894,13.639,5.885,19.443,5.885
		c0.995,0,1.948-0.088,2.832-0.263c6.044-1.196,12.043-7.384,17.847-13.363C215.666,7.49,222.932,0,231.208,0
		c8.277,0,15.544,7.49,22.57,14.734c5.803,5.98,11.803,12.168,17.849,13.363c0.886,0.175,1.836,0.263,2.831,0.263
		c5.809,0,12.739-2.99,19.443-5.883c6.838-2.951,13.909-6.002,20.054-6.002c2.104,0,4.042,0.359,5.762,1.072
		c7.514,3.115,11.321,12.744,15.008,22.058c3.097,7.829,6.3,15.924,11.521,19.42c4.387,2.936,11.152,3.34,17.813,3.34
		c1.557,0,3.133-0.021,4.709-0.045c1.587-0.022,3.174-0.045,4.741-0.045c7.617,0,16.17,0.421,21.19,5.445
		c5.688,5.687,5.541,15.979,5.399,25.934c-0.119,8.472-0.244,17.232,3.297,22.521c3.494,5.224,11.59,8.427,19.418,11.521
		c9.312,3.686,18.94,7.495,22.057,15.009c3.043,7.339-1.009,16.73-4.928,25.813c-3.38,7.832-6.874,15.933-5.621,22.271
		c1.195,6.045,7.381,12.045,13.361,17.85c7.243,7.024,14.731,14.293,14.731,22.567c0,8.276-7.488,15.543-14.732,22.569
		c-5.982,5.803-12.168,11.803-13.364,17.848c-1.253,6.341,2.243,14.441,5.623,22.274c3.92,9.083,7.973,18.476,4.93,25.813
		c-3.116,7.514-12.744,11.321-22.055,15.006c-7.829,3.101-15.925,6.304-19.42,11.523c-3.542,5.289-3.418,14.05-3.298,22.523
		c0.142,9.951,0.288,20.242-5.399,25.931c-5.021,5.022-13.574,5.444-21.194,5.444c-1.565,0-3.152-0.022-4.739-0.046
		c-1.576-0.021-3.151-0.046-4.709-0.046c-6.66,0-13.43,0.404-17.813,3.342c-5.22,3.493-8.423,11.59-11.52,19.418
		c-3.687,9.313-7.494,18.939-15.01,22.057c-1.718,0.713-3.653,1.074-5.76,1.074c-6.144,0.001-13.216-3.051-20.056-6.002
		c-6.704-2.894-13.638-5.884-19.441-5.884c-0.994,0-1.947,0.089-2.83,0.263c-6.045,1.196-12.046,7.382-17.849,13.364
		C246.752,454.927,239.486,462.416,231.208,462.416z M187.963,431.639c1.152,0,2.264,0.104,3.302,0.31
		c6.781,1.343,13.05,7.805,19.108,14.053c6.677,6.884,13.58,14.001,20.835,14.001c7.256,0,14.16-7.117,20.837-14.001
		c6.063-6.248,12.328-12.71,19.113-14.053c1.037-0.205,2.147-0.31,3.299-0.31c6.306,0,13.472,3.092,20.398,6.082
		c6.614,2.854,13.453,5.805,19.099,5.804c1.813,0,3.394-0.291,4.834-0.89c6.569-2.726,10.188-11.869,13.688-20.716
		c3.233-8.173,6.576-16.623,12.422-20.537c4.921-3.294,12.115-3.746,19.156-3.746c1.566,0,3.156,0.021,4.743,0.045
		c1.574,0.021,3.149,0.045,4.707,0.045c8.854,0,15.556-0.808,19.484-4.737c4.965-4.964,4.826-14.736,4.692-24.188
		c-0.126-8.845-0.256-17.987,3.705-23.901c3.914-5.847,12.365-9.191,20.539-12.426c8.843-3.499,17.986-7.118,20.713-13.688
		c2.648-6.395-1.196-15.31-4.917-23.932c-3.526-8.172-7.174-16.622-5.774-23.7c1.343-6.785,7.805-13.052,14.053-19.113
		c6.884-6.677,14.001-13.58,14.001-20.835s-7.116-14.159-13.999-20.836c-6.247-6.061-12.708-12.328-14.051-19.11
		c-1.397-7.077,2.246-15.527,5.772-23.698c3.72-8.622,7.563-17.537,4.915-23.933c-2.728-6.567-11.87-10.188-20.715-13.688
		c-8.173-3.234-16.623-6.578-20.537-12.425c-3.959-5.913-3.829-15.059-3.704-23.898c0.134-9.452,0.271-19.227-4.693-24.189
		c-3.93-3.934-10.631-4.737-19.481-4.737c-1.559,0-3.132,0.021-4.707,0.045c-1.588,0.021-3.175,0.045-4.743,0.045
		c-7.042,0-14.235-0.454-19.156-3.748c-5.847-3.915-9.188-12.366-12.424-20.539c-3.5-8.844-7.118-17.989-13.688-20.713
		c-1.441-0.599-3.022-0.89-4.834-0.89c-5.646,0-12.481,2.949-19.097,5.804c-6.93,2.989-14.095,6.081-20.4,6.081
		c-1.149,0-2.262-0.104-3.3-0.311c-6.785-1.342-13.053-7.804-19.113-14.052c-6.677-6.883-13.581-14-20.837-14
		c-7.255,0-14.158,7.117-20.835,14.001c-6.061,6.247-12.326,12.708-19.108,14.051c-1.038,0.204-2.148,0.311-3.303,0.311
		c-6.306,0-13.472-3.092-20.4-6.083c-6.613-2.854-13.451-5.804-19.098-5.804c-1.81,0-3.391,0.291-4.833,0.889
		c-6.567,2.725-10.188,11.87-13.687,20.714c-3.233,8.173-6.577,16.624-12.424,20.538c-4.922,3.295-12.119,3.749-19.163,3.749
		c-1.566,0-3.152-0.021-4.738-0.045c-1.573-0.022-3.146-0.044-4.701-0.044c-8.854,0-15.557,0.806-19.485,4.736
		c-4.969,4.966-4.828,14.738-4.694,24.19c0.125,8.842,0.254,17.984-3.704,23.897c-3.913,5.847-12.364,9.188-20.537,12.424
		c-8.845,3.499-17.989,7.117-20.714,13.687c-2.651,6.396,1.195,15.312,4.915,23.934c3.525,8.173,7.172,16.623,5.771,23.701
		c-1.344,6.781-7.805,13.051-14.052,19.109c-6.884,6.677-14.002,13.582-14.002,20.837s7.118,14.159,14.001,20.837
		c6.249,6.063,12.71,12.328,14.053,19.112c1.398,7.078-2.246,15.528-5.771,23.701c-3.72,8.621-7.566,17.535-4.915,23.93
		c2.725,6.569,11.87,10.188,20.714,13.688c8.173,3.231,16.624,6.576,20.537,12.424c3.958,5.913,3.829,15.056,3.704,23.896
		c-0.134,9.453-0.272,19.229,4.694,24.193c3.931,3.932,10.631,4.737,19.48,4.737c1.558-0.001,3.13-0.022,4.705-0.045
		c1.587-0.022,3.175-0.046,4.744-0.046c7.042,0,14.236,0.453,19.158,3.747c5.847,3.915,9.188,12.365,12.424,20.538
		c3.499,8.846,7.117,17.988,13.687,20.715c1.443,0.598,3.024,0.889,4.834,0.889c5.646,0,12.483-2.95,19.098-5.804
		C174.491,434.731,181.657,431.639,187.963,431.639z"/>
</g>
<g>
	<path fill="#FFFFFF" stroke="#231F20" d="M461.21,231.208c0,14.555-25.354,26.43-28.075,40.185
		c-2.803,14.173,16.026,34.818,10.622,47.858c-5.503,13.267-33.472,14.527-41.363,26.32c-7.958,11.882,1.528,38.197-8.547,48.271
		c-10.075,10.075-36.396,0.593-48.275,8.547c-11.791,7.895-13.052,35.86-26.316,41.363c-13.039,5.405-33.688-13.422-47.858-10.618
		c-13.756,2.721-25.63,28.073-40.187,28.073c-14.552,0-26.427-25.353-40.18-28.073c-14.175-2.804-34.82,16.024-47.86,10.618
		c-13.267-5.501-14.524-33.468-26.317-41.361c-11.886-7.955-38.199,1.527-48.272-8.546c-10.076-10.074-0.594-36.393-8.548-48.272
		c-7.893-11.793-35.861-13.053-41.362-26.32c-5.405-13.04,13.421-33.687,10.617-47.857C26.565,257.639,1.21,245.76,1.21,231.208
		c0-14.552,25.354-26.43,28.075-40.183c2.804-14.173-16.022-34.82-10.617-47.861c5.501-13.267,33.472-14.524,41.362-26.317
		c7.954-11.885-1.528-38.197,8.548-48.271c10.074-10.075,36.389-0.591,48.272-8.547c11.793-7.896,13.053-35.861,26.317-41.363
		c13.04-5.406,33.688,13.422,47.86,10.619c13.753-2.722,25.628-28.074,40.18-28.074c14.557,0,26.431,25.354,40.187,28.074
		c14.173,2.803,34.819-16.023,47.859-10.617c13.268,5.502,14.524,33.469,26.318,41.364c11.882,7.954,38.2-1.53,48.272,8.545
		c10.075,10.075,0.592,36.391,8.547,48.272c7.894,11.793,35.86,13.054,41.363,26.319c5.404,13.039-13.42,33.688-10.618,47.857
		C435.856,204.779,461.21,216.655,461.21,231.208z"/>
</g>
<g>
	<path fill="#FFFFFF" stroke="#231F20" d="M231.208,462.416c-8.274,0-15.543-7.489-22.567-14.733
		c-5.804-5.981-11.803-12.167-17.847-13.363c-0.884-0.174-1.836-0.263-2.831-0.263c-5.807,0-12.738,2.991-19.443,5.885
		c-6.838,2.95-13.909,6.002-20.055,6.002c-2.104,0-4.042-0.361-5.76-1.074c-7.514-3.113-11.323-12.741-15.007-22.055
		c-3.098-7.829-6.301-15.924-11.521-19.419c-4.387-2.938-11.153-3.341-17.813-3.341c-1.558,0-3.134,0.021-4.71,0.045
		c-1.586,0.021-3.172,0.045-4.739,0.045c-7.619,0-16.168-0.42-21.189-5.444c-5.688-5.687-5.542-15.979-5.401-25.936
		c0.12-8.474,0.244-17.232-3.296-22.521c-3.494-5.222-11.589-8.424-19.418-11.521c-9.313-3.687-18.94-7.494-22.056-15.01
		c-3.046-7.339,1.009-16.729,4.927-25.813c3.38-7.834,6.875-15.935,5.621-22.275c-1.195-6.044-7.381-12.044-13.363-17.847
		C7.491,246.752,0,239.485,0,231.208c0-8.275,7.491-15.544,14.735-22.569c5.979-5.804,12.167-11.804,13.363-17.848
		c1.254-6.342-2.24-14.44-5.62-22.273c-3.919-9.083-7.974-18.477-4.93-25.814c3.115-7.513,12.743-11.322,22.058-15.007
		c7.828-3.098,15.924-6.3,19.418-11.521c3.54-5.286,3.416-14.048,3.296-22.52c-0.141-9.954-0.286-20.247,5.402-25.935
		c5.021-5.023,13.572-5.444,21.193-5.444c1.565,0,3.15,0.021,4.735,0.045c1.574,0.021,3.146,0.045,4.704,0.045
		c6.663,0,13.434-0.405,17.817-3.342c5.224-3.495,8.426-11.59,11.521-19.419c3.685-9.313,7.493-18.94,15.007-22.059
		c1.718-0.712,3.655-1.07,5.759-1.07c6.146,0,13.216,3.051,20.055,6.001c6.705,2.894,13.639,5.885,19.443,5.885
		c0.995,0,1.948-0.088,2.832-0.263c6.044-1.196,12.043-7.384,17.847-13.363C215.666,7.49,222.932,0,231.208,0
		c8.277,0,15.544,7.49,22.57,14.734c5.803,5.98,11.803,12.168,17.849,13.363c0.886,0.175,1.836,0.263,2.831,0.263
		c5.809,0,12.739-2.99,19.443-5.883c6.838-2.951,13.909-6.002,20.054-6.002c2.104,0,4.042,0.359,5.762,1.072
		c7.514,3.115,11.321,12.744,15.008,22.058c3.097,7.829,6.3,15.924,11.521,19.42c4.387,2.936,11.152,3.34,17.813,3.34
		c1.557,0,3.133-0.021,4.709-0.045c1.587-0.022,3.174-0.045,4.741-0.045c7.617,0,16.17,0.421,21.19,5.445
		c5.688,5.687,5.541,15.979,5.399,25.934c-0.119,8.472-0.244,17.232,3.297,22.521c3.494,5.224,11.59,8.427,19.418,11.521
		c9.312,3.686,18.94,7.495,22.057,15.009c3.043,7.339-1.009,16.73-4.928,25.813c-3.38,7.832-6.874,15.933-5.621,22.271
		c1.195,6.045,7.381,12.045,13.361,17.85c7.243,7.024,14.731,14.293,14.731,22.567c0,8.276-7.488,15.543-14.732,22.569
		c-5.982,5.803-12.168,11.803-13.364,17.848c-1.253,6.341,2.243,14.441,5.623,22.274c3.92,9.083,7.973,18.476,4.93,25.813
		c-3.116,7.514-12.744,11.321-22.055,15.006c-7.829,3.101-15.925,6.304-19.42,11.523c-3.542,5.289-3.418,14.05-3.298,22.523
		c0.142,9.951,0.288,20.242-5.399,25.931c-5.021,5.022-13.574,5.444-21.194,5.444c-1.565,0-3.152-0.022-4.739-0.046
		c-1.576-0.021-3.151-0.046-4.709-0.046c-6.66,0-13.43,0.404-17.813,3.342c-5.22,3.493-8.423,11.59-11.52,19.418
		c-3.687,9.313-7.494,18.939-15.01,22.057c-1.718,0.713-3.653,1.074-5.76,1.074c-6.144,0.001-13.216-3.051-20.056-6.002
		c-6.704-2.894-13.638-5.884-19.441-5.884c-0.994,0-1.947,0.089-2.83,0.263c-6.045,1.196-12.046,7.382-17.849,13.364
		C246.752,454.927,239.486,462.416,231.208,462.416z M187.963,431.639c1.152,0,2.264,0.104,3.302,0.31
		c6.781,1.343,13.05,7.805,19.108,14.053c6.677,6.884,13.58,14.001,20.835,14.001c7.256,0,14.16-7.117,20.837-14.001
		c6.063-6.248,12.328-12.71,19.113-14.053c1.037-0.205,2.147-0.31,3.299-0.31c6.306,0,13.472,3.092,20.398,6.082
		c6.614,2.854,13.453,5.805,19.099,5.804c1.813,0,3.394-0.291,4.834-0.89c6.569-2.726,10.188-11.869,13.688-20.716
		c3.233-8.173,6.576-16.623,12.422-20.537c4.921-3.294,12.115-3.746,19.156-3.746c1.566,0,3.156,0.021,4.743,0.045
		c1.574,0.021,3.149,0.045,4.707,0.045c8.854,0,15.556-0.808,19.484-4.737c4.965-4.964,4.826-14.736,4.692-24.188
		c-0.126-8.845-0.256-17.987,3.705-23.901c3.914-5.847,12.365-9.191,20.539-12.426c8.843-3.499,17.986-7.118,20.713-13.688
		c2.648-6.395-1.196-15.31-4.917-23.932c-3.526-8.172-7.174-16.622-5.774-23.7c1.343-6.785,7.805-13.052,14.053-19.113
		c6.884-6.677,14.001-13.58,14.001-20.835s-7.116-14.159-13.999-20.836c-6.247-6.061-12.708-12.328-14.051-19.11
		c-1.397-7.077,2.246-15.527,5.772-23.698c3.72-8.622,7.563-17.537,4.915-23.933c-2.728-6.567-11.87-10.188-20.715-13.688
		c-8.173-3.234-16.623-6.578-20.537-12.425c-3.959-5.913-3.829-15.059-3.704-23.898c0.134-9.452,0.271-19.227-4.693-24.189
		c-3.93-3.934-10.631-4.737-19.481-4.737c-1.559,0-3.132,0.021-4.707,0.045c-1.588,0.021-3.175,0.045-4.743,0.045
		c-7.042,0-14.235-0.454-19.156-3.748c-5.847-3.915-9.188-12.366-12.424-20.539c-3.5-8.844-7.118-17.989-13.688-20.713
		c-1.441-0.599-3.022-0.89-4.834-0.89c-5.646,0-12.481,2.949-19.097,5.804c-6.93,2.989-14.095,6.081-20.4,6.081
		c-1.149,0-2.262-0.104-3.3-0.311c-6.785-1.342-13.053-7.804-19.113-14.052c-6.677-6.883-13.581-14-20.837-14
		c-7.255,0-14.158,7.117-20.835,14.001c-6.061,6.247-12.326,12.708-19.108,14.051c-1.038,0.204-2.148,0.311-3.303,0.311
		c-6.306,0-13.472-3.092-20.4-6.083c-6.613-2.854-13.451-5.804-19.098-5.804c-1.81,0-3.391,0.291-4.833,0.889
		c-6.567,2.725-10.188,11.87-13.687,20.714c-3.233,8.173-6.577,16.624-12.424,20.538c-4.922,3.295-12.119,3.749-19.163,3.749
		c-1.566,0-3.152-0.021-4.738-0.045c-1.573-0.022-3.146-0.044-4.701-0.044c-8.854,0-15.557,0.806-19.485,4.736
		c-4.969,4.966-4.828,14.738-4.694,24.19c0.125,8.842,0.254,17.984-3.704,23.897c-3.913,5.847-12.364,9.188-20.537,12.424
		c-8.845,3.499-17.989,7.117-20.714,13.687c-2.651,6.396,1.195,15.312,4.915,23.934c3.525,8.173,7.172,16.623,5.771,23.701
		c-1.344,6.781-7.805,13.051-14.052,19.109c-6.884,6.677-14.002,13.582-14.002,20.837s7.118,14.159,14.001,20.837
		c6.249,6.063,12.71,12.328,14.053,19.112c1.398,7.078-2.246,15.528-5.771,23.701c-3.72,8.621-7.566,17.535-4.915,23.93
		c2.725,6.569,11.87,10.188,20.714,13.688c8.173,3.231,16.624,6.576,20.537,12.424c3.958,5.913,3.829,15.056,3.704,23.896
		c-0.134,9.453-0.272,19.229,4.694,24.193c3.931,3.932,10.631,4.737,19.48,4.737c1.558-0.001,3.13-0.022,4.705-0.045
		c1.587-0.022,3.175-0.046,4.744-0.046c7.042,0,14.236,0.453,19.158,3.747c5.847,3.915,9.188,12.365,12.424,20.538
		c3.499,8.846,7.117,17.988,13.687,20.715c1.443,0.598,3.024,0.889,4.834,0.889c5.646,0,12.483-2.95,19.098-5.804
		C174.491,434.731,181.657,431.639,187.963,431.639z"/>
</g>
<g>
	<path fill="#FFFFFF" stroke="#231F20" d="M461.21,231.208c0,14.555-25.354,26.43-28.075,40.185
		c-2.803,14.173,16.026,34.818,10.622,47.858c-5.503,13.267-33.472,14.527-41.363,26.32c-7.958,11.882,1.528,38.197-8.547,48.271
		c-10.075,10.075-36.396,0.593-48.275,8.547c-11.791,7.895-13.052,35.86-26.316,41.363c-13.039,5.405-33.688-13.422-47.858-10.618
		c-13.756,2.721-25.63,28.073-40.187,28.073c-14.552,0-26.427-25.353-40.18-28.073c-14.175-2.804-34.82,16.024-47.86,10.618
		c-13.267-5.501-14.524-33.468-26.317-41.361c-11.886-7.955-38.199,1.527-48.272-8.546c-10.076-10.074-0.594-36.393-8.548-48.272
		c-7.893-11.793-35.861-13.053-41.362-26.32c-5.405-13.04,13.421-33.687,10.617-47.857C26.565,257.639,1.21,245.76,1.21,231.208
		c0-14.552,25.354-26.43,28.075-40.183c2.804-14.173-16.022-34.82-10.617-47.861c5.501-13.267,33.472-14.524,41.362-26.317
		c7.954-11.885-1.528-38.197,8.548-48.271c10.074-10.075,36.389-0.591,48.272-8.547c11.793-7.896,13.053-35.861,26.317-41.363
		c13.04-5.406,33.688,13.422,47.86,10.619c13.753-2.722,25.628-28.074,40.18-28.074c14.557,0,26.431,25.354,40.187,28.074
		c14.173,2.803,34.819-16.023,47.859-10.617c13.268,5.502,14.524,33.469,26.318,41.364c11.882,7.954,38.2-1.53,48.272,8.545
		c10.075,10.075,0.592,36.391,8.547,48.272c7.894,11.793,35.86,13.054,41.363,26.319c5.404,13.039-13.42,33.688-10.618,47.857
		C435.856,204.779,461.21,216.655,461.21,231.208z"/>
</g>
<g>
	<path fill="#231F20" stroke="#231F20" d="M231.208,462.208c-8.188,0-15.424-7.459-22.42-14.672
		c-5.824-6.005-11.847-12.213-17.954-13.422c-0.896-0.178-1.86-0.268-2.871-0.268c-5.85,0-12.803,3-19.525,5.9
		c-6.818,2.941-13.87,5.984-19.973,5.984c-2.074,0-3.985-0.354-5.68-1.058c-7.433-3.082-11.226-12.669-14.894-21.94
		c-3.109-7.857-6.324-15.983-11.602-19.515c-4.432-2.969-11.234-3.378-17.93-3.378c-1.56,0-3.136,0.022-4.713,0.047
		c-1.585,0.021-3.17,0.045-4.736,0.045c-7.577,0-16.077-0.415-21.044-5.385c-5.626-5.625-5.479-15.873-5.341-25.784
		c0.12-8.505,0.245-17.299-3.331-22.64c-3.53-5.273-11.656-8.489-19.515-11.6c-9.271-3.668-18.858-7.462-21.94-14.896
		c-3.009-7.257,1.025-16.605,4.927-25.648c3.395-7.862,6.9-15.993,5.633-22.397c-1.205-6.105-7.417-12.131-13.422-17.956
		c-7.213-6.997-14.672-14.23-14.672-22.422c0-8.188,7.459-15.425,14.672-22.422c6.005-5.825,12.214-11.848,13.422-17.955
		c1.27-6.404-2.238-14.535-5.633-22.396c-3.899-9.043-7.937-18.396-4.927-25.651c3.082-7.433,12.669-11.226,21.94-14.894
		c7.856-3.109,15.982-6.324,19.515-11.602c3.576-5.342,3.451-14.135,3.331-22.638c-0.14-9.911-0.285-20.159,5.341-25.784
		c4.968-4.968,13.47-5.384,21.049-5.384c1.564,0,3.148,0.021,4.732,0.045c1.575,0.021,3.148,0.044,4.707,0.044
		c6.693,0,13.503-0.408,17.935-3.376c5.275-3.531,8.49-11.657,11.602-19.517c3.668-9.271,7.461-18.857,14.894-21.939
		c1.692-0.701,3.604-1.058,5.679-1.058c6.103,0,13.151,3.043,19.972,5.983c6.725,2.901,13.679,5.901,19.526,5.901
		c1.011,0,1.978-0.09,2.872-0.27c6.107-1.208,12.13-7.417,17.954-13.422C215.785,7.658,223.019,0.2,231.208,0.2
		c8.189,0,15.425,7.458,22.421,14.671c5.825,6.005,11.851,12.215,17.958,13.422c0.896,0.18,1.863,0.27,2.871,0.27
		c5.852,0,12.804-3,19.525-5.9c6.819-2.94,13.87-5.982,19.972-5.982c2.076,0,3.987,0.354,5.682,1.058
		c7.433,3.082,11.227,12.67,14.895,21.941c3.109,7.855,6.324,15.981,11.602,19.516c4.431,2.966,11.232,3.375,17.928,3.375
		c1.558,0,3.135-0.022,4.712-0.045c1.586-0.022,3.172-0.045,4.738-0.045c7.578,0,16.079,0.416,21.045,5.384
		c5.625,5.625,5.479,15.873,5.34,25.784c-0.121,8.504-0.245,17.297,3.331,22.639c3.531,5.275,11.656,8.49,19.515,11.602
		c9.271,3.669,18.858,7.463,21.941,14.896c3.009,7.257-1.025,16.607-4.928,25.65c-3.394,7.86-6.899,15.991-5.635,22.396
		c1.207,6.108,7.416,12.132,13.421,17.956c7.213,6.997,14.671,14.232,14.671,22.421c0,8.189-7.458,15.424-14.673,22.42
		c-6.006,5.825-12.215,11.85-13.423,17.957c-1.266,6.404,2.242,14.534,5.638,22.396c3.9,9.044,7.938,18.395,4.929,25.65
		c-3.083,7.433-12.669,11.227-21.939,14.895c-7.857,3.109-15.983,6.326-19.517,11.602c-3.578,5.344-3.453,14.139-3.333,22.644
		c0.142,9.909,0.287,20.154-5.338,25.778c-4.968,4.97-13.469,5.386-21.048,5.386c-1.566,0-3.152-0.022-4.738-0.045
		c-1.577-0.022-3.153-0.047-4.712-0.047c-6.693,0-13.497,0.409-17.928,3.375c-5.274,3.531-8.489,11.656-11.6,19.516
		c-3.668,9.272-7.462,18.86-14.895,21.942c-1.691,0.699-3.604,1.058-5.682,1.058c-6.102,0.001-13.151-3.042-19.973-5.984
		c-6.726-2.899-13.676-5.899-19.524-5.899c-1.008,0-1.974,0.09-2.87,0.268c-6.107,1.208-12.133,7.417-17.957,13.422
		C246.633,454.749,239.398,462.208,231.208,462.208z M187.963,431.847c1.141,0,2.235,0.103,3.262,0.305
		c6.72,1.331,12.963,7.77,19.001,13.992c6.707,6.915,13.642,14.063,20.982,14.063c7.345,0,14.279-7.147,20.986-14.063
		c6.038-6.225,12.282-12.662,19.004-13.992c1.024-0.202,2.121-0.305,3.259-0.305c6.264,0,13.406,3.083,20.316,6.063
		c6.634,2.862,13.492,5.822,19.181,5.821c1.84,0,3.445-0.296,4.914-0.905c6.65-2.758,10.285-11.943,13.803-20.83
		c3.222-8.143,6.553-16.563,12.344-20.438c4.875-3.265,12.032-3.713,19.041-3.713c1.565,0,3.153,0.021,4.74,0.045
		c1.574,0.021,3.151,0.045,4.71,0.045c8.903,0,15.649-0.815,19.634-4.798c5.024-5.026,4.888-14.846,4.753-24.34
		c-0.125-8.812-0.255-17.923,3.67-23.781c3.878-5.793,12.299-9.125,20.442-12.35c8.884-3.516,18.068-7.148,20.826-13.799
		c2.687-6.477-1.18-15.433-4.918-24.094c-3.514-8.146-7.146-16.563-5.762-23.578c1.33-6.721,7.77-12.965,13.993-19.004
		c6.914-6.707,14.063-13.644,14.063-20.984s-7.146-14.276-14.063-20.983c-6.225-6.038-12.661-12.282-13.99-19.003
		c-1.386-7.016,2.247-15.436,5.76-23.576c3.737-8.661,7.603-17.617,4.916-24.093c-2.759-6.65-11.943-10.285-20.828-13.803
		c-8.145-3.223-16.563-6.554-20.44-12.347c-3.923-5.859-3.794-14.971-3.669-23.78c0.135-9.496,0.271-19.313-4.754-24.342
		c-3.981-3.982-10.729-4.798-19.631-4.798c-1.56,0-3.136,0.021-4.71,0.045c-1.587,0.021-3.175,0.045-4.74,0.045
		c-7.009,0-14.166-0.45-19.041-3.713c-5.793-3.879-9.124-12.299-12.347-20.442c-3.517-8.885-7.149-18.069-13.802-20.829
		c-1.469-0.607-3.074-0.903-4.914-0.903c-5.688,0-12.547,2.959-19.179,5.818c-6.91,2.981-14.056,6.064-20.318,6.064
		c-1.138,0-2.232-0.104-3.26-0.305c-6.722-1.329-12.966-7.769-19.005-13.992c-6.707-6.914-13.644-14.063-20.985-14.063
		s-14.275,7.149-20.982,14.063c-6.038,6.226-12.281,12.662-19.001,13.992c-1.025,0.2-2.122,0.305-3.263,0.305
		c-6.263,0-13.407-3.083-20.318-6.065c-6.633-2.859-13.49-5.819-19.18-5.819c-1.837,0-3.442,0.296-4.913,0.903
		c-6.647,2.76-10.282,11.944-13.8,20.829c-3.222,8.145-6.553,16.563-12.346,20.441c-4.876,3.265-12.036,3.714-19.048,3.714
		c-1.565,0-3.15-0.021-4.735-0.044c-1.574-0.022-3.146-0.045-4.704-0.045c-8.903,0-15.651,0.813-19.635,4.798
		c-5.028,5.027-4.89,14.846-4.755,24.342c0.124,8.812,0.253,17.919-3.669,23.779c-3.877,5.793-12.298,9.124-20.441,12.346
		c-8.884,3.518-18.069,7.15-20.828,13.8c-2.686,6.479,1.181,15.435,4.915,24.096c3.516,8.144,7.146,16.563,5.762,23.579
		c-1.33,6.72-7.769,12.964-13.992,19.002c-6.914,6.707-14.064,13.644-14.064,20.984s7.15,14.278,14.064,20.986
		c6.226,6.039,12.663,12.283,13.992,19.003c1.387,7.015-2.246,15.436-5.762,23.579c-3.734,8.66-7.601,17.616-4.915,24.092
		c2.76,6.65,11.944,10.285,20.829,13.801c8.145,3.224,16.563,6.555,20.44,12.348c3.922,5.857,3.793,14.97,3.669,23.777
		c-0.135,9.496-0.273,19.316,4.755,24.346c3.981,3.979,10.729,4.797,19.63,4.797c1.559,0,3.132-0.022,4.708-0.045
		c1.586-0.022,3.173-0.045,4.741-0.045c7.009,0,14.167,0.448,19.043,3.714c5.793,3.878,9.124,12.299,12.346,20.439
		c3.517,8.886,7.149,18.07,13.8,20.828c1.471,0.609,3.076,0.905,4.914,0.905c5.688,0,12.548-2.959,19.181-5.821
		C174.554,434.931,181.7,431.847,187.963,431.847z"/>
</g>
</svg>
