<?xml version="1.0" encoding="utf-8"?>
<!-- Generator: Adobe Illustrator 13.0.0, SVG Export Plug-In . SVG Version: 6.00 Build 14948)  -->
<svg version="1.2" baseProfile="tiny" id="Layer_1" xmlns="http://www.w3.org/2000/svg" xmlns:xlink="http://www.w3.org/1999/xlink"
	 x="0px" y="0px" width="472.896px" height="472.896px" viewBox="0 0 472.896 472.896" xml:space="preserve">
<path fill="#FFFFFF" stroke="#231F20" stroke-width="2" stroke-miterlimit="10" d="M471.002,236.447
	c-42.646,26.497-48.017,51.741-18.432,91.3c-49.008,6.358-63.059,27.035-50.267,74.554c-47.519-12.79-68.198,1.263-74.554,50.269
	c-39.562-29.583-64.803-24.213-91.3,18.433c-26.499-42.646-51.743-48.016-91.3-18.433c-6.361-49.006-27.037-63.059-74.556-50.269
	c12.79-47.519-1.262-68.195-50.269-74.554c29.584-39.559,24.217-64.803-18.432-91.3c42.648-26.498,48.016-51.74,18.432-91.297
	c49.007-6.36,63.059-27.039,50.269-74.557c47.519,12.791,68.194-1.26,74.556-50.267c39.557,29.584,64.801,24.214,91.3-18.431
	c26.497,42.646,51.738,48.016,91.3,18.431c6.355,49.007,27.035,63.058,74.554,50.267c-12.792,47.519,1.259,68.197,50.267,74.557
	C422.985,184.708,428.355,209.949,471.002,236.447z"/>
</svg>
