<?xml version="1.0" encoding="utf-8"?>
<!-- Generator: Adobe Illustrator 13.0.0, SVG Export Plug-In . SVG Version: 6.00 Build 14948)  -->
<svg version="1.2" baseProfile="tiny" id="Layer_1" xmlns="http://www.w3.org/2000/svg" xmlns:xlink="http://www.w3.org/1999/xlink"
	 x="0px" y="0px" width="472.896px" height="472.899px" viewBox="0 0 472.896 472.899" xml:space="preserve">
<g>
	<g>
		<path fill="#FFFFFF" d="M471.002,236.449c-42.646,26.497-48.016,51.741-18.432,91.3c-49.008,6.358-63.059,27.035-50.268,74.554
			c-47.518-12.79-68.195,1.263-74.553,50.269c-39.563-29.584-64.803-24.214-91.301,18.433
			c-26.496-42.646-51.74-48.017-91.299-18.433c-6.361-49.006-27.037-63.059-74.557-50.269c12.791-47.519-1.26-68.195-50.266-74.554
			c29.582-39.559,24.213-64.803-18.434-91.3c42.646-26.498,48.016-51.74,18.434-91.299c49.006-6.358,63.057-27.037,50.266-74.556
			c47.52,12.791,68.195-1.261,74.557-50.267c39.559,29.584,64.803,24.214,91.299-18.433c26.498,42.646,51.738,48.017,91.301,18.433
			c6.357,49.006,27.035,63.058,74.553,50.267c-12.791,47.519,1.26,68.197,50.268,74.556
			C422.986,184.708,428.355,209.951,471.002,236.449z"/>
		<path fill="#FFFFFF" stroke="#231F20" stroke-width="2" stroke-miterlimit="10" d="M471.002,236.449
			c-42.646,26.497-48.016,51.741-18.432,91.3c-49.008,6.358-63.059,27.035-50.268,74.554c-47.518-12.79-68.195,1.263-74.553,50.269
			c-39.563-29.584-64.803-24.214-91.301,18.433c-26.496-42.646-51.74-48.017-91.299-18.433
			c-6.361-49.006-27.037-63.059-74.557-50.269c12.791-47.519-1.26-68.195-50.266-74.554c29.582-39.559,24.213-64.803-18.434-91.3
			c42.646-26.498,48.016-51.74,18.434-91.299c49.006-6.358,63.057-27.037,50.266-74.556c47.52,12.791,68.195-1.261,74.557-50.267
			c39.559,29.584,64.803,24.214,91.299-18.433c26.498,42.646,51.738,48.017,91.301,18.433c6.357,49.006,27.035,63.058,74.553,50.267
			c-12.791,47.519,1.26,68.197,50.268,74.556C422.986,184.708,428.355,209.951,471.002,236.449z"/>
	</g>
	<g>
		<g>
			<path fill="#EB2227" d="M24.596,127.95c14.195-2.232,32.475-12.975,39.076-5.068c6.277,7.752,6.393,28.463,7.762,41.953
				c5.516-17.434,12.746-32.672,21.203-36.228c10.846-4.411,19.699,5.099,32.021,16.91c-5.994-15.085-13.613-32.019-10.416-40.455
				c3.033-8.914,28.209-14.108,40.494-15.458c-12.141-3.364-32.133-7.124-37.199-14.592c-4.33-6.394-6.928-23.339,1.275-40.647
				C98.828,65.197,93.586,68.32,69.27,32.037c2.699,26.845,2.385,32.53-3.992,39.056c-8.121,8.315-31.898-3.474-44.357-4.898
				c10.713,10.15,30.93,24.675,30.596,33.311C51.238,106.588,33.336,121.469,24.596,127.95z"/>
			<g>
				<path fill="#231F20" d="M24.434,128.678c6.27-1.117,12.268-3.166,18.326-5.091c6.254-1.988,15.75-5.678,20.473,0.786
					c3.67,5.02,4.273,12.67,5.02,18.612c0.928,7.364,1.217,14.799,1.926,22.185c0.094,0.977,2.305,0.165,2.514-0.484
					c3.584-11.11,7.605-23.181,15.621-31.97c11.645-12.768,26.965,5.4,35.182,13.301c0.508,0.489,2.781,0.071,2.42-0.836
					c-3.008-7.528-6.148-15.006-8.656-22.722c-1.984-6.109-4.809-15.097,0.203-20.432c4.295-4.571,11.979-6.435,17.781-8.044
					c6.318-1.75,12.822-2.895,19.332-3.65c0.605-0.07,2.254-1.074,0.926-1.437c-11.449-3.111-26.051-4.661-35.309-12.663
					c-3.98-3.441-4.824-10.163-5.318-15.044c-0.926-9.166,1.395-18.475,5.113-26.781c0.537-1.198-1.918-0.749-2.348-0.089
					c-4.33,6.659-13.217,24.895-23.244,23.127c-4.279-0.752-7.787-4.788-10.551-7.816c-5.047-5.532-9.234-11.901-13.41-18.095
					c-0.48-0.712-2.506-0.034-2.418,0.837c1.086,10.93,5.137,27.219-2.275,36.845c-5.289,6.868-15.684,3.567-22.736,1.735
					c-7.092-1.841-14.039-4.472-21.322-5.466c-0.381-0.052-2.748,0.44-1.926,1.208c5.209,4.864,10.723,9.389,16.053,14.119
					c5.148,4.573,11.188,9.682,13.93,16.169c2.498,5.917-5.314,12.556-8.906,16.137c-5.256,5.246-11.084,9.982-17.023,14.428
					c-1.363,1.019,0.764,1.411,1.574,0.805c6.113-4.574,11.986-9.46,17.479-14.77c3.811-3.685,9.217-8.655,9.912-14.227
					c0.674-5.417-6.035-11.298-9.328-14.591c-6.748-6.754-14.389-12.56-21.363-19.071c-0.641,0.402-1.283,0.805-1.924,1.208
					c9.492,1.295,18.496,5.076,27.871,6.998c5.227,1.073,13,2.111,17.428-1.834c10.82-9.64,6.309-27.896,5.068-40.366
					c-0.805,0.279-1.613,0.559-2.418,0.837c5.203,7.718,10.453,15.764,17.365,22.086c2.746,2.514,6.535,4.892,10.432,4.46
					c11.314-1.255,18.713-16.42,24.082-24.674c-0.783-0.029-1.564-0.06-2.348-0.089c-5.428,12.127-8.779,29.087-1.264,41.192
					c2.727,4.396,9.248,6.638,13.814,8.192c7.803,2.657,15.84,4.447,23.783,6.607c0.311-0.479,0.617-0.958,0.926-1.437
					c-12.801,1.487-28.164,3.82-38.621,11.933c-4.682,3.631-4.346,9.602-3.459,14.891c1.746,10.41,6.697,20.428,10.584,30.155
					c0.807-0.279,1.613-0.559,2.418-0.837c-9.041-8.696-19.732-21.796-33.689-16.96c-4.865,1.685-8.363,6.895-10.963,10.989
					c-5.012,7.889-8.143,17.104-10.992,25.937c0.838-0.161,1.676-0.324,2.514-0.485c-0.771-8.02-1.156-16.068-2.162-24.064
					c-0.795-6.317-1.857-14.155-6.539-18.914c-3.123-3.173-9.178-2.409-13.012-1.575c-8.879,1.931-17.256,5.68-26.219,7.276
					C23.545,127.436,22.707,128.985,24.434,128.678z"/>
			</g>
		</g>
		<g>
			<g>
				<path fill="#D4EEF7" d="M90.986,141.226c-7.021-12.172-18.002-52.46-21.717-65.854l18.598-6.776
					c3.982,0.779,29.43,33.554,36.494,38.657c-5.584-16.311-11.104-26.99-17.152-44.022c0,0,9.566-2.653,15.688-4.35
					c0,0,12.85,41.474,19.543,62.213c-5.297,1.875-20.605,7.597-20.605,7.597c-10.273-10.558-22.941-26.706-34.279-40.857
					c6.516,21.744,11.945,35.489,15.779,47.989C100.404,137.404,94.701,140.518,90.986,141.226z"/>
				<g>
					<path fill="#231F20" d="M92.145,140.707c-7.006-12.564-10.621-27.466-14.676-41.167c-1.93-6.521-3.77-13.068-5.59-19.622
						c-0.287-1.035-0.574-2.072-0.861-3.11c-0.373-1.34-1.656-0.66-0.357-1.133c2.609-0.951,5.217-1.901,7.824-2.852
						c2.551-0.93,5.102-1.858,7.65-2.788c2.686-0.979,0.934-0.956,2.473,0.298c4.24,3.465,7.783,8.006,11.375,12.105
						c7.402,8.439,14.404,18.625,23.393,25.476c0.545,0.415,2.557-0.089,2.24-0.996c-5.176-14.887-11.814-29.196-17.15-44.022
						c-0.354,0.356-0.707,0.712-1.061,1.068c5.23-1.451,10.459-2.9,15.689-4.349c-0.484-0.133-0.969-0.265-1.453-0.396
						c5.746,18.543,11.523,37.076,17.414,55.573c0.146,0.46,1.938,6.016,1.945,6.013c-2.592,0.923-5.168,1.882-7.748,2.834
						c-2.721,1.003-5.441,2.014-8.158,3.025c-0.914,0.34-1.824,0.681-2.736,1.021c-1.813,0.677,0.215,0.052-0.66-0.86
						c-11.879-12.352-22.289-26.149-32.982-39.51c-0.525-0.655-2.709-0.118-2.414,0.855c3.205,10.625,6.713,21.146,10.332,31.636
						c1.393,4.036,2.779,8.074,4.109,12.132c0.727,2.221,1.768,3.439-0.574,4.681c-2.998,1.59-6.076,3.047-9.377,3.876
						c-1.539,0.386-1.137,1.849,0.391,1.465c4.512-1.132,8.604-3.325,12.676-5.519c0.314-0.169,0.873-0.499,0.732-0.953
						c-4.99-16.087-10.912-31.859-15.779-47.99c-0.805,0.286-1.609,0.57-2.414,0.856c11.098,13.863,21.955,28.042,34.279,40.857
						c0.436,0.451,1.168,0.288,1.682,0.098c6.857-2.563,13.711-5.138,20.604-7.598c0.328-0.116,0.867-0.535,0.732-0.953
						c-6.666-20.688-13.107-41.45-19.541-62.212c-0.172-0.559-1.018-0.517-1.453-0.396c-5.227,1.45-10.457,2.9-15.686,4.35
						c-0.379,0.105-1.26,0.517-1.061,1.069c5.336,14.826,11.977,29.136,17.152,44.022c0.748-0.333,1.494-0.664,2.24-0.997
						c-5.846-4.455-10.561-10.826-15.35-16.334c-5.49-6.318-10.855-12.789-16.729-18.762c-2.518-2.56-3.967-4.23-7.416-2.975
						c-5.701,2.078-11.402,4.156-17.104,6.233c-0.342,0.124-0.852,0.527-0.732,0.953c3.166,11.435,6.373,22.856,9.867,34.196
						c3.295,10.697,6.465,22.011,11.947,31.84C90.293,142.579,92.721,141.739,92.145,140.707z"/>
				</g>
			</g>
			<g>
				<g>
					<path fill="#D4EEF7" d="M170.564,51.499c-41.547,8.461-29.959,59.013-10.469,64.096c26.896,7.015,43.836-8.274,43.85-33.798
						C203.949,65.443,187.664,48.017,170.564,51.499z M189.516,90.927c-2.582,7.938-15.35,15.091-22.9,10.866
						c-8.891-4.759-10.031-21.595-5.217-27.443C171.605,57.973,194.957,73.167,189.516,90.927z"/>
					<g>
						<path fill="#231F20" d="M170.412,50.927c-16.711,3.684-28.639,15.327-29.217,32.926c-0.381,11.589,5.223,29.24,18.121,32.384
							c19.088,4.651,38.027-1.481,44.16-21.507c6.461-21.099-8.43-47.814-32.727-43.873c-1.15,0.187-2.115,1.565-0.371,1.282
							c11.393-1.849,21.025,4.688,27.225,13.735c5.943,8.675,5.965,19.375,3.371,29.199c-4.838,18.298-26.744,27.684-43.602,18.372
							c-9.639-5.321-13.434-18.781-13.676-28.969c-0.398-16.816,11.049-28.884,27.02-32.407
							C172.24,51.734,171.91,50.595,170.412,50.927z"/>
						<path fill="#231F20" d="M188.264,91.1c-3.527,9.112-16.59,15.515-24.037,7.246c-4.715-5.232-5.303-14.356-3.369-20.773
							c2.957-9.815,13.639-11.597,21.162-5.943C188.072,76.175,190.164,83.992,188.264,91.1c-0.223,0.834,2.291,0.452,2.504-0.346
							c5.354-20.029-22.477-34.092-32.047-13.805c-4.076,8.645-0.488,23.206,9.174,26.329c8.684,2.808,19.822-4.65,22.873-12.524
							C191.055,90.009,188.566,90.317,188.264,91.1z"/>
					</g>
				</g>
			</g>
			<g>
				<g>
					<path fill="#D4EEF7" d="M236.42,92.713c-0.895-3.239-3.332-14.227-4.563-13.858c-4.193,1.256-9.635,2.657-12.771,3.523
						c0.111,3.458,3.127,13.619,4.207,13.792C224.33,96.343,233.383,94.33,236.42,92.713z"/>
					<g>
						<path fill="#231F20" d="M237.676,92.377c-1.146-4.256-1.629-9.629-3.986-13.418c-0.959-1.54-2.611-0.635-4.033-0.225
							c-3.57,1.03-7.174,1.954-10.76,2.935c-0.494,0.137-1.102,0.459-1.066,1.045c0.182,2.893,1.027,5.757,1.859,8.517
							c0.441,1.468,1.055,4.786,2.615,5.587c1.453,0.746,4.391-0.396,5.824-0.719c2.971-0.668,6.064-1.439,8.807-2.793
							c1.557-0.767,0.139-1.763-1.033-1.186c-1.814,0.894-11.111,4.258-11.959,2.996c-2.25-3.344-3.354-9.115-3.602-13.075
							c-0.355,0.349-0.711,0.697-1.066,1.045c2.525-0.691,5.055-1.36,7.582-2.049c1.404-0.382,2.803-0.778,4.201-1.182
							c0.432-0.126,0.813,1.318,1.004,1.845c1.332,3.686,2.084,7.572,3.102,11.35C235.426,94.029,237.938,93.355,237.676,92.377z"/>
					</g>
				</g>
				<g>
					<path fill="#D4EEF7" d="M230.557,72.595c0,0-7.725-41.045-10.549-50.98c0,0-13.33,3.443-18.488,5.217
						c1.025,3.641,14.658,44.607,16.139,48.87L230.557,72.595z"/>
					<g>
						<path fill="#231F20" d="M231.813,72.259c-3.199-16.985-5.936-34.313-10.551-50.981c-0.152-0.557-1.037-0.473-1.443-0.368
							c-6.191,1.604-12.414,3.202-18.488,5.217c-0.385,0.127-1.232,0.474-1.066,1.041c4.785,16.435,10.559,32.69,16.139,48.871
							c0.191,0.555,1.008,0.474,1.445,0.368c4.299-1.035,8.598-2.071,12.898-3.106c1.537-0.37,1.146-1.776-0.379-1.409
							c-4.299,1.034-8.598,2.07-12.898,3.106c0.482,0.121,0.965,0.245,1.445,0.368c-5.58-16.181-11.354-32.437-16.139-48.871
							c-0.355,0.347-0.711,0.694-1.066,1.041c6.072-2.015,12.295-3.611,18.486-5.217c-0.48-0.121-0.963-0.244-1.443-0.368
							c4.613,16.668,7.35,33.996,10.549,50.981C229.482,73.898,232.004,73.271,231.813,72.259z"/>
					</g>
				</g>
			</g>
		</g>
	</g>
</g>
</svg>
