<?xml version="1.0" encoding="utf-8"?>
<!-- Generator: Adobe Illustrator 13.0.0, SVG Export Plug-In . SVG Version: 6.00 Build 14948)  -->
<svg version="1.2" baseProfile="tiny" id="Layer_1" xmlns="http://www.w3.org/2000/svg" xmlns:xlink="http://www.w3.org/1999/xlink"
	 x="0px" y="0px" width="497.801px" height="462.416px" viewBox="0 0 497.801 462.416" xml:space="preserve">
<path fill="#FFFFFF" stroke="#231F20" d="M496.593,231.208c0,14.555-25.354,26.43-28.075,40.185
	c-2.802,14.173,16.027,34.818,10.621,47.858c-5.502,13.267-33.47,14.527-41.362,26.32c-7.957,11.882,1.528,38.197-8.548,48.271
	c-10.074,10.075-36.393,0.593-48.274,8.547c-11.79,7.895-13.052,35.86-26.317,41.363c-13.039,5.405-33.688-13.422-47.857-10.618
	c-13.755,2.721-25.63,28.073-40.185,28.073c-14.553,0-26.428-25.353-40.181-28.073c-14.174-2.804-34.819,16.024-47.86,10.618
	c-13.267-5.501-14.526-33.468-26.319-41.361c-11.883-7.955-38.198,1.527-48.272-8.546c-10.074-10.074-0.592-36.393-8.547-48.272
	c-7.894-11.793-35.861-13.053-41.362-26.32c-5.407-13.04,13.421-33.687,10.618-47.857c-2.721-13.753-28.075-25.632-28.075-40.186
	c0-14.553,25.354-26.43,28.075-40.183c2.803-14.173-16.025-34.82-10.618-47.861c5.501-13.267,33.47-14.524,41.362-26.317
	c7.955-11.885-1.527-38.197,8.547-48.271c10.076-10.075,36.391-0.591,48.272-8.547c11.793-7.896,13.054-35.861,26.319-41.363
	c13.041-5.405,33.688,13.422,47.86,10.619c13.753-2.722,25.628-28.074,40.181-28.074c14.555,0,26.43,25.354,40.185,28.074
	c14.173,2.803,34.818-16.023,47.859-10.617c13.268,5.502,14.525,33.469,26.319,41.364c11.882,7.954,38.199-1.53,48.271,8.545
	c10.076,10.075,0.593,36.392,8.548,48.272c7.895,11.793,35.86,13.054,41.362,26.319c5.406,13.039-13.42,33.688-10.617,47.857
	C471.24,204.779,496.593,216.655,496.593,231.208z"/>
<path fill="#FFFFFF" stroke="#231F20" d="M496.593,231.208c0,14.555-25.354,26.43-28.075,40.185
	c-2.802,14.173,16.027,34.818,10.621,47.858c-5.502,13.267-33.47,14.527-41.362,26.32c-7.957,11.882,1.528,38.197-8.548,48.271
	c-10.074,10.075-36.393,0.593-48.274,8.547c-11.79,7.895-13.052,35.86-26.317,41.363c-13.039,5.405-33.688-13.422-47.857-10.618
	c-13.755,2.721-25.63,28.073-40.185,28.073c-14.553,0-26.428-25.353-40.181-28.073c-14.174-2.804-34.819,16.024-47.86,10.618
	c-13.267-5.501-14.526-33.468-26.319-41.361c-11.883-7.955-38.198,1.527-48.272-8.546c-10.074-10.074-0.592-36.393-8.547-48.272
	c-7.894-11.793-35.861-13.053-41.362-26.32c-5.407-13.04,13.421-33.687,10.618-47.857c-2.721-13.753-28.075-25.632-28.075-40.186
	c0-14.553,25.354-26.43,28.075-40.183c2.803-14.173-16.025-34.82-10.618-47.861c5.501-13.267,33.47-14.524,41.362-26.317
	c7.955-11.885-1.527-38.197,8.547-48.271c10.076-10.075,36.391-0.591,48.272-8.547c11.793-7.896,13.054-35.861,26.319-41.363
	c13.041-5.405,33.688,13.422,47.86,10.619c13.753-2.722,25.628-28.074,40.181-28.074c14.555,0,26.43,25.354,40.185,28.074
	c14.173,2.803,34.818-16.023,47.859-10.617c13.268,5.502,14.525,33.469,26.319,41.364c11.882,7.954,38.199-1.53,48.271,8.545
	c10.076,10.075,0.593,36.392,8.548,48.272c7.895,11.793,35.86,13.054,41.362,26.319c5.406,13.039-13.42,33.688-10.617,47.857
	C471.24,204.779,496.593,216.655,496.593,231.208z"/>
<path fill="#FFFFFF" stroke="#231F20" stroke-width="2.4156" stroke-miterlimit="10" d="M496.593,231.208
	c0,14.555-25.354,26.43-28.075,40.185c-2.802,14.173,16.027,34.818,10.621,47.858c-5.502,13.267-33.47,14.527-41.362,26.32
	c-7.957,11.882,1.528,38.197-8.548,48.271c-10.074,10.075-36.393,0.593-48.274,8.547c-11.79,7.895-13.052,35.86-26.317,41.363
	c-13.039,5.405-33.688-13.422-47.857-10.618c-13.755,2.721-25.63,28.073-40.185,28.073c-14.553,0-26.428-25.353-40.181-28.073
	c-14.174-2.804-34.819,16.024-47.86,10.618c-13.267-5.501-14.526-33.468-26.319-41.361c-11.883-7.955-38.198,1.527-48.272-8.546
	c-10.074-10.074-0.592-36.393-8.547-48.272c-7.894-11.793-35.861-13.053-41.362-26.32c-5.407-13.04,13.421-33.687,10.618-47.857
	c-2.721-13.753-28.075-25.632-28.075-40.186c0-14.553,25.354-26.43,28.075-40.183c2.803-14.173-16.025-34.82-10.618-47.861
	c5.501-13.267,33.47-14.524,41.362-26.317c7.955-11.885-1.527-38.197,8.547-48.271c10.076-10.075,36.391-0.591,48.272-8.547
	c11.793-7.896,13.054-35.861,26.319-41.363c13.041-5.405,33.688,13.422,47.86,10.619c13.753-2.722,25.628-28.074,40.181-28.074
	c14.555,0,26.43,25.354,40.185,28.074c14.173,2.803,34.818-16.023,47.859-10.617c13.268,5.502,14.525,33.469,26.319,41.364
	c11.882,7.954,38.199-1.53,48.271,8.545c10.076,10.075,0.593,36.392,8.548,48.272c7.895,11.793,35.86,13.054,41.362,26.319
	c5.406,13.039-13.42,33.688-10.617,47.857C471.24,204.779,496.593,216.655,496.593,231.208z"/>
</svg>
