<?xml version="1.0" encoding="utf-8"?>
<!-- Generator: Adobe Illustrator 13.0.0, SVG Export Plug-In . SVG Version: 6.00 Build 14948)  -->
<svg version="1.2" baseProfile="tiny" id="Layer_1" xmlns="http://www.w3.org/2000/svg" xmlns:xlink="http://www.w3.org/1999/xlink"
	 x="0px" y="0px" width="497.801px" height="462.416px" viewBox="0 0 497.801 462.416" xml:space="preserve">
<g>
	
		<path fill="#FFDE00" stroke="#000000" stroke-width="1.5" stroke-linecap="round" stroke-linejoin="round" stroke-miterlimit="10" d="
		M496.593,231.208c0-14.553-25.353-26.429-28.072-40.183c-2.802-14.171,16.024-34.818,10.618-47.857
		c-5.502-13.268-33.47-14.528-41.363-26.321c-7.955-11.882,1.529-38.197-8.547-48.272c-10.072-10.075-36.391-0.591-48.272-8.545
		c-11.793-7.896-13.053-35.862-26.319-41.364c-13.041-5.407-33.688,13.42-47.86,10.617c-13.755-2.72-25.63-28.074-40.184-28.074
		c-14.553,0-26.428,25.353-40.181,28.074c-14.174,2.803-34.819-16.025-47.86-10.619c-13.267,5.502-14.526,33.469-26.319,41.363
		c-11.883,7.956-38.197-1.528-48.273,8.547c-10.074,10.074-0.592,36.389-8.547,48.271c-7.893,11.793-35.861,13.053-41.362,26.319
		c-5.407,13.041,13.421,33.688,10.618,47.861c-2.723,13.753-28.075,25.63-28.075,40.183s25.354,26.431,28.075,40.184
		c2.803,14.173-16.025,34.819-10.618,47.859c5.501,13.268,33.47,14.527,41.362,26.32c7.955,11.882-1.527,38.198,8.547,48.273
		c8.788,8.788,29.937,2.694,43.081,6.277c-0.072-0.335-0.148-0.668-0.215-1.006c-1.593-8.108-1.845-16.396-3.499-24.489
		c-2.126-10.4-5.928-20.713-12.554-29.13c-3.215-4.085-7.174-7.147-10.894-10.556c-0.921-0.611-1.733-1.459-2.416-2.178
		c-0.273-0.31-0.544-0.644-0.81-0.988c-0.031-0.034-0.065-0.064-0.097-0.1c-3.063-3.303-5.564-7.026-5.791-11.646
		c-0.339-6.879,6.947-10.539,12.936-10.362c10.052,0.297,21.696,6.164,28.855,13.136c2.781,2.709,4.788,5.723,6.37,8.969
		c-2.293-20.852-7.01-41.377-13.086-61.469c-2.526-8.354-5.337-16.617-7.883-24.965c-1.864-6.109-4.138-13.081-0.4-18.966
		c3.271-5.15,10.759-5.561,15.837-3.425c8.724,3.67,12.535,15.854,15.539,23.891c8.613,23.045,15.544,46.992,19.32,71.345
		c2.82-7.271,3.354-15.94,3.95-23.319c1.081-13.383,1.206-26.842,0.921-40.261c-0.323-15.244-0.771-30.704-2.823-45.833
		c-0.862-6.359-1.628-13.673,4.387-17.79c4.237-2.901,10.585-2.273,14.313,1.167c6.634,6.124,7.788,18.07,9.488,26.458
		c2.472,12.194,4.211,24.535,5.403,36.917c1.978,20.545,3.104,41.487,1.654,62.137c7.047-13.281,11.085-28.135,14.024-42.792
		c3.797-18.935,4.948-38.225,8.423-57.183c1.149-6.268,6.004-11.865,13.033-10.604c7.473,1.34,9.9,9.174,10.834,15.752
		c2.597,18.31-0.538,37.663-3.304,55.776c-2.46,16.109-5.881,32.107-8.086,48.256c6.664-7.59,12.879-15.634,17.435-24.68
		c4.73-9.393,7.662-19.338,10.869-29.311c0.334-1.039,0.719-2.09,1.153-3.127c0.051-0.19,0.097-0.378,0.165-0.578
		c0.012-0.034,0.033-0.065,0.05-0.098c0.012-0.049,0.02-0.094,0.041-0.146c0.317-0.777,0.722-1.51,1.194-2.18
		c2.116-3.814,5.134-7.058,9.479-8.259c6.689-1.849,9.38,5.543,9.852,10.87c2.548,28.781-18.351,53.451-25.455,80.064
		c-5.832,21.848-3.075,46.193-14.78,66.32c-5.333,9.17-12.737,16.861-21.265,23.136c-2.289,1.685-5.393,3.048-6.613,5.61
		c7.69,7.82,15.373,16.722,23.996,16.722c14.554,0,26.429-25.354,40.184-28.075c14.171-2.802,34.819,16.025,47.858,10.618
		c13.267-5.501,14.528-33.469,26.318-41.363c11.883-7.954,38.2,1.53,48.275-8.545c10.076-10.074,0.59-36.39,8.547-48.271
		c7.894-11.793,35.861-13.056,41.363-26.32c5.406-13.04-13.423-33.688-10.621-47.86
		C471.238,257.636,496.593,245.761,496.593,231.208z"/>
	<g>
		<path d="M211.813,332.671c2.723-63.02,47.89-77.922,87.507-80.997c47.425-3.681,112.773,15.832,109.649,71.146
			c-2.515,44.508-22.279,75.016-112.111,71.256C284.062,393.539,209.236,392.313,211.813,332.671z"/>
		<path fill="#F0533E" d="M319.501,377.597c8.836-0.563,21.537-0.563,32.272-1.114c8.837-0.454,29.578-16.527,35.838-22.856
			c4.013-4.06,13.94-30.138,13.94-30.138c-28.03-31.288-73.183-18.465-78.001-16.405c-1.039,0.443-2.034,0.912-3.021,1.386
			l0.075-0.051c-24.667-8.33-47.553,7.806-57.434,17.073c-8.242,7.731-17.119,19.696-20.482,35.613c0,0,1.582,17.646,22.116,19.486
			C270.757,381.123,314.487,377.915,319.501,377.597z"/>
		<path fill="#AE2924" d="M211.813,332.671c0,0-0.288,18.361,6.771,29.477c1.263,1.989,44.517-43.294,46.245-48.806
			c3.227-10.294,4.402-24.851,22.697-31.283c9.127-3.209,11.794-30.385,11.794-30.385
			C259.703,254.749,214.536,269.651,211.813,332.671z"/>
		<g>
			<path fill="#FFFFFF" d="M270.302,370.301c-1.805,3.918-2.416,9.894-2.338,16.125c-0.592-8.031-2.783-17.736-8.209-18.035
				c-4.696-0.259-10.74-0.97-14.104,0.239c-0.646-3.564-2.536-6.754-5.076-9.249c0.284-0.059,0.515-0.093,0.675-0.093
				c2.503,0,5.295-10.266,5.295-10.266c-0.054-0.338-0.121-0.647-0.185-0.968c2.808-2.737,8.334-13.071,8.334-13.071
				c-0.024-0.193-0.067-0.366-0.097-0.554c0.005-0.004,0.013-0.007,0.017-0.011c3.083-3.201,14.618-14.579,14.618-14.579
				c-2.043-5.046-3.531-8.175-12.919-8.175c-8.176,0-13.477,3.059-15.47,11.897c-0.904-0.058-1.823-0.082-2.749-0.072
				c-6.371,0.068-13.564,3.362-15.428,14.469h0.005c-4.045,1.58-7.149,5.087-8.453,12.75c0,0,2.243,6.553,3.883,9.517
				c0,0,0.524,2.605,4.271,7.314c2.227,2.802,7.996,8.481,15.398,13.051c0.392,0.241,0.764,0.414,1.12,0.532
				c-0.005,0.049-0.012,0.097-0.017,0.145l29.27,9.824l28.716,2.983c0-6.55-0.373-20.742-3.134-24.056
				C288.754,365.602,273.247,366.803,270.302,370.301z"/>
			<path fill="#FFFFFF" d="M322.538,368.751c-3.892-1.738-20.918-3.154-23.113,1.527c-2.485,5.3-2.566,17.722-2.566,23.797
				l33.498-0.362C330.356,382.563,328.056,371.214,322.538,368.751z"/>
			<path fill="#FFFFFF" d="M408.412,320.889c-6.86-0.773-14.911,5.339-14.358,12.702c0,0,0.036,0.021,0.053,0.031
				c-5.137,1.792-9.988,6.032-10.913,13.404c0,0,0.156,0.146,0.423,0.368c-5.953,0.935-11.296,4.017-12.95,12.831l5.316-0.088
				c-5.156,0.753-12.437,3.692-15.34,6.346c-3.732,3.412-3.136,9.503-2.759,17.078c-0.419-7.141-1.659-14.02-4.145-14.811
				c-4.043-1.288-17.12-2.336-20.984,1.196c-4.643,4.241-1.943,12.425-1.943,22.661c0,0,1.929,0.912,9.768,0
				c4.403-0.513,17.476-3.267,17.476-3.267s8.279-2.377,12.032-3.982c3.055-1.308,9.41-4.579,11.265-5.842
				c2.354-1.604,8.089-6.178,8.089-6.178c0.932-1.276,2.589-1.736,3.646-3.722c0.083-0.155,3.365-3.914,3.171-3.95l3.73-5.922
				c0-0.033-0.005-0.066-0.005-0.1c3.98-3.555,7.538-23.155,7.538-23.155c-0.031-0.142-0.083-0.273-0.13-0.408
				c0.124-0.169,0.234-0.341,0.33-0.514C410.206,331.083,408.412,320.889,408.412,320.889z"/>
		</g>
		<g>
			<path d="M242.272,323.396c1.735-7.237,5.915-10.982,13.477-11.139c6.354-0.131,9.653,1.975,11.976,7.639
				c0.477,1.162,3.455,0.269,3.014-0.809c-3.164-7.716-8.672-9.123-16.764-8.594c-8.006,0.525-12.92,5.68-14.729,13.227
				C238.944,324.974,242.001,324.528,242.272,323.396L242.272,323.396z"/>
		</g>
		<g>
			<path d="M225.308,336.604c1.423-7.33,4.96-11.761,12.648-11.971c7.626-0.208,13.892,2.742,15.216,10.753
				c0.24,1.451,3.26,0.681,3.014-0.807c-1.626-9.836-9.977-12.451-18.937-12.207c-8.816,0.24-13.41,6.246-15,14.438
				C221.948,338.359,225.037,338.001,225.308,336.604L225.308,336.604z"/>
		</g>
		<g>
			<path d="M215.696,350.469c0.734-3.776,1.793-7.263,4.483-10.125c2.738-2.914,7.205-2.919,10.898-2.946
				c8.111-0.061,12.474,4.22,13.945,12.028c0.146,0.773,3.177,0.06,3.014-0.807c-1.982-10.521-9.045-13.002-18.84-12.514
				c-9.383,0.467-14.704,5.678-16.487,14.844C212.542,351.813,215.535,351.297,215.696,350.469L215.696,350.469z"/>
		</g>
		<g>
			<path d="M219.55,360.43c6.847-12.781,23.114-2.375,24.259,8.725c0.151,1.467,3.171,0.715,3.014-0.807
				c-1.507-14.618-22.375-22.879-30.171-8.326C215.823,361.566,218.885,361.67,219.55,360.43L219.55,360.43z"/>
		</g>
		<g>
			<path d="M240.368,381.036c0.521-4.267,1.831-11.184,6.999-12.198c3.757-0.738,11.564-0.939,14.481,1.933
				c4.701,4.63,4.731,14.651,4.787,20.726c0.007,0.703,3.022,0.194,3.014-0.809c-0.07-7.62-0.302-22.47-10.437-23.096
				c-4.526-0.279-10.566-1.408-14.796,0.85c-4.805,2.564-6.416,7.953-7.039,13.058C237.26,382.468,240.266,381.877,240.368,381.036
				L240.368,381.036z"/>
		</g>
		<g>
			<path d="M269.649,390.688c-0.219-4.059-0.237-8.072,0.122-12.127c0.232-2.627,0.55-7.924,3.38-9.238
				c4.694-2.18,11.441-1.838,16.258-0.334c4.688,1.465,4.799,6.797,5.282,10.957c0.56,4.813,0.647,9.693,0.66,14.533
				c0.002,0.77,3.017,0.246,3.014-0.807c-0.019-7.048-0.021-14.432-1.853-21.281c-1.337-4.998-7.228-5.814-11.72-5.945
				c-4.602-0.134-10.838,0.024-14.742,2.895c-2.385,1.754-2.638,5.326-3.079,8.049c-0.751,4.629-0.587,9.447-0.336,14.107
				C266.68,392.302,269.705,391.724,269.649,390.688L269.649,390.688z"/>
		</g>
		<g>
			<path d="M298.365,393.672c0.006-5.772,0.125-11.545,0.911-17.27c0.345-2.506,0.687-6.42,3.296-7.574
				c2.63-1.162,6.04-0.951,8.849-0.895c4.51,0.09,9.764,0.293,12.779,4.043c4.526,5.629,4.575,15.344,4.649,22.141
				c0.01,0.854,3.025,0.299,3.014-0.809c-0.084-7.728-0.216-19.462-7.077-24.67c-3.979-3.02-11.949-2.493-16.584-2.238
				c-3.913,0.215-8.943,0.896-10.635,4.93c-2.889,6.889-2.209,15.813-2.216,23.148C295.351,395.324,298.364,394.781,298.365,393.672
				L298.365,393.672z"/>
		</g>
		<g>
			<path d="M332.338,392.491c-0.076-5.19-0.845-10.36-0.759-15.549c0.114-6.885,5.031-8.108,10.857-8.3
				c3.901-0.127,10.413-0.518,12.087,3.653c2.092,5.212,1.963,11.665,2.005,17.163c0.013,1.576,3.063,1.107,3.053-0.234
				c-0.051-6.416,0.063-13.922-2.97-19.747c-1.826-3.506-9.545-3.043-12.688-3.029c-4.942,0.022-10.705,0.306-13.778,4.718
				c-3.795,5.448-0.947,15.566-0.86,21.56C329.309,394.303,332.357,393.831,332.338,392.491L332.338,392.491z"/>
		</g>
		<g>
			<path d="M359.581,389.225c-0.062-5.623-0.847-11.314-0.21-16.92c0.733-6.458,7.723-8.713,13.081-10.311
				c3.237-0.965,6.269-1.141,9.458-0.078c3.965,1.322,5.117,8.495,6.023,11.828c0.376,1.384,3.39,0.574,3.014-0.809
				c-1.089-4.007-2.392-10.99-6.871-12.861c-3.611-1.508-7.209-1.291-10.968-0.443c-5.224,1.176-11.87,3.548-15.1,8.08
				c-4,5.61-1.55,15.418-1.48,21.748C356.546,391.035,359.596,390.565,359.581,389.225L359.581,389.225z"/>
		</g>
		<g>
			<path d="M372.177,360.053c1.591-7.18,5.704-11.197,13.051-11.994c8.08-0.878,12.918,4.313,13.254,12.092
				c0.046,1.057,3.066,0.422,3.014-0.809c-0.411-9.511-7.011-13.708-15.888-13.072c-8.662,0.621-14.579,5.67-16.452,14.129
				C368.885,361.617,371.935,361.147,372.177,360.053L372.177,360.053z"/>
		</g>
		<g>
			<path d="M384.714,346.89c0.967-6.159,4.673-10.792,10.681-12.653c3.114-0.965,9.414-1.374,10.62,2.658
				c0.387,1.293,3.396,0.471,3.014-0.807c-1.572-5.256-9.143-4.847-13.317-3.965c-7.509,1.585-12.866,7.575-14.038,15.04
				C381.448,348.594,384.517,348.145,384.714,346.89L384.714,346.89z"/>
		</g>
		<g>
			<path fill="#F69C9C" d="M336.347,271.556c-3.827,1.578-22.442,16.339-19.313,19.468c4.05,4.234,12.591-5.013,14.984-7.591
				c4.17,6.368,15.696,13.706,19.329,7.083C354.477,284.81,339.482,273.536,336.347,271.556"/>
			<g>
				<path d="M335.48,271.367c-3.786,1.734-7.17,4.711-10.34,7.352c-3.492,2.907-7.868,6.378-9.736,10.662
					c-1.46,3.35,3.695,3.541,5.688,3.007c4.987-1.337,8.888-5.417,12.288-9.074c-0.956,0.175-1.913,0.349-2.869,0.522
					c3.134,4.451,7.597,8.017,12.851,9.574c2.704,0.802,7.185,0.252,8.899-2.311c4.711-7.035-9.648-16.906-14.493-20.055
					c-0.714-0.463-3.238,0.764-2.842,1.021c5.042,3.274,9.992,7.469,13.487,12.376c2.757,3.871,2.331,9.796-4.559,7.14
					c-4.119-1.588-7.83-5.002-10.33-8.553c-0.458-0.65-2.446,0.066-2.869,0.522c-2.456,2.64-5.009,5.168-8.063,7.118
					c-2.225,1.42-4.946,0.553-4.217-1.825c0.465-1.515,1.781-2.88,2.787-4.027c4.221-4.817,10.172-10.379,16.051-13.073
					C339.021,270.916,336.182,271.045,335.48,271.367L335.48,271.367z"/>
			</g>
		</g>
		<g>
			<path d="M244.188,360.885c7.077-31.382,41.453-62.475,75.203-51.797c0.815,0.258,3.541-0.988,2.43-1.34
				c-35.455-11.219-73.053,19.98-80.629,53.576C240.975,362.285,243.983,361.791,244.188,360.885L244.188,360.885z"/>
		</g>
		<g>
			<path d="M290.635,347.764c4.958-21.498,20.745-37.95,42.483-42.49c23.235-4.854,48.668-0.638,65.472,17.141
				c0.734,0.777,3.601-0.335,2.797-1.186c-17.465-18.478-43.823-22.46-67.902-17.643c-23.092,4.619-40.563,21.557-45.865,44.549
				C287.355,349.279,290.395,348.804,290.635,347.764L290.635,347.764z"/>
		</g>
		<path fill="#FFFFFF" d="M362.386,260.027c0-0.148,0.005-0.288,0.005-0.438l-25.587-6.442c-1.029,0.476-1.754,1.396-2.241,2.609
			c-0.043-0.678-0.091-1.358-0.151-2.057l-35.091-2.026c-0.975,0.44-1.782,1.006-2.447,1.669c-0.009-0.502-0.015-0.992-0.015-1.462
			l-31.188,5.993c-0.001,0.021-0.003,0.048-0.005,0.069c-0.276,0.037-0.559,0.1-0.86,0.218l-20.394,9.189
			c-0.031,0.161-0.056,0.333-0.082,0.5c-10.692,6.65-14.428,13.058-15.306,14.488l-4.51,6.521c4.233,4.05,8.651,4.418,14.358,1.104
			c1.046-0.488,2.218-1.308,3.216-2.409c-0.058,0.47-0.087,0.752-0.087,0.752c3.222,3.222,12.117,1.516,16.02-2.203
			c3.504,4.228,15.274,3.892,16.195-3.285c0,0-0.052-0.237-0.146-0.633c6.412,1.372,14.207,0.377,19.144-1.979
			c2.099-1,3.126-3.975,3.597-7.791c1.142,2.839,2.437,5.194,3.375,6.446c3.313,4.418,27.814,4.101,31.513,0
			c1.057-1.171,2.227-5.078,2.759-10.889c1.063,5.699,3.062,10.912,4.187,11.304c6.442,2.243,21.347,2.331,22.09-1.463
			c0.349-1.781,0.699-3.977,0.989-6.49c1.853,4.475,6.044,8.305,13.185,8.699c5.541,0.305,10.31-2.209,10.31-7.326L362.386,260.027z
			"/>
		<g>
			<path d="M264.15,258.012c-0.463,6.357-2.289,14.635,0.666,20.615c2.737,5.541,13.49,5.426,18.496,5.068
				c5.234-0.374,12.478-1.592,14.178-7.38c2.304-7.841,0.945-16.526,0.889-24.571c-0.011-1.495-3.05-0.965-3.041,0.273
				c0.042,5.994,0.485,11.975,0.186,17.969c-0.137,2.715-0.494,5.508-1.681,7.979c-1.423,2.963-7.411,3.378-10.22,3.687
				c-6.117,0.673-15.512-0.035-16.854-7.26c-1.002-5.393,0.028-11.24,0.423-16.656C267.299,256.266,264.242,256.757,264.15,258.012
				L264.15,258.012z"/>
		</g>
		<g>
			<path d="M297.813,251.863c-1.589,7.752-2.153,17.029-0.283,24.767c1.523,6.298,10.336,6.075,15.479,6.256
				c5.403,0.19,15.232,0.628,19.563-3.462c1.9-1.795,2.348-4.777,2.816-7.218c1.189-6.187,1.008-12.663,0.529-18.909
				c-0.075-0.983-3.102-0.344-3.014,0.807c0.549,7.166,1.563,17.784-2.353,24.396c-1.208,2.041-6.045,2.137-8.064,2.374
				c-3.817,0.449-7.696,0.41-11.524,0.14c-2.823-0.199-5.875-0.603-8.416-1.92c-2.22-1.149-2.41-4.95-2.668-7.087
				c-0.799-6.626-0.396-13.972,0.948-20.521C301.062,250.341,298.023,250.839,297.813,251.863L297.813,251.863z"/>
		</g>
		<g>
			<path d="M335.298,253.339c-0.47,7.679-1.198,15.909,0.33,23.521c0.961,4.788,6.891,4.423,10.854,4.726
				c4.545,0.347,10.259,0.39,14.287-2.087c1.845-1.134,1.774-3.473,2.074-5.385c0.763-4.865,1.01-9.797,1.054-14.715
				c0.012-1.246-3.003-0.596-3.012,0.383c-0.052,5.758-0.475,11.465-1.453,17.141c-0.812,4.71-11.48,3.09-14.939,2.648
				c-1.347-0.172-4.034-0.301-5.045-1.354c-1.049-1.093-1.087-3.642-1.256-5.022c-0.814-6.666-0.29-13.561,0.118-20.237
				C338.385,251.731,335.358,252.342,335.298,253.339L335.298,253.339z"/>
		</g>
		<g>
			<path d="M362.332,260.976c-0.819,6.669-2.365,14.825,4.641,18.583c6.634,3.557,19.157,2.187,19.776-6.958
				c0.111-1.64-2.964-1.261-3.063,0.193c-0.538,7.946-13.141,7.658-17.345,2.769c-3.154-3.667-1.473-10.504-0.947-14.78
				C365.594,259.164,362.51,259.527,362.332,260.976L362.332,260.976z"/>
		</g>
		<g>
			<path d="M242.897,268.058c-0.373,2.358-1.696,12.431,1.547,13.39c4.583,1.355,9.788,1.1,14.453,0.337
				c3.083-0.503,6.355-1.42,6.96-4.812c1.107-6.219-0.529-12.727,0.452-19.012c0.175-1.123-2.854-0.577-3.008,0.4
				c-0.559,3.578-0.463,7.198-0.371,10.808c0.095,3.75,1.581,9.703-3.053,10.913c-3.754,0.98-8.207,0.84-12.006,0.2
				c-3.608-0.608-2.334-10.308-1.967-12.625C246.082,266.536,243.053,267.08,242.897,268.058L242.897,268.058z"/>
		</g>
		<g>
			<path d="M231.235,278.48c3.119,4.006,9.418,3.721,13.863,2.829c1.905-0.383,1.311-2.461-0.559-2.086
				c-3.326,0.668-8.213,0.922-10.547-2.075C233.143,276.055,230.275,277.248,231.235,278.48L231.235,278.48z"/>
		</g>
		<g>
			<path d="M248.921,316.35c3.132,1.972,7.763,0.587,10.615-1.338c1.698-1.146-0.847-1.864-1.934-1.131
				c-1.727,1.165-4.429,2.063-6.32,0.871C250.31,314.14,247.579,315.504,248.921,316.35L248.921,316.35z"/>
		</g>
		<g>
			<path d="M233.23,327.413c1.916,0.493,3.809,1.095,5.706,1.656c0.669,0.198,1.518-0.041,2.115-0.351
				c0.291-0.15,1.014-0.714,0.334-0.915c-1.896-0.562-3.789-1.164-5.706-1.656c-0.687-0.177-1.5,0.032-2.115,0.351
				C233.293,326.638,232.534,327.234,233.23,327.413L233.23,327.413z"/>
		</g>
		<g>
			<path d="M240.777,325.641c-1.648,0.067-3.396,0.684-4.735,1.642c-0.575,0.411,0.51,0.456,0.696,0.438
				c0.709-0.069,1.438-0.288,2.021-0.705c-0.006,0.005,0.236-0.134,0.235-0.133c-0.169,0.095,0.456-0.179,0.125-0.052
				c0.083-0.031,0.167-0.061,0.251-0.088c-0.196,0.059-0.211,0.064-0.046,0.018c0.177-0.045,0.142-0.038-0.104,0.021
				c0.249-0.043,0.111-0.031-0.411,0.033c0.729-0.03,1.496-0.193,2.131-0.571c0.105-0.063,0.409-0.237,0.36-0.419
				C241.252,325.646,240.899,325.637,240.777,325.641L240.777,325.641z"/>
		</g>
		<g>
			<path d="M225.667,341.227c2.521,1.107,5.179,1.551,7.915,1.189c0.66-0.088,1.566-0.437,1.662-1.211
				c0.091-0.732-0.801-1.054-1.389-0.977c-2.284,0.301-4.346-0.098-6.444-1.02C226.16,338.659,223.912,340.455,225.667,341.227
				L225.667,341.227z"/>
		</g>
		<g>
			<path d="M225.125,359.344c1.706,1.342,4.105,1.252,6.125,0.834c0.521-0.108,1.514-0.299,1.752-0.877
				c0.225-0.549-1.025-0.43-1.232-0.387c-1.354,0.281-2.687,0.25-3.816-0.637C227.255,357.728,224.565,358.904,225.125,359.344
				L225.125,359.344z"/>
		</g>
		<g>
			<path d="M266.336,312.938c0.19-8.105,3.532-15.148,8.841-21.157c3.094-3.503,7.785-8.046,12.473-9.263
				c1.76-0.457,1.51-1.374-0.246-0.918c-13.301,3.455-23.773,19.049-24.081,32.146C263.312,314.205,266.315,313.807,266.336,312.938
				L266.336,312.938z"/>
		</g>
		<g>
			<path d="M223.12,289.467c4.26,3.797,8.729,4.369,13.995,2.377c5.328-2.016,9.473-6.232,8.603-12.225
				c-0.162-1.113-3.188-0.397-3.014,0.809c0.546,3.754-1.028,7.065-4.444,8.852c-4.691,2.453-8.368,2.521-12.351-1.027
				C225.063,287.497,222.229,288.673,223.12,289.467L223.12,289.467z"/>
		</g>
		<g>
			<path d="M240.827,289.127c5.581,4.022,20.278,0.877,20.558-7.209c0.051-1.469-2.996-0.948-3.039,0.281
				c-0.208,6.021-10.956,8.324-15.169,5.287C242.198,286.781,239.492,288.164,240.827,289.127L240.827,289.127z"/>
		</g>
		<g>
			<path d="M256.608,286.652c4.797,5.23,17.718,3.651,19.105-4.059c0.175-0.969-2.835-0.434-2.994,0.449
				c-1.092,6.066-9.606,6.522-13.293,2.5C258.811,284.872,255.961,285.945,256.608,286.652L256.608,286.652z"/>
		</g>
		<g>
			<path d="M395.561,333.188c-0.209-6.196,5.705-13.467,12.313-10.664c0.87,0.369,3.63-0.907,2.406-1.426
				c-8.417-3.57-18.03,4.092-17.733,12.896C392.578,334.91,395.599,334.32,395.561,333.188L395.561,333.188z"/>
		</g>
		<g>
			<path d="M229.81,287.285c1.358-0.01,2.751-0.184,4.083,0.154c0.677,0.172,1.611-0.131,2.131-0.571
				c0.505-0.428,0.317-0.858-0.27-1.007c-1.553-0.394-3.17-0.225-4.753-0.213c-0.675,0.005-1.571,0.229-1.993,0.808
				C228.588,287.031,229.361,287.289,229.81,287.285L229.81,287.285z"/>
		</g>
		<g>
			<path d="M247.281,285.414c1.289,0,2.577,0,3.865,0c0.722,0,1.513-0.19,2.131-0.571c0.476-0.293,0.412-0.638-0.17-0.638
				c-1.289,0-2.577,0-3.865,0c-0.722,0-1.513,0.19-2.131,0.571C246.636,285.069,246.699,285.414,247.281,285.414L247.281,285.414z"
				/>
		</g>
		<g>
			<path d="M248.694,285.125c-0.185,0.275-0.37,0.551-0.561,0.822c-0.098,0.139-0.198,0.275-0.302,0.41
				c-0.092,0.113-0.094,0.119-0.007,0.02c-0.103,0.118-0.261,0.168,0.075-0.033c0.244-0.104,0.488-0.208,0.732-0.313
				c-0.011,0.004-0.021,0.006-0.032,0.009c-0.452,0.115-1.466,0.556-1.294,1.198c0.174,0.649,1.267,0.506,1.72,0.39
				c1.213-0.31,1.836-1.429,2.484-2.397c0.405-0.605-0.341-0.924-0.831-0.942C249.992,284.262,249.097,284.523,248.694,285.125
				L248.694,285.125z"/>
		</g>
		<g>
			<path d="M231.979,286.682c-0.62,0.414-1.194,0.837-1.734,1.352c-0.529,0.504-0.213,1.266,0.398,1.487
				c0.772,0.28,1.569-0.036,2.131-0.571c0.262-0.248,0.827-0.602,1.213-0.857c0.544-0.363,0.751-1.167,0.155-1.584
				C233.487,286.049,232.59,286.275,231.979,286.682L231.979,286.682z"/>
		</g>
		<g>
			<path d="M380.441,353.139c2.481,0.631,5.381,0.045,7.102-1.951c1.186-1.377-1.733-1.406-2.441-0.586
				c-0.813,0.943-1.645,1.113-2.84,0.811c-0.701-0.179-1.608,0.075-2.131,0.57C379.654,352.436,379.813,352.979,380.441,353.139
				L380.441,353.139z"/>
		</g>
		<g>
			<path d="M393.994,339.277c1.974-0.677,3.895-1.546,5.42-3.006c0.467-0.447,0.329-0.995-0.307-1.145
				c-0.701-0.165-1.608,0.07-2.131,0.57c-0.961,0.921-2.164,1.533-3.416,1.963c-0.451,0.154-1.471,0.538-1.29,1.213
				C392.439,339.504,393.544,339.432,393.994,339.277L393.994,339.277z"/>
		</g>
		<g>
			<path d="M402.005,325.986c1.492-0.064,2.93-0.654,4.008-1.696c0.42-0.406,0.406-0.831-0.25-0.931
				c-0.655-0.1-1.638,0.094-2.131,0.571c-0.2,0.193-0.409,0.368-0.634,0.532c-0.286,0.207-0.091-0.006,0.224-0.02
				c-0.675,0.029-1.554,0.225-1.999,0.788C400.788,325.783,401.591,326.005,402.005,325.986L402.005,325.986z"/>
		</g>
		<g>
			<path d="M213.344,332.569c1.086-22.053,7.774-43.685,24.848-58.563c13.757-11.987,31.987-17.437,49.727-19.972
				c19.188-2.742,38.719-1.977,57.603,2.418c19.012,4.425,38.185,13.267,50.568,28.824c11.802,14.826,12.782,33.292,9.907,51.297
				c-2.141,13.41-7.354,26.332-17.33,35.825c-12.622,12.015-30.51,16.735-47.308,19.044c-17.713,2.433-35.889,2.275-53.701,0.994
				c-15.647-1.125-31.485-4.169-45.596-11.246C222.992,371.626,212.609,353.865,213.344,332.569
				c0.056-1.629-3.011-1.224-3.061,0.203c-0.57,16.565,4.978,31.685,17.741,42.53c10.962,9.315,25.317,14.057,39.207,16.849
				c10.196,2.05,20.525,2.722,30.893,3.132c22.042,0.871,44.973,0.209,66.146-6.6c13.326-4.283,25.616-11.76,33.804-23.303
				c7.567-10.666,10.662-23.745,11.959-36.566c1.844-18.209-2.078-35.267-14.686-48.969c-12.335-13.406-30.223-21.176-47.641-25.386
				c-28.472-6.882-60.206-6.11-87.78,4.261c-13.166,4.952-24.989,13.098-33.626,24.258c-10.964,14.167-15.151,32.218-16.018,49.794
				C210.203,334.397,213.273,333.996,213.344,332.569z"/>
		</g>
	</g>
	<path fill="none" d="M496.593,231.208c0,14.553-25.354,26.428-28.075,40.183c-2.802,14.173,16.027,34.82,10.621,47.86
		c-5.502,13.265-33.47,14.527-41.363,26.32c-7.957,11.882,1.529,38.197-8.547,48.271c-10.075,10.075-36.393,0.591-48.275,8.545
		c-11.79,7.895-13.052,35.862-26.318,41.363c-13.039,5.407-33.688-13.42-47.858-10.618c-13.755,2.721-25.63,28.075-40.184,28.075
		c-14.553,0-26.428-25.353-40.181-28.075c-14.174-2.802-34.819,16.026-47.86,10.619c-13.267-5.501-14.526-33.467-26.319-41.362
		c-11.883-7.955-38.199,1.529-48.273-8.545c-10.074-10.075-0.592-36.392-8.547-48.273c-7.893-11.793-35.861-13.053-41.362-26.32
		c-5.407-13.04,13.421-33.687,10.618-47.859c-2.721-13.753-28.075-25.631-28.075-40.184s25.353-26.43,28.075-40.183
		c2.803-14.173-16.025-34.82-10.618-47.861c5.501-13.267,33.47-14.526,41.362-26.319c7.955-11.883-1.527-38.197,8.547-48.271
		c10.076-10.075,36.391-0.591,48.273-8.547c11.793-7.895,13.053-35.861,26.319-41.363c13.041-5.406,33.687,13.422,47.86,10.619
		c13.753-2.722,25.628-28.074,40.181-28.074c14.554,0,26.429,25.354,40.184,28.074c14.173,2.803,34.819-16.024,47.86-10.617
		c13.267,5.502,14.526,33.468,26.319,41.364c11.882,7.954,38.2-1.53,48.272,8.545c10.076,10.075,0.592,36.391,8.547,48.272
		c7.894,11.793,35.861,13.054,41.363,26.321c5.406,13.039-13.42,33.687-10.618,47.857
		C471.24,204.779,496.593,216.655,496.593,231.208z"/>
	<path fill="#F9D3B9" d="M252.691,434.082c4.028-3.582,7.848-7.453,11.008-11.838c6.146-8.53,9.963-18.307,11.917-28.609
		c2.281-12.027,2.579-24.346,5.033-36.348c2.947-14.411,9.515-27.32,15.337-40.715c5.646-12.992,12.277-27.508,12.06-41.985
		c-0.063-4.188-0.161-12.059-4.573-14.45c-2.749-1.49-5.366,0.479-7.396,3.166c0.886-0.237,1.836-0.316,2.838-0.198
		c3.782,0.444,5.879,4.226,5.479,7.791c-0.464,4.147-3.997,6.239-8.017,5.578c-2.151-0.354-4.167-0.999-5.412-2.183
		c-3.116,9.265-5.635,18.658-10.192,27.418c-5.496,10.564-12.877,19.803-20.859,28.588c-0.336,0.369-2.875,1.27-2.755,0.313
		c0.457-3.645,1.043-7.271,1.655-10.893c3.273-19.37,7.033-38.676,9.25-58.207c1.11-9.785,2.037-19.716,1.624-29.575
		c-0.264-6.305-0.476-15.916-5.421-20.694c-3.645-3.522-10.07-4.05-12.28,1.679c-0.419,1.086-0.701,2.186-0.932,3.304
		c1.402-1.388,3.257-2.268,5.514-2.308c4.628-0.083,7.478,3.796,7.897,8.081c0.477,4.876-4.229,6.919-8.393,6.785
		c-2.729-0.088-5.167-0.634-6.599-2.118c-0.073,0.568-0.153,1.136-0.225,1.705c-1.249,9.916-2.388,19.85-3.929,29.727
		c-3.465,22.209-8.146,45.479-20.196,64.81c-0.275,0.441-2.949,1.357-2.883,0.626c1.947-21.266,1.011-42.958-0.961-64.184
		c-1.156-12.453-2.712-24.9-5.133-37.176c-1.143-5.791-2.411-11.567-4.028-17.246c-1.195-4.196-2.271-8.862-5.841-11.755
		c-3.769-3.054-9.534-4.176-12.154,1.008c-0.82,1.623-1.249,3.288-1.441,4.98c1.173-1.792,2.965-3.117,5.385-3.552
		c4.452-0.802,8.582,2.066,9.882,6.345c1.592,5.239-2.111,8.338-7.012,9.157c-2.829,0.472-5.564,0.443-7.448-0.775
		c0.539,4.514,0.884,9.057,1.198,13.587c1.287,18.54,1.868,37.2,1.22,55.779c-0.296,8.478-0.765,17.002-2.046,25.396
		c-0.889,5.825-1.897,12.171-5.021,17.284c-0.271,0.443-2.763,1.477-2.883,0.625c-3.489-24.87-10.306-49.467-19.029-72.99
		c-3.16-8.52-7.1-22.962-16.807-26.258c-10.038-3.408-12.147,5.564-11.182,13.115c0.321-3.023,1.918-5.673,5.115-6.938
		c4.179-1.652,8.999,0.39,11.092,4.297c2.743,5.119-0.568,8.797-5.53,10.452c-3.639,1.214-7.049,1.375-9.074-1.132
		c4.709,16.378,10.505,32.387,14.478,49c3.917,16.381,6.708,33.025,7.765,49.789c0.024,0.084,0.05,0.167,0.074,0.252
		c0.042,0.145,0.022,0.285-0.038,0.416c0.581,9.648,0.593,19.335-0.101,29.031c-0.067,0.932-2.936,1.297-2.898,0.777
		c0.602-8.41,0.765-16.853,0.361-25.277c-0.068-1.419-0.154-2.836-0.246-4.252c-1.074-3.717-2.102-7.533-3.868-10.995
		c-5.107-10.013-16.5-17.07-27.145-19.894c-5.484-1.455-14.876-1.66-15.219,6.163c-0.069,1.579,0.194,3.108,0.688,4.569
		c0.299-0.697,0.761-1.364,1.437-1.975c3.219-2.911,9.579-2.309,12.822,0.246c3.954,3.115,2.46,7.742-0.632,10.953
		c-1.095,1.137-2.177,2.182-3.524,2.817c14.389,12.948,21.27,29.856,23.274,49.221c0.589,5.685,1.314,11.413,2.642,16.978
		c0.635,0.306,1.248,0.637,1.819,1.019c11.793,7.896,13.053,35.861,26.319,41.362c13.041,5.407,33.687-13.421,47.86-10.619
		c5.027,0.995,9.803,5.018,14.551,9.716c0.927-0.811,2.146-1.37,3.389-2.258C247.221,438.541,250.055,436.428,252.691,434.082z
		 M249.492,343.621c0.038-1.262,2.976-1.72,2.932-0.24c-0.023,0.764-0.307,1.488-0.322,2.258c-0.026,1.26-2.961,1.723-2.932,0.24
		C249.186,345.108,249.47,344.385,249.492,343.621z M186.272,338.273c-0.015,0.77-2.904,1.13-2.898,0.775
		c0.024-1.297,0.3-2.572,0.323-3.869c0.015-0.771,2.904-1.131,2.898-0.777C186.571,335.701,186.296,336.975,186.272,338.273z
		 M221.014,337.397c-0.327,0.655-0.529,1.312-0.545,2.049c-0.013,0.608-1.221,0.926-1.647,0.979
		c-0.487,0.063-1.263,0.029-1.249-0.612c0.019-0.909,0.346-1.669,0.744-2.471C218.734,336.504,221.632,336.154,221.014,337.397z"/>
	<path d="M146.755,388.988c-0.974-8.504-2.09-35.523-23.598-53.359c-0.131,0.029-0.256,0.066-0.393,0.089
		c-1.051,0.167-2.016-0.199-2.886-0.776c3.72,3.408,7.679,6.471,10.894,10.556c6.626,8.417,10.428,18.729,12.554,29.13
		c1.654,8.094,1.906,16.381,3.499,24.489c0.066,0.338,0.143,0.671,0.215,1.006c0.566,0.154,1.117,0.329,1.652,0.521
		C147.885,397.124,147.246,393.28,146.755,388.988z"/>
	<path d="M132.793,312.605c18.318,7.33,23.498,14.98,26.604,23.84c-0.144-1.561-0.3-3.118-0.471-4.674
		c-1.582-3.246-3.589-6.26-6.37-8.969c-7.159-6.972-18.804-12.839-28.855-13.136c-5.988-0.177-13.274,3.483-12.936,10.362
		c0.227,4.62,2.728,8.344,5.791,11.646c0.031,0.035,0.065,0.065,0.097,0.1c-1.312-1.705-2.44-3.8-2.646-5.854
		C108.174,315.184,117.282,306.399,132.793,312.605z"/>
	<path d="M162.86,342.592c-0.024-0.085-0.05-0.168-0.074-0.252c0.014,0.223,0.022,0.445,0.036,0.668
		C162.883,342.877,162.902,342.736,162.86,342.592z"/>
	<path d="M114.395,323.131c-0.493-1.461-0.757-2.99-0.688-4.569c0.343-7.823,9.734-7.618,15.219-6.163
		c10.645,2.823,22.037,9.881,27.145,19.894c1.767,3.462,2.794,7.278,3.868,10.995c-0.148-2.285-0.331-4.565-0.541-6.842
		c-3.106-8.859-8.286-16.51-26.604-23.84c-15.511-6.206-24.619,2.578-18.786,13.315
		C113.911,324.966,114.012,324.021,114.395,323.131z"/>
	<path d="M124.497,335.173c-0.416,0.196-0.862,0.349-1.34,0.456c21.508,17.836,22.624,44.855,23.598,53.359
		c0.491,4.292,1.13,8.136,1.938,11.654c0.597,0.215,1.167,0.461,1.721,0.729c-1.327-5.564-2.053-11.293-2.642-16.978
		C145.767,365.029,138.886,348.121,124.497,335.173z"/>
	<path d="M258.603,330.297c0.021-0.003,0.044-0.006,0.065-0.008c0.536-0.587,1.06-1.165,1.574-1.738
		c0.073-0.563,0.153-1.125,0.229-1.688c-0.551,0.627-1.108,1.248-1.666,1.871C258.733,329.273,258.664,329.799,258.603,330.297z"/>
	<path d="M258.668,330.289c-0.021,0.002-0.044,0.005-0.065,0.008c-0.003,0.023-0.007,0.051-0.01,0.075
		C258.618,330.344,258.643,330.316,258.668,330.289z"/>
	<path d="M248.341,224.598c-0.201-0.782-0.256-1.693-0.116-2.768c0.195-1.041,0.521-2.037,0.962-2.953
		c0.205-1.24,0.412-2.398,0.626-3.426c1.8-8.641,12.387-11.028,17.383-2.606c11.476,19.345-4.923,90.371-8.39,115.89
		c0.558-0.623,1.115-1.244,1.666-1.871c2.205-16.148,5.626-32.146,8.086-48.256c2.766-18.113,5.9-37.467,3.304-55.776
		c-0.934-6.578-3.361-14.412-10.834-15.752c-7.029-1.261-11.884,4.337-13.033,10.604c-3.475,18.958-4.626,38.249-8.423,57.183
		c-2.939,14.657-6.978,29.511-14.024,42.792c-0.064,0.92-0.138,1.84-0.212,2.759C241.646,292.276,245.189,247.923,248.341,224.598z"
		/>
	<path d="M290.078,273.07c-0.417-0.885-0.507-1.978-0.149-3.324c-0.435,1.037-0.819,2.088-1.153,3.127
		c-3.207,9.973-6.139,19.918-10.869,29.311c-4.556,9.046-10.771,17.09-17.435,24.68c-0.076,0.563-0.156,1.125-0.229,1.688
		C278.39,308.332,283.119,296.225,290.078,273.07z"/>
	<path d="M187.458,322.531c-0.021,0.005-0.04,0.01-0.061,0.014c0.004,0.023,0.008,0.048,0.011,0.071
		C187.425,322.59,187.441,322.559,187.458,322.531z"/>
	<path d="M223.743,323.056c-0.015,0.003-0.029,0.007-0.044,0.01c-0.003,0.024-0.005,0.051-0.007,0.075
		C223.71,323.113,223.726,323.084,223.743,323.056z"/>
	<path d="M223.699,323.065c0.015-0.003,0.029-0.007,0.044-0.01c0.545-0.86,1.072-1.744,1.592-2.639
		c0.074-0.919,0.147-1.839,0.212-2.759c-0.529,0.998-1.074,1.987-1.639,2.967C223.843,321.457,223.773,322.275,223.699,323.065z"/>
	<path d="M249.21,438.876c8.527-6.274,15.932-13.966,21.265-23.136c11.705-20.127,8.948-44.473,14.78-66.32
		c7.104-26.613,28.003-51.283,25.455-80.064c-0.472-5.327-3.162-12.719-9.852-10.87c-4.346,1.201-7.363,4.444-9.479,8.259
		c0.819-1.164,1.855-2.13,3.063-2.782c5.756-7.704,13.924-7.722,14.958,7.352c1.271,18.529-10.589,41.539-20.481,64.122
		c-6.973,15.913-7.958,27.1-9.894,43.875c-2.574,26.389-9.112,45.605-37.537,64.06c0.369,0.369,0.739,0.741,1.108,1.116
		C243.817,441.924,246.921,440.561,249.21,438.876z"/>
	<path d="M137.184,236.287c-1.935-13.979,9.895-16.992,17.638-11.184c7.096,5.162,11.937,20.433,15.163,28.82
		c6.276,17.576,13.855,44.219,17.146,66.801c0.408-0.826,0.786-1.672,1.124-2.542c-3.776-24.353-10.707-48.3-19.32-71.345
		c-3.004-8.037-6.815-20.22-15.539-23.891c-5.078-2.136-12.566-1.726-15.837,3.425c-3.737,5.885-1.464,12.856,0.4,18.966
		c2.546,8.348,5.356,16.611,7.883,24.965c6.076,20.092,10.793,40.617,13.086,61.469c0.746,1.53,1.396,3.113,1.986,4.74
		C156.609,287.94,138.725,247.42,137.184,236.287z"/>
	<path d="M187.397,322.545c0.021-0.004,0.04-0.009,0.061-0.014c0.396-0.631,0.77-1.348,1.127-2.13
		c-0.108-0.739-0.217-1.479-0.331-2.219c-0.338,0.87-0.716,1.716-1.124,2.542C187.218,321.33,187.315,321.945,187.397,322.545z"/>
	<path d="M191.748,208.367c-0.382-0.769-0.634-1.702-0.713-2.844c-0.003-0.041,0.006-0.079,0.009-0.119
		c-0.006-0.041-0.018-0.079-0.019-0.124c-0.007-0.575,0.025-1.145,0.095-1.705c-1.328-17.637,16.63-17.707,21.017-3.85
		c10.791,34.089,14.165,90.688,11.771,120.899c0.564-0.979,1.109-1.969,1.639-2.967c1.449-20.649,0.323-41.592-1.654-62.137
		c-1.192-12.383-2.932-24.724-5.403-36.917c-1.7-8.388-2.854-20.334-9.488-26.458c-3.728-3.44-10.075-4.068-14.313-1.167
		c-6.015,4.117-5.249,11.431-4.387,17.79c2.053,15.13,2.5,30.589,2.823,45.833c0.285,13.419,0.16,26.878-0.921,40.261
		c-0.596,7.379-1.13,16.049-3.95,23.319c0.114,0.739,0.223,1.479,0.331,2.219C198.058,299.641,194.331,227.747,191.748,208.367z"/>
	<path d="M187.397,322.545c-0.082-0.6-0.18-1.215-0.268-1.82c-0.359,0.727-0.736,1.443-1.155,2.129
		C186.449,322.75,186.923,322.647,187.397,322.545z"/>
	<path d="M223.699,323.065c0.074-0.79,0.144-1.608,0.209-2.44c-0.534,0.926-1.083,1.844-1.649,2.753
		C222.739,323.273,223.219,323.17,223.699,323.065z"/>
	<path d="M159.962,343.367c-0.008-0.026-0.016-0.054-0.023-0.08c0.092,1.416,0.178,2.833,0.246,4.252
		c0.403,8.425,0.24,16.867-0.361,25.277c-0.037,0.52,2.831,0.154,2.898-0.777c0.693-9.696,0.682-19.383,0.101-29.031
		C162.436,343.85,160.236,344.314,159.962,343.367z"/>
	<path d="M194.126,194.177c2.62-5.185,8.386-4.063,12.154-1.008c3.569,2.893,4.646,7.56,5.841,11.755
		c1.617,5.679,2.886,11.455,4.028,17.246c2.421,12.275,3.977,24.723,5.133,37.176c1.972,21.226,2.908,42.918,0.961,64.184
		c-0.066,0.731,2.607-0.185,2.883-0.626c12.05-19.331,16.731-42.601,20.196-64.81c1.541-9.877,2.68-19.811,3.929-29.727
		c0.071-0.569,0.151-1.137,0.225-1.705c-0.53-0.55-0.921-1.229-1.135-2.064c-3.151,23.325-6.695,67.679-23.006,95.819
		c-0.063,0.778-0.122,1.558-0.193,2.335c-0.466,0.102-0.932,0.203-1.398,0.304c-0.018,0.028-0.033,0.058-0.051,0.085
		c0.002-0.024,0.004-0.051,0.007-0.075c-0.48,0.104-0.96,0.208-1.44,0.313c0.566-0.909,1.115-1.827,1.649-2.753
		c2.394-30.211-0.98-86.811-11.771-120.899c-4.387-13.857-22.345-13.787-21.017,3.85c0.201-1.612,0.725-3.134,1.564-4.417
		C192.877,197.465,193.306,195.8,194.126,194.177z"/>
	<path d="M188.585,320.401c-0.357,0.782-0.731,1.499-1.127,2.13c0.467-0.101,0.933-0.202,1.399-0.303
		C188.772,321.619,188.675,321.011,188.585,320.401z"/>
	<path d="M155.021,292.551c-3.973-16.613-9.769-32.622-14.478-49c-0.582-0.72-1.057-1.648-1.381-2.85
		c-0.276-1.294-0.353-2.592-0.222-3.83c-0.966-7.551,1.144-16.523,11.182-13.115c9.707,3.295,13.646,17.738,16.807,26.258
		c8.724,23.523,15.54,48.12,19.029,72.99c0.12,0.852,2.612-0.182,2.883-0.625c3.124-5.113,4.133-11.459,5.021-17.284
		c1.281-8.395,1.75-16.919,2.046-25.396c0.648-18.579,0.067-37.239-1.22-55.779c-0.314-4.53-0.659-9.073-1.198-13.587
		c-0.722-0.467-1.316-1.108-1.743-1.965c2.583,19.379,6.31,91.273-3.163,112.034c0.09,0.609,0.188,1.218,0.272,1.827
		c-0.467,0.101-0.933,0.202-1.399,0.303c-0.017,0.027-0.033,0.059-0.05,0.085c-0.003-0.023-0.007-0.048-0.011-0.071
		c-0.475,0.103-0.948,0.205-1.423,0.309c0.419-0.686,0.796-1.402,1.155-2.129c-3.29-22.582-10.869-49.225-17.146-66.801
		c-3.227-8.388-8.067-23.658-15.163-28.82c-7.743-5.809-19.572-2.796-17.638,11.184c1.541,11.133,19.426,51.653,23.729,100.225
		c0.686,1.888,1.293,3.833,1.873,5.828C161.729,325.576,158.938,308.932,155.021,292.551z"/>
	<path d="M303.473,260.137c4.412,2.392,4.51,10.262,4.573,14.45c0.218,14.478-6.413,28.993-12.06,41.985
		c-5.822,13.395-12.39,26.304-15.337,40.715c-2.454,12.002-2.752,24.32-5.033,36.348c-1.954,10.303-5.771,20.079-11.917,28.609
		c-3.16,4.385-6.979,8.256-11.008,11.838c-2.637,2.346-5.471,4.459-8.34,6.509c-1.242,0.888-2.462,1.447-3.389,2.258
		c0.175,0.174,0.351,0.347,0.525,0.521c28.425-18.454,34.963-37.671,37.537-64.06c1.936-16.775,2.921-27.962,9.894-43.875
		c9.893-22.583,21.753-45.593,20.481-64.122c-1.034-15.073-9.202-15.056-14.958-7.352c0.516-0.278,1.061-0.505,1.635-0.659
		C298.106,260.616,300.724,258.646,303.473,260.137z"/>
	<path d="M258.603,330.297c0.062-0.498,0.131-1.023,0.203-1.563c-0.511,0.57-1.02,1.146-1.534,1.713
		C257.716,330.396,258.159,330.347,258.603,330.297z"/>
	<path d="M260.242,328.551c-0.515,0.573-1.038,1.151-1.574,1.738c0.453-0.052,0.905-0.104,1.358-0.154
		C260.093,329.605,260.173,329.079,260.242,328.551z"/>
	<path d="M225.335,320.417c-0.52,0.895-1.047,1.778-1.592,2.639c0.467-0.101,0.933-0.202,1.398-0.304
		C225.213,321.975,225.271,321.195,225.335,320.417z"/>
	<path d="M251.056,216.223c0.23-1.119,0.513-2.218,0.932-3.304c2.21-5.729,8.636-5.201,12.28-1.679
		c4.945,4.778,5.157,14.39,5.421,20.694c0.413,9.859-0.514,19.79-1.624,29.575c-2.217,19.531-5.977,38.837-9.25,58.207
		c-0.612,3.621-1.198,7.248-1.655,10.893c-0.12,0.957,2.419,0.057,2.755-0.313c7.982-8.785,15.363-18.023,20.859-28.588
		c4.558-8.76,7.076-18.153,10.192-27.418c-0.373-0.354-0.672-0.762-0.888-1.221c-6.959,23.154-11.688,35.262-29.836,55.48
		c-0.069,0.528-0.149,1.055-0.216,1.584c-0.453,0.051-0.905,0.103-1.358,0.154c-0.025,0.027-0.05,0.055-0.075,0.083
		c0.003-0.024,0.007-0.052,0.01-0.075c-0.443,0.05-0.887,0.1-1.331,0.15c0.515-0.566,1.023-1.143,1.534-1.713
		c3.467-25.519,19.865-96.545,8.39-115.89c-4.996-8.422-15.583-6.034-17.383,2.606c-0.214,1.028-0.421,2.187-0.626,3.426
		C249.67,217.876,250.296,216.976,251.056,216.223z"/>
	<path d="M161.41,342.977c-0.134-2.172-0.308-4.322-0.497-6.465c-0.591-1.627-1.24-3.21-1.986-4.74
		c0.171,1.556,0.327,3.113,0.471,4.674C160.136,338.55,160.758,340.723,161.41,342.977z"/>
	<path d="M159.962,343.367c0.274,0.947,2.474,0.482,2.86-0.359c-0.014-0.223-0.022-0.445-0.036-0.668
		c-0.58-1.995-1.188-3.94-1.873-5.828c0.189,2.143,0.363,4.293,0.497,6.465c-0.652-2.254-1.274-4.427-2.013-6.531
		c0.21,2.276,0.393,4.557,0.541,6.842C159.946,343.313,159.954,343.341,159.962,343.367z"/>
	<path d="M183.697,335.18c-0.023,1.297-0.299,2.572-0.323,3.869c-0.006,0.354,2.884-0.006,2.898-0.775
		c0.023-1.299,0.299-2.572,0.323-3.871C186.602,334.049,183.712,334.409,183.697,335.18z"/>
	<path d="M218.316,337.343c-0.398,0.802-0.726,1.562-0.744,2.471c-0.014,0.642,0.762,0.675,1.249,0.612
		c0.427-0.054,1.635-0.371,1.647-0.979c0.016-0.737,0.218-1.394,0.545-2.049C221.632,336.154,218.734,336.504,218.316,337.343z"/>
	<path d="M252.102,345.639c0.016-0.77,0.299-1.494,0.322-2.258c0.044-1.479-2.894-1.021-2.932,0.24
		c-0.022,0.764-0.307,1.487-0.322,2.258C249.141,347.361,252.075,346.898,252.102,345.639z"/>
	<path fill="#FFFFFF" d="M145.069,243.741c1.673,0.104,3.504-0.436,4.997-1.165c3.921-1.915,4.122-5.639,1.234-8.801
		c-1.753-1.92-4.865-3.625-7.285-1.739c-2.421,1.888-2.545,5.123-1.954,7.89C142.465,241.418,143.188,243.623,145.069,243.741z"/>
	<path d="M140.429,239.415c-1.521-9.038,8.118-12.413,12.954-5.264c3.443,5.087,0.468,8.288-4.684,9.9
		c-4.134,1.296-6.633,0.854-7.838-2.859c-0.332,0.095-0.678,0.125-0.974,0.077c0.213,0.763,0.438,1.521,0.656,2.281
		c2.025,2.507,5.436,2.346,9.074,1.132c4.962-1.655,8.273-5.333,5.53-10.452c-2.093-3.907-6.913-5.949-11.092-4.297
		c-3.197,1.265-4.794,3.914-5.115,6.938c0.133,1.037,0.322,2.047,0.558,2.994C139.741,239.659,140.075,239.502,140.429,239.415z"/>
	<path d="M139.888,241.27c0.296,0.048,0.642,0.018,0.974-0.077c-0.09-0.276-0.174-0.565-0.249-0.879
		c-0.073-0.306-0.135-0.604-0.184-0.898c-0.354,0.087-0.688,0.244-0.93,0.45c0.051,0.203,0.103,0.405,0.157,0.603
		C139.73,240.736,139.812,241.002,139.888,241.27z"/>
	<path d="M139.888,241.27c-0.076-0.268-0.157-0.533-0.231-0.802c-0.055-0.197-0.106-0.399-0.157-0.603
		c-0.27,0.229-0.422,0.518-0.336,0.836C139.234,241.036,139.522,241.211,139.888,241.27z"/>
	<path d="M139.163,240.701c-0.086-0.318,0.066-0.607,0.336-0.836c-0.235-0.947-0.425-1.957-0.558-2.994
		C138.811,238.109,138.887,239.407,139.163,240.701z"/>
	<path d="M139.163,240.701c0.324,1.201,0.799,2.13,1.381,2.85c-0.219-0.76-0.443-1.519-0.656-2.281
		C139.522,241.211,139.234,241.036,139.163,240.701z"/>
	<path d="M142.062,239.926c-0.591-2.767-0.467-6.002,1.954-7.89c2.42-1.885,5.532-0.181,7.285,1.739
		c2.888,3.162,2.687,6.886-1.234,8.801c-1.493,0.729-3.324,1.27-4.997,1.165C143.188,243.623,142.465,241.418,142.062,239.926
		c0.126,0.59-0.498,1.066-1.2,1.267c1.205,3.714,3.704,4.155,7.838,2.859c5.151-1.612,8.127-4.813,4.684-9.9
		c-4.836-7.149-14.475-3.774-12.954,5.264C141.138,239.24,141.905,239.35,142.062,239.926z"/>
	<path d="M140.861,241.192c0.702-0.2,1.326-0.677,1.2-1.267c-0.156-0.576-0.924-0.686-1.633-0.511
		c0.049,0.294,0.11,0.593,0.184,0.898C140.688,240.627,140.771,240.916,140.861,241.192z"/>
	<path fill="#FFFFFF" d="M124.643,332.707c1.117-1.109,2.272-2.271,2.934-3.727c1.392-3.063,0.139-5.963-3.108-7.06
		c-2.352-0.794-6.798-1.673-7.473,1.813c-0.524,2.702,0.905,5.139,2.58,7.163c0.654,0.638,1.33,1.24,2.017,1.795
		c0.41,0.331,0.791,0.679,1.19,1.017C123.53,333.875,124.067,333.279,124.643,332.707z"/>
	<path fill="#FFFFFF" d="M119.575,330.897c0.185,0.224,0.371,0.446,0.56,0.659c0.682,0.719,1.398,1.574,2.3,2.026
		c0.121,0.061,0.236,0.101,0.348,0.126c-0.399-0.338-0.78-0.686-1.19-1.017C120.905,332.138,120.229,331.535,119.575,330.897z"/>
	<path d="M117.859,333.008c-0.157-0.051-0.295-0.13-0.396-0.244c0.683,0.719,1.495,1.566,2.416,2.178
		C119.194,334.313,118.522,333.668,117.859,333.008z"/>
	<path d="M117.296,332.432c0.014,0.111,0.063,0.223,0.167,0.332c0.102,0.114,0.239,0.193,0.396,0.244
		C117.67,332.818,117.483,332.625,117.296,332.432z"/>
	<path d="M116.653,331.775c0.266,0.345,0.536,0.679,0.81,0.988c-0.104-0.109-0.153-0.221-0.167-0.332
		C117.083,332.213,116.863,332,116.653,331.775z"/>
	<path d="M124.656,320.811c6.292,1.937,6.292,6.872,2.178,11.211c-1.212,1.279-2.156,2.152-3.052,2.541
		c0.234,0.205,0.484,0.402,0.715,0.61c1.348-0.636,2.43-1.681,3.524-2.817c3.092-3.211,4.586-7.838,0.632-10.953
		c-3.243-2.555-9.604-3.157-12.822-0.246c-0.676,0.61-1.138,1.277-1.437,1.975c0.273,0.81,0.613,1.6,1.02,2.362
		C115.16,321.462,118.91,319.042,124.656,320.811z"/>
	<path d="M122.765,335.718c0.137-0.022,0.262-0.06,0.393-0.089c-0.4-0.332-0.805-0.662-1.219-0.988
		c-0.732-0.251-1.527-0.834-2.492-1.803c-0.507,0.224-1.135,0.316-1.587,0.17c0.663,0.66,1.335,1.306,2.02,1.934
		C120.749,335.519,121.714,335.885,122.765,335.718z"/>
	<path d="M118.201,331.479c-0.144-0.17-0.274-0.34-0.405-0.51c-1.639-1.698-2.892-3.395-3.789-5.048
		c0.206,2.055,1.335,4.149,2.646,5.854c0.21,0.225,0.43,0.438,0.643,0.656C117.251,332.061,117.663,331.7,118.201,331.479z"/>
	<path d="M118.799,332.16c-0.21-0.229-0.409-0.455-0.598-0.682c-0.538,0.222-0.95,0.582-0.905,0.953
		c0.188,0.193,0.374,0.387,0.563,0.576c0.452,0.146,1.08,0.054,1.587-0.17C119.239,332.629,119.023,332.404,118.799,332.16z"/>
	<path d="M123.782,334.563c-0.613,0.266-1.206,0.297-1.844,0.078c0.414,0.326,0.818,0.656,1.219,0.988
		c0.478-0.107,0.924-0.26,1.34-0.456C124.267,334.965,124.017,334.768,123.782,334.563z"/>
	<path d="M114.395,323.131c-0.383,0.891-0.483,1.835-0.388,2.79c0.897,1.653,2.15,3.35,3.789,5.048
		c-1.53-1.976-2.279-3.855-2.382-5.476C115.008,324.73,114.668,323.94,114.395,323.131z"/>
	<path d="M126.834,332.021c4.114-4.339,4.114-9.274-2.178-11.211c-5.746-1.769-9.496,0.651-9.242,4.683
		c1.064,1.999,2.537,3.821,4.161,5.404c-1.675-2.024-3.104-4.461-2.58-7.163c0.675-3.486,5.121-2.607,7.473-1.813
		c3.247,1.097,4.5,3.997,3.108,7.06c-0.661,1.455-1.816,2.617-2.934,3.727c-0.575,0.572-1.112,1.168-1.86,1.002
		c0.336,0.283,0.672,0.566,1,0.854C124.678,334.174,125.622,333.301,126.834,332.021z"/>
	<path d="M117.796,330.969c0.131,0.17,0.262,0.34,0.405,0.51c0.022-0.009,0.046-0.017,0.069-0.025
		C118.107,331.292,117.951,331.131,117.796,330.969z"/>
	<path d="M119.647,332.741c-0.064,0.034-0.132,0.067-0.201,0.097c0.965,0.969,1.76,1.552,2.492,1.803
		c-0.118-0.092-0.228-0.188-0.347-0.28C120.897,333.824,120.259,333.283,119.647,332.741z"/>
	<path d="M118.271,331.453c-0.023,0.009-0.047,0.017-0.069,0.025c0.188,0.227,0.388,0.453,0.598,0.682
		c0.225,0.244,0.44,0.469,0.647,0.678c0.069-0.029,0.137-0.063,0.201-0.097C119.163,332.313,118.704,331.883,118.271,331.453z"/>
	<path d="M120.135,331.557c-0.188-0.213-0.375-0.436-0.56-0.659c-1.624-1.583-3.097-3.405-4.161-5.404
		c0.103,1.62,0.852,3.5,2.382,5.476c0.155,0.162,0.312,0.323,0.475,0.484C118.934,331.199,119.754,331.156,120.135,331.557z"/>
	<path d="M118.271,331.453c0.434,0.43,0.893,0.859,1.377,1.288c0.546-0.299,0.869-0.753,0.487-1.185
		C119.754,331.156,118.934,331.199,118.271,331.453z"/>
	<path d="M123.782,334.563c-0.328-0.287-0.664-0.57-1-0.854c-0.111-0.025-0.227-0.065-0.348-0.126
		c-0.901-0.452-1.618-1.308-2.3-2.026c0.382,0.432,0.059,0.886-0.487,1.185c0.611,0.542,1.25,1.083,1.944,1.619
		c0.119,0.092,0.229,0.188,0.347,0.28C122.576,334.859,123.169,334.828,123.782,334.563z"/>
	<path fill="#FFFFFF" d="M195.975,209.158c1.645,0.696,3.877,0.458,5.564,0.014c4.074-1.074,4.929-4.625,2.77-8.14
		c-1.323-2.154-3.86-4.455-6.625-3.515c-3.02,1.025-3.755,4.549-3.739,7.357C194.058,206.441,194.328,208.461,195.975,209.158z"/>
	<path d="M192.604,202.868c1.182-7.928,10.438-8.829,13.609-1.282c2.381,5.662-1.161,8.22-6.527,8.795
		c-3.256,0.351-5.399-0.096-6.451-2.006c0.087,0.652,0.178,1.304,0.256,1.958c1.884,1.218,4.619,1.247,7.448,0.775
		c4.9-0.818,8.604-3.918,7.012-9.157c-1.3-4.279-5.43-7.147-9.882-6.345c-2.42,0.436-4.212,1.76-5.385,3.552
		C192.545,200.381,192.532,201.619,192.604,202.868z"/>
	<path d="M191.12,203.575c-0.069,0.56-0.102,1.13-0.095,1.705c0.001,0.045,0.013,0.083,0.019,0.124
		c0.016-0.183,0.087-0.352,0.208-0.501C191.195,204.449,191.153,204.008,191.12,203.575z"/>
	<path d="M191.39,205.915c-0.055-0.344-0.097-0.678-0.138-1.011c-0.121,0.149-0.192,0.318-0.208,0.501
		C191.081,205.635,191.206,205.803,191.39,205.915z"/>
	<path d="M191.39,205.915c-0.184-0.112-0.309-0.279-0.346-0.51c-0.003,0.04-0.012,0.078-0.009,0.119
		c0.079,1.143,0.331,2.076,0.713,2.844c-0.11-0.824-0.218-1.563-0.322-2.189C191.411,206.087,191.404,206.004,191.39,205.915z"/>
	<path d="M192.479,204.225c0.014-0.475,0.061-0.923,0.125-1.357c-0.072-1.249-0.06-2.487,0.08-3.71
		c-0.84,1.283-1.363,2.805-1.564,4.417c0.033,0.433,0.075,0.874,0.132,1.328C191.521,204.572,191.998,204.333,192.479,204.225z"/>
	<path d="M193.491,210.333c-0.078-0.654-0.169-1.306-0.256-1.958c-0.338-0.613-0.564-1.375-0.676-2.314
		c-0.435,0.074-0.872,0.036-1.17-0.146c0.015,0.09,0.021,0.173,0.036,0.263c0.104,0.626,0.212,1.366,0.322,2.189
		C192.175,209.225,192.77,209.866,193.491,210.333z"/>
	<path d="M192.479,204.225c-0.481,0.108-0.959,0.347-1.228,0.679c0.041,0.333,0.083,0.667,0.138,1.011
		c0.298,0.182,0.735,0.22,1.17,0.146c-0.035-0.293-0.063-0.598-0.075-0.926C192.472,204.823,192.471,204.52,192.479,204.225z"/>
	<path d="M199.687,210.381c5.366-0.575,8.908-3.133,6.527-8.795c-3.172-7.547-12.428-6.646-13.609,1.282
		c0.025,0.437,0.06,0.875,0.103,1.314c0.624-0.084,1.192,0.071,1.227,0.565c0.003,0.041,0.007,0.085,0.011,0.127
		c-0.016-2.808,0.72-6.332,3.739-7.357c2.765-0.939,5.302,1.361,6.625,3.515c2.159,3.515,1.305,7.065-2.77,8.14
		c-1.688,0.445-3.92,0.683-5.564-0.014c-1.646-0.696-1.917-2.716-2.03-4.284c0,0.039-0.002,0.078-0.001,0.116
		c0.006,0.45-0.463,0.806-1.024,0.983c0.029,0.209,0.053,0.417,0.084,0.625c0.087,0.59,0.153,1.185,0.232,1.776
		C194.287,210.285,196.431,210.731,199.687,210.381z"/>
	<path d="M193.943,204.989c-0.001-0.038,0.001-0.077,0.001-0.116c-0.004-0.042-0.008-0.086-0.011-0.127
		c-0.034-0.494-0.603-0.649-1.227-0.565c0.06,0.595,0.129,1.192,0.212,1.791C193.48,205.795,193.949,205.439,193.943,204.989z"/>
	<path d="M192.604,202.868c-0.064,0.434-0.111,0.882-0.125,1.357c0.076-0.017,0.152-0.033,0.228-0.043
		C192.664,203.743,192.63,203.305,192.604,202.868z"/>
	<path d="M192.707,204.182c-0.075,0.01-0.151,0.026-0.228,0.043c-0.009,0.295-0.008,0.599,0.005,0.91
		c0.013,0.328,0.04,0.633,0.075,0.926c0.122-0.021,0.242-0.051,0.359-0.088C192.836,205.374,192.767,204.777,192.707,204.182z"/>
	<path d="M192.919,205.973c-0.117,0.037-0.237,0.067-0.359,0.088c0.111,0.938,0.338,1.701,0.676,2.314
		c-0.079-0.592-0.146-1.186-0.232-1.776C192.972,206.389,192.948,206.182,192.919,205.973z"/>
	<path fill="#FFFFFF" d="M256.484,226.881c3.975,0.129,5.951-2.159,4.748-6.146c-0.691-2.29-2.631-5.211-5.435-4.946
		c-2.926,0.277-4.178,3.205-4.657,5.75C250.644,225.387,252.833,226.763,256.484,226.881z"/>
	<path d="M250.626,218.647c2.941-5.904,10.763-4.765,12.198,2.308c1.138,5.59-2.555,7.271-7.544,6.816
		c-3.09-0.281-4.971-1.107-5.539-3.125c-0.09,0.672-0.179,1.344-0.266,2.016c1.432,1.484,3.869,2.03,6.599,2.118
		c4.163,0.135,8.869-1.909,8.393-6.785c-0.42-4.284-3.27-8.163-7.897-8.081c-2.257,0.04-4.111,0.92-5.514,2.308
		c-0.115,0.562-0.223,1.128-0.319,1.703C250.696,218.166,250.665,218.407,250.626,218.647z"/>
	<path d="M248.842,221.074c0.114-0.763,0.229-1.496,0.345-2.196c-0.441,0.916-0.767,1.912-0.962,2.953
		C248.265,221.521,248.511,221.263,248.842,221.074z"/>
	<path d="M248.63,222.521c0.07-0.494,0.141-0.976,0.212-1.447c-0.331,0.189-0.577,0.447-0.617,0.756
		C248.157,222.187,248.337,222.407,248.63,222.521z"/>
	<path d="M248.225,221.83c-0.14,1.075-0.085,1.985,0.116,2.768c0.096-0.715,0.192-1.402,0.289-2.077
		C248.337,222.407,248.157,222.187,248.225,221.83z"/>
	<path d="M249.741,224.646c-0.164-0.583-0.221-1.263-0.161-2.061c-0.354,0.053-0.694,0.036-0.95-0.064
		c-0.097,0.675-0.193,1.361-0.289,2.077c0.214,0.835,0.604,1.514,1.135,2.064C249.563,225.99,249.651,225.318,249.741,224.646z"/>
	<path d="M249.898,220.749c-0.367,0.035-0.748,0.148-1.057,0.325c-0.071,0.471-0.142,0.954-0.212,1.447
		c0.256,0.1,0.597,0.118,0.95,0.064c0.021-0.287,0.052-0.583,0.103-0.901C249.735,221.351,249.823,221.058,249.898,220.749z"/>
	<path d="M249.898,220.749c0.188-0.771,0.421-1.486,0.728-2.102c0.039-0.24,0.07-0.482,0.11-0.722
		c0.097-0.575,0.204-1.141,0.319-1.703c-0.76,0.752-1.386,1.653-1.869,2.654c-0.115,0.701-0.23,1.433-0.345,2.196
		C249.15,220.897,249.531,220.784,249.898,220.749z"/>
	<path d="M255.28,227.771c4.989,0.455,8.682-1.227,7.544-6.816c-1.436-7.073-9.257-8.212-12.198-2.308
		c-0.113,0.698-0.215,1.397-0.32,2.097c0.513,0.045,0.9,0.288,0.835,0.795c0.479-2.545,1.731-5.473,4.657-5.75
		c2.804-0.265,4.743,2.656,5.435,4.946c1.203,3.987-0.773,6.274-4.748,6.146c-3.651-0.118-5.841-1.494-5.344-5.342
		c-0.081,0.433-0.556,0.765-1.1,0.94c-0.104,0.722-0.202,1.444-0.3,2.167C250.31,226.665,252.19,227.491,255.28,227.771z"/>
	<path d="M251.141,221.539c0.065-0.507-0.322-0.75-0.835-0.795c-0.087,0.578-0.182,1.155-0.265,1.735
		C250.585,222.304,251.06,221.972,251.141,221.539z"/>
	<path d="M249.58,222.585c-0.06,0.798-0.003,1.478,0.161,2.061c0.098-0.723,0.196-1.445,0.3-2.167
		C249.891,222.527,249.734,222.562,249.58,222.585z"/>
	<path d="M250.306,220.744c-0.129-0.012-0.268-0.008-0.407,0.005c-0.075,0.309-0.163,0.602-0.216,0.936
		c-0.051,0.317-0.082,0.614-0.103,0.901c0.154-0.023,0.311-0.058,0.461-0.106C250.124,221.899,250.219,221.322,250.306,220.744z"/>
	<path d="M250.306,220.744c0.105-0.699,0.207-1.399,0.32-2.097c-0.307,0.616-0.54,1.331-0.728,2.102
		C250.038,220.736,250.177,220.732,250.306,220.744z"/>
	<path fill="#FFFFFF" d="M296.668,274.443c1.142,0.241,2.946,0.615,3.825-0.433c0.797-0.949,1.038-2.274,1.013-3.487
		c-0.048-2.253-1.098-5.021-3.594-5.519c-2.53-0.505-4.087,1.96-4.935,3.979C291.925,272.189,293.446,273.764,296.668,274.443z"/>
	<path d="M290.114,269.307c0.076-0.174,0.156-0.347,0.235-0.52c-0.09,0.086-0.155,0.182-0.206,0.283
		C290.121,269.155,290.111,269.234,290.114,269.307z"/>
	<path d="M290.35,268.787c0.316-0.694,0.659-1.377,1.029-2.043c-0.473,0.67-0.877,1.402-1.194,2.18
		c-0.021,0.053-0.029,0.098-0.041,0.146C290.194,268.969,290.26,268.873,290.35,268.787z"/>
	<path d="M290.144,269.07c-0.017,0.032-0.038,0.063-0.05,0.098c-0.068,0.2-0.114,0.388-0.165,0.578
		c0.062-0.146,0.122-0.294,0.186-0.439C290.111,269.234,290.121,269.155,290.144,269.07z"/>
	<path d="M302.964,270.378c-0.049,5.052-3.526,5.958-7.725,4.805c-1.908-0.524-3.202-1.208-3.805-2.265
		c-0.157,0.457-0.314,0.915-0.469,1.373c1.245,1.184,3.261,1.828,5.412,2.183c4.02,0.661,7.553-1.431,8.017-5.578
		c0.399-3.565-1.697-7.347-5.479-7.791c-1.002-0.118-1.952-0.039-2.838,0.198c-0.319,0.422-0.625,0.861-0.913,1.308
		C298.712,262.784,303.016,265.176,302.964,270.378z"/>
	<path d="M290.35,268.787c-0.079,0.173-0.159,0.346-0.235,0.52c0.022,0.438,0.481,0.636,1.031,0.641
		c0.247-0.617,0.513-1.206,0.787-1.781C291.363,268.212,290.717,268.434,290.35,268.787z"/>
	<path d="M290.078,273.07c0.044-0.146,0.087-0.287,0.131-0.435c0.28-0.933,0.595-1.83,0.937-2.688
		c-0.55-0.005-1.009-0.203-1.031-0.641c-0.063,0.146-0.124,0.293-0.186,0.439C289.571,271.093,289.661,272.186,290.078,273.07z"/>
	<path d="M291.933,268.166c0.05-0.104,0.1-0.209,0.15-0.313c0.035-0.066,0.064-0.143,0.1-0.207c0.688-1.368,1.45-2.601,2.26-3.685
		c-1.208,0.652-2.244,1.618-3.063,2.782c-0.37,0.666-0.713,1.349-1.029,2.043C290.717,268.434,291.363,268.212,291.933,268.166z"/>
	<path d="M295.164,264.61c0.288-0.446,0.594-0.886,0.913-1.308c-0.574,0.154-1.119,0.381-1.635,0.659
		c-0.81,1.084-1.572,2.316-2.26,3.685C292.991,266.172,294.041,265.189,295.164,264.61z"/>
	<path d="M291.26,269.943c0.077-0.293,0.169-0.596,0.292-0.921c0.116-0.31,0.256-0.577,0.39-0.856c-0.003,0-0.006,0-0.009,0
		c-0.274,0.575-0.54,1.164-0.787,1.781C291.184,269.947,291.222,269.945,291.26,269.943z"/>
	<path d="M291.435,272.918c-0.436-0.766-0.506-1.729-0.175-2.975c-0.038,0.002-0.076,0.004-0.114,0.004
		c-0.342,0.858-0.656,1.756-0.937,2.688c-0.044,0.147-0.087,0.288-0.131,0.435c0.216,0.459,0.515,0.866,0.888,1.221
		C291.12,273.833,291.277,273.375,291.435,272.918z"/>
	<path d="M292.083,267.854c-0.051,0.104-0.101,0.208-0.15,0.313c0.003,0,0.006,0,0.009,0
		C291.99,268.064,292.032,267.951,292.083,267.854z"/>
	<path d="M292.919,269.121c0.019-0.045,0.039-0.092,0.059-0.137c0.012-0.037,0.02-0.07,0.032-0.107
		c0.036-0.106,0.037-0.195,0.022-0.277c-0.131,0.299-0.249,0.581-0.354,0.845C292.785,269.348,292.87,269.241,292.919,269.121z"/>
	<path d="M293.01,268.877c-0.013,0.037-0.021,0.07-0.032,0.107c0.848-2.02,2.404-4.484,4.935-3.979
		c2.496,0.497,3.546,3.266,3.594,5.519c0.025,1.213-0.216,2.538-1.013,3.487c-0.879,1.048-2.684,0.674-3.825,0.433
		c-3.222-0.68-4.743-2.254-3.69-5.459c-0.02,0.045-0.04,0.092-0.059,0.137c-0.049,0.12-0.134,0.227-0.24,0.323
		c-0.074,0.187-0.145,0.367-0.205,0.533c-0.357,0.978-0.701,1.958-1.039,2.94c0.603,1.057,1.896,1.74,3.805,2.265
		c4.198,1.153,7.676,0.247,7.725-4.805c0.052-5.202-4.252-7.594-7.8-5.768c-0.88,1.365-1.606,2.794-2.132,3.989
		C293.047,268.682,293.046,268.771,293.01,268.877z"/>
	<path d="M292.083,267.854c0.034-0.068,0.066-0.139,0.1-0.207C292.147,267.711,292.118,267.787,292.083,267.854z"/>
	<path d="M293.032,268.6c0.525-1.195,1.252-2.624,2.132-3.989c-1.123,0.579-2.173,1.562-2.981,3.036
		c-0.033,0.068-0.065,0.139-0.1,0.207c-0.051,0.098-0.093,0.211-0.142,0.313C292.499,268.123,292.972,268.254,293.032,268.6z"/>
	<path d="M292.679,269.444c-0.334,0.302-0.9,0.479-1.419,0.499c-0.331,1.245-0.261,2.209,0.175,2.975
		c0.338-0.982,0.682-1.963,1.039-2.94C292.534,269.812,292.604,269.631,292.679,269.444z"/>
	<path d="M292.679,269.444c0.104-0.264,0.223-0.546,0.354-0.845c-0.061-0.346-0.533-0.477-1.091-0.434
		c-0.134,0.279-0.273,0.547-0.39,0.856c-0.123,0.325-0.215,0.628-0.292,0.921C291.778,269.924,292.345,269.746,292.679,269.444z"/>
	<path fill="none" d="M496.593,231.208c0,14.553-25.354,26.428-28.075,40.183c-2.802,14.173,16.027,34.82,10.621,47.86
		c-5.502,13.265-33.47,14.527-41.363,26.32c-7.957,11.882,1.529,38.197-8.547,48.271c-10.075,10.075-36.393,0.591-48.275,8.545
		c-11.79,7.895-13.052,35.862-26.318,41.363c-13.039,5.407-33.688-13.42-47.858-10.618c-13.755,2.721-25.63,28.075-40.184,28.075
		c-14.553,0-26.428-25.353-40.181-28.075c-14.174-2.802-34.819,16.026-47.86,10.619c-13.267-5.501-14.526-33.467-26.319-41.362
		c-11.883-7.955-38.199,1.529-48.273-8.545c-10.074-10.075-0.592-36.392-8.547-48.273c-7.893-11.793-35.861-13.053-41.362-26.32
		c-5.407-13.04,13.421-33.687,10.618-47.859c-2.721-13.753-28.075-25.631-28.075-40.184s25.353-26.43,28.075-40.183
		c2.803-14.173-16.025-34.82-10.618-47.861c5.501-13.267,33.47-14.526,41.362-26.319c7.955-11.883-1.527-38.197,8.547-48.271
		c10.076-10.075,36.391-0.591,48.273-8.547c11.793-7.895,13.053-35.861,26.319-41.363c13.041-5.406,33.687,13.422,47.86,10.619
		c13.753-2.722,25.628-28.074,40.181-28.074c14.554,0,26.429,25.354,40.184,28.074c14.173,2.803,34.819-16.024,47.86-10.617
		c13.267,5.502,14.526,33.468,26.319,41.364c11.882,7.954,38.2-1.53,48.272,8.545c10.076,10.075,0.592,36.391,8.547,48.272
		c7.894,11.793,35.861,13.054,41.363,26.321c5.406,13.039-13.42,33.687-10.618,47.857
		C471.24,204.779,496.593,216.655,496.593,231.208z"/>
	<path fill="none" stroke="#000000" stroke-width="2.4156" stroke-miterlimit="10" d="M496.593,231.208
		c0,14.553-25.354,26.428-28.075,40.183c-2.802,14.173,16.027,34.82,10.621,47.86c-5.502,13.265-33.47,14.527-41.363,26.32
		c-7.957,11.882,1.529,38.197-8.547,48.271c-10.075,10.075-36.393,0.591-48.275,8.545c-11.79,7.895-13.052,35.862-26.318,41.363
		c-13.039,5.407-33.688-13.42-47.858-10.618c-13.755,2.721-25.63,28.075-40.184,28.075c-14.553,0-26.428-25.353-40.181-28.075
		c-14.174-2.802-34.819,16.026-47.86,10.619c-13.267-5.501-14.526-33.467-26.319-41.362c-11.883-7.955-38.199,1.529-48.273-8.545
		c-10.074-10.075-0.592-36.392-8.547-48.273c-7.893-11.793-35.861-13.053-41.362-26.32c-5.407-13.04,13.421-33.687,10.618-47.859
		c-2.721-13.753-28.075-25.631-28.075-40.184s25.353-26.43,28.075-40.183c2.803-14.173-16.025-34.82-10.618-47.861
		c5.501-13.267,33.47-14.526,41.362-26.319c7.955-11.883-1.527-38.197,8.547-48.271c10.076-10.075,36.391-0.591,48.273-8.547
		c11.793-7.895,13.053-35.861,26.319-41.363c13.041-5.406,33.687,13.422,47.86,10.619c13.753-2.722,25.628-28.074,40.181-28.074
		c14.554,0,26.429,25.354,40.184,28.074c14.173,2.803,34.819-16.024,47.86-10.617c13.267,5.502,14.526,33.468,26.319,41.364
		c11.882,7.954,38.2-1.53,48.272,8.545c10.076,10.075,0.592,36.391,8.547,48.272c7.894,11.793,35.861,13.054,41.363,26.321
		c5.406,13.039-13.42,33.687-10.618,47.857C471.24,204.779,496.593,216.655,496.593,231.208z"/>
	<g>
		<path fill="#FFFFFF" d="M188.735,286.639c-5.799,12.178-17.442,12.9-23.427,8.931c-11.716-7.771-4.872-16.006-11.137-20.877
			c-11.829-10.438-29.973,19.293-32.822-6.96c-1.623-14.961-24.053,10.019-34.911,8.468c-11.135-2.087,1.855-22.502-10.145-22.036
			c-28.648,2.319-53.183-3.712-62.926-18.327c-17.564-26.351-16.28-58.267,7.423-82.349c25.75-26.156,79.597-23.379,100.442,9.976
			c8.118,12.991,12.295,49.061-11.366,67.966c6.263,2.784,24.937-14.382,31.2-2.551c4.175,8.352-7.307,21.921-0.348,29.925
			c5.799,4.986,15.426-12.18,23.427-7.394c7.386,4.419,3.742,15.94,3.598,22.934C167.511,285.478,172.412,297.586,188.735,286.639z"
			/>
		<g>
			<path d="M187.301,286.91c-3.338,6.512-8.954,11.519-16.787,9.844c-5.74-1.227-10.013-6.593-11.193-12.1
				c-0.691-3.229-0.256-7.343-2.994-9.76c-2.326-2.052-4.818-3.26-7.977-3.055c-6.576,0.428-11.709,4.561-17.859,6.317
				c-8.953,2.558-5.179-13.083-10.388-15.461c-9.181-4.19-32.433,22.687-36.756,8.901c-1.547-4.936,2.741-14.148-2.597-17.384
				c-1.012-0.613-2.363-0.597-3.5-0.605c-3.421-0.026-6.886,0.421-10.318,0.476c-7.285,0.117-14.566-0.486-21.729-1.807
				c-10.812-1.992-21.984-6.362-29.109-15.084c-7.554-9.248-11.757-22.023-12.955-33.749c-2.526-24.731,12.167-50.252,34.465-60.977
				c19.768-9.508,44.685-7.542,63.457,3.345c17.106,9.92,25.054,26.323,25.105,45.638c0.04,15.28-5.676,30.272-17.61,40.118
				c-0.068,0.056-0.264,0.274-0.065,0.344c9.532,3.31,25.697-15.468,31.521-1.693c2.753,6.51-2.611,15.111-3.037,21.816
				c-0.331,5.229,2.807,9.609,8.132,7.732c5.255-1.854,12.012-10.732,17.664-7.875c7.604,3.844,3.785,16.406,3.517,22.842
				c-0.241,5.797,1.038,13.442,6.886,16.129c5.338,2.452,12.356-1.461,16.671-4.222c1.186-0.759-1.733-0.313-2.213-0.006
				c-6.863,4.392-13.453,5.3-16.838-2.411c-1.823-4.15-1.784-9.095-1.354-13.512c0.67-6.885,2.868-20.368-7.607-20.707
				c-2.483-0.08-5.024,1.135-7.13,2.299c-3.217,1.778-10.027,9.359-13.22,5.196c-5.979-7.796,3.953-19.304,1.447-28.064
				c-2.004-7.008-10.437-5.47-15.559-3.832c-3.645,1.166-7.095,2.914-10.624,4.373c-2.962,1.225-6.022,1.919-2.464-1.41
				c1.979-1.852,3.705-3.97,5.313-6.144c11.08-14.984,12.15-37.383,5.555-54.402c-6.678-17.234-25.525-27.66-42.715-31.228
				c-17.42-3.615-36.503-0.694-51.894,8.241c-19.437,11.283-31.205,34.123-30.51,56.324c0.392,12.502,5.112,24.492,11.88,34.867
				c5.065,7.765,13.987,12.482,22.646,15.077c12.087,3.623,24.754,4.31,37.296,3.657c4.955-0.258,8.087-0.206,8.509,5.134
				c0.284,3.6-0.534,7.194-0.204,10.805c1.414,15.469,27.431-3.748,32.466-6.207c9.789-4.781,6.024,9.751,11.387,13.859
				c3.734,2.86,10.378-0.844,13.79-2.47c3.804-1.812,7.927-4.079,12.219-2.627c4.552,1.54,5.581,5.803,6.089,9.995
				c1.063,8.789,8.1,15.164,17.009,14.787c7.662-0.324,13.667-5.26,17.056-11.871C190.337,286.041,187.664,286.201,187.301,286.91z"
				/>
		</g>
	</g>
	<g>
		<g>
			<path fill="#C9EBF7" d="M356.359,210.01c-6.032,1.961-6.356,7.653-4.298,11.343c2.578,4.622,13.327,3.919,15.191-1.542
				C369.257,214.07,362.666,206.79,356.359,210.01z"/>
			<g>
				<path d="M355.846,209.632c-5.092,1.886-7.777,6.31-5.511,11.568c1.86,4.317,7.827,4.187,11.642,3.341
					c4.908-1.088,8.244-4.933,6.582-10.04c-1.859-5.713-8.154-6.901-13.046-4.727c-1.754,0.78,0.964,0.793,1.693,0.469
					c7.526-3.345,13.925,12.851,2.686,13.531c-7.869,0.477-10.566-10.593-3.019-13.388
					C358.806,209.672,356.983,209.211,355.846,209.632z"/>
			</g>
		</g>
		<g>
			<path fill="#C9EBF7" d="M395.005,210.01c-6.034,1.961-6.357,7.653-4.298,11.343c2.578,4.622,13.325,3.919,15.189-1.542
				C407.905,214.07,401.311,206.79,395.005,210.01z"/>
			<g>
				<path d="M394.491,209.632c-5.093,1.885-7.778,6.31-5.511,11.568c1.861,4.316,7.825,4.187,11.64,3.341
					c4.908-1.088,8.245-4.934,6.584-10.04c-1.858-5.713-8.154-6.901-13.046-4.727c-1.754,0.78,0.964,0.793,1.693,0.469
					c7.527-3.346,13.923,12.851,2.685,13.531c-7.869,0.477-10.565-10.594-3.018-13.388
					C397.451,209.672,395.629,209.211,394.491,209.632z"/>
			</g>
		</g>
		<g>
			<path fill="#C9EBF7" d="M433.649,210.012c-6.035,1.962-6.358,7.652-4.3,11.343c2.58,4.62,13.326,3.918,15.191-1.541
				C446.546,214.071,439.955,206.792,433.649,210.012z"/>
			<g>
				<path d="M433.136,209.634c-5.093,1.886-7.779,6.309-5.513,11.568c1.86,4.316,7.828,4.186,11.642,3.341
					c4.909-1.088,8.244-4.933,6.583-10.039c-1.859-5.713-8.153-6.902-13.045-4.727c-1.754,0.78,0.964,0.793,1.693,0.469
					c7.525-3.345,13.923,12.851,2.685,13.53c-7.871,0.477-10.566-10.592-3.018-13.387
					C436.096,209.674,434.273,209.213,433.136,209.634z"/>
			</g>
		</g>
		<g>
			<g>
				<g>
					<g>
						<path fill="#C9EBF7" d="M233.921,151.063c0,0-10.291,8.354-21.762,7.149c-5.583-0.584-12.023-5.781-11.87-13.847
							c7.751,0.386,37.133-1.98,37.133-1.98c6.317-28.723-24.663-36.491-37.843-27.34c-22.329,11.45-17.453,50.738,4.629,55.802
							c20.582,4.715,36.257-9.59,36.257-9.59C235.596,153.801,233.921,151.063,233.921,151.063z M212.502,124.585
							c5.868-0.241,9.797,3.438,11.075,7.397c0,0-17.077,0.985-19.289,0.557C203.534,128.993,207.561,124.794,212.502,124.585z"/>
					</g>
					<g>
						<path d="M232.768,150.857c-4.101,3.265-9.187,5.47-14.313,6.414c-8.98,1.654-16.43-4.232-16.716-13.294
							c-0.675,0.39-1.35,0.78-2.023,1.17c12.425,0.492,25.116-1.011,37.497-2.005c0.491-0.04,1.536-0.362,1.655-0.951
							c3.279-16.227-5.899-29.556-22.503-31.399c-13.796-1.532-26.726,7.186-31.127,20.196c-4.781,14.131,0.381,33.607,14.99,39.672
							c13.144,5.457,31.136,0.025,41.391-9.198c0.252-0.227,0.394-0.455,0.195-0.76c-2.204-3.381-4.431-6.754-6.544-10.194
							c-0.471-0.767-3.295,0.138-2.697,1.109c1.015,1.652,2.069,3.281,3.117,4.913c0.387,0.602,3.073,5.006,3.494,4.636
							c-0.451,0.397-0.926,0.766-1.4,1.134c-6.748,5.237-15.144,8.334-23.661,8.707c-18.024,0.791-28.02-14.483-27.598-31.131
							c0.374-14.721,11.27-27.995,26.599-27.666c6.664,0.143,13.209,2.956,17.867,7.694c5.932,6.034,6.579,14.793,4.986,22.674
							c0.552-0.317,1.104-0.634,1.655-0.951c-12.145,0.975-24.578,2.438-36.769,1.956c-0.643-0.025-2.05,0.329-2.023,1.17
							c0.639,20.209,25.604,14.977,36.234,6.514C236.354,150.249,233.45,150.314,232.768,150.857z"/>
						<path d="M211.928,125.367c4.78,0.027,8.531,2.528,10.2,7.004c0.675-0.39,1.349-0.78,2.023-1.17
							c-3.473,0.199-6.948,0.367-10.425,0.504c-2.158,0.085-4.319,0.152-6.479,0.16c-1.586,0.006-1.665,0.401-1.536-1.186
							c0.258-3.167,3.837-5.051,6.581-5.337c1.376-0.144,2.436-1.725,0.42-1.515c-4.691,0.489-10.474,3.622-9.873,9.1
							c0.025,0.229,0.38,0.34,0.554,0.366c6.299,0.925,13.276-0.166,19.61-0.529c0.421-0.024,2.325-0.361,2.023-1.17
							c-1.948-5.223-6.526-7.76-11.95-7.791C212.044,123.797,209.971,125.355,211.928,125.367z"/>
					</g>
				</g>
			</g>
			<g>
				<g>
					<g>
						<path fill="#C9EBF7" d="M306.033,151.063c0,0-10.29,8.354-21.764,7.149c-5.58-0.584-12.021-5.781-11.869-13.847
							c7.753,0.386,37.133-1.98,37.133-1.98c6.32-28.723-24.666-36.491-37.839-27.34c-22.332,11.45-17.454,50.738,4.627,55.802
							c20.579,4.715,36.255-9.59,36.255-9.59C307.707,153.801,306.033,151.063,306.033,151.063z M284.615,124.585
							c5.868-0.241,9.794,3.438,11.075,7.397c0,0-17.081,0.985-19.29,0.557C275.644,128.993,279.672,124.794,284.615,124.585z"/>
					</g>
					<g>
						<path d="M304.897,150.921c-4.108,3.271-9.169,5.491-14.309,6.438c-9.012,1.659-16.451-4.331-16.739-13.382
							c-0.682,0.364-1.363,0.728-2.045,1.092c12.309,0.487,24.871-0.996,37.133-1.98c0.519-0.042,1.896-0.239,2.035-0.922
							c3.283-16.239-5.893-29.469-22.479-31.311c-13.747-1.527-26.751,7.193-31.137,20.156c-4.782,14.134,0.368,33.54,14.971,39.603
							c13.089,5.434,31.174-0.034,41.384-9.216c0.088-0.079,0.431-0.349,0.313-0.529c-2.205-3.381-4.432-6.754-6.543-10.194
							c-0.52-0.846-3.25,0.203-2.898,0.776c1.015,1.653,2.069,3.281,3.117,4.913c0.39,0.607,3.243,5.19,3.61,4.866
							c-0.45,0.397-0.926,0.766-1.399,1.134c-6.768,5.252-15.109,8.347-23.656,8.721c-17.739,0.778-27.598-13.984-27.641-30.348
							c-0.041-15.159,11.246-29.39,27.166-28.573c6.497,0.333,12.76,3.083,17.314,7.716c5.937,6.039,6.593,14.837,4.998,22.723
							c0.679-0.308,1.356-0.615,2.035-0.922c-12.263,0.984-24.825,2.467-37.133,1.98c-0.562-0.022-2.069,0.325-2.045,1.092
							c0.643,20.179,25.635,14.877,36.218,6.45C308.403,150.221,305.501,150.44,304.897,150.921z"/>
						<path d="M284.02,125.289c4.792,0.027,8.555,2.617,10.222,7.082c0.682-0.364,1.363-0.728,2.044-1.092
							c-3.474,0.199-6.949,0.367-10.426,0.504c-2.159,0.085-4.319,0.152-6.48,0.16c-1.631,0.006-1.699,0.399-1.563-1.289
							c0.256-3.153,3.832-5.115,6.566-5.4c1.302-0.135,2.493-1.551,0.467-1.34c-4.646,0.483-10.5,3.554-9.897,9.012
							c0.024,0.217,0.387,0.28,0.536,0.302c6.291,0.925,13.282-0.181,19.608-0.543c0.363-0.021,2.313-0.37,2.044-1.092
							c-1.954-5.23-6.518-7.682-11.929-7.713C284.281,123.876,282.074,125.277,284.02,125.289z"/>
					</g>
				</g>
			</g>
			<g>
				<g>
					<g>
						<path fill="#C9EBF7" d="M386.122,135.289c-1.386-29.48-39.448-25.085-55.953-19.988c-2.415,27.369,0.825,73.764,0.805,79.154
							c4.288,0.226,13.005-0.06,15.567-0.269c0-10.464,0.265-23.881,0.265-33.54C363.173,164.27,387.188,157.962,386.122,135.289z
							 M346.567,145.794c-0.701-6.171-0.745-12.516-0.474-18.687c11.62-4.696,24.822-1.597,25.53,7.243
							C372.429,144.413,361.964,149.782,346.567,145.794z"/>
					</g>
					<g>
						<path d="M387.571,134.901c-1.856-28.58-37.589-26.652-57.663-20.575c-0.49,0.148-1.156,0.501-1.206,1.09
							c-2.234,26.45,0.692,52.728,0.805,79.154c0.003,0.537,0.424,0.9,0.961,0.922c5.298,0.22,10.651,0.115,15.94-0.263
							c0.559-0.04,1.599-0.45,1.6-1.158c0.013-11.181,0.25-22.359,0.265-33.54c-0.657,0.384-1.315,0.769-1.973,1.153
							c18.635,3.863,41.849-4.484,41.289-26.51c-0.038-1.507-2.966-1.042-2.934,0.23c0.519,20.39-20.001,27.8-37.344,24.205
							c-0.637-0.132-1.972,0.346-1.973,1.153c-0.014,11.181-0.252,22.359-0.265,33.54c0.533-0.386,1.066-0.772,1.6-1.158
							c-5.037,0.36-10.148,0.483-15.194,0.274c0.32,0.308,0.641,0.615,0.961,0.922c-0.113-26.427-3.04-52.704-0.805-79.154
							c-0.402,0.363-0.804,0.727-1.206,1.09c19.171-5.804,52.479-7.757,54.243,19.402
							C384.757,136.97,387.661,136.283,387.571,134.901z"/>
						<path d="M348.017,145.406c-0.376-3.647-0.561-7.283-0.608-10.947c-0.025-1.87,0.029-3.741,0.08-5.61
							c0.058-2.097,4.685-2.458,5.813-2.636c5.498-0.866,12.164,0.112,15.665,4.84c3.025,4.088,0.645,9.979-2.976,12.637
							c-5.083,3.732-12.946,2.496-18.584,1.141c-1.223-0.293-3.434,1.506-1.68,1.928c9.636,2.315,25.728,2.573,27.365-10.44
							c1.833-14.562-19.271-13.18-27.636-10.047c-0.351,0.131-0.814,0.545-0.83,0.952c-0.244,6.34-0.158,12.646,0.491,18.959
							C345.253,147.489,348.158,146.784,348.017,145.406z"/>
					</g>
				</g>
			</g>
			<g>
				<path fill="#C9EBF7" d="M152.363,93.771c-0.156,8.89,0.739,67.564,1.231,78.029c3.444-0.17,14.757-0.024,14.757-0.024
					c-0.123-8.949-1.11-67.475-0.983-78.128L152.363,93.771z"/>
				<g>
					<path d="M150.91,93.938c-0.397,26.009,0.063,52.265,1.235,78.251c0.023,0.514,0.963,0.481,1.267,0.47
						c4.788-0.188,9.599-0.07,14.389-0.011c0.515,0.006,2.015-0.271,2.004-1.038c-0.363-26.03-1.25-52.095-0.983-78.128
						c0.005-0.499-0.438-0.709-0.903-0.705c-5.001,0.041-10.003,0.082-15.004,0.123c-1.146,0.009-3.061,1.759-1.102,1.743
						c5.002-0.041,10.004-0.082,15.006-0.123c-0.301-0.235-0.603-0.47-0.903-0.705c-0.266,26.033,0.62,52.098,0.983,78.128
						c0.668-0.346,1.336-0.692,2.004-1.038c-5.038-0.063-10.089-0.159-15.125,0.038c0.422,0.157,0.845,0.313,1.267,0.47
						c-1.167-25.839-1.623-51.944-1.228-77.808C153.836,92.324,150.926,92.91,150.91,93.938z"/>
				</g>
			</g>
			<g>
				<path fill="#C9EBF7" d="M402.64,113.846c1.43-0.021,12.769-0.852,15.322-0.852c-1.561,11.798-1.845,32.066,14.755,32.35
					c11.21-1.243,11.917-20.552,9.87-32.776l15.386,0.854c4.759,31.923-10.217,76.046-55.757,80.16c0,0-1.91-9.931-1.91-15.038
					c24.324-3.971,28.468-18.313,28.468-18.313s-8.826,0.437-18.046-7.51C402.2,145.373,398.538,129.83,402.64,113.846z"/>
				<g>
					<path d="M402.475,114.77c4.988-0.163,9.961-0.771,14.953-0.845c-0.308-0.261-0.615-0.522-0.924-0.783
						c-1.426,11.221-1.938,31.215,13.313,32.944c16.931,1.919,15.911-23.197,14.219-33.907c-0.661,0.44-1.322,0.879-1.983,1.319
						c3.199,0.177,6.398,0.355,9.598,0.532c1.709,0.095,3.418,0.189,5.127,0.285c1.219,0.067-0.193-0.081-0.111,0.495
						c0.192,1.354,0.32,2.716,0.439,4.079c0.907,10.367-0.43,20.935-3.441,30.87c-7.226,23.83-26.367,40.403-51.283,42.898
						c0.428,0.178,0.855,0.357,1.284,0.536c-0.926-4.864-1.796-9.84-1.901-14.798c-0.541,0.357-1.082,0.715-1.623,1.072
						c10.928-1.927,26.437-7.269,30.091-19.384c0.211-0.7-0.896-0.789-1.293-0.776c-7.794,0.253-16.485-5.508-20.961-11.863
						c-6.723-9.546-6.477-22.909-3.88-33.746c0.298-1.244-2.646-0.826-2.916,0.296c-2.867,11.968-2.438,25.335,4.861,35.7
						c4.716,6.697,14.282,11.73,22.565,11.461c-0.431-0.258-0.862-0.517-1.293-0.776c-3.231,10.714-17.229,15.545-26.845,17.241
						c-0.476,0.083-1.638,0.385-1.623,1.072c0.109,5.127,0.962,10.248,1.919,15.278c0.099,0.52,0.89,0.575,1.284,0.536
						c19.647-1.968,36.588-11.734,47.134-28.558c9.694-15.465,12.78-35.009,10.237-52.914c-0.055-0.383-0.609-0.526-0.915-0.543
						c-5.128-0.284-10.257-0.569-15.386-0.854c-0.704-0.039-2.134,0.366-1.983,1.319c1.384,8.755,2.751,37.264-13.668,30.243
						c-10.557-4.514-9.207-21.25-8.05-30.352c0.064-0.506-0.482-0.79-0.924-0.783c-5.239,0.077-10.456,0.688-15.691,0.858
						C401.263,112.972,400.486,114.834,402.475,114.77z"/>
				</g>
			</g>
			<g>
				<path fill="#C9EBF7" d="M135.646,106.644c-4.814-5.513-11.962-10.62-18.527-12.637c-8.754-2.82-19.55-2.284-26.991,3.361
					c-7.878,6.046-10.065,11.964-9.191,21.235c0.876,8.87,7.411,16.265,15.727,18.282c10.505,2.016,29.914,5.966,21.058,17.001
					c-10.523,13.105-32.259-5.188-36.347-7.729c-2.876,4.322-5.037,8.498-7.001,13.441c19.255,13.171,58.356,23.927,60.224-13.841
					c0.499-10.091-8.141-16.939-20.833-18.839c-6.065-0.905-12.693-0.921-15.319-6.971c-1.313-3.224,0.729-9.948,3.794-11.963
					c7.879-4.841,20.425,4.033,25.823,9.006C131.855,112.286,134.481,109.097,135.646,106.644z"/>
				<g>
					<path d="M136.983,106.046c-11.274-12.414-29.249-19.291-45.003-10.999c-13.517,7.115-16.872,24.817-6.86,36.365
						c4.738,5.465,11.365,6.328,17.974,7.878c5.122,1.202,16.803,3.749,15.183,11.139c-1.049,4.784-6.421,7.294-10.821,7.198
						c-4.079-0.089-8.105-1.902-11.678-3.701c-4.737-2.385-8.836-5.669-13.266-8.527c-0.741-0.478-2.055-0.02-2.502,0.67
						c-2.778,4.278-5.071,8.721-7.001,13.441c-0.148,0.362-0.113,0.618,0.227,0.847c16.001,10.785,48.371,21.989,59.692-0.903
						c2.833-5.727,4.192-13.552,2.361-19.736c-2.111-7.132-9.689-10.903-16.274-12.772c-7.989-2.267-22.249-1.038-18.858-13.583
						c3.581-13.247,20.927-0.855,26.568,4.227c0.631,0.568,1.991,0.377,2.521-0.279c2.717-3.367,5.764-6.713,7.766-10.578
						c0.695-1.341-2.229-1.14-2.729-0.177c-1.922,3.71-4.796,6.884-7.404,10.117c0.841-0.093,1.681-0.186,2.521-0.279
						c-8.399-7.566-27.855-18.639-32.474-1.553c-2.241,8.29,5.739,11.491,12.37,12.472c9.747,1.442,21.258,4.193,23.646,15.344
						c1.564,7.307-1.668,17.091-6.711,22.427c-4.937,5.223-12.52,6.144-19.314,5.644c-7.26-0.535-14.406-2.972-20.979-5.989
						c-2.841-1.304-5.579-2.823-8.236-4.465c-2.409-1.489-0.966-3.026,0.085-5.308c1.401-3.042,3.131-5.916,4.952-8.72
						c-0.834,0.224-1.668,0.447-2.502,0.67c8.761,5.652,17.453,12.978,28.518,12.525c5.208-0.213,9.798-3.64,12.041-8.226
						c2.41-4.926-2.209-8.498-6.122-10.421c-5.813-2.857-12.293-3.421-18.442-5.14c-10.438-2.917-14.75-14.027-13.843-23.889
						c0.98-10.673,11.498-17.395,21.322-18.409c11.867-1.225,22.903,5.41,30.6,13.884
						C135.075,108.084,137.841,106.99,136.983,106.046z"/>
				</g>
			</g>
		</g>
	</g>
</g>
</svg>
