<?xml version="1.0" encoding="utf-8"?>
<!-- Generator: Adobe Illustrator 13.0.0, SVG Export Plug-In . SVG Version: 6.00 Build 14948)  -->
<svg version="1.2" baseProfile="tiny" id="Layer_1" xmlns="http://www.w3.org/2000/svg" xmlns:xlink="http://www.w3.org/1999/xlink"
	 x="0px" y="0px" width="400.531px" height="448.074px" viewBox="0 0 400.531 448.074" xml:space="preserve">
<g>
	<path fill="#FFFFFF" stroke="#231F20" stroke-width="2" stroke-linecap="round" stroke-linejoin="round" d="M371.41,305.689
		c17.844-29.414,28.121-63.928,28.121-100.844c0-107.52-87.168-194.684-194.691-194.684c-107.52,0-194.684,87.164-194.684,194.684
		c0,70.609,37.59,132.436,93.844,166.568l0,0c0,0,74.523,47.076,240.066,75.66c0,0-24.547-43.58,27.344-141.381V305.689z"/>
	<g>
		<g>
			<g>
				<path fill="#F16824" d="M69.063,137.131C31.532,137.131,1,106.598,1,69.066S31.532,1,69.063,1
					c37.532,0,68.066,30.535,68.066,68.066S106.595,137.131,69.063,137.131z"/>
			</g>
			<g>
				<path fill="#231F20" d="M69.063,2c37.043,0,67.066,30.025,67.066,67.066s-30.023,67.064-67.066,67.064
					C32.023,136.131,2,106.107,2,69.066S32.023,2,69.063,2 M69.063,0C30.981,0,0,30.983,0,69.066
					c0,38.082,30.981,69.064,69.063,69.064c38.083,0,69.066-30.982,69.066-69.064C138.129,30.983,107.146,0,69.063,0L69.063,0z"/>
			</g>
		</g>
		<g>
			<path fill="#FFFFFF" d="M44.961,51.191c0,3.283-2.66,5.943-5.941,5.943c-3.285,0-5.941-2.66-5.941-5.943s2.656-5.941,5.941-5.941
				C42.301,45.25,44.961,47.908,44.961,51.191z"/>
			<path fill="#231F20" d="M39.02,58.135c-3.827,0-6.941-3.114-6.941-6.943c0-3.827,3.114-6.941,6.941-6.941
				s6.941,3.114,6.941,6.941C45.961,55.021,42.847,58.135,39.02,58.135z M39.02,46.25c-2.725,0-4.941,2.217-4.941,4.941
				c0,2.727,2.217,4.943,4.941,4.943s4.941-2.217,4.941-4.943C43.961,48.467,41.744,46.25,39.02,46.25z"/>
		</g>
		<g>
			<circle fill="#FFFFFF" cx="95.711" cy="51.191" r="5.941"/>
			<path fill="#231F20" d="M95.711,58.135c-3.827,0-6.941-3.114-6.941-6.943c0-3.827,3.114-6.941,6.941-6.941
				s6.941,3.114,6.941,6.941C102.652,55.021,99.538,58.135,95.711,58.135z M95.711,46.25c-2.725,0-4.941,2.217-4.941,4.941
				c0,2.727,2.217,4.943,4.941,4.943s4.941-2.217,4.941-4.943C100.652,48.467,98.436,46.25,95.711,46.25z"/>
		</g>
		<g>
			<rect x="36.766" y="75.174" fill="#FFFFFF" width="60.059" height="30.35"/>
			<path fill="#231F20" d="M96.824,106.523H36.766c-0.553,0-1-0.447-1-1v-30.35c0-0.552,0.447-1,1-1h60.059c0.553,0,1,0.448,1,1
				v30.35C97.824,106.076,97.377,106.523,96.824,106.523z M37.766,104.523h58.059v-28.35H37.766V104.523z"/>
		</g>
		<g>
			<line fill="#FFFFFF" x1="106.934" y1="57.135" x2="106.934" y2="66.049"/>
			<path fill="#231F20" d="M106.934,67.049c-0.553,0-1-0.447-1-1v-8.914c0-0.552,0.447-1,1-1s1,0.448,1,1v8.914
				C107.934,66.602,107.486,67.049,106.934,67.049z"/>
		</g>
		<g>
			<line fill="#FBE901" x1="113.301" y1="50.344" x2="113.301" y2="70.293"/>
			<path fill="#231F20" d="M113.301,71.293c-0.553,0-1-0.447-1-1V50.344c0-0.552,0.447-1,1-1s1,0.448,1,1v19.949
				C114.301,70.846,113.854,71.293,113.301,71.293z"/>
		</g>
	</g>
</g>
</svg>
