<?xml version="1.0" encoding="utf-8"?>
<!-- Generator: Adobe Illustrator 13.0.0, SVG Export Plug-In . SVG Version: 6.00 Build 14948)  -->
<svg version="1.2" baseProfile="tiny" id="Layer_1" xmlns="http://www.w3.org/2000/svg" xmlns:xlink="http://www.w3.org/1999/xlink"
	 x="0px" y="0px" width="472.895px" height="535.618px" viewBox="0 0 472.895 535.618" xml:space="preserve">
<g>
	<g>
		<path fill="#FFFFFF" d="M471,299.168c-42.648,26.497-48.016,51.74-18.433,91.299c-49.005,6.359-63.058,27.036-50.268,74.555
			c-47.517-12.79-68.195,1.262-74.552,50.269c-39.561-29.584-64.804-24.214-91.3,18.433c-26.498-42.646-51.742-48.017-91.301-18.433
			c-6.358-49.007-27.036-63.059-74.554-50.269c12.79-47.519-1.262-68.195-50.269-74.555c29.583-39.559,24.213-64.802-18.431-91.299
			c42.644-26.498,48.014-51.74,18.431-91.299c49.007-6.359,63.059-27.037,50.269-74.556c47.518,12.791,68.195-1.261,74.554-50.267
			c39.559,29.583,64.803,24.213,91.301-18.433c26.496,42.646,51.739,48.016,91.3,18.433c6.356,49.006,27.035,63.058,74.552,50.267
			c-12.79,47.519,1.263,68.196,50.268,74.556C422.984,247.428,428.352,272.67,471,299.168z"/>
		<path fill="#FFFFFF" stroke="#231F20" stroke-width="2" stroke-miterlimit="10" d="M471,299.168
			c-42.648,26.497-48.016,51.74-18.433,91.299c-49.005,6.359-63.058,27.036-50.268,74.555c-47.517-12.79-68.195,1.262-74.552,50.269
			c-39.561-29.584-64.804-24.214-91.3,18.433c-26.498-42.646-51.742-48.017-91.301-18.433
			c-6.358-49.007-27.036-63.059-74.554-50.269c12.79-47.519-1.262-68.195-50.269-74.555c29.583-39.559,24.213-64.802-18.431-91.299
			c42.644-26.498,48.014-51.74,18.431-91.299c49.007-6.359,63.059-27.037,50.269-74.556c47.518,12.791,68.195-1.261,74.554-50.267
			c39.559,29.583,64.803,24.213,91.301-18.433c26.496,42.646,51.739,48.016,91.3,18.433c6.356,49.006,27.035,63.058,74.552,50.267
			c-12.79,47.519,1.263,68.196,50.268,74.556C422.984,247.428,428.352,272.67,471,299.168z"/>
	</g>
	<g>
		<path fill="#95D2F3" d="M287.988,160.973c-16.551-36.579-27.383-32.734-48.169-41.346c21.831,0.133,38.89-1.907,34.69-24.336
			c-3.884-18.46-16.152-33.972-31.362-53.659c20.499,11.533,45.017,25.679,66.303,12.442c15.313-9.519,18.833-29.073,13.732-47.834
			c12.412,14.077,21.691,26.413,36.53,23.423c17.625-3.552,20.098-15.795,21.734-29.008c7.179,12.304,12.452,23.039,34.987,36.079
			c-40.603-4.335-66.951,0.091-95.367,25.692C288.57,91.699,282.147,122.84,287.988,160.973z"/>
		<g>
			<path fill="#231F20" d="M289.244,160.637c-5.277-11.479-11.384-23.698-22.129-31.002c-7.805-5.305-17.648-7.063-26.286-10.573
				c-0.504,0.401-1.013,0.803-1.518,1.204c12.323,0.04,32.828,0.791,36.659-14.491c2.563-10.218-3.283-22.231-7.947-30.941
				c-6.473-12.088-15.354-22.866-23.701-33.67c-0.729,0.345-1.458,0.688-2.184,1.033c19.169,10.789,41.609,23.915,63.883,14.424
				c19.963-8.508,23.224-31.915,18.416-50.717c-0.809,0.268-1.618,0.537-2.428,0.805c10.79,12.288,21.634,27.188,39.815,23.05
				c14.758-3.359,19.146-15.717,20.87-29.283c-0.835,0.173-1.671,0.345-2.504,0.517c3.486,5.999,6.921,11.952,11.337,17.331
				c6.514,7.935,15.133,13.809,23.896,18.977c0.599-0.396,1.196-0.791,1.793-1.187c-17.203-1.781-34.546-2.412-51.546,1.31
				c-16.636,3.643-31.309,12.474-44.074,23.508c-14.391,12.438-26.048,27.841-32.168,45.955c-5.903,17.481-5.363,36.41-2.698,54.425
				C286.842,162.042,289.367,161.472,289.244,160.637c-2.428-16.383-2.86-32.908,1.203-49.07
				c4.158-16.539,13.699-30.914,25.424-43.071c12.534-13.001,27.816-23.562,45.22-28.733c17.598-5.23,36.526-4.271,54.56-2.405
				c0.435,0.044,2.829-0.577,1.794-1.188c-8.322-4.908-16.103-10.453-22.598-17.652c-4.909-5.444-8.482-11.896-12.146-18.198
				c-0.372-0.644-2.41-0.229-2.504,0.517c-1.619,12.733-4.89,23.922-18.663,27.836c-16.254,4.621-27.988-12.431-37.178-22.899
				c-0.431-0.493-2.625,0.038-2.429,0.805c4.587,17.938,2.153,38.264-15.179,48.327c-20.105,11.675-45.127-4.009-62.588-13.837
				c-0.488-0.273-2.752,0.299-2.185,1.034c12.607,16.317,26.605,32.949,31.278,53.527c1.707,7.512,0.455,15.57-6.57,19.719
				c-7.434,4.391-18.052,3.668-26.355,3.642c-0.346-0.001-2.553,0.783-1.518,1.203c8.277,3.364,17.324,5.209,25.057,9.806
				c11.302,6.723,17.595,19.849,22.864,31.313C287.094,162.094,289.541,161.281,289.244,160.637z"/>
		</g>
	</g>
	<g>
		<path fill="#B83878" stroke="#231F20" stroke-linecap="round" stroke-linejoin="round" stroke-miterlimit="10" d="
			M330.248,169.155c-1.715-0.637-3.272-1.082-5.079-0.526c-2.714,0.845-4.676,3.32-6.226,5.586
			c-3.072,4.492-5.018,11.497-1.682,16.385c1.683,2.47,3.956,5.641,7.105,6.271c2.067,0.414,3.475-0.459,4.39-2.171
			c1.183-2.21,1.625-4.553,1.984-7.022c0.201-1.335,0.569-2.628,0.795-3.964c0.285-1.704,0.311-3.275,0.314-4.981
			c0.009-3.059,0.434-7.4-2.106-9.596"/>
		<g>
			<path fill="#B83878" d="M328.175,199.542c-2.19-2.575-4.725-6.291-6.665-8.665l-23.918-7.312
				c2.072,3.744,4.569,8.053,4.569,8.053S321.842,198.744,328.175,199.542l6.836-25.282l-5.514-6.742"/>
			<g>
				<path fill="#231F20" d="M329.319,198.974c-1.647-2.021-4.707-8.253-7.181-9.01c-2.16-0.661-4.324-1.321-6.487-1.983
					c-5.78-1.767-11.561-3.535-17.345-5.303c-0.834-0.255-2.478,0.351-1.859,1.456c0.951,1.705,3.014,7.654,5.001,8.372
					c2.03,0.732,4.067,1.44,6.11,2.143c6.554,2.255,13.31,4.808,20.191,5.856c0.537,0.081,1.468-0.183,1.632-0.79
					c1.813-6.708,3.629-13.417,5.442-20.127c0.358-1.325,1.822-4.244,1.441-5.665c-0.619-2.316-4.094-5.105-5.623-6.975
					c-0.77-0.94-3.143,0.094-2.292,1.138c1.501,1.837,3.005,3.674,4.509,5.511c0.77,0.942,0.823,0.926,0.861,0.793
					c-0.271,0.993-0.538,1.987-0.808,2.981c-1.687,6.238-3.372,12.476-5.062,18.713c-0.235,0.874-0.47,1.747-0.708,2.62
					c-0.302,1.121,1.488-0.083-0.31-0.432c-4.284-0.826-8.493-2.308-12.638-3.653c-3.332-1.08-6.646-2.227-9.946-3.396
					c-2.658-0.942-4.061-5.626-5.512-8.227c-0.621,0.484-1.241,0.971-1.86,1.456c5.006,1.53,10.014,3.061,15.021,4.592
					c2.552,0.779,5.105,1.56,7.657,2.34c3.079,0.941,5.453,6.247,7.472,8.727C327.798,201.053,330.169,200.02,329.319,198.974
					L329.319,198.974z"/>
			</g>
		</g>
		<g>
			<path fill="#ED4B97" d="M321.51,190.877c1.558-5.585,7.035-24.483,7.035-24.483s-18.079-4.631-24.221-6.344l-6.732,23.516
				C297.592,183.565,315.709,188.913,321.51,190.877z"/>
			<g>
				<path fill="#231F20" d="M322.753,190.679c2.295-8.176,4.673-16.327,7.036-24.483c0.052-0.17-0.062-0.292-0.226-0.334
					c-8.081-2.07-16.178-4.12-24.221-6.342c-0.55-0.152-2.066,0.04-2.266,0.729c-2.243,7.838-4.485,15.676-6.73,23.516
					c-0.049,0.175,0.063,0.285,0.227,0.334c7.99,2.359,16.01,4.676,23.917,7.31c0.632,0.212,2.901-0.774,2.038-1.062
					c-5.345-1.782-10.749-3.377-16.145-4.997c-2.095-0.629-4.191-1.253-6.289-1.876c-1.527-0.453-1.323,0.124-0.931-1.248
					c2.136-7.457,4.27-14.914,6.403-22.373c-0.753,0.244-1.509,0.486-2.263,0.729c2.545,0.704,23.83,6.576,23.968,6.106
					c-2.354,8.124-4.723,16.244-7.007,24.388C320.074,191.751,322.555,191.387,322.753,190.679z"/>
			</g>
		</g>
		<g>
			<path fill="#B83878" d="M371.418,40.418l7.298,12.47c0,0-37.772,106.202-40.467,108.593c0,0-25.902-6.715-29.142-9.458
				c0,0-0.212-1.325-0.863-6.53"/>
			<g>
				<path fill="#231F20" d="M370.164,40.755c1.479,2.526,7.99,10.42,7.079,12.985c-1.51,4.231-3.021,8.459-4.534,12.688
					c-6.031,16.845-12.106,33.675-18.265,50.475c-5.106,13.935-10.005,28.034-15.871,41.674c-0.269,0.627-0.552,1.251-0.846,1.869
					c-0.881,1.848-0.563-0.031,1.465,0.496c-3.346-0.87-6.678-1.791-10.003-2.733c-4.689-1.328-9.364-2.729-13.958-4.36
					c-5.473-1.946-5.016-3.044-5.731-8.693c-0.074-0.586-2.604-0.058-2.512,0.673c0.262,2.088-0.239,6.005,1.837,7.217
					c2.758,1.609,6.084,2.464,9.1,3.438c6.362,2.057,12.828,3.833,19.302,5.515c0.65,0.17,1.7-0.08,2.168-0.58
					c1.368-1.47,2.018-4.055,2.76-5.857c2.096-5.099,4.042-10.261,5.993-15.416c5.586-14.764,10.981-29.601,16.359-44.441
					c4.384-12.104,8.738-24.218,13.066-36.342c0.795-2.219,1.588-4.439,2.376-6.659c0.701-1.967-6.081-10.581-7.274-12.619
					C372.276,39.4,369.909,40.32,370.164,40.755L370.164,40.755z"/>
			</g>
		</g>
		<g>
			<path fill="#ED4B97" d="M332.396,152.567c1.461,2.625,3.517,5.313,4.233,6.633"/>
			<g>
				<path fill="#231F20" d="M331.14,152.903c1.295,2.285,2.945,4.351,4.233,6.634c0.437,0.77,2.834-0.102,2.511-0.673
					c-1.289-2.285-2.937-4.347-4.232-6.634C333.218,151.462,330.816,152.334,331.14,152.903L331.14,152.903z"/>
			</g>
		</g>
		<g>
			<path fill="#ED4B97" d="M333.011,153.439c0,0,32.194-90.149,38.407-113.021c0,0-25.852-7.744-36.338-9.861
				c-4.919,17.99-26.756,114.564-26.836,114.936L333.011,153.439z"/>
			<g>
				<path fill="#231F20" d="M334.266,153.271c13.332-37.346,27.898-74.765,38.406-113.021c0.051-0.181-0.073-0.368-0.246-0.421
					c-12.076-3.611-24.227-7.349-36.569-9.929c-0.581-0.121-1.843,0.139-2.028,0.822c-10.287,37.914-18.287,76.598-26.839,114.937
					c-0.04,0.185,0.067,0.361,0.251,0.42c8.256,2.649,16.51,5.299,24.769,7.947c0.727,0.233,3.002-0.857,2.008-1.176
					c-5.118-1.643-10.236-3.284-15.353-4.927c-2.764-0.887-5.524-1.771-8.286-2.657c-1.257-0.404-0.951,0.354-0.696-0.762
					c2.228-9.859,4.475-19.715,6.724-29.568c6.441-28.194,12.354-56.632,19.928-84.549c-0.677,0.274-1.351,0.549-2.028,0.823
					c7.936,1.657,15.746,3.92,23.542,6.133c3.619,1.027,7.228,2.079,10.832,3.146c2.306,0.682,1.164,1.297,0.496,3.582
					c-3.952,13.485-8.59,26.785-13.125,40.082c-7.918,23.213-16.043,46.356-24.291,69.453
					C331.476,154.4,333.979,154.075,334.266,153.271z"/>
			</g>
		</g>
	</g>
	<g>
		<path fill="#B83878" stroke="#231F20" stroke-linecap="round" stroke-linejoin="round" stroke-miterlimit="10" d="M368.015,204.31
			c-1.501-1.041-2.902-1.858-4.788-1.766c-2.841,0.146-5.35,2.061-7.416,3.873c-4.09,3.592-7.706,9.897-5.682,15.462
			c1.019,2.807,2.438,6.44,5.333,7.829c1.898,0.912,3.481,0.415,4.791-1.018c1.694-1.847,2.696-4.008,3.66-6.312
			c0.526-1.245,1.202-2.407,1.751-3.645c0.699-1.581,1.111-3.097,1.535-4.748c0.767-2.964,2.251-7.065,0.333-9.819"/>
		<g>
			<path fill="#B83878" d="M358.49,233.238c-1.48-3.034-3.02-7.265-4.315-10.045l-21.364-12.997
				c1.084,4.139,2.435,8.932,2.435,8.932S352.551,230.899,358.49,233.238l12.878-22.806l-3.676-7.897"/>
			<g>
				<path fill="#231F20" d="M359.745,232.902c-1.073-2.321-2.532-9.198-4.686-10.509c-1.931-1.174-3.86-2.35-5.794-3.523
					c-5.166-3.144-10.331-6.286-15.494-9.428c-0.73-0.444-2.522-0.063-2.217,1.091c0.484,1.826,1.044,8.203,2.729,9.349
					c1.786,1.212,3.589,2.401,5.391,3.588c5.791,3.802,11.698,7.94,18.102,10.656c0.706,0.298,1.565-0.08,1.923-0.715
					c3.417-6.052,6.834-12.104,10.253-18.154c0.421-0.747,3.125-4.188,2.673-5.161c-1.226-2.633-2.45-5.265-3.678-7.897
					c-0.539-1.16-3.03-0.443-2.51,0.673c1.196,2.571,2.392,5.143,3.591,7.714c0.063,0.133-2.478,4.293-3.024,5.264
					c-3.241,5.738-6.48,11.478-9.721,17.217c0.642-0.238,1.28-0.476,1.922-0.715c-5.841-2.477-11.223-6.244-16.527-9.684
					c-1.937-1.256-3.858-2.534-5.773-3.821c-1.783-1.198-2.253-6.778-2.838-8.985c-0.738,0.362-1.476,0.727-2.216,1.09
					c4.474,2.721,8.947,5.441,13.417,8.163c2.282,1.387,4.561,2.774,6.84,4.16c2.799,1.703,3.767,7.371,5.125,10.302
					C357.773,234.736,360.263,234.02,359.745,232.902L359.745,232.902z"/>
			</g>
		</g>
		<g>
			<path fill="#ED4B97" d="M354.175,223.193c2.893-5.024,12.875-21.981,12.875-21.981s-16.372-8.96-21.902-12.138l-12.337,21.122
				C332.811,210.196,349.041,219.856,354.175,223.193z"/>
			<g>
				<path fill="#231F20" d="M355.422,222.996c4.243-7.354,8.566-14.663,12.872-21.982c0.038-0.101,0.014-0.184-0.067-0.253
					c-7.32-4.008-14.654-7.996-21.901-12.139c-0.66-0.376-2.038-0.007-2.421,0.649c-4.112,7.041-8.227,14.082-12.338,21.123
					c-0.038,0.101-0.017,0.186,0.067,0.254c7.159,4.262,14.355,8.489,21.363,12.997c0.653,0.419,2.835-0.594,2.354-0.903
					c-4.563-2.933-9.223-5.713-13.869-8.512c-1.969-1.183-7.955-3.328-6.787-5.326c3.899-6.676,7.798-13.352,11.699-20.028
					c-0.807,0.217-1.615,0.433-2.423,0.649c2.018,1.153,21.611,12.261,21.777,11.978c-4.288,7.287-8.592,14.566-12.819,21.889
					C352.664,223.855,355.028,223.671,355.422,222.996z"/>
			</g>
		</g>
		<g>
			<path fill="#B83878" d="M439.749,89.755l3.984,13.887c0,0-62.862,93.56-66.068,95.21c0,0-23.435-12.912-25.897-16.372
				c0,0,0.124-1.334,0.782-6.54"/>
			<g>
				<path fill="#231F20" d="M438.493,90.091c0.624,2.18,5.008,12.251,3.954,13.82c-1.305,1.941-2.609,3.88-3.916,5.818
					c-6.955,10.321-13.934,20.629-20.933,30.921c-8.681,12.76-17.386,25.502-26.221,38.155c-3.182,4.556-6.381,9.099-9.655,13.587
					c-1.376,1.888-3.007,5.08-5.03,6.379c0.717-0.12,1.437-0.242,2.15-0.364c-5.06-2.793-10.063-5.688-15.009-8.681
					c-3.067-1.857-6.116-3.77-8.982-5.928c-2.789-2.101-1.461-4.854-1.059-8.065c0.091-0.729-2.405-0.241-2.486,0.411
					c-0.198,1.584-1.61,5.703-0.412,7.143c2.055,2.479,5.58,4.204,8.253,5.891c5.657,3.566,11.486,6.886,17.341,10.118
					c0.619,0.343,1.606-0.015,2.15-0.364c1.711-1.1,2.986-3.44,4.166-5.024c3.293-4.421,6.457-8.94,9.621-13.453
					c8.851-12.619,17.541-25.353,26.215-38.094c7.485-10.994,14.94-22.012,22.376-33.041c1.316-1.955,2.634-3.91,3.95-5.866
					c1.141-1.699-3.319-11.798-3.96-14.035C440.816,88.765,438.311,89.456,438.493,90.091L438.493,90.091z"/>
			</g>
		</g>
		<g>
			<path fill="#ED4B97" d="M374.199,188.768c0.768,2.906,2.094,6.018,2.462,7.476"/>
			<g>
				<path fill="#231F20" d="M372.944,189.104c0.69,2.534,1.771,4.944,2.461,7.475c0.21,0.77,2.72,0.092,2.512-0.673
					c-0.69-2.53-1.767-4.94-2.462-7.475C375.245,187.662,372.733,188.34,372.944,189.104L372.944,189.104z"/>
			</g>
		</g>
		<g>
			<path fill="#ED4B97" d="M374.581,189.766c0,0,53.487-79.386,65.168-100.011c0,0-23.133-13.897-32.77-18.543
				c-9.218,16.216-54.262,104.387-54.43,104.728L374.581,189.766z"/>
			<g>
				<path fill="#231F20" d="M375.745,189.772c22.155-32.888,45.522-65.541,65.168-100.012c0.154-0.271,0.108-0.434-0.16-0.594
					c-10.736-6.445-21.518-13.026-32.77-18.543c-0.567-0.279-1.84,0.004-2.168,0.581c-19.378,34.249-36.713,69.815-54.518,104.901
					c-0.102,0.197,0.12,0.342,0.247,0.421c7.344,4.609,14.687,9.218,22.032,13.826c0.655,0.413,2.989-0.562,2.008-1.176
					c-4.553-2.857-9.105-5.714-13.655-8.571c-2.457-1.542-4.915-3.083-7.37-4.624c-1.183-0.742-0.957,0.178-0.334-1.038
					c4.746-9.296,9.51-18.582,14.283-27.866c13.019-25.346,25.599-51.054,39.635-75.86c-0.722,0.194-1.444,0.389-2.168,0.582
					c7.277,3.569,14.29,7.694,21.292,11.766c3.104,1.805,6.193,3.63,9.28,5.464c2.418,1.438,1.971,0.867,0.616,3.171
					c-7.255,12.341-15.207,24.292-23.03,36.272c-13.416,20.531-27.013,40.946-40.717,61.287
					C372.793,190.685,375.312,190.417,375.745,189.772z"/>
			</g>
		</g>
	</g>
</g>
</svg>
