<?xml version="1.0" encoding="utf-8"?>
<!-- Generator: Adobe Illustrator 13.0.0, SVG Export Plug-In . SVG Version: 6.00 Build 14948)  -->
<svg version="1.2" baseProfile="tiny" id="Layer_1" xmlns="http://www.w3.org/2000/svg" xmlns:xlink="http://www.w3.org/1999/xlink"
	 x="0px" y="0px" width="471.972px" height="471.973px" viewBox="0 0 471.972 471.973" xml:space="preserve">
<polygon fill="#FFFFFF" stroke="#231F20" stroke-width="2" stroke-miterlimit="10" points="470.539,235.577 430.835,274.413 
	452.891,325.396 401.305,346.009 402.127,401.552 346.583,400.923 326.149,452.579 275.094,430.702 236.395,470.54 197.557,430.837 
	146.578,452.894 125.962,401.308 70.422,402.13 71.05,346.587 19.395,326.151 41.274,275.093 1.433,236.396 41.137,197.56 
	19.081,146.579 70.667,125.964 69.844,70.423 125.391,71.052 145.824,19.396 196.879,41.272 235.578,1.433 274.413,41.14 
	325.395,19.083 346.01,70.667 401.553,69.845 400.924,125.39 452.58,145.823 430.7,196.88 "/>
</svg>
