<?xml version="1.0" encoding="utf-8"?>
<!-- Generator: Adobe Illustrator 13.0.0, SVG Export Plug-In . SVG Version: 6.00 Build 14948)  -->
<svg version="1.2" baseProfile="tiny" id="Layer_1" xmlns="http://www.w3.org/2000/svg" xmlns:xlink="http://www.w3.org/1999/xlink"
	 x="0px" y="0px" width="422px" height="322px" viewBox="0 0 422 322" xml:space="preserve">
<path fill="#FFFFFF" stroke="#000000" stroke-width="2" stroke-linecap="round" stroke-linejoin="round" d="M420.999,139.947
	C420.735,63.107,326.499,0.896,210.52,1C94.542,1.102,0.737,63.477,1,140.318c0.188,54.333,47.363,101.34,115.979,124.188
	l-0.045,0.002c0,0,29.922,9.576,53.289,21.332c0,0,34.506,18.405,41.381,35.111V321c0.002-0.008,0.008-0.018,0.01-0.025
	c0.004,0.008,0.008,0.018,0.012,0.025v-0.049c6.758-16.717,41.135-35.184,41.135-35.184c23.287-11.797,53.145-21.426,53.145-21.426
	l-0.023-0.002C374.338,241.373,421.188,194.28,420.999,139.947z"/>
</svg>
