<?xml version="1.0" encoding="utf-8"?>
<!-- Generator: Adobe Illustrator 13.0.0, SVG Export Plug-In . SVG Version: 6.00 Build 14948)  -->
<svg version="1.2" baseProfile="tiny" id="Layer_1" xmlns="http://www.w3.org/2000/svg" xmlns:xlink="http://www.w3.org/1999/xlink"
	 x="0px" y="0px" width="422px" height="322.049px" viewBox="0 0 422 322.049" xml:space="preserve">
<g>
	<path fill="#FFFFFF" stroke="#000000" stroke-width="2" stroke-linecap="round" stroke-linejoin="round" d="M210.734,8.158
		c29.987-12.79,58.585-8.206,78.116,11.877c32.506-3.414,55.947,8.672,63.832,32.649c31.5,5.923,47.445,23.738,43.082,48.517
		c26.432,14.807,32.551,36.578,15.871,59.474c16.76,22.836,10.715,44.629-15.662,59.529c4.449,24.764-11.436,42.635-42.914,48.663
		c-7.805,24.007-31.199,36.175-63.719,32.873c-19.459,20.151-48.041,24.837-78.074,12.15c-29.989,12.79-58.585,8.206-78.117-11.876
		c-32.508,3.412-55.946-8.672-63.832-32.65c-31.499-5.922-47.445-23.736-43.084-48.517c-26.43-14.806-32.548-36.579-15.869-59.474
		c-16.761-22.837-10.716-44.631,15.663-59.529c-4.452-24.765,11.433-42.634,42.913-48.664c7.803-24.006,31.198-36.174,63.717-32.873
		C152.12,0.155,180.701-4.529,210.734,8.158z"/>
	<path fill="#FFFFFF" stroke="#000000" stroke-width="2" stroke-linecap="round" stroke-linejoin="round" d="M210.734,8.158
		c29.987-12.79,58.585-8.206,78.116,11.877c32.506-3.414,55.947,8.672,63.832,32.649c31.5,5.923,47.445,23.738,43.082,48.517
		c26.432,14.807,32.551,36.578,15.871,59.474c16.76,22.836,10.715,44.629-15.662,59.529c4.449,24.764-11.436,42.635-42.914,48.663
		c-7.805,24.007-31.199,36.175-63.719,32.873c-19.459,20.151-48.041,24.837-78.074,12.15c-29.989,12.79-58.585,8.206-78.117-11.876
		c-32.508,3.412-55.946-8.672-63.832-32.65c-31.499-5.922-47.445-23.736-43.084-48.517c-26.43-14.806-32.548-36.579-15.869-59.474
		c-16.761-22.837-10.716-44.631,15.663-59.529c-4.452-24.765,11.433-42.634,42.913-48.664c7.803-24.006,31.198-36.174,63.717-32.873
		C152.12,0.155,180.701-4.529,210.734,8.158z"/>
</g>
</svg>
