<?xml version="1.0" encoding="utf-8"?>
<!-- Generator: Adobe Illustrator 13.0.0, SVG Export Plug-In . SVG Version: 6.00 Build 14948)  -->
<svg version="1.2" baseProfile="tiny" id="Layer_1" xmlns="http://www.w3.org/2000/svg" xmlns:xlink="http://www.w3.org/1999/xlink"
	 x="0px" y="0px" width="422px" height="344.707px" viewBox="0 0 422 344.707" xml:space="preserve">
<path fill="#FFFFFF" stroke="#000000" stroke-width="2" stroke-linecap="round" stroke-linejoin="round" d="M10.365,161.375
	c-16.76-22.837-10.717-44.631,15.662-59.529C21.578,77.083,37.462,59.211,68.941,53.18c7.801-24.006,31.199-36.172,63.717-32.873
	c19.461-20.149,48.043-24.834,78.074-12.148c29.99-12.791,58.589-8.207,78.12,11.877c32.508-3.415,55.945,8.672,63.83,32.65
	c31.502,5.92,47.447,23.734,43.084,48.514c26.43,14.807,32.551,36.58,15.871,59.475c16.758,22.836,10.715,44.632-15.662,59.529
	c4.447,24.764-11.438,42.634-42.914,48.666c-7.803,24.006-31.199,36.172-63.72,32.871c-19.461,20.149-48.042,24.836-78.074,12.149
	c-25.527,10.889-50.043,9.178-68.82-3.959l-24.189,33.774l2.867-41.14c-26.227-0.435-44.93-12.295-51.807-33.203
	c-31.5-5.92-47.445-23.735-43.082-48.514C-0.194,206.042-6.315,184.27,10.365,161.375z"/>
</svg>
