<?xml version="1.0" encoding="utf-8"?>
<!-- Generator: Adobe Illustrator 13.0.0, SVG Export Plug-In . SVG Version: 6.00 Build 14948)  -->
<svg version="1.2" baseProfile="tiny" id="Layer_1" xmlns="http://www.w3.org/2000/svg" xmlns:xlink="http://www.w3.org/1999/xlink"
	 x="0px" y="0px" width="422px" height="344.381px" viewBox="0 0 422 344.381" xml:space="preserve">
<path fill="#FFFFFF" stroke="#000000" stroke-width="2" stroke-linecap="round" stroke-linejoin="round" d="M411.636,160.674
	c16.68-22.895,10.561-44.667-15.871-59.474c4.365-24.779-11.582-42.595-43.082-48.517c-7.885-23.979-31.324-36.063-63.83-32.649
	C269.321-0.047,240.722-4.632,210.735,8.159c-30.033-12.688-58.615-8.003-78.076,12.149c-32.52-3.302-55.915,8.866-63.717,32.872
	c-31.48,6.03-47.365,23.9-42.914,48.664c-26.379,14.899-32.424,36.693-15.662,59.529c-16.68,22.896-10.561,44.668,15.869,59.476
	c-4.362,24.778,11.584,42.594,43.084,48.516c7.886,23.979,31.324,36.063,63.832,32.648c19.531,20.084,48.127,24.668,78.116,11.877
	c25.565,10.801,50.075,9.004,68.806-4.197l24.31,33.688l-3.013-41.131c26.226-0.522,44.888-12.451,51.691-33.383
	c31.479-6.031,47.361-23.9,42.912-48.664C422.351,205.304,428.396,183.511,411.636,160.674z"/>
</svg>
