<?xml version="1.0" encoding="utf-8"?>
<!-- Generator: Adobe Illustrator 13.0.0, SVG Export Plug-In . SVG Version: 6.00 Build 14948)  -->
<svg version="1.2" baseProfile="tiny" id="Layer_1" xmlns="http://www.w3.org/2000/svg" xmlns:xlink="http://www.w3.org/1999/xlink"
	 x="0px" y="0px" width="422.002px" height="322px" viewBox="0 0 422.002 322" xml:space="preserve">
<path fill="#FFFFFF" stroke="#000000" stroke-width="2" stroke-linecap="round" stroke-linejoin="round" d="M1,161.365
	c31.08-18.873,36.054-36.81,16.396-62.306C55.1,91.913,68.174,77.205,62.311,48.123c38.192,4.363,57.446-5.652,66.688-34.408
	C162.541,28.604,186.064,24.748,210.721,1C235.461,24.66,259,28.434,292.486,13.432c9.344,28.721,28.633,38.666,66.812,34.172
	c-5.763,29.104,7.362,43.763,45.094,50.778c-19.568,25.568-14.531,43.485,16.611,62.251c-31.078,18.875-36.054,36.811-16.394,62.306
	c-37.707,7.146-50.779,21.854-44.918,50.938c-38.193-4.36-57.447,5.652-66.691,34.406c-33.538-14.885-57.062-11.031-81.72,12.717
	c-24.742-23.66-48.277-27.434-81.764-12.432c-3.316-10.195-7.896-18.014-14.119-23.672L86.62,317.968l8.129-43.115
	c-8.828-1.84-19.393-1.947-32.043-0.457c5.762-29.104-7.361-43.766-45.092-50.779C37.182,198.05,32.145,180.132,1,161.365z"/>
</svg>
