<?xml version="1.0" encoding="utf-8"?>
<!-- Generator: Adobe Illustrator 13.0.0, SVG Export Plug-In . SVG Version: 6.00 Build 14948)  -->
<svg version="1.2" baseProfile="tiny" id="Layer_1" xmlns="http://www.w3.org/2000/svg" xmlns:xlink="http://www.w3.org/1999/xlink"
	 x="0px" y="0px" width="421.999px" height="321.999px" viewBox="0 0 421.999 321.999" xml:space="preserve">
<g>
	<path fill="#FFFFFF" stroke="#000000" stroke-width="2" stroke-linecap="round" stroke-linejoin="round" d="M210.72,1
		c24.74,23.659,48.277,27.434,81.765,12.429c9.342,28.722,28.633,38.67,66.809,34.175c-5.761,29.102,7.364,43.764,45.095,50.779
		c-19.569,25.566-14.533,43.483,16.611,62.248c-31.079,18.876-36.053,36.812-16.395,62.308
		c-37.706,7.146-50.777,21.854-44.915,50.938c-38.194-4.363-57.448,5.65-66.691,34.405c-33.538-14.886-57.061-11.03-81.719,12.718
		c-24.741-23.662-48.278-27.436-81.764-12.432c-9.344-28.723-28.634-38.668-66.811-34.174c5.762-29.104-7.362-43.766-45.094-50.78
		C37.181,198.048,32.144,180.13,1,161.364c31.077-18.874,36.052-36.808,16.395-62.308c37.706-7.146,50.779-21.853,44.916-50.936
		c38.192,4.362,57.447-5.651,66.69-34.405C162.538,28.6,186.063,24.745,210.72,1z"/>
	<path fill="#FFFFFF" stroke="#000000" stroke-width="2" stroke-linecap="round" stroke-linejoin="round" d="M210.72,1
		c24.74,23.659,48.277,27.434,81.765,12.429c9.342,28.722,28.633,38.67,66.809,34.175c-5.761,29.102,7.364,43.764,45.095,50.779
		c-19.569,25.566-14.533,43.483,16.611,62.248c-31.079,18.876-36.053,36.812-16.395,62.308
		c-37.706,7.146-50.777,21.854-44.915,50.938c-38.194-4.363-57.448,5.65-66.691,34.405c-33.538-14.886-57.061-11.03-81.719,12.718
		c-24.741-23.662-48.278-27.436-81.764-12.432c-9.344-28.723-28.634-38.668-66.811-34.174c5.762-29.104-7.362-43.766-45.094-50.78
		C37.181,198.048,32.144,180.13,1,161.364c31.077-18.874,36.052-36.808,16.395-62.308c37.706-7.146,50.779-21.853,44.916-50.936
		c38.192,4.362,57.447-5.651,66.69-34.405C162.538,28.6,186.063,24.745,210.72,1z"/>
</g>
</svg>
