<?xml version="1.0" encoding="utf-8"?>
<!-- Generator: Adobe Illustrator 13.0.0, SVG Export Plug-In . SVG Version: 6.00 Build 14948)  -->
<svg version="1.2" baseProfile="tiny" id="Layer_1" xmlns="http://www.w3.org/2000/svg" xmlns:xlink="http://www.w3.org/1999/xlink"
	 x="0px" y="0px" width="422px" height="327.83px" viewBox="0 0 422 327.83" xml:space="preserve">
<g>
	<polygon fill="#FFFFFF" stroke="#000000" stroke-width="2" stroke-linecap="round" stroke-linejoin="round" points="210.717,1 
		235.564,26.674 264.977,6.375 284,36.607 314.793,22.113 324.805,54.612 358.053,47.379 358.381,79.881 390.91,79.564 
		382.422,110.907 413.127,119.338 394.885,145.39 421,163.548 394.949,181.8 413.281,207.785 382.605,216.321 391.203,247.639 
		358.674,247.434 358.459,279.938 325.182,272.82 315.287,305.353 284.443,290.968 265.525,321.266 236.043,301.07 211.285,326.83 
		186.435,301.155 157.023,321.453 138,291.222 107.209,305.717 97.197,273.217 63.949,280.451 63.62,247.948 31.091,248.265 
		39.578,216.919 8.872,208.49 27.116,182.441 1,164.281 27.052,146.03 8.72,120.043 39.395,111.507 30.798,80.191 63.327,80.396 
		63.543,47.893 96.818,55.01 106.713,22.478 137.557,36.862 156.475,6.564 185.957,26.759 	"/>
	<polygon fill="#FFFFFF" stroke="#000000" stroke-width="2" stroke-linecap="round" stroke-linejoin="round" points="210.717,1 
		235.564,26.674 264.977,6.375 284,36.607 314.793,22.113 324.805,54.612 358.053,47.379 358.381,79.881 390.91,79.564 
		382.422,110.907 413.127,119.338 394.885,145.39 421,163.548 394.949,181.8 413.281,207.785 382.605,216.321 391.203,247.639 
		358.674,247.434 358.459,279.938 325.182,272.82 315.287,305.353 284.443,290.968 265.525,321.266 236.043,301.07 211.285,326.83 
		186.435,301.155 157.023,321.453 138,291.222 107.209,305.717 97.197,273.217 63.949,280.451 63.62,247.948 31.091,248.265 
		39.578,216.919 8.872,208.49 27.116,182.441 1,164.281 27.052,146.03 8.72,120.043 39.395,111.507 30.798,80.191 63.327,80.396 
		63.543,47.893 96.818,55.01 106.713,22.478 137.557,36.862 156.475,6.564 185.957,26.759 	"/>
</g>
</svg>
