<?xml version="1.0" encoding="utf-8"?>
<!-- Generator: Adobe Illustrator 13.0.0, SVG Export Plug-In . SVG Version: 6.00 Build 14948)  -->
<svg version="1.2" baseProfile="tiny" id="Layer_1" xmlns="http://www.w3.org/2000/svg" xmlns:xlink="http://www.w3.org/1999/xlink"
	 x="0px" y="0px" width="422.002px" height="333.449px" viewBox="0 0 422.002 333.449" xml:space="preserve">
<g>
	<polygon fill="#FFFFFF" stroke="#000000" stroke-width="2" stroke-linecap="round" stroke-linejoin="round" points="210.717,1 
		235.564,26.674 264.978,6.375 284.001,36.607 314.793,22.115 324.804,54.611 358.054,47.379 358.381,79.881 390.91,79.564 
		382.422,110.908 413.127,119.338 394.885,145.391 421.002,163.549 394.949,181.801 413.281,207.787 382.607,216.322 
		391.203,247.639 358.674,247.434 358.459,279.938 325.181,272.82 325.916,332.449 284.445,290.969 265.525,321.266 236.044,301.07 
		211.285,326.83 186.436,301.156 157.023,321.453 138,291.223 107.209,305.717 97.197,273.219 63.949,280.451 63.62,247.949 
		31.092,248.266 39.579,216.92 8.873,208.492 27.116,182.441 1,164.281 27.053,146.029 8.721,120.043 39.396,111.508 30.799,80.191 
		63.328,80.396 63.543,47.893 96.819,55.01 106.715,22.479 137.557,36.863 156.476,6.564 185.957,26.76 	"/>
</g>
</svg>
