<?xml version="1.0" encoding="utf-8"?>
<!-- Generator: Adobe Illustrator 13.0.0, SVG Export Plug-In . SVG Version: 6.00 Build 14948)  -->
<svg version="1.2" baseProfile="tiny" id="Layer_1" xmlns="http://www.w3.org/2000/svg" xmlns:xlink="http://www.w3.org/1999/xlink"
	 x="0px" y="0px" width="422.002px" height="333.85px" viewBox="0 0 422.002 333.85" xml:space="preserve">
<g>
	<polygon fill="#FFFFFF" stroke="#000000" stroke-width="2" stroke-linecap="round" stroke-linejoin="round" points="210.715,1 
		185.957,26.76 156.473,6.564 137.555,36.863 106.713,22.477 96.814,55.01 63.541,47.893 63.326,80.396 30.797,80.193 
		39.395,111.508 8.719,120.045 27.053,146.031 1,164.281 27.115,182.441 8.873,208.492 39.578,216.92 31.092,248.268 
		63.619,247.949 63.947,280.451 97.199,273.217 96.674,332.85 138,291.223 157.023,321.455 186.436,301.158 211.283,326.83 
		236.045,301.07 265.526,321.264 284.446,290.967 315.288,305.354 325.185,272.82 358.459,279.938 358.676,247.434 391.204,247.637 
		382.606,216.32 413.284,207.785 394.948,181.801 421.002,163.549 394.886,145.389 413.129,119.338 382.424,110.91 390.909,79.563 
		358.383,79.881 358.054,47.379 324.802,54.613 314.795,22.113 284.001,36.607 264.976,6.375 235.564,26.672 	"/>
</g>
</svg>
