<?xml version="1.0" encoding="utf-8"?>
<!-- Generator: Adobe Illustrator 13.0.0, SVG Export Plug-In . SVG Version: 6.00 Build 14948)  -->
<svg version="1.2" baseProfile="tiny" id="Layer_1" xmlns="http://www.w3.org/2000/svg" xmlns:xlink="http://www.w3.org/1999/xlink"
	 x="0px" y="0px" width="422.002px" height="326.109px" viewBox="0 0 422.002 326.109" xml:space="preserve">
<path fill="#FFFFFF" stroke="#000000" stroke-width="2" stroke-linecap="round" stroke-linejoin="round" d="M21.994,134.75
	c2.666-10.01-9.283-26.063-4.197-35.266c5.193-9.392,25.57-8.389,32.998-16.721C57.9,74.796,54.283,54.76,63.18,47.96
	c9.323-7.131,28.735,0.972,39.743-4.662c10.472-5.356,15.05-25.879,26.785-29.686c12.32-3.992,29.246,9.66,42.679,7.592
	c12.819-1.973,24.752-20.18,38.329-20.205c13.576-0.022,25.574,18.144,38.402,20.07c13.439,2.022,30.315-11.689,42.649-7.738
	c11.752,3.764,16.396,24.269,26.889,29.59c11.027,5.595,30.412-2.573,39.763,4.523c8.92,6.771,5.368,26.815,12.506,34.76
	c7.457,8.307,27.83,7.23,33.055,16.605c5.119,9.184-6.771,25.278-4.072,35.278c2.691,9.97,21.074,18.025,21.095,28.601
	c0.018,10.574-18.339,18.694-20.994,28.672c-2.664,10.01,9.282,26.063,4.194,35.264c-5.19,9.394-25.567,8.39-32.998,16.722
	c-7.106,7.969-3.485,28.002-12.383,34.803c-9.326,7.131-28.735-0.972-39.746,4.662c-10.471,5.356-15.047,25.879-26.783,29.686
	c-12.319,3.994-29.245-9.66-42.681-7.592c-12.82,1.975-24.752,20.182-38.328,20.205c-13.578,0.024-25.574-18.142-38.399-20.07
	c-13.441-2.021-30.316,11.691-42.65,7.74c-8.115-2.603-12.844-13.185-18.447-21.236l-29.123,33.445l8.256-43.896
	c-9.887,0.148-20.95,2.421-27.336-2.43c-8.92-6.77-5.371-26.813-12.506-34.76c-7.457-8.305-27.83-7.23-33.055-16.604
	c-5.119-9.186,6.772-25.28,4.072-35.28C19.402,182.051,1.018,173.996,1,163.422C0.982,152.85,19.338,144.727,21.994,134.75z"/>
</svg>
