<?xml version="1.0" encoding="utf-8"?>
<!-- Generator: Adobe Illustrator 13.0.0, SVG Export Plug-In . SVG Version: 6.00 Build 14948)  -->
<svg version="1.2" baseProfile="tiny" id="Layer_1" xmlns="http://www.w3.org/2000/svg" xmlns:xlink="http://www.w3.org/1999/xlink"
	 x="0px" y="0px" width="421.999px" height="326.109px" viewBox="0 0 421.999 326.109" xml:space="preserve">
<g>
	<path fill="#FFFFFF" stroke="#000000" stroke-width="2" stroke-linecap="round" stroke-linejoin="round" d="M210.717,1
		c13.578-0.022,25.573,18.142,38.4,20.071c13.439,2.021,30.316-11.69,42.65-7.74c11.751,3.765,16.399,24.271,26.889,29.591
		c11.028,5.594,30.412-2.575,39.761,4.523c8.921,6.77,5.372,26.816,12.506,34.759c7.457,8.308,27.83,7.234,33.056,16.606
		c5.118,9.184-6.774,25.279-4.073,35.28c2.691,9.968,21.075,18.024,21.094,28.598c0.019,10.575-18.337,18.694-20.993,28.671
		c-2.667,10.01,9.282,26.064,4.195,35.268c-5.193,9.391-25.568,8.389-32.998,16.719c-7.105,7.97-3.487,28.002-12.383,34.803
		c-9.325,7.133-28.739-0.969-39.746,4.662c-10.473,5.358-15.047,25.88-26.785,29.686c-12.32,3.994-29.243-9.658-42.677-7.591
		c-12.82,1.973-24.752,20.182-38.33,20.204c-13.576,0.024-25.571-18.143-38.399-20.071c-13.441-2.021-30.317,11.692-42.652,7.74
		c-11.75-3.765-16.396-24.271-26.887-29.591c-11.029-5.596-30.411,2.575-39.763-4.523c-8.918-6.77-5.369-26.815-12.503-34.76
		c-7.46-8.307-27.833-7.231-33.058-16.605c-5.119-9.185,6.772-25.278,4.073-35.278C19.402,182.053,1.019,173.996,1,163.422
		s18.337-18.695,20.992-28.672c2.665-10.01-9.281-26.064-4.194-35.266c5.191-9.393,25.567-8.389,32.997-16.721
		c7.107-7.969,3.487-28.002,12.384-34.804c9.325-7.13,28.739,0.97,39.746-4.662c10.473-5.357,15.046-25.878,26.785-29.685
		c12.32-3.992,29.243,9.66,42.675,7.59C185.207,19.23,197.141,1.024,210.717,1z"/>
	<path fill="#FFFFFF" stroke="#000000" stroke-width="2" stroke-linecap="round" stroke-linejoin="round" d="M210.717,1
		c13.578-0.022,25.573,18.142,38.4,20.071c13.439,2.021,30.316-11.69,42.65-7.74c11.751,3.765,16.399,24.271,26.889,29.591
		c11.028,5.594,30.412-2.575,39.761,4.523c8.921,6.77,5.372,26.816,12.506,34.759c7.457,8.308,27.83,7.234,33.056,16.606
		c5.118,9.184-6.774,25.279-4.073,35.28c2.691,9.968,21.075,18.024,21.094,28.598c0.019,10.575-18.337,18.694-20.993,28.671
		c-2.667,10.01,9.282,26.064,4.195,35.268c-5.193,9.391-25.568,8.389-32.998,16.719c-7.105,7.97-3.487,28.002-12.383,34.803
		c-9.325,7.133-28.739-0.969-39.746,4.662c-10.473,5.358-15.047,25.88-26.785,29.686c-12.32,3.994-29.243-9.658-42.677-7.591
		c-12.82,1.973-24.752,20.182-38.33,20.204c-13.576,0.024-25.571-18.143-38.399-20.071c-13.441-2.021-30.317,11.692-42.652,7.74
		c-11.75-3.765-16.396-24.271-26.887-29.591c-11.029-5.596-30.411,2.575-39.763-4.523c-8.918-6.77-5.369-26.815-12.503-34.76
		c-7.46-8.307-27.833-7.231-33.058-16.605c-5.119-9.185,6.772-25.278,4.073-35.278C19.402,182.053,1.019,173.996,1,163.422
		s18.337-18.695,20.992-28.672c2.665-10.01-9.281-26.064-4.194-35.266c5.191-9.393,25.567-8.389,32.997-16.721
		c7.107-7.969,3.487-28.002,12.384-34.804c9.325-7.13,28.739,0.97,39.746-4.662c10.473-5.357,15.046-25.878,26.785-29.685
		c12.32-3.992,29.243,9.66,42.675,7.59C185.207,19.23,197.141,1.024,210.717,1z"/>
</g>
</svg>
