<?xml version="1.0" encoding="utf-8"?>
<!-- Generator: Adobe Illustrator 13.0.0, SVG Export Plug-In . SVG Version: 6.00 Build 14948)  -->
<svg version="1.2" baseProfile="tiny" id="Layer_1" xmlns="http://www.w3.org/2000/svg" xmlns:xlink="http://www.w3.org/1999/xlink"
	 x="0px" y="0px" width="422px" height="326.111px" viewBox="0 0 422 326.111" xml:space="preserve">
<path fill="#FFFFFF" stroke="#000000" stroke-width="2" stroke-linecap="round" stroke-linejoin="round" d="M399.906,134.092
	c-2.701-10,9.191-26.096,4.074-35.28c-5.227-9.371-25.6-8.299-33.057-16.604c-7.136-7.942-3.584-27.99-12.506-34.762
	c-9.351-7.098-28.732,1.072-39.761-4.521c-10.489-5.321-15.139-25.827-26.889-29.592c-12.336-3.949-29.211,9.762-42.65,7.74
	C236.291,19.143,224.294,0.979,210.717,1c-13.575,0.025-25.51,18.23-38.332,20.205c-13.432,2.07-30.354-11.584-42.674-7.59
	c-11.739,3.805-16.313,24.326-26.786,29.684c-11.007,5.634-30.421-2.469-39.744,4.662c-8.896,6.804-5.276,26.834-12.386,34.804
	c-7.429,8.334-27.806,7.329-32.997,16.721c-5.087,9.203,6.86,25.256,4.195,35.268C19.338,144.729,0.981,152.848,1,163.422
	c0.02,10.574,18.402,18.634,21.095,28.601c2.698,10-9.191,26.094-4.073,35.278c5.226,9.373,25.599,8.3,33.058,16.604
	c7.134,7.945,3.585,27.99,12.504,34.762c9.352,7.099,28.732-1.071,39.763,4.521c10.489,5.321,15.137,25.828,26.887,29.592
	c12.336,3.951,29.211-9.762,42.652-7.74c12.827,1.931,24.823,20.097,38.399,20.072c13.578-0.023,25.509-18.23,38.33-20.205
	c13.434-2.068,30.357,11.586,42.676,7.59c8.107-2.627,12.8-13.227,18.373-21.299l29.24,33.344l-8.41-43.865
	c9.89,0.113,20.961,2.347,27.33-2.524c8.896-6.803,5.277-26.834,12.383-34.803c7.431-8.332,27.806-7.328,32.998-16.72
	c5.086-9.203-6.862-25.258-4.194-35.27c2.653-9.978,21.012-18.094,20.992-28.668C420.982,152.117,402.597,144.059,399.906,134.092z"
	/>
</svg>
