<?xml version="1.0" encoding="utf-8"?>
<!-- Generator: Adobe Illustrator 13.0.0, SVG Export Plug-In . SVG Version: 6.00 Build 14948)  -->
<svg version="1.2" baseProfile="tiny" id="Layer_1" xmlns="http://www.w3.org/2000/svg" xmlns:xlink="http://www.w3.org/1999/xlink"
	 x="0px" y="0px" width="421.002px" height="321.496px" viewBox="0 0 421.002 321.496" xml:space="preserve">
<path fill="#FFFFFF" stroke="#000000" d="M0.501,115.747C0.492,88.028,7.96,63.255,22.486,43.483
	C42.462,16.29,77.789,0.829,116.437,0.829c38.623,0,72.852,27.611,93.926,53.438c20.982-25.898,55.116-53.631,93.741-53.766
	c38.646-0.135,74.029,15.205,94.1,42.326c14.597,19.721,22.148,44.469,22.236,72.186c0,0,4.355,66.828-60.352,114.363h0.006
	c0,0-75.171,57.349-188.04,91.254c0,0,15.631-24.549-48.142-55.461c0,0-36.481-17.433-49.449-25.971
	c-0.131-0.087-0.268-0.164-0.397-0.246h0.018C-0.831,190.732,0.501,115.747,0.501,115.747z"/>
</svg>
