<?xml version="1.0" encoding="utf-8"?>
<!-- Generator: Adobe Illustrator 13.0.0, SVG Export Plug-In . SVG Version: 6.00 Build 14948)  -->
<svg version="1.2" baseProfile="tiny" id="Layer_1" xmlns="http://www.w3.org/2000/svg" xmlns:xlink="http://www.w3.org/1999/xlink"
	 x="0px" y="0px" width="422px" height="321.999px" viewBox="0 0 422 321.999" xml:space="preserve">
<path fill="#FFFFFF" stroke="#000000" stroke-width="2" stroke-linecap="round" stroke-linejoin="round" d="M420.998,115.347
	c-0.088-27.678-7.643-52.389-22.24-72.082c-20.072-27.084-55.459-42.398-94.113-42.264c-38.627,0.135-72.764,27.824-93.75,53.686
	c-21.076-25.787-55.311-53.359-93.939-53.359c-38.654,0-73.986,15.439-93.965,42.592C8.46,63.663,0.994,88.401,1.001,116.077
	c0,0-1.664,92.363,101.334,137.887c100.385,49.588,109.051,67.035,109.051,67.035c1.209-2.121,8.549-17.477,108.76-67.414
	C422.984,207.7,420.998,115.347,420.998,115.347z"/>
</svg>
