<?xml version="1.0" encoding="utf-8"?>
<!-- Generator: Adobe Illustrator 13.0.0, SVG Export Plug-In . SVG Version: 6.00 Build 14948)  -->
<svg version="1.2" baseProfile="tiny" id="Layer_1" xmlns="http://www.w3.org/2000/svg" xmlns:xlink="http://www.w3.org/1999/xlink"
	 x="0px" y="0px" width="420.998px" height="321.359px" viewBox="0 0 420.998 321.359" xml:space="preserve">
<path fill="#FFFFFF" stroke="#000000" d="M420.496,115.015c-0.088-27.719-7.641-52.467-22.235-72.188
	c-20.07-27.121-55.453-42.461-94.103-42.324c-38.622,0.135-72.756,27.865-93.739,53.764C189.345,28.44,155.115,0.827,116.491,0.827
	c-38.649,0-73.979,15.463-93.953,42.653C8.01,63.255,0.543,88.03,0.552,115.747c0,0-4.122,66.844,60.751,114.151h-0.004
	c0,0,75.369,57.086,188.358,90.601c0,0-15.716-24.496,47.948-55.631c0,0,36.42-17.558,49.359-26.144
	c0.129-0.086,0.266-0.164,0.396-0.246l-0.018-0.002C422.091,189.999,420.496,115.015,420.496,115.015z"/>
</svg>
