<?xml version="1.0" encoding="utf-8"?>
<!-- Generator: Adobe Illustrator 13.0.0, SVG Export Plug-In . SVG Version: 6.00 Build 14948)  -->
<svg version="1.2" baseProfile="tiny" id="Layer_1" xmlns="http://www.w3.org/2000/svg" xmlns:xlink="http://www.w3.org/1999/xlink"
	 x="0px" y="0px" width="422.001px" height="345.645px" viewBox="0 0 422.001 345.645" xml:space="preserve">
<polygon fill="#FFFFFF" stroke="#000000" stroke-width="2" stroke-linecap="round" stroke-linejoin="round" points="210.715,1 
	195.98,27.713 178.078,3.01 166.691,31.309 145.865,9.016 138.172,38.531 116.008,18.605 113.424,48.293 88.883,31.381 
	90.316,61.143 63.629,47.875 70.408,76.271 43.004,66.189 54.059,93.201 25.379,87.746 40.98,112.404 12.059,111.766 
	32.273,132.443 3.799,137.504 27.797,153.633 1,164.492 27.836,175.256 3.893,191.469 32.385,196.43 12.244,217.178 41.162,216.438 
	25.646,241.152 54.309,235.594 43.348,262.646 70.715,252.467 64.037,280.889 90.678,267.527 89.348,297.293 113.832,280.297 
	116.516,309.973 138.613,289.973 140.182,344.645 167.154,297.094 178.641,325.355 196.455,300.586 211.283,327.25 226.018,300.537 
	243.92,325.24 255.309,296.941 276.134,319.236 283.827,289.719 305.993,309.643 308.573,279.957 333.118,296.867 331.685,267.105 
	358.37,280.373 351.591,251.977 378.997,262.061 367.94,235.047 396.622,240.504 381.021,215.844 409.94,216.482 389.726,195.807 
	418.2,190.746 394.2,174.617 421.001,163.758 394.163,152.992 418.106,136.781 389.614,131.818 409.755,111.072 380.839,111.813 
	396.354,87.1 367.692,92.654 378.653,65.602 351.284,75.783 357.962,47.361 331.323,60.723 332.653,30.957 308.171,47.955 
	305.485,18.275 283.386,38.277 275.593,8.787 254.844,31.156 243.359,2.895 225.541,27.662 "/>
</svg>
