<?xml version="1.0" encoding="utf-8"?>
<!-- Generator: Adobe Illustrator 13.0.0, SVG Export Plug-In . SVG Version: 6.00 Build 14948)  -->
<svg version="1.2" baseProfile="tiny" id="Layer_1" xmlns="http://www.w3.org/2000/svg" xmlns:xlink="http://www.w3.org/1999/xlink"
	 x="0px" y="0px" width="421.999px" height="328.25px" viewBox="0 0 421.999 328.25" xml:space="preserve">
<polygon fill="#FFFFFF" stroke="#000000" stroke-width="2" stroke-linecap="round" stroke-linejoin="round" points="210.716,1 
	225.542,27.662 243.358,2.896 254.845,31.155 275.593,8.79 283.388,38.278 305.483,18.274 308.171,47.954 332.653,30.956 
	331.323,60.722 357.964,47.362 351.284,75.782 378.653,65.604 367.692,92.653 396.354,87.099 380.837,111.812 409.757,111.072 
	389.614,131.819 418.106,136.78 394.163,152.994 420.999,163.759 394.2,174.617 418.2,190.745 389.728,195.806 409.94,216.484 
	381.019,215.845 396.62,240.506 367.938,235.048 378.995,262.062 351.591,251.978 358.368,280.375 331.683,267.107 333.116,296.868 
	308.573,279.958 305.993,309.643 283.827,289.72 276.136,319.235 255.31,296.94 243.923,325.241 226.021,300.535 211.286,327.25 
	196.458,300.589 178.644,325.354 167.155,297.095 146.407,319.463 138.613,289.971 116.516,309.974 113.831,280.296 89.347,297.292 
	90.676,267.526 64.038,280.886 70.718,252.466 43.347,262.647 54.31,235.595 25.646,241.152 41.162,216.437 12.244,217.177 
	32.386,196.431 3.895,191.468 27.838,175.257 1,164.491 27.799,153.632 3.8,137.503 32.274,132.442 12.062,111.767 40.981,112.405 
	25.379,87.745 54.061,93.201 43.004,66.188 70.41,76.272 63.631,47.875 90.317,61.142 88.883,31.383 113.425,48.294 116.007,18.604 
	138.175,38.531 145.865,9.013 166.692,31.31 178.077,3.009 195.981,27.714 "/>
</svg>
