<?xml version="1.0" encoding="utf-8"?>
<!-- Generator: Adobe Illustrator 13.0.0, SVG Export Plug-In . SVG Version: 6.00 Build 14948)  -->
<svg version="1.2" baseProfile="tiny" id="Layer_1" xmlns="http://www.w3.org/2000/svg" xmlns:xlink="http://www.w3.org/1999/xlink"
	 x="0px" y="0px" width="422px" height="345.396px" viewBox="0 0 422 345.396" xml:space="preserve">
<polygon fill="#FFFFFF" stroke="#000000" stroke-width="2" stroke-linecap="round" stroke-linejoin="round" points="210.717,1 
	225.542,27.662 243.358,2.896 254.845,31.156 275.592,8.789 283.389,38.279 305.484,18.275 308.17,47.955 332.653,30.957 
	331.324,60.723 357.964,47.363 351.284,75.783 378.653,65.604 367.692,92.654 396.354,87.098 380.838,111.813 409.758,111.072 
	389.613,131.82 418.107,136.781 394.164,152.994 421,163.76 394.201,174.617 418.2,190.746 389.728,195.807 409.94,216.484 
	381.02,215.846 396.621,240.506 367.939,235.047 378.996,262.061 351.592,251.979 358.369,280.375 331.684,267.107 333.117,296.867 
	308.573,279.959 305.993,309.643 283.826,289.719 282.447,344.396 255.31,296.941 243.922,325.242 226.02,300.535 211.285,327.25 
	196.458,300.588 178.644,325.355 167.155,297.096 146.408,319.463 138.613,289.973 116.516,309.975 113.832,280.297 89.347,297.293 
	90.676,267.527 64.037,280.887 70.717,252.467 43.347,262.646 54.31,235.596 25.646,241.152 41.162,216.438 12.244,217.176 
	32.387,196.432 3.895,191.469 27.838,175.256 1,164.492 27.799,153.631 3.8,137.504 32.274,132.443 12.062,111.766 40.98,112.406 
	25.379,87.746 54.061,93.201 43.004,66.188 70.41,76.273 63.631,47.875 90.316,61.143 88.883,31.383 113.425,48.295 116.007,18.605 
	138.176,38.531 145.865,9.014 166.692,31.311 178.078,3.01 195.981,27.713 "/>
</svg>
