<?xml version="1.0" encoding="utf-8"?>
<!-- Generator: Adobe Illustrator 13.0.0, SVG Export Plug-In . SVG Version: 6.00 Build 14948)  -->
<svg version="1.2" baseProfile="tiny" id="Layer_1" xmlns="http://www.w3.org/2000/svg" xmlns:xlink="http://www.w3.org/1999/xlink"
	 x="0px" y="0px" width="422px" height="392.183px" viewBox="0 0 422 392.183" xml:space="preserve">
<g>
	<path fill="#FFFFFF" stroke="#000000" stroke-width="2" stroke-linecap="round" stroke-linejoin="round" d="M1,160.633
		C1.154,72.268,95.299,0.797,211.279,1C327.258,1.202,421.154,73,421,161.366c-0.145,83.647-84.518,152.144-191.904,159.05
		c0.014,0.29,0.043,0.576,0.043,0.869c0,10.017-8.121,18.137-18.139,18.137c-10.016,0-18.139-8.12-18.139-18.137
		c0-0.302,0.031-0.596,0.045-0.895C85.279,313.311,0.854,244.425,1,160.633z"/>
	
		<circle fill="#FFFFFF" stroke="#000000" stroke-width="2" stroke-linecap="round" stroke-linejoin="round" cx="185.216" cy="361.084" r="13.903"/>
	<path fill="#FFFFFF" stroke="#000000" stroke-width="2" stroke-linecap="round" stroke-linejoin="round" d="M146.139,382.432
		c0,4.833,3.916,8.751,8.752,8.751c4.834,0,8.75-3.918,8.75-8.751c0-4.834-3.916-8.753-8.75-8.753
		C150.055,373.679,146.139,377.598,146.139,382.432z"/>
</g>
</svg>
