<?xml version="1.0" encoding="utf-8"?>
<!-- Generator: Adobe Illustrator 13.0.0, SVG Export Plug-In . SVG Version: 6.00 Build 14948)  -->
<svg version="1.2" baseProfile="tiny" id="Layer_1" xmlns="http://www.w3.org/2000/svg" xmlns:xlink="http://www.w3.org/1999/xlink"
	 x="0px" y="0px" width="422px" height="392.183px" viewBox="0 0 422 392.183" xml:space="preserve">
<g>
	<path fill="#FFFFFF" stroke="#000000" stroke-width="2" stroke-linecap="round" stroke-linejoin="round" d="M421,160.633
		C420.846,72.268,326.701,0.797,210.721,1C94.742,1.202,0.846,73,1,161.366c0.146,83.647,84.519,152.144,191.905,159.05
		c-0.014,0.29-0.044,0.576-0.044,0.869c0,10.017,8.122,18.137,18.139,18.137c10.016,0,18.139-8.12,18.139-18.137
		c0-0.302-0.03-0.596-0.045-0.895C336.721,313.311,421.146,244.425,421,160.633z"/>
	
		<circle fill="#FFFFFF" stroke="#000000" stroke-width="2" stroke-linecap="round" stroke-linejoin="round" cx="236.785" cy="361.084" r="13.903"/>
	<path fill="#FFFFFF" stroke="#000000" stroke-width="2" stroke-linecap="round" stroke-linejoin="round" d="M275.862,382.432
		c0,4.833-3.917,8.751-8.753,8.751c-4.833,0-8.749-3.918-8.749-8.751c0-4.834,3.916-8.753,8.749-8.753
		C271.945,373.679,275.862,377.598,275.862,382.432z"/>
</g>
</svg>
