<?xml version="1.0" encoding="utf-8"?>
<!-- Generator: Adobe Illustrator 13.0.0, SVG Export Plug-In . SVG Version: 6.00 Build 14948)  -->
<svg version="1.2" baseProfile="tiny" id="Layer_1" xmlns="http://www.w3.org/2000/svg" xmlns:xlink="http://www.w3.org/1999/xlink"
	 x="0px" y="0px" width="422px" height="322.048px" viewBox="0 0 422 322.048" xml:space="preserve">
<g>
	<path fill="#FFFFFF" stroke="#000000" stroke-width="2" stroke-linecap="round" stroke-linejoin="round" d="M210.734,8.159
		c29.987-12.791,58.586-8.207,78.117,11.876c32.506-3.415,55.946,8.671,63.832,32.648c31.499,5.923,47.443,23.737,43.082,48.517
		c26.432,14.807,32.55,36.578,15.871,59.475c16.759,22.836,10.714,44.629-15.663,59.529c4.449,24.764-11.436,42.634-42.913,48.664
		c-7.805,24.006-31.2,36.174-63.72,32.871c-19.459,20.152-48.04,24.838-78.073,12.151c-29.989,12.79-58.586,8.206-78.117-11.877
		c-32.508,3.413-55.945-8.672-63.832-32.65c-31.499-5.922-47.445-23.735-43.084-48.517c-26.432-14.805-32.548-36.578-15.868-59.473
		c-16.762-22.838-10.717-44.631,15.662-59.529C21.577,77.08,37.461,59.21,68.941,53.18c7.803-24.006,31.198-36.176,63.718-32.873
		C152.12,0.155,180.701-4.531,210.734,8.159z"/>
	<path fill="#FFFFFF" stroke="#000000" stroke-width="2" stroke-linecap="round" stroke-linejoin="round" d="M210.734,8.159
		c29.987-12.791,58.586-8.207,78.117,11.876c32.506-3.415,55.946,8.671,63.832,32.648c31.499,5.923,47.443,23.737,43.082,48.517
		c26.432,14.807,32.55,36.578,15.871,59.475c16.759,22.836,10.714,44.629-15.663,59.529c4.449,24.764-11.436,42.634-42.913,48.664
		c-7.805,24.006-31.2,36.174-63.72,32.871c-19.459,20.152-48.04,24.838-78.073,12.151c-29.989,12.79-58.586,8.206-78.117-11.877
		c-32.508,3.413-55.945-8.672-63.832-32.65c-31.499-5.922-47.445-23.735-43.084-48.517c-26.432-14.805-32.548-36.578-15.868-59.473
		c-16.762-22.838-10.717-44.631,15.662-59.529C21.577,77.08,37.461,59.21,68.941,53.18c7.803-24.006,31.198-36.176,63.718-32.873
		C152.12,0.155,180.701-4.531,210.734,8.159z"/>
</g>
</svg>
