<?xml version="1.0" encoding="utf-8"?>
<!-- Generator: Adobe Illustrator 13.0.0, SVG Export Plug-In . SVG Version: 6.00 Build 14948)  -->
<svg version="1.2" baseProfile="tiny" id="Layer_1" xmlns="http://www.w3.org/2000/svg" xmlns:xlink="http://www.w3.org/1999/xlink"
	 x="0px" y="0px" width="422px" height="389.273px" viewBox="0 0 422 389.273" xml:space="preserve">
<g>
	
		<circle fill="#FFFFFF" stroke="#000000" stroke-width="2" stroke-linecap="round" stroke-linejoin="round" cx="237.356" cy="359.727" r="13.836"/>
	
		<circle fill="#FFFFFF" stroke="#000000" stroke-width="2" stroke-linecap="round" stroke-linejoin="round" cx="268.665" cy="379.564" r="8.709"/>
	<path fill="#FFFFFF" stroke="#000000" stroke-width="2" stroke-linecap="round" stroke-linejoin="round" d="M411.636,160.674
		c16.68-22.896,10.561-44.667-15.871-59.475c4.361-24.779-11.582-42.594-43.082-48.516c-7.886-23.979-31.326-36.063-63.832-32.649
		C269.319-0.048,240.722-4.632,210.734,8.159C180.701-4.53,152.12,0.155,132.658,20.308c-32.52-3.303-55.915,8.866-63.717,32.872
		c-31.479,6.031-47.364,23.9-42.913,48.664c-26.379,14.898-32.424,36.692-15.663,59.529c-16.68,22.895-10.563,44.668,15.869,59.474
		c-4.361,24.78,11.585,42.595,43.084,48.516c7.886,23.979,31.324,36.063,63.832,32.651c15.51,15.946,36.738,22.109,59.837,17.571
		c-0.012,0.272-0.041,0.54-0.041,0.814c0,9.969,8.084,18.05,18.052,18.05c9.967,0,18.051-8.081,18.051-18.05
		c0-0.333-0.031-0.659-0.05-0.988c23.336,4.67,44.763-1.54,60.341-17.672c32.52,3.302,55.914-8.866,63.719-32.872
		c31.479-6.029,47.363-23.9,42.914-48.664C422.351,205.303,428.396,183.51,411.636,160.674z"/>
</g>
</svg>
