<?xml version="1.0" encoding="utf-8"?>
<!-- Generator: Adobe Illustrator 13.0.0, SVG Export Plug-In . SVG Version: 6.00 Build 14948)  -->
<svg version="1.2" baseProfile="tiny" id="Layer_1" xmlns="http://www.w3.org/2000/svg" xmlns:xlink="http://www.w3.org/1999/xlink"
	 x="0px" y="0px" width="422px" height="387.786px" viewBox="0 0 422 387.786" xml:space="preserve">
<g>
	
		<circle fill="#FFFFFF" stroke="#000000" stroke-width="2" stroke-linecap="round" stroke-linejoin="round" cx="180.503" cy="358.971" r="13.806"/>
	<path fill="#FFFFFF" stroke="#000000" stroke-width="2" stroke-linecap="round" stroke-linejoin="round" d="M140.166,377.911
		c-0.102,4.799,3.703,8.77,8.504,8.873c4.799,0.102,8.77-3.705,8.871-8.504s-3.703-8.771-8.502-8.873
		C144.238,369.305,140.267,373.112,140.166,377.911z"/>
	<path fill="#FFFFFF" stroke="#000000" stroke-width="2" stroke-linecap="round" stroke-linejoin="round" d="M10.875,156.729
		c-16.152-23.191-9.588-44.779,17.092-58.988C24.14,72.93,40.421,55.499,71.968,50.258c8.373-23.75,32.01-35.311,64.361-31.215
		C156.238-0.576,184.861-4.542,214.501,8.85c30.227-12.02,58.637-6.742,77.623,13.773c32.506-2.605,55.586,10.027,62.859,34.139
		c31.273,6.682,46.74,24.842,41.775,49.451c25.998,15.418,31.566,37.285,14.363,59.711c16.152,23.189,9.59,44.777-17.088,58.986
		c3.826,24.811-12.459,42.242-44.004,47.482c-8.375,23.752-32.01,35.309-64.363,31.217c-15.809,15.578-37.113,21.275-60.059,16.26
		c0.006,0.273,0.029,0.539,0.023,0.814c-0.211,9.943-8.445,17.832-18.389,17.623c-9.941-0.213-17.836-8.445-17.623-18.389
		c0.006-0.332,0.045-0.656,0.07-0.984c-23.375,4.164-44.617-2.482-59.814-18.906C97.369,302.633,74.291,290,67.013,265.889
		c-31.271-6.68-46.736-24.842-41.773-49.449C-0.756,201.018-6.325,179.153,10.875,156.729z"/>
</g>
</svg>
