<?xml version="1.0" encoding="utf-8"?>
<!-- Generator: Adobe Illustrator 13.0.0, SVG Export Plug-In . SVG Version: 6.00 Build 14948)  -->
<svg version="1.2" baseProfile="tiny" id="Layer_1" xmlns="http://www.w3.org/2000/svg" xmlns:xlink="http://www.w3.org/1999/xlink"
	 x="0px" y="0px" width="422.001px" height="322px" viewBox="0 0 422.001 322" xml:space="preserve">
<g>
	<g>
		<path stroke="#000000" stroke-width="0.9259" stroke-miterlimit="10" d="M193.998,1.906c27.077,20.943,50.88,22.237,82.615,3.814
			c12.293,27.588,32.519,35.465,70.015,27.004c-2.688,29.544,11.898,42.755,50.156,45.787c-16.79,27.473-9.908,44.765,23.027,60.171
			c-28.938,22.021-32.008,40.378-9.793,63.681c-36.753,11.047-48.215,27.041-39.344,55.353
			c-38.441-0.346-56.545,11.626-62.73,41.188c-34.91-11.298-57.9-5.004-79.941,21.189c-27.08-20.945-50.881-22.238-82.615-3.816
			c-12.296-27.588-32.519-35.463-70.018-27.004c2.688-29.546-11.896-42.755-50.154-45.787c16.79-27.471,9.908-44.766-23.027-60.173
			c28.935-22.019,32.008-40.374,9.792-63.679c36.752-11.049,48.217-27.041,39.347-55.354c38.438,0.348,56.541-11.625,62.728-41.188
			C148.965,34.391,171.958,28.098,193.998,1.906z"/>
		<path stroke="#000000" stroke-width="1.8518" stroke-linecap="round" stroke-linejoin="round" d="M193.998,1.906
			c27.077,20.943,50.88,22.237,82.615,3.814c12.293,27.588,32.519,35.465,70.015,27.004c-2.688,29.544,11.898,42.755,50.156,45.787
			c-16.79,27.473-9.908,44.765,23.027,60.171c-28.938,22.021-32.008,40.378-9.793,63.681
			c-36.753,11.047-48.215,27.041-39.344,55.353c-38.441-0.346-56.545,11.626-62.73,41.188c-34.91-11.298-57.9-5.004-79.941,21.189
			c-27.08-20.945-50.881-22.238-82.615-3.816c-12.296-27.588-32.519-35.463-70.018-27.004c2.688-29.546-11.896-42.755-50.154-45.787
			c16.79-27.471,9.908-44.766-23.027-60.173c28.935-22.019,32.008-40.374,9.792-63.679c36.752-11.049,48.217-27.041,39.347-55.354
			c38.438,0.348,56.541-11.625,62.728-41.188C148.965,34.391,171.958,28.098,193.998,1.906z"/>
	</g>
	<path fill="#FFFFFF" stroke="#000000" stroke-width="2" stroke-linecap="round" stroke-linejoin="round" d="M421.001,160.632
		c-31.146-18.765-36.182-36.683-16.613-62.249c-37.729-7.015-50.855-21.678-45.094-50.779c-38.176,4.496-57.467-5.452-66.809-34.174
		C258.998,28.434,235.461,24.66,210.721,1c-24.657,23.745-48.182,27.601-81.72,12.715c-9.242,28.755-28.497,38.768-66.689,34.406
		c5.862,29.084-7.211,43.789-44.917,50.937C37.053,124.557,32.077,142.491,1,161.364c31.145,18.767,36.181,36.685,16.611,62.251
		c37.731,7.015,50.855,21.676,45.094,50.779c15.794-1.859,28.348-1.239,38.311,2.152l-14.923,26.711l30.622-17.105
		c5.557,5.541,9.724,12.954,12.802,22.416c33.485-15.003,57.022-11.23,81.764,12.432c24.658-23.747,48.181-27.603,81.719-12.717
		c9.242-28.755,28.497-38.768,66.691-34.406c-5.863-29.084,7.209-43.791,44.915-50.938
		C384.947,197.443,389.921,179.507,421.001,160.632z"/>
</g>
</svg>
