<?xml version="1.0" encoding="utf-8"?>
<!-- Generator: Adobe Illustrator 13.0.0, SVG Export Plug-In . SVG Version: 6.00 Build 14948)  -->
<svg version="1.2" baseProfile="tiny" id="Layer_1" xmlns="http://www.w3.org/2000/svg" xmlns:xlink="http://www.w3.org/1999/xlink"
	 x="0px" y="0px" width="422.001px" height="322px" viewBox="0 0 422.001 322" xml:space="preserve">
<g>
	<g>
		<path stroke="#000000" stroke-width="0.9259" stroke-miterlimit="10" d="M193.998,1.906c27.078,20.943,50.881,22.238,82.615,3.814
			c12.294,27.588,32.519,35.465,70.016,27.004c-2.688,29.544,11.897,42.755,50.154,45.787
			c-16.789,27.473-9.907,44.765,23.028,60.171c-28.938,22.02-32.008,40.378-9.793,63.681
			c-36.752,11.047-48.215,27.041-39.344,55.353c-38.441-0.346-56.544,11.626-62.73,41.188c-34.91-11.298-57.9-5.004-79.941,21.189
			c-27.078-20.945-50.882-22.238-82.614-3.816c-12.296-27.588-32.52-35.463-70.018-27.004c2.688-29.546-11.897-42.755-50.154-45.787
			c16.789-27.471,9.907-44.766-23.027-60.173c28.934-22.019,32.007-40.374,9.791-63.679c36.753-11.049,48.218-27.041,39.347-55.354
			c38.439,0.348,56.542-11.625,62.729-41.188C148.965,34.392,171.957,28.098,193.998,1.906z"/>
		<path stroke="#000000" stroke-width="1.8518" stroke-linecap="round" stroke-linejoin="round" d="M193.998,1.906
			c27.078,20.943,50.881,22.238,82.615,3.814c12.294,27.588,32.519,35.465,70.016,27.004c-2.688,29.544,11.897,42.755,50.154,45.787
			c-16.789,27.473-9.907,44.765,23.028,60.171c-28.938,22.02-32.008,40.378-9.793,63.681
			c-36.752,11.047-48.215,27.041-39.344,55.353c-38.441-0.346-56.544,11.626-62.73,41.188c-34.91-11.298-57.9-5.004-79.941,21.189
			c-27.078-20.945-50.882-22.238-82.614-3.816c-12.296-27.588-32.52-35.463-70.018-27.004c2.688-29.546-11.897-42.755-50.154-45.787
			c16.789-27.471,9.907-44.766-23.027-60.173c28.934-22.019,32.007-40.374,9.791-63.679c36.753-11.049,48.218-27.041,39.347-55.354
			c38.439,0.348,56.542-11.625,62.729-41.188C148.965,34.392,171.957,28.098,193.998,1.906z"/>
	</g>
	<g>
		<path fill="#FFFFFF" stroke="#000000" stroke-width="0.9259" d="M210.721,1c24.74,23.66,48.277,27.435,81.765,12.43
			c9.342,28.722,28.633,38.67,66.809,34.174c-5.761,29.102,7.364,43.765,45.094,50.779c-19.568,25.566-14.532,43.484,16.613,62.249
			c-31.08,18.875-36.054,36.812-16.396,62.308c-37.706,7.146-50.778,21.854-44.915,50.938c-38.194-4.362-57.449,5.651-66.691,34.405
			c-33.538-14.886-57.061-11.029-81.719,12.718c-24.741-23.662-48.278-27.435-81.764-12.432
			c-9.344-28.722-28.634-38.668-66.812-34.174c5.762-29.104-7.362-43.766-45.093-50.779C37.181,198.049,32.145,180.131,1,161.364
			c31.077-18.873,36.053-36.808,16.395-62.307c37.706-7.147,50.779-21.853,44.917-50.937c38.192,4.361,57.447-5.651,66.689-34.406
			C162.539,28.601,186.063,24.745,210.721,1z"/>
		<path fill="#FFFFFF" stroke="#000000" stroke-width="2" stroke-linecap="round" stroke-linejoin="round" d="M210.721,1
			c24.74,23.66,48.277,27.435,81.765,12.43c9.342,28.722,28.633,38.67,66.809,34.174c-5.761,29.102,7.364,43.765,45.094,50.779
			c-19.568,25.566-14.532,43.484,16.613,62.249c-31.08,18.875-36.054,36.812-16.396,62.308
			c-37.706,7.146-50.778,21.854-44.915,50.938c-38.194-4.362-57.449,5.651-66.691,34.405
			c-33.538-14.886-57.061-11.029-81.719,12.718c-24.741-23.662-48.278-27.435-81.764-12.432
			c-9.344-28.722-28.634-38.668-66.812-34.174c5.762-29.104-7.362-43.766-45.093-50.779C37.181,198.049,32.145,180.131,1,161.364
			c31.077-18.873,36.053-36.808,16.395-62.307c37.706-7.147,50.779-21.853,44.917-50.937c38.192,4.361,57.447-5.651,66.689-34.406
			C162.539,28.601,186.063,24.745,210.721,1z"/>
	</g>
</g>
</svg>
