<?xml version="1.0" encoding="utf-8"?>
<!-- Generator: Adobe Illustrator 13.0.0, SVG Export Plug-In . SVG Version: 6.00 Build 14948)  -->
<svg version="1.2" baseProfile="tiny" id="Layer_1" xmlns="http://www.w3.org/2000/svg" xmlns:xlink="http://www.w3.org/1999/xlink"
	 x="0px" y="0px" width="422px" height="321.999px" viewBox="0 0 422 321.999" xml:space="preserve">
<g>
	<g>
		<path stroke="#000000" stroke-width="0.9259" stroke-miterlimit="10" d="M193.998,1.906c27.076,20.942,50.88,22.236,82.615,3.813
			c12.293,27.588,32.518,35.466,70.015,27.004c-2.688,29.545,11.898,42.756,50.155,45.787c-16.79,27.473-9.908,44.766,23.028,60.172
			c-28.937,22.02-32.009,40.377-9.793,63.68c-36.753,11.047-48.215,27.041-39.345,55.353c-38.441-0.345-56.544,11.626-62.73,41.189
			c-34.909-11.298-57.9-5.005-79.941,21.189c-27.079-20.946-50.881-22.238-82.614-3.817c-12.296-27.588-32.519-35.463-70.018-27.002
			c2.688-29.547-11.897-42.756-50.155-45.789c16.79-27.471,9.909-44.764-23.026-60.172c28.933-22.018,32.008-40.375,9.791-63.68
			c36.753-11.049,48.218-27.041,39.346-55.353c38.439,0.347,56.542-11.624,62.729-41.188
			C148.964,34.392,171.956,28.098,193.998,1.906z"/>
		<path stroke="#000000" stroke-width="1.8518" stroke-linecap="round" stroke-linejoin="round" d="M193.998,1.906
			c27.076,20.942,50.88,22.236,82.615,3.813c12.293,27.588,32.518,35.466,70.015,27.004c-2.688,29.545,11.898,42.756,50.155,45.787
			c-16.79,27.473-9.908,44.766,23.028,60.172c-28.937,22.02-32.009,40.377-9.793,63.68c-36.753,11.047-48.215,27.041-39.345,55.353
			c-38.441-0.345-56.544,11.626-62.73,41.189c-34.909-11.298-57.9-5.005-79.941,21.189c-27.079-20.946-50.881-22.238-82.614-3.817
			c-12.296-27.588-32.519-35.463-70.018-27.002c2.688-29.547-11.897-42.756-50.155-45.789c16.79-27.471,9.909-44.764-23.026-60.172
			c28.933-22.018,32.008-40.375,9.791-63.68c36.753-11.049,48.218-27.041,39.346-55.353c38.439,0.347,56.542-11.624,62.729-41.188
			C148.964,34.392,171.956,28.098,193.998,1.906z"/>
	</g>
	<path fill="#FFFFFF" stroke="#000000" stroke-width="2" stroke-linecap="round" stroke-linejoin="round" d="M421,160.631
		c-31.146-18.765-36.182-36.682-16.612-62.247c-37.73-7.016-50.855-21.678-45.094-50.779c-38.177,4.495-57.468-5.453-66.81-34.175
		C258.997,28.435,235.46,24.659,210.721,1C186.063,24.745,162.538,28.601,129,13.716c-9.243,28.754-28.497,38.768-66.69,34.405
		c5.863,29.083-7.21,43.79-44.916,50.937c19.658,25.5,14.683,43.434-16.394,62.307c31.144,18.767,36.18,36.685,16.61,62.25
		c37.731,7.015,50.855,21.676,45.094,50.779c38.179-4.494,57.467,5.452,66.812,34.174c33.485-15.002,57.022-11.23,81.764,12.432
		c24.658-23.747,48.181-27.603,81.719-12.717c3.546-11.035,8.575-19.299,15.575-25.059l36.632,20.463l-16.462-29.469
		c8.598-1.655,18.813-1.729,30.946-0.342c-5.863-29.084,7.209-43.791,44.915-50.937C384.946,197.442,389.92,179.507,421,160.631z"/>
</g>
</svg>
