<?xml version="1.0" encoding="utf-8"?>
<!-- Generator: Adobe Illustrator 13.0.0, SVG Export Plug-In . SVG Version: 6.00 Build 14948)  -->
<svg version="1.2" baseProfile="tiny" id="Layer_1" xmlns="http://www.w3.org/2000/svg" xmlns:xlink="http://www.w3.org/1999/xlink"
	 x="0px" y="0px" width="422px" height="337.679px" viewBox="0 0 422 337.679" xml:space="preserve">
<path fill="#FFFFFF" stroke="#000000" stroke-width="2" stroke-linecap="round" stroke-linejoin="round" d="M1,160.633
	C1.154,72.268,95.299,0.797,211.279,1C327.258,1.202,421.154,73,421,161.366S326.701,321.202,210.721,321
	c-30.453-0.054-59.379-5.05-85.484-13.979c0.617,1.636,0.928,3.339-0.779,5.59c-1.781,2.352-8.691,0.822-11.418,3.438
	c-2.283,2.193-0.984,9.238-3.967,11.256c-2.676,1.807-8.639-1.998-11.902-0.585c-2.969,1.285-4.266,8.296-7.74,9.065
	c-3.145,0.695-7.295-5.051-10.867-4.918c-3.211,0.117-6.859,6.227-10.422,5.789l-0.092-0.115c3.072-1.856,2.168-8.916,4.617-10.991
	c2.73-2.31,9.543-0.355,11.588-2.846c2.256-2.752-1.057-9.066,0.484-11.912c1.695-3.125,8.734-3.817,9.723-6.893
	c1.1-3.426-4.273-8.164-3.834-11.299c0.025-0.174,0.074-0.344,0.121-0.515C36.412,263.077,0.906,214.994,1,160.633z"/>
</svg>
