<?xml version="1.0" encoding="utf-8"?>
<!-- Generator: Adobe Illustrator 13.0.0, SVG Export Plug-In . SVG Version: 6.00 Build 14948)  -->
<svg version="1.2" baseProfile="tiny" id="Layer_1" xmlns="http://www.w3.org/2000/svg" xmlns:xlink="http://www.w3.org/1999/xlink"
	 x="0px" y="0px" width="422px" height="337.679px" viewBox="0 0 422 337.679" xml:space="preserve">
<path fill="#FFFFFF" stroke="#000000" stroke-width="2" stroke-linecap="round" stroke-linejoin="round" d="M421,160.633
	C420.846,72.268,326.701,0.797,210.721,1C94.742,1.202,0.846,73,1,161.366S95.299,321.202,211.279,321
	c30.453-0.054,59.379-5.05,85.484-13.979c-0.616,1.636-0.928,3.339,0.779,5.59c1.781,2.352,8.691,0.822,11.418,3.438
	c2.283,2.193,0.984,9.238,3.967,11.256c2.676,1.807,8.639-1.998,11.902-0.585c2.969,1.285,4.266,8.296,7.74,9.065
	c3.145,0.695,7.295-5.051,10.867-4.918c3.211,0.117,6.859,6.227,10.422,5.789l0.092-0.115c-3.072-1.856-2.168-8.916-4.617-10.991
	c-2.73-2.31-9.543-0.355-11.588-2.846c-2.256-2.752,1.057-9.066-0.484-11.912c-1.695-3.125-8.734-3.817-9.723-6.893
	c-1.1-3.426,4.273-8.164,3.834-11.299c-0.024-0.174-0.073-0.344-0.121-0.515C385.588,263.077,421.095,214.994,421,160.633z"/>
</svg>
