<?xml version="1.0" encoding="utf-8"?>
<!-- Generator: Adobe Illustrator 13.0.0, SVG Export Plug-In . SVG Version: 6.00 Build 14948)  -->
<svg version="1.2" baseProfile="tiny" id="Layer_1" xmlns="http://www.w3.org/2000/svg" xmlns:xlink="http://www.w3.org/1999/xlink"
	 x="0px" y="0px" width="461px" height="460.998px" viewBox="0 0 461 460.998" xml:space="preserve">
<path fill="none" stroke="#010101" d="M460.5,230.5c0,14.553-25.354,26.428-28.075,40.183c-2.802,14.172,16.027,34.82,10.621,47.86
	c-5.502,13.265-33.47,14.525-41.363,26.318c-7.957,11.884,1.529,38.199-8.547,48.272c-10.075,10.075-36.393,0.591-48.274,8.546
	c-11.79,7.894-13.053,35.86-26.318,41.361c-13.039,5.407-33.688-13.42-47.857-10.617c-13.756,2.721-25.631,28.074-40.185,28.074
	c-14.553,0-26.428-25.353-40.181-28.074c-14.173-2.803-34.819,16.025-47.86,10.618c-13.267-5.501-14.526-33.467-26.319-41.36
	c-11.883-7.955-38.2,1.528-48.273-8.546c-10.074-10.075-0.593-36.392-8.547-48.274c-7.893-11.793-35.861-13.051-41.362-26.318
	c-5.407-13.04,13.421-33.688,10.618-47.858C25.854,256.931,0.5,245.053,0.5,230.5c0-14.554,25.354-26.431,28.075-40.184
	c2.803-14.172-16.025-34.819-10.618-47.86c5.501-13.268,33.47-14.526,41.362-26.319c7.954-11.883-1.527-38.198,8.547-48.271
	c10.076-10.074,36.391-0.591,48.273-8.547c11.793-7.894,13.053-35.86,26.319-41.362c13.041-5.406,33.688,13.422,47.86,10.619
	C204.072,25.853,215.947,0.5,230.5,0.5c14.555,0,26.43,25.354,40.184,28.073c14.172,2.804,34.819-16.023,47.86-10.616
	c13.267,5.502,14.526,33.468,26.319,41.363c11.882,7.954,38.199-1.529,48.271,8.545c10.076,10.075,0.593,36.392,8.547,48.273
	c7.895,11.793,35.861,13.053,41.363,26.321c5.406,13.039-13.42,33.686-10.618,47.856C435.146,204.07,460.5,215.946,460.5,230.5"/>
</svg>
