<?xml version="1.0" encoding="utf-8"?>
<!-- Generator: Adobe Illustrator 13.0.0, SVG Export Plug-In . SVG Version: 6.00 Build 14948)  -->
<svg version="1.2" baseProfile="tiny" id="Layer_1" xmlns="http://www.w3.org/2000/svg" xmlns:xlink="http://www.w3.org/1999/xlink"
	 x="0px" y="0px" width="471.108px" height="471.107px" viewBox="0 0 471.108 471.107" xml:space="preserve">
<g>
	<g>
		<path fill="#FFFFFF" d="M470.108,235.555c0,14.84-25.854,26.949-28.632,40.977c-2.857,14.453,16.345,35.51,10.829,48.807
			c-5.609,13.531-34.133,14.818-42.181,26.842c-8.113,12.119,1.557,38.957-8.717,49.229c-10.272,10.275-37.113,0.604-49.229,8.717
			c-12.024,8.049-13.31,36.57-26.84,42.182c-13.3,5.514-34.356-13.688-48.806-10.828c-14.027,2.773-26.138,28.629-40.979,28.629
			s-26.949-25.854-40.977-28.631c-14.453-2.857-35.51,16.344-48.809,10.83c-13.529-5.611-14.814-34.133-26.84-42.182
			c-12.119-8.113-38.957,1.557-49.23-8.717c-10.275-10.273-0.602-37.111-8.715-49.23c-8.052-12.025-36.571-13.309-42.182-26.84
			c-5.516-13.297,13.688-34.354,10.829-48.805C26.857,262.504,1,250.395,1,235.555c0-14.842,25.855-26.951,28.632-40.979
			c2.858-14.451-16.345-35.51-10.829-48.807c5.61-13.529,34.133-14.814,42.183-26.84c8.112-12.119-1.56-38.955,8.715-49.23
			c10.274-10.273,37.11-0.604,49.229-8.717c12.025-8.049,13.311-36.57,26.84-42.182c13.299-5.514,34.354,13.688,48.809,10.83
			C208.602,26.857,220.714,1,235.555,1s26.951,25.857,40.979,28.631c14.452,2.857,35.51-16.344,48.807-10.83
			c13.529,5.611,14.814,34.133,26.839,42.184c12.119,8.113,38.958-1.559,49.231,8.715c10.275,10.275,0.603,37.111,8.715,49.23
			c8.051,12.025,36.571,13.311,42.181,26.84c5.516,13.297-13.685,34.355-10.828,48.807
			C444.254,208.602,470.108,220.713,470.108,235.555z"/>
		<path fill="none" stroke="#231F20" stroke-width="2" stroke-miterlimit="10" d="M470.108,235.555
			c0,14.84-25.854,26.949-28.632,40.977c-2.857,14.453,16.345,35.51,10.829,48.807c-5.609,13.531-34.133,14.818-42.181,26.842
			c-8.113,12.119,1.557,38.957-8.717,49.229c-10.272,10.275-37.113,0.604-49.229,8.717c-12.024,8.049-13.31,36.57-26.84,42.182
			c-13.3,5.514-34.356-13.688-48.806-10.828c-14.027,2.773-26.138,28.629-40.979,28.629s-26.949-25.854-40.977-28.631
			c-14.453-2.857-35.51,16.344-48.809,10.83c-13.529-5.611-14.814-34.133-26.84-42.182c-12.119-8.113-38.957,1.557-49.23-8.717
			c-10.275-10.273-0.602-37.111-8.715-49.23c-8.052-12.025-36.571-13.309-42.182-26.84c-5.516-13.297,13.688-34.354,10.829-48.805
			C26.857,262.504,1,250.395,1,235.555c0-14.842,25.855-26.951,28.632-40.979c2.858-14.451-16.345-35.51-10.829-48.807
			c5.61-13.529,34.133-14.814,42.183-26.84c8.112-12.119-1.56-38.955,8.715-49.23c10.274-10.273,37.11-0.604,49.229-8.717
			c12.025-8.049,13.311-36.57,26.84-42.182c13.299-5.514,34.354,13.688,48.809,10.83C208.602,26.857,220.714,1,235.555,1
			s26.951,25.857,40.979,28.631c14.452,2.857,35.51-16.344,48.807-10.83c13.529,5.611,14.814,34.133,26.839,42.184
			c12.119,8.113,38.958-1.559,49.231,8.715c10.275,10.275,0.603,37.111,8.715,49.23c8.051,12.025,36.571,13.311,42.181,26.84
			c5.516,13.297-13.685,34.355-10.828,48.807C444.254,208.602,470.108,220.713,470.108,235.555z"/>
	</g>
	<g>
		<g>
			<g>
				<g>
					<path fill="#A4DDF1" d="M147.147,59.807c-33.474,2.332-42.685,29.291-39.252,46.428c6.837,34.123,49.999,34.539,66.506,16.57
						C199.51,95.471,181.933,57.389,147.147,59.807z M164.667,104.295c-3.981,10.977-26.266,19.428-34.797,4.41
						c-1.975-3.672-6.313-18.355,5.226-26.072C152.242,71.16,171.461,85.568,164.667,104.295z"/>
				</g>
				<g>
					<path fill="#231F20" d="M147.674,59.238c-20.969,1.793-40.197,14.752-41.591,37.324c-1.363,22.092,15.61,38.676,37.396,38.586
						c21.121-0.09,39.09-12.963,43.392-34.26C191.814,76.414,170.871,58.063,147.674,59.238c-0.737,0.039-2.729,1.223-1.055,1.139
						c21.041-1.066,38.388,13.736,38.348,35.191c-0.044,22.607-19.854,38.93-41.463,38.416
						c-18.613-0.443-33.299-13.76-34.928-32.369c-2.01-22.947,16.295-39.381,38.043-41.238
						C147.344,60.314,149.338,59.096,147.674,59.238z"/>
					<path fill="#231F20" d="M163.423,104.498c-3.731,8.941-14.981,13.566-24.056,10.873c-7.051-2.094-9.854-9.197-10.603-15.807
						c-1.53-13.506,11.521-23.525,24.524-19.348C163.672,83.553,166.415,95.178,163.423,104.498
						c-0.199,0.621,2.265,0.291,2.487-0.404c4.115-12.816-2.998-25.17-16.809-26.107c-10.511-0.713-22.287,7.104-22.867,18.137
						c-0.576,10.895,4.857,20.543,16.546,21.244c8.909,0.533,19.618-4.855,23.13-13.273
						C166.141,103.541,163.711,103.805,163.423,104.498z"/>
				</g>
			</g>
		</g>
		<g>
			<path fill="#A4DDF1" d="M116.162,51.555c-2.385-6.102-4.112-11.643-6.004-16.244c5.4-2.369,15.742-6.701,21.082-8.275
				c0.677,2.881,3.139,9.664,5.758,16.531c4.124-1.4,26.981-9.926,32.377-11.479c0.555,1.566,5.492,15.514,6.555,18.523
				c-28.354,9.176-53.242,19.893-84.944,31.996c-2.017-5.697-6.175-18.469-6.175-18.469C94.242,60.092,106.91,55.609,116.162,51.555
				z"/>
			<g>
				<path fill="#231F20" d="M117.419,51.219c-1.104-2.881-2.155-5.779-3.188-8.686c-0.877-2.465-3.707-6.34-0.693-7.639
					c5.883-2.531,11.83-5.029,17.949-6.938c-0.5-0.195-1.001-0.391-1.502-0.586c1.482,5.635,3.695,11.092,5.758,16.531
					c0.221,0.58,0.942,0.779,1.504,0.588c10.813-3.73,21.412-8.205,32.377-11.48c-0.502-0.195-1.004-0.391-1.504-0.586
					c2.186,6.176,4.371,12.348,6.556,18.523c0.335-0.42,0.671-0.84,1.007-1.26c-28.895,9.42-56.904,21.264-85.269,32.121
					c0.608,0.154,1.219,0.309,1.829,0.463c-2.13-6.078-4.131-12.201-6.129-18.324c0.258,0.793,27.873-10.406,30.621-11.592
					c1.574-0.678,0.186-2.174-1.144-1.6c-10.344,4.461-20.979,8.193-31.353,12.584c-0.398,0.168-0.834,0.672-0.684,1.135
					c2.012,6.172,4.029,12.344,6.176,18.471c0.272,0.781,1.203,0.701,1.828,0.463c28.148-10.773,55.944-22.527,84.619-31.875
					c0.476-0.156,1.23-0.631,1.008-1.258c-2.184-6.176-4.371-12.35-6.555-18.525c-0.212-0.6-0.945-0.752-1.504-0.586
					c-10.963,3.275-21.564,7.75-32.377,11.479c0.502,0.197,1.002,0.393,1.504,0.588c-2.063-5.441-4.275-10.898-5.76-16.533
					c-0.16-0.609-0.986-0.746-1.502-0.586c-7.312,2.279-14.393,5.342-21.406,8.4c-0.373,0.16-0.865,0.682-0.684,1.135
					c2.133,5.365,3.941,10.852,6.006,16.246C115.367,53.094,117.869,52.395,117.419,51.219z"/>
			</g>
		</g>
	</g>
	<g>
		<g>
			<g>
				<g>
					<path fill="#A4DDF1" d="M258.656,71.705c-21.041-10.604-36.271,2.365-40.346,13.939c-8.115,23.047,17.787,38.781,34.196,33.855
						C277.467,112.01,280.518,82.721,258.656,71.705z M253.269,104.84c-6.339,5.195-22.818,2.303-22.581-9.822
						c0.122-2.924,2.771-13.342,12.503-13.861C257.658,80.385,264.09,95.973,253.269,104.84z"/>
				</g>
				<g>
					<path fill="#231F20" d="M259.676,71.182c-14.676-6.902-31.134-4.25-40.301,9.859c-9.76,15.025,0.084,31.84,15.023,37.863
						c12.606,5.082,27.243,0.186,35.327-10.445c9.896-13.006,3.55-30-9.894-37.201c-0.68-0.365-2.781,0.664-2.355,0.893
						c10.545,5.65,16.566,16.213,13.82,28.166c-3.385,14.719-19.784,22.225-33.525,18.012
						c-12.175-3.734-21.029-15.061-19.471-27.949c0.713-5.877,3.924-11.1,8.013-15.225c8.664-8.742,21.013-7.773,31.319-2.928
						C258.221,72.504,260.53,71.582,259.676,71.182z"/>
					<path fill="#231F20" d="M252.291,104.752c-5.149,3.84-13.103,1.879-17.435-2.299c-4.069-3.924-3.171-9.719-0.956-14.271
						c4.408-9.068,16.66-7.766,21.699-0.141c3.789,5.738,1.279,12.68-3.478,16.855c-0.614,0.541,1.806,0.314,2.293-0.113
						c6.938-6.094,7.447-16.096-0.417-21.676c-6.439-4.568-16.141-3.01-21.004,2.969c-4.798,5.896-4.831,14.41,1.597,19.008
						c5.43,3.883,14.315,3.826,19.652-0.154C255.305,104.137,252.785,104.387,252.291,104.752z"/>
				</g>
			</g>
		</g>
		<g>
			<path fill="#A4DDF1" d="M242.914,55.609c0.748-4.539,1.692-8.504,2.203-11.959c4.107,0.506,11.904,1.602,15.691,2.566
				c-0.625,1.982-1.571,6.959-2.455,12.043c2.992,0.635,19.848,3.688,23.659,4.686c-0.226,1.146-2.25,11.334-2.688,13.531
				c-20.404-4.631-39.27-7.092-62.746-11.156c0.828-4.164,2.897-13.365,2.897-13.365C226.622,52.896,235.875,54.736,242.914,55.609z
				"/>
			<g>
				<path fill="#231F20" d="M244.189,55.531c0.697-3.994,1.553-7.959,2.203-11.959c-0.565,0.348-1.132,0.695-1.696,1.045
					c4.351,0.549,8.688,1.178,13.003,1.977c3.317,0.615-0.16,9.125-0.621,11.744c-0.092,0.518,0.443,0.805,0.855,0.889
					c6.243,1.281,12.525,2.371,18.773,3.621c4.111,0.822,4.098-0.17,3.328,3.707c-0.661,3.332-1.324,6.666-1.986,10
					c0.564-0.348,1.13-0.697,1.694-1.045c-13.679-3.063-27.497-5.367-41.333-7.609c-1.847-0.299-20.492-2.975-20.302-3.91
					c0.823-4.049,1.737-8.082,2.644-12.113c-0.566,0.348-1.13,0.697-1.696,1.045c7.833,1.09,15.598,2.617,23.438,3.654
					c1.303,0.172,2.531-1.709,0.84-1.934c-7.84-1.037-15.604-2.564-23.438-3.652c-0.736-0.104-1.529,0.295-1.696,1.043
					c-1,4.447-1.991,8.898-2.899,13.365c-0.102,0.504,0.453,0.818,0.857,0.887c20.935,3.602,42.001,6.516,62.746,11.158
					c0.708,0.158,1.555-0.334,1.696-1.045c0.898-4.512,1.796-9.021,2.688-13.531c0.104-0.527-0.456-0.789-0.854-0.887
					c-4.992-1.234-10.088-2.094-15.136-3.051c-2.413-0.457-4.826-0.91-7.237-1.379c-1.223-0.236,0.249-3.172,0.461-4.313
					c0.42-2.297,0.877-4.594,1.498-6.848c0.174-0.641-0.18-0.998-0.79-1.141c-5.159-1.209-10.439-1.902-15.692-2.566
					c-0.701-0.088-1.573,0.283-1.697,1.045c-0.65,4.002-1.506,7.967-2.201,11.959C241.406,57.018,243.981,56.73,244.189,55.531z"/>
			</g>
		</g>
	</g>
	<g>
		<path fill="#A4DDF1" d="M299.41,89.775l2.83,12.277l11.627-3.564l-2.547-11.6C311.32,86.889,311.32,86.889,299.41,89.775z"/>
		<g>
			<path fill="#231F20" d="M298.156,90.111c0.941,4.094,1.886,8.186,2.829,12.279c0.095,0.418,1.146,0.176,1.373,0.105
				c3.876-1.188,7.752-2.375,11.628-3.564c0.257-0.078,1.234-0.342,1.137-0.779c-0.85-3.867-1.699-7.734-2.548-11.602
				c-0.091-0.426-1.145-0.162-1.374-0.105c-3.969,0.961-7.94,1.924-11.909,2.887c-1.487,0.359-1.239,1.244,0.237,0.887
				c3.971-0.963,7.939-1.926,11.909-2.889c-0.458-0.035-0.915-0.07-1.374-0.105c0.85,3.867,1.699,7.734,2.548,11.602
				c0.38-0.262,0.758-0.52,1.138-0.781c-3.878,1.189-7.752,2.377-11.629,3.566c0.46,0.035,0.917,0.07,1.375,0.105
				c-0.943-4.092-1.887-8.186-2.83-12.279C300.521,88.813,298.003,89.447,298.156,90.111z"/>
		</g>
	</g>
	<g>
		<path fill="#A4DDF1" d="M331.492,96.643l-4.473,9.32l9.28,3.668l4.306-8.742C340.605,100.889,340.605,100.889,331.492,96.643z"/>
		<g>
			<path fill="#231F20" d="M330.252,96.848c-1.493,3.107-2.983,6.215-4.475,9.322c-0.084,0.174,0.092,0.258,0.217,0.307
				c3.094,1.223,6.188,2.447,9.281,3.67c0.579,0.229,1.975-0.131,2.266-0.723c1.437-2.912,2.872-5.826,4.307-8.742
				c0.039-0.094,0.018-0.172-0.063-0.234c-3.038-1.416-6.074-2.832-9.113-4.248c-0.694-0.322-2.73,0.711-2.358,0.885
				c3.038,1.416,6.075,2.832,9.111,4.248c-0.269-0.127-0.362,0.373-0.604,0.867c-0.497,1.008-0.995,2.016-1.491,3.025
				c-0.758,1.537-1.516,3.074-2.273,4.613c0.756-0.24,1.512-0.48,2.268-0.721c-1.55-0.611-3.094-1.223-4.641-1.834
				c-1.064-0.42-2.127-0.84-3.191-1.262c-0.31-0.123-0.622-0.246-0.936-0.369c-0.676-0.27-0.182-0.135-0.279,0.072
				c1.486-3.098,2.971-6.193,4.457-9.289C332.965,95.957,330.574,96.176,330.252,96.848z"/>
		</g>
	</g>
</g>
</svg>
