<?xml version="1.0" encoding="utf-8"?>
<!-- Generator: Adobe Illustrator 13.0.0, SVG Export Plug-In . SVG Version: 6.00 Build 14948)  -->
<svg version="1.2" baseProfile="tiny" id="Layer_1" xmlns="http://www.w3.org/2000/svg" xmlns:xlink="http://www.w3.org/1999/xlink"
	 x="0px" y="0px" width="397.031px" height="376.485px" viewBox="0 0 397.031 376.485" xml:space="preserve">
<g>
	<g>
		<g>
			<path fill="#FFFFFF" stroke="#231F20" stroke-width="2" stroke-linecap="round" stroke-linejoin="round" d="M360.936,54.558"/>
			<path fill="#FFFFFF" stroke="#231F20" stroke-width="2" stroke-linecap="round" stroke-linejoin="round" d="M396.031,178.001
				c0-31.609-10.468-61.16-28.643-86.331c9.266-9.625,14.967-22.702,14.967-37.115C382.355,24.978,358.379,1,328.799,1
				c-19.681,0-36.869,10.622-46.18,26.44c-25.516-10.135-54.023-15.807-84.105-15.807c-30.689,0-59.744,5.896-85.654,16.416
				C103.64,11.896,86.264,1,66.332,1c-29.58,0-53.557,23.978-53.557,53.556c0,14.983,6.158,28.519,16.076,38.241
				C11.168,117.72,1,146.859,1,178.001c0,84.171,74.21,153.729,170.521,164.816l-2.387,32.668l29.766-31.118
				C307.809,344.19,396.031,269.777,396.031,178.001z"/>
		</g>
		<path fill="#231F20" stroke="#FFFFFF" stroke-width="2" stroke-linecap="round" stroke-linejoin="round" d="M328.799,22.422
			c-11.016,0-20.734,5.551-26.521,14.005c19.669,10.251,37.05,23.322,51.329,38.556c4.58-5.553,7.328-12.668,7.328-20.425
			C360.936,36.811,346.547,22.422,328.799,22.422z"/>
		<path fill="#231F20" stroke="#FFFFFF" stroke-width="2" stroke-linecap="round" stroke-linejoin="round" d="M66.332,22.422
			c-17.748,0-32.133,14.389-32.133,32.136c0,8.263,3.141,15.771,8.265,21.464c14.115-15.308,31.337-28.477,50.864-38.847
			C87.609,28.307,77.666,22.422,66.332,22.422z"/>
	</g>
	<g>
		<g>
			<path fill="#231F20" d="M202.335,78.479c5.276,0,7.063,3.499,3.971,7.773l-2.595,3.587c-3.093,4.276-8.154,4.276-11.246,0
				l-2.594-3.585c-3.093-4.276-1.307-7.775,3.971-7.775H202.335z"/>
			<path fill="#231F20" d="M202.335,78.479c5.276,0,7.063,3.499,3.971,7.773l-2.595,3.587c-3.093,4.276-8.154,4.276-11.246,0
				l-2.594-3.585c-3.093-4.276-1.307-7.775,3.971-7.775H202.335z"/>
		</g>
		<g>
			<g>
				<path fill="#FFFFFF" d="M136.15,62.282l0.121,0.122c0.077,0.047,0.156,0.094,0.234,0.143c-0.002-0.038,0-0.077,0-0.116
					C136.39,62.374,136.27,62.325,136.15,62.282z"/>
				<g>
					<path fill="#FFFFFF" d="M140.039,74.068c0.796,0.124,1.559,0.495,2.183,1.025c0.292-0.892,0.458-1.842,0.458-2.83
						c0-0.435-0.04-0.858-0.098-1.274c-0.362,0.1-0.797,0.124-1.335,0.047c-1.466-0.211-4.14-0.56-5.131-1.797
						c-1.231-1.544-0.11-3.745,0.275-5.605c-0.877-0.283-1.81-0.44-2.779-0.44c-0.747,0-1.47,0.102-2.163,0.272
						c0.132,0.493,0.158,1.059,0.211,1.608c0.178,1.973,0.382,4.408-1.732,5.202c-1.405,0.523-3.492,0.624-5.232,0.375
						c-0.094,0.522-0.149,1.061-0.149,1.613c0,0.81,0.116,1.591,0.315,2.339c1.701-0.481,3.373-1.138,5.213-0.899
						c2.108,0.273,2.467,2.069,2.553,3.889c0.063,1.368,0.116,2.674-0.314,3.635c0.427,0.06,0.857,0.103,1.3,0.103
						c1.034,0,2.024-0.182,2.95-0.5c-0.693-1.462-1.136-3.772-1.144-4.826C135.4,74.023,138.373,73.808,140.039,74.068z"/>
					<path d="M136.116,69.239c0.991,1.237,3.665,1.585,5.131,1.797c0.538,0.077,0.973,0.053,1.335-0.047
						c-0.49-3.471-2.936-6.308-6.19-7.355C136.006,65.494,134.885,67.694,136.116,69.239z"/>
					<path d="M132.627,77.591c-0.086-1.82-0.444-3.615-2.553-3.889c-1.84-0.238-3.512,0.418-5.213,0.899
						c0.926,3.463,3.842,6.105,7.451,6.625C132.743,80.265,132.69,78.959,132.627,77.591z"/>
					<path d="M142.222,75.093c-0.624-0.531-1.387-0.902-2.183-1.025c-1.666-0.26-4.639-0.045-4.62,1.936
						c0.008,1.053,0.45,3.364,1.144,4.826C139.234,79.907,141.338,77.782,142.222,75.093z"/>
					<path d="M129.928,70.275c2.114-0.794,1.91-3.229,1.732-5.202c-0.053-0.549-0.079-1.115-0.211-1.608
						c-3.449,0.845-6.12,3.658-6.754,7.185C126.436,70.899,128.522,70.798,129.928,70.275z"/>
				</g>
			</g>
			<g>
				<path fill="#FFFFFF" d="M266.642,60.363l0.122,0.122c0.076,0.047,0.155,0.094,0.234,0.143c-0.002-0.038,0-0.077,0-0.116
					C266.882,60.455,266.762,60.406,266.642,60.363z"/>
				<g>
					<path fill="#FFFFFF" d="M270.53,72.149c0.796,0.124,1.56,0.495,2.183,1.025c0.293-0.892,0.458-1.842,0.458-2.83
						c0-0.435-0.04-0.858-0.098-1.274c-0.361,0.1-0.796,0.124-1.334,0.047c-1.466-0.212-4.14-0.56-5.132-1.797
						c-1.23-1.544-0.109-3.745,0.275-5.605c-0.877-0.283-1.81-0.44-2.778-0.44c-0.748,0-1.47,0.101-2.163,0.272
						c0.131,0.493,0.158,1.059,0.21,1.608c0.179,1.973,0.382,4.408-1.731,5.202c-1.405,0.523-3.493,0.624-5.232,0.375
						c-0.094,0.522-0.15,1.061-0.15,1.613c0,0.81,0.117,1.591,0.315,2.339c1.702-0.481,3.374-1.138,5.214-0.899
						c2.107,0.273,2.466,2.069,2.553,3.888c0.063,1.368,0.115,2.674-0.315,3.636c0.427,0.06,0.858,0.103,1.301,0.103
						c1.034,0,2.024-0.182,2.95-0.5c-0.693-1.462-1.137-3.772-1.145-4.826C265.893,72.104,268.864,71.889,270.53,72.149z"/>
					<path d="M266.607,67.32c0.992,1.237,3.666,1.585,5.132,1.797c0.538,0.077,0.973,0.053,1.334-0.047
						c-0.489-3.471-2.935-6.308-6.19-7.355C266.498,63.575,265.377,65.775,266.607,67.32z"/>
					<path d="M263.119,75.672c-0.087-1.819-0.445-3.615-2.553-3.888c-1.84-0.238-3.512,0.418-5.214,0.899
						c0.926,3.463,3.842,6.105,7.451,6.625C263.234,78.346,263.182,77.04,263.119,75.672z"/>
					<path d="M272.713,73.174c-0.623-0.53-1.387-0.901-2.183-1.025c-1.666-0.26-4.638-0.045-4.62,1.936
						c0.008,1.053,0.451,3.364,1.145,4.826C269.727,77.988,271.829,75.863,272.713,73.174z"/>
					<path d="M260.42,68.356c2.113-0.794,1.91-3.229,1.731-5.202c-0.052-0.549-0.079-1.115-0.21-1.608
						c-3.449,0.845-6.12,3.658-6.754,7.185C256.927,68.98,259.015,68.879,260.42,68.356z"/>
				</g>
			</g>
		</g>
	</g>
	<path fill="#FFE500" stroke="#231F20" stroke-width="2" stroke-linecap="round" stroke-linejoin="round" d="M293.95,40.315
		c-1.352,8.909-1.399,12.721-13.526,14.45c8.661,1.541,11.396,2.991,14.673,14.037c0.177-2.098,2.227-13.754,12.655-14.717
		C297.262,52.249,296.848,50.66,293.95,40.315z"/>
</g>
</svg>
