<?xml version="1.0" encoding="utf-8"?>
<!-- Generator: Adobe Illustrator 13.0.0, SVG Export Plug-In . SVG Version: 6.00 Build 14948)  -->
<svg version="1.2" baseProfile="tiny" id="Layer_1" xmlns="http://www.w3.org/2000/svg" xmlns:xlink="http://www.w3.org/1999/xlink"
	 x="0px" y="0px" width="400.531px" height="448.074px" viewBox="0 0 400.531 448.074" xml:space="preserve">
<g>
	<path fill="#FFFFFF" stroke="#231F20" stroke-width="2" stroke-linecap="round" stroke-linejoin="round" d="M371.41,305.689
		c17.844-29.414,28.121-63.928,28.121-100.844c0-107.52-87.164-194.684-194.688-194.684S10.156,97.326,10.156,204.846
		c0,70.609,37.59,132.436,93.844,166.568l0,0c0,0,74.523,47.076,240.066,75.66c0,0-24.547-43.58,27.344-141.381V305.689z"/>
	<g>
		<g>
			<g>
				<path fill="#FBE901" d="M69.063,137.131C31.532,137.131,1,106.598,1,69.066S31.532,1,69.063,1
					c37.532,0,68.066,30.535,68.066,68.066S106.595,137.131,69.063,137.131z"/>
			</g>
			<g>
				<path fill="#231F20" d="M69.063,2c37.043,0,67.066,30.025,67.066,67.066s-30.023,67.064-67.066,67.064
					C32.023,136.131,2,106.107,2,69.066S32.023,2,69.063,2 M69.063,0C30.981,0,0,30.983,0,69.066
					c0,38.082,30.981,69.064,69.063,69.064c38.083,0,69.066-30.982,69.066-69.064C138.129,30.983,107.146,0,69.063,0L69.063,0z"/>
			</g>
		</g>
		<g>
			<g>
				<line fill="#FFFFFF" x1="38.766" y1="42.943" x2="38.766" y2="58.949"/>
				<path fill="#231F20" d="M38.766,59.949c-0.553,0-1-0.447-1-1V42.943c0-0.552,0.447-1,1-1s1,0.448,1,1v16.006
					C39.766,59.502,39.318,59.949,38.766,59.949z"/>
			</g>
			<g>
				<line fill="#FFFFFF" x1="95.711" y1="42.943" x2="95.711" y2="58.949"/>
				<path fill="#231F20" d="M95.711,59.949c-0.553,0-1-0.447-1-1V42.943c0-0.552,0.447-1,1-1s1,0.448,1,1v16.006
					C96.711,59.502,96.264,59.949,95.711,59.949z"/>
			</g>
		</g>
		<g>
			<path fill="#FFFFFF" d="M94.258,79.943c0,14.789-11.984,26.773-26.766,26.773c-14.785,0-26.77-11.984-26.77-26.773H94.258z"/>
			<path fill="#231F20" d="M67.492,107.717c-15.313,0-27.77-12.459-27.77-27.773c0-0.552,0.447-1,1-1h53.535c0.553,0,1,0.448,1,1
				C95.258,95.258,82.802,107.717,67.492,107.717z M41.742,80.943c0.526,13.75,11.875,24.773,25.75,24.773
				c13.872,0,25.22-11.023,25.746-24.773H41.742z"/>
		</g>
	</g>
</g>
</svg>
