<?xml version="1.0" encoding="utf-8"?>
<!-- Generator: Adobe Illustrator 13.0.0, SVG Export Plug-In . SVG Version: 6.00 Build 14948)  -->
<svg version="1.2" baseProfile="tiny" id="Layer_1" xmlns="http://www.w3.org/2000/svg" xmlns:xlink="http://www.w3.org/1999/xlink"
	 x="0px" y="0px" width="400.531px" height="448.074px" viewBox="0 0 400.531 448.074" xml:space="preserve">
<g>
	<path fill="#FFFFFF" stroke="#231F20" stroke-width="2" stroke-linecap="round" stroke-linejoin="round" d="M29.121,305.689
		C11.277,276.275,1,241.762,1,204.846C1,97.326,88.164,10.162,195.688,10.162s194.688,87.164,194.688,194.684
		c0,70.609-37.59,132.436-93.844,166.568l0,0c0,0-74.523,47.076-240.066,75.66c0,0,24.547-43.58-27.344-141.381V305.689z"/>
	<g>
		<g>
			<g>
				<path fill="#FBE901" d="M331.469,137.131c-37.532,0-68.066-30.534-68.066-68.064C263.402,31.534,293.937,1,331.469,1
					c37.53,0,68.063,30.534,68.063,68.066C399.531,106.597,368.999,137.131,331.469,137.131z"/>
			</g>
			<g>
				<path fill="#231F20" d="M331.469,2c37.039,0,67.063,30.025,67.063,67.066s-30.023,67.064-67.063,67.064
					c-37.043,0-67.066-30.023-67.066-67.064S294.426,2,331.469,2 M331.469,0c-38.084,0-69.066,30.982-69.066,69.066
					c0,38.082,30.982,69.064,69.066,69.064c38.081,0,69.063-30.982,69.063-69.064C400.531,30.982,369.55,0,331.469,0L331.469,0z"/>
			</g>
		</g>
		<g>
			<g>
				<line fill="#FFFFFF" x1="361.766" y1="42.943" x2="361.766" y2="58.949"/>
				<path fill="#231F20" d="M361.766,59.949c-0.553,0-1-0.448-1-1V42.943c0-0.553,0.447-1,1-1s1,0.447,1,1v16.006
					C362.766,59.501,362.318,59.949,361.766,59.949z"/>
			</g>
			<g>
				<line fill="#FFFFFF" x1="304.82" y1="42.943" x2="304.82" y2="58.949"/>
				<path fill="#231F20" d="M304.82,59.949c-0.553,0-1-0.448-1-1V42.943c0-0.553,0.447-1,1-1s1,0.447,1,1v16.006
					C305.82,59.501,305.373,59.949,304.82,59.949z"/>
			</g>
		</g>
		<g>
			<path fill="#FFFFFF" d="M306.273,79.943c0,14.789,11.984,26.773,26.766,26.773c14.785,0,26.77-11.984,26.77-26.773H306.273z"/>
			<path fill="#231F20" d="M333.039,107.717c-15.31,0-27.766-12.459-27.766-27.773c0-0.553,0.447-1,1-1h53.535c0.553,0,1,0.447,1,1
				C360.809,95.258,348.352,107.717,333.039,107.717z M307.293,80.943c0.526,13.75,11.874,24.773,25.746,24.773
				c13.875,0,25.224-11.023,25.75-24.773H307.293z"/>
		</g>
	</g>
</g>
</svg>
