<?xml version="1.0" encoding="utf-8"?>
<!-- Generator: Adobe Illustrator 13.0.0, SVG Export Plug-In . SVG Version: 6.00 Build 14948)  -->
<svg version="1.2" baseProfile="tiny" id="Layer_1" xmlns="http://www.w3.org/2000/svg" xmlns:xlink="http://www.w3.org/1999/xlink"
	 x="0px" y="0px" width="397.031px" height="376.491px" viewBox="0 0 397.031 376.491" xml:space="preserve">
<g>
	<g>
		<g>
			<path fill="#FFFFFF" stroke="#231F20" stroke-width="2" stroke-linecap="round" stroke-linejoin="round" d="M360.934,54.565"/>
			<path fill="#FFFFFF" stroke="#231F20" stroke-width="2" stroke-linecap="round" stroke-linejoin="round" d="M396.031,178.001
				c0-31.609-10.469-61.161-28.643-86.331c9.266-9.625,14.969-22.702,14.969-37.115C382.357,24.978,358.379,1,328.799,1
				c-19.682,0-36.869,10.622-46.18,26.44c-25.518-10.134-54.023-15.807-84.104-15.807c-30.689,0-59.746,5.896-85.656,16.417
				C103.639,11.896,86.264,1,66.33,1C36.752,1,12.775,24.978,12.775,54.556c0,14.983,6.158,28.519,16.074,38.241
				C11.17,117.72,1,146.859,1,178.001c0,91.884,88.428,166.369,197.514,166.37l29.768,31.12l-2.391-32.719
				C322.016,331.545,396.031,262.062,396.031,178.001z"/>
		</g>
		<path fill="#231F20" stroke="#FFFFFF" stroke-width="2" stroke-linecap="round" stroke-linejoin="round" d="M328.799,22.429
			c-11.016,0-20.734,5.551-26.521,14.005c19.672,10.251,37.051,23.322,51.33,38.556c4.58-5.553,7.326-12.668,7.326-20.425
			C360.934,36.818,346.545,22.429,328.799,22.429z"/>
		<path fill="#231F20" stroke="#FFFFFF" stroke-width="2" stroke-linecap="round" stroke-linejoin="round" d="M66.33,22.429
			c-17.746,0-32.131,14.389-32.131,32.136c0,8.263,3.141,15.77,8.264,21.463C56.58,60.721,73.803,47.553,93.33,37.182
			C87.611,28.314,77.664,22.429,66.33,22.429z"/>
	</g>
	<g>
		<g>
			
				<circle fill="#231F20" stroke="#FFFFFF" stroke-width="2" stroke-linecap="round" stroke-linejoin="round" cx="133.182" cy="71.649" r="6.838"/>
			<path fill="#231F20" stroke="#FFFFFF" stroke-width="2" stroke-linecap="round" stroke-linejoin="round" d="M270.686,71.649
				c0,3.778-3.063,6.838-6.836,6.838c-3.775,0-6.84-3.06-6.84-6.838c0-3.774,3.064-6.836,6.84-6.836
				C267.623,64.813,270.686,67.875,270.686,71.649z"/>
		</g>
		<g>
			<path fill="#231F20" d="M202.762,78.487c5.277,0,7.063,3.499,3.971,7.773l-2.594,3.587c-3.092,4.277-8.156,4.277-11.248,0
				l-2.594-3.585c-3.092-4.276-1.305-7.775,3.973-7.775H202.762z"/>
			<path fill="none" d="M202.762,78.487c5.277,0,7.063,3.499,3.971,7.773l-2.594,3.587c-3.092,4.277-8.156,4.277-11.248,0
				l-2.594-3.585c-3.092-4.276-1.305-7.775,3.973-7.775H202.762z"/>
		</g>
	</g>
</g>
</svg>
