<?xml version="1.0" encoding="utf-8"?>
<!-- Generator: Adobe Illustrator 13.0.0, SVG Export Plug-In . SVG Version: 6.00 Build 14948)  -->
<svg version="1.2" baseProfile="tiny" id="Layer_1" xmlns="http://www.w3.org/2000/svg" xmlns:xlink="http://www.w3.org/1999/xlink"
	 x="0px" y="0px" width="397.031px" height="376.49px" viewBox="0 0 397.031 376.49" xml:space="preserve">
<g>
	<g>
		<g>
			<path fill="#FFFFFF" stroke="#231F20" stroke-width="2" stroke-linecap="round" stroke-linejoin="round" d="M360.934,54.555"/>
			<path fill="#FFFFFF" stroke="#231F20" stroke-width="2" stroke-linecap="round" stroke-linejoin="round" d="M367.389,91.671
				c9.266-9.625,14.969-22.702,14.969-37.115C382.357,24.978,358.379,1,328.799,1c-19.682,0-36.869,10.622-46.18,26.44
				c-25.518-10.134-54.023-15.807-84.104-15.807c-30.689,0-59.746,5.896-85.656,16.417C103.639,11.896,86.264,1,66.33,1
				C36.752,1,12.775,24.978,12.775,54.556c0,14.983,6.158,28.519,16.074,38.241C11.17,117.72,1,146.859,1,178.001
				c0,83.967,73.852,153.391,169.824,164.734l-2.395,32.755l29.771-31.123c0.105,0.001,0.209,0.004,0.314,0.004
				c109.084,0,197.516-74.484,197.516-166.37C396.031,146.392,385.563,116.841,367.389,91.671z"/>
		</g>
		<path fill="#231F20" stroke="#FFFFFF" stroke-width="2" stroke-linecap="round" stroke-linejoin="round" d="M328.799,22.419
			c-11.016,0-20.734,5.551-26.521,14.005c19.672,10.251,37.051,23.322,51.33,38.556c4.58-5.553,7.326-12.668,7.326-20.425
			C360.934,36.809,346.545,22.419,328.799,22.419z"/>
		<path fill="#231F20" stroke="#FFFFFF" stroke-width="2" stroke-linecap="round" stroke-linejoin="round" d="M66.33,22.419
			c-17.746,0-32.131,14.389-32.131,32.136c0,8.263,3.141,15.77,8.264,21.463C56.58,60.711,73.803,47.543,93.33,37.172
			C87.611,28.304,77.664,22.419,66.33,22.419z"/>
	</g>
	<g>
		<g>
			
				<circle fill="#231F20" stroke="#FFFFFF" stroke-width="2" stroke-linecap="round" stroke-linejoin="round" cx="133.182" cy="71.639" r="6.838"/>
			<path fill="#231F20" stroke="#FFFFFF" stroke-width="2" stroke-linecap="round" stroke-linejoin="round" d="M270.686,71.639
				c0,3.778-3.063,6.838-6.836,6.838c-3.775,0-6.84-3.06-6.84-6.838c0-3.774,3.064-6.836,6.84-6.836
				C267.623,64.803,270.686,67.865,270.686,71.639z"/>
		</g>
		<g>
			<path fill="#231F20" d="M202.762,78.477c5.277,0,7.063,3.499,3.971,7.773l-2.594,3.587c-3.092,4.277-8.156,4.277-11.248,0
				l-2.594-3.585c-3.092-4.276-1.305-7.775,3.973-7.775H202.762z"/>
			<path fill="none" d="M202.762,78.477c5.277,0,7.063,3.499,3.971,7.773l-2.594,3.587c-3.092,4.277-8.156,4.277-11.248,0
				l-2.594-3.585c-3.092-4.276-1.305-7.775,3.973-7.775H202.762z"/>
		</g>
	</g>
</g>
</svg>
