<?xml version="1.0" encoding="utf-8"?>
<!-- Generator: Adobe Illustrator 13.0.0, SVG Export Plug-In . SVG Version: 6.00 Build 14948)  -->
<svg version="1.2" baseProfile="tiny" id="Layer_1" xmlns="http://www.w3.org/2000/svg" xmlns:xlink="http://www.w3.org/1999/xlink"
	 x="0px" y="0px" width="477.485px" height="545.159px" viewBox="0 0 477.485 545.159" xml:space="preserve">
<g>
	<g>
		<path fill="#FFFFFF" d="M476.485,255.745c-0.075-23.021-12.181-43.179-30.331-54.579c9.992-19.052,10.282-42.654-1.332-62.621
			c-11.576-19.899-32.141-31.305-53.559-32.104c-0.868-21.493-12.421-42.081-32.461-53.563
			c-19.976-11.445-43.488-11.042-62.438-1.023c-11.5-18.182-31.797-30.232-54.895-30.156c-23.023,0.074-43.183,12.18-54.584,30.334
			c-19.049-9.994-42.651-10.287-62.619,1.329c-19.9,11.577-31.306,32.14-32.104,53.561c-21.494,0.868-42.08,12.419-53.563,32.46
			c-11.448,19.979-11.043,43.485-1.026,62.438c-18.177,11.498-30.229,31.798-30.155,54.896
			c0.076,23.022,12.179,43.181,30.333,54.583c-9.995,19.048-10.284,42.652,1.331,62.617c11.576,19.901,32.137,31.305,53.56,32.106
			c0.868,21.491,12.42,42.079,32.461,53.562c19.978,11.449,43.487,11.042,62.436,1.023c11.5,18.182,31.797,30.232,54.897,30.157
			c23.021-0.075,43.178-12.181,54.58-30.331c19.05,9.992,42.654,10.283,62.619-1.333c19.9-11.575,31.308-32.138,32.105-53.558
			c21.491-0.871,42.078-12.421,53.563-32.463c11.447-19.977,11.04-43.485,1.021-62.436
			C464.508,299.142,476.56,278.844,476.485,255.745z"/>
		<path fill="#231F20" d="M242.44,491.762c-22.425,0.073-43.009-11.067-55.249-29.85c-9.201,4.701-19.487,7.198-29.807,7.232
			c-11.451,0.037-22.786-2.969-32.777-8.695c-19.455-11.147-31.71-31.087-32.92-53.471c-22.303-1.139-42.24-13.261-53.468-32.563
			c-11.275-19.38-11.919-42.775-1.774-62.767c-18.745-12.133-29.951-32.6-30.025-54.933c-0.072-22.423,11.067-43.006,29.848-55.247
			c-10.164-19.883-9.637-43.21,1.465-62.586c11.147-19.454,31.087-31.708,53.473-32.919c1.136-22.301,13.256-42.238,32.559-53.469
			c9.954-5.791,21.27-8.871,32.721-8.908c10.396-0.034,20.766,2.431,30.049,7.136c12.135-18.747,32.601-29.954,54.934-30.026
			c22.423-0.074,43.006,11.067,55.248,29.849c9.199-4.7,19.483-7.197,29.805-7.231c11.452-0.037,22.787,2.969,32.779,8.694
			c19.456,11.148,31.711,31.088,32.921,53.473c22.3,1.138,42.237,13.259,53.468,32.562c11.271,19.379,11.916,42.776,1.773,62.771
			c18.745,12.134,29.951,32.598,30.024,54.929c0.073,22.423-11.067,43.007-29.851,55.249c10.168,19.882,9.641,43.209-1.461,62.584
			c-11.148,19.453-31.088,31.708-53.473,32.921c-1.136,22.301-13.258,42.239-32.563,53.467c-9.953,5.791-21.269,8.872-32.721,8.91
			h-0.001c-10.396,0.033-20.765-2.432-30.046-7.135C285.236,480.485,264.771,491.689,242.44,491.762z M187.89,459.289l0.494,0.781
			c11.805,18.665,32.01,29.764,54.049,29.692c21.947-0.071,42.035-11.235,53.738-29.863l0.49-0.783l0.82,0.431
			c9.201,4.826,19.551,7.359,29.928,7.326c11.102-0.037,22.072-3.023,31.724-8.639c18.974-11.036,30.79-30.748,31.609-52.73
			l0.034-0.926l0.925-0.037c22.065-0.894,41.78-12.842,52.735-31.96c10.912-19.042,11.289-42.022,1.006-61.47l-0.433-0.818
			l0.782-0.495c18.664-11.806,29.764-32.011,29.692-54.049c-0.071-21.948-11.235-42.036-29.863-53.736l-0.784-0.491l0.43-0.82
			c10.26-19.559,9.77-42.607-1.311-61.653c-11.036-18.972-30.748-30.787-52.73-31.608l-0.924-0.033l-0.037-0.926
			c-0.893-22.064-12.841-41.78-31.961-52.736c-9.688-5.551-20.678-8.466-31.779-8.43c-10.305,0.033-20.572,2.601-29.691,7.424
			l-0.818,0.432l-0.494-0.781c-11.807-18.665-32.012-29.764-54.049-29.691c-21.949,0.071-42.039,11.236-53.74,29.865l-0.491,0.784
			l-0.819-0.431c-9.203-4.828-19.553-7.362-29.932-7.328c-11.1,0.035-22.068,3.022-31.721,8.637
			c-18.973,11.038-30.788,30.751-31.605,52.732l-0.035,0.926l-0.924,0.037c-22.066,0.893-41.781,12.84-52.736,31.958
			c-10.912,19.044-11.289,42.024-1.01,61.473l0.433,0.817l-0.781,0.495c-18.663,11.806-29.762,32.011-29.69,54.048
			c0.072,21.949,11.236,42.039,29.864,53.739l0.784,0.491l-0.43,0.82c-10.262,19.556-9.771,42.603,1.311,61.649
			c11.034,18.971,30.746,30.787,52.732,31.61l0.924,0.034l0.037,0.925c0.891,22.064,12.838,41.779,31.959,52.734
			c9.688,5.551,20.676,8.467,31.777,8.431c10.303-0.034,20.571-2.601,29.693-7.425L187.89,459.289z"/>
	</g>
	<g>
		<g>
			<g>
				<g>
					<path fill="#97D6D6" d="M161.548,417.431c7.692,1.999,15.119,3.402,21.931,4.235c16.339,1.998,29.1,0.687,33.292-3.782
						l0.355-0.511l-104.103-27.039l0.06,0.62C115.195,399.378,135.404,410.644,161.548,417.431z"/>
				</g>
			</g>
			<g>
				<g>
					<path fill="#FFFFFF" d="M112.912,389.2c-0.025,0.365,0.006,0.742,0.061,1.121l0.052,0.014L112.912,389.2z"/>
				</g>
				<g>
					<path fill="#231F20" d="M113.028,391.635c-0.113,0-0.228-0.015-0.337-0.044l-0.052-0.014c-0.505-0.133-0.881-0.556-0.956-1.071
						c-0.074-0.532-0.097-0.976-0.068-1.396c0.049-0.676,0.604-1.201,1.279-1.211c0.734-0.011,1.246,0.5,1.311,1.174l0.113,1.134
						c0.041,0.424-0.128,0.843-0.452,1.117C113.629,391.526,113.332,391.634,113.028,391.635z"/>
				</g>
			</g>
			<g>
				<g>
					<path fill="#FFFFFF" d="M113.024,390.334l-0.052-0.014c0.031,0.211,0.059,0.42,0.111,0.634L113.024,390.334z"/>
				</g>
				<g>
					<path fill="#231F20" d="M113.085,392.255c-0.592,0.002-1.124-0.402-1.267-0.997c-0.057-0.234-0.091-0.463-0.126-0.693
						c-0.063-0.432,0.09-0.895,0.418-1.185c0.326-0.293,0.774-0.429,1.193-0.316c0.525,0.139,0.961,0.605,1.014,1.146l0.059,0.621
						c0.065,0.68-0.406,1.295-1.08,1.406C113.225,392.25,113.156,392.255,113.085,392.255z"/>
				</g>
			</g>
			<g>
				<g>
					<path fill="#FFFFFF" d="M217.778,416.435l-0.651,0.938l0.051,0.012C217.412,417.08,217.619,416.768,217.778,416.435z"/>
				</g>
				<g>
					<path fill="#231F20" d="M217.181,418.686c-0.111,0-0.223-0.013-0.33-0.042l-0.051-0.014c-0.412-0.106-0.746-0.408-0.893-0.806
						c-0.148-0.399-0.092-0.846,0.15-1.194l0.652-0.938c0.386-0.556,1.131-0.723,1.721-0.383c0.584,0.342,0.812,1.074,0.521,1.687
						c-0.185,0.383-0.421,0.759-0.744,1.18C217.958,418.501,217.578,418.684,217.181,418.686z"/>
				</g>
			</g>
			<g>
				<g>
					<path fill="#FFFFFF" d="M217.177,417.385l-0.051-0.012l-0.355,0.511C216.923,417.722,217.048,417.553,217.177,417.385z"/>
				</g>
				<g>
					<path fill="#231F20" d="M216.775,419.183c-0.287,0.001-0.578-0.094-0.818-0.288c-0.531-0.427-0.641-1.191-0.254-1.751
						l0.354-0.512c0.31-0.448,0.866-0.656,1.394-0.518c0.424,0.107,0.789,0.429,0.93,0.84c0.141,0.414,0.092,0.877-0.173,1.222
						c-0.183,0.241-0.323,0.421-0.486,0.596C217.468,419.042,217.123,419.182,216.775,419.183z"/>
				</g>
			</g>
			<g>
				<g>
					<path fill="#97D6D6" d="M217.875,416.203c-0.033,0.078-0.062,0.156-0.097,0.232l0.151-0.219L217.875,416.203z"/>
				</g>
			</g>
			<g>
				<g>
					<g>
						<path fill="#EF437A" d="M124.196,503.662c9.95,1.414,21.146,1.935,32.728,0.499l15.379-22.164
							c-18.132,4.101-35.946,2.773-50.246-0.01L124.196,503.662z"/>
					</g>
				</g>
				<g>
					<g>
						<path fill="#EF437A" d="M126.291,524.932l1.638,16.603c0.614,1.07,1.543,1.309,2.6,0.677l11.705-16.874
							C136.74,525.554,131.392,525.382,126.291,524.932z"/>
					</g>
				</g>
				<g>
					<g>
						<path fill="#B9E5F4" d="M122.056,481.987c14.3,2.783,32.114,4.11,50.246,0.01l16.4-23.649
							c-25.14,8.988-50.929,5.984-68.821,1.572L122.056,481.987z"/>
					</g>
				</g>
				<g>
					<g>
						<path fill="#B9E5F4" d="M126.291,524.932c5.102,0.45,10.449,0.622,15.942,0.405l14.69-21.177
							c-11.581,1.436-22.777,0.915-32.728-0.499L126.291,524.932z"/>
					</g>
				</g>
				<g>
					<g>
						<path fill="#EF437A" d="M117.667,437.447l2.215,22.473c17.893,4.412,43.682,7.416,68.821-1.572l18.148-26.161
							C174.241,449.929,137.919,443.527,117.667,437.447z"/>
					</g>
				</g>
				<g>
					<g>
						<path fill="#B9E5F4" d="M183.479,421.667c-28.226,4.985-55.005-2.436-68.068-7.123l2.256,22.903
							c20.253,6.08,56.574,12.482,89.185-5.261l9.92-14.302C212.579,422.353,199.818,423.665,183.479,421.667z"/>
					</g>
				</g>
				<g>
					<g>
						<path fill="#EF437A" d="M183.479,421.667c-6.812-0.833-14.238-2.236-21.931-4.235c-26.145-6.787-46.354-18.053-48.465-26.477
							l2.327,23.589C128.474,419.231,155.253,426.652,183.479,421.667z"/>
					</g>
				</g>
			</g>
			<g>
				<g>
					<path fill="#231F20" d="M113.083,390.955c2.111,8.424,22.32,19.689,48.467,26.477c7.69,1.999,15.117,3.402,21.93,4.235
						c5.077,0.62,9.809,0.923,14.047,0.909c9.395-0.03,16.355-1.611,19.244-4.691l-9.92,14.302l-18.148,26.161l-16.4,23.649
						l-15.379,22.164l-14.69,21.179l-11.705,16.872c-0.386,0.229-0.753,0.345-1.095,0.346c-0.597,0.002-1.112-0.343-1.503-1.022
						l-1.638-16.603l-2.097-21.271l-2.138-21.671l-2.177-22.071l-2.215-22.473l-2.256-22.903L113.083,390.955 M216.771,417.884
						h0.008 M113.077,388.353c-0.144,0.001-0.29,0.016-0.438,0.041c-1.341,0.232-2.277,1.461-2.143,2.815l2.326,23.59l2.258,22.903
						l2.214,22.472l2.177,22.071l2.138,21.673l2.097,21.269l1.637,16.604c0.036,0.365,0.15,0.721,0.333,1.04
						c0.853,1.483,2.227,2.333,3.768,2.328c0.819-0.003,1.633-0.244,2.423-0.718c0.316-0.189,0.589-0.444,0.801-0.748l11.704-16.872
						l14.689-21.18l15.38-22.163l16.4-23.649l18.146-26.159l9.869-14.226c0.328-0.437,0.521-0.98,0.52-1.568
						c-0.005-1.434-1.164-2.592-2.596-2.593c-0.004,0-0.01,0-0.014,0c-0.018,0-0.035,0-0.053,0.002h-0.004l0,0
						c-0.408,0.01-0.793,0.114-1.133,0.289c-0.256,0.134-0.492,0.311-0.7,0.531c-2.248,2.395-8.735,3.842-17.356,3.869
						c-4.17,0.014-8.787-0.285-13.725-0.889c-6.936-0.848-14.201-2.25-21.592-4.17c-27.071-7.03-44.951-18.025-46.597-24.594
						C115.31,389.147,114.253,388.349,113.077,388.353L113.077,388.353z"/>
				</g>
			</g>
			<g>
				<g>
					<path fill="#97D6D6" d="M112.884,388.934l0.027,0.266c0.006-0.086,0.018-0.166,0.027-0.25L112.884,388.934z"/>
				</g>
			</g>
			<g>
				<g>
					<g>
						<path fill="#7BB9E5" d="M197.591,423.64c-10.395,0.034-23.287-1.811-36.308-5.189c-26.437-6.869-52.151-20.238-49.428-30.723
							c1.325-5.1,9.073-7.932,21.821-7.973c10.395-0.034,23.289,1.811,36.308,5.191c26.436,6.863,52.153,20.232,49.431,30.718
							C218.089,420.767,210.34,423.599,197.591,423.64z"/>
					</g>
				</g>
				<g>
					<g>
						<g>
							<path fill="#231F20" d="M133.681,381.056c9.92-0.033,22.555,1.662,35.977,5.149c29.008,7.53,50.722,20.577,48.5,29.133
								c-1.194,4.597-9.057,6.964-20.571,7.001c-9.92,0.032-22.552-1.662-35.976-5.148c-29.007-7.535-50.72-20.576-48.497-29.137
								C114.309,383.458,122.167,381.093,133.681,381.056 M133.675,378.457L133.675,378.457c-13.59,0.044-21.57,3.137-23.077,8.944
								c-1.413,5.431,3.33,11.599,13.714,17.834c9.365,5.628,22.381,10.767,36.645,14.472c13.125,3.409,26.137,5.267,36.639,5.232
								c13.588-0.044,21.569-3.137,23.079-8.946c1.409-5.431-3.333-11.597-13.716-17.834c-9.369-5.628-22.385-10.767-36.648-14.471
								C157.188,380.28,144.177,378.421,133.675,378.457L133.675,378.457z"/>
						</g>
					</g>
				</g>
			</g>
		</g>
		<g>
			<g>
				<path fill="#ED4B97" d="M177.367,376.816c0,0,18.99,2.104,27.986-7.891l10.031,23.469c0,0-12.574,13.524-30.35,10.828
					L177.367,376.816z"/>
			</g>
			<g>
				<path fill="#231F20" d="M189.84,404.878c-1.664,0.006-3.347-0.118-5.001-0.37c-0.501-0.075-0.912-0.437-1.053-0.923
					l-7.668-26.406c-0.123-0.418-0.026-0.867,0.252-1.2c0.28-0.331,0.711-0.501,1.139-0.455c0.018,0.002,1.715,0.186,4.276,0.178
					c5.889-0.02,16.654-1.039,22.602-7.646c0.299-0.329,0.745-0.489,1.179-0.412c0.438,0.071,0.809,0.362,0.982,0.771l10.031,23.471
					c0.201,0.473,0.105,1.02-0.243,1.396C215.898,393.752,205.419,404.828,189.84,404.878z M186.048,402.051
					c1.256,0.153,2.526,0.231,3.783,0.228c12.475-0.041,21.658-7.943,24.011-10.184l-8.929-20.894
					c-7.945,7.169-20.961,7.269-25.779,7.044L186.048,402.051z"/>
			</g>
		</g>
		<g>
			<g>
				<path fill="#ED4B97" d="M204.648,152.491c0,0-4.676-18.525-17.188-23.454l18.475-17.613c0,0,17.068,7.047,20.766,24.643
					L204.648,152.491z"/>
			</g>
			<g>
				<path fill="#231F20" d="M204.653,153.792c-0.147,0.001-0.296-0.024-0.44-0.077c-0.409-0.145-0.719-0.483-0.824-0.905
					c-0.047-0.179-4.67-17.941-16.403-22.563c-0.413-0.162-0.716-0.525-0.8-0.96c-0.086-0.436,0.058-0.884,0.379-1.19l18.476-17.611
					c0.372-0.355,0.919-0.457,1.392-0.261c0.722,0.298,17.747,7.517,21.543,25.574c0.104,0.496-0.09,1.008-0.497,1.311
					l-22.053,16.425C205.199,153.702,204.927,153.791,204.653,153.792z M189.748,128.651c9.503,4.922,14.145,17.024,15.625,21.68
					l19.875-14.806c-3.365-14.07-15.848-20.983-19.055-22.549L189.748,128.651z"/>
			</g>
		</g>
		<g>
			<g>
				<path fill="#ED4B97" d="M278.751,95.268c0,0,11.281,1.249,16.624-4.687l5.956,13.939c0,0-7.467,8.032-18.023,6.432
					L278.751,95.268z"/>
			</g>
			<g>
				<path fill="#231F20" d="M286.163,112.462c-1.015,0.004-2.04-0.073-3.05-0.226c-0.501-0.075-0.912-0.437-1.053-0.923
					l-4.557-15.685c-0.121-0.415-0.024-0.865,0.254-1.198c0.279-0.332,0.714-0.504,1.137-0.457
					c0.033,0.006,10.639,1.155,15.515-4.263c0.299-0.329,0.743-0.487,1.18-0.412c0.438,0.073,0.809,0.362,0.983,0.771l5.955,13.939
					c0.202,0.472,0.106,1.02-0.244,1.395C302.017,105.693,295.642,112.432,286.163,112.462z M284.317,109.77
					c0.612,0.064,1.228,0.095,1.837,0.093c6.797-0.021,11.94-4.119,13.629-5.655l-4.873-11.408
					c-4.514,3.616-11.191,3.94-14.396,3.869L284.317,109.77z"/>
			</g>
		</g>
		<g>
			<g>
				<path fill="#8AC641" d="M363.528,351.069c0,0,10.038,1.112,14.793-4.173l5.304,12.406c0,0-6.646,7.148-16.043,5.725
					L363.528,351.069z"/>
			</g>
			<g>
				<path fill="#231F20" d="M370.123,366.514c-0.91,0.003-1.83-0.064-2.736-0.202c-0.5-0.074-0.912-0.436-1.053-0.922l-4.054-13.959
					c-0.122-0.416-0.026-0.865,0.252-1.198c0.279-0.333,0.71-0.503,1.138-0.457c0.031,0.006,9.399,1.017,13.685-3.75
					c0.297-0.329,0.739-0.489,1.179-0.412c0.438,0.073,0.81,0.362,0.984,0.772l5.303,12.406c0.203,0.473,0.107,1.02-0.242,1.396
					C384.337,360.445,378.623,366.487,370.123,366.514z M368.591,363.843c0.507,0.05,1.017,0.073,1.522,0.072
					c5.934-0.02,10.406-3.522,11.962-4.926l-4.229-9.891c-3.959,3.069-9.658,3.406-12.563,3.363L368.591,363.843z"/>
			</g>
		</g>
		<g>
			<g>
				<path fill="#8AC641" d="M143.5,393.844c0,0,10.038,1.111,14.793-4.172l5.303,12.405c0,0-6.646,7.15-16.043,5.727L143.5,393.844z
					"/>
			</g>
			<g>
				<path fill="#231F20" d="M150.092,409.292c-0.909,0.003-1.829-0.066-2.735-0.204c-0.501-0.074-0.911-0.435-1.053-0.922
					l-4.053-13.96c-0.122-0.415-0.025-0.865,0.252-1.198c0.281-0.331,0.713-0.506,1.138-0.457c0.029,0.006,9.397,1.019,13.685-3.748
					c0.299-0.33,0.747-0.486,1.18-0.413c0.439,0.072,0.809,0.364,0.983,0.771l5.302,12.407c0.204,0.472,0.107,1.02-0.242,1.395
					C164.309,403.22,158.592,409.263,150.092,409.292z M148.562,406.619c0.506,0.049,1.016,0.073,1.521,0.071
					c5.934-0.02,10.408-3.522,11.965-4.926l-4.229-9.891c-3.961,3.069-9.647,3.406-12.562,3.363L148.562,406.619z"/>
			</g>
		</g>
		<g>
			<g>
				<path fill="#FEDF00" d="M22.894,274.78c0,0-5.231,12.475-0.25,20.589l-17.948,2.107c0,0-6.665-11.25-1.272-22.781L22.894,274.78
					z"/>
			</g>
			<g>
				<path fill="#231F20" d="M4.7,298.777c-0.458,0.002-0.888-0.237-1.124-0.637c-0.287-0.483-6.95-11.979-1.329-23.996
					c0.214-0.457,0.679-0.738,1.183-0.748l19.471,0.085c0.435,0.001,0.837,0.22,1.076,0.583c0.24,0.36,0.284,0.819,0.117,1.218
					c-0.05,0.119-4.911,11.966-0.343,19.405c0.233,0.379,0.255,0.85,0.063,1.248c-0.195,0.399-0.578,0.672-1.018,0.725
					l-17.951,2.109C4.796,298.775,4.747,298.777,4.7,298.777z M4.267,275.999c-3.742,8.901-0.094,17.56,1.159,20.083l15.196-1.784
					c-2.861-6.55-0.77-14.668,0.414-18.225L4.267,275.999z"/>
			</g>
		</g>
		<g>
			<g>
				<path fill="#FEDF00" d="M156.002,337.682c0,0-5.235,12.476-0.253,20.589L137.8,360.38c0,0-6.662-11.25-1.268-22.783
					L156.002,337.682z"/>
			</g>
			<g>
				<path fill="#231F20" d="M137.804,361.679c-0.456,0.001-0.886-0.237-1.123-0.637c-0.285-0.484-6.947-11.98-1.326-23.996
					c0.215-0.458,0.658-0.758,1.183-0.748l19.47,0.085c0.436,0,0.838,0.22,1.078,0.582c0.238,0.36,0.283,0.819,0.115,1.219
					c-0.049,0.119-4.914,11.965-0.344,19.405c0.232,0.378,0.255,0.849,0.063,1.248c-0.193,0.398-0.577,0.672-1.018,0.724
					l-17.949,2.109C137.902,361.677,137.853,361.679,137.804,361.679z M137.375,338.901c-3.727,8.872-0.088,17.554,1.161,20.084
					l15.194-1.786c-2.86-6.549-0.771-14.667,0.413-18.224L137.375,338.901z"/>
			</g>
		</g>
		<g>
			<g>
				<path fill="#FEDF00" d="M420.962,127.83c0,0,19.107,0.035,26.97-10.873l12.511,22.246c0,0-11.035,14.804-29,14.048
					L420.962,127.83z"/>
			</g>
			<g>
				<path fill="#231F20" d="M432.88,154.578c-0.492,0.002-0.99-0.006-1.492-0.027c-0.506-0.022-0.954-0.336-1.146-0.806
					l-10.48-25.421c-0.166-0.399-0.121-0.856,0.121-1.219c0.24-0.358,0.645-0.574,1.076-0.576
					c0.645,0.014,18.574-0.143,25.918-10.332c0.262-0.36,0.67-0.569,1.129-0.537c0.443,0.023,0.842,0.272,1.06,0.66l12.511,22.244
					c0.252,0.449,0.217,1.004-0.091,1.415C461.043,140.572,450.443,154.521,432.88,154.578z M432.323,151.974
					c14.435,0.221,24.245-10.181,26.554-12.904l-11.137-19.802c-7.082,7.937-20.005,9.485-24.865,9.788L432.323,151.974z"/>
			</g>
		</g>
		<g>
			<g>
				<path fill="#FEDF00" d="M288.374,419.184c0,0-9.189-16.749-22.538-18.37l13.444-21.694c0,0,18.295,2.521,26.301,18.617
					L288.374,419.184z"/>
			</g>
			<g>
				<path fill="#231F20" d="M288.378,420.485c-0.039,0-0.078-0.002-0.117-0.006c-0.434-0.038-0.818-0.288-1.027-0.669
					c-0.09-0.161-9.034-16.185-21.556-17.706c-0.44-0.054-0.823-0.327-1.015-0.728c-0.192-0.399-0.168-0.871,0.065-1.248
					l13.447-21.695c0.271-0.436,0.769-0.668,1.283-0.604c0.773,0.107,19.067,2.806,27.284,19.329
					c0.227,0.452,0.168,0.996-0.148,1.392l-17.207,21.448C289.14,420.306,288.769,420.484,288.378,420.485z M267.953,399.864
					c10.434,2.372,17.975,12.914,20.578,17.048l15.506-19.33c-6.795-12.772-20.619-16.317-24.116-17.026L267.953,399.864z"/>
			</g>
		</g>
		<g>
			<g>
				<path fill="#64AEE0" d="M82.28,320.532c0,0-4.363-10.87-12.369-12.835l9.774-12.217c0,0,10.947,2.876,14.64,13.259
					L82.28,320.532z"/>
			</g>
			<g>
				<path fill="#231F20" d="M82.285,321.831c-0.092,0-0.182-0.007-0.271-0.028c-0.426-0.089-0.776-0.383-0.939-0.786
					c-0.041-0.104-4.219-10.275-11.473-12.056c-0.431-0.106-0.778-0.424-0.924-0.846c-0.141-0.419-0.059-0.882,0.217-1.229
					l9.774-12.218c0.323-0.401,0.851-0.577,1.347-0.446c0.475,0.126,11.656,3.176,15.535,14.081
					c0.169,0.478,0.046,1.009-0.316,1.364L83.191,321.46C82.945,321.7,82.619,321.83,82.285,321.831z M72.089,307.055
					c5.537,2.325,9.104,8.281,10.599,11.259l10.119-9.908c-3.051-7.463-10.271-10.566-12.667-11.414L72.089,307.055z"/>
			</g>
		</g>
		<g>
			<g>
				<path fill="#64AEE0" d="M232.091,42.168c0,0-7.119-17.731-20.18-20.937l15.945-19.931c0,0,17.86,4.691,23.885,21.629
					L232.091,42.168z"/>
			</g>
			<g>
				<path fill="#231F20" d="M232.095,43.467c-0.091,0-0.181-0.009-0.271-0.026c-0.427-0.091-0.778-0.387-0.94-0.788
					c-0.068-0.172-7.032-17.153-19.281-20.158c-0.43-0.105-0.778-0.425-0.922-0.845c-0.143-0.419-0.061-0.885,0.215-1.23
					l15.945-19.932c0.321-0.401,0.852-0.577,1.346-0.443c0.756,0.198,18.597,5.066,24.779,22.45
					c0.168,0.478,0.047,1.012-0.316,1.366L233,43.097C232.755,43.336,232.43,43.466,232.095,43.467z M214.128,20.543
					c10.074,3.602,16.299,14.972,18.389,19.388l17.713-17.338c-5.225-13.494-18.521-18.668-21.911-19.79L214.128,20.543z"/>
			</g>
		</g>
		<g>
			<g>
				<path fill="#8AC641" d="M81.441,100.671c0,0-7.326,17.646-0.244,29.076l-25.338,3.074c0,0-9.471-15.852-1.917-32.166
					L81.441,100.671z"/>
			</g>
			<g>
				<path fill="#231F20" d="M55.864,134.121c-0.455,0.002-0.883-0.235-1.121-0.633c-0.401-0.67-9.733-16.635-1.979-33.379
					c0.212-0.457,0.669-0.752,1.175-0.754h0.005l27.498,0.016c0.435,0.001,0.839,0.219,1.08,0.579c0.242,0.36,0.286,0.819,0.12,1.22
					c-0.069,0.171-6.981,17.172-0.339,27.895c0.234,0.376,0.259,0.847,0.068,1.248c-0.193,0.398-0.576,0.674-1.017,0.728
					l-25.338,3.073C55.966,134.119,55.915,134.121,55.864,134.121z M54.785,101.957c-5.729,13.321,0.156,26.301,1.794,29.469
					l22.555-2.736c-4.675-9.625-1.162-22.102,0.437-26.718L54.785,101.957z"/>
			</g>
		</g>
		<g>
			<g>
				<g>
					<g>
						<g>
							<path fill="#231F20" d="M86.771,188.329c-6.067-5.868-13.487-7.835-21.18-3.872c-7.119,3.668-10.988,12.353-11.264,19.988
								c-0.287,7.954,3.855,15.925,10.531,20.155c7.721,4.891,16.669,0.934,22.91-4.288c4.506-3.771-1.99-10.151-6.455-6.414
								c-3.41,2.851-7.588,5.034-11.889,2.828c-3.852-1.975-5.568-6.908-5.951-10.923c-0.918-9.642,8.626-19.005,16.885-11.018
								C84.576,198.866,90.996,192.415,86.771,188.329L86.771,188.329z"/>
						</g>
					</g>
				</g>
				<g>
					<g>
						<g>
							<path fill="#231F20" d="M113.166,225.085c11.113-3.164,17.327-17.14,15.244-27.98c-2.4-12.486-16.308-16.501-26.885-11.215
								c-8.918,4.455-11.426,15.914-9.945,24.89C93.347,221.519,102.923,227.083,113.166,225.085
								c5.756-1.123,3.28-9.885-2.449-8.766c-12.5,2.437-12.771-15.51-5.963-21.712c4.59-4.181,13.074-2.044,14.67,3.808
								c1.686,6.182-2.256,16.066-8.707,17.904C105.082,217.923,107.509,226.697,113.166,225.085z"/>
						</g>
					</g>
				</g>
				<g>
					<g>
						<g>
							<path fill="#231F20" d="M130.405,192.126c1.019,9.908,3.161,20.813,6.476,30.193c1.732,4.902,8.598,3.949,8.934-1.238
								c0.515-7.875-0.151-22.197,6.859-27.579c5.502-4.224,10.959,2.198,11.192,7.433c0.266,5.995-1.93,11.955-3.46,17.666
								c-1.521,5.676,7.267,8.052,8.783,2.391c2.236-8.342,4.75-16.596,3.172-25.296c-1.659-9.121-11.413-13.25-19.771-11.986
								c-14.965,2.266-15.155,26.343-15.873,37.402c2.977-0.414,5.955-0.826,8.934-1.24c-1.7-4.808-2.615-9.929-3.652-14.91
								c-0.625-2.99-1.207-5.99-1.772-8.992c-0.177-0.941-0.348-1.882-0.521-2.825c-0.055-0.311-0.395-2.947-0.199-1.048
								C138.912,186.315,129.804,186.29,130.405,192.126L130.405,192.126z"/>
						</g>
					</g>
				</g>
				<g>
					<g>
						<g>
							<path fill="#231F20" d="M201.691,187.411c-16.148-14.34-33.811,15.038-21.33,28.193c5.543,5.841,15.689,3.532,20.991-1.304
								C210.372,206.07,208.976,196.116,201.691,187.411c-1.83,2.389-3.66,4.776-5.49,7.165c6.742,4.079,9.69,12.856,11.537,20.065
								c1.878,7.324,3.136,18.088-2.111,24.407c-1.691,2.037-6.227,4.638-8.799,2.629c-2.961-2.313-1-7.835,1.034-9.994
								c5.327-5.652,15.741-2.541,20.336,2.227c4.079,4.231,10.483-2.233,6.413-6.456c-8.629-8.95-23.654-10.558-33.205-2.183
								c-9.539,8.365-5.048,26.503,8.526,26.074c14.586-0.462,18.862-16.674,18.228-28.471
								c-0.693-12.837-5.765-29.137-17.391-36.172c-4.684-2.834-8.657,3.382-5.49,7.165c3.676,4.394,4.911,8.452,0.678,13.052
								c-1.986,2.157-6.459,4.367-9.182,2.229c-5.424-4.262,2.191-20.888,8.504-15.281
								C199.65,197.75,206.087,191.314,201.691,187.411L201.691,187.411z"/>
						</g>
					</g>
				</g>
				<g>
					<g>
						<g>
							<path fill="#231F20" d="M218.062,192.134c7.441,6.941,8.17,17.907,8.326,27.489c0.068,4.207,6.57,6.615,8.486,2.269
								c2.209-5.009,3.779-10.258,6.123-15.217c1.283-2.707,2.773-5.333,4.91-7.455c2.048-2.032,3.971,0.703,5.309,2.264
								c3.818,4.466,10.203-2.023,6.41-6.455c-6.075-7.104-14.336-7.371-20.217,0.084c-5.189,6.575-7.094,14.697-10.408,22.212
								c2.83,0.757,5.658,1.513,8.486,2.269c-0.193-12.021-1.75-25.275-11.014-33.915
								C220.189,181.681,213.762,188.124,218.062,192.134L218.062,192.134z"/>
						</g>
					</g>
				</g>
				<g>
					<g>
						<g>
							<path fill="#231F20" d="M315.337,203.609c10.465-2.938,20.523-7.333,30.783-10.895c5.51-1.91,3.112-10.695-2.448-8.765
								c-10.26,3.559-20.317,7.954-30.783,10.894C307.248,196.425,309.677,205.197,315.337,203.609L315.337,203.609z"/>
						</g>
					</g>
				</g>
				<g>
					<g>
						<g>
							<path fill="#231F20" d="M323.424,173.814c-2.05,13.647-3.591,28.721,0.252,42.174c1.661,5.813,5.798,11.832,12.351,12.334
								c7.732,0.594,13.457-5.125,17.523-11.047c3.334-4.849-4.572-9.368-7.871-4.566c-2.154,3.135-7.047,9.143-10.977,5.341
								c-3.195-3.091-3.517-9.632-3.857-13.716c-0.775-9.301-0.022-18.914,1.362-28.128
								C333.07,170.464,324.294,168.027,323.424,173.814L323.424,173.814z"/>
						</g>
					</g>
				</g>
				<g>
					<g>
						<g>
							<path fill="#231F20" d="M357.611,191.619c-3.859,13.927,1.809,36.975,20.529,32.766c14.808-3.33,15.521-27.074,12.398-38.398
								c-2.923,0.816-5.846,1.633-8.768,2.448c3.073,10.021,5.93,20.101,9.508,29.96c1.986,5.472,10.773,3.082,8.766-2.449
								c-3.578-9.857-6.434-19.936-9.506-29.959c-1.716-5.594-10.334-3.229-8.768,2.448c2.09,7.573,2.09,19.14-3.318,25.398
								c-3.918,4.532-9.025,0.887-11.197-3.181c-2.607-4.89-2.289-11.49-0.862-16.642
								C367.962,188.343,359.175,185.971,357.611,191.619L357.611,191.619z"/>
						</g>
					</g>
				</g>
				<g>
					<g>
						<g>
							<path fill="#231F20" d="M270.742,198.48c2.467-4.588,5.031-10.033,10.826-10.633c4.66-0.479,6.984,0.747,8.977,4.643
								c3.239,6.346,2.736,15.712-0.538,21.891c-1.552,2.924-4.142,4.791-7.46,5.026c-2.159,0.153-9.342-0.575-8.799-3.883
								c0.657-4.003,5.238-7.121,8.66-8.567c6.068-2.563,11.92-1.033,16.984,2.837c4.662,3.563,9.16-4.364,4.566-7.872
								c-12.503-9.556-34.5-5.257-38.994,11.211c-2.09,7.663,4.104,12.43,10.576,14.44c6.688,2.077,13.636,0.678,18.809-3.991
								c9.345-8.438,8.823-25.203,4.035-35.711c-3.188-7.001-9.502-9.227-16.846-9.123c-9.366,0.133-14.672,7.735-18.67,15.165
								C260.089,199.082,267.96,203.65,270.742,198.48L270.742,198.48z"/>
						</g>
					</g>
				</g>
				<g>
					<g>
						<g>
							<path fill="#231F20" d="M403.968,203.788c6.893-0.712,13.778-1.377,20.712-1.45c5.867-0.064,5.841-9.164-0.03-9.1
								c-6.933,0.073-13.819,0.738-20.712,1.45C398.158,195.286,398.13,204.391,403.968,203.788L403.968,203.788z"/>
						</g>
					</g>
				</g>
			</g>
			<g>
				<g>
					<g>
						<g>
							<path fill="#231F20" d="M258.851,314.245c11.113-3.165,17.331-17.139,15.248-27.981
								c-2.397-12.486-16.309-16.498-26.885-11.213c-8.918,4.456-11.426,15.914-9.947,24.89
								C239.037,310.676,248.611,316.243,258.851,314.245c5.756-1.122,3.282-9.884-2.447-8.766
								c-12.498,2.438-12.768-15.509-5.961-21.711c4.59-4.179,13.076-2.045,14.671,3.808c1.687,6.182-2.258,16.064-8.71,17.903
								C250.769,307.083,253.197,315.857,258.851,314.245z"/>
						</g>
					</g>
				</g>
				<g>
					<g>
						<g>
							<path fill="#231F20" d="M279.018,280.907c1.019,9.907,3.159,20.813,6.476,30.19c1.73,4.902,8.595,3.948,8.934-1.238
								c0.512-7.873-0.152-22.195,6.857-27.575c5.18-3.976,10.83,1.746,11.178,6.87c0.42,6.176-1.871,12.348-3.441,18.226
								c-1.52,5.679,7.266,8.055,8.781,2.392c2.084-7.794,5.028-16.284,3.336-24.439c-1.814-8.742-10.051-14.336-18.949-12.99
								c-15.846,2.397-16.078,25.482-16.862,37.547c2.978-0.414,5.955-0.826,8.934-1.24c-1.699-4.805-2.614-9.927-3.651-14.905
								c-0.623-2.99-1.204-5.991-1.771-8.993c-0.177-0.94-0.348-1.881-0.518-2.824c-0.057-0.311-0.398-2.947-0.202-1.048
								C287.523,275.096,278.417,275.071,279.018,280.907L279.018,280.907z"/>
						</g>
					</g>
				</g>
				<g>
					<g>
						<g>
							<path fill="#231F20" d="M171.767,289.244c10.465-2.938,20.521-7.333,30.783-10.894c5.508-1.913,3.109-10.696-2.449-8.768
								c-10.26,3.562-20.316,7.957-30.782,10.896C163.677,282.061,166.107,290.833,171.767,289.244L171.767,289.244z"/>
						</g>
					</g>
				</g>
				<g>
					<g>
						<g>
							<path fill="#231F20" d="M179.855,259.45c-2.051,13.647-3.59,28.721,0.252,42.171c1.663,5.813,5.797,11.835,12.353,12.337
								c7.73,0.592,13.456-5.126,17.522-11.048c3.332-4.851-4.573-9.368-7.873-4.568c-2.152,3.137-7.047,9.145-10.977,5.343
								c-3.193-3.091-3.514-9.631-3.855-13.718c-0.775-9.299-0.023-18.914,1.362-28.126
								C189.503,256.097,180.728,253.662,179.855,259.45L179.855,259.45z"/>
						</g>
					</g>
				</g>
				<g>
					<g>
						<g>
							<path fill="#231F20" d="M95.449,260.911c5.531,16.243,9.979,34.974,10.34,52.226c0.121,5.861,9.221,5.842,9.1-0.029
								c-0.377-18.036-4.891-37.666-10.672-54.645C102.333,252.939,93.552,255.34,95.449,260.911L95.449,260.911z"/>
						</g>
					</g>
				</g>
				<g>
					<g>
						<g>
							<path fill="#231F20" d="M129.447,286.458c2.468-4.588,5.029-10.034,10.824-10.631c4.66-0.482,6.984,0.743,8.975,4.641
								c3.241,6.345,2.738,15.712-0.537,21.891c-1.551,2.923-4.141,4.791-7.459,5.026c-2.16,0.153-9.342-0.575-8.797-3.884
								c0.656-4.004,5.236-7.122,8.658-8.567c6.068-2.564,11.922-1.035,16.984,2.836c4.662,3.563,9.161-4.364,4.568-7.873
								c-12.505-9.555-34.504-5.256-38.994,11.213c-2.091,7.664,4.103,12.431,10.576,14.441c6.688,2.077,13.635,0.678,18.807-3.992
								c9.346-8.438,8.822-25.202,4.036-35.71c-3.188-7.001-9.503-9.228-16.847-9.123c-9.366,0.134-14.672,7.733-18.669,15.165
								C118.792,287.059,126.666,291.625,129.447,286.458L129.447,286.458z"/>
						</g>
					</g>
				</g>
				<g>
					<g>
						<g>
							<g>
								<path fill="#231F20" d="M379.351,266.773c0.328,8.7,0.339,17.294-0.878,25.929c-0.81,5.741,7.966,8.185,8.782,2.392
									c1.336-9.481,1.555-18.789,1.195-28.35C388.232,260.892,379.128,260.905,379.351,266.773L379.351,266.773z"/>
							</g>
						</g>
					</g>
					<g>
						<g>
							<g>
								<path fill="#231F20" d="M380.837,312.284c5.869-0.019,5.839-9.118-0.029-9.1
									C374.941,303.204,374.97,312.303,380.837,312.284L380.837,312.284z"/>
							</g>
						</g>
					</g>
				</g>
				<g>
					<g>
						<g>
							<g>
								<path fill="#231F20" d="M229.556,310.655c-1.126-10.731-1.787-21.337-1.289-32.125c0.27-5.868-8.832-5.812-9.102,0.029
									c-0.496,10.789,0.165,21.395,1.291,32.125C221.063,316.461,230.169,316.491,229.556,310.655L229.556,310.655z"/>
							</g>
						</g>
					</g>
					<g>
						<g>
							<g>
								<path fill="#231F20" d="M222.222,259.163c-0.943,0.724-1.863,1.461-2.754,2.243c-0.307,0.269-0.611,0.537-0.92,0.806
									c-0.229,0.2-1.564,1.269-0.457,0.416c-0.986,0.759-1.742,1.475-2.084,2.726c-0.318,1.177-0.146,2.455,0.472,3.504
									c0.601,1.016,1.588,1.774,2.726,2.083c1.057,0.286,2.594,0.231,3.506-0.47c0.94-0.727,1.859-1.464,2.754-2.246
									c0.306-0.269,0.61-0.539,0.918-0.806c0.229-0.2,1.566-1.265,0.459-0.413c0.986-0.76,1.742-1.475,2.081-2.726
									c0.319-1.177,0.149-2.456-0.469-3.507c-0.601-1.014-1.588-1.771-2.727-2.081
									C224.668,258.405,223.136,258.46,222.222,259.163L222.222,259.163z"/>
							</g>
						</g>
					</g>
				</g>
				<g>
					<g>
						<g>
							<path fill="#231F20" d="M365.025,273.863c-6.627-12.719-31.543-13.312-34.113,2.963
								c-1.699,10.756,10.926,14.795,18.188,18.825c8.891,4.935-3.799,10.685-9.416,8.225c-2.273-0.997-4.309-2.742-5.838-4.685
								c-3.629-4.607-10,1.904-6.414,6.457c3.998,5.074,10.271,8.029,16.652,8.236c9.143,0.301,19.547-7.981,17.131-17.608
								c-1.1-4.386-5.616-7.425-9.284-9.462c-2.327-1.291-12.747-4.371-12.113-8.387c1.282-8.119,14.664-5.13,17.363,0.053
								C359.894,283.686,367.732,279.057,365.025,273.863L365.025,273.863z"/>
						</g>
					</g>
				</g>
			</g>
		</g>
	</g>
</g>
</svg>
