<?xml version="1.0" encoding="utf-8"?>
<!-- Generator: Adobe Illustrator 13.0.0, SVG Export Plug-In . SVG Version: 6.00 Build 14948)  -->
<svg version="1.2" baseProfile="tiny" id="Layer_1" xmlns="http://www.w3.org/2000/svg" xmlns:xlink="http://www.w3.org/1999/xlink"
	 x="0px" y="0px" width="477.575px" height="542.334px" viewBox="0 0 477.575 542.334" xml:space="preserve">
<path fill="#FFFFFF" stroke="#231F20" stroke-width="2" stroke-miterlimit="10" d="M476.575,256.555
	c0-23.021-12.04-43.219-30.153-54.678c10.055-19.02,10.422-42.621-1.127-62.625c-11.512-19.938-32.038-31.41-53.453-32.279
	c-0.799-21.496-12.284-42.121-32.287-53.67c-19.938-11.51-43.451-11.184-62.433-1.227c-11.441-18.219-31.698-30.336-54.797-30.336
	c-23.023,0-43.222,12.039-54.683,30.156c-19.016-10.057-42.617-10.426-62.622,1.125c-19.938,11.512-31.411,32.037-32.278,53.455
	c-21.497,0.799-42.12,12.281-53.669,32.285c-11.513,19.941-11.185,43.449-1.229,62.434C19.629,212.635,7.51,232.895,7.51,255.992
	c0,23.023,12.037,43.221,30.154,54.682c-10.057,19.016-10.423,42.619,1.127,62.621c11.511,19.939,32.034,31.41,53.454,32.281
	c0.798,21.494,12.282,42.119,32.286,53.668c19.94,11.514,43.45,11.184,62.432,1.227c11.44,18.219,31.698,30.336,54.799,30.336
	c23.021,0,43.218-12.039,54.679-30.152c19.018,10.055,42.62,10.422,62.623-1.129c19.938-11.51,31.412-32.035,32.28-53.453
	c21.494-0.801,42.119-12.283,53.669-32.287c11.513-19.939,11.183-43.449,1.226-62.432
	C464.457,299.912,476.575,279.654,476.575,256.555z"/>
<g>
	<g>
		<g>
			<path fill="#97D6D6" d="M322.64,414.713c-7.686,2.023-15.107,3.451-21.915,4.307c-16.333,2.051-29.099,0.781-33.306-3.674
				l-0.356-0.51l104.014-27.379l-0.058,0.621C368.935,396.508,348.762,407.84,322.64,414.713z"/>
		</g>
		<g>
			<path fill="#FFFFFF" d="M371.185,386.322c0.026,0.365-0.003,0.742-0.056,1.121l-0.053,0.014L371.185,386.322z"/>
			<path fill="#231F20" d="M371.076,388.758c0.113,0,0.228-0.016,0.338-0.045l0.051-0.014c0.504-0.135,0.879-0.559,0.951-1.074
				c0.074-0.533,0.095-0.977,0.064-1.396c-0.05-0.676-0.606-1.199-1.281-1.207c-0.735-0.008-1.245,0.504-1.308,1.178l-0.109,1.135
				c-0.04,0.424,0.131,0.842,0.455,1.115C370.475,388.65,370.773,388.758,371.076,388.758z"/>
		</g>
		<g>
			<path fill="#FFFFFF" d="M371.076,387.457l0.053-0.014c-0.031,0.211-0.059,0.42-0.11,0.635L371.076,387.457z"/>
			<path fill="#231F20" d="M371.021,389.379c0.593,0,1.123-0.406,1.264-1.002c0.057-0.234,0.09-0.463,0.123-0.693
				c0.062-0.432-0.093-0.895-0.421-1.184c-0.327-0.291-0.776-0.426-1.193-0.313c-0.526,0.141-0.961,0.609-1.012,1.15l-0.056,0.621
				c-0.063,0.68,0.41,1.293,1.084,1.402C370.881,389.373,370.95,389.379,371.021,389.379z"/>
		</g>
		<g>
			<path fill="#FFFFFF" d="M266.407,413.9l0.655,0.936l-0.051,0.012C266.776,414.543,266.568,414.232,266.407,413.9z"/>
			<path fill="#231F20" d="M267.012,416.148c0.11,0,0.221-0.014,0.33-0.043l0.051-0.014c0.412-0.107,0.744-0.41,0.89-0.809
				c0.147-0.4,0.089-0.846-0.154-1.193l-0.655-0.936c-0.388-0.555-1.134-0.719-1.722-0.377c-0.585,0.344-0.809,1.076-0.515,1.688
				c0.185,0.383,0.422,0.758,0.746,1.178C266.232,415.967,266.615,416.148,267.012,416.148z"/>
		</g>
		<g>
			<path fill="#FFFFFF" d="M267.012,414.848l0.051-0.012l0.356,0.51C267.267,415.184,267.141,415.016,267.012,414.848z"/>
			<path fill="#231F20" d="M267.419,416.645c0.288,0,0.578-0.096,0.818-0.291c0.528-0.428,0.638-1.193,0.248-1.752l-0.356-0.51
				c-0.312-0.447-0.868-0.654-1.396-0.514c-0.423,0.109-0.786,0.432-0.926,0.844c-0.141,0.414-0.089,0.877,0.177,1.221
				c0.184,0.24,0.325,0.42,0.489,0.594C266.726,416.506,267.071,416.645,267.419,416.645z"/>
		</g>
		<g>
			<path fill="#97D6D6" d="M266.31,413.668c0.033,0.078,0.063,0.156,0.098,0.232l-0.151-0.219L266.31,413.668z"/>
		</g>
		<g>
			<g>
				<path fill="#EF437A" d="M360.273,500.82c-9.945,1.447-21.139,2.004-32.726,0.605l-15.45-22.113
					c18.145,4.041,35.954,2.656,50.244-0.174L360.273,500.82z"/>
			</g>
			<g>
				<path fill="#EF437A" d="M358.248,522.098l-1.582,16.607c-0.612,1.072-1.54,1.314-2.599,0.686l-11.76-16.836
					C347.802,522.754,353.148,522.564,358.248,522.098z"/>
			</g>
			<g>
				<path fill="#B9E5F4" d="M362.342,479.139c-14.29,2.83-32.1,4.215-50.244,0.174l-16.479-23.596
					c25.17,8.906,50.948,5.818,68.826,1.348L362.342,479.139z"/>
			</g>
			<g>
				<path fill="#B9E5F4" d="M358.248,522.098c-5.1,0.467-10.446,0.656-15.94,0.457l-14.76-21.129
					c11.587,1.398,22.78,0.842,32.726-0.605L358.248,522.098z"/>
			</g>
			<g>
				<path fill="#EF437A" d="M366.587,434.584l-2.142,22.48c-17.878,4.471-43.656,7.559-68.826-1.348l-18.233-26.102
					C310.054,447.252,346.354,440.73,366.587,434.584z"/>
			</g>
			<g>
				<path fill="#B9E5F4" d="M300.725,419.02c28.24,4.893,54.995-2.615,68.044-7.346l-2.182,22.91
					c-20.232,6.146-56.533,12.668-89.201-4.969l-9.967-14.27C271.626,419.801,284.392,421.07,300.725,419.02z"/>
			</g>
			<g>
				<path fill="#EF437A" d="M300.725,419.02c6.808-0.855,14.229-2.283,21.915-4.307c26.122-6.873,46.295-18.205,48.379-26.635
					l-2.25,23.596C355.72,416.404,328.965,423.912,300.725,419.02z"/>
			</g>
		</g>
		<g>
			<path fill="#231F20" d="M371.019,388.078c-2.084,8.43-22.257,19.762-48.38,26.635c-7.685,2.023-15.106,3.451-21.916,4.307
				c-5.074,0.637-9.806,0.955-14.043,0.955c-9.395,0-16.361-1.559-19.261-4.629l9.967,14.27l18.233,26.102l16.479,23.596
				l15.45,22.113l14.76,21.131l11.76,16.834c0.388,0.229,0.754,0.342,1.096,0.342c0.598,0,1.111-0.346,1.501-1.027l1.582-16.607
				l2.027-21.277l2.067-21.678l2.104-22.078l2.142-22.48l2.182-22.91L371.019,388.078 M267.419,415.346h-0.007 M371.016,385.477
				c0.145,0,0.292,0.014,0.439,0.039c1.342,0.229,2.282,1.453,2.151,2.809l-2.248,23.598l-2.183,22.91l-2.141,22.479l-2.105,22.078
				l-2.067,21.68l-2.027,21.275l-1.583,16.609c-0.034,0.365-0.147,0.721-0.329,1.041c-0.848,1.486-2.219,2.34-3.76,2.34
				c-0.819,0-1.634-0.238-2.424-0.709c-0.318-0.189-0.591-0.443-0.805-0.746l-11.759-16.834l-14.76-21.131l-15.449-22.113
				l-16.479-23.596l-18.232-26.1l-9.914-14.193c-0.33-0.436-0.525-0.979-0.525-1.566c0-1.434,1.157-2.596,2.587-2.602
				c0.005,0,0.011,0,0.015,0c0.019,0,0.034,0,0.052,0.002h0.005l0,0c0.407,0.008,0.792,0.111,1.133,0.285
				c0.257,0.133,0.495,0.309,0.702,0.529c2.256,2.387,8.75,3.813,17.371,3.813c4.169,0,8.784-0.314,13.72-0.934
				c6.933-0.871,14.194-2.297,21.579-4.24c27.047-7.119,44.893-18.172,46.516-24.746
				C368.786,386.277,369.84,385.477,371.016,385.477L371.016,385.477z"/>
		</g>
		<g>
			<path fill="#97D6D6" d="M371.211,386.057l-0.026,0.266c-0.006-0.086-0.019-0.166-0.028-0.25L371.211,386.057z"/>
		</g>
		<g>
			<g>
				<path fill="#7BB9E5" d="M286.619,421.039c10.393,0,23.279-1.887,36.289-5.309c26.413-6.955,52.085-20.408,49.327-30.883
					c-1.342-5.096-9.099-7.902-21.847-7.902c-10.396,0-23.283,1.887-36.291,5.311c-26.413,6.949-52.088,20.402-49.331,30.879
					C266.109,418.232,273.868,421.039,286.619,421.039z"/>
			</g>
			<g>
				<g>
					<path fill="#231F20" d="M350.389,378.246c-9.92,0-22.549,1.736-35.96,5.268c-28.983,7.625-50.654,20.742-48.405,29.291
						c1.209,4.592,9.079,6.934,20.596,6.934c9.92,0,22.545-1.736,35.957-5.266c28.982-7.631,50.653-20.742,48.402-29.295
						C369.769,380.586,361.902,378.246,350.389,378.246 M350.387,375.646L350.387,375.646c13.589,0,21.579,3.066,23.105,8.869
						c1.431,5.426-3.292,11.609-13.656,17.879c-9.347,5.658-22.344,10.84-36.596,14.592c-13.115,3.451-26.119,5.352-36.621,5.352
						c-13.59,0-21.581-3.066-23.109-8.871c-1.428-5.426,3.295-11.607,13.658-17.879c9.351-5.658,22.348-10.84,36.601-14.59
						C326.879,377.547,339.884,375.646,350.387,375.646L350.387,375.646z"/>
				</g>
			</g>
		</g>
	</g>
	<g>
		<path fill="#ED4B97" d="M177.063,376.648c0,0,18.983,2.166,28.012-7.799l9.955,23.502c0,0-12.618,13.482-30.385,10.729
			L177.063,376.648z"/>
		<path fill="#231F20" d="M189.445,404.752c-1.664,0-3.346-0.129-5-0.387c-0.5-0.076-0.91-0.439-1.05-0.926l-7.581-26.432
			c-0.121-0.418-0.023-0.867,0.256-1.199c0.281-0.33,0.713-0.498,1.141-0.451c0.017,0.002,1.714,0.191,4.275,0.191
			c5.889,0,16.657-0.984,22.626-7.572c0.3-0.328,0.747-0.486,1.181-0.408c0.438,0.072,0.807,0.365,0.979,0.773l9.955,23.504
			c0.2,0.473,0.103,1.02-0.248,1.395C215.539,393.711,205.024,404.752,189.445,404.752z M185.662,401.912
			c1.256,0.158,2.526,0.24,3.783,0.24c12.476,0,21.684-7.873,24.044-10.105l-8.861-20.922c-7.968,7.143-20.984,7.199-25.801,6.959
			L185.662,401.912z"/>
	</g>
	<g>
		<path fill="#ED4B97" d="M205.077,152.414c0,0-4.616-18.541-17.111-23.51l18.532-17.553c0,0,17.046,7.102,20.686,24.709
			L205.077,152.414z"/>
		<path fill="#231F20" d="M205.077,153.715c-0.147,0-0.296-0.025-0.439-0.078c-0.409-0.146-0.718-0.486-0.822-0.908
			c-0.045-0.18-4.61-17.957-16.329-22.617c-0.413-0.164-0.714-0.527-0.797-0.963c-0.084-0.436,0.061-0.883,0.383-1.189
			l18.533-17.551c0.373-0.354,0.921-0.453,1.393-0.256c0.721,0.301,17.723,7.574,21.459,25.645c0.103,0.496-0.093,1.008-0.501,1.309
			l-22.106,16.354C205.623,153.627,205.352,153.715,205.077,153.715z M190.255,128.525c9.486,4.953,14.088,17.07,15.554,21.73
			l19.924-14.74c-3.32-14.082-15.779-21.035-18.982-22.611L190.255,128.525z"/>
	</g>
	<g>
		<path fill="#ED4B97" d="M279.367,95.434c0,0,11.276,1.285,16.639-4.633l5.911,13.959c0,0-7.494,8.008-18.045,6.373L279.367,95.434
			z"/>
		<path fill="#231F20" d="M286.722,112.652c-1.015,0-2.04-0.08-3.05-0.236c-0.5-0.076-0.91-0.439-1.05-0.926l-4.505-15.699
			c-0.12-0.416-0.021-0.865,0.258-1.197c0.28-0.332,0.716-0.502,1.139-0.453c0.032,0.006,10.635,1.189,15.528-4.213
			c0.3-0.328,0.745-0.484,1.181-0.408c0.438,0.074,0.808,0.365,0.98,0.773l5.911,13.959c0.2,0.473,0.103,1.02-0.249,1.395
			C302.599,105.934,296.201,112.652,286.722,112.652z M284.885,109.953c0.612,0.066,1.228,0.1,1.837,0.1
			c6.796,0,11.953-4.08,13.648-5.611l-4.838-11.424c-4.525,3.602-11.203,3.904-14.409,3.822L284.885,109.953z"/>
	</g>
	<g>
		<path fill="#8AC641" d="M363.308,351.51c0,0,10.035,1.145,14.807-4.125l5.263,12.424c0,0-6.67,7.127-16.062,5.672L363.308,351.51z
			"/>
		<path fill="#231F20" d="M369.852,366.977c-0.91,0-1.83-0.07-2.735-0.211c-0.5-0.076-0.91-0.439-1.05-0.926l-4.008-13.973
			c-0.121-0.416-0.023-0.865,0.256-1.197c0.28-0.332,0.711-0.5,1.139-0.453c0.031,0.006,9.396,1.047,13.697-3.705
			c0.298-0.328,0.741-0.486,1.18-0.408c0.438,0.074,0.809,0.365,0.981,0.775l5.263,12.424c0.201,0.473,0.104,1.02-0.247,1.395
			C384.087,360.953,378.352,366.977,369.852,366.977z M368.33,364.301c0.506,0.051,1.016,0.076,1.521,0.076
			c5.934,0,10.419-3.488,11.979-4.887l-4.196-9.904c-3.97,3.057-9.669,3.375-12.573,3.322L368.33,364.301z"/>
	</g>
	<g>
		<path fill="#8AC641" d="M143.142,393.566c0,0,10.034,1.145,14.807-4.123l5.262,12.422c0,0-6.67,7.129-16.062,5.674
			L143.142,393.566z"/>
		<path fill="#231F20" d="M149.684,409.035c-0.909,0-1.829-0.072-2.734-0.213c-0.501-0.076-0.91-0.438-1.05-0.926l-4.007-13.973
			c-0.121-0.416-0.023-0.865,0.256-1.197c0.281-0.33,0.714-0.504,1.139-0.453c0.029,0.006,9.394,1.049,13.697-3.703
			c0.3-0.33,0.748-0.484,1.181-0.41c0.438,0.074,0.808,0.367,0.98,0.775l5.262,12.424c0.202,0.473,0.104,1.02-0.247,1.395
			C163.92,403.01,158.184,409.035,149.684,409.035z M148.162,406.357c0.506,0.051,1.016,0.076,1.521,0.076
			c5.934,0,10.42-3.488,11.98-4.887l-4.197-9.904c-3.971,3.057-9.658,3.375-12.572,3.322L148.162,406.357z"/>
	</g>
	<g>
		<path fill="#FEDF00" d="M22.925,274.109c0,0-5.272,12.457-0.317,20.588l-17.955,2.049c0,0-6.628-11.271-1.197-22.785
			L22.925,274.109z"/>
		<path fill="#231F20" d="M4.652,298.047c-0.458,0-0.887-0.24-1.122-0.641c-0.285-0.484-6.91-12.002-1.251-24
			c0.216-0.457,0.681-0.736,1.186-0.744l19.47,0.148c0.435,0.002,0.837,0.223,1.075,0.586c0.239,0.361,0.281,0.82,0.112,1.219
			c-0.05,0.119-4.95,11.949-0.405,19.404c0.231,0.379,0.252,0.85,0.059,1.248c-0.195,0.398-0.58,0.67-1.021,0.721l-17.957,2.051
			C4.749,298.045,4.699,298.047,4.652,298.047z M4.294,275.268c-3.771,8.889-0.15,17.559,1.094,20.086l15.202-1.734
			c-2.84-6.559-0.723-14.67,0.474-18.223L4.294,275.268z"/>
	</g>
	<g>
		<path fill="#FEDF00" d="M155.827,337.445c0,0-5.276,12.459-0.319,20.588l-17.957,2.051c0,0-6.625-11.271-1.193-22.787
			L155.827,337.445z"/>
		<path fill="#231F20" d="M137.551,361.383c-0.456,0-0.885-0.24-1.12-0.641c-0.284-0.484-6.908-12.002-1.249-24
			c0.217-0.457,0.661-0.756,1.186-0.744l19.47,0.148c0.435,0.002,0.837,0.223,1.075,0.586c0.238,0.361,0.281,0.82,0.111,1.219
			c-0.049,0.119-4.952,11.949-0.406,19.404c0.23,0.379,0.253,0.85,0.059,1.248c-0.195,0.398-0.58,0.67-1.021,0.721l-17.956,2.051
			C137.649,361.381,137.6,361.383,137.551,361.383z M137.196,338.604c-3.757,8.859-0.146,17.553,1.095,20.088l15.2-1.736
			c-2.839-6.559-0.724-14.67,0.473-18.223L137.196,338.604z"/>
	</g>
	<g>
		<path fill="#FEDF00" d="M421.471,128.459c0,0,19.106,0.098,27.005-10.785l12.438,22.287c0,0-11.084,14.768-29.046,13.953
			L421.471,128.459z"/>
		<path fill="#231F20" d="M433.301,155.246c-0.491,0-0.989-0.01-1.491-0.033c-0.506-0.023-0.953-0.338-1.145-0.809l-10.397-25.455
			c-0.164-0.4-0.117-0.857,0.126-1.219c0.241-0.357,0.646-0.572,1.077-0.572c0.646,0.016,18.575-0.082,25.952-10.248
			c0.263-0.359,0.672-0.566,1.13-0.533c0.443,0.025,0.842,0.275,1.058,0.664l12.438,22.285c0.25,0.449,0.214,1.004-0.095,1.414
			C461.51,141.332,450.864,155.246,433.301,155.246z M432.752,152.641c14.434,0.268,24.278-10.102,26.596-12.818l-11.072-19.838
			c-7.107,7.914-20.035,9.42-24.896,9.707L432.752,152.641z"/>
	</g>
	<g>
		<path fill="#FEDF00" d="M287.932,419.379c0,0-9.135-16.779-22.479-18.443l13.516-21.65c0,0,18.286,2.58,26.24,18.703
			L287.932,419.379z"/>
		<path fill="#231F20" d="M287.932,420.68c-0.039,0-0.077-0.002-0.117-0.006c-0.433-0.039-0.816-0.291-1.024-0.672
			c-0.089-0.162-8.981-16.215-21.498-17.777c-0.44-0.055-0.821-0.33-1.013-0.73c-0.19-0.4-0.164-0.871,0.07-1.248l13.518-21.65
			c0.272-0.436,0.771-0.666,1.285-0.6c0.773,0.109,19.059,2.867,27.222,19.418c0.225,0.453,0.164,0.996-0.153,1.391l-17.277,21.393
			C288.694,420.504,288.322,420.68,287.932,420.68z M267.573,399.992c10.427,2.406,17.933,12.973,20.522,17.115l15.57-19.279
			c-6.755-12.795-20.566-16.385-24.062-17.105L267.573,399.992z"/>
	</g>
	<g>
		<path fill="#64AEE0" d="M82.161,320.055c0,0-4.328-10.885-12.327-12.875l9.813-12.186c0,0,10.938,2.912,14.597,13.307
			L82.161,320.055z"/>
		<path fill="#231F20" d="M82.161,321.354c-0.091,0-0.181-0.008-0.271-0.029c-0.426-0.09-0.775-0.385-0.938-0.789
			c-0.041-0.104-4.186-10.289-11.433-12.094c-0.431-0.107-0.777-0.426-0.921-0.848c-0.14-0.42-0.057-0.883,0.221-1.229l9.813-12.186
			c0.324-0.4,0.854-0.574,1.348-0.441c0.475,0.127,11.646,3.213,15.489,14.131c0.168,0.479,0.043,1.01-0.32,1.363l-12.082,11.754
			C82.822,321.225,82.496,321.354,82.161,321.354z M72.015,306.545c5.529,2.344,9.076,8.311,10.562,11.293l10.151-9.875
			c-3.026-7.473-10.235-10.6-12.63-11.455L72.015,306.545z"/>
	</g>
	<g>
		<path fill="#64AEE0" d="M232.88,42.182c0,0-7.062-17.754-20.109-21.002l16.009-19.879c0,0,17.845,4.75,23.813,21.707
			L232.88,42.182z"/>
		<path fill="#231F20" d="M232.88,43.48c-0.091,0-0.181-0.01-0.271-0.027c-0.426-0.092-0.777-0.389-0.938-0.791
			c-0.068-0.172-6.977-17.176-19.215-20.221c-0.431-0.107-0.777-0.428-0.92-0.848c-0.141-0.42-0.058-0.885,0.22-1.23l16.009-19.879
			c0.323-0.4,0.854-0.574,1.348-0.439c0.756,0.201,18.58,5.127,24.705,22.531c0.169,0.479,0.044,1.012-0.32,1.365l-19.713,19.172
			C233.541,43.352,233.215,43.48,232.88,43.48z M214.988,20.498c10.063,3.635,16.25,15.025,18.325,19.447l17.769-17.279
			c-5.18-13.512-18.46-18.729-21.845-19.861L214.988,20.498z"/>
	</g>
	<g>
		<path fill="#8AC641" d="M82.039,100.193c0,0-7.384,17.621-0.338,29.074l-25.348,2.992c0,0-9.42-15.883-1.813-32.172
			L82.039,100.193z"/>
		<path fill="#231F20" d="M56.354,133.559c-0.455,0-0.882-0.238-1.119-0.637c-0.397-0.672-9.679-16.666-1.871-33.385
			c0.214-0.457,0.672-0.75,1.178-0.75h0.005l27.498,0.105c0.435,0.002,0.838,0.221,1.078,0.582s0.283,0.82,0.116,1.221
			c-0.07,0.17-7.038,17.148-0.43,27.893c0.232,0.377,0.256,0.848,0.063,1.248c-0.194,0.398-0.578,0.672-1.019,0.725l-25.348,2.99
			C56.455,133.557,56.404,133.559,56.354,133.559z M55.38,101.391c-5.772,13.303,0.069,26.301,1.697,29.475l22.563-2.662
			c-4.644-9.641-1.09-22.105,0.523-26.717L55.38,101.391z"/>
	</g>
	<g>
		<g>
			<g>
				<g>
					<path fill="#231F20" d="M87.084,187.867c-6.049-5.889-13.462-7.879-21.167-3.941c-7.132,3.645-11.028,12.316-11.329,19.951
						c-0.313,7.953,3.804,15.938,10.465,20.189c7.705,4.916,16.666,0.988,22.924-4.213c4.519-3.756-1.956-10.158-6.434-6.436
						c-3.419,2.84-7.604,5.01-11.897,2.789c-3.845-1.986-5.546-6.926-5.916-10.941c-0.886-9.645,8.688-18.977,16.921-10.963
						C84.854,198.396,91.295,191.967,87.084,187.867L87.084,187.867z"/>
				</g>
			</g>
			<g>
				<g>
					<path fill="#231F20" d="M113.357,224.709c11.125-3.127,17.384-17.082,15.336-27.93c-2.359-12.494-16.254-16.555-26.849-11.303
						c-8.933,4.426-11.478,15.877-10.026,24.857C93.551,221.078,103.109,226.674,113.357,224.709c5.76-1.104,3.313-9.873-2.42-8.773
						c-12.508,2.396-12.721-15.551-5.892-21.73c4.603-4.166,13.081-2.002,14.657,3.855c1.666,6.188-2.308,16.059-8.766,17.875
						C105.297,217.521,107.696,226.303,113.357,224.709z"/>
				</g>
			</g>
			<g>
				<g>
					<path fill="#231F20" d="M130.705,191.807c0.985,9.912,3.093,20.824,6.377,30.215c1.717,4.908,8.584,3.977,8.938-1.209
						c0.539-7.873-0.08-22.197,6.948-27.557c5.516-4.205,10.952,2.234,11.168,7.469c0.246,5.996-1.969,11.949-3.518,17.654
						c-1.54,5.672,7.24,8.076,8.775,2.42c2.264-8.334,4.805-16.58,3.254-25.285c-1.628-9.127-11.369-13.287-19.731-12.051
						c-14.973,2.217-15.241,26.293-15.996,37.35c2.979-0.404,5.958-0.807,8.938-1.211c-1.685-4.813-2.583-9.938-3.604-14.922
						c-0.615-2.992-1.188-5.994-1.743-8.998c-0.174-0.941-0.342-1.883-0.511-2.826c-0.054-0.311-0.386-2.949-0.196-1.049
						C139.23,186.023,130.124,185.969,130.705,191.807L130.705,191.807z"/>
				</g>
			</g>
			<g>
				<g>
					<path fill="#231F20" d="M202.006,187.324c-16.102-14.393-33.859,14.928-21.422,28.123c5.523,5.859,15.678,3.584,20.995-1.234
						C210.626,206.012,209.263,196.053,202.006,187.324c-1.838,2.383-3.676,4.764-5.514,7.146
						c6.729,4.102,9.648,12.889,11.472,20.104c1.854,7.33,3.077,18.098-2.191,24.4c-1.698,2.031-6.241,4.617-8.807,2.6
						c-2.953-2.322-0.975-7.838,1.066-9.99c5.345-5.635,15.749-2.49,20.329,2.293c4.065,4.244,10.49-2.199,6.434-6.436
						c-8.6-8.979-23.62-10.635-33.198-2.291c-9.566,8.334-5.134,26.486,8.441,26.102c14.588-0.414,18.917-16.611,18.321-28.41
						c-0.652-12.84-5.67-29.156-17.273-36.229c-4.674-2.85-8.668,3.354-5.514,7.146c3.662,4.406,4.884,8.469,0.636,13.055
						c-1.993,2.15-6.474,4.346-9.188,2.199c-5.41-4.279,2.258-20.881,8.553-15.254C199.932,197.656,206.39,191.242,202.006,187.324
						L202.006,187.324z"/>
				</g>
			</g>
			<g>
				<g>
					<path fill="#231F20" d="M218.361,192.102c7.419,6.965,8.112,17.934,8.236,27.516c0.055,4.207,6.549,6.637,8.479,2.297
						c2.226-5.002,3.813-10.246,6.173-15.197c1.291-2.703,2.791-5.324,4.934-7.439c2.055-2.025,3.969,0.717,5.301,2.281
						c3.805,4.479,10.21-1.99,6.433-6.434c-6.053-7.123-14.313-7.418-20.218,0.018c-5.211,6.559-7.142,14.674-10.48,22.178
						c2.827,0.766,5.653,1.531,8.479,2.297c-0.154-12.021-1.667-25.281-10.902-33.951
						C220.522,181.654,214.075,188.076,218.361,192.102L218.361,192.102z"/>
				</g>
			</g>
			<g>
				<g>
					<path fill="#231F20" d="M315.6,203.893c10.474-2.902,20.546-7.266,30.818-10.793c5.516-1.893,3.146-10.686-2.42-8.773
						c-10.271,3.525-20.343,7.889-30.818,10.793C307.533,196.684,309.934,205.463,315.6,203.893L315.6,203.893z"/>
				</g>
			</g>
			<g>
				<g>
					<path fill="#231F20" d="M323.783,174.125c-2.095,13.641-3.685,28.709,0.114,42.174c1.642,5.818,5.759,11.852,12.311,12.375
						c7.73,0.619,13.473-5.082,17.56-10.99c3.349-4.838-4.543-9.383-7.857-4.592c-2.164,3.127-7.077,9.119-10.993,5.305
						c-3.186-3.102-3.485-9.643-3.813-13.729c-0.745-9.303,0.039-18.914,1.454-28.123
						C333.439,170.807,324.672,168.34,323.783,174.125L323.783,174.125z"/>
				</g>
			</g>
			<g>
				<g>
					<path fill="#231F20" d="M357.911,192.041c-3.904,13.914,1.688,36.98,20.423,32.832c14.818-3.281,15.609-27.023,12.522-38.357
						c-2.925,0.807-5.851,1.613-8.775,2.42c3.041,10.031,5.864,20.119,9.41,29.99c1.969,5.479,10.764,3.117,8.774-2.42
						c-3.547-9.869-6.369-19.957-9.409-29.99c-1.697-5.6-10.323-3.262-8.775,2.42c2.065,7.58,2.028,19.146-3.401,25.387
						c-3.933,4.52-9.027,0.857-11.186-3.217c-2.592-4.898-2.253-11.498-0.809-16.645
						C368.273,188.799,359.494,186.398,357.911,192.041L357.911,192.041z"/>
				</g>
			</g>
			<g>
				<g>
					<path fill="#231F20" d="M271.021,198.619c2.481-4.58,5.063-10.018,10.86-10.598c4.662-0.465,6.982,0.77,8.961,4.672
						c3.219,6.355,2.686,15.721-0.609,21.889c-1.561,2.918-4.157,4.777-7.476,5.002c-2.16,0.146-9.341-0.605-8.786-3.912
						c0.67-4,5.262-7.104,8.688-8.539c6.076-2.543,11.924-0.994,16.975,2.893c4.651,3.578,9.175-4.334,4.593-7.857
						c-12.472-9.596-34.483-5.369-39.03,11.084c-2.115,7.656,4.063,12.443,10.529,14.475c6.681,2.1,13.633,0.723,18.82-3.93
						c9.373-8.406,8.906-25.174,4.152-35.697c-3.165-7.012-9.472-9.258-16.816-9.178c-9.366,0.102-14.697,7.688-18.719,15.104
						C260.365,199.186,268.222,203.779,271.021,198.619L271.021,198.619z"/>
				</g>
			</g>
			<g>
				<g>
					<path fill="#231F20" d="M404.229,204.361c6.895-0.689,13.783-1.332,20.717-1.383c5.867-0.045,5.871-9.145,0-9.1
						c-6.934,0.051-13.822,0.693-20.717,1.383C398.446,195.84,398.39,204.945,404.229,204.361L404.229,204.361z"/>
				</g>
			</g>
		</g>
		<g>
			<g>
				<g>
					<path fill="#231F20" d="M258.752,314.344c11.124-3.129,17.387-17.082,15.339-27.932c-2.356-12.494-16.255-16.551-26.848-11.301
						c-8.933,4.428-11.478,15.877-10.028,24.857C238.949,310.711,248.505,316.309,258.752,314.344
						c5.76-1.104,3.314-9.873-2.419-8.773c-12.506,2.396-12.717-15.551-5.89-21.73c4.603-4.164,13.083-2.002,14.658,3.855
						c1.666,6.188-2.311,16.057-8.769,17.875C250.693,307.156,253.092,315.938,258.752,314.344z"/>
				</g>
			</g>
			<g>
				<g>
					<path fill="#231F20" d="M279.027,281.072c0.986,9.91,3.093,20.822,6.377,30.211c1.716,4.908,8.583,3.977,8.938-1.209
						c0.537-7.871-0.08-22.195,6.948-27.553c5.192-3.959,10.823,1.781,11.155,6.906c0.398,6.178-1.912,12.342-3.502,18.215
						c-1.537,5.674,7.24,8.078,8.774,2.42c2.109-7.787,5.081-16.268,3.416-24.428c-1.786-8.748-10.004-14.369-18.907-13.053
						c-15.854,2.346-16.162,25.43-16.985,37.492c2.979-0.404,5.958-0.807,8.938-1.211c-1.684-4.811-2.581-9.936-3.603-14.918
						c-0.613-2.992-1.185-5.994-1.742-8.998c-0.174-0.941-0.341-1.883-0.509-2.826c-0.055-0.311-0.388-2.949-0.198-1.049
						C287.551,275.289,278.445,275.234,279.027,281.072L279.027,281.072z"/>
				</g>
			</g>
			<g>
				<g>
					<path fill="#231F20" d="M171.75,289.059c10.474-2.904,20.545-7.266,30.818-10.793c5.514-1.895,3.145-10.686-2.421-8.775
						c-10.271,3.527-20.342,7.891-30.817,10.795C163.684,281.85,166.085,290.629,171.75,289.059L171.75,289.059z"/>
				</g>
			</g>
			<g>
				<g>
					<path fill="#231F20" d="M179.936,259.291c-2.097,13.641-3.684,28.709,0.114,42.172c1.644,5.818,5.758,11.854,12.312,12.377
						c7.729,0.617,13.473-5.082,17.559-10.99c3.348-4.84-4.543-9.383-7.858-4.594c-2.163,3.129-7.077,9.121-10.993,5.307
						c-3.184-3.102-3.483-9.643-3.812-13.73c-0.745-9.301,0.039-18.914,1.454-28.121
						C189.594,255.971,180.826,253.506,179.936,259.291L179.936,259.291z"/>
				</g>
			</g>
			<g>
				<g>
					<path fill="#231F20" d="M95.524,260.477c5.478,16.262,9.865,35.006,10.169,52.26c0.103,5.861,9.202,5.871,9.1,0
						c-0.317-18.037-4.768-37.682-10.494-54.68C102.436,252.527,93.646,254.9,95.524,260.477L95.524,260.477z"/>
				</g>
			</g>
			<g>
				<g>
					<path fill="#231F20" d="M129.438,286.135c2.483-4.58,5.063-10.018,10.859-10.596c4.662-0.467,6.982,0.766,8.96,4.67
						c3.22,6.355,2.687,15.721-0.609,21.889c-1.56,2.918-4.155,4.777-7.475,5.002c-2.161,0.146-9.34-0.605-8.785-3.912
						c0.67-4.002,5.261-7.105,8.687-8.539c6.077-2.545,11.926-0.996,16.976,2.891c4.65,3.578,9.175-4.334,4.594-7.857
						c-12.474-9.596-34.486-5.369-39.031,11.086c-2.115,7.656,4.063,12.443,10.53,14.475c6.68,2.1,13.632,0.723,18.819-3.93
						c9.374-8.408,8.904-25.174,4.152-35.697c-3.166-7.012-9.474-9.258-16.817-9.178c-9.366,0.104-14.696,7.686-18.718,15.104
						C118.783,286.701,126.641,291.293,129.438,286.135L129.438,286.135z"/>
				</g>
			</g>
			<g>
				<g>
					<g>
						<path fill="#231F20" d="M379.406,267.266c0.3,8.701,0.282,17.295-0.963,25.926c-0.828,5.738,7.939,8.211,8.774,2.42
							c1.367-9.477,1.616-18.783,1.288-28.346C388.306,261.414,379.204,261.396,379.406,267.266L379.406,267.266z"/>
					</g>
				</g>
				<g>
					<g>
						<path fill="#231F20" d="M380.744,312.781c5.868,0,5.868-9.1,0-9.1C374.877,303.682,374.877,312.781,380.744,312.781
							L380.744,312.781z"/>
					</g>
				</g>
			</g>
			<g>
				<g>
					<g>
						<path fill="#231F20" d="M229.469,310.658c-1.091-10.734-1.717-21.342-1.185-32.129c0.289-5.867-8.813-5.84-9.101,0
							c-0.531,10.787,0.095,21.395,1.187,32.129C220.957,316.438,230.063,316.496,229.469,310.658L229.469,310.658z"/>
					</g>
				</g>
				<g>
					<g>
						<path fill="#231F20" d="M222.303,259.143c-0.945,0.721-1.867,1.455-2.761,2.234c-0.308,0.268-0.613,0.535-0.922,0.803
							c-0.229,0.199-1.569,1.264-0.459,0.414c-0.989,0.756-1.747,1.469-2.093,2.719c-0.322,1.176-0.154,2.455,0.46,3.506
							c0.597,1.018,1.582,1.779,2.719,2.092c1.056,0.289,2.593,0.24,3.507-0.459c0.943-0.723,1.866-1.457,2.762-2.236
							c0.307-0.268,0.612-0.537,0.92-0.803c0.23-0.199,1.571-1.26,0.461-0.412c0.988-0.756,1.747-1.469,2.091-2.719
							c0.322-1.176,0.157-2.455-0.458-3.508c-0.598-1.016-1.582-1.777-2.72-2.09C224.752,258.393,223.219,258.443,222.303,259.143
							L222.303,259.143z"/>
					</g>
				</g>
			</g>
			<g>
				<g>
					<path fill="#231F20" d="M365.057,274.309c-6.586-12.74-31.499-13.414-34.123,2.852c-1.734,10.75,10.878,14.83,18.126,18.885
						c8.875,4.963-3.833,10.672-9.442,8.193c-2.271-1.004-4.299-2.756-5.822-4.703c-3.613-4.619-10.006,1.871-6.435,6.436
						c3.981,5.088,10.245,8.063,16.624,8.291c9.143,0.33,19.573-7.918,17.188-17.553c-1.085-4.389-5.592-7.443-9.253-9.492
						c-2.322-1.299-12.732-4.412-12.086-8.426c1.31-8.115,14.681-5.082,17.363,0.109
						C359.895,284.115,367.747,279.512,365.057,274.309L365.057,274.309z"/>
				</g>
			</g>
		</g>
	</g>
</g>
</svg>
