<?xml version="1.0" encoding="utf-8"?>
<!-- Generator: Adobe Illustrator 13.0.0, SVG Export Plug-In . SVG Version: 6.00 Build 14948)  -->
<svg version="1.2" baseProfile="tiny" id="Layer_1" xmlns="http://www.w3.org/2000/svg" xmlns:xlink="http://www.w3.org/1999/xlink"
	 x="0px" y="0px" width="475.33px" height="464.834px" viewBox="0 0 475.33 464.834" xml:space="preserve">
<g>
	<g>
		<path fill="#ED1C24" d="M472.915,232.416c-41.818,25.982-47.082,50.736-18.074,89.525c-48.055,6.236-61.832,26.512-49.291,73.106
			c-46.596-12.541-66.871,1.238-73.104,49.294c-38.794-29.011-63.546-23.744-89.527,18.076
			c-25.985-41.82-50.737-47.087-89.528-18.076c-6.236-48.056-26.512-61.835-73.107-49.294c12.541-46.596-1.236-66.87-49.294-73.106
			C60,283.152,54.734,258.398,12.917,232.416C54.734,206.432,60,181.68,30.989,142.889c48.058-6.234,61.835-26.513,49.294-73.107
			c46.596,12.543,66.871-1.236,73.107-49.291c38.791,29.01,63.543,23.742,89.528-18.074c25.981,41.816,50.733,47.084,89.527,18.074
			c6.233,48.055,26.51,61.834,73.104,49.291c-12.541,46.596,1.236,66.873,49.291,73.107
			C425.833,181.679,431.096,206.431,472.915,232.416z"/>
		<path fill="#ED1C24" d="M472.915,232.416c-41.818,25.982-47.082,50.736-18.074,89.525c-48.055,6.236-61.832,26.512-49.291,73.106
			c-46.596-12.541-66.871,1.238-73.104,49.294c-38.794-29.011-63.546-23.744-89.527,18.076
			c-25.985-41.82-50.737-47.087-89.528-18.076c-6.236-48.056-26.512-61.835-73.107-49.294c12.541-46.596-1.236-66.87-49.294-73.106
			C60,283.152,54.734,258.398,12.917,232.416C54.734,206.432,60,181.68,30.989,142.889c48.058-6.234,61.835-26.513,49.294-73.107
			c46.596,12.543,66.871-1.236,73.107-49.291c38.791,29.01,63.543,23.742,89.528-18.074c25.981,41.816,50.733,47.084,89.527,18.074
			c6.233,48.055,26.51,61.834,73.104,49.291c-12.541,46.596,1.236,66.873,49.291,73.107
			C425.833,181.679,431.096,206.431,472.915,232.416z"/>
	</g>
	<g>
		<path fill="none" d="M252.183,361.32c3.889,3.25,24.028,26.803,34.207,44.783"/>
		<path d="M250.837,361.891c5.396,4.689,9.864,10.777,14.313,16.324c7.233,9.021,14.134,18.421,19.895,28.458
			c0.482,0.842,3.305-0.071,2.689-1.143c-5.539-9.647-12.148-18.644-19.027-27.368c-4.674-5.928-9.452-12.435-15.18-17.415
			C252.74,360.064,250.028,361.188,250.837,361.891L250.837,361.891z"/>
	</g>
	<g>
		<path fill="none" d="M228.819,388.351c-7.124,4.479-24.39,13.272-41.95,8.397"/>
		<path d="M227.702,388.278c-11.853,7.335-25.83,11.374-39.648,7.889c-0.701-0.177-3.263,0.94-2.369,1.166
			c15.293,3.857,31.132-0.789,44.252-8.908C231.183,387.653,228.255,387.936,227.702,388.278L227.702,388.278z"/>
	</g>
	<g>
		<path fill="none" d="M214.41,395.22"/>
		<path d="M214.269,396.234c1.621,0,2.253-2.027,0.282-2.027C212.93,394.207,212.298,396.234,214.269,396.234L214.269,396.234z"/>
	</g>
	<g>
		<g>
			<path fill="#FFFFFF" d="M385.28,391.022c0.928-6.109,2.428-13.699,4.682-19.809c-3.754,3.523-9.34,13.688-15.25,8.724
				c-2.293-4.16-0.979-8.879-0.809-11.265c1.1-5.082,4.217-10.282,5.893-14.036c-6.063,5.081-8.572,7.651-10.805,8.606
				c-4.39,1.848-2.588-8.434-2.588-11.207c-1.802,2.889-3.881,7.221-5.349,4.479c-3.004-4.158,0.197-11.584-0.032-16.437
				c-2.138,3.351-4.275,10.918-7.972,11.611c-1.457,0.207-3.121-0.463-4.869-1.672c-4.971-3.65-5.297-7.748-12.705-10.111
				c-0.606-0.73-1.247-1.414-1.965-2.002c-4.623-3.926-12.016-5.545-17.791-6.469c-19.641-3.468-39.973,2.543-54.76,15.942
				c-4.429,3.938-7.646,8.346-10.051,13.089c-15.419-12.977-28.824-26.004-54.977-14.242c-13.291,5.975-24.58,17.559-22.732,32.963
				c0.926,8.315,5.182,15.272,13.412,17.561c9.852,2.736,19.613,1.166,27.541-1.528c3.858,17.248,11.363,31.421,20.016,42.01
				c-0.488,1.719-0.956,3.462-1.369,5.275c-1.387,5.545-1.068,4.346-1.068,4.346c1.236,1.304,7.099,9.93,11.181,14.93
				c0,0,10.616-14.641,14.431-18.875c11.051-12.271,21.737-16.208,31.926-16.8c10.012-0.582,21.063,3.717,34.57,12.377
				c2.962,1.828,5.854,3.693,8.651,5.479c0,0,2.59-24.075,10.295-34.89c4.607-9.438,14.982-14.874,22.203-16.989
				c6.955-2.037,11.155-1.399,11.155-1.399C381.002,390.51,385.28,391.022,385.28,391.022z"/>
		</g>
		<g>
			<g>
				<path fill="#FFFFFF" d="M282.25,399.292l31.715-4.47l31.242-28.375l-17.703-19.606
					C306.708,353.312,285.54,383.501,282.25,399.292z"/>
			</g>
			<g>
				<path fill="none" d="M282.25,399.292c3.289-15.791,24.457-45.979,45.254-52.451"/>
				<path d="M283.701,399.116c2.251-10.016,8.126-19.171,14.218-27.274c7.543-10.032,17.602-20.222,29.785-24.257
					c1.69-0.561,1.329-2.059-0.398-1.485c-11.525,3.817-20.744,12.187-28.532,21.239c-7.798,9.063-15.312,20.294-17.973,32.132
					C280.55,400.583,283.474,400.123,283.701,399.116L283.701,399.116z"/>
			</g>
		</g>
		<g>
			<path fill="none" d="M324.364,438.298c3.84-3.206,5.498-4.031,10.54-9.781"/>
			<path d="M325.527,438.539c3.818-3.17,7.426-6.25,10.727-9.988c0.479-0.542-0.402-0.851-0.787-0.858
				c-0.718-0.019-1.438,0.254-1.912,0.792c-3.175,3.597-6.682,6.525-10.354,9.573C321.915,439.125,324.806,439.136,325.527,438.539
				L325.527,438.539z"/>
		</g>
		<g>
			<path fill="none" d="M234.456,437.903c-1.194,2.812-2.266,5.325-2.728,8.262"/>
			<path d="M233.071,437.741c-1.179,2.775-2.295,5.552-2.811,8.536c-0.25,1.449,2.712,1.067,2.935-0.225
				c0.483-2.801,1.54-5.384,2.645-7.987C236.489,436.536,233.57,436.565,233.071,437.741L233.071,437.741z"/>
		</g>
		<g>
			<path fill="none" d="M313.965,409.781c0,3.082,0,6.162-0.615,8.627"/>
			<path d="M312.51,409.94c-0.001,2.885,0.03,5.799-0.615,8.627c-0.272,1.2,2.663,0.762,2.91-0.318
				c0.646-2.828,0.614-5.741,0.615-8.627C315.42,408.302,312.511,408.88,312.51,409.94L312.51,409.94z"/>
		</g>
		<g>
			<path fill="none" d="M322.59,403.005c1.232,0.615,1.232,1.849,1.848,3.08"/>
			<path d="M321.469,403.826c0.976,0.532,1.077,1.721,1.521,2.648c0.313,0.651,1.055,0.748,1.707,0.572
				c0.446-0.119,1.499-0.705,1.19-1.351c-0.617-1.29-0.805-2.764-2.176-3.512c-0.651-0.356-1.479-0.25-2.075,0.186
				C321.198,402.693,320.824,403.473,321.469,403.826L321.469,403.826z"/>
		</g>
	</g>
	<g>
		<g>
			<path fill="#FFFFFF" d="M362.831,258.958c-4.631-8.811-18.586-39.662-20.844-44.912c-4.537-7.891-14.701-38.565-38.566-58.137
				c-8.629,15.457-17.965,29.174-20.131,50.73c-6.824-1.584-14.904-2.027-23.418-1.568l0.035-0.008
				c-3.73,0.106-6.824-4.006-7.244-8.551c-10.234,14.26-9.898-2.179-14.035-5.404c-2.857,1.385-1.063,12.969-6.235,15.332
				c-4.975,1.041-10.162-18.982-12.469-18.974c-1.667,1.06,4.045,19.75-0.815,23.603c-4.667,1.332-7.152-4.15-8.76-3.184
				c-0.797,0.649,2.323,7.245-2.872,10.344l0.018-0.008c-3.795,1.885-7.006,3.942-10.033,6.039
				c-16.164-15.578-28.483-24.746-44.426-33.507c-8.935,30.929-2.541,60.439-0.381,77.152c0.924,10.596,7.57,21.834,5.615,41.482
				c-0.836,8.422-6.776,12.711-7.084,24.739c-0.701,27.412,41.739,32.912,44.732,33.375c16.899,3.199,65.954,1.142,77.554-1.356
				c13.17-2.836,37.491-13.572,50.807-21.49c17.719-10.539,53.303-25.779,56.606-52.922
				C382.536,278.189,366.305,265.568,362.831,258.958z"/>
		</g>
		<g>
			<path fill="none" d="M362.831,258.958c-4.631-8.811-18.586-39.662-20.844-44.912c-4.537-7.891-14.701-38.565-38.566-58.137
				c-8.629,15.457-17.965,29.174-20.131,50.73c-6.824-1.584-14.904-2.027-23.418-1.568l0.035-0.008
				c-3.73,0.106-6.824-4.006-7.244-8.551c-10.234,14.26-9.898-2.179-14.035-5.404c-2.857,1.385-1.063,12.969-6.235,15.332
				c-4.975,1.041-10.162-18.982-12.469-18.974c-1.667,1.06,4.045,19.75-0.815,23.603c-4.667,1.332-7.152-4.15-8.76-3.184
				c-0.797,0.649,2.323,7.245-2.872,10.344l0.018-0.008c-3.795,1.885-7.006,3.942-10.033,6.039
				c-16.164-15.578-28.483-24.746-44.426-33.507c-8.935,30.929-2.541,60.439-0.381,77.152c0.924,10.596,7.57,21.834,5.615,41.482
				c-0.836,8.422-6.776,12.711-7.084,24.739c-0.701,27.412,41.739,32.912,44.732,33.375c16.899,3.199,65.954,1.142,77.554-1.356
				c13.17-2.836,37.491-13.572,50.807-21.49c17.719-10.539,53.303-25.779,56.606-52.922
				C382.536,278.189,366.305,265.568,362.831,258.958z"/>
			<path d="M364.28,258.57c-7.961-15.283-14.154-31.423-21.848-46.82c-4.268-8.54-7.896-17.313-12.634-25.631
				c-6.577-11.55-14.797-22.182-25.021-30.728c-0.649-0.542-2.422,0.086-2.794,0.749c-9.146,16.3-18.033,31.783-20.132,50.729
				c0.871-0.28,1.742-0.56,2.613-0.839c-7.913-1.712-15.924-1.994-23.99-1.624c-0.152,0.403-0.307,0.806-0.459,1.208
				c0.012-0.002,0.022-0.005,0.034-0.008c0.472-0.104,2.099-1.077,0.776-1.202c-4.385-0.416-6.122-4.517-6.717-8.28
				c-0.131-0.817-2.489,0.067-2.773,0.449c-0.813,1.087-3.664,5.791-5.486,4.607c-1.172-0.762-1.77-2.524-2.287-3.748
				c-0.988-2.337-1.644-5.074-3.578-6.845c-0.561-0.512-1.989,0.056-2.486,0.409c-2.237,1.596-2.168,5.188-2.558,7.64
				c-0.313,1.968-0.768,3.859-1.625,5.663c-1.375,2.891-3.46-1.14-4.107-2.189c-2.009-3.262-3.376-6.936-4.925-10.426
				c-0.592-1.334-1.503-4.404-3.183-4.827c-0.755-0.19-1.971,0.063-2.502,0.67c-1.437,1.645,0.014,6.133,0.269,7.983
				c0.607,4.404,2.227,11.284-0.632,15.185c-0.128,0.174-6.262-4.053-8.412-3.232c-0.784,0.3-1.031,0.692-1.058,1.497
				c-0.12,3.659,1.276,6.458-2.417,9.158c-1.188,0.868,1.199,0.732,1.653,0.531c0.006-0.002,0.012-0.005,0.018-0.008
				c-0.46-0.231-0.921-0.463-1.382-0.694c-3.585,1.843-6.977,3.928-10.304,6.203c0.829-0.136,1.657-0.272,2.486-0.409
				c-13.543-12.985-27.987-24.398-44.426-33.506c-0.624-0.345-2.564-0.075-2.794,0.749c-7.222,25.872-3.844,51.215-0.394,77.311
				c1.329,10.053,5,19.543,5.813,29.715c0.484,6.066,0.337,12.38-1.901,18.094c-1.984,5.063-4.347,9.548-5.136,15.02
				c-4.502,31.197,39.748,37.735,62.053,38.513c18.646,0.647,37.67,0.171,56.205-2.071c8.348-1.01,16.315-3.913,24.11-6.953
				c10.901-4.253,21.62-9.245,31.767-15.081c16.419-9.442,34.257-17.748,47.272-31.901c6.156-6.692,11.022-15.525,11.054-24.809
				c0.032-10.157-9.139-18.862-15.155-26.063C366.181,261.435,365.133,260.072,364.28,258.57c-0.462-0.813-3.209,0.229-2.898,0.777
				c4.91,8.636,13.15,14.557,16.893,24.072c4.035,10.265-2.218,21.725-8.729,29.42c-12.979,15.339-33.134,24.438-50.425,33.993
				c-18.395,10.165-38.077,18.649-59.153,20.325c-19.514,1.551-39.791,2.503-59.281,0.266c-9.969-1.145-19.974-3.609-29.055-7.904
				c-6.66-3.15-12.852-7.807-16.425-14.364c-4.603-8.45-2.319-18.249,1.459-26.509c8.106-17.719-0.462-36.369-3-54.338
				c-3.506-24.825-6.053-49.204,0.808-73.783c-0.932,0.25-1.863,0.499-2.794,0.749c16.438,9.105,30.882,20.521,44.426,33.506
				c0.55,0.527,1.992-0.072,2.486-0.409c3.148-2.151,6.369-4.131,9.763-5.875c1.597-0.821-0.617-1.035-1.382-0.693
				c-0.006,0.002-0.012,0.005-0.018,0.008c0.551,0.177,1.102,0.354,1.653,0.53c1.833-1.341,2.835-2.65,3.309-4.929
				c0.206-0.989,0.088-2.065,0.008-3.061c-0.061-0.523-0.127-1.046-0.199-1.567c0.097-0.917-0.301-0.916-1.193,0.002
				c2.764,1.692,6.219,4.891,9.708,2.396c2.892-2.067,2.403-7.137,2.228-10.165c-0.159-2.746-0.588-5.479-0.963-8.201
				c-0.15-1.088-1.085-4.452-0.252-5.406c-0.834,0.224-1.668,0.447-2.502,0.67c2.182,0.549,4.155,7.851,4.963,9.652
				c1.211,2.703,3.025,7.859,6.104,9.092c8.98,3.593,6.378-13.062,9.942-15.603c-0.829,0.136-1.658,0.271-2.486,0.408
				c3.134,2.865,2.633,8.493,6.299,10.873c3.906,2.536,8.677-3.713,10.419-6.049c-0.925,0.15-1.849,0.299-2.773,0.449
				c0.701,4.433,2.999,8.369,7.771,8.821c0.26-0.401,0.519-0.802,0.777-1.202c-0.013,0.002-0.023,0.005-0.035,0.008
				c-0.82,0.182-2.039,1.281-0.461,1.208c7.68-0.352,15.313-0.116,22.847,1.513c0.542,0.117,2.524-0.033,2.612-0.839
				c2.1-18.947,10.986-34.431,20.132-50.729c-0.932,0.25-1.862,0.499-2.794,0.749c18.085,15.116,27.408,35.446,37.473,56.097
				c7.54,15.472,13.888,31.54,21.847,46.821C361.806,260.163,364.583,259.154,364.28,258.57z"/>
		</g>
		<g>
			<path fill="#F7931E" d="M305.805,311.347c0,0-4.434,5.139-16.141,4.37c-16.381-1.069-29.685-8.528-29.685-8.528
				s-3.565,8.707-11.908,15.283c-11.373,8.965-19.56,9.809-19.56,9.809c-1.166,14.172-2.77,28.035,0,45.902
				c21.401-5.736,23.79-3.509,44.976-9.041c11.189-2.925,44.394,0.95,55.513-2.32C326.252,353.705,311.629,319.72,305.805,311.347z"
				/>
		</g>
		<g>
			<path fill="#F7931E" d="M259.981,307.189c-3.941-0.355-10.943-1.885-14.773-6.367c-2.906-3.408,2.662-8.947,10.629-10.582
				c5.584-1.145,15.963-1.326,13.979,5.336C268.483,300.039,263.581,304.609,259.981,307.189z"/>
			<g>
				<path fill="none" d="M259.981,307.189c-3.941-0.355-10.943-1.885-14.773-6.367c-2.906-3.408,2.662-8.947,10.629-10.582
					c5.584-1.145,15.963-1.326,13.979,5.336C268.483,300.039,263.581,304.609,259.981,307.189z"/>
				<path d="M260.531,306.315c-4.753-0.513-9.361-1.945-13.046-5.094c-6.154-5.262,6.451-9.89,10.072-10.443
					c3.18-0.487,9.246-1.081,10.892,2.52c2.095,4.583-6.394,11.188-9.382,13.409c-1.577,1.174,0.871,1.677,1.826,0.965
					c3.967-2.949,12.85-9.908,10.141-15.837c-2.085-4.562-11.338-3.144-15.016-2.456c-4.013,0.751-13.389,4.063-13.035,9.579
					c0.408,6.396,11.566,8.579,16.447,9.105C260.615,308.191,262.487,306.526,260.531,306.315z"/>
			</g>
		</g>
		<g>
			<path fill="#F7931E" d="M158.781,209.402c-4.264,2.065-3.279,18.363-2.004,23.709c2.199,9.553,26.167-0.031,23.762-7.598
				C178.766,219.636,164.138,207.408,158.781,209.402z"/>
			<g>
				<path fill="none" d="M158.781,209.402c-4.264,2.065-3.279,18.363-2.004,23.709c2.199,9.553,26.167-0.031,23.762-7.598
					C178.766,219.636,164.138,207.408,158.781,209.402z"/>
				<path d="M157.849,208.847c-3.067,1.944-3.303,6.434-3.537,9.675c-0.341,4.731-0.005,9.682,0.876,14.339
					c1.469,7.756,12.13,5.083,17.105,3.101c6.361-2.535,12.489-7.545,7.813-14.308c-3.888-5.624-13.899-15.214-21.558-13.122
					c-1.763,0.481-1.3,2.221,0.466,1.738c2.836-0.774,6.416,1.911,8.632,3.382c3.229,2.143,6.116,4.825,8.645,7.75
					c1.535,1.775,3.341,4.033,2.785,6.506c-0.671,2.982-4.695,5.032-7.154,6.211c-5.45,2.612-12.89,3.815-14.103-3.551
					c-0.61-3.701-0.736-7.498-0.641-11.24c0.066-2.583,0.029-7.784,2.536-9.373C161.375,208.903,158.917,208.17,157.849,208.847z"/>
			</g>
		</g>
		<g>
			<path fill="#F7931E" d="M307.383,176.365c-4.621,0.117-10.565,15.322-11.678,20.703c-2.056,9.578,23.076,10.764,24.121,2.9
				C320.721,193.902,312.938,176.761,307.383,176.365z"/>
			<g>
				<path fill="none" d="M307.383,176.365c-4.621,0.117-10.565,15.322-11.678,20.703c-2.056,9.578,23.076,10.764,24.121,2.9
					C320.721,193.902,312.938,176.761,307.383,176.365z"/>
				<path d="M307.543,175.423c-7.657,1.124-11.214,14.198-12.957,20.384c-2.231,7.919,7.245,10.092,13.251,10.285
					c5.8,0.188,13.898-1.461,13.457-8.636c-0.412-6.69-5.678-20.744-13.381-22.038c-1.286-0.216-3.001,1.568-1.062,1.895
					c2.811,0.472,4.885,4.213,6.232,6.391c2.084,3.367,3.575,7.149,4.64,10.952c0.652,2.329,1.446,5.45-0.397,7.398
					c-2.096,2.214-6.547,2.207-9.313,2.116c-5.267-0.169-12.161-2.213-10.511-8.649c0.85-3.316,2.179-6.52,3.593-9.628
					c0.995-2.19,3.37-8.183,6.126-8.586C308.722,177.086,309.529,175.132,307.543,175.423z"/>
			</g>
		</g>
		<g>
			<path fill="#FFFFFF" d="M172.482,278.64c-9.32,7.682-12.711,22.186-1.666,28.496c18.998,10.856,48.732,4.663,60.463-9.062
				c11.91-13.938,0.693-26.037-12.416-29.289C199.598,264.005,181.639,271.093,172.482,278.64z"/>
			<g>
				<path fill="none" d="M172.482,278.64c-9.32,7.682-12.711,22.186-1.666,28.496c18.998,10.856,48.732,4.663,60.463-9.062
					c11.91-13.938,0.693-26.037-12.416-29.289C199.598,264.005,181.639,271.093,172.482,278.64z"/>
				<path d="M171.329,278.434c-5.489,4.773-9.251,11.336-8.811,18.77c0.491,8.287,8.8,12.07,15.67,14.194
					c15.297,4.729,33.706,1.597,47.083-6.961c5.853-3.745,12.37-10.306,12.478-17.718c0.132-9.036-7.239-14.892-15.049-17.813
					C206.139,262.707,184.877,267.617,171.329,278.434c-1.279,1.021,1.624,0.957,2.307,0.412
					c13.021-10.397,32.354-13.973,48.052-8.097c6.343,2.373,11.883,7.396,13.083,14.237c1.437,8.187-6.088,15.349-12.297,19.321
					c-12.387,7.925-29.327,9.641-43.245,5.338c-6.281-1.942-12.16-5.284-13.661-12.111c-1.541-7.008,3.032-14.31,8.068-18.688
					C174.882,277.762,171.996,277.854,171.329,278.434z"/>
			</g>
		</g>
		<g>
			<path fill="none" d="M221.642,314.578c-5.144,6.971-2.27,19.146,6.87,17.703c10.045-1.629,27.852-13.258,31.469-25.092"/>
			<path d="M220.417,314.104c-5.912,8.856-1.582,21.621,10.286,18.83c12.212-2.871,26.53-13.426,30.673-25.547
				c0.559-1.635-2.344-1.7-2.789-0.396c-3.287,9.62-12.527,16.503-21.228,21.008c-4.276,2.215-10.827,5.322-14.714,0.981
				c-3.351-3.742-2.312-10.134,0.222-13.93C223.904,313.497,221.205,312.924,220.417,314.104L220.417,314.104z"/>
		</g>
		<g>
			<path fill="none" d="M259.981,307.189c42.774,20.41,59.915-1.402,44.721-14.363"/>
			<path d="M259.144,308.16c12.779,5.977,32.756,13.531,46.209,4.828c8.38-5.421,7.447-14.806,0.468-20.994
				c-0.955-0.847-3.488,0.555-2.236,1.664c6.328,5.61,6.968,14.28-1.133,18.554c-12.515,6.603-30.127-0.613-41.632-5.992
				C259.625,305.66,257.472,307.378,259.144,308.16L259.144,308.16z"/>
		</g>
		<g>
			<path fill="#FFFFFF" d="M279.2,255.039c-8.895,8.467-11.279,23.424,0.379,29.021c20.057,9.631,49.768,1.188,60.666-13.582
				c11.063-15.004-1.191-26.457-14.726-28.806C305.637,238.222,287.935,246.719,279.2,255.039z"/>
			<g>
				<path fill="none" d="M279.2,255.039c-8.895,8.467-11.279,23.424,0.379,29.021c20.057,9.631,49.768,1.188,60.666-13.582
					c11.063-15.004-1.191-26.457-14.726-28.806C305.637,238.222,287.935,246.719,279.2,255.039z"/>
				<path d="M277.875,255.098c-5.214,5.225-8.573,12.325-7.36,19.805c1.387,8.551,10.832,11.583,18.141,13.049
					c15.931,3.194,34.431-1.51,47.112-11.564c6.189-4.907,11.391-12.482,9.881-20.682c-1.49-8.095-10.459-12.659-17.646-14.39
					C310.896,237.198,290.659,243.283,277.875,255.098c-0.718,0.664,2.091,0.396,2.649-0.119
					c12.595-11.642,32.51-16.84,48.945-11.347c6.487,2.17,12.22,7.092,13.492,14.007c1.413,7.678-4.866,14.89-10.405,19.28
					c-12.32,9.771-30.492,12.876-45.522,8.887c-6.844-1.816-12.602-5.378-13.799-12.77c-1.082-6.677,2.759-13.52,7.289-18.059
					C281.235,254.267,278.415,254.557,277.875,255.098z"/>
			</g>
		</g>
		<g>
			<path fill="none" d="M228.512,332.281c-1.166,14.172-2.77,28.035,0,45.902c21.401-5.736,23.79-3.509,44.977-9.041
				c11.188-2.924,44.393,0.951,55.512-2.32c-2.748-13.117-17.371-47.102-23.195-55.475"/>
			<path d="M227.063,332.669c-1.283,15.403-2.269,30.525,0,45.902c0.059,0.397,1.378,0.054,1.555,0.007
				c9.105-2.404,18.234-3.85,27.517-5.303c8.828-1.382,17.316-4.313,26.274-4.663c8.757-0.341,17.541,0.103,26.3,0.165
				c6.732,0.048,13.842,0.218,20.397-1.562c0.229-0.063,1.435-0.368,1.344-0.783c-2.228-10.15-6.431-19.974-10.444-29.517
				c-3.685-8.757-7.396-18.055-12.751-25.959c-0.455-0.671-3.079,0.509-2.897,0.777c5.36,7.912,9.032,17.205,12.752,25.958
				c4.044,9.521,8.22,19.377,10.442,29.517c0.448-0.262,0.896-0.521,1.344-0.783c-7.812,2.119-16.712,1.293-24.719,1.164
				c-8.097-0.129-16.225-0.436-24.311,0.158c-8.196,0.602-16.143,3.459-24.266,4.73c-9.179,1.436-18.196,2.932-27.195,5.308
				c0.518,0.003,1.037,0.005,1.555,0.007c-2.269-15.376-1.283-30.498,0-45.901C229.987,331.581,227.13,331.856,227.063,332.669
				L227.063,332.669z"/>
		</g>
		<g>
			<path fill="none" d="M175.162,319.794c0.59,5.07,1.42,10.67,2.838,14.738"/>
			<path d="M173.713,320.183c0.59,4.967,1.26,9.973,2.838,14.737c0.215,0.651,3.087-0.202,2.897-0.776
				c-1.577-4.767-2.248-9.771-2.838-14.738C176.547,318.873,173.625,319.446,173.713,320.183L173.713,320.183z"/>
		</g>
		<g>
			<path fill="none" d="M182.609,321.542c0,0,1.733,11.215,3.605,17.847"/>
			<path d="M181.161,321.931c0.932,5.986,2.004,11.997,3.605,17.846c0.188,0.688,3.084-0.094,2.897-0.777
				c-1.601-5.848-2.673-11.856-3.605-17.846C183.96,320.526,181.041,321.161,181.161,321.931L181.161,321.931z"/>
		</g>
		<g>
			<path fill="none" d="M334.321,290.541c0,0,2.684,7.021,3.537,11.092"/>
			<path d="M332.872,290.929c1.377,3.613,2.703,7.31,3.537,11.092c0.213,0.963,3.119,0.228,2.897-0.777
				c-0.834-3.781-2.159-7.477-3.537-11.092C335.396,289.17,332.532,290.036,332.872,290.929L332.872,290.929z"/>
		</g>
		<g>
			<path fill="none" d="M341.946,290.541c0,0,1.563,5.689,1.848,7.047"/>
			<path d="M340.497,290.929c0.643,2.337,1.335,4.677,1.848,7.047c0.269,1.233,3.171,0.484,2.898-0.777
				c-0.515-2.369-1.206-4.709-1.849-7.047C343.055,288.917,340.159,289.698,340.497,290.929L340.497,290.929z"/>
		</g>
		<g>
			<path fill="none" d="M348.155,282.662c0.836,2.219,3.809,10.164,5.573,16.892"/>
			<path d="M346.706,283.05c2.088,5.551,4.032,11.161,5.574,16.892c0.266,0.984,3.163,0.208,2.897-0.777
				c-1.542-5.729-3.486-11.34-5.574-16.891C349.23,281.281,346.364,282.141,346.706,283.05L346.706,283.05z"/>
		</g>
		<g>
			<path fill="none" d="M193.606,322.08c0.474,2.265,1.797,10.318,2.689,12.453"/>
			<path d="M192.158,322.468c0.835,4.103,1.181,8.528,2.689,12.453c0.447,1.162,3.32,0.322,2.897-0.776
				c-1.508-3.924-1.854-8.352-2.689-12.453C194.816,320.519,191.911,321.256,192.158,322.468L192.158,322.468z"/>
		</g>
		<g>
			<path fill="none" d="M206.363,242.242c9.15,9.887,18.093,16.514,30.559,21.932"/>
			<path d="M205.031,242.857c8.947,9.542,19.065,16.917,31.039,22.23c1.106,0.492,3.363-1.095,1.705-1.83
				c-11.599-5.148-21.408-12.384-30.079-21.632C206.864,240.739,204.106,241.872,205.031,242.857L205.031,242.857z"/>
		</g>
		<g>
			<path fill="none" d="M263.872,196.685c1.545,17.146-1.854,41.147-7.791,54.51"/>
			<path d="M262.422,197.073c1.46,17.868-0.64,37.765-7.778,54.349c-0.285,0.661,2.523,0.358,2.873-0.455
				c7.168-16.65,9.271-36.708,7.805-54.67C265.263,195.596,262.349,196.161,262.422,197.073L262.422,197.073z"/>
		</g>
		<g>
			<path fill="none" d="M167.152,307.871c1.85,11.783,24.26,9.705,31.886,7.625"/>
			<path d="M165.704,308.259c2.673,12.813,24.354,9.98,33.438,7.624c1.684-0.437,1.472-1.211-0.208-0.774
				c-8.553,2.219-27.872,4.174-30.333-7.626C168.49,306.948,165.575,307.641,165.704,308.259L165.704,308.259z"/>
		</g>
		<g>
			<path fill="none" d="M345.526,264.894c1.618,13.401-18.83,21.076-27.843,23.27"/>
			<path d="M344.077,265.283c1.018,13.077-16.442,19.433-26.63,21.994c-1.781,0.448-1.297,2.219,0.475,1.772
				c11.384-2.861,30.184-10.031,29.054-24.545C346.883,263.329,343.977,263.996,344.077,265.283L344.077,265.283z"/>
		</g>
		<g>
			<path fill="none" d="M349.889,259.232c0.693,6.934,0,13.633-5.35,19.252"/>
			<path d="M348.44,259.621c0.626,7.063-0.37,13.456-5.236,18.881c-0.767,0.854,2.112,0.59,2.672-0.035
				c5.025-5.601,6.109-12.325,5.463-19.622C351.265,258.026,348.352,258.623,348.44,259.621L348.44,259.621z"/>
		</g>
	</g>
	<g>
		<g>
			<path fill="none" d="M385.3,390.781c0.643-7.309,3.218-13.857,4.661-19.566c-3.754,3.523-9.34,13.688-15.25,8.724
				c-2.293-4.16-0.979-8.879-0.809-11.265c1.1-5.082,4.217-10.282,5.893-14.036c-6.063,5.082-8.572,7.651-10.805,8.606
				c-4.39,1.848-2.588-8.434-2.588-11.207c-1.802,2.889-3.881,7.221-5.349,4.479c-3.004-4.158,0.197-11.584-0.032-16.437
				c-2.138,3.351-4.275,10.918-7.972,11.611c-1.457,0.207-3.121-0.463-4.869-1.672c-5.358-3.933-5.313-8.39-14.559-10.631"/>
			<path d="M386.742,390.572c0.74-6.74,2.935-13.047,4.661-19.566c0.296-1.115-2.441-0.105-2.776,0.23
				c-1.542,1.549-2.892,3.27-4.309,4.931c-0.979,1.146-2.044,2.197-3.193,3.171c-3.82,0.837-5.848-0.151-6.082-2.969
				c-0.252-1.453-0.292-2.916-0.122-4.39c0.425-6.424,3.665-11.843,6.316-17.553c0.425-0.913-2.286-0.206-2.584,0.045
				c-2.001,1.688-3.981,3.399-5.965,5.108c-0.968,0.832-3.791,4.024-4.719,2.257c-1.478-2.816-0.211-7.145-0.118-10.188
				c0.025-0.853-2.518-0.03-2.783,0.41c-0.897,1.48-1.764,2.962-2.8,4.351c0.184-0.244-1.016-4.271-1.056-4.878
				c-0.264-3.942,1.246-7.882,1.258-11.84c0.002-0.857-2.521-0.04-2.783,0.41c-1.216,2.071-2.162,4.275-3.22,6.431
				c-0.7,1.427-2.271,4.785-4.575,4.205c-1.891-0.476-3.559-2.167-4.898-3.506c-4.01-4.005-6.478-6.925-12.203-8.492
				c-0.797-0.218-3.399,1.007-2.334,1.299c4.491,1.229,7.511,3.279,10.483,6.766c2.089,2.448,4.728,5.114,8.074,5.599
				c6.703,0.969,8.817-8.034,11.343-12.343c-0.929,0.137-1.855,0.272-2.784,0.41c-0.017,5.63-3.285,12.364,0.707,17.3
				c2.489,3.079,6.969-4.944,7.458-5.753c-0.929,0.137-1.855,0.272-2.784,0.41c-0.075,2.486-2.059,11.563,2.145,11.73
				c5.177,0.207,10.375-6.431,13.841-9.354c-0.861,0.015-1.724,0.028-2.584,0.044c-2.622,5.646-12.211,22.702-2.854,26.864
				c6.453,2.87,12.324-7.03,15.796-10.518c-0.926,0.077-1.851,0.153-2.775,0.229c-1.728,6.521-3.922,12.826-4.661,19.566
				C383.748,392.006,386.647,391.432,386.742,390.572L386.742,390.572z"/>
		</g>
	</g>
	<g>
		<g>
			<path fill="none" d="M214.41,395.22c6.107,27.301,21.147,46.766,35.622,56.631"/>
			<path d="M212.961,395.609c5.16,22.238,16.87,43.704,35.918,56.945c0.779,0.542,3.461-0.604,2.306-1.406
				c-18.776-13.053-30.249-34.433-35.326-56.316C215.624,393.818,212.719,394.566,212.961,395.609L212.961,395.609z"/>
		</g>
		<g>
			<g>
				<path fill="#FFFFFF" d="M228.819,388.351c-7.124,4.479-24.39,13.272-41.95,8.397c-8.23-2.287-12.486-9.244-13.41-17.561
					c-1.849-15.404,9.439-26.988,22.73-32.963c26.725-12.019,40.137,1.848,55.994,15.094c3.889,3.25,24.028,26.803,34.207,44.783"/>
			</g>
			<g>
				<path fill="none" d="M228.819,388.351c-7.124,4.479-24.39,13.272-41.95,8.397c-8.23-2.287-12.486-9.244-13.41-17.561
					c-1.849-15.404,9.439-26.988,22.73-32.963c26.725-12.019,40.137,1.848,55.994,15.094c3.889,3.25,24.028,26.803,34.207,44.783"/>
				<path d="M227.861,387.702c-15.174,9.391-46.823,17.915-52.521-6.184c-5.275-22.308,19.909-38.164,39.194-38.836
					c9.097-0.317,17.263,4.201,24.339,9.443c5.33,3.949,10.731,8.251,15.25,13.125c11.634,12.55,22.419,26.644,30.938,41.486
					c0.639,1.113,3.404,0.039,2.653-1.271c-5.536-9.646-12.147-18.644-19.026-27.367c-4.707-5.969-9.515-12.204-15.119-17.375
					c-6.973-6.433-14.73-12.835-23.345-16.903c-9.345-4.412-19.637-3.79-29.234-0.604c-18.761,6.231-36.444,24.853-26.231,45.496
					c4.929,9.964,17.67,11.104,27.437,10.266c9.779-0.84,19.307-4.858,27.582-9.979
					C231.445,387.968,229.038,386.974,227.861,387.702L227.861,387.702z"/>
			</g>
			<g>
				<path fill="none" d="M182.261,367.173c-4.929,2.156-7.099,6.25-8.802,12.017"/>
				<path d="M181.707,366.648c-5.469,2.54-8,7.151-9.691,12.742c-0.279,0.922,2.611,0.508,2.887-0.402
					c1.387-4.581,3.316-9.154,7.912-11.289C184.652,366.845,182.947,366.072,181.707,366.648L181.707,366.648z"/>
			</g>
		</g>
		<g>
			<path fill="none" d="M194.592,377.033c-4.313,5.545-8.88,12.008-8.88,19.094"/>
			<path d="M193.272,377.114c-4.45,5.765-8.729,11.875-9.009,19.401c-0.02,0.53,2.864,0.132,2.897-0.777
				c0.271-7.263,4.458-13.227,8.75-18.786C196.536,376.142,193.718,376.536,193.272,377.114L193.272,377.114z"/>
		</g>
	</g>
	<path fill="none" d="M472.915,232.416c-41.818,25.982-47.082,50.736-18.074,89.525c-48.055,6.236-61.832,26.512-49.291,73.106
		c-46.596-12.541-66.871,1.238-73.104,49.294c-38.794-29.011-63.546-23.744-89.527,18.076
		c-25.985-41.82-50.737-47.087-89.528-18.076c-6.236-48.056-26.512-61.835-73.107-49.294c12.541-46.596-1.236-66.87-49.294-73.106
		C60,283.152,54.734,258.398,12.917,232.416C54.734,206.432,60,181.68,30.989,142.889c48.058-6.234,61.835-26.513,49.294-73.107
		c46.596,12.543,66.871-1.236,73.107-49.291c38.791,29.01,63.543,23.742,89.528-18.074c25.981,41.816,50.733,47.084,89.527,18.074
		c6.233,48.055,26.51,61.834,73.104,49.291c-12.541,46.596,1.236,66.873,49.291,73.107
		C425.833,181.679,431.096,206.431,472.915,232.416z"/>
	<path fill="none" stroke="#000000" stroke-width="2.5495" stroke-miterlimit="10" d="M472.915,232.416
		c-41.818,25.982-47.082,50.736-18.074,89.525c-48.055,6.236-61.832,26.512-49.291,73.106
		c-46.596-12.541-66.871,1.238-73.104,49.294c-38.794-29.011-63.546-23.744-89.527,18.076
		c-25.985-41.82-50.737-47.087-89.528-18.076c-6.236-48.056-26.512-61.835-73.107-49.294c12.541-46.596-1.236-66.87-49.294-73.106
		C60,283.152,54.734,258.398,12.917,232.416C54.734,206.432,60,181.68,30.989,142.889c48.058-6.234,61.835-26.513,49.294-73.107
		c46.596,12.543,66.871-1.236,73.107-49.291c38.791,29.01,63.543,23.742,89.528-18.074c25.981,41.816,50.733,47.084,89.527,18.074
		c6.233,48.055,26.51,61.834,73.104,49.291c-12.541,46.596,1.236,66.873,49.291,73.107
		C425.833,181.679,431.096,206.431,472.915,232.416z"/>
	<g>
		<g>
			<g>
				<g>
					<g>
						<path fill="#FFFFFF" d="M214.193,143.105c-6.671-8.488,4.58-18.656,4.58-18.656c-1.061-1.406-7.229-7.516-8.622-9.041
							c-0.58-0.631-5.673,5.383-6.353,4.906c-11.181-7.82-31.229-6.103-36.347,11.94c-2.705,11.066-2.705,23.521,6.761,30.441
							c10.821,7.611,27.173,3.242,31.738-9.137c6.651,7.166,10.267,8.616,10.267,8.616c2.781-2.038,7.988-8.616,9.131-10.512
							C225.349,151.666,220.895,149.806,214.193,143.105z M194.329,148.853c-11.271,14.004-19.321-9.062-8.855-16.478
							C195.938,128.257,200.771,141.441,194.329,148.853z"/>
					</g>
					<g>
						<path fill="none" d="M214.193,143.105c-6.671-8.488,4.58-18.656,4.58-18.656c-1.061-1.406-7.229-7.516-8.622-9.041
							c-0.58-0.631-5.673,5.383-6.353,4.906c-11.181-7.82-31.229-6.103-36.347,11.94c-2.705,11.066-2.705,23.521,6.761,30.441
							c10.821,7.611,27.173,3.242,31.738-9.137c6.651,7.166,10.267,8.616,10.267,8.616c2.781-2.038,7.988-8.616,9.131-10.512
							C225.349,151.666,220.895,149.806,214.193,143.105z M194.329,148.853c-11.271,14.004-19.321-9.062-8.855-16.478
							C195.938,128.257,200.771,141.441,194.329,148.853z"/>
						<path d="M215.542,142.552c-4.249-6.149-0.53-13.367,4.383-17.902c0.224-0.207,0.429-0.47,0.197-0.754
							c-1.758-2.155-3.808-4.091-5.752-6.076c-0.991-1.011-2.294-3.209-3.877-3.215c-1.586-0.005-2.855,1.338-3.923,2.325
							c-0.474,0.448-0.947,0.898-1.42,1.35c-0.228,0.211-0.455,0.423-0.682,0.634c-0.792,0.612-0.843,0.71-0.153,0.293
							c-1.195-0.796-2.487-1.414-3.798-1.989c-10.417-4.58-23.504-1.73-30.598,7.188c-4.541,5.708-5.499,13.868-5.46,20.91
							c0.043,8.089,3.673,15.338,10.753,19.382c11.424,6.524,27.34,0.555,32.185-11.332c-0.931,0.25-1.863,0.499-2.794,0.749
							c2.966,3.124,6.375,6.987,10.456,8.738c0.712,0.306,1.738-0.014,2.312-0.475c3.623-2.904,6.813-6.817,9.321-10.708
							c0.177-0.274,0.136-0.539-0.182-0.678C222.329,149.164,218.754,145.683,215.542,142.552c-0.692-0.676-3.419,0.403-2.698,1.105
							c3.273,3.191,6.756,6.291,10.827,8.436c0.834,0.438,0.086-0.046,0.002,0.085c-0.727,1.126-1.592,2.173-2.42,3.224
							c-1.856,2.354-3.845,4.696-6.188,6.575c0.771-0.158,1.542-0.316,2.312-0.475c-3.919-1.682-7.225-5.49-10.078-8.496
							c-0.639-0.673-2.484-0.013-2.794,0.749c-3.548,8.705-12.24,13.066-21.419,11.562c-8.576-1.407-13.886-8.57-15.37-16.674
							c-2.977-16.252,6.454-34.159,24.73-31.683c3.005,0.407,5.848,1.511,8.495,2.952c1.413,0.771,2.073,1.593,3.672,0.938
							c1.672-0.686,2.984-2.31,4.259-3.521c1.771-1.682,0.152-1.127,0.789-0.462c1.18,1.23,2.383,2.439,3.575,3.658
							c0.894,0.914,3.813,4.264,4.148,3.945c-1.255,1.193-2.352,2.541-3.375,3.935c-3.45,4.701-4.611,10.269-1.167,15.252
							C213.363,144.41,216.174,143.465,215.542,142.552z"/>
						<path d="M192.987,148.849c-1.424,1.697-3.562,4.254-6.073,3.463c-1.543-0.486-2.637-1.967-3.373-3.321
							c-1.859-3.419-1.847-7.76-0.646-11.373c0.674-2.027,2.162-4.462,4.322-5.07c2.795-0.787,5.327,0.784,6.913,2.946
							C197.044,139.465,195.888,145.288,192.987,148.849c-0.776,0.953,2.126,0.692,2.684,0.008
							c3.873-4.755,4.413-12.659-0.952-16.594c-5.114-3.75-11.731-0.382-14.241,4.607c-2.355,4.683-1.746,11.689,2.03,15.473
							c4.227,4.233,10.229,0.016,13.163-3.486C196.455,147.922,193.554,148.173,192.987,148.849z"/>
					</g>
				</g>
			</g>
			<g>
				<path fill="#FFFFFF" d="M232.89,115.896l12.435-0.105c0,0,0.207,10.312,0.307,17.06c3.076-9.979,7.605-13.933,16.455-14.238
					c12.871-0.445,17.504,9.184,20.156,14.391c-2.262,2.818-8.584,10.437-8.584,10.437s-4.346-9.555-11.131-9.359
					c-7.967,0.226-15.557,14.154-15.287,31.957l-13.679-0.106C233.562,165.927,232.985,129.402,232.89,115.896z"/>
				<g>
					<path fill="none" d="M232.89,115.896l12.435-0.105c0,0,0.207,10.312,0.307,17.06c3.076-9.979,7.605-13.933,16.455-14.238
						c12.871-0.445,17.504,9.184,20.156,14.391c-2.262,2.818-8.584,10.437-8.584,10.437s-4.346-9.555-11.131-9.359
						c-7.967,0.226-15.557,14.154-15.287,31.957l-13.679-0.106C233.562,165.927,232.985,129.402,232.89,115.896z"/>
					<path d="M232.279,116.542c4.017-0.034,8.035-0.067,12.051-0.102c0.073,0-0.456-0.396-0.435,0.734
						c0.024,1.255,0.049,2.509,0.072,3.764c0.078,4.1,0.151,8.2,0.215,12.3c0.01,0.693,2.686-0.013,2.883-0.624
						c1.896-5.842,4.638-11.635,11.233-13.035c6.163-1.307,12.269,0.688,16.703,4.984c1.754,1.698,6.797,7.435,4.822,9.864
						c-2.476,3.044-4.982,6.063-7.487,9.082c0.923-0.154,1.848-0.308,2.771-0.461c-2.922-6.234-9.455-12.242-16.582-8.428
						c-10.644,5.699-12.74,21.017-12.734,31.802c0.688-0.345,1.373-0.688,2.061-1.033c-4.308-0.034-8.615-0.068-12.921-0.103
						c-1.318-0.01,0.079,0.124,0.079,0.11c-0.008-0.503-0.016-1.007-0.024-1.51c-0.037-2.354-0.072-4.705-0.108-7.059
						c-0.208-13.772-0.435-27.546-0.538-41.32c-0.004-0.597-2.904-0.134-2.897,0.775c0.125,16.678,0.409,33.355,0.672,50.031
						c0.004,0.296,0.692,0.257,0.838,0.258c4.56,0.036,9.12,0.072,13.68,0.107c0.521,0.004,2.06-0.313,2.06-1.034
						c-0.006-9.392,1.621-19.629,7.597-27.212c5.94-7.542,13.03-0.783,15.924,5.391c0.356,0.763,2.397-0.01,2.771-0.46
						c2.877-3.466,5.757-6.93,8.584-10.436c0.099-0.085,0.142-0.19,0.129-0.316c-4.039-7.939-9.807-14.693-19.489-14.655
						c-10.614,0.042-16.749,5.097-20.006,15.126c0.961-0.208,1.923-0.416,2.884-0.624c-0.087-5.687-0.193-11.373-0.307-17.059
						c-0.006-0.295-0.691-0.259-0.84-0.258c-4.145,0.035-8.29,0.069-12.435,0.104C232.648,115.257,230.344,116.559,232.279,116.542z
						"/>
				</g>
			</g>
			<g>
				<g>
					<g>
						<path fill="#FFFFFF" d="M423.799,166.285c0.474-2.457,2.529-10.586,1.457-10.771c-3.652-0.629-8.309-1.597-11.014-2.113
							c-1.148,2.328-2.467,10.109-1.703,10.6C413.27,164.476,420.903,166.296,423.799,166.285z"/>
						<g>
							<path fill="none" d="M423.799,166.285c0.474-2.457,2.529-10.586,1.457-10.771c-3.652-0.629-8.309-1.597-11.014-2.113
								c-1.148,2.328-2.467,10.109-1.703,10.6C413.27,164.476,420.903,166.296,423.799,166.285z"/>
							<path d="M425.236,166.056c0.653-3.286,1.689-6.607,1.774-9.976c0.042-1.701-2.041-1.44-3.291-1.672
								c-2.856-0.529-5.703-1.119-8.557-1.67c-0.657-0.127-2.052,0.213-2.357,0.891c-0.887,1.967-1.269,4.173-1.615,6.287
								c-0.186,1.122-0.845,3.614-0.01,4.604c0.861,1.021,4.116,1.225,5.31,1.483c2.205,0.479,4.443,0.901,6.705,0.95
								c0.888,0.02,3.148-1.295,1.209-1.337c-2.069-0.044-4.164-0.533-6.177-0.97c-1.37-0.298-3.069-0.51-4.329-1.167
								c-0.71-0.37,0.16-4.001,0.263-4.62c0.313-1.914,0.716-3.912,1.519-5.688c-0.786,0.298-1.57,0.595-2.356,0.892
								c2.285,0.44,4.565,0.902,6.851,1.346c1.121,0.217,2.243,0.425,3.366,0.628c0.718,0.129,0.583,0.493,0.565,1.185
								c-0.078,3.111-1.137,6.257-1.741,9.294C422.196,167.352,425.076,166.859,425.236,166.056z"/>
						</g>
					</g>
					<g>
						<path fill="#FFFFFF" d="M426.721,149.781c0,0,9.299-40.51,11.164-50.574c0,0-8.008-1.612-12.596-2.149
							c-0.689,3.682-8.914,45.752-9.512,50.18L426.721,149.781z"/>
						<g>
							<path fill="none" d="M426.721,149.781c0,0,9.299-40.51,11.164-50.574c0,0-8.008-1.612-12.596-2.149
								c-0.689,3.682-8.914,45.752-9.512,50.18L426.721,149.781z"/>
							<path d="M428.176,149.622c3.857-16.811,7.978-33.621,11.164-50.574c0.068-0.365-0.26-0.624-0.584-0.688
								c-4.284-0.857-8.588-1.646-12.923-2.198c-0.646-0.083-1.858,0.308-1.999,1.054c-3.147,16.696-7.11,33.357-9.512,50.181
								c-0.055,0.376,0.248,0.61,0.584,0.688c3.646,0.849,7.296,1.697,10.942,2.545c1.023,0.238,3.434-1.302,1.742-1.694
								c-2.302-0.535-4.604-1.07-6.905-1.606c-1.205-0.28-2.412-0.561-3.618-0.841c-0.115-0.027,0.152,0.594,0.357-0.636
								c0.85-5.098,1.858-10.17,2.824-15.246c2.14-11.24,4.374-22.463,6.494-33.707c-0.666,0.352-1.333,0.703-1.999,1.054
								c3.732,0.477,7.436,1.164,11.13,1.878c1.492,0.289,0.522-0.284,0.355,0.584c-0.216,1.114-0.445,2.227-0.676,3.337
								c-1.286,6.229-2.675,12.438-4.058,18.646c-2.046,9.188-4.127,18.37-6.232,27.544
								C424.991,151.14,427.928,150.702,428.176,149.622z"/>
						</g>
					</g>
				</g>
				<g>
					<g>
						<g>
							<path fill="#FFFFFF" d="M390.016,93.5c0,0-0.895,24.029-1.573,32.179c0,0-12.209-13.064-26.88-2.587
								c-6.733,4.81-9.909,13.597-8.42,20.773c2.173,10.453,7.929,16.793,17.107,17.65c7.738,0.721,14.799-2.445,17.512-6.382
								l-0.133,6.259c2.443,0,11.266,0.852,14.525,0.307c0-1.629,2.444-67.893,2.444-67.893L390.016,93.5z M378.692,147.068
								c-3.695,3.387-9.431,3.111-12.23-1.404c-1.471-2.367-2.951-11.598,5.363-13.289
								C381.833,130.064,385.467,141.216,378.692,147.068z"/>
						</g>
						<g>
							<path fill="none" d="M390.016,93.5c0,0-0.895,24.029-1.573,32.179c0,0-12.209-13.064-26.88-2.587
								c-6.733,4.81-9.909,13.597-8.42,20.773c2.173,10.453,7.929,16.793,17.107,17.65c7.738,0.721,14.799-2.445,17.512-6.382
								l-0.133,6.259c2.443,0,11.266,0.852,14.525,0.307c0-1.629,2.444-67.893,2.444-67.893L390.016,93.5z M378.692,147.068
								c-3.695,3.387-9.431,3.111-12.23-1.404c-1.471-2.367-2.951-11.598,5.363-13.289
								C381.833,130.064,385.467,141.216,378.692,147.068z"/>
							<path d="M388.551,93.62c-0.4,10.725-0.719,21.479-1.574,32.178c0.932-0.25,1.862-0.5,2.795-0.749
								c-12.567-13.146-33.68-6.047-37.977,10.98c-2.335,9.249,2.873,20.594,11.36,24.777c7.983,3.935,20.247,1.877,25.812-5.271
								c-0.89-0.093-1.78-0.187-2.67-0.28c-0.045,2.086-0.089,4.173-0.133,6.259c-0.012,0.526,0.435,0.89,0.954,0.899
								c4.941,0.099,9.965,0.919,14.896,0.312c0.554-0.068,1.597-0.424,1.604-1.146c0.242-22.624,1.611-45.283,2.445-67.893
								c0.02-0.528-0.441-0.89-0.954-0.9c-4.861-0.103-9.724-0.205-14.584-0.307c-1.354-0.029-2.982,2-1.021,2.041
								c4.861,0.103,9.723,0.205,14.584,0.307c-0.316-0.3-0.636-0.6-0.954-0.899c-0.835,22.609-2.204,45.269-2.444,67.893
								c0.533-0.382,1.067-0.763,1.604-1.146c-4.688,0.579-9.455-0.21-14.153-0.303c0.317,0.3,0.637,0.601,0.954,0.9
								c0.045-2.086,0.089-4.172,0.133-6.258c0.028-1.33-2.107-1.002-2.67-0.28c-5.522,7.094-17.113,7.51-24.177,2.673
								c-6.51-4.459-9.016-14.266-7.655-21.618c2.843-15.351,21.938-20.414,32.389-9.482c0.69,0.723,2.701,0.42,2.794-0.749
								c0.854-10.698,1.174-21.454,1.574-32.179C391.537,91.904,388.598,92.361,388.551,93.62z"/>
							<path d="M377.74,146.439c-7.774,6.537-15.022-6.212-8.671-11.784c3.342-2.932,9.026-1.739,10.929,2.147
								c1.705,3.482,0.159,7.409-2.511,9.864c-1.319,1.212,1.507,1.632,2.41,0.803c3.795-3.488,5.118-9.229,1.745-13.481
								c-3.38-4.261-10.531-3.496-14.479-0.59c-3.626,2.669-4.063,8.242-2.425,12.134c2.554,6.062,10.548,5.829,14.904,2.166
								C381.151,146.43,378.816,145.534,377.74,146.439z"/>
						</g>
					</g>
				</g>
				<g>
					<g>
						<g>
							<path fill="#FFFFFF" d="M339.176,131.935c0,0-9.27,7.524-19.6,6.44c-5.027-0.526-10.828-5.207-10.689-12.473
								c6.979,0.348,33.439-1.781,33.439-1.781c5.69-25.869-22.211-32.865-34.078-24.625c-20.11,10.313-15.722,45.695,4.168,50.256
								c18.537,4.248,32.654-8.635,32.654-8.635C340.686,134.402,339.176,131.935,339.176,131.935z M319.887,108.091
								c5.283-0.219,8.82,3.097,9.974,6.662c0,0-15.382,0.888-17.371,0.5C311.807,112.06,315.434,108.281,319.887,108.091z"/>
						</g>
						<g>
							<path fill="none" d="M339.176,131.935c0,0-9.27,7.524-19.6,6.44c-5.027-0.526-10.828-5.207-10.689-12.473
								c6.979,0.348,33.439-1.781,33.439-1.781c5.69-25.869-22.211-32.865-34.078-24.625c-20.11,10.313-15.722,45.695,4.168,50.256
								c18.537,4.248,32.654-8.635,32.654-8.635C340.686,134.402,339.176,131.935,339.176,131.935z M319.887,108.091
								c5.283-0.219,8.82,3.097,9.974,6.662c0,0-15.382,0.888-17.371,0.5C311.807,112.06,315.434,108.281,319.887,108.091z"/>
							<path d="M338.022,131.724c-9.101,7.229-27.079,9.457-27.687-6.208c-0.674,0.392-1.348,0.785-2.021,1.177
								c11.202,0.431,22.642-0.91,33.804-1.805c0.495-0.04,1.535-0.363,1.654-0.957c2.945-14.71-5.384-26.722-20.433-28.354
								c-12.391-1.344-24.011,6.428-28.08,18.066c-4.451,12.729,0.176,30.258,13.221,35.92c11.903,5.167,28.43,0.129,37.743-8.233
								c0.256-0.229,0.394-0.463,0.194-0.768c-1.985-3.047-3.99-6.085-5.895-9.185c-0.479-0.775-3.301,0.133-2.697,1.113
								c0.854,1.392,1.742,2.764,2.624,4.139c0.293,0.457,2.828,4.85,3.428,4.311c-0.394,0.354-0.813,0.68-1.229,1.006
								c-6.196,4.855-13.954,7.641-21.803,7.876c-16.127,0.485-24.749-13.676-24.192-28.439
								c0.501-13.29,10.565-24.911,24.338-24.324c14.806,0.63,22.642,13.505,19.887,27.255c0.552-0.319,1.104-0.639,1.654-0.957
								c-10.93,0.876-22.104,2.18-33.075,1.758c-0.646-0.025-2.054,0.329-2.021,1.177c0.709,18.298,23.21,13.547,32.893,5.854
								C341.615,131.125,338.711,131.177,338.022,131.724z"/>
							<path d="M319.315,108.88c4.269,0.023,7.605,2.269,9.096,6.263c0.674-0.393,1.348-0.785,2.021-1.178
								c-3.128,0.18-6.258,0.33-9.389,0.454c-1.944,0.077-3.89,0.138-5.836,0.145c-1.458,0.005-1.403,0.352-1.294-1.001
								c0.226-2.786,3.346-4.452,5.766-4.705c1.382-0.146,2.432-1.74,0.416-1.53c-4.284,0.447-9.608,3.303-9.056,8.315
								c0.025,0.229,0.379,0.346,0.555,0.372c5.687,0.837,11.978-0.145,17.693-0.472c0.426-0.023,2.326-0.359,2.021-1.177
								c-1.768-4.739-5.93-7.036-10.85-7.063C319.418,107.297,317.358,108.869,319.315,108.88z"/>
						</g>
					</g>
				</g>
				<g>
					<path fill="#FFFFFF" d="M103.13,106.378c-4.336-4.962-10.775-9.56-16.69-11.378c-7.883-2.541-17.604-2.057-24.306,3.025
						c-7.095,5.449-9.066,10.774-8.277,19.129c0.786,7.988,6.673,14.648,14.162,16.465c9.462,1.814,26.942,5.373,18.965,15.312
						c-9.478,11.803-29.055-4.675-32.733-6.961c-2.591,3.895-4.537,7.651-6.308,12.104c17.344,11.863,52.56,21.547,54.238-12.467
						c0.451-9.088-7.329-15.254-18.763-16.967c-5.461-0.814-11.43-0.828-13.795-6.275c-1.184-2.906,0.656-8.959,3.418-10.775
						c7.094-4.356,18.394,3.632,23.256,8.111C99.714,111.462,102.077,108.589,103.13,106.378z"/>
					<g>
						<path fill="none" d="M103.13,106.378c-4.336-4.962-10.775-9.56-16.69-11.378c-7.883-2.541-17.604-2.057-24.306,3.025
							c-7.095,5.449-9.066,10.774-8.277,19.129c0.786,7.988,6.673,14.648,14.162,16.465c9.462,1.814,26.942,5.373,18.965,15.312
							c-9.478,11.803-29.055-4.675-32.733-6.961c-2.591,3.895-4.537,7.651-6.308,12.104c17.344,11.863,52.56,21.547,54.238-12.467
							c0.451-9.088-7.329-15.254-18.763-16.967c-5.461-0.814-11.43-0.828-13.795-6.275c-1.184-2.906,0.656-8.959,3.418-10.775
							c7.094-4.356,18.394,3.632,23.256,8.111C99.714,111.462,102.077,108.589,103.13,106.378z"/>
						<path d="M104.48,105.83c-9.972-10.942-24.911-16.574-39.097-10.604c-12.966,5.456-17.131,21.338-8.742,32.506
							c3.877,5.163,9.646,6.373,15.542,7.66c4.837,1.056,14.377,2.806,15.366,8.839c0.738,4.503-5.241,8-8.83,8.152
							c-3.674,0.156-7.37-1.47-10.608-3.021c-4.501-2.158-8.35-5.249-12.51-7.941c-0.704-0.456-2.218-0.176-2.69,0.553
							c-2.541,3.926-4.636,7.977-6.412,12.302c-0.038,0.135-0.007,0.251,0.094,0.349c14.018,9.434,41.691,19.458,53.217,1.086
							c3.024-4.819,4.162-11.287,3.742-16.895c-0.525-7.024-7.141-11.343-13.125-13.475c-6.349-2.26-20.146-0.556-19.666-10.439
							c0.731-15.035,18.684-3.592,24.186,1.35c0.663,0.597,2.205,0.049,2.69-0.552c2.456-3.046,5.112-6.034,6.936-9.519
							c0.385-0.734-2.437-0.462-2.888,0.398c-1.745,3.333-4.381,6.216-6.728,9.126c0.896-0.184,1.793-0.368,2.69-0.552
							c-7.304-6.562-24.118-16.432-29.238-2.384c-2.522,6.918,2.997,10.757,9.044,11.904c8.9,1.69,19.278,2.727,22.736,12.664
							c2.194,6.306-0.701,15.526-4.621,20.628c-4.003,5.209-10.605,6.51-16.808,6.291c-6.282-0.222-12.494-2.212-18.241-4.63
							c-2.64-1.11-5.188-2.432-7.67-3.855c-2.673-1.533-3.471-1.983-2.095-5.118c1.337-3.046,3.032-5.9,4.835-8.688
							c-0.896,0.185-1.793,0.368-2.69,0.553c7.836,5.072,15.729,11.772,25.649,11.351c4.665-0.199,8.645-2.843,11.01-6.787
							c2.426-4.047-0.51-7.291-3.922-9.288c-4.663-2.73-10.551-3.705-15.778-4.731c-9.343-1.834-14.389-10.141-14.713-19.123
							c-0.411-11.395,9.679-19.122,20.381-19.666c10.274-0.522,19.577,5.33,26.252,12.655
							C102.412,107.621,105.167,106.583,104.48,105.83z"/>
					</g>
				</g>
			</g>
			<g>
				<path fill="#FFFFFF" d="M147.669,164.275c-4.512,6.779-20.764,8.652-23.883-3.062c-0.686-2.842-1.074-13.594,7.908-16.842
					c7.039-2.545,13.234-0.086,16.391,4.502c2.296-2.535,5.838-8.041,9.163-11.028c-3.503-3.851-7.47-5.757-13.661-6.916
					c-22.65-4.244-33.354,12.51-33.984,24.776c-1.258,24.428,27.359,32.229,41.391,22.865c2.967-1.979,5.402-4.248,7.361-6.693
					c-3.373-2.637-7.125-5.453-10.46-7.975C147.819,164.029,147.751,164.154,147.669,164.275z"/>
				<g>
					<path fill="none" d="M147.669,164.275c-4.512,6.779-20.764,8.652-23.883-3.062c-0.686-2.842-1.074-13.594,7.908-16.842
						c7.039-2.545,13.234-0.086,16.391,4.502c2.296-2.535,5.838-8.041,9.163-11.028c-3.503-3.851-7.47-5.757-13.661-6.916
						c-22.65-4.244-33.354,12.51-33.984,24.776c-1.258,24.428,27.359,32.229,41.391,22.865c2.967-1.979,5.402-4.248,7.361-6.693
						c-3.373-2.637-7.125-5.453-10.46-7.975C147.819,164.029,147.751,164.154,147.669,164.275z"/>
					<path d="M146.318,164.24c-5.516,7.479-19.182,5.699-21.174-3.849c-0.653-3.133-0.051-6.554,1.06-9.5
						c3.371-8.942,15.419-8.125,20.537-1.448c0.593,0.773,2.233,0.004,2.695-0.534c3.061-3.564,5.577-7.543,8.976-10.82
						c0.212-0.204,0.443-0.543,0.181-0.813c-9.046-9.368-25.222-10.008-36.325-4.113c-9.949,5.281-15.043,16.941-13.953,27.829
						c1.154,11.524,10.892,19.219,21.584,21.576c11.539,2.543,22.305-1.77,29.806-10.654c0.126-0.148,0.172-0.466-0.006-0.604
						c-3.461-2.692-6.961-5.332-10.46-7.976c-0.706-0.534-2.228-0.234-2.695,0.534C146.469,163.992,146.394,164.116,146.318,164.24
						c-0.713,1.174,2.204,0.889,2.701,0.07c0.075-0.124,0.15-0.247,0.226-0.371c-0.898,0.178-1.797,0.355-2.695,0.534
						c3.066,2.316,6.134,4.632,9.179,6.979c2.24,1.727-7.082,7.592-8.464,8.233c-4.819,2.233-10.473,2.256-15.595,1.295
						c-10.656-1.999-18.886-9.998-20.457-20.766c-1.592-10.911,4.68-22.345,14.561-27.028c7.295-3.458,16.657-2.451,23.892,0.604
						c2.849,1.204,6.781,3.084,4.224,6.069c-2.492,2.909-4.66,6.073-7.154,8.979c0.898-0.178,1.797-0.355,2.695-0.533
						c-4.591-5.992-13.155-7.484-19.804-3.884c-5.833,3.16-7.993,9.221-7.529,15.615c0.963,13.291,20.55,12.912,26.923,4.272
						C149.808,163.241,146.883,163.474,146.318,164.24z"/>
				</g>
			</g>
		</g>
		<g>
			<path fill="#FFFFFF" d="M1.471,261.208c17.445,2.238,105.52,11.379,109.781,11.476l0.029-3.222
				c-9.139-1.862-94.521-16.383-108.87-19.262L1.471,261.208z"/>
			<g>
				<path fill="none" d="M1.471,261.208c17.445,2.238,105.52,11.379,109.781,11.476l0.029-3.222
					c-9.139-1.862-94.521-16.383-108.87-19.262L1.471,261.208z"/>
				<path d="M0.965,262.247c19.712,2.512,39.514,4.421,59.276,6.482c16.717,1.744,33.693,4.43,50.505,4.992
					c0.648,0.021,1.964-0.269,1.973-1.153c0.01-1.073,0.02-2.147,0.029-3.221c0.005-0.599-0.437-0.817-0.961-0.924
					c-36.121-7.281-72.73-12.06-108.87-19.262c-0.689-0.137-1.903,0.346-1.973,1.153c-0.313,3.669-0.627,7.339-0.94,11.008
					c-0.126,1.481,2.823,1.058,2.934-0.23c0.313-3.669,0.627-7.339,0.94-11.008c-0.658,0.386-1.315,0.77-1.973,1.153
					c36.14,7.202,72.75,11.979,108.87,19.262c-0.32-0.308-0.641-0.614-0.961-0.923c-0.01,1.073-0.02,2.147-0.029,3.221
					c0.658-0.385,1.315-0.769,1.973-1.152c-16.442-0.55-33.041-3.174-49.389-4.876c-20.135-2.096-40.309-4.04-60.392-6.6
					C0.572,259.992-0.99,261.998,0.965,262.247z"/>
			</g>
		</g>
		<g>
			<path fill="#FFFFFF" d="M467.125,242.312c-12.779,2.625-77.188,17.069-80.271,18.069l0.849,3.472
				c6.563-0.484,69.838-9.203,81.656-10.523L467.125,242.312z"/>
			<g>
				<path fill="none" d="M467.125,242.312c-12.779,2.625-77.188,17.069-80.271,18.069l0.849,3.472
					c6.563-0.484,69.838-9.203,81.656-10.523L467.125,242.312z"/>
				<path d="M467.359,241.643c-14.397,2.971-28.732,6.263-43.075,9.481c-12.45,2.796-25.377,4.923-37.587,8.67
					c-0.334,0.104-1.425,0.43-1.292,0.977c0.282,1.156,0.564,2.313,0.848,3.471c0.075,0.309,0.622,0.332,0.854,0.313
					c27.438-2.187,54.668-7.465,82.019-10.558c0.41-0.047,1.813-0.409,1.683-1.058c-0.743-3.672-1.487-7.345-2.231-11.019
					c-0.165-0.813-3.077-0.104-2.898,0.777c0.744,3.672,1.488,7.345,2.232,11.018c0.562-0.353,1.122-0.704,1.683-1.058
					c-15.047,1.702-30.048,3.884-45.059,5.875c-8.425,1.118-16.852,2.235-25.281,3.313c-2.687,0.343-5.374,0.681-8.063,0.994
					c-3.334,0.393-2.067,0.498-2.886-2.85c-0.431,0.325-0.86,0.65-1.292,0.976c11.509-3.531,23.686-5.543,35.416-8.183
					c14.806-3.33,29.604-6.739,44.465-9.806C468.134,242.724,469.368,241.229,467.359,241.643z"/>
			</g>
		</g>
		<g>
			<path fill="#FFFFFF" d="M3.899,182.753c27.47,17.177,123.712,72.238,128.745,74.734l1.705-2.379
				c-13.833-10.18-112.854-73.433-124.472-82.156L3.899,182.753z"/>
			<g>
				<path fill="none" d="M3.899,182.753c27.47,17.177,123.712,72.238,128.745,74.734l1.705-2.379
					c-13.833-10.18-112.854-73.433-124.472-82.156L3.899,182.753z"/>
				<path d="M2.54,183.269c23.713,14.801,48.074,28.61,72.281,42.581c18.685,10.782,37.187,22.442,56.464,32.153
					c0.686,0.347,2.214,0.07,2.682-0.583c0.568-0.793,1.137-1.586,1.705-2.379c0.096-0.133,0.222-0.313,0.037-0.447
					c-20.126-14.734-41.697-27.721-62.593-41.316c-20.629-13.421-42.136-26.117-61.879-40.84c-0.686-0.513-2.388,0.082-2.794,0.749
					c-1.993,3.267-3.986,6.534-5.979,9.801c-0.293,0.481,2.407,0.293,2.87-0.466c1.993-3.268,3.986-6.534,5.979-9.801
					c-0.932,0.25-1.863,0.499-2.794,0.749c20.043,14.947,41.883,27.83,62.826,41.456c13.251,8.622,26.506,17.238,39.715,25.927
					c4.929,3.242,9.852,6.495,14.745,9.794c1.608,1.084,3.211,2.177,4.804,3.284c2.213,1.537,2.399,1.272,0.713,3.626
					c0.894-0.194,1.788-0.39,2.682-0.583c-18.932-9.537-37.101-20.986-55.454-31.571c-24.547-14.157-49.249-28.156-73.291-43.163
					C4.51,181.771,2.02,182.944,2.54,183.269z"/>
			</g>
		</g>
		<g>
			<path fill="#FFFFFF" d="M461.014,175.582c-18.196,13.111-79.369,62.203-82.278,64.953l1.862,2.252
				c10.164-5.781,76.976-51.908,86.638-58.094L461.014,175.582z"/>
			<g>
				<path fill="none" d="M461.014,175.582c-18.196,13.111-79.369,62.203-82.278,64.953l1.862,2.252
					c10.164-5.781,76.976-51.908,86.638-58.094L461.014,175.582z"/>
				<path d="M460.061,174.951c-16.016,11.576-31.405,24.069-46.871,36.362c-11.889,9.449-24.492,18.507-35.66,28.819
					c-0.271,0.249-0.369,0.733-0.123,1.031c0.621,0.751,1.242,1.501,1.862,2.252c0.438,0.529,1.407,0.51,1.963,0.191
					c14.814-8.521,28.758-18.854,42.883-28.444c14.669-9.959,29.159-20.25,44.074-29.839c0.418-0.269,0.68-0.813,0.376-1.26
					c-2.073-3.037-4.147-6.074-6.222-9.111c-0.716-1.048-3.486,0.043-2.658,1.258c2.073,3.037,4.147,6.074,6.222,9.111
					c0.126-0.42,0.251-0.84,0.376-1.26c-14.275,9.178-28.15,19.021-42.188,28.558c-14.536,9.876-28.88,20.578-44.13,29.347
					c0.654,0.063,1.309,0.129,1.962,0.191c-0.401-0.486-0.805-0.973-1.208-1.459c-0.884-1.069-1.082,0.5-0.539,0.03
					c0.689-0.597,1.396-1.173,2.098-1.754c2.435-2.015,4.892-4.001,7.347-5.99c7.854-6.36,15.748-12.671,23.654-18.965
					c16.061-12.785,32.047-25.778,48.688-37.808C463.564,175.058,461.186,174.138,460.061,174.951z"/>
			</g>
		</g>
		<g>
			<path fill="#FFFFFF" d="M20.341,361.511c26.277-12.019,104.83-52.435,109.165-55.019l-0.909-2.772
				c-14.359,5.149-100.326,42.989-112.518,47.211L20.341,361.511z"/>
			<g>
				<path fill="none" d="M20.341,361.511c26.277-12.019,104.83-52.435,109.165-55.019l-0.909-2.772
					c-14.359,5.149-100.326,42.989-112.518,47.211L20.341,361.511z"/>
				<path d="M20.934,362.184c21.4-9.814,42.357-20.648,63.34-31.315c15.375-7.815,31.26-15.146,46.15-23.876
					c0.266-0.156,0.647-0.532,0.531-0.888c-0.303-0.924-0.606-1.85-0.909-2.773c-0.258-0.788-1.508-0.478-2.042-0.284
					c-19.176,6.942-37.809,15.7-56.544,23.729c-18.517,7.935-36.949,16.811-55.974,23.481c-0.333,0.117-1.04,0.604-0.856,1.063
					c1.42,3.526,2.841,7.053,4.262,10.58c0.444,1.103,3.309,0.243,2.897-0.777c-1.42-3.525-2.841-7.053-4.262-10.58
					c-0.285,0.354-0.57,0.708-0.856,1.063c18.666-6.546,36.751-15.246,54.918-23.031c19.085-8.178,38.065-17.108,57.6-24.18
					c-0.68-0.096-1.361-0.189-2.042-0.284c0.271,0.828,0.543,1.656,0.814,2.484c-0.098-0.301,0.945-0.77,0.037-0.266
					c-0.917,0.51-1.848,0.998-2.775,1.489c-3.27,1.729-6.554,3.435-9.837,5.138c-10.392,5.391-20.813,10.723-31.245,16.031
					c-21.329,10.855-42.636,21.874-64.394,31.852C17.922,361.676,19.582,362.803,20.934,362.184z"/>
			</g>
		</g>
	</g>
</g>
</svg>
