<?xml version="1.0" encoding="utf-8"?>
<!-- Generator: Adobe Illustrator 13.0.0, SVG Export Plug-In . SVG Version: 6.00 Build 14948)  -->
<svg version="1.2" baseProfile="tiny" id="Layer_1" xmlns="http://www.w3.org/2000/svg" xmlns:xlink="http://www.w3.org/1999/xlink"
	 x="0px" y="0px" width="461.211px" height="461.896px" viewBox="0 0 461.211 461.896" xml:space="preserve">
<path fill="#FFFFFF" stroke="#000000" d="M460.947,230.947c-41.817,25.981-47.082,50.735-18.074,89.526
	c-48.055,6.235-61.832,26.512-49.291,73.106c-46.596-12.542-66.87,1.237-73.104,49.293c-38.793-29.01-63.545-23.744-89.527,18.075
	c-25.983-41.819-50.735-47.085-89.526-18.075c-6.237-48.056-26.512-61.835-73.108-49.293c12.541-46.596-1.235-66.871-49.293-73.106
	c29.01-38.791,23.744-63.545-18.074-89.526c41.818-25.983,47.084-50.735,18.074-89.526c48.058-6.235,61.834-26.513,49.293-73.108
	c46.597,12.544,66.871-1.236,73.108-49.291c38.791,29.01,63.543,23.743,89.526-18.074c25.982,41.817,50.734,47.084,89.527,18.074
	c6.234,48.055,26.51,61.835,73.104,49.291c-12.541,46.596,1.236,66.873,49.291,73.108
	C413.865,180.212,419.129,204.964,460.947,230.947"/>
</svg>
