<?xml version="1.0" encoding="utf-8"?>
<!-- Generator: Adobe Illustrator 13.0.0, SVG Export Plug-In . SVG Version: 6.00 Build 14948)  -->
<svg version="1.2" baseProfile="tiny" id="Layer_1" xmlns="http://www.w3.org/2000/svg" xmlns:xlink="http://www.w3.org/1999/xlink"
	 x="0px" y="0px" width="471.973px" height="471.972px" viewBox="0 0 471.973 471.972" xml:space="preserve">
<g>
	<g>
		<polygon fill="#FFFFFF" stroke="#231F20" stroke-width="2" stroke-miterlimit="10" points="470.54,235.576 430.837,274.412 
			452.891,325.394 401.305,346.009 402.127,401.551 346.584,400.921 326.149,452.578 275.094,430.7 236.395,470.539 
			197.558,430.836 146.578,452.892 125.964,401.307 70.422,402.129 71.052,346.585 19.395,326.15 41.273,275.093 1.433,236.395 
			41.138,197.559 19.082,146.578 70.668,125.963 69.844,70.421 125.39,71.051 145.824,19.394 196.88,41.271 235.576,1.433 
			274.415,41.138 325.395,19.081 346.01,70.666 401.554,69.844 400.924,125.388 452.581,145.821 430.702,196.878 		"/>
		<g>
			<g>
				<path fill="#DDE45B" d="M417.702,269.617c-0.343-3.584-2.06-7.113-4.418-9.577c-1.552-1.622-3.66-2.792-5.865-3.198
					c-2.37-0.437-3.969,5.014-1.75,5.422l0,0c2.322,0.428,4.382,1.786,5.884,3.622"/>
				<g>
					<path fill="#231F20" d="M418.957,269.28c-0.488-3.912-2.213-7.49-5.041-10.246c-1.678-1.635-5.316-3.757-7.74-2.617
						c-1.688,0.792-2.957,2.554-2.822,4.499c0.066,0.937,0.389,1.626,1.312,1.938c2.341,0.789,4.054,1.615,5.72,3.514
						c0.55,0.628,2.947-0.267,2.336-0.963c-1.477-1.683-3.148-2.858-5.284-3.554c-1.222-0.398-1.621-0.548-1.55-1.875
						c0.047-0.894,0.479-1.86,1.101-2.491c0.222-0.227,2.637,1.115,2.935,1.278c1.299,0.711,2.311,1.839,3.234,2.968
						c1.898,2.327,2.922,5.279,3.289,8.223C416.545,270.747,419.07,270.186,418.957,269.28L418.957,269.28z"/>
				</g>
			</g>
			<g>
				<path fill="#DDE45B" d="M413.895,273.227c-0.521,1.396-2.145,2.086-3.738,2.266c-1.154,0.131-2.469-0.194-3.455-0.799
					c-0.533-0.327-1.75-1.276-1.538-2.057c0.5-1.839,3.181-1.74,4.597-1.395c2.268,0.552,4.502,1.966,5.841,3.895
					c0.299,0.428,0.544,0.885,0.73,1.361c0.545,1.382,0.581,2.916-0.117,4.3c-1.103,2.183-3.895,3.174-6.138,3.521
					c-2.208,0.342-3.301,5.892-0.821,5.509c3.669-0.567,7.046-2.434,9.063-5.619c2.128-3.363,2.855-7.795,1.313-11.544
					c-0.472-1.143-1.13-2.161-1.929-3.048c-1.37-1.521-3.145-2.669-5.078-3.433c-3.333-1.319-6.554-0.588-8.942,2.046
					c-2.601,2.865-3.067,7.692-0.473,10.634c2.42,2.745,6.913,2.627,9.823,0.89c1.488-0.889,2.584-2.029,3.341-3.327"/>
				<g>
					<path fill="#231F20" d="M412.66,273.46c-1.59,0.272-3.182,0.546-4.771,0.818c-1.311-0.616-1.033-1.475,0.833-2.573
						c2.851,0.516,5.053,2.704,6.354,5.129c2.394,4.464-3.078,6.318-6.339,7.607c-1.398,0.554-3.585,5.601-1.16,5.798
						c10.237,0.831,17.57-11.477,12.132-20.028c-4.397-6.917-18.794-7.064-19.403,3.001c-0.658,10.856,12.756,9.755,17.305,2.981
						c0.131-0.194-2.072-0.127-2.471,0.467c-3.678,5.479-9.751,4.444-11.961-0.331c-1.959-4.233,1.608-10.863,6.988-10.122
						c7.521,1.034,10.123,9.304,8.236,15.54c-0.344,0.946-0.783,1.845-1.32,2.695c-0.518,0.927-6.516,7.165-7.904,4.093
						c-1.119-2.478,1.531-3.921,3.332-4.457c3.271-0.971,5.391-2.99,5.443-6.495c0.057-3.654-4.977-6.769-8.168-6.965
						c-1.392-0.086-4.607-0.051-5.441,1.486c-2.484,4.576,8.569,4.393,10.787,0.888C415.267,272.778,413.04,272.86,412.66,273.46
						L412.66,273.46z"/>
				</g>
			</g>
		</g>
		<g>
			<g>
				<path fill="#FEDD0D" d="M228.971,435.877c3.036-4.262,4.512-9.777,4.268-14.731c-0.164-3.259-1.365-6.555-3.401-9.099
					c-2.188-2.735-9.136,1.73-7.087,4.291l0,0c2.145,2.682,3.114,6.137,3.017,9.584"/>
				<g>
					<path fill="#231F20" d="M230.135,435.886c3.017-4.589,4.439-9.583,4.357-15.076c-0.041-2.878-1.705-9.9-5.456-10.229
						c-2.81-0.247-5.334,1.064-7.188,3.108c-0.797,0.879-0.872,1.982-0.354,2.985c1.759,3.417,2.953,5.652,3.016,9.583
						c0.013,0.739,2.527,0.265,2.513-0.673c-0.05-3.08-0.675-5.688-2.17-8.39c-0.886-1.603-1.798-1.658-0.675-3.488
						c3.193-5.209,5.681,0.478,6.545,2.3c2.999,6.319,0.703,14.355-2.916,19.861C227.188,436.81,229.707,436.539,230.135,435.886
						L230.135,435.886z"/>
				</g>
			</g>
			<g>
				<path fill="#FEDD0D" d="M221.353,436.22c-1.905,1.037-4.346,0.248-6.271-1.071c-1.392-0.953-2.526-2.563-3.034-4.165
					c-0.275-0.868-0.708-3.072,0.269-3.728c2.3-1.544,5.15,1.117,6.377,2.843c1.967,2.769,3.078,6.45,2.711,9.845
					c-0.08,0.753-0.244,1.49-0.492,2.191c-0.719,2.036-2.138,3.758-4.223,4.613c-3.288,1.349-7.304-0.221-10.101-1.976
					c-2.751-1.727-9.235,3.333-6.146,5.271c4.572,2.869,10.061,4.034,15.311,2.455c5.54-1.668,10.561-5.845,12.434-11.435
					c0.573-1.705,0.816-3.45,0.784-5.188c-0.056-2.975-0.914-5.925-2.311-8.608c-2.407-4.621-6.642-6.884-11.775-6.265
					c-5.584,0.673-10.697,5.531-10.648,11.235c0.049,5.32,5.098,9.468,9.949,10.332c2.481,0.439,4.771,0.23,6.842-0.475"/>
				<g>
					<path fill="#231F20" d="M221.26,435.879c-3.148,0.948-5.645-1.427-7.253-3.652c-2.383-3.298,0.813-4.96,3.432-1.792
						c5.031,6.091,3.423,20.021-8.172,14.772c-3.787-1.715-6.774-1.281-9.918,1.765c-4.901,4.747,9.102,6.677,11.618,6.693
						c5.244,0.032,11.515-2.886,14.866-6.875c5.177-6.161,6.468-16.495,0.149-22.662c-3.932-3.839-10.041-4.912-15.066-2.37
						c-6.097,3.081-9.984,9.021-6.411,15.669c3.163,5.89,10.932,6.557,16.614,5.012c1.453-0.396,1.271-1.079-0.183-0.684
						c-9.985,2.715-19.159-6.824-13.347-15.975c7.165-11.28,16.076-1.976,18.757,3.884c1.946,4.251,1.646,9.03-0.05,13.268
						c-3.214,8.034-13.273,11.155-21.086,8.514c-6.146-2.079-3.423-8.315,1.683-5.408c3.093,1.763,7.188,2.319,10.51,0.836
						c4.69-2.095,5.659-6.682,5.027-11.4c-0.46-3.449-3.997-9.939-8.44-9.099c-3.912,0.741-4.066,2.994-2.496,6.525
						c1.745,3.917,6.338,4.75,9.949,3.662C222.88,436.129,222.709,435.441,221.26,435.879L221.26,435.879z"/>
				</g>
			</g>
		</g>
		<g>
			<g>
				<path fill="#77CFF5" d="M285.186,303.924c-4.104,3.246-7.061,8.131-8.207,12.956c-0.752,3.176-0.518,6.676,0.729,9.687
					c1.338,3.237,9.256,0.887,8.002-2.144l0,0c-1.311-3.174-1.278-6.762-0.224-10.045"/>
				<g>
					<path fill="#231F20" d="M284.186,303.742c-4.189,3.553-7.021,8.003-8.459,13.305c-0.794,2.929-1.238,10.497,2.672,11.488
						c2.279,0.577,5.187,0.161,7.092-1.309c0.706-0.545,1.844-1.496,1.608-2.545c-0.834-3.733-1.41-6.621-0.36-10.471
						c0.235-0.86-2.284-0.483-2.506,0.334c-0.693,2.54-0.885,4.805-0.58,7.409c0.148,1.269,1.326,2.872,0.67,4.157
						c-1.69,1.586-3.39,1.769-5.096,0.548c-0.516-0.984-0.879-2.022-1.084-3.11c-1.844-7.211,2.757-14.962,8.044-19.443
						C287.277,303.18,284.771,303.245,284.186,303.742L284.186,303.742z"/>
				</g>
			</g>
			<g>
				<path fill="#77CFF5" d="M292.598,305.719c2.119-0.465,4.241,0.974,5.722,2.777c1.07,1.304,1.712,3.166,1.753,4.848
					c0.021,0.91-0.178,3.146-1.298,3.504c-2.639,0.842-4.635-2.509-5.332-4.509c-1.118-3.206-1.156-7.053,0.143-10.211
					c0.287-0.7,0.65-1.363,1.084-1.966c1.259-1.756,3.102-3.013,5.343-3.253c3.533-0.378,6.951,2.248,9.147,4.714
					c2.161,2.425,9.8-0.625,7.374-3.348c-3.591-4.031-8.536-6.682-14.019-6.628c-5.786,0.057-11.772,2.668-15.13,7.513
					c-1.025,1.478-1.746,3.086-2.199,4.764c-0.777,2.871-0.775,5.945-0.182,8.91c1.021,5.11,4.457,8.464,9.562,9.302
					c5.55,0.912,11.813-2.328,13.357-7.82c1.438-5.123-2.253-10.514-6.673-12.697c-2.26-1.115-4.518-1.552-6.701-1.452"/>
				<g>
					<path fill="#231F20" d="M291.774,306.198c3.103-0.031,4.634,1.594,6.211,4.097c1.254,1.992,1.224,8.353-2.182,3.952
						c-3.949-5.103-2.182-20.604,8.098-15.632c2.208,1.068,3.636,4.295,6.264,4.332c1.77,0.024,3.478-0.212,5.112-0.942
						c6.672-2.978-0.979-7.56-4.656-9.358c-5.461-2.67-11.966-1.428-17.295,0.837c-13.76,5.847-13.477,31.008,4.059,29.182
						c5.299-0.553,9.865-3.558,11.773-8.583c3.186-8.391-7.151-14.141-13.786-14.396c-0.489-0.02-2.857,0.912-1.647,0.958
						c5.756,0.222,9.466,2.532,12.208,7.323c3.78,6.604-2.544,14.404-10.329,13.706c-10.271-0.922-11.215-14.02-7.91-21.229
						c4.688-10.218,22.564-11.169,28.025-1.013c-1.791,0.592-3.581,1.184-5.373,1.775c-0.78-0.88-1.633-1.681-2.563-2.402
						c-0.763-0.653-2.307-1.591-3.279-1.854c-2.146-0.578-3.711-0.583-5.85-0.1c-3.787,0.857-5.815,3.963-6.926,7.476
						c-1.137,3.603-0.18,12.219,4.746,13.079c8.219,1.437,4.545-12.243-3.055-12.168
						C292.937,305.244,290.576,306.21,291.774,306.198L291.774,306.198z"/>
				</g>
			</g>
		</g>
		<g>
			<g>
				<g>
					<g>
						<path fill="#8CD0C3" d="M139.722,357.562c-25.525,0.448-33.587,20.563-31.656,33.719c3.847,26.192,36.619,28.214,49.87,15.214
							C178.092,386.721,166.24,357.097,139.722,357.562z M151.271,392.051c-3.457,8.18-20.72,13.722-26.61,1.973
							c-1.354-2.865-4.066-14.189,5.002-19.598C143.143,366.387,157.174,378.091,151.271,392.051z"/>
					</g>
					<g>
						<path fill="#231F20" d="M140.246,356.981c-16.847,0.645-31.517,10.154-33.563,27.85
							c-1.979,17.118,11.688,29.134,27.766,30.025c15.732,0.873,29.521-8.697,33.938-23.89
							C173.844,372.189,158.172,357.106,140.246,356.981c-0.77-0.006-2.729,1.147-1.049,1.16
							c15.797,0.11,27.998,11.585,27.592,27.588c-0.434,17.03-15.877,28.804-32.035,27.907
							c-13.915-0.771-24.507-10.979-25.653-24.824c-1.472-17.79,13.356-30.03,30.097-30.671
							C139.954,358.112,141.923,356.917,140.246,356.981z"/>
						<path fill="#231F20" d="M150.026,392.249c-3.063,6.338-11.127,9.222-17.685,7.232c-5.322-1.614-7.381-6.95-7.839-11.957
							c-0.951-10.41,9.132-17.838,19.04-13.962C151.164,376.544,152.581,385.432,150.026,392.249
							c-0.229,0.605,2.225,0.31,2.488-0.396c3.681-9.817-1.482-19.489-12.161-20.602c-8.266-0.86-17.663,5.04-18.309,13.709
							c-0.635,8.545,3.61,15.833,12.732,16.375c6.715,0.397,14.746-3.292,17.737-9.482
							C152.77,391.325,150.361,391.556,150.026,392.249z"/>
					</g>
				</g>
			</g>
			<g>
				<path fill="#8CD0C3" d="M146.17,344.981c5.563-2.129,7.467-3.072,12.492-4.996c5.473,14.375,8.075,19.028,14.302,33.413
					c1.039-6.769,6.854-9.828,11.437-11.188c10.298-3.06,18.354,4.014,22.973,13.665c3.143,6.569,5.892,19.968,5.892,19.968
					s-7.434,3.152-10.664,4.388c-1.963-5.935-4.52-28.207-15.92-24.667c-11.043,3.43-2.326,23.107,1.003,30.583
					c-2.873,1.097-7.973,3.358-11.831,4.837C171.37,401.69,153.33,361.272,146.17,344.981z"/>
				<g>
					<path fill="#231F20" d="M146.594,345.232c4.182-1.623,8.313-3.37,12.493-4.995c-0.56,0.028-1.12,0.057-1.681,0.085
						c4.347,11.327,9.466,22.293,14.303,33.413c0.217,0.499,2.385-0.094,2.492-0.567c2.229-9.859,13.33-13.607,21.938-8.914
						c5.954,3.246,9.479,10.119,11.688,16.24c1.686,4.669,2.828,9.565,3.906,14.405c0.344,1.545,0.9,0.773-0.879,1.522
						c-2.881,1.213-5.767,2.42-8.68,3.557c0.559-0.028,1.119-0.057,1.68-0.085c-2.764-9.016-4.647-29.626-18.748-24.136
						c-5.948,2.316-5.417,9.495-4.428,14.616c0.803,4.155,2.392,8.177,3.996,12.075c0.311,0.757,2.139,3.603,0.936,4.098
						c-3.395,1.394-6.768,2.842-10.184,4.185c0.561-0.028,1.12-0.057,1.68-0.085c-10.425-21.738-19.977-43.936-29.682-66.002
						c-0.253-0.572-2.686,0.277-2.512,0.673c9.705,22.066,19.258,44.265,29.683,66.002c0.201,0.418,1.404,0.023,1.681-0.085
						c3.967-1.559,7.867-3.272,11.83-4.837c0.122-0.047,0.948-0.325,0.831-0.588c-1.931-4.344-3.712-8.723-5.051-13.289
						c-1.306-4.45-3.613-20.327,6.757-16.284c7.848,3.06,8.609,17.507,10.699,24.33c0.131,0.423,1.457,0.003,1.682-0.085
						c3.678-1.436,7.318-2.964,10.955-4.504c0.135-0.057,0.586-0.249,0.539-0.472c-2.51-12.071-5.717-26.479-17.437-32.867
						c-9.089-4.954-23.101,1.025-25.356,10.99c0.831-0.189,1.663-0.378,2.493-0.566c-4.837-11.12-9.955-22.086-14.303-33.413
						c-0.161-0.422-1.433-0.012-1.681,0.085c-4.181,1.625-8.311,3.372-12.492,4.996
						C144.072,345.379,145.668,345.593,146.594,345.232z"/>
				</g>
			</g>
		</g>
		<g>
			<g>
				<g>
					<path fill="#8CD0C3" d="M387.127,377.079c-0.384-2.399-1.195-10.497-2.234-10.313c-3.542,0.633-8.115,1.289-10.753,1.71
						c-0.28,2.507,1.089,10.047,1.948,10.242C376.913,378.908,384.483,378.049,387.127,377.079z"/>
					<g>
						<path fill="#231F20" d="M388.382,376.742c-0.487-3.185-0.391-7.1-1.854-10.021c-0.594-1.185-2.955-0.24-3.813-0.097
							c-2.784,0.462-5.577,0.862-8.364,1.302c-0.462,0.073-1.422,0.301-1.465,0.886c-0.176,2.273,0.267,4.621,0.715,6.84
							c0.187,0.919,0.428,3.477,1.691,3.642c1.654,0.217,3.483-0.164,5.122-0.37c2.411-0.304,4.861-0.691,7.171-1.474
							c1.687-0.571,0.106-1.086-0.914-0.741c-1.864,0.631-3.893,0.855-5.835,1.116c-0.925,0.124-3.543,0.664-3.85,0.133
							c-1.456-2.535-1.81-6.961-1.591-9.818c-0.488,0.295-0.978,0.591-1.467,0.887c1.955-0.309,3.911-0.601,5.865-0.903
							c1.106-0.172,2.212-0.352,3.316-0.535c1.06-0.176,0.932-0.31,1.261,0.712c0.935,2.907,1.043,6.111,1.501,9.116
							C385.969,378.056,388.498,377.495,388.382,376.742z"/>
					</g>
				</g>
				<g>
					<path fill="#8CD0C3" d="M384.336,361.047c0,0-3.47-39.992-5.096-49.798c0,0-11.205,1.56-15.574,2.586
						c0.59,3.593,8.917,44.266,9.836,48.507L384.336,361.047z"/>
					<g>
						<path fill="#231F20" d="M385.592,360.711c-1.441-16.576-2.475-33.36-5.095-49.799c-0.063-0.399-0.816-0.357-1.074-0.321
							c-5.321,0.746-10.663,1.501-15.915,2.655c-0.373,0.081-1.186,0.416-1.098,0.925c2.793,16.233,6.379,32.403,9.836,48.508
							c0.087,0.402,0.795,0.354,1.074,0.321c3.612-0.432,7.223-0.863,10.834-1.295c1.188-0.142,2.109-1.524,0.363-1.315
							c-2.014,0.24-4.026,0.481-6.043,0.722c-1.364,0.164-2.734,0.327-4.102,0.491c-0.709,0.084,0.391,0.438,0.129-0.801
							c-1.057-5.016-2.076-10.04-3.104-15.061c-2.196-10.729-4.62-21.449-6.477-32.243c-0.365,0.309-0.732,0.617-1.098,0.926
							c3.465-0.761,6.978-1.286,10.482-1.822c1.129-0.173,2.259-0.337,3.388-0.501c1.931-0.28,0.32-0.375,0.51,0.895
							c0.877,5.889,1.418,11.836,2.019,17.758c1.034,10.201,1.972,20.415,2.859,30.631
							C383.147,362.155,385.672,361.626,385.592,360.711z"/>
					</g>
				</g>
			</g>
			<g>
				<path fill="#8CD0C3" d="M307.965,336.1c5.244-2.776,7.012-3.937,11.75-6.444c7.145,13.557,10.283,17.846,18.172,31.322
					c0.211-6.818,5.594-10.547,9.961-12.445c9.815-4.266,18.635,1.76,24.369,10.749c3.897,6.115,8.229,19.034,8.229,19.034
					s-6.972,4.015-10.016,5.627c-2.657-5.635-7.869-27.35-18.719-22.477c-10.506,4.722,0.488,23.131,4.678,30.124
					c-2.707,1.432-7.48,4.282-11.116,6.205C339.719,389.147,317.01,351.348,307.965,336.1z"/>
				<g>
					<path fill="#231F20" d="M308.92,336.111c3.939-2.108,7.812-4.333,11.749-6.443c-0.736,0.107-1.473,0.216-2.21,0.324
						c5.665,10.678,12.049,20.906,18.172,31.321c0.305,0.519,2.453-0.098,2.512-0.673c1.11-10.939,13.509-15.637,22.766-10.424
						c5.668,3.191,9.282,9.257,11.982,14.955c1.98,4.177,3.588,8.551,5.105,12.913c0.377,1.082-7.852,4.946-9.521,5.845
						c0.736-0.107,1.473-0.216,2.211-0.324c-3.75-8.429-7.448-27.22-20.4-22.391c-6.713,2.504-5.516,10.079-3.758,15.527
						c1.383,4.287,3.628,8.321,5.853,12.217c1.198,2.098,1.751,2.767-0.698,4.139c-2.788,1.563-5.551,3.166-8.363,4.686
						c0.736-0.108,1.473-0.217,2.209-0.324c-12.931-20.24-25.051-41.044-37.307-61.695c-0.351-0.592-2.687,0.377-2.512,0.673
						c12.258,20.651,24.375,41.455,37.309,61.695c0.341,0.533,1.826-0.118,2.209-0.324c3.734-2.018,7.387-4.181,11.117-6.206
						c0.051-0.027,0.375-0.224,0.301-0.349c-2.652-4.434-5.133-8.925-7.072-13.722c-1.768-4.378-4.754-17.077,4.277-16.207
						c8.527,0.821,11.556,16.731,14.324,22.954c0.245,0.553,1.891-0.152,2.211-0.324c3.371-1.815,6.697-3.718,10.017-5.627
						c0.077-0.045,0.35-0.203,0.301-0.348c-3.626-10.715-8.686-26.224-20.683-30.219c-9.938-3.31-23.245,2.284-24.389,13.553
						c0.838-0.224,1.675-0.448,2.512-0.673c-6.122-10.415-12.507-20.644-18.173-31.321c-0.289-0.547-1.862,0.137-2.21,0.324
						c-3.938,2.11-7.812,4.335-11.75,6.444C305.955,336.652,308.486,336.344,308.92,336.111z"/>
				</g>
			</g>
			<g>
				<path fill="#8CD0C3" d="M216.908,360.964c-0.248,0.382,6.369-7.693,9.208-10.425c4.749,4.09,16.987,13.279,25.742,19.837
					c3.636-7.997,10.097-27.915,10.097-27.915c4.767,1.598,10.119,3.448,13.242,4.835c0,0-10.197,27.219-13.174,34.582
					c0,0,5.628,33.389,6.476,38.954c-2.832,0.935-8.271,1.642-14.464,2.048c-1.055-9.763-7.242-38.331-7.242-38.331
					C237.979,377.693,221.421,365.084,216.908,360.964z"/>
				<g>
					<path fill="#231F20" d="M217.751,361.571c3.433-3.206,6.091-7.294,9.422-10.633c-0.673,0.115-1.346,0.229-2.02,0.346
						c8.259,6.994,17.084,13.351,25.741,19.836c0.646,0.484,1.846,0.15,2.17-0.58c3.996-9.03,7.046-18.53,10.096-27.915
						c-0.641,0.237-1.281,0.474-1.923,0.71c3.378,1.14,6.745,2.302,10.085,3.55c1.756,0.656,2.864-0.272,2.274,1.301
						c-1.19,3.17-2.382,6.338-3.577,9.505c-1.706,4.526-3.42,9.052-5.145,13.571c-1.213,3.179-3.77,7.311-4.128,10.701
						c-0.514,4.899,1.908,11.477,2.714,16.291c1.279,7.635,2.6,15.265,3.782,22.915c0.339-0.412,0.677-0.824,1.015-1.237
						c-2.133,0.614-12.851,3.406-13.203,0.704c-0.457-3.479-1.107-6.934-1.739-10.382c-1.399-7.632-2.974-15.232-4.579-22.822
						c-1.215-5.744-6.631-8-11.173-11.509c-6.626-5.122-13.442-10.12-19.692-15.704c-0.872-0.779-3.032,0.5-1.924,1.489
						c4.916,4.394,10.234,8.363,15.438,12.408c3.227,2.509,6.465,5.004,9.701,7.503c2.025,1.563,4.279,2.459,4.816,4.969
						c2.589,12.106,5.441,24.321,6.877,36.628c0.058,0.493,0.77,0.649,1.154,0.621c4.96-0.361,10.006-0.725,14.807-2.104
						c0.563-0.163,1.114-0.594,1.015-1.236c-1.962-12.693-4.186-25.35-6.317-38.014c-0.309-1.834,1.273-4.195,1.947-5.936
						c1.519-3.927,3.012-7.865,4.506-11.803c2.182-5.757,4.352-11.52,6.513-17.284c0.175-0.47-0.042-0.85-0.489-1.038
						c-4.33-1.833-8.789-3.333-13.242-4.835c-0.613-0.206-1.691-0.002-1.923,0.711c-3.051,9.385-6.1,18.884-10.097,27.914
						c0.724-0.193,1.445-0.387,2.168-0.581c-8.657-6.485-17.482-12.842-25.742-19.836c-0.596-0.506-1.553-0.123-2.02,0.346
						c-3.186,3.191-5.719,7.158-8.991,10.216C214.826,361.517,216.793,362.465,217.751,361.571z"/>
				</g>
			</g>
			<g>
				<g>
					<g>
						<path fill="#8CD0C3" d="M296.997,392.971c0,0-2.671,9.435-10.499,12.142c-3.699,1.326-9.307,0.858-12.121-4.044
							c4.796-2.563,21.598-14.57,21.598-14.57c-5.61-18.271-26.971-11.573-32.249-2.308c-9.293,14.93,7.457,36.294,22.55,31.377
							c14.066-4.582,18.329-18.828,18.329-18.828C298.992,394.015,296.997,392.971,296.997,392.971z M274.588,384.782
							c3.438-2.261,7.123-1.465,9.32,0.453c0,0-9.907,6.747-11.391,7.287C270.784,390.663,271.691,386.689,274.588,384.782z"/>
					</g>
					<g>
						<path fill="#231F20" d="M295.751,393.164c-0.846,2.817-2.372,5.355-4.202,7.638c-2.652,3.276-6.371,4.565-11.159,3.866
							c0.581,0.148-5.546-3.185-4.604-3.71c1.325-0.738,2.599-1.592,3.873-2.414c5.882-3.798,11.601-7.866,17.298-11.934
							c0.114-0.082,0.335-0.273,0.274-0.449c-3.567-10.28-13.312-14.157-23.359-10.371c-10.773,4.058-16.385,13.699-12.88,25.086
							c3.152,10.228,14.936,19.013,25.745,15.08c8.813-3.207,16.274-10.312,19.114-19.41c0.061-0.195-0.079-0.274-0.229-0.348
							c-2.545-1.239-5.097-2.465-7.607-3.769c-0.605-0.313-2.93,0.618-2.037,1.082c1.895,0.982,7.708,2.599,6.998,4.496
							c-1.82,4.87-5.002,9.156-8.885,12.572c-15.073,13.257-34.082-3.863-31.438-20.745c2.311-14.76,23.695-19.492,30.879-6.053
							c1.342,2.511,1.648,2.473-0.466,3.973c-1.958,1.387-3.921,2.762-5.89,4.133c-4.418,3.078-8.84,6.297-13.551,8.922
							c-0.258,0.146-0.654,0.39-0.426,0.715c7.884,11.222,22.055,1.199,25.043-8.746
							C298.452,392.085,295.969,392.438,295.751,393.164z"/>
						<path fill="#231F20" d="M275.337,385.041c2.585-1.543,5.149-1.153,7.396,0.651c0.064-0.19,0.128-0.38,0.192-0.569
							c-1.571,1.07-3.153,2.128-4.74,3.179c-1.935,1.28-3.986,2.954-6.131,3.833c0.546-0.023,1.092-0.046,1.637-0.068
							c-1.863-2.339-0.219-5.645,1.879-7.172c1.086-0.791-1.443-0.605-1.965-0.225c-2.499,1.82-4.487,5.521-2.264,8.31
							c0.297,0.372,1.309,0.067,1.637-0.068c4.238-1.736,8.143-4.997,11.912-7.563c0.154-0.105,0.42-0.387,0.193-0.568
							c-3.34-2.68-7.701-2.37-11.245-0.255C272.391,385.388,274.656,385.447,275.337,385.041z"/>
					</g>
				</g>
			</g>
			<g>
				<g>
					<g>
						<path fill="#8CD0C3" d="M332.811,385.661c-6.944-4.286-1.361-14.346-1.361-14.346c-1.116-0.722-7.099-3.456-8.488-4.175
							c-0.575-0.297-2.75,5.251-3.362,5.088c-10.03-2.657-24.087,3.688-23.269,17.733c0.813,8.508,3.928,17.3,12.497,19.763
							c9.721,2.602,20.443-4.665,20.644-14.574c6.598,3.355,9.574,3.455,9.574,3.455c1.498-2.152,3.611-8.128,3.965-9.757
							C343.01,388.849,339.326,388.676,332.811,385.661z M319.897,394.802c-4.642,12.773-16.225-1.45-10.521-9.365
							C315.907,379.849,322.695,387.921,319.897,394.802z"/>
					</g>
					<g>
						<path fill="#231F20" d="M333.799,385.012c-4.502-3.411-3.53-9.203-1.169-13.629c0.147-0.279,0.092-0.555-0.192-0.717
							c-2.109-1.198-7.171-4.903-9.666-4.235c-3.085,0.826-1.751,5.043-5.398,4.524c-9.027-1.283-18.227,4.16-21.482,12.52
							c-4.073,10.464,2.951,25.072,13.906,27.349c9.998,2.077,20.119-5.936,20.935-15.809c-0.749,0.262-1.498,0.523-2.25,0.785
							c3.107,1.507,6.575,3.335,10.095,3.589c0.571,0.041,1.338-0.198,1.65-0.716c1.832-3.033,3.145-6.536,4.046-9.96
							c0.118-0.45-0.474-0.624-0.792-0.647C340.148,387.818,336.787,386.318,333.799,385.012c-0.828-0.362-3.102,0.806-1.976,1.299
							c2.353,1.028,4.697,1.945,7.169,2.661c0.893,0.258,1.812,0.422,2.729,0.563c1.333,0.205-0.071-0.17-0.183,0.249
							c-0.45,1.709-3.758,7.913-2.135,8.03c-3.106-0.224-6.234-1.997-8.943-3.313c-0.589-0.284-2.179-0.081-2.251,0.785
							c-0.781,9.433-9.217,15.654-18.628,13.698c-6.643-1.38-9.758-8.455-11.206-14.272c-1.582-6.352-0.826-12.464,3.719-17.358
							c4.708-5.072,10.854-4.703,17.037-4.342c1.645,0.096,2.392-1.538,3.047-2.742c0.37-0.726,0.754-1.443,1.152-2.153
							c-1-0.054-0.869,0.122,0.398,0.528c2.039,0.979,4.091,1.932,6.104,2.963c0.161,0.083-1.433,4.688-1.662,6.025
							c-0.626,3.633,0.823,6.534,3.652,8.678C332.555,386.864,334.846,385.805,333.799,385.012z"/>
						<path fill="#231F20" d="M318.636,394.938c-0.575,1.495-1.384,3.331-2.915,4.07c-0.963,0.466-2.162-0.292-2.919-0.829
							c-2.208-1.563-3.355-4.511-3.664-7.096c-0.45-3.779,2.224-8.303,6.499-6.143C319.193,386.737,319.882,391.559,318.636,394.938
							c-0.35,0.947,2.188,0.639,2.523-0.271c1.689-4.583-0.401-11.036-5.815-11.792c-2.645-0.368-4.962,0.675-6.989,2.298
							c-1.432,1.148-1.841,4.082-1.778,5.758c0.144,3.668,2.189,8.164,5.916,9.438c4.29,1.469,7.28-2.088,8.667-5.702
							C321.518,393.73,318.983,394.032,318.636,394.938z"/>
					</g>
				</g>
			</g>
		</g>
	</g>
	<g>
		<g>
			<path fill="#F06C76" d="M92.539,341.275c3.459,3.927,8.493,6.621,13.374,7.508c3.21,0.583,6.692,0.163,9.632-1.241
				c3.163-1.508,0.395-9.29-2.563-7.877l0,0c-3.101,1.478-6.687,1.636-10.021,0.758"/>
			<g>
				<path fill="#231F20" d="M91.371,341.758c5.621,5.96,17.357,11.456,25.174,5.966c2.289-1.606,2.06-5.151,0.44-7.241
					c-0.771-0.996-1.569-1.657-2.879-1.667c-0.437-0.004-0.867,0.146-1.283,0.256c-3.362,0.896-5.615,1.445-9.085,0.694
					c-0.758-0.164-2.958,1.009-1.552,1.313c2.702,0.586,5.129,0.662,7.854,0.197c2.967-0.507,4.544-1.029,5.5,2.424
					c1.778,6.43-9.348,4.506-12.617,3.376c-3.572-1.234-6.649-3.562-9.217-6.282C93.131,340.182,90.747,341.096,91.371,341.758
					L91.371,341.758z"/>
			</g>
		</g>
		<g>
			<path fill="#F06C76" d="M93.938,333.78c-0.577-2.092,0.746-4.287,2.47-5.861c1.245-1.139,3.07-1.879,4.746-2.009
				c0.909-0.069,3.152,0.011,3.567,1.11c0.981,2.591-2.257,4.762-4.217,5.563c-3.144,1.286-6.982,1.529-10.204,0.4
				c-0.717-0.25-1.397-0.578-2.021-0.979c-1.822-1.164-3.174-2.937-3.532-5.162c-0.566-3.509,1.876-7.062,4.223-9.386
				c2.306-2.286-1.146-9.753-3.735-7.185c-3.835,3.799-6.219,8.878-5.875,14.35c0.363,5.775,3.29,11.615,8.305,14.71
				c1.531,0.944,3.178,1.579,4.875,1.942c2.907,0.625,5.978,0.459,8.907-0.292c5.048-1.29,8.216-4.898,8.78-10.039
				c0.617-5.593-2.951-11.675-8.518-12.925c-5.193-1.165-10.381,2.808-12.324,7.336c-0.994,2.317-1.313,4.596-1.096,6.771"/>
			<g>
				<path fill="#231F20" d="M95.193,333.444c-0.244-3.884,3.016-8.301,7.737-6.656c1.542,5.082-1.657,7.165-9.597,6.248
					c-2.535-0.381-4.572-1.565-6.114-3.55c-3.801-4.359,0.808-8.841,2.985-12.262c1.77-2.785,0.029-8.604-3.93-7.854
					c-4.492,0.851-7.625,8.116-8.011,12.01c-0.853,8.578,3.261,16.633,11.409,19.855c12.037,4.763,26.977-5.708,19.867-18.719
					c-2.641-4.838-8.473-6.057-13.324-4.359c-6.113,2.138-9.41,8.022-9.184,14.306c0.012,0.36,2.535-0.023,2.512-0.673
					c-0.214-5.905,3.03-14.265,11.127-13.309c4.599,0.544,7.226,5.48,8.184,9.428c2.13,8.758-6.617,14.173-15.277,12.903
					c-4.677-0.686-8.236-4.355-10.555-8.166c-1.846-3.034-2.395-6.689-2.424-10.168c-0.008-0.999,3.187-13.313,5.833-11.803
					c3.307,1.889,1.687,6.255,0.135,8.274c-2.392,3.115-3.721,5.948-2.629,9.812c2.344,8.295,19.691,6.766,22.183-0.719
					c1.139-3.413-4.938-2.51-6.419-2.227c-3.994,0.765-7.278,4.205-7.02,8.301C92.707,334.497,95.233,334.079,95.193,333.444
					L95.193,333.444z"/>
			</g>
		</g>
	</g>
</g>
</svg>
