<?xml version="1.0" encoding="utf-8"?>
<!-- Generator: Adobe Illustrator 13.0.0, SVG Export Plug-In . SVG Version: 6.00 Build 14948)  -->
<svg version="1.2" baseProfile="tiny" id="Layer_1" xmlns="http://www.w3.org/2000/svg" xmlns:xlink="http://www.w3.org/1999/xlink"
	 x="0px" y="0px" width="471.973px" height="471.973px" viewBox="0 0 471.973 471.973" xml:space="preserve">
<g>
	<path fill="#231F20" d="M236.398,471.973l-39.075-39.945l-51.293,22.19l-20.738-51.899l-55.882,0.826l0.635-55.883l-51.976-20.559
		l22.014-51.372L0,236.398l39.946-39.072l-22.191-51.294l51.902-20.741l-0.829-55.879l55.886,0.633l20.558-51.976l51.37,22.014
		L235.574,0l39.074,39.948l51.291-22.191l20.741,51.899l55.884-0.826l-0.635,55.883l51.975,20.557l-22.013,51.37l40.08,38.936
		l-39.945,39.071l22.188,51.296l-51.902,20.739l0.827,55.882l-55.881-0.635l-20.56,51.975l-51.369-22.013L236.398,471.973z
		 M197.792,429.646l38.601,39.461l38.462-39.598l50.743,21.745l20.309-51.342l55.205,0.627l-0.816-55.204l51.27-20.487
		l-21.917-50.669l39.461-38.6l-39.596-38.465l21.745-50.742l-51.343-20.308l0.628-55.207l-55.206,0.817l-20.489-51.269
		l-50.666,21.922L235.58,2.865l-38.462,39.598l-50.743-21.745l-20.31,51.343l-55.209-0.625l0.819,55.203l-51.271,20.489
		l21.922,50.667L2.865,236.393l39.599,38.462L20.718,325.6l51.342,20.31l-0.627,55.207l55.204-0.818l20.487,51.269L197.792,429.646z
		"/>
	<path fill="#231F20" d="M274.854,429.51l-38.462,39.598l-38.601-39.461l-50.668,21.919l-20.487-51.269l-55.204,0.817l0.627-55.206
		L20.718,325.6l21.746-50.745L2.866,236.393l39.462-38.599l-21.921-50.667l51.27-20.489l-0.819-55.203l55.209,0.625l20.31-51.342
		l50.743,21.745L235.58,2.865l38.601,39.466l50.666-21.921l20.489,51.268l55.206-0.817l-0.628,55.207l51.343,20.308l-21.745,50.743
		l39.595,38.464l-39.46,38.6l21.917,50.669l-51.27,20.487l0.816,55.204l-55.205-0.627l-4.545,11.488
		c0.245,0.317,0.485,0.631,0.706,0.933l4.516-11.413l55.544,0.631l-0.822-55.543l51.586-20.613l-22.053-50.981l39.702-38.836
		l-39.838-38.699l21.879-51.057l-51.657-20.433l0.631-55.545l-55.545,0.822l-20.615-51.584L274.415,41.14L235.577,1.433
		l-38.697,39.84l-51.058-21.879L125.39,71.052l-55.547-0.629l0.824,55.541l-51.586,20.615l22.057,50.979L1.433,236.396l39.84,38.697
		l-21.879,51.059l51.658,20.435l-0.631,55.545l55.543-0.822l20.613,51.584l50.979-22.055l38.838,39.703l38.697-39.841l35.277,15.117
		c-0.158-0.43-0.313-0.86-0.476-1.291L274.854,429.51z"/>
</g>
</svg>
