<?xml version="1.0" encoding="utf-8"?>
<!-- Generator: Adobe Illustrator 13.0.0, SVG Export Plug-In . SVG Version: 6.00 Build 14948)  -->
<svg version="1.2" baseProfile="tiny" id="Layer_1" xmlns="http://www.w3.org/2000/svg" xmlns:xlink="http://www.w3.org/1999/xlink"
	 x="0px" y="0px" width="471.973px" height="471.973px" viewBox="0 0 471.973 471.973" xml:space="preserve">
<g>
	<polygon fill="#FFFFFF" points="470.539,235.577 430.837,274.413 452.89,325.396 401.304,346.009 402.126,401.552 346.583,400.921 
		326.149,452.578 275.093,430.699 236.396,470.539 197.558,430.837 146.577,452.892 125.964,401.308 70.421,402.13 71.052,346.585 
		19.394,326.151 41.272,275.093 1.433,236.396 41.138,197.56 19.081,146.579 70.667,125.964 69.843,70.423 125.39,71.052 
		145.823,19.394 196.88,41.272 235.577,1.433 274.415,41.14 325.394,19.083 346.009,70.667 401.554,69.845 400.923,125.39 
		452.58,145.821 430.701,196.878 	"/>
	<path fill="#231F20" d="M236.398,471.973l-39.075-39.945l-51.293,22.19l-20.738-51.899l-55.882,0.826l0.635-55.883l-51.976-20.559
		l22.014-51.372L0,236.398l39.946-39.072l-22.191-51.294l51.902-20.741l-0.829-55.879l55.886,0.633l20.558-51.976l51.37,22.014
		L235.574,0l39.074,39.948l51.291-22.191l20.741,51.899l55.884-0.826l-0.635,55.883l51.975,20.557l-22.013,51.37l40.08,38.936
		l-39.945,39.071l22.188,51.296l-51.902,20.739l0.827,55.882l-55.881-0.635l-20.56,51.975l-51.369-22.013L236.398,471.973z
		 M197.792,429.646l38.601,39.461l38.462-39.598l50.743,21.745l20.309-51.342l55.205,0.627l-0.816-55.204l51.27-20.487
		l-21.917-50.669l39.461-38.6l-39.596-38.465l21.745-50.742l-51.343-20.308l0.628-55.207l-55.206,0.817l-20.489-51.269
		l-50.666,21.922L235.58,2.865l-38.462,39.598l-50.743-21.745l-20.31,51.343l-55.209-0.625l0.819,55.203l-51.271,20.489
		l21.922,50.667L2.865,236.393l39.599,38.462L20.718,325.6l51.342,20.31l-0.627,55.207l55.204-0.818l20.487,51.269L197.792,429.646z
		"/>
	<path fill="#231F20" d="M274.854,429.51l-38.462,39.598l-38.601-39.461l-50.668,21.919l-20.487-51.269l-55.204,0.817l0.627-55.206
		L20.718,325.6l21.746-50.745L2.866,236.393l39.462-38.599l-21.921-50.667l51.27-20.489l-0.819-55.203l55.209,0.625l20.31-51.342
		l50.743,21.745L235.58,2.865l38.601,39.466l50.666-21.921l20.489,51.268l55.206-0.817l-0.628,55.207l51.343,20.308l-21.745,50.743
		l39.595,38.464l-39.46,38.6l21.917,50.669l-51.27,20.487l0.816,55.204l-55.205-0.627l-4.545,11.488
		c0.245,0.317,0.485,0.631,0.706,0.933l4.516-11.413l55.544,0.631l-0.822-55.543l51.586-20.613l-22.053-50.981l39.702-38.836
		l-39.838-38.699l21.879-51.057l-51.657-20.433l0.631-55.545l-55.545,0.822l-20.615-51.584L274.415,41.14L235.577,1.433
		l-38.697,39.84l-51.058-21.879L125.39,71.052l-55.547-0.629l0.824,55.541l-51.586,20.615l22.057,50.979L1.433,236.396l39.84,38.697
		l-21.879,51.059l51.658,20.435l-0.631,55.545l55.543-0.822l20.613,51.584l50.979-22.055l38.838,39.703l38.697-39.841l35.277,15.117
		c-0.158-0.43-0.313-0.86-0.476-1.291L274.854,429.51z"/>
	<path fill="#F7D2B9" d="M353.535,296.841c0.029-3.431,3.545-4.688,6.564-4.717c-1.171-2.889-2.762-4.456-4.918-3.104
		c-4.803,3.018-4.842,7.678-4.992,12.767c-0.142,4.737-0.727,9.24-2.154,13.775c-2.086,6.625-4.704,14.885-11.076,18.612
		c-0.176,0.103-1.811,0.526-1.553-0.115c4.972-12.331,4.574-26.529,2.508-39.48c-0.971-6.096-1.995-13.524-4.329-20.046
		c-1.646,1.242-3.657,1.953-5.73,2.063c-2.365,0.124-5.15-1.043-5.393-3.681c-0.348-3.793,2.998-6.494,6.52-7.132
		c-0.121-0.153-0.229-0.316-0.354-0.467c-4.487-5.434-9.31-0.991-9.566,4.933c-0.281,6.422,1.305,12.816,2.633,19.054
		c1.307,6.127,2.683,12.272,2.275,18.578c-0.529,8.267-3.141,15.788-6.127,23.451c-0.198,0.507-1.978,1.046-1.927,0.266
		c1.099-16.585-1.73-33.315-9.575-48.03c-1.104-2.071-5.359-9.848-10.332-16.355c-3.382,2.731-10.83,7.563-12.229,1.535
		c-0.655-2.833-0.454-5.87,2.005-7.745c0.866-0.66,1.967-1.119,3.094-1.329c-3.24-2.431-6.313-3.059-8.602-0.103
		c-4.287,5.541,0.848,12.935,3.877,17.813c3.852,6.2,8.067,12.378,10.659,19.245c5.377,14.251,7.604,27.18,2.818,41.802
		c-0.16,0.487-1.713,1.03-1.929,0.392c-2.909-8.627-8.889-18.395-17.145-23.407c-3.445-2.024-7.324-3.25-11.627-3.271
		c-1.456-0.008-2.965,0.14-4.498,0.416c-8.828,1.855-18.887,8.132-23.561,16.592c2.393,0.336,5.077,1.175,6.299,3.431
		c0.975,1.798,0.875,4.053-0.172,5.811c-1.867,3.144-5.459,4.264-8.513,2.91c0.068,0.816,0.187,1.617,0.369,2.34
		c0.002,0.012,0.006,0.025,0.009,0.036c0.009,0.029,0.018,0.057,0.024,0.086c1.041,3.364,3.344,3.056,5.689,1.652
		c1.086-0.725,2.125-1.516,3.123-2.36c0.676-0.59,1.297-1.172,1.829-1.664c3.267-3.021,6.315-6.41,9.873-9.096
		c1.121-0.846,2.244-1.48,3.365-1.958c2.396-1.119,5.023-1.595,8.002-0.865c6.551,1.604,10.761,9.177,13.394,15.867
		c2.512,5.729,4.028,11.95,3.309,18.092c-0.365,4.335-1.617,8.583-3.91,12.251c-2.031,3.586-4.901,6.56-8.858,7.612
		c-0.72,0.19-1.451,0.312-2.188,0.388c-0.026,0.004-0.052,0.006-0.077,0.01c-0.137,0.014-0.271,0.029-0.409,0.038
		c-2.223,0.235-4.56-0.115-6.919-1.22c-0.133-0.063-0.256-0.129-0.383-0.193c-0.015-0.007-0.029-0.014-0.043-0.021
		c-0.354-0.18-0.69-0.365-1.006-0.563c-0.113-0.069-0.221-0.147-0.332-0.222c-0.135-0.091-0.268-0.182-0.396-0.276
		c-2.15-1.547-3.787-3.765-4.416-6.601c-0.671-3.018-0.728-6.146-1.126-9.209c-0.118-0.836-0.26-1.668-0.44-2.488
		c-0.113-0.514-0.244-1.055-0.389-1.602c-0.41-1.446-0.939-3.014-1.771-4.311c-0.035-0.055-0.074-0.104-0.111-0.158
		c-0.127-0.188-0.254-0.371-0.395-0.543c-0.191-0.235-0.394-0.461-0.613-0.666c-3.16-2.952-6.354-2.593-8.872-0.773
		c4.442,0.181,7.451,4.275,6.098,8.922c-1.601,5.484-6.959,6.4-11.72,4.99c-0.061,2.146,0.095,4.321,0.438,6.487
		c0.35,2.021,0.879,4.019,1.574,5.967c4.563,12.794,12.928,22.858,24.955,29.232c6.571,3.482,13.689,6.239,21.1,7.243
		c0.587,0.079,1.168,0.13,1.75,0.192c3.747,0.326,7.254,0.092,11.072,0.086c0.353-0.001,0.691,0.203,1.004,0.479
		c0.405,0.339,0.754,0.796,1.067,1.16c6.258,7.252,9.379,16.951,12.57,26.096l12.87,5.516l14.91-37.694
		c-1.924-2.429-4.565-5.496-4.815-8.188c-0.203-2.193,1.141-3.903,2.428-5.563c5.638-7.26,10.457-14.28,12.856-23.339
		c1.729-6.531,2.333-12.969,2.031-19.722c-0.187-4.139,0.476-8.206,1.593-12.189c2.828-10.086,7.994-20.18,8.572-30.768
		c0.051-0.938-0.115-6.612-0.904-12.347C358.953,301.774,353.501,301.139,353.535,296.841z"/>
	<path fill="#F7D2B9" d="M310.267,344.883c-0.144,0.533-0.519,1.035-0.754,1.529c-0.156,0.327-0.828,0.458-1.135,0.514
		c-0.091,0.018-0.914,0.141-0.769-0.164c0.229-0.477,0.646-1.004,0.754-1.529c0.146-0.688,0.008-1.508-0.001-2.205
		c-0.007-0.528,1.929-0.811,1.933-0.518C310.304,343.251,310.464,344.152,310.267,344.883z"/>
	<g>
		<path fill="#F7D2B9" d="M326.841,348.172c-0.203,0.597-2.121,0.854-1.924,0.271c0.344-1.006,0.467-1.97,0.4-3.034
			c-0.042-0.682,1.897-1.063,1.931-0.519C327.321,346.033,327.21,347.088,326.841,348.172z"/>
	</g>
	<g>
		<path fill="#F7D2B9" d="M343.335,350.413c-0.15,0.441-0.649,0.654-1.087,0.701c-0.245,0.026-1.007-0.049-0.854-0.494
			c0.337-0.991,0.475-1.955,0.411-3.006c-0.05-0.813,1.888-1.237,1.931-0.518C343.806,348.256,343.708,349.314,343.335,350.413z"/>
	</g>
	<path fill="#231F20" d="M254.728,356.626c0.019,0.031,0.039,0.06,0.058,0.091c-0.019-0.025-0.031-0.053-0.05-0.078
		C254.733,356.634,254.73,356.631,254.728,356.626z"/>
	<path fill="#231F20" d="M258.267,373.21c-1.205-5.424-0.287-11.585-3.462-16.459C257.714,361.935,257.022,367.611,258.267,373.21z"
		/>
	<path fill="#231F20" d="M299.669,421.879c1.086,1.608,1.942,3.518,2.477,4.501c2.061,3.806,3.711,7.842,5.324,11.851
		c0.842,2.087,1.642,4.188,2.426,6.296l0.295,0.126c-2.212-6.195-4.451-12.424-7.642-18.129
		C301.589,424.807,300.733,423.165,299.669,421.879z"/>
	<path fill="#231F20" d="M248.743,401.131c10.956,11.604,29.218,19.045,45.317,18.147h-0.002c-3.881,0.101-7.793-0.092-11.613-0.834
		c-15.657-3.048-30.716-11.255-39.479-24.861c-2.979-4.628-6.004-11.392-7.287-18.216c0.091,0.592,0.188,1.173,0.298,1.73
		C237.694,385.861,242.638,394.663,248.743,401.131z"/>
	<path fill="#231F20" d="M237.942,358.012c1.041-1.579,2.392-2.989,4.105-4.171c-0.269,0.169-0.534,0.345-0.799,0.539
		C239.878,355.385,238.8,356.625,237.942,358.012z"/>
	<path fill="#231F20" d="M295.703,338.82c-2.979-8.827-8.774-18.491-17.145-23.407C286.815,320.426,292.794,330.193,295.703,338.82z
		"/>
	<path fill="#231F20" d="M287.013,417.918c3.617,0.387,7.174,0.459,10.828,0.104c0.479-0.047,0.887,0.161,1.248,0.463
		c-0.313-0.276-0.651-0.48-1.004-0.479C294.267,418.01,290.76,418.244,287.013,417.918z"/>
	<path fill="#231F20" d="M237.196,368.795c-0.01-0.003-0.02-0.006-0.03-0.01c-0.068,2.172,0.098,4.347,0.469,6.497
		C237.29,373.116,237.136,370.942,237.196,368.795z"/>
	<path fill="#231F20" d="M262.435,312.557c-9.188,1.661-19.205,8.188-23.637,16.58c0.024,0.004,0.051,0.008,0.076,0.012
		C243.548,320.688,253.606,314.412,262.435,312.557z"/>
	<path fill="#231F20" d="M281.565,375.68c-0.313,0.505-0.647,1-1.004,1.481c-2.59,3.512-6.121,5.945-10.044,6.519
		c0.737-0.076,1.47-0.196,2.188-0.388C276.663,382.238,279.534,379.266,281.565,375.68z"/>
	<path fill="#231F20" d="M247.534,341.389c-0.533,0.492-1.154,1.074-1.83,1.664c2.08-1.76,4.014-3.717,5.963-5.584
		c2.785-2.671,5.715-5.552,9.104-7.134c-1.121,0.478-2.244,1.111-3.364,1.958C253.85,334.979,250.8,338.367,247.534,341.389z"/>
	<path fill="#231F20" d="M260.952,381.233c-4.996-3.682-4.691-9.835-5.542-15.81c0.398,3.063,0.456,6.19,1.126,9.209
		C257.165,377.469,258.802,379.687,260.952,381.233z"/>
	<path fill="#231F20" d="M282.167,345.337c0.75,1.905,1.372,3.739,1.883,5.343c1.278,4.013,1.791,8.424,1.426,12.749
		C286.196,357.287,284.679,351.066,282.167,345.337z"/>
	<path fill="#231F20" d="M236.892,343.761c0.646,2.422,2.062,3.927,4.926,2.157c0.261-0.16,0.511-0.336,0.765-0.505
		C240.235,346.816,237.933,347.125,236.892,343.761z"/>
	<path fill="#231F20" d="M261.349,381.51c0.111,0.073,0.219,0.151,0.332,0.222C261.565,381.659,261.459,381.584,261.349,381.51z"/>
	<path fill="#231F20" d="M270.031,383.728c0.138-0.009,0.272-0.024,0.409-0.038C270.306,383.708,270.167,383.713,270.031,383.728z"
		/>
	<path fill="#231F20" d="M236.867,343.675c-0.004-0.011-0.008-0.024-0.01-0.036C236.86,343.651,236.864,343.662,236.867,343.675z"/>
	<path fill="#231F20" d="M262.687,382.293c0.015,0.008,0.028,0.015,0.043,0.021C262.715,382.308,262.7,382.301,262.687,382.293z"/>
	<path fill="#231F20" d="M252.304,356.322c0.141,0.173,0.268,0.356,0.396,0.543C252.571,356.68,252.444,356.494,252.304,356.322z"/>
	<path fill="#231F20" d="M252.81,357.024c0.832,1.296,1.361,2.863,1.771,4.311C254.186,359.844,253.644,358.303,252.81,357.024z"/>
	<path fill="#FFFFFF" d="M241.048,340.742c1.315-0.732,2.289-2.099,2.659-3.554c1.001-3.94-1.94-6.26-5.372-7.008
		c-0.299,0.611-0.574,1.23-0.814,1.861c-0.371,1.057-0.658,2.135-0.836,3.229c-0.137,0.846-0.283,2.395-0.276,4.083
		C237.585,340.432,239.45,341.634,241.048,340.742z"/>
	<path fill="#FFFFFF" d="M238.286,330.171c-0.285,0.616-0.543,1.239-0.767,1.872c0.24-0.631,0.517-1.25,0.814-1.861
		C238.319,330.178,238.302,330.175,238.286,330.171z"/>
	<path fill="#231F20" d="M236.435,340.462c0.015,0.279,0.031,0.559,0.055,0.837c3.054,1.354,6.646,0.231,8.513-2.91
		c1.047-1.758,1.146-4.013,0.172-5.811c-1.221-2.257-3.906-3.095-6.299-3.431c-0.092,0.166-0.189,0.331-0.277,0.499
		C250.261,331.45,243.385,345.292,236.435,340.462z"/>
	<path fill="#231F20" d="M238.874,329.148c-0.025-0.004-0.052-0.008-0.076-0.012c-0.088,0.168-0.178,0.334-0.262,0.502
		c0.021,0.004,0.041,0.006,0.061,0.009C238.685,329.479,238.782,329.314,238.874,329.148z"/>
	<path fill="#231F20" d="M238.597,329.647c-0.092,0.178-0.174,0.356-0.262,0.534c3.432,0.748,6.373,3.066,5.372,7.008
		c-0.37,1.455-1.344,2.82-2.659,3.554c-1.598,0.892-3.463-0.312-4.641-1.387c0.002,0.364,0.01,0.734,0.026,1.105
		C243.385,345.292,250.261,331.45,238.597,329.647z"/>
	<path fill="#231F20" d="M238.335,330.182c0.088-0.178,0.17-0.356,0.262-0.534c-0.02-0.003-0.04-0.005-0.061-0.009
		c-0.089,0.177-0.168,0.354-0.25,0.532C238.302,330.175,238.319,330.178,238.335,330.182z"/>
	<path fill="#FFFFFF" d="M290.079,260.646c-3.864-0.336-5.25,3.771-4.505,6.986c1.31,5.646,7.034,1.003,9.688-1.387
		C293.571,264.109,291.813,262.156,290.079,260.646z"/>
	<path fill="#231F20" d="M283.78,268.745c1.398,6.027,8.848,1.196,12.229-1.535c-0.119-0.157-0.238-0.313-0.359-0.468
		c-3.793,3.319-9.918,7.082-11.041,1.148c-1.129-5.962,2.593-7.556,4.838-7.776c-0.188-0.153-0.38-0.303-0.567-0.443
		c-1.127,0.21-2.228,0.669-3.094,1.329C283.325,262.875,283.124,265.912,283.78,268.745z"/>
	<path fill="#231F20" d="M285.574,267.633c-0.745-3.215,0.641-7.322,4.505-6.986c-0.211-0.185-0.422-0.36-0.634-0.53
		c-2.245,0.221-5.967,1.813-4.838,7.775c1.123,5.934,7.248,2.171,11.041-1.148c-0.129-0.166-0.258-0.332-0.388-0.496
		C292.609,268.636,286.884,273.279,285.574,267.633z"/>
	<g>
		<path fill="#FFFFFF" d="M324.36,271.654c-0.006,5.013,6.176,4.04,8.678,1.517c0.009-0.008,0.021-0.016,0.028-0.022
			c-0.888-2.238-1.946-4.347-3.235-6.224C327.315,267.038,324.362,268.972,324.36,271.654z"/>
	</g>
	<g>
		<path fill="#231F20" d="M334.757,273.068c0.024,0.069,0.051,0.14,0.074,0.207C334.839,273.195,334.812,273.126,334.757,273.068z"
			/>
	</g>
	<g>
		<path fill="#231F20" d="M331.285,265.676c0.117,0.173,0.234,0.346,0.347,0.523C331.735,265.969,331.667,265.754,331.285,265.676z"
			/>
	</g>
	<g>
		<path fill="#231F20" d="M323.835,274.14c-1.88-4.638,2.479-7.345,5.567-7.8c-0.138-0.189-0.279-0.374-0.422-0.558
			c-3.521,0.638-6.866,3.339-6.52,7.132c0.241,2.638,3.026,3.805,5.393,3.681c2.073-0.108,4.084-0.819,5.73-2.063
			c-0.078-0.222-0.154-0.443-0.236-0.661C330.908,275.997,326.119,277.13,323.835,274.14z"/>
	</g>
	<g>
		<path fill="#231F20" d="M323.835,274.14c2.284,2.99,7.073,1.857,9.514-0.269c-0.092-0.244-0.188-0.483-0.282-0.725
			c-0.009,0.008-0.021,0.016-0.028,0.022c-2.502,2.523-8.684,3.496-8.678-1.517c0.002-2.683,2.955-4.615,5.471-4.729
			c-0.138-0.199-0.284-0.39-0.428-0.584C326.313,266.795,321.955,269.502,323.835,274.14z"/>
	</g>
	<g>
		<path fill="#FFFFFF" d="M355.505,296.863c0.49,3.061,3.93,3.529,6.58,3.326c-0.371-2.404-0.859-4.756-1.492-6.713
			C358.351,293.281,355.031,293.923,355.505,296.863z"/>
	</g>
	<g>
		<path fill="#231F20" d="M360.343,292.756c-0.079-0.217-0.16-0.428-0.242-0.632c-3.021,0.028-6.535,1.286-6.564,4.717
			c-0.034,4.298,5.418,4.934,8.732,4.604c-0.027-0.205-0.059-0.411-0.09-0.617C352.187,301.911,352.388,292.203,360.343,292.756z"/>
	</g>
	<g>
		<path fill="#231F20" d="M362.179,300.828c-0.029-0.214-0.062-0.427-0.094-0.64c-2.65,0.203-6.09-0.267-6.58-3.326
			c-0.474-2.939,2.846-3.582,5.088-3.387c-0.081-0.249-0.165-0.484-0.25-0.721C352.388,292.203,352.187,301.911,362.179,300.828z"/>
	</g>
	<path fill="#FFFFFF" d="M240.499,357.189c-0.96,1.271-1.701,2.734-2.138,4.184c-0.28,0.931-0.502,1.878-0.68,2.835L240.499,357.189
		z"/>
	<path fill="#FFFFFF" d="M238.362,361.372c-0.286,0.95-0.514,1.911-0.694,2.875l0.016-0.04
		C237.86,363.25,238.081,362.303,238.362,361.372z"/>
	<path fill="#FFFFFF" d="M244.685,367.435c1.486-1.085,2.363-2.855,2.521-4.678c0.307-3.52-1.686-6.663-5.193-6.653l-3.531,11.636
		C240.53,368.42,242.896,368.74,244.685,367.435z"/>
	<path fill="#FFFFFF" d="M237.28,367.29c0.384,0.156,0.785,0.311,1.201,0.448l3.531-11.636c-0.205,0.001-0.414,0.015-0.629,0.037
		c-0.313,0.329-0.607,0.682-0.885,1.049l-2.816,7.019C237.493,365.224,237.36,366.252,237.28,367.29z"/>
	<path fill="#FFFFFF" d="M237.28,367.29c0.08-1.038,0.214-2.066,0.402-3.083l-0.016,0.04c-0.191,1.007-0.328,2.019-0.412,3.031
		C237.264,367.283,237.271,367.287,237.28,367.29z"/>
	<path fill="#231F20" d="M242.183,355.451l0.029-0.006l-0.002,0.006c9.015-0.424,8.026,16.514-3.937,12.973l-0.004,0.013
		l-0.207-0.077c-0.271-0.085-0.549-0.179-0.833-0.284c-0.013,0.239-0.025,0.479-0.034,0.721c4.761,1.41,10.119,0.494,11.72-4.99
		c1.354-4.646-1.654-8.741-6.098-8.922c-0.244,0.177-0.484,0.365-0.717,0.568C242.13,355.45,242.155,355.452,242.183,355.451z"/>
	<path fill="#231F20" d="M237.23,368.074c-0.009-0.005-0.019-0.009-0.027-0.013c-0.014,0.241-0.029,0.482-0.037,0.724
		c0.012,0.004,0.021,0.007,0.03,0.01C237.204,368.555,237.218,368.314,237.23,368.074z"/>
	<path fill="#231F20" d="M242.212,355.446l-0.029,0.006c0.01-0.001,0.019,0,0.027,0L242.212,355.446z"/>
	<path fill="#231F20" d="M238.271,368.437l0.004-0.013c-0.069-0.021-0.141-0.042-0.211-0.064L238.271,368.437z"/>
	<path fill="#231F20" d="M237.231,368.05c0,0.008,0,0.016-0.001,0.023c0.284,0.106,0.562,0.2,0.833,0.285L237.231,368.05z"/>
	<path fill="#231F20" d="M242.21,355.451l-0.197,0.651c3.509-0.01,5.5,3.135,5.193,6.653c-0.158,1.821-1.035,3.593-2.521,4.678
		c-1.789,1.306-4.154,0.985-6.203,0.305l-0.207,0.686C250.237,371.965,251.225,355.028,242.21,355.451z"/>
	<path fill="#231F20" d="M242.183,355.451c-0.027,0.001-0.053-0.001-0.081,0c-0.005,0.005-0.009,0.009-0.013,0.014L242.183,355.451z
		"/>
	<path fill="#231F20" d="M237.231,368.05l-0.026-0.011c0,0.008-0.001,0.016-0.002,0.022c0.01,0.004,0.02,0.008,0.027,0.013
		C237.231,368.065,237.231,368.058,237.231,368.05z"/>
	<path fill="#231F20" d="M238.274,368.424l0.207-0.686c-0.416-0.139-0.817-0.292-1.201-0.448c-0.02,0.253-0.034,0.506-0.049,0.76
		l0.832,0.31C238.134,368.382,238.204,368.402,238.274,368.424z"/>
	<path fill="#231F20" d="M242.183,355.451l-0.094,0.014c-0.243,0.213-0.479,0.438-0.705,0.676c0.215-0.022,0.424-0.036,0.629-0.037
		l0.197-0.651C242.2,355.451,242.192,355.45,242.183,355.451z"/>
	<path fill="#231F20" d="M237.255,367.279c-0.021,0.255-0.037,0.508-0.051,0.761l0.026,0.011c0.015-0.254,0.029-0.507,0.049-0.76
		C237.271,367.287,237.264,367.283,237.255,367.279z"/>
	<path fill="#231F20" d="M243.579,352.889c-0.543,0.297-1.047,0.618-1.531,0.952c4.59-2.906,9.416-2.102,12.68,2.785
		C252.505,352.803,247.685,350.65,243.579,352.889z"/>
	<path fill="#231F20" d="M254.784,356.717c0.008,0.012,0.014,0.023,0.021,0.034c-0.001-0.002-0.003-0.004-0.003-0.005
		C254.796,356.736,254.79,356.727,254.784,356.717z"/>
	<path fill="#231F20" d="M235.679,375.367c-0.856-5.571-0.773-12.433,2.264-17.355C234.8,362.785,234.499,369.1,235.679,375.367z"/>
	<path fill="#231F20" d="M299.669,421.879c-1.06-1.568-2.334-2.854-3.738-2.717c-0.617,0.061-1.245,0.082-1.869,0.116
		C296.675,419.213,298.336,420.268,299.669,421.879z"/>
	<path fill="#231F20" d="M252.698,356.865c0.037,0.055,0.076,0.104,0.111,0.159C252.774,356.969,252.734,356.919,252.698,356.865z"
		/>
	<path fill="#231F20" d="M287.013,417.918c-0.582-0.063-1.163-0.113-1.75-0.192C285.854,417.806,286.437,417.867,287.013,417.918z"
		/>
	<path fill="#231F20" d="M251.69,355.656c0.221,0.205,0.422,0.432,0.613,0.666C252.112,356.086,251.91,355.861,251.69,355.656z"/>
	<path fill="#231F20" d="M261.681,381.731c0.314,0.196,0.652,0.382,1.006,0.563C262.341,382.121,262.007,381.933,261.681,381.731z"
		/>
	<path fill="#231F20" d="M236.892,343.761c-0.008-0.029-0.017-0.057-0.023-0.086C236.876,343.703,236.884,343.733,236.892,343.761z"
		/>
	<path fill="#231F20" d="M260.952,381.233c0.129,0.096,0.262,0.187,0.396,0.276C261.215,381.421,261.084,381.327,260.952,381.233z"
		/>
	<path fill="#231F20" d="M285.282,364.832c-0.601,3.427-1.773,7.418-3.718,10.848c2.293-3.668,3.545-7.916,3.91-12.251
		C285.421,363.896,285.364,364.365,285.282,364.832z"/>
	<path fill="#231F20" d="M278.56,315.412c-4.512-2.74-9.705-4.065-15.455-2.996c-0.223,0.042-0.445,0.094-0.67,0.141
		c1.533-0.277,3.042-0.424,4.498-0.416C271.235,312.162,275.114,313.388,278.56,315.412z"/>
	<path fill="#231F20" d="M245.704,343.053c-0.998,0.846-2.037,1.637-3.123,2.36C243.653,344.772,244.731,343.905,245.704,343.053z"
		/>
	<path fill="#231F20" d="M255.41,365.424c-0.151-1.17-0.352-2.332-0.657-3.473c-0.055-0.201-0.113-0.41-0.172-0.617
		c0.145,0.547,0.274,1.088,0.389,1.602C255.151,363.756,255.292,364.588,255.41,365.424z"/>
	<path fill="#231F20" d="M236.392,341.248c0.08,0.623,0.183,1.249,0.329,1.881c0.042,0.181,0.089,0.347,0.138,0.51
		c-0.184-0.723-0.301-1.522-0.369-2.34C236.456,341.284,236.425,341.264,236.392,341.248z"/>
	<path fill="#231F20" d="M270.44,383.689c0.025-0.004,0.052-0.006,0.077-0.01C270.491,383.682,270.466,383.687,270.44,383.689z"/>
	<path fill="#231F20" d="M268.774,329.47c-2.979-0.729-5.604-0.254-8.002,0.865c6.703-2.86,13.215,0.593,17.375,7.373
		c1.469,2.396,2.851,4.96,4.021,7.629C279.535,338.646,275.325,331.072,268.774,329.47z"/>
	<path fill="#231F20" d="M270.031,383.728c-2.527,0.173-5.087-0.315-7.302-1.413c0.127,0.064,0.25,0.131,0.383,0.193
		C265.472,383.611,267.809,383.963,270.031,383.728z"/>
	<path fill="#231F20" d="M239.208,381.249c-0.695-1.948-1.226-3.946-1.574-5.968c1.434,9.039,6.141,17.946,12.049,24.204
		c9.117,9.658,22.409,16.455,35.58,18.239c-7.409-1.004-14.527-3.761-21.1-7.243C252.136,404.108,243.772,394.043,239.208,381.249z"
		/>
	<path fill="#231F20" d="M299.089,418.484c0.45,0.401,0.844,0.959,1.118,1.31c2.51,3.164,4.375,6.813,6.031,10.479
		c2.271,5.023,4.246,10.159,6.152,15.322l0.336,0.145c-3.191-9.145-6.313-18.844-12.57-26.096
		C299.843,419.279,299.494,418.822,299.089,418.484z"/>
	<g>
		<path fill="#231F20" d="M334.093,274.125c3.621,10.295,5.619,24.271,5.951,30.263c0.506,9.113-0.009,20.298-3.337,28.688
			c0.451-0.321,0.873-0.681,1.281-1.056c4.746-13.261,3.642-28.255,1.191-41.891c-1.023-5.709-2.385-11.392-4.35-16.855
			c-0.009,0.104-0.064,0.224-0.203,0.361C334.455,273.809,334.274,273.968,334.093,274.125z"/>
	</g>
	<path fill="#231F20" d="M296.669,338.562c0.008-0.021,0.014-0.044,0.021-0.066c-0.014,0.003-0.026,0.006-0.043,0.009
		C296.655,338.523,296.663,338.542,296.669,338.562z"/>
	<g>
		<path fill="#231F20" d="M336.673,333.745c-0.074-0.007-0.148-0.012-0.226-0.018c-0.024,0.064-0.051,0.134-0.078,0.198
			C336.474,333.875,336.571,333.802,336.673,333.745z"/>
	</g>
	<g>
		<path fill="#231F20" d="M338.276,402.133c2.031-3.803,5.443-6.869,7.826-10.465c5.504-8.297,8.242-18.41,8.906-28.25
			c0.373-5.528-0.327-10.813,0.817-16.308c1.246-5.976,3.534-11.74,5.472-17.514c3.563-10.631,4.763-20.545,2.711-31.648
			c-0.732-3.967-2.83-11.581-8.386-10.094c-7.096,1.902-7.221,9.521-7.397,15.473c-0.154,5.195-1.283,10.031-2.903,14.945
			c-1.535,4.654-3.56,10.272-7.333,13.748c-0.141,0.392-0.282,0.779-0.432,1.167c5.074-3.677,8.387-13.46,10.186-19.752
			c3.42-11.961-1.41-19.994,6.853-24.664c2.576-1.457,4.878-0.23,6.586,3.393c0.23,0.021,0.457,0.049,0.674,0.084
			c1.016,0.167,0.545,0.948-0.127,1.213c0.674,1.778,1.231,3.992,1.647,6.622c0.603,0.06,0.548,0.593,0.146,0.964
			c0.4,2.844,0.643,6.134,0.701,9.847c0.229,14.563-11.229,32.394-10.25,45.599c1.34,18.086-6.545,33.184-11.377,38.709
			c-7.447,9.777-7.901,8.139-1.628,17.194l0.393-0.993C339.239,408.656,336.535,405.387,338.276,402.133z"/>
	</g>
	<g>
		<path fill="#231F20" d="M336.448,333.729c0.076,0.006,0.15,0.011,0.226,0.018c0.3-0.168,0.596-0.349,0.885-0.558
			c0.148-0.388,0.291-0.775,0.432-1.167c-0.408,0.375-0.83,0.733-1.28,1.056C336.621,333.294,336.538,333.515,336.448,333.729z"/>
	</g>
	<path fill="#231F20" d="M294.386,298.313c-6.207-17.242-22.053-30.584-15.002-38.742c2.944-3.405,6.612-2.8,10.421-0.009
		c0.37-0.022,0.738-0.024,1.095,0.01c0.88,0.088,0.556,0.581,0.027,0.87c1.705,1.427,3.428,3.251,5.115,5.313
		c0.696-0.176,1.707-0.068,1.066,0.517c-0.109,0.103-0.242,0.217-0.382,0.337c5.867,7.433,11.219,17.504,13.848,23.335
		c3.291,7.297,7.199,22.371,6.47,38.714c0.34-0.901,0.676-1.809,1-2.719c0.213-16.125-3.472-31.544-11.337-45.771
		c-3.354-6.069-7.157-11.991-11.817-17.146c-2.986-3.305-7.045-6.826-11.807-6.173c-3.461,0.476-6.486,4.02-6.435,7.486
		c0.116,7.484,6.351,14.708,10.064,20.8c9.379,15.381,14.448,32.969,9.903,50.434c0.191,0.478,0.378,0.956,0.556,1.439
		C300.841,325.424,301.079,316.902,294.386,298.313z"/>
	<path fill="#231F20" d="M297.698,418.513c-20.526,2.385-42.647-9.84-51.184-21.404c-5.893-7.982-10.764-18.706-10.356-28.662
		c-0.214-0.079-0.427-0.156-0.636-0.244c-0.608-0.261,0.054-0.78,0.729-0.98c0.169-1.948,0.521-3.865,1.146-5.716
		c0.461-1.368,1.109-2.693,1.896-3.891c0.336-0.596,0.699-1.113,1.092-1.515c-0.367-0.27,0.137-1.02,0.877-1.138
		c0.091-0.014,0.178-0.016,0.268-0.025c3.121-2.893,7.269-3.729,11.062,0.354c8.029,9.379-1.299,24.817,15.055,27.854
		c12.252,2.275,19.779-17.522,16.14-29.946c-3.326-11.345-11.201-28.255-22.988-22.451c-7.428,3.295-24.394,28.187-25.351,9.965
		c-0.323-0.217-0.641-0.454-0.94-0.735c-0.248-0.229,0.324-0.587,0.902-0.74c-0.002-0.477,0-0.969,0.016-1.494
		c0.162-2.673,0.949-5.254,2.187-7.691c-0.118-0.019-0.236-0.04-0.355-0.054c-0.839-0.103,0.174-0.679,0.844-0.854
		c6.023-10.706,20.773-18.325,30.168-17.449c13.24,1.238,22.984,11.458,27.914,25.475c0.156-0.531,0.301-1.063,0.439-1.596
		c-6.906-17.229-22.621-29.525-41.515-21.622c-8.244,3.448-15.826,9.882-19.35,18.197c-1.569,3.701-3.387,15.326,2.984,15.685
		c5.149,0.288,10.545-6.346,13.774-9.448c2.496-2.396,4.963-4.98,7.887-6.862c6.685-4.303,12.536,1.773,15.945,6.923
		c6.144,9.278,9.053,20.657,5.896,31.452c-1.637,5.595-5.653,12.513-12.157,12.921c-6.145,0.387-10.586-4.062-11.818-9.604
		c-1.244-5.599-0.553-11.275-3.462-16.459c-0.007-0.011-0.013-0.022-0.021-0.034c-0.019-0.031-0.039-0.06-0.058-0.091
		c-3.264-4.886-8.09-5.691-12.68-2.785c-1.715,1.182-3.064,2.592-4.105,4.171c-3.037,4.924-3.119,11.784-2.264,17.355
		c1.283,6.824,4.308,13.588,7.287,18.216c8.765,13.606,23.822,21.813,39.479,24.862c3.82,0.741,7.732,0.934,11.613,0.834h0.002
		c0.624-0.035,1.252-0.058,1.869-0.117c1.404-0.138,2.68,1.147,3.738,2.717c1.063,1.287,1.92,2.928,2.88,4.645
		c3.189,5.705,5.43,11.935,7.642,18.129l0.971,0.416C307.063,434.053,302.218,422.26,297.698,418.513z"/>
	<path fill="#231F20" d="M323.074,304.571c-0.102-12.354-10.084-35.905-1.637-41.606c3.304-2.229,6.176-0.783,8.609,2.689
		c0.35-0.021,0.696-0.027,1.039-0.006c0.073,0.006,0.139,0.017,0.198,0.027c-1.117-1.646-2.494-3.054-4.246-3.875
		c-2.579-1.211-5.682,0.217-7.524,2.05c-3.791,3.769-2.439,11.198-1.744,15.817c1.118,7.426,3.283,14.658,4.152,22.126
		c0.971,8.337-1.107,16.382-3.879,24.146c-0.013,0.896-0.031,1.793-0.066,2.692C321.308,319.934,323.149,313.752,323.074,304.571z"
		/>
	<g>
		<path fill="#231F20" d="M330.959,266.802l0.56,1.284c0.758,1.433,1.468,3.055,2.127,4.807c0.432-0.083,0.924-0.021,1.111,0.176
			c-0.119-0.329-0.232-0.659-0.357-0.986c-0.714-1.891-1.588-4.01-2.768-5.882C331.53,266.424,331.265,266.66,330.959,266.802z"/>
	</g>
	<path fill="#231F20" d="M296.69,338.494c0.168-0.502,0.327-0.996,0.482-1.486c-0.178-0.483-0.363-0.963-0.555-1.439
		c-0.14,0.532-0.283,1.064-0.439,1.597c0.156,0.444,0.322,0.885,0.469,1.339C296.663,338.5,296.677,338.497,296.69,338.494z"/>
	<path fill="#231F20" d="M316.88,331.464c0.384-0.979,0.746-1.915,1.098-2.832c0.035-0.899,0.055-1.796,0.066-2.692
		c-0.324,0.91-0.66,1.816-1,2.72C317.003,329.591,316.951,330.525,316.88,331.464z"/>
	<path fill="#231F20" d="M239.294,357.614c-0.785,1.197-1.435,2.522-1.896,3.892c-0.625,1.851-0.979,3.768-1.146,5.716
		c0.038-0.011,0.075-0.021,0.111-0.029C236.638,365.606,237.595,360.628,239.294,357.614z"/>
	<path fill="#231F20" d="M306.239,430.273c-1.655-3.668-3.521-7.315-6.03-10.479c-0.275-0.351-0.669-0.907-1.119-1.31
		c-0.361-0.302-0.771-0.51-1.248-0.463c-3.654,0.355-7.211,0.283-10.828-0.104c-0.576-0.051-1.159-0.112-1.75-0.192
		c-13.171-1.784-26.463-8.581-35.58-18.239c-5.908-6.258-10.615-15.165-12.049-24.204c-0.371-2.149-0.537-4.324-0.469-6.496
		c-0.34-0.103-0.676-0.216-1.008-0.34c-0.406,9.956,4.465,20.68,10.356,28.662c8.535,11.564,30.656,23.789,51.185,21.404
		c4.52,3.747,9.364,15.54,13.462,26.556l1.23,0.527C310.485,440.433,308.511,435.297,306.239,430.273z"/>
	<g>
		<path fill="#231F20" d="M336.448,333.729c0.091-0.214,0.174-0.435,0.261-0.651c-0.3,0.214-0.607,0.416-0.929,0.603
			C336.003,333.695,336.226,333.712,336.448,333.729z"/>
	</g>
	<path fill="#231F20" d="M317.978,328.632c-0.352,0.917-0.714,1.853-1.098,2.832c0.319-0.044,0.642-0.089,0.963-0.133
		C317.902,330.429,317.941,329.53,317.978,328.632z"/>
	<path fill="#231F20" d="M306.341,283.566c7.845,14.715,10.674,31.445,9.576,48.03c0.381-0.975,0.756-1.954,1.127-2.938
		c0.729-16.344-3.179-31.417-6.47-38.715c-2.629-5.831-7.979-15.902-13.848-23.335c-0.211,0.185-0.451,0.386-0.719,0.602
		C300.981,273.719,305.237,281.494,306.341,283.566z"/>
	<g>
		<path fill="#231F20" d="M362.824,300.113c0.07-0.009,0.146-0.017,0.215-0.025c0.136-0.021,0.238-0.013,0.337-0.004
			c-0.416-2.63-0.976-4.843-1.648-6.622c-0.037,0.015-0.074,0.024-0.113,0.036L362.824,300.113z"/>
	</g>
	<path fill="#231F20" d="M316.88,331.464c0.071-0.938,0.123-1.873,0.164-2.806c-0.371,0.983-0.746,1.964-1.127,2.938
		C316.238,331.553,316.56,331.508,316.88,331.464z"/>
	<path fill="#231F20" d="M238.476,329.09c0.105,0.014,0.215,0.033,0.322,0.047c4.432-8.393,14.448-14.919,23.637-16.58
		c0.225-0.047,0.447-0.099,0.67-0.141c5.75-1.069,10.943,0.256,15.455,2.996c8.369,4.916,14.166,14.58,17.145,23.407
		c0.216,0.64,1.769,0.097,1.929-0.392c4.787-14.622,2.559-27.551-2.818-41.802c-2.592-6.867-6.809-13.045-10.659-19.245
		c-3.029-4.879-8.163-12.271-3.877-17.813c2.288-2.956,5.36-2.329,8.602,0.103c0.309-0.059,0.618-0.09,0.927-0.108
		c-3.809-2.791-7.477-3.396-10.421,0.009c-7.051,8.158,8.795,21.5,15.002,38.742c6.693,18.589,6.455,27.11,2.787,38.694
		c0.156,0.43,0.313,0.859,0.461,1.295c-0.314,0.064-0.627,0.128-0.943,0.191c-0.008,0.022-0.014,0.045-0.021,0.066
		c-0.006-0.02-0.014-0.038-0.021-0.059c-0.313,0.063-0.627,0.128-0.94,0.19c0.166-0.51,0.322-1.021,0.473-1.529
		c-4.93-14.017-14.674-24.235-27.914-25.475c-9.395-0.876-24.145,6.743-30.168,17.449C238.249,329.1,238.384,329.079,238.476,329.09
		z"/>
	<path fill="#231F20" d="M317.843,331.331c-0.321,0.044-0.644,0.089-0.963,0.133c-0.32,0.044-0.643,0.089-0.964,0.133
		C315.865,332.377,317.645,331.838,317.843,331.331z"/>
	<path fill="#231F20" d="M297.634,338.303c-0.146-0.436-0.305-0.865-0.461-1.295c-0.155,0.49-0.314,0.984-0.482,1.486
		C297.007,338.431,297.319,338.367,297.634,338.303z"/>
	<path fill="#231F20" d="M295.995,265.769c0.016-0.005,0.03-0.009,0.047-0.013c-1.688-2.063-3.41-3.888-5.115-5.313
		c-0.02,0.011-0.037,0.021-0.057,0.029L295.995,265.769z"/>
	<g>
		<path fill="#231F20" d="M336.673,333.745c-0.103,0.057-0.199,0.13-0.304,0.182c0.027-0.064,0.054-0.134,0.078-0.198
			c-0.223-0.017-0.444-0.033-0.668-0.05c0.32-0.187,0.629-0.389,0.929-0.603c3.327-8.392,3.842-19.575,3.336-28.688
			c-0.332-5.992-2.33-19.968-5.951-30.263c-0.164,0.143-0.334,0.275-0.508,0.407c2.334,6.521,3.358,13.95,4.329,20.046
			c2.066,12.951,2.464,27.149-2.508,39.48c-0.258,0.643,1.377,0.218,1.553,0.115c6.372-3.729,8.99-11.987,11.076-18.612
			c1.429-4.535,2.014-9.038,2.154-13.775c0.15-5.089,0.189-9.749,4.992-12.767c2.156-1.353,3.747,0.216,4.918,3.104
			c0.369-0.003,0.731,0.009,1.08,0.04c-1.708-3.623-4.01-4.85-6.586-3.393c-8.263,4.67-3.433,12.703-6.853,24.664
			c-1.799,6.292-5.11,16.075-10.186,19.752c-0.078,0.201-0.146,0.405-0.226,0.605C337.112,333.777,336.894,333.762,336.673,333.745z
			"/>
	</g>
	<g>
		<path fill="#231F20" d="M333.646,272.893c-0.659-1.752-1.369-3.374-2.127-4.807l2.094,4.813
			C333.623,272.896,333.634,272.895,333.646,272.893z"/>
	</g>
	<path fill="#231F20" d="M242.818,354.883c2.518-1.818,5.712-2.179,8.872,0.772c0.221,0.205,0.422,0.431,0.613,0.666
		c0.141,0.173,0.268,0.357,0.395,0.543c0.036,0.055,0.076,0.104,0.111,0.159c0.834,1.278,1.376,2.819,1.771,4.311
		c0.059,0.207,0.116,0.416,0.172,0.617c0.307,1.141,0.506,2.303,0.657,3.473c0.851,5.975,0.546,12.128,5.542,15.81
		c0.132,0.095,0.263,0.188,0.396,0.276c0.11,0.074,0.217,0.149,0.332,0.222c0.326,0.201,0.66,0.391,1.006,0.563
		c0.015,0.008,0.028,0.015,0.043,0.021c2.215,1.098,4.773,1.586,7.302,1.413c0.137-0.015,0.274-0.02,0.409-0.038
		c0.025-0.003,0.051-0.008,0.077-0.01c3.923-0.572,7.454-3.007,10.044-6.519c0.355-0.481,0.689-0.978,1.004-1.481
		c1.943-3.43,3.117-7.421,3.717-10.848c0.082-0.468,0.14-0.937,0.193-1.403c0.365-4.325-0.146-8.736-1.426-12.749
		c-0.511-1.604-1.133-3.438-1.883-5.343c-1.17-2.669-2.552-5.232-4.021-7.629c-4.16-6.78-10.672-10.233-17.375-7.373
		c-3.391,1.582-6.319,4.463-9.104,7.134c-1.949,1.867-3.883,3.824-5.963,5.584c-0.974,0.853-2.052,1.72-3.123,2.36
		c-0.254,0.169-0.504,0.345-0.765,0.505c-2.864,1.77-4.278,0.265-4.926-2.157c-0.008-0.027-0.016-0.058-0.023-0.086
		c-0.004-0.013-0.008-0.023-0.01-0.036c-0.049-0.163-0.096-0.329-0.138-0.51c-0.147-0.632-0.249-1.258-0.329-1.881
		c-0.324-0.149-0.637-0.332-0.945-0.538c0.957,18.222,17.923-6.67,25.351-9.965c11.787-5.804,19.662,11.106,22.988,22.45
		c3.641,12.425-3.888,32.224-16.14,29.947c-16.354-3.035-7.024-18.475-15.055-27.854c-3.793-4.081-7.939-3.245-11.062-0.354
		C241.972,354.882,242.399,354.865,242.818,354.883z"/>
	<g>
		<path fill="#231F20" d="M342.597,395.2c4.832-5.525,12.717-20.623,11.377-38.709c-0.979-13.205,10.479-31.035,10.25-45.599
			c-0.06-3.713-0.301-7.003-0.701-9.847c-0.176,0.162-0.408,0.293-0.686,0.333c-0.181,0.024-0.371,0.048-0.568,0.065
			c0.789,5.734,0.955,11.409,0.904,12.348c-0.578,10.588-5.744,20.682-8.572,30.768c-1.117,3.983-1.778,8.051-1.593,12.189
			c0.302,6.753-0.303,13.189-2.031,19.722c-2.399,9.059-7.22,16.079-12.856,23.339c-1.286,1.659-2.631,3.369-2.428,5.563
			c0.25,2.69,2.894,5.759,4.815,8.188l0.461-1.165C334.695,403.339,335.149,404.979,342.597,395.2z"/>
	</g>
	<path fill="#231F20" d="M237.735,330.066c-0.041-0.006-0.084-0.012-0.126-0.019c-1.236,2.438-2.023,5.02-2.187,7.69
		c-0.017,0.526-0.019,1.02-0.017,1.495c0.035-0.01,0.068-0.016,0.103-0.022L237.735,330.066z"/>
	<path fill="#231F20" d="M323.97,307.88c0.406-6.306-0.971-12.451-2.275-18.578c-1.328-6.236-2.914-12.632-2.633-19.054
		c0.258-5.925,5.079-10.365,9.566-4.933c0.123,0.149,0.231,0.313,0.354,0.466c0.355-0.063,0.711-0.106,1.066-0.128
		c-2.435-3.474-5.307-4.92-8.609-2.689c-8.447,5.701,1.535,29.254,1.637,41.606c0.074,9.182-1.768,15.362-5.098,24.062
		c-0.036,0.897-0.075,1.797-0.135,2.699C320.829,323.668,323.44,316.146,323.97,307.88z"/>
	<g>
		<path fill="#231F20" d="M337.333,333.794c0.079-0.2,0.146-0.404,0.225-0.605c-0.289,0.209-0.585,0.39-0.885,0.558
			C336.894,333.762,337.112,333.777,337.333,333.794z"/>
	</g>
	<path fill="#231F20" d="M296.647,338.503c-0.146-0.454-0.313-0.895-0.469-1.339c-0.15,0.51-0.307,1.021-0.473,1.529
		C296.021,338.631,296.333,338.566,296.647,338.503z"/>
	<path fill="#231F20" d="M236.685,335.273c0.178-1.096,0.465-2.174,0.836-3.229c-0.869,2.285-1.33,4.695-1.281,7.196
		c0.023,0.014,0.058,0.018,0.074,0.033c0.029,0.027,0.064,0.056,0.095,0.083C236.401,337.667,236.548,336.118,236.685,335.273z"/>
	<path fill="#231F20" d="M236.239,339.24c-0.049-2.501,0.412-4.911,1.281-7.196c0.224-0.633,0.48-1.256,0.767-1.872
		c-0.183-0.039-0.365-0.073-0.552-0.104l-2.227,9.146C235.802,339.146,236.074,339.145,236.239,339.24z"/>
	<path fill="#231F20" d="M236.435,340.462c-0.049-0.033-0.096-0.064-0.146-0.102c0.024,0.295,0.063,0.592,0.104,0.888
		c0.033,0.016,0.064,0.036,0.099,0.051C236.466,341.021,236.448,340.741,236.435,340.462z"/>
	<path fill="#231F20" d="M235.409,339.624l0.002-0.008c-0.002-0.124-0.002-0.255-0.004-0.383c-0.578,0.153-1.15,0.511-0.902,0.74
		c0.301,0.281,0.617,0.52,0.94,0.735c-0.018-0.346-0.028-0.708-0.034-1.084C235.411,339.625,235.409,339.625,235.409,339.624z"/>
	<path fill="#231F20" d="M237.864,329.542c0,0,0.004,0.001,0.005,0.001c0.072-0.136,0.152-0.271,0.229-0.403
		c-0.67,0.177-1.683,0.753-0.844,0.854c0.119,0.014,0.237,0.034,0.355,0.054c0.083-0.164,0.164-0.328,0.251-0.491L237.864,329.542z"
		/>
	<path fill="#231F20" d="M238.536,329.639c0.084-0.168,0.174-0.334,0.262-0.502c-0.107-0.014-0.217-0.033-0.322-0.047
		c-0.092-0.011-0.227,0.01-0.379,0.05c-0.075,0.134-0.155,0.269-0.229,0.403C238.103,329.566,238.315,329.605,238.536,329.639z"/>
	<path fill="#231F20" d="M237.86,329.557c-0.087,0.163-0.168,0.327-0.251,0.491c0.042,0.007,0.085,0.013,0.126,0.019L237.86,329.557
		z"/>
	<path fill="#231F20" d="M235.509,339.211c-0.033,0.008-0.066,0.014-0.102,0.022c0.002,0.128,0.002,0.259,0.004,0.383
		L235.509,339.211z"/>
	<path fill="#231F20" d="M236.288,340.361c-0.292-0.215-0.586-0.45-0.877-0.734c0.006,0.376,0.018,0.739,0.034,1.084
		c0.31,0.206,0.621,0.389,0.945,0.538C236.353,340.952,236.313,340.656,236.288,340.361z"/>
	<path fill="#231F20" d="M236.407,339.356c-0.029-0.027-0.064-0.056-0.095-0.083c-0.018-0.017-0.051-0.021-0.074-0.033
		c0.009,0.372,0.021,0.745,0.05,1.121c0.051,0.036,0.098,0.067,0.146,0.102C236.417,340.091,236.409,339.721,236.407,339.356z"/>
	<polygon fill="#231F20" points="237.864,329.542 237.86,329.557 237.868,329.543 	"/>
	<polygon fill="#231F20" points="235.409,339.624 235.411,339.626 235.411,339.616 	"/>
	<path fill="#231F20" d="M235.509,339.211l-0.098,0.405c0,0.003,0,0.007,0,0.01c0.291,0.284,0.585,0.521,0.877,0.734
		c-0.029-0.376-0.041-0.749-0.05-1.121C236.074,339.145,235.802,339.146,235.509,339.211z"/>
	<path fill="#231F20" d="M238.536,329.639c-0.222-0.033-0.435-0.072-0.668-0.096c-0.002,0.004-0.006,0.01-0.009,0.014l-0.125,0.51
		c0.187,0.031,0.369,0.065,0.552,0.104C238.368,329.993,238.448,329.815,238.536,329.639z"/>
	<path fill="#231F20" d="M290.142,260.648c-0.021-0.002-0.041,0-0.063-0.002c1.732,1.51,3.491,3.463,5.183,5.601
		c0.105-0.096,0.208-0.188,0.304-0.274c0.093-0.085,0.249-0.153,0.431-0.203l-5.125-5.297
		C290.632,260.593,290.358,260.67,290.142,260.648z"/>
	<g>
		<path fill="#231F20" d="M290.521,260.11l0.006,0.007c0.134,0.105,0.267,0.214,0.4,0.325c0.527-0.289,0.853-0.782-0.027-0.87
			c-0.355-0.034-0.725-0.032-1.095-0.01c0.237,0.174,0.476,0.357,0.714,0.548H290.521z"/>
	</g>
	<path fill="#231F20" d="M297.109,266.272c0.641-0.585-0.37-0.691-1.066-0.517c0.229,0.28,0.459,0.564,0.686,0.854
		C296.867,266.489,296.999,266.374,297.109,266.272z"/>
	<g>
		<path fill="#231F20" d="M290.87,260.472c0.02-0.01,0.036-0.02,0.057-0.029c-0.135-0.111-0.268-0.22-0.4-0.325L290.87,260.472z"/>
	</g>
	<g>
		<path fill="#231F20" d="M290.519,260.11c-0.238-0.189-0.477-0.374-0.714-0.548c-0.309,0.02-0.618,0.051-0.927,0.108
			c0.188,0.142,0.379,0.29,0.567,0.443C289.868,260.073,290.243,260.074,290.519,260.11z"/>
	</g>
	<path fill="#231F20" d="M296.337,266.122c-0.219,0.203-0.449,0.411-0.688,0.62c0.121,0.153,0.24,0.311,0.359,0.468
		c0.268-0.216,0.508-0.417,0.719-0.602c-0.227-0.288-0.455-0.572-0.686-0.854c-0.017,0.004-0.031,0.008-0.047,0.013L296.337,266.122
		z"/>
	<g>
		<polygon fill="#231F20" points="290.521,260.11 290.519,260.11 290.526,260.116 		"/>
	</g>
	<g>
		<path fill="#231F20" d="M290.142,260.648c0.217,0.021,0.49-0.056,0.729-0.177l-0.345-0.354c-0.004-0.003-0.006-0.005-0.008-0.007
			c-0.274-0.036-0.649-0.037-1.072,0.005c0.212,0.171,0.423,0.348,0.634,0.531C290.101,260.648,290.12,260.646,290.142,260.648z"/>
	</g>
	<path fill="#231F20" d="M295.995,265.769c-0.182,0.05-0.339,0.118-0.431,0.203c-0.096,0.087-0.197,0.18-0.304,0.274
		c0.13,0.164,0.259,0.33,0.388,0.496c0.238-0.209,0.47-0.417,0.688-0.62L295.995,265.769z"/>
	<g>
		<path fill="#231F20" d="M331.519,268.086l-0.56-1.284c-0.045,0.021-0.088,0.038-0.133,0.054
			C331.062,267.247,331.292,267.659,331.519,268.086z"/>
	</g>
	<g>
		<path fill="#231F20" d="M330.384,266.928c-0.182-0.013-0.365-0.012-0.554-0.004c1.289,1.877,2.349,3.984,3.235,6.224
			c0.132-0.12,0.329-0.203,0.546-0.249l-2.094-4.813c-0.228-0.427-0.457-0.839-0.691-1.23
			C330.679,266.908,330.527,266.938,330.384,266.928z"/>
	</g>
	<g>
		<path fill="#231F20" d="M330.048,265.654c0.141,0.201,0.28,0.41,0.418,0.625c0.09,0.003,0.186,0,0.27,0.01l0.225,0.514
			c0.306-0.142,0.57-0.378,0.673-0.603c-0.111-0.179-0.229-0.352-0.347-0.523c-0.061-0.012-0.125-0.021-0.198-0.027
			C330.744,265.626,330.397,265.633,330.048,265.654z"/>
	</g>
	<g>
		<path fill="#231F20" d="M333.646,272.893c0.152,0.404,0.301,0.816,0.447,1.232c0.182-0.157,0.362-0.316,0.535-0.488
			c0.139-0.139,0.194-0.258,0.203-0.361c-0.023-0.067-0.05-0.138-0.074-0.207C334.569,272.87,334.076,272.81,333.646,272.893z"/>
	</g>
	<g>
		<path fill="#231F20" d="M329.403,266.34c0.381-0.057,0.734-0.074,1.063-0.062c-0.138-0.215-0.277-0.424-0.418-0.625
			c-0.355,0.021-0.711,0.063-1.066,0.128C329.123,265.966,329.266,266.15,329.403,266.34z"/>
	</g>
	<g>
		<path fill="#231F20" d="M333.833,273.403c-0.148,0.16-0.313,0.315-0.484,0.469c0.082,0.218,0.158,0.439,0.236,0.661
			c0.174-0.132,0.344-0.266,0.508-0.407c-0.146-0.416-0.295-0.828-0.447-1.232c-0.012,0.002-0.021,0.004-0.033,0.006
			L333.833,273.403z"/>
	</g>
	<g>
		<path fill="#231F20" d="M330.959,266.802l-0.225-0.514c-0.084-0.01-0.18-0.007-0.27-0.01c0.123,0.188,0.241,0.38,0.36,0.576
			C330.871,266.84,330.914,266.822,330.959,266.802z"/>
	</g>
	<g>
		<path fill="#231F20" d="M333.833,273.403l-0.222-0.505c-0.217,0.046-0.414,0.129-0.546,0.249c0.095,0.24,0.19,0.479,0.282,0.725
			C333.521,273.719,333.685,273.563,333.833,273.403z"/>
	</g>
	<g>
		<path fill="#231F20" d="M329.403,266.34c0.144,0.194,0.29,0.385,0.428,0.584c0.188-0.008,0.372-0.009,0.554,0.004
			c0.144,0.01,0.295-0.02,0.442-0.072c-0.118-0.196-0.237-0.389-0.36-0.576C330.138,266.266,329.783,266.283,329.403,266.34z"/>
	</g>
	<g>
		<path fill="#231F20" d="M360.593,293.477c0.633,1.957,1.121,4.309,1.492,6.713c0.256-0.02,0.504-0.045,0.739-0.076l-1.211-6.615
			c-0.149,0.045-0.307,0.07-0.459,0.046C360.979,293.514,360.787,293.493,360.593,293.477z"/>
	</g>
	<g>
		<path fill="#231F20" d="M361.505,292.896l0.002,0.004c0.073,0.183,0.146,0.37,0.221,0.563c0.672-0.265,1.143-1.046,0.127-1.213
			c-0.217-0.035-0.442-0.063-0.674-0.084C361.29,292.398,361.398,292.642,361.505,292.896L361.505,292.896z"/>
	</g>
	<g>
		<path fill="#231F20" d="M363.376,300.083c0.051,0.316,0.101,0.636,0.146,0.964C363.923,300.676,363.978,300.143,363.376,300.083z"
			/>
	</g>
	<g>
		<path fill="#231F20" d="M360.343,292.756c0.372,0.026,0.755,0.065,1.162,0.14c-0.106-0.254-0.215-0.497-0.324-0.73
			c-0.349-0.031-0.711-0.043-1.08-0.04C360.183,292.328,360.264,292.539,360.343,292.756z"/>
	</g>
	<g>
		<path fill="#231F20" d="M361.614,293.497c0.039-0.012,0.076-0.021,0.113-0.036c-0.073-0.191-0.146-0.38-0.221-0.563
			L361.614,293.497z"/>
	</g>
	<g>
		<path fill="#231F20" d="M362.824,300.113l0.113,0.62c-0.262,0.041-0.51,0.067-0.76,0.096c0.031,0.206,0.063,0.411,0.09,0.617
			c0.197-0.019,0.389-0.041,0.568-0.065c0.276-0.04,0.51-0.171,0.686-0.333c-0.046-0.328-0.096-0.646-0.146-0.964
			c-0.099-0.009-0.201-0.017-0.337,0.004C362.97,300.097,362.896,300.104,362.824,300.113z"/>
	</g>
	<g>
		<polygon fill="#231F20" points="361.505,292.896 361.505,292.896 361.507,292.899 		"/>
	</g>
	<g>
		<path fill="#231F20" d="M362.179,300.828c0.25-0.027,0.498-0.055,0.76-0.096l-0.113-0.62c-0.235,0.031-0.483,0.058-0.739,0.076
			C362.117,300.402,362.149,300.615,362.179,300.828z"/>
	</g>
	<g>
		<path fill="#231F20" d="M361.155,293.543c0.152,0.024,0.31-0.001,0.459-0.046l-0.106-0.599c-0.002-0.001-0.002-0.003-0.002-0.004
			c-0.407-0.073-0.79-0.112-1.162-0.14c0.085,0.234,0.169,0.472,0.25,0.721C360.787,293.493,360.979,293.514,361.155,293.543z"/>
	</g>
	<path fill="#231F20" d="M240.386,356.101c-0.393,0.4-0.756,0.919-1.092,1.515c0.348-0.529,0.721-1.033,1.119-1.505
		C240.405,356.106,240.394,356.105,240.386,356.101z"/>
	<path fill="#231F20" d="M236.495,367.166l1.172-2.919c0.182-0.964,0.408-1.925,0.694-2.875c0.437-1.448,1.178-2.912,2.138-4.184
		l0.403-1.01c-0.224,0.019-0.391-0.005-0.489-0.069c-0.398,0.472-0.771,0.976-1.119,1.504c-1.699,3.015-2.656,7.992-2.931,9.577
		C236.409,367.181,236.452,367.173,236.495,367.166z"/>
	<path fill="#231F20" d="M237.04,367.191c0.069,0.029,0.145,0.06,0.215,0.088c0.084-1.014,0.221-2.024,0.412-3.031l-1.172,2.919
		C236.704,367.13,236.899,367.131,237.04,367.191z"/>
	<path fill="#231F20" d="M241.036,356.176c-0.054,0.008-0.085,0-0.134,0.004l-0.403,1.01c0.276-0.367,0.571-0.72,0.885-1.049
		C241.267,356.152,241.155,356.156,241.036,356.176z"/>
	<path fill="#231F20" d="M235.522,368.201c0.209,0.088,0.422,0.165,0.636,0.244c0.016-0.41,0.061-0.816,0.095-1.226
		C235.575,367.421,234.913,367.941,235.522,368.201z"/>
	<path fill="#231F20" d="M241.53,354.938c-0.09,0.011-0.177,0.013-0.268,0.025c-0.74,0.118-1.244,0.868-0.877,1.138
		c0.062-0.062,0.123-0.117,0.186-0.173C240.878,355.576,241.198,355.245,241.53,354.938z"/>
	<path fill="#231F20" d="M237.202,368.063c-0.304-0.115-0.604-0.227-0.92-0.366c0,0,0.027-0.187,0.081-0.505
		c-0.036,0.01-0.073,0.02-0.111,0.029c-0.034,0.408-0.079,0.814-0.095,1.226c0.331,0.124,0.668,0.237,1.008,0.34
		C237.173,368.545,237.189,368.304,237.202,368.063z"/>
	<path fill="#231F20" d="M240.571,355.928c0.121-0.109,0.243-0.211,0.369-0.296l0.195-0.028l0.014-0.034
		c0.329-0.061,0.646-0.099,0.952-0.117c0.231-0.203,0.473-0.393,0.717-0.568c-0.419-0.018-0.847-0.001-1.288,0.055
		C241.198,355.245,240.878,355.576,240.571,355.928z"/>
	<path fill="#231F20" d="M240.571,355.928c-0.063,0.056-0.124,0.111-0.186,0.173c0.008,0.005,0.02,0.006,0.027,0.01
		C240.465,356.049,240.519,355.988,240.571,355.928z"/>
	<path fill="#231F20" d="M240.94,355.632c-0.126,0.085-0.248,0.187-0.369,0.296c-0.053,0.061-0.105,0.121-0.157,0.183
		c0.1,0.064,0.267,0.089,0.489,0.069l0.232-0.576L240.94,355.632z"/>
	<path fill="#231F20" d="M236.364,367.191c-0.054,0.318-0.081,0.505-0.081,0.505l0.213-0.529
		C236.452,367.173,236.409,367.181,236.364,367.191z"/>
	<path fill="#231F20" d="M242.102,355.451c-0.306,0.02-0.623,0.058-0.952,0.117l-0.014,0.034l0.953-0.139
		C242.093,355.46,242.097,355.456,242.102,355.451z"/>
	<path fill="#231F20" d="M236.282,367.696c0.315,0.141,0.616,0.251,0.92,0.366c0.001-0.008,0.002-0.016,0.002-0.022L236.282,367.696
		z"/>
	<path fill="#231F20" d="M237.255,367.279c-0.07-0.028-0.146-0.059-0.215-0.088c-0.142-0.061-0.336-0.062-0.545-0.024l-0.213,0.529
		l0.922,0.344C237.218,367.786,237.235,367.533,237.255,367.279z"/>
	<path fill="#231F20" d="M241.384,356.141c0.226-0.238,0.462-0.463,0.705-0.676l-0.953,0.139l-0.232,0.576
		c0.049-0.004,0.08,0.004,0.134-0.004C241.155,356.156,241.267,356.152,241.384,356.141z"/>
	<path fill="#231F20" d="M308.363,343.027c0.009,0.697,0.146,1.517,0.001,2.205c-0.108,0.525-0.524,1.054-0.754,1.529
		c-0.146,0.305,0.678,0.182,0.769,0.164c0.307-0.056,0.979-0.187,1.135-0.514c0.236-0.494,0.611-0.996,0.754-1.529
		c0.197-0.73,0.037-1.632,0.028-2.373C310.292,342.217,308.356,342.498,308.363,343.027z"/>
	<g>
		<path fill="#231F20" d="M325.318,345.408c0.065,1.064-0.058,2.028-0.4,3.034c-0.197,0.582,1.721,0.325,1.924-0.271
			c0.369-1.084,0.479-2.139,0.407-3.281C327.216,344.345,325.276,344.728,325.318,345.408z"/>
	</g>
	<g>
		<path fill="#231F20" d="M341.805,347.615c0.063,1.051-0.074,2.015-0.411,3.006c-0.151,0.445,0.609,0.521,0.854,0.494
			c0.438-0.047,0.937-0.26,1.087-0.701c0.372-1.1,0.471-2.157,0.399-3.315C343.692,346.377,341.755,346.801,341.805,347.615z"/>
	</g>
	<g>
		<g>
			<g>
				<path fill="#E62328" d="M112.165,332.923c-18.004,4.481-32.441,29.828-16.119,44.371c12.961,11.729,34.676,4.735,42.119-9.127
					C150.724,344.743,127.472,329.272,112.165,332.923z M102.448,365.106c-2.895-4.244,1.244-16.168,5.976-17.649
					c7.111-4.06,17.541-3.525,20.541,9.741C131.968,370.47,108.255,374.062,102.448,365.106z"/>
			</g>
			<g>
				<g>
					<path fill="#231F20" d="M111.94,332.083c-13.037,3.682-25.799,17.201-24.215,31.604c1.816,16.525,18.732,23.111,33.26,19.033
						c14.246-4,25.103-19.096,21.132-33.928C138.786,336.353,123.817,329.661,111.94,332.083c-1.582,0.324-1.102,1.996,0.449,1.68
						c10.898-2.223,22.488,4.242,26.762,14.383c5.42,12.857-4.496,26.695-15.846,31.881c-13.361,6.104-30.121-0.498-32.902-15.508
						c-2.518-13.576,9.722-27.293,21.986-30.756C113.929,333.327,113.483,331.647,111.94,332.083z"/>
				</g>
				<g>
					<path fill="#231F20" d="M103.599,364.56c-3.041-5.565,1.271-14.195,6.281-16.865c7.879-4.202,14.865,0.562,17.416,8.248
						C131.632,369.009,110.116,373.552,103.599,364.56c-0.654-0.904-3.051,0.062-2.303,1.094c4.274,5.902,12.971,6.084,19.365,4.293
						c8.698-2.436,11.44-9.42,8.106-17.479c-3.293-7.953-11.729-9.518-19.055-6.646c-6.822,2.675-12.193,12.919-8.418,19.83
						C101.821,366.616,104.222,365.7,103.599,364.56z"/>
				</g>
			</g>
		</g>
	</g>
	<g>
		<g>
			<path fill="#E62328" d="M155.087,383.331c2.852,0.453,8.729,0.467,11.49,0.162c-0.063-5.229-0.607-14.214-0.664-18.966
				c5.225,4.925,12.823,15.048,17.461,19.813c5.432-4.484,8.35-6.201,7.987-6.738c-2.721-4.07-9.678-12.809-14.743-19.555
				c3.399-6.213,14.215-18.836,14.176-22.219c-0.021-1.564-5.301-4.687-7.012-5.623c-1.435-0.785-14.701,17.809-17.951,24.498
				c-0.103-9.029,0.278-16.724,0.182-25.273c-3.803,0.045-8.063,0.658-11.875,0.227
				C154.272,341.058,152.667,369.345,155.087,383.331z"/>
		</g>
		<g>
			<g>
				<path fill="#231F20" d="M154.634,384.175c3.91,0.471,7.887,0.479,11.813,0.158c0.438-0.035,1.408-0.371,1.398-0.957
					c-0.119-6.326-0.543-12.642-0.664-18.963c-0.809,0.215-1.615,0.432-2.424,0.647c6.307,6.164,11.412,13.41,17.461,19.812
					c0.475,0.502,1.471,0.377,1.971-0.029c1.271-1.031,8.439-5.029,8.439-7.133c0.004-1.418-1.81-3.054-2.594-4.121
					c-2.351-3.201-4.804-6.328-7.226-9.473c-1.606-2.089-5.459-5.304-3.776-8.007c1.606-2.586,3.461-5.026,5.245-7.489
					c2.759-3.806,6.269-7.785,7.709-12.334c1.152-3.646-7.407-8.423-10.586-5.568c-6.789,6.094-12.674,15.832-16.76,23.883
					c0.818-0.004,1.639-0.01,2.457-0.014c-0.059-8.426,0.236-16.849,0.18-25.273c-0.004-0.629-0.614-0.742-1.135-0.725
					c-3.867,0.137-7.676,0.469-11.553,0.225c-0.51-0.03-1.725,0.244-1.719,0.959c0.125,17.877-1.873,36.146,0.959,53.896
					c0.168,1.059,2.688,0.438,2.512-0.672c-2.809-17.601-0.814-35.728-0.939-53.455c-0.571,0.319-1.145,0.639-1.719,0.959
					c2.517,0.158,4.947,0.123,7.471-0.004c4.414-0.226,3.613,2.285,3.584,5.899c-0.053,6.146-0.217,12.283-0.174,18.426
					c0.009,1.21,2.07,0.744,2.455-0.014c1.381-2.719,14.666-24.547,16.574-23.471c1.584,0.893,6.135,3.014,5.859,5.184
					c-0.289,2.281-2.603,4.877-3.845,6.699c-3.358,4.928-7.2,9.547-10.182,14.725c-0.119,0.205-0.109,0.445,0.033,0.636
					c3.709,4.91,7.498,9.758,11.211,14.666c0.68,0.899,4.051,4.123,2.479,5.407c-2.162,1.771-4.424,3.421-6.594,5.185
					c0.656-0.01,1.313-0.019,1.969-0.029c-6.049-6.397-11.153-13.645-17.461-19.811c-0.541-0.527-2.44-0.349-2.422,0.647
					c0.092,4.674,0.34,9.342,0.525,14.013c0.096,2.383,1.153,4.063-1.447,4.176c-2.727,0.115-5.477-0.021-8.184-0.347
					C154.397,382.351,152.937,383.97,154.634,384.175z"/>
			</g>
		</g>
	</g>
	<g>
		<g>
			<g>
				<path fill="#E62328" d="M207.3,330.78c-2.459,5.722-4.824,33.511-2.045,36.205c1.471,1.429,7.471,0.963,9.19-0.436
					c1.324-1.342,3.675-33.453,3.224-34.023C215.478,329.751,210.661,329.481,207.3,330.78z"/>
			</g>
			<g>
				<g>
					<path fill="#231F20" d="M206.038,330.915c-3.525,9.155-3.586,21.022-3.226,30.692c0.117,3.168,0.138,5.957,3.504,6.849
						c2.154,0.567,7.9,0.391,9.312-1.84c1.416-2.242,1.238-6.191,1.521-8.718c0.605-5.434,1.033-10.891,1.414-16.346
						c0.211-3.029,0.635-6.213,0.392-9.256c-0.33-4.154-9.662-2.885-11.847-2.228c-1.498,0.453-1.135,1.875,0.381,1.418
						c2.113-0.637,8.994-1.676,8.974,2.328c-0.006,0.939-0.062,1.879-0.105,2.818c-0.162,3.387-0.42,6.77-0.684,10.15
						c-0.479,6.161-0.855,12.45-2.039,18.524c-0.707,3.617-7.461,2.01-8.049-1.451c-0.654-3.848-0.334-7.936-0.146-11.811
						c0.338-6.918,0.603-14.865,3.121-21.406C208.919,329.712,206.386,330.013,206.038,330.915z"/>
				</g>
			</g>
		</g>
		<g>
			<g>
				<path fill="#E62328" d="M206.288,373.325c-1.146,1.084-1.063,8.118-0.369,9.004c2.457,2.021,7.522,0.85,9.908-0.828
					c0.551-1.875,0.813-6.513-0.099-8.549C212.386,371.563,208.499,371.696,206.288,373.325z"/>
			</g>
			<g>
				<g>
					<path fill="#231F20" d="M205.259,373.038c-1.74,2.057-1.309,6.403-0.861,8.868c0.64,3.505,7.213,2.248,9.379,1.474
						c1.81-0.648,3.209-1.176,3.563-3.148c0.373-2.082,0.365-4.324,0.008-6.405c-0.399-2.332-3.016-2.404-5.029-2.605
						c-2.368-0.238-4.854,0.318-6.836,1.635c-1.422,0.943,0.703,1.547,1.613,0.943c1.498-0.994,3.203-1.064,4.947-0.892
						c0.336,0.033,2.391,0.277,2.572,0.744c0.225,0.574,0.288,1.215,0.364,1.82c0.191,1.502,0.08,3.059-0.102,4.555
						c-0.187,1.552-0.83,1.67-2.332,2.142c-1.547,0.483-3.357,0.646-4.875-0.011c-0.918-0.397-0.855-1.385-0.937-2.256
						c-0.139-1.518-0.502-5.01,0.58-6.289C208.315,372.433,205.896,372.288,205.259,373.038z"/>
				</g>
			</g>
		</g>
	</g>
</g>
</svg>
