<?xml version="1.0" encoding="utf-8"?>
<!-- Generator: Adobe Illustrator 13.0.0, SVG Export Plug-In . SVG Version: 6.00 Build 14948)  -->
<svg version="1.2" baseProfile="tiny" id="Layer_1" xmlns="http://www.w3.org/2000/svg" xmlns:xlink="http://www.w3.org/1999/xlink"
	 x="0px" y="0px" width="397.031px" height="376.49px" viewBox="0 0 397.031 376.49" xml:space="preserve">
<g>
	<g>
		<g>
			<path fill="#FFFFFF" stroke="#231F20" stroke-width="2" stroke-linecap="round" stroke-linejoin="round" d="M357.562,54.565"/>
			<path fill="#FFFFFF" stroke="#231F20" stroke-width="2" stroke-linecap="round" stroke-linejoin="round" d="M396.031,178.001
				c0-31.609-10.467-61.161-28.641-86.331c9.26-9.625,14.965-22.702,14.965-37.115C382.355,24.978,358.377,1,328.801,1
				c-19.682,0-36.871,10.622-46.18,26.44c-25.521-10.134-54.025-15.807-84.107-15.807c-30.688,0-59.744,5.896-85.654,16.417
				C103.639,11.896,86.264,1,66.33,1C36.752,1,12.773,24.978,12.773,54.556c0,14.983,6.156,28.519,16.074,38.242
				C11.168,117.72,1,146.859,1,178.001c0,90.887,86.524,164.739,193.972,166.333l29.803,31.156l-2.362-32.334
				C320.228,333.218,396.031,263.072,396.031,178.001z"/>
		</g>
		<path fill="#231F20" stroke="#FFFFFF" stroke-width="2" stroke-linecap="round" stroke-linejoin="round" d="M325.427,22.429
			c-11.02,0-20.734,5.551-26.525,14.005c19.674,10.251,37.053,23.322,51.332,38.556c4.576-5.553,7.328-12.668,7.328-20.425
			C357.562,36.818,343.173,22.429,325.427,22.429z"/>
		<path fill="#231F20" stroke="#FFFFFF" stroke-width="2" stroke-linecap="round" stroke-linejoin="round" d="M62.956,22.429
			c-17.746,0-32.133,14.389-32.133,32.136c0,8.263,3.145,15.77,8.266,21.463c14.117-15.307,31.34-28.476,50.867-38.847
			C84.235,28.314,74.292,22.429,62.956,22.429z"/>
	</g>
	<g>
		<g>
			<path fill="none" stroke="#231F20" stroke-width="2" stroke-linecap="round" stroke-linejoin="round" stroke-miterlimit="10" d="
				M136.644,71.649c0,3.778-3.057,6.838-6.836,6.838c-3.773,0-6.836-3.06-6.836-6.838c0-3.774,3.063-6.836,6.836-6.836
				C133.587,64.813,136.644,67.875,136.644,71.649z"/>
			<path fill="none" stroke="#231F20" stroke-width="2" stroke-linecap="round" stroke-linejoin="round" stroke-miterlimit="10" d="
				M267.312,71.649c0,3.778-3.063,6.838-6.838,6.838c-3.773,0-6.838-3.06-6.838-6.838c0-3.774,3.064-6.836,6.838-6.836
				C264.249,64.813,267.312,67.875,267.312,71.649z"/>
		</g>
		<g>
			<path fill="#231F20" d="M199.388,78.487c5.275,0,7.064,3.499,3.973,7.773l-2.594,3.587c-3.094,4.277-8.156,4.277-11.248,0
				l-2.594-3.585c-3.092-4.276-1.307-7.775,3.971-7.775H199.388z"/>
			<path fill="none" d="M199.388,78.487c5.275,0,7.064,3.499,3.973,7.773l-2.594,3.587c-3.094,4.277-8.156,4.277-11.248,0
				l-2.594-3.585c-3.092-4.276-1.307-7.775,3.971-7.775H199.388z"/>
		</g>
	</g>
	<g>
		
			<line fill="none" stroke="#231F20" stroke-width="2" stroke-linecap="round" stroke-linejoin="round" stroke-miterlimit="10" x1="272.2" y1="80.492" x2="272.2" y2="88.492"/>
		
			<line fill="none" stroke="#231F20" stroke-width="2" stroke-linecap="round" stroke-linejoin="round" stroke-miterlimit="10" x1="278.2" y1="72.492" x2="278.2" y2="94.492"/>
		
			<line fill="none" stroke="#231F20" stroke-width="2" stroke-linecap="round" stroke-linejoin="round" stroke-miterlimit="10" x1="284.2" y1="67.492" x2="284.2" y2="94.492"/>
	</g>
</g>
</svg>
