<?xml version="1.0" encoding="utf-8"?>
<!-- Generator: Adobe Illustrator 13.0.0, SVG Export Plug-In . SVG Version: 6.00 Build 14948)  -->
<svg version="1.2" baseProfile="tiny" id="Layer_1" xmlns="http://www.w3.org/2000/svg" xmlns:xlink="http://www.w3.org/1999/xlink"
	 x="0px" y="0px" width="397.031px" height="376.49px" viewBox="0 0 397.031 376.49" xml:space="preserve">
<g>
	<g>
		<g>
			<path fill="#FFFFFF" stroke="#231F20" stroke-width="2" stroke-linecap="round" stroke-linejoin="round" d="M360.936,54.555"/>
			<path fill="#FFFFFF" stroke="#231F20" stroke-width="2" stroke-linecap="round" stroke-linejoin="round" d="M367.391,91.671
				c9.26-9.625,14.965-22.702,14.965-37.115C382.355,24.978,358.377,1,328.801,1c-19.682,0-36.871,10.622-46.18,26.44
				c-25.521-10.134-54.025-15.807-84.107-15.807c-30.688,0-59.744,5.896-85.654,16.417C103.639,11.896,86.264,1,66.33,1
				C36.752,1,12.773,24.978,12.773,54.556c0,14.983,6.156,28.519,16.074,38.242C11.168,117.72,1,146.859,1,178.001
				c0,83.967,73.853,153.391,169.822,164.734l-2.393,32.755l29.771-31.123c0.104,0.001,0.208,0.004,0.313,0.004
				c109.088,0,197.518-74.484,197.518-166.37C396.031,146.392,385.564,116.841,367.391,91.671z"/>
		</g>
		<path fill="#231F20" stroke="#FFFFFF" stroke-width="2" stroke-linecap="round" stroke-linejoin="round" d="M328.801,22.419
			c-11.02,0-20.734,5.551-26.525,14.005c19.674,10.251,37.053,23.322,51.332,38.556c4.576-5.553,7.328-12.668,7.328-20.425
			C360.936,36.809,346.547,22.419,328.801,22.419z"/>
		<path fill="#231F20" stroke="#FFFFFF" stroke-width="2" stroke-linecap="round" stroke-linejoin="round" d="M66.33,22.419
			c-17.746,0-32.133,14.389-32.133,32.136c0,8.263,3.145,15.77,8.266,21.463C56.58,60.711,73.803,47.543,93.33,37.172
			C87.609,28.304,77.666,22.419,66.33,22.419z"/>
	</g>
	<g>
		<g>
			<path fill="none" stroke="#231F20" stroke-width="2" stroke-linecap="round" stroke-linejoin="round" stroke-miterlimit="10" d="
				M140.018,71.639c0,3.778-3.057,6.838-6.836,6.838c-3.773,0-6.836-3.06-6.836-6.838c0-3.774,3.063-6.836,6.836-6.836
				C136.961,64.803,140.018,67.865,140.018,71.639z"/>
			<path fill="none" stroke="#231F20" stroke-width="2" stroke-linecap="round" stroke-linejoin="round" stroke-miterlimit="10" d="
				M270.686,71.639c0,3.778-3.063,6.838-6.838,6.838c-3.773,0-6.838-3.06-6.838-6.838c0-3.774,3.064-6.836,6.838-6.836
				C267.623,64.803,270.686,67.865,270.686,71.639z"/>
		</g>
		<g>
			<path fill="#231F20" d="M202.762,78.477c5.275,0,7.064,3.499,3.973,7.773l-2.594,3.587c-3.094,4.277-8.156,4.277-11.248,0
				l-2.594-3.585c-3.092-4.276-1.307-7.775,3.971-7.775H202.762z"/>
			<path fill="none" d="M202.762,78.477c5.275,0,7.064,3.499,3.973,7.773l-2.594,3.587c-3.094,4.277-8.156,4.277-11.248,0
				l-2.594-3.585c-3.092-4.276-1.307-7.775,3.971-7.775H202.762z"/>
		</g>
	</g>
	<g>
		
			<line fill="none" stroke="#231F20" stroke-width="2" stroke-linecap="round" stroke-linejoin="round" stroke-miterlimit="10" x1="275.2" y1="80.492" x2="275.2" y2="88.492"/>
		
			<line fill="none" stroke="#231F20" stroke-width="2" stroke-linecap="round" stroke-linejoin="round" stroke-miterlimit="10" x1="281.2" y1="72.492" x2="281.2" y2="94.492"/>
		
			<line fill="none" stroke="#231F20" stroke-width="2" stroke-linecap="round" stroke-linejoin="round" stroke-miterlimit="10" x1="287.2" y1="67.492" x2="287.2" y2="94.492"/>
	</g>
</g>
</svg>
