<?xml version="1.0" encoding="utf-8"?>
<!-- Generator: Adobe Illustrator 13.0.0, SVG Export Plug-In . SVG Version: 6.00 Build 14948)  -->
<svg version="1.2" baseProfile="tiny" id="Layer_1" xmlns="http://www.w3.org/2000/svg" xmlns:xlink="http://www.w3.org/1999/xlink"
	 x="0px" y="0px" width="461.777px" height="469.023px" viewBox="0 0 461.777 469.023" xml:space="preserve">
<g>
	<path fill="#FFFFFF" stroke="#231F20" stroke-width="2" stroke-linecap="round" stroke-linejoin="round" d="M29.121,326.641
		C11.277,297.227,1,262.713,1,225.797C1,118.277,88.164,31.109,195.688,31.109c107.52,0,194.688,87.168,194.688,194.688
		c0,70.607-37.59,132.432-93.848,166.566l0.004,0.002c0,0-74.527,47.076-240.066,75.658
		C56.465,468.023,81.008,424.445,29.121,326.641L29.121,326.641z"/>
	<g>
		<g>
			<path fill="#FFFFFF" d="M377.645,42.568C377.645,19.609,396.258,1,419.211,1c22.957,0,41.566,18.609,41.566,41.568
				c0,22.955-18.609,41.566-41.566,41.566c-0.141,0-0.281-0.021-0.418-0.023l-6.68,9.109v-9.736
				C392.547,80.107,377.645,63.098,377.645,42.568z"/>
			<path fill="#231F20" d="M412.113,94.221c-0.104,0-0.209-0.017-0.312-0.05c-0.41-0.135-0.688-0.518-0.688-0.95v-8.902
				c-20.024-3.857-34.469-21.282-34.469-41.75C376.645,19.096,395.74,0,419.211,0c23.472,0,42.566,19.096,42.566,42.568
				c0,23.446-19.057,42.526-42.495,42.566l-6.362,8.677C412.728,94.073,412.426,94.221,412.113,94.221z M419.211,2
				c-22.368,0-40.566,18.198-40.566,40.568c0,19.773,14.147,36.566,33.639,39.931c0.479,0.082,0.83,0.498,0.83,0.985v6.682
				l4.873-6.646c0.191-0.261,0.511-0.413,0.821-0.408c0.086,0.001,0.174,0.008,0.262,0.015c0.047,0.004,0.094,0.009,0.142,0.009
				c22.368,0,40.566-18.198,40.566-40.566C459.777,20.198,441.579,2,419.211,2z"/>
		</g>
		<g>
			<g>
				<path fill="#FBE901" d="M331.465,158.082c-37.53,0-68.063-30.534-68.063-68.064c0-37.532,30.532-68.066,68.063-68.066
					c37.532,0,68.066,30.534,68.066,68.066C399.531,127.548,368.997,158.082,331.465,158.082z"/>
			</g>
			<g>
				<path fill="#231F20" d="M331.465,22.951c37.043,0,67.066,30.025,67.066,67.066c0,37.035-30.023,67.064-67.066,67.064
					c-37.039,0-67.063-30.029-67.063-67.064C264.402,52.977,294.426,22.951,331.465,22.951 M331.465,20.951
					c-38.081,0-69.063,30.982-69.063,69.066c0,38.082,30.981,69.064,69.063,69.064c38.083,0,69.066-30.982,69.066-69.064
					C400.531,51.934,369.548,20.951,331.465,20.951L331.465,20.951z"/>
			</g>
		</g>
		<g>
			<path fill="#FFFFFF" d="M306.273,100.895c0,14.789,11.984,26.773,26.766,26.773c14.785,0,26.77-11.984,26.77-26.773H306.273z"/>
			<path fill="#231F20" d="M333.039,128.668c-15.31,0-27.766-12.459-27.766-27.773c0-0.553,0.447-1,1-1h53.535c0.553,0,1,0.447,1,1
				C360.809,116.209,348.352,128.668,333.039,128.668z M307.293,101.895c0.526,13.75,11.874,24.773,25.746,24.773
				c13.875,0,25.224-11.023,25.75-24.773H307.293z"/>
		</g>
		<g>
			<path fill="#231F20" d="M369.487,85.572c-0.179,0-0.36-0.048-0.523-0.148l-12.672-7.807c-0.296-0.183-0.476-0.505-0.476-0.852
				c0-0.348,0.18-0.67,0.476-0.852l13.16-8.105c0.469-0.291,1.086-0.143,1.376,0.327c0.289,0.47,0.144,1.086-0.327,1.376
				l-11.778,7.254l11.29,6.955c0.471,0.29,0.616,0.905,0.327,1.376C370.15,85.403,369.823,85.572,369.487,85.572z"/>
		</g>
		<g>
			<path fill="#231F20" d="M299.368,85.572c-0.336,0-0.663-0.169-0.853-0.476c-0.289-0.47-0.144-1.086,0.327-1.376l11.286-6.955
				l-11.774-7.254c-0.471-0.29-0.616-0.906-0.327-1.376c0.29-0.47,0.905-0.618,1.376-0.327l13.156,8.105
				c0.296,0.182,0.476,0.504,0.476,0.852c0,0.347-0.18,0.669-0.476,0.852l-12.668,7.807
				C299.729,85.524,299.547,85.572,299.368,85.572z"/>
		</g>
		<g>
			<g>
				<path fill="#231F20" d="M408.999,34.227c0.437,2.528,0.765,5.05,0.983,7.562c0.218,2.513,0.39,5.018,0.515,7.515
					c0.031,0.281,0,0.523-0.094,0.726c-0.094,0.204-0.21,0.383-0.351,0.539s-0.281,0.28-0.422,0.374s-0.257,0.141-0.351,0.141
					c-0.344,0-0.679-0.164-1.007-0.491c-0.328-0.328-0.523-0.757-0.585-1.288c-0.094-1.186-0.188-2.371-0.281-3.559
					c-0.094-1.186-0.203-2.371-0.328-3.558c-3.277,0.905-6.741,1.701-10.394,2.388c0.124,0.687,0.249,1.374,0.375,2.06
					c0.124,0.688,0.265,1.374,0.421,2.061c0.03,0.125,0.054,0.328,0.07,0.608c0.016,0.281,0,0.578-0.047,0.89
					c-0.047,0.313-0.141,0.602-0.281,0.866c-0.141,0.266-0.351,0.461-0.632,0.585c-0.25,0.032-0.515-0.047-0.796-0.233
					c-0.281-0.188-0.468-0.375-0.562-0.563c-0.375-0.967-0.726-2.122-1.054-3.465c-0.328-1.341-0.608-2.754-0.843-4.236
					s-0.397-2.988-0.491-4.519c-0.094-1.529-0.11-2.996-0.047-4.401c0.062-0.468,0.241-0.803,0.538-1.006
					c0.296-0.203,0.569-0.305,0.819-0.305c0.281,0,0.522,0.094,0.726,0.281c0.203,0.187,0.366,0.421,0.492,0.702
					c0.124,0.281,0.218,0.562,0.28,0.843c0.063,0.28,0.094,0.515,0.094,0.702c0.031,0.999,0.078,1.982,0.141,2.949
					c0.063,0.968,0.171,1.937,0.328,2.903c1.592-0.218,3.323-0.522,5.196-0.913c1.873-0.39,3.636-0.835,5.291-1.334
					c-0.063-0.718-0.141-1.443-0.234-2.178c-0.094-0.732-0.188-1.458-0.281-2.177c0-0.53,0.164-0.999,0.492-1.404
					c0.327-0.405,0.663-0.609,1.007-0.609c0.249,0,0.507,0.125,0.772,0.375C408.726,33.307,408.905,33.696,408.999,34.227z"/>
			</g>
			<g>
				<path fill="#231F20" d="M419.346,48.882c0.031,0.125,0.047,0.304,0.047,0.538s-0.047,0.468-0.141,0.702
					s-0.227,0.438-0.397,0.608c-0.172,0.172-0.414,0.258-0.726,0.258c-0.688-0.437-1.265-1.014-1.732-1.732
					c-0.25-0.937-0.477-2.013-0.679-3.23c-0.204-1.217-0.368-2.488-0.492-3.815c-0.125-1.326-0.211-2.676-0.258-4.05
					c-0.046-1.373-0.055-2.7-0.023-3.979c0-0.219,0.023-0.499,0.07-0.843s0.133-0.68,0.258-1.007
					c0.124-0.328,0.281-0.609,0.469-0.843c0.187-0.234,0.451-0.352,0.796-0.352c0.405,0,0.732,0.125,0.982,0.375
					s0.375,0.655,0.375,1.217c-0.031,1.249-0.023,2.583,0.023,4.003c0.047,1.421,0.132,2.849,0.258,4.284
					c0.124,1.437,0.288,2.833,0.491,4.19C418.869,46.563,419.096,47.789,419.346,48.882z"/>
			</g>
			<g>
				<path fill="#231F20" d="M433.72,41.297c0.562,1.529,1.342,2.294,2.341,2.294c0.655,0,1.334-0.141,2.036-0.421
					c0.702-0.281,1.396-0.633,2.084-1.054c0.686-0.422,1.342-0.858,1.966-1.312c0.624-0.451,1.171-0.865,1.639-1.24
					c0.313-0.218,0.616-0.352,0.913-0.398c0.297-0.046,0.601,0.056,0.913,0.305c0.25,0.219,0.422,0.515,0.516,0.89
					c0.093,0.375,0.03,0.687-0.188,0.937c-0.813,0.843-1.709,1.623-2.692,2.341c-0.983,0.719-1.959,1.327-2.926,1.826
					c-0.968,0.499-1.873,0.89-2.716,1.17c-0.843,0.281-1.515,0.406-2.014,0.375c-1.154-0.063-1.989-0.375-2.505-0.937
					c-0.515-0.562-0.976-1.342-1.381-2.341c-0.156-0.437-0.383-0.804-0.679-1.101c-0.297-0.296-0.726-0.444-1.288-0.444
					c-0.812,0-1.529,0.336-2.153,1.007c-0.625,0.671-1.108,1.459-1.451,2.364c-0.156,0.344-0.414,0.538-0.772,0.585
					c-0.359,0.047-0.602,0.055-0.726,0.023c-0.438-0.094-0.766-0.265-0.983-0.515c-0.219-0.25-0.328-0.516-0.328-0.796
					c0.094-0.874,0.367-1.686,0.819-2.435c0.452-0.75,1.007-1.405,1.662-1.967s1.382-0.999,2.178-1.312
					c0.796-0.312,1.568-0.468,2.317-0.468C431.894,38.675,433.032,39.549,433.72,41.297z"/>
			</g>
		</g>
	</g>
</g>
</svg>
