<?xml version="1.0" encoding="utf-8"?>
<!-- Generator: Adobe Illustrator 13.0.0, SVG Export Plug-In . SVG Version: 6.00 Build 14948)  -->
<svg version="1.2" baseProfile="tiny" id="Layer_1" xmlns="http://www.w3.org/2000/svg" xmlns:xlink="http://www.w3.org/1999/xlink"
	 x="0px" y="0px" width="461.777px" height="469.023px" viewBox="0 0 461.777 469.023" xml:space="preserve">
<g>
	<path fill="#FFFFFF" stroke="#231F20" stroke-width="2" stroke-linecap="round" stroke-linejoin="round" d="M432.656,326.641
		c17.844-29.414,28.121-63.928,28.121-100.844c0-107.52-87.164-194.688-194.688-194.688c-107.52,0-194.688,87.168-194.688,194.688
		c0,70.607,37.59,132.432,93.848,166.566l-0.004,0.002c0,0,74.527,47.076,240.066,75.658
		C405.313,468.023,380.77,424.445,432.656,326.641L432.656,326.641z"/>
	<g>
		<g>
			<path fill="#FFFFFF" d="M84.133,42.568C84.133,19.609,65.52,1,42.566,1C19.609,1,1,19.609,1,42.568
				c0,22.955,18.609,41.566,41.566,41.566c0.141,0,0.281-0.021,0.418-0.023l6.68,9.109v-9.736
				C69.23,80.107,84.133,63.098,84.133,42.568z"/>
			<path fill="#231F20" d="M49.664,94.221c-0.313,0-0.614-0.146-0.807-0.408l-6.362-8.678C19.057,85.096,0,66.016,0,42.568
				C0,19.097,19.096,0,42.566,0c23.472,0,42.566,19.097,42.566,42.568c0,20.469-14.444,37.894-34.469,41.75v8.902
				c0,0.434-0.278,0.816-0.688,0.951C49.873,94.205,49.768,94.221,49.664,94.221z M42.984,83.111c0.318,0,0.618,0.152,0.807,0.409
				l4.873,6.646v-6.682c0-0.486,0.351-0.902,0.83-0.984c19.491-3.365,33.639-20.158,33.639-39.932C83.133,20.199,64.935,2,42.566,2
				S2,20.199,2,42.568s18.198,40.566,40.566,40.566c0.048,0,0.095-0.004,0.142-0.008c0.088-0.008,0.176-0.014,0.262-0.016
				C42.975,83.111,42.979,83.111,42.984,83.111z"/>
		</g>
		<g>
			<g>
				<path fill="#FBE901" d="M130.313,158.082c-37.532,0-68.066-30.533-68.066-68.064s30.534-68.066,68.066-68.066
					c37.53,0,68.063,30.535,68.063,68.066S167.843,158.082,130.313,158.082z"/>
			</g>
			<g>
				<path fill="#231F20" d="M130.313,22.951c37.039,0,67.063,30.025,67.063,67.066c0,37.035-30.023,67.064-67.063,67.064
					c-37.043,0-67.066-30.029-67.066-67.064C63.246,52.977,93.27,22.951,130.313,22.951 M130.313,20.951
					c-38.083,0-69.066,30.983-69.066,69.066c0,38.082,30.983,69.064,69.066,69.064c38.081,0,69.063-30.982,69.063-69.064
					C199.375,51.935,168.394,20.951,130.313,20.951L130.313,20.951z"/>
			</g>
		</g>
		<g>
			<path fill="#FFFFFF" d="M155.504,100.895c0,14.789-11.984,26.773-26.766,26.773c-14.785,0-26.77-11.984-26.77-26.773H155.504z"/>
			<path fill="#231F20" d="M128.738,128.668c-15.313,0-27.77-12.459-27.77-27.773c0-0.552,0.447-1,1-1h53.535c0.553,0,1,0.448,1,1
				C156.504,116.209,144.048,128.668,128.738,128.668z M102.988,101.895c0.526,13.75,11.875,24.773,25.75,24.773
				c13.872,0,25.22-11.023,25.746-24.773H102.988z"/>
		</g>
		<g>
			<path fill="#231F20" d="M92.29,85.572c-0.336,0-0.663-0.168-0.853-0.475c-0.289-0.471-0.144-1.086,0.327-1.377l11.29-6.955
				l-11.778-7.254c-0.471-0.289-0.616-0.905-0.327-1.375c0.29-0.471,0.905-0.618,1.376-0.328l13.16,8.105
				c0.296,0.183,0.476,0.505,0.476,0.852c0,0.348-0.18,0.67-0.476,0.852l-12.672,7.807C92.65,85.525,92.469,85.572,92.29,85.572z"/>
		</g>
		<g>
			<path fill="#231F20" d="M162.409,85.572c-0.179,0-0.36-0.047-0.523-0.148l-12.668-7.807c-0.296-0.182-0.476-0.504-0.476-0.852
				c0-0.347,0.18-0.669,0.476-0.852l13.156-8.105c0.469-0.29,1.085-0.143,1.376,0.328c0.289,0.47,0.144,1.086-0.327,1.375
				l-11.774,7.254l11.286,6.955c0.471,0.291,0.616,0.906,0.327,1.377C163.072,85.404,162.745,85.572,162.409,85.572z"/>
		</g>
		<g>
			<g>
				<path fill="#231F20" d="M31.847,34.228c0.437,2.528,0.765,5.05,0.983,7.562c0.218,2.513,0.39,5.018,0.515,7.515
					c0.031,0.28,0,0.522-0.094,0.726s-0.21,0.383-0.351,0.539s-0.281,0.28-0.422,0.374s-0.257,0.141-0.351,0.141
					c-0.344,0-0.679-0.164-1.007-0.491c-0.328-0.328-0.523-0.757-0.585-1.288c-0.094-1.187-0.188-2.372-0.281-3.559
					c-0.094-1.186-0.203-2.372-0.328-3.558c-3.277,0.905-6.741,1.701-10.394,2.387c0.124,0.688,0.249,1.375,0.375,2.061
					c0.124,0.688,0.265,1.374,0.421,2.061c0.03,0.125,0.054,0.328,0.07,0.608c0.016,0.28,0,0.577-0.047,0.89
					s-0.141,0.602-0.281,0.866s-0.351,0.46-0.632,0.585c-0.25,0.031-0.515-0.047-0.796-0.234s-0.468-0.374-0.562-0.562
					c-0.375-0.968-0.726-2.122-1.054-3.465c-0.328-1.341-0.608-2.754-0.843-4.237c-0.234-1.482-0.397-2.988-0.491-4.518
					s-0.11-2.996-0.047-4.401c0.062-0.468,0.241-0.804,0.538-1.007c0.296-0.202,0.569-0.304,0.819-0.304
					c0.281,0,0.522,0.093,0.726,0.28s0.366,0.422,0.492,0.703c0.124,0.281,0.218,0.562,0.28,0.842
					c0.063,0.281,0.094,0.516,0.094,0.703c0.031,0.999,0.078,1.982,0.141,2.949c0.063,0.968,0.171,1.936,0.328,2.902
					c1.592-0.217,3.323-0.521,5.196-0.912s3.636-0.835,5.291-1.334c-0.063-0.719-0.141-1.443-0.234-2.178
					c-0.094-0.732-0.188-1.459-0.281-2.178c0-0.529,0.164-0.998,0.492-1.404c0.327-0.404,0.663-0.608,1.007-0.608
					c0.249,0,0.507,0.125,0.772,0.374C31.573,33.308,31.753,33.697,31.847,34.228z"/>
			</g>
			<g>
				<path fill="#231F20" d="M42.193,48.883c0.031,0.125,0.047,0.304,0.047,0.538c0,0.233-0.047,0.468-0.141,0.702
					s-0.227,0.438-0.397,0.608c-0.172,0.172-0.414,0.258-0.726,0.258c-0.688-0.437-1.265-1.015-1.732-1.732
					c-0.25-0.937-0.477-2.013-0.679-3.23c-0.204-1.218-0.368-2.489-0.492-3.815c-0.125-1.326-0.211-2.676-0.258-4.051
					c-0.046-1.373-0.055-2.699-0.023-3.979c0-0.219,0.023-0.5,0.07-0.844c0.047-0.343,0.133-0.679,0.258-1.006
					c0.124-0.328,0.281-0.609,0.469-0.844c0.187-0.233,0.451-0.351,0.796-0.351c0.405,0,0.732,0.125,0.982,0.374
					c0.25,0.25,0.375,0.656,0.375,1.218c-0.031,1.249-0.023,2.583,0.023,4.003c0.047,1.421,0.132,2.849,0.258,4.284
					c0.124,1.437,0.288,2.833,0.491,4.19C41.717,46.564,41.943,47.79,42.193,48.883z"/>
			</g>
			<g>
				<path fill="#231F20" d="M56.567,41.297c0.562,1.53,1.342,2.295,2.341,2.295c0.655,0,1.334-0.141,2.036-0.422
					s1.396-0.632,2.084-1.053c0.686-0.422,1.342-0.858,1.966-1.312c0.624-0.452,1.171-0.866,1.639-1.241
					c0.313-0.217,0.616-0.351,0.913-0.397c0.297-0.046,0.601,0.056,0.913,0.305c0.25,0.219,0.422,0.515,0.516,0.89
					c0.093,0.375,0.03,0.687-0.188,0.936c-0.813,0.844-1.709,1.624-2.692,2.342c-0.983,0.719-1.959,1.326-2.926,1.826
					c-0.968,0.499-1.873,0.889-2.716,1.17s-1.515,0.406-2.014,0.375c-1.154-0.063-1.989-0.375-2.505-0.937
					c-0.515-0.562-0.976-1.342-1.381-2.341c-0.156-0.438-0.383-0.804-0.679-1.101c-0.297-0.296-0.726-0.444-1.288-0.444
					c-0.812,0-1.529,0.336-2.153,1.006c-0.625,0.672-1.108,1.46-1.451,2.365c-0.156,0.344-0.414,0.538-0.772,0.584
					c-0.359,0.047-0.602,0.056-0.726,0.023c-0.438-0.093-0.766-0.264-0.983-0.514c-0.219-0.25-0.328-0.516-0.328-0.797
					c0.094-0.873,0.367-1.686,0.819-2.434c0.452-0.75,1.007-1.405,1.662-1.967c0.655-0.563,1.382-0.999,2.178-1.312
					c0.796-0.312,1.568-0.468,2.317-0.468C54.741,38.676,55.88,39.55,56.567,41.297z"/>
			</g>
		</g>
	</g>
</g>
</svg>
