<?xml version="1.0" encoding="utf-8"?>
<!-- Generator: Adobe Illustrator 13.0.0, SVG Export Plug-In . SVG Version: 6.00 Build 14948)  -->
<svg version="1.2" baseProfile="tiny" id="Layer_1" xmlns="http://www.w3.org/2000/svg" xmlns:xlink="http://www.w3.org/1999/xlink"
	 x="0px" y="0px" width="591.826px" height="471.063px" viewBox="0 0 591.826 471.063" xml:space="preserve">
<g>
	<path fill="#FFFFFF" stroke="#231F20" stroke-width="2" stroke-miterlimit="10" d="M522.332,235.813
		c0-23.021-12.037-43.219-30.151-54.676c10.055-19.021,10.421-42.621-1.127-62.627c-11.512-19.938-32.038-31.41-53.455-32.279
		c-0.797-21.496-12.284-42.121-32.286-53.67c-19.938-11.51-43.451-11.182-62.434-1.227C331.438,13.115,311.182,1,288.084,1
		c-23.024,0-43.223,12.037-54.685,30.154c-19.015-10.057-42.615-10.426-62.62,1.123C150.84,43.791,139.368,64.316,138.5,85.734
		c-21.496,0.799-42.121,12.281-53.668,32.285c-11.513,19.941-11.185,43.449-1.229,62.434
		c-18.215,11.439-30.334,31.699-30.334,54.797c0,23.023,12.038,43.221,30.154,54.682C73.365,308.947,73,332.551,84.55,352.553
		c11.51,19.939,32.033,31.41,53.452,32.281c0.8,21.494,12.284,42.119,32.287,53.668c19.941,11.514,43.451,11.184,62.433,1.227
		c11.438,18.219,31.698,30.334,54.798,30.334c23.022,0,43.218-12.037,54.679-30.15c19.018,10.055,42.621,10.422,62.624-1.127
		c19.939-11.512,31.41-32.035,32.279-53.455c21.495-0.801,42.12-12.283,53.67-32.287c11.51-19.939,11.183-43.449,1.225-62.434
		C510.216,279.17,522.332,258.912,522.332,235.813z"/>
	<g>
		<g>
			<path fill="#D1EDF6" d="M569.211,140.002c5.787-24.889-8.143-51.803-28.729-29.445l0.009,0.025c-0.005,0-0.01-0.002-0.015-0.002
				c2.786-17.611-0.38-33.891-13.335-37.813c-20.403-6.178-36.308,24.877-44.33,47.414c-5.146,14.457-21.478,65.445,3.488,102.402
				c6.024,8.918,19.24,18.051,29.85,18.955c15.487,1.318,30.432-2.717,39.092-12.094c8.956-9.701,12.82-19.086,10.914-29.91
				c7.871-3.244,19.904-10.557,23.585-32.102C593.703,144.225,581.746,128.539,569.211,140.002z"/>
		</g>
		<g>
			<g>
				<path fill="#D1EDF6" d="M536.868,203.732c-14.767,12.037-28.036,1.738-28.524-12.785c-0.656-19.447,19.115-23.84,30.024-21.699
					c14.407,2.824,22.09,13.404,25.836,23.287c5.278,13.92,1.866,25.18-8.964,36.91c-8.66,9.377-23.604,13.412-39.092,12.094
					c-10.609-0.904-23.825-10.037-29.85-18.955c-24.966-36.957-8.634-87.945-3.488-102.402c8.022-22.537,23.927-53.592,44.33-47.414
					c20.918,6.332,16.332,44.883,2.329,69.229"/>
				<path fill="#231F20" d="M521.832,243.082c-1.904,0-3.838-0.082-5.794-0.248c-11.554-0.984-24.993-10.898-30.816-19.521
					c-23.938-35.438-10.517-84.232-3.636-103.566c6.002-16.863,22.494-55.324,45.933-48.223c5.843,1.768,10.089,5.906,12.621,12.295
					c6.438,16.24-0.112,42.43-9.543,58.826c-0.359,0.621-1.153,0.836-1.775,0.479s-0.837-1.152-0.479-1.775
					c10.734-18.66,14.767-42.98,9.38-56.57c-2.226-5.617-5.914-9.238-10.958-10.766c-21.89-6.629-38.24,33.996-42.729,46.605
					c-6.751,18.963-19.935,66.787,3.341,101.24c5.489,8.127,18.094,17.467,28.882,18.387c15.811,1.336,30.028-3.021,38.026-11.682
					c11.025-11.941,13.629-22.578,8.704-35.566c-3.288-8.672-10.271-19.611-24.871-22.473c-6.35-1.244-16.033-0.156-22.295,5.176
					c-4.317,3.676-6.396,8.793-6.181,15.205c0.239,7.129,3.821,13.293,9.124,15.703c5.18,2.354,11.317,0.979,17.28-3.883
					c0.559-0.455,1.376-0.367,1.83,0.186c0.453,0.557,0.369,1.375-0.188,1.83c-6.767,5.516-13.868,7.02-20,4.234
					c-6.289-2.859-10.368-9.75-10.645-17.982c-0.241-7.143,2.211-13.117,7.094-17.273c6.953-5.922,17.305-7.152,24.479-5.746
					c15.771,3.09,23.28,14.813,26.802,24.102c5.254,13.854,2.408,25.652-9.227,38.254
					C548.664,238.482,536.092,243.082,521.832,243.082z"/>
			</g>
			<g>
				<path fill="#D1EDF6" d="M569.053,140.682c12.756-12.572,24.718,3.16,20.687,26.752c-3.733,21.857-15.264,28.744-23.123,31.918"
					/>
				<path fill="#231F20" d="M566.616,200.65c-0.515,0-1-0.307-1.206-0.813c-0.268-0.666,0.054-1.424,0.72-1.693
					c7.858-3.172,18.725-9.832,22.328-30.93c2.587-15.146-1.632-25.979-7.138-28.852c-3.446-1.797-7.375-0.68-11.355,3.244
					c-0.513,0.508-1.335,0.5-1.838-0.012c-0.504-0.512-0.5-1.334,0.013-1.84c4.792-4.725,9.901-6.039,14.383-3.697
					c7.513,3.92,11.007,16.912,8.498,31.594c-4.265,24.967-19.057,30.941-23.918,32.904
					C566.943,200.621,566.777,200.65,566.616,200.65z"/>
			</g>
			<g>
				<path fill="#D1EDF6" d="M540.481,110.557c27.218-29.557,42.808,27.002,16.572,51.148"/>
				<path fill="#231F20" d="M557.054,163.004c-0.35,0-0.7-0.141-0.956-0.42c-0.486-0.527-0.453-1.35,0.076-1.836
					c12.627-11.621,14.965-30.402,11.792-42.934c-1.949-7.701-5.81-12.814-10.591-14.025c-4.715-1.197-10.228,1.447-15.938,7.648
					c-0.486,0.529-1.308,0.561-1.837,0.074c-0.528-0.486-0.562-1.309-0.075-1.836c8.081-8.775,14.516-9.41,18.488-8.408
					c5.736,1.455,10.281,7.252,12.474,15.91c3.353,13.254,0.856,33.141-12.554,45.482
					C557.685,162.891,557.369,163.004,557.054,163.004z"/>
			</g>
		</g>
	</g>
	<g>
		<g>
			<path fill="#D1EDF6" d="M33.99,356.076c-23.825-9.232-38.224-35.898-8.155-40.322l0.017,0.021
				c0.003-0.004,0.004-0.01,0.007-0.014c-16.122-7.615-27.793-19.398-23.739-32.313c6.386-20.338,41.003-15.994,64.146-9.932
				c14.843,3.887,66.178,19.104,82.658,60.547c3.977,10,4.082,26.064-1.146,35.34c-7.631,13.541-19.381,23.619-32.006,25.494
				c-13.062,1.938-22.991-0.152-30.863-7.824c-7.112,4.678-19.934,10.504-39.81,1.412C23.688,378.693,17.459,359.98,33.99,356.076z"
				/>
		</g>
		<g>
			<g>
				<path fill="#D1EDF6" d="M104.868,365.238c18.263-5.426,17.226-22.189,5.499-30.771c-15.702-11.494-30.465,2.369-34.84,12.59
					c-5.78,13.496-1.362,25.805,4.694,34.465c8.53,12.201,19.758,15.721,35.55,13.377c12.625-1.875,24.375-11.953,32.006-25.494
					c5.229-9.275,5.123-25.34,1.146-35.34c-16.48-41.443-67.815-56.66-82.658-60.547c-23.144-6.063-57.761-10.406-64.146,9.932
					c-6.546,20.854,27.895,38.771,55.898,40.908"/>
				<path fill="#231F20" d="M107.225,396.877c-12.272,0-21.126-4.68-28.067-14.611c-5.694-8.141-11.152-20.945-4.826-35.721
					c2.876-6.721,9.725-14.582,18.535-16.994c6.182-1.691,12.501-0.355,18.269,3.867c6.647,4.865,10.045,12.115,8.865,18.922
					c-1.148,6.635-6.391,11.658-14.761,14.145c-0.698,0.199-1.413-0.189-1.617-0.875c-0.204-0.689,0.187-1.414,0.876-1.617
					c7.373-2.191,11.969-6.486,12.94-12.096c0.994-5.74-2.084-12.168-7.84-16.381c-5.178-3.791-10.577-4.951-16.045-3.457
					c-7.933,2.172-14.286,9.563-16.833,15.51c-5.855,13.678-0.749,25.607,4.566,33.207c7.96,11.387,18.217,15.227,34.294,12.836
					c11.658-1.73,23.271-11.02,31.065-24.846c5.314-9.432,4.693-25.107,1.068-34.221c-15.364-38.639-62.309-54.672-81.777-59.77
					c-49.815-13.047-60.357,1.992-62.578,9.064c-1.579,5.029-0.661,10.115,2.726,15.117c8.196,12.104,30.565,22.467,52.032,24.105
					c0.716,0.055,1.251,0.678,1.197,1.395c-0.055,0.715-0.657,1.254-1.396,1.197c-18.86-1.438-44.192-10.773-53.987-25.24
					c-3.854-5.691-4.881-11.529-3.053-17.354c7.335-23.361,48.4-15.334,65.715-10.801c19.854,5.199,67.734,21.584,83.539,61.326
					c3.844,9.668,4.471,26.355-1.223,36.457c-8.184,14.52-20.502,24.293-32.949,26.141
					C112.869,396.645,109.961,396.877,107.225,396.877z"/>
			</g>
			<g>
				<path fill="#D1EDF6" d="M34.641,356.328c-17.572,3.463-11.308,22.205,10.458,32.158c20.164,9.225,32.348,3.574,39.397-1.135"/>
				<path fill="#231F20" d="M65.339,394.691c-5.734,0-12.648-1.303-20.78-5.021c-13.545-6.195-22.314-16.398-21.323-24.814
					c0.591-5.02,4.553-8.502,11.155-9.805c0.698-0.137,1.387,0.32,1.527,1.025c0.139,0.705-0.32,1.387-1.025,1.527
					c-5.482,1.08-8.621,3.693-9.074,7.557c-0.728,6.168,5.849,15.756,19.821,22.145c19.467,8.904,31.089,3.676,38.135-1.033
					c0.599-0.398,1.403-0.236,1.804,0.357c0.398,0.6,0.237,1.404-0.359,1.805C82.397,390.316,75.85,394.691,65.339,394.691z"/>
			</g>
			<g>
				<path fill="#D1EDF6" d="M25.835,315.754c-39.751,5.848-1.792,50.58,32.936,42.496"/>
				<path fill="#231F20" d="M50.112,360.533c-14.57,0-28.169-7.748-35.704-16.258c-5.919-6.684-8.15-13.705-6.12-19.264
					c1.405-3.852,5.558-8.809,17.358-10.543c0.712-0.117,1.369,0.387,1.475,1.096c0.104,0.711-0.386,1.371-1.097,1.477
					c-8.337,1.227-13.626,4.291-15.295,8.861c-1.691,4.635,0.358,10.703,5.626,16.65c8.57,9.68,25.406,18.32,42.121,14.432
					c0.692-0.166,1.397,0.271,1.56,0.973c0.164,0.699-0.271,1.396-0.971,1.559C56.069,360.215,53.07,360.533,50.112,360.533z"/>
			</g>
		</g>
	</g>
</g>
</svg>
