<svg xmlns:rdf="http://www.w3.org/1999/02/22-rdf-syntax-ns#" xmlns="http://www.w3.org/2000/svg" version="1.1" xmlns:cc="http://creativecommons.org/ns#" xmlns:xlink="http://www.w3.org/1999/xlink" viewBox="0 0 1280 1024" xmlns:dc="http://purl.org/dc/elements/1.1/">
	<defs></defs>
	<metadata>
		<rdf:RDF>
			<cc:Work rdf:about="">
				<dc:format>image/svg+xml</dc:format>
				<dc:type rdf:resource="http://purl.org/dc/dcmitype/StillImage"/>
				<dc:title/>
			</cc:Work>
		</rdf:RDF>
	</metadata>
	<use xlink:href="#use3342" transform="matrix(1.0648376,0,0,1.0648376,51.509215,-15.906221)" height="1024" width="1280" y="0" x="0"/>
	<use xlink:href="#use3342" transform="matrix(0.85634092,0,0,0.85634092,96.262121,-22.742763)" height="1024" width="1280" y="0" x="0"/>
	<use xlink:href="#use3342" transform="matrix(0.84802544,0,0,0.84802544,108.62205,-13.314113)" height="1024" width="1280" y="0" x="0"/>
	<use xlink:href="#use3342" transform="matrix(0.81544107,0,0,0.81544107,122.68707,-19.874864)" height="1024" width="1280" y="0" x="0"/>
	<use xlink:href="#use3342" transform="matrix(0.8115131,0,0,0.8115131,135.44455,-18.830609)" height="1024" width="1280" y="0" x="0"/>
	<use xlink:href="#use3342" transform="matrix(0.84751974,0,0,0.84751974,146.65474,-9.3240832)" height="1024" width="1280" y="0" x="0"/>
	<use xlink:href="#use3342" transform="matrix(0.85509536,0,0,0.85509536,166.76754,-5.1432084)" height="1024" width="1280" y="0" x="0"/>
	<use xlink:href="#use3342" transform="matrix(0.86471896,0,0,0.86471896,197.35979,-3.2358586)" height="1024" width="1280" y="0" x="0"/>
	<use xlink:href="#use3342" transform="matrix(0.89501617,0,0,0.89501617,220.90776,-17.49448)" height="1024" width="1280" y="0" x="0"/>
	<use xlink:href="#use3342" transform="matrix(0.92298548,0,0,0.92298548,237.57783,-17.73653)" height="1024" width="1280" y="0" x="0"/>
	<use xlink:href="#use3344" transform="matrix(1.1871104,0,0,1.1871104,35.87908,-18.859946)" height="1024" width="1280" y="0" x="0"/>
	<use xlink:href="#use3344" transform="matrix(1.0791677,0,0,1.0791677,66.326324,-13.960899)" height="1024" width="1280" y="0" x="0"/>
	<use xlink:href="#use3344" transform="matrix(1.0155117,0,0,1.0155117,89.075509,-18.943251)" height="1024" width="1280" y="0" x="0"/>
	<use xlink:href="#use3344" transform="matrix(0.9936948,0,0,0.9936948,106.697,-20.986915)" height="1024" width="1280" y="0" x="0"/>
	<use xlink:href="#use3344" transform="matrix(0.97563958,0,0,0.97563958,126.83304,-21.652937)" height="1024" width="1280" y="0" x="0"/>
	<use xlink:href="#use3344" transform="matrix(0.96671304,0,0,0.96671304,147.71618,-18.282971)" height="1024" width="1280" y="0" x="0"/>
	<use xlink:href="#use3344" transform="matrix(0.94056436,0,0,0.94056436,173.72065,-12.670425)" height="1024" width="1280" y="0" x="0"/>
	<use xlink:href="#use3344" transform="matrix(0.90127838,0,0,0.90127838,198.34868,-21.80085)" height="1024" width="1280" y="0" x="0"/>
	<use xlink:href="#use3344" transform="matrix(0.91131667,0,0,0.91131667,218.03886,-24.075725)" height="1024" width="1280" y="0" x="0"/>
	<use xlink:href="#use3344" transform="matrix(0.93182783,0,0,0.93182783,235.27813,-24.324056)" height="1024" width="1280" y="0" x="0"/>
	<use xlink:href="#use3346" transform="matrix(1.0994295,0,0,1.0994295,31.356123,10.247316)" height="1024" width="1280" y="0" x="0"/>
	<use xlink:href="#use3346" transform="matrix(1.1417031,0,0,1.1417031,54.034987,-6.9931995)" height="1024" width="1280" y="0" x="0"/>
	<use xlink:href="#use3346" transform="matrix(1.1622841,0,0,1.1622841,68.56082,-21.048454)" height="1024" width="1280" y="0" x="0"/>
	<use xlink:href="#use3346" transform="matrix(1.1704369,0,0,1.1704369,83.423279,-31.467376)" height="1024" width="1280" y="0" x="0"/>
	<use xlink:href="#use3346" transform="matrix(1.1817038,0,0,1.1817038,106.29467,-35.512555)" height="1024" width="1280" y="0" x="0"/>
	<use xlink:href="#use3346" transform="matrix(1.1507065,0,0,1.1507065,134.01488,-30.417871)" height="1024" width="1280" y="0" x="0"/>
	<use xlink:href="#use3346" transform="matrix(1.0911719,0,0,1.0911719,163.07636,-25.259381)" height="1024" width="1280" y="0" x="0"/>
	<use xlink:href="#use3346" transform="matrix(1.0349357,0,0,1.0349357,189.63214,-28.92571)" height="1024" width="1280" y="0" x="0"/>
	<use xlink:href="#use3346" transform="matrix(0.99247501,0,0,0.99247501,211.7891,-33.207505)" height="1024" width="1280" y="0" x="0"/>
	<use xlink:href="#use3346" transform="matrix(0.99420584,0,0,0.99420584,232.93412,-35.037062)" height="1024" width="1280" y="0" x="0"/>
	<use xlink:href="#use3348" transform="matrix(1.0238142,0,0,1.0238142,33.944371,19.168226)" height="1024" width="1280" y="0" x="0"/>
	<use xlink:href="#use3348" transform="matrix(1.0508535,0,0,1.0508535,60.949263,2.7542275)" height="1024" width="1280" y="0" x="0"/>
	<use xlink:href="#use3348" transform="matrix(1.0865885,0,0,1.0865885,78.089346,-11.501512)" height="1024" width="1280" y="0" x="0"/>
	<use xlink:href="#use3348" transform="matrix(1.1022832,0,0,1.1022832,95.976575,-18.992781)" height="1024" width="1280" y="0" x="0"/>
	<use xlink:href="#use3348" transform="matrix(1.0810419,0,0,1.0810419,118.61871,-17.236804)" height="1024" width="1280" y="0" x="0"/>
	<use xlink:href="#use3348" transform="matrix(1.0450154,0,0,1.0450154,142.41148,-12.023945)" height="1024" width="1280" y="0" x="0"/>
	<use xlink:href="#use3348" transform="matrix(1.0375252,0,0,1.0375252,165.81347,-11.738906)" height="1024" width="1280" y="0" x="0"/>
	<use xlink:href="#use3348" transform="matrix(1.0786724,0,0,1.0786724,182.89082,-24.186715)" height="1024" width="1280" y="0" x="0"/>
	<use xlink:href="#use3348" transform="matrix(1.1044312,0,0,1.1044312,201.91254,-40.625288)" height="1024" width="1280" y="0" x="0"/>
	<use xlink:href="#use3348" transform="matrix(1.1177104,0,0,1.1177104,228.3375,-48.748602)" height="1024" width="1280" y="0" x="0"/>
	<use xlink:href="#use3350" transform="matrix(1.0008948,0,0,1.0008948,30.362795,15.809882)" height="1024" width="1280" y="0" x="0"/>
	<use xlink:href="#use3350" transform="matrix(0.99410934,0,0,0.99410934,61.539625,5.973946)" height="1024" width="1280" y="0" x="0"/>
	<use xlink:href="#use3350" transform="matrix(0.98301856,0,0,0.98301856,86.47735,-1.7944198)" height="1024" width="1280" y="0" x="0"/>
	<use xlink:href="#use3350" transform="matrix(0.95030457,0,0,0.95030457,111.1199,-0.89992937)" height="1024" width="1280" y="0" x="0"/>
	<use xlink:href="#use3350" transform="matrix(0.91967188,0,0,0.91967188,133.78479,2.506584)" height="1024" width="1280" y="0" x="0"/>
	<use xlink:href="#use3350" transform="matrix(0.9057619,0,0,0.9057619,155.30044,5.5730653)" height="1024" width="1280" y="0" x="0"/>
	<use xlink:href="#use3350" transform="matrix(0.92787652,0,0,0.92787652,174.4181,3.9636167)" height="1024" width="1280" y="0" x="0"/>
	<use xlink:href="#use3350" transform="matrix(0.99276565,0,0,0.99276565,186.9431,-8.0633907)" height="1024" width="1280" y="0" x="0"/>
	<use xlink:href="#use3350" transform="matrix(1.1185075,0,0,1.1185075,198.71271,-34.780286)" height="1024" width="1280" y="0" x="0"/>
	<use xlink:href="#use3350" transform="matrix(1.2746204,0,0,1.2746204,220.53609,-67.459305)" height="1024" width="1280" y="0" x="0"/>
	<use xlink:href="#use3352" transform="matrix(0.99896002,0,0,0.99896002,28.019929,2.5890057)" height="1024" width="1280" y="0" x="0"/>
	<use xlink:href="#use3352" transform="matrix(0.98510486,0,0,0.98510486,57.627446,6.6346918)" height="1024" width="1280" y="0" x="0"/>
	<use xlink:href="#use3352" transform="matrix(0.9399076,0,0,0.9399076,89.81719,8.1194248)" height="1024" width="1280" y="0" x="0"/>
	<use xlink:href="#use3352" transform="matrix(0.87223847,0,0,0.87223847,118.18269,15.592146)" height="1024" width="1280" y="0" x="0"/>
	<use xlink:href="#use3352" transform="matrix(0.83878353,0,0,0.83878353,141.85599,19.702419)" height="1024" width="1280" y="0" x="0"/>
	<use xlink:href="#use3352" transform="matrix(0.84742163,0,0,0.84742163,163.03598,19.622696)" height="1024" width="1280" y="0" x="0"/>
	<use xlink:href="#use3352" transform="matrix(0.89954726,0,0,0.89954726,178.84189,13.292707)" height="1024" width="1280" y="0" x="0"/>
	<use xlink:href="#use3352" transform="matrix(0.98468391,0,0,0.98468391,189.95784,0.86108706)" height="1024" width="1280" y="0" x="0"/>
	<use xlink:href="#use3352" transform="matrix(1.1478343,0,0,1.1478343,199.80142,-27.362786)" height="1024" width="1280" y="0" x="0"/>
	<use xlink:href="#use3352" transform="matrix(1.4169021,0,0,1.4169021,216.18868,-78.134159)" height="1024" width="1280" y="0" x="0"/>
	<use xlink:href="#use3354" transform="matrix(0.98433547,0,0,0.98433547,30.902784,16.077026)" height="1024" width="1280" y="0" x="0"/>
	<use xlink:href="#use3354" transform="matrix(0.97830397,0,0,0.97830397,52.256794,15.522351)" height="1024" width="1280" y="0" x="0"/>
	<use xlink:href="#use3354" transform="matrix(0.97494391,0,0,0.97494391,79.347482,8.9271167)" height="1024" width="1280" y="0" x="0"/>
	<use xlink:href="#use3354" transform="matrix(0.91082576,0,0,0.91082576,112.31759,13.196957)" height="1024" width="1280" y="0" x="0"/>
	<use xlink:href="#use3354" transform="matrix(0.86277437,0,0,0.86277437,140.98645,19.394165)" height="1024" width="1280" y="0" x="0"/>
	<use xlink:href="#use3354" transform="matrix(0.88437281,0,0,0.88437281,163.78753,15.620384)" height="1024" width="1280" y="0" x="0"/>
	<use xlink:href="#use3354" transform="matrix(0.95253717,0,0,0.95253717,178.8021,5.5692645)" height="1024" width="1280" y="0" x="0"/>
	<use xlink:href="#use3354" transform="matrix(1.047569,0,0,1.047569,189.90186,-6.908195)" height="1024" width="1280" y="0" x="0"/>
	<use xlink:href="#use3354" transform="matrix(1.1712396,0,0,1.1712396,203.52454,-25.024403)" height="1024" width="1280" y="0" x="0"/>
	<use xlink:href="#use3354" transform="matrix(1.2621887,0,0,1.2621887,232.10112,-38.642665)" height="1024" width="1280" y="0" x="0"/>
	<use xlink:href="#use3356" transform="matrix(0.86175121,0,0,0.86175121,35.556322,53.760397)" height="1024" width="1280" y="0" x="0"/>
	<use xlink:href="#use3356" transform="matrix(0.83547231,0,0,0.83547231,53.214362,60.723328)" height="1024" width="1280" y="0" x="0"/>
	<use xlink:href="#use3356" transform="matrix(0.86051621,0,0,0.86051621,70.808246,52.289976)" height="1024" width="1280" y="0" x="0"/>
	<use xlink:href="#use3356" transform="matrix(0.93528149,0,0,0.93528149,94.277122,28.138658)" height="1024" width="1280" y="0" x="0"/>
	<use xlink:href="#use3356" transform="matrix(0.96118484,0,0,0.96118484,127.44933,14.056846)" height="1024" width="1280" y="0" x="0"/>
	<use xlink:href="#use3356" transform="matrix(0.96485736,0,0,0.96485736,158.55425,9.9030185)" height="1024" width="1280" y="0" x="0"/>
	<use xlink:href="#use3356" transform="matrix(1.0155232,0,0,1.0155232,178.35728,0.36080813)" height="1024" width="1280" y="0" x="0"/>
	<use xlink:href="#use3356" transform="matrix(1.0651971,0,0,1.0651971,194.39323,-4.6198483)" height="1024" width="1280" y="0" x="0"/>
	<use xlink:href="#use3356" transform="matrix(1.0963009,0,0,1.0963009,216.27989,-3.523931)" height="1024" width="1280" y="0" x="0"/>
	<use xlink:href="#use3356" transform="matrix(1.0822007,0,0,1.0822007,251.96854,6.9791775)" height="1024" width="1280" y="0" x="0"/>
	<use xlink:href="#use3358" transform="matrix(0.77555944,0,0,0.77555944,36.722172,76.543472)" height="1024" width="1280" y="0" x="0"/>
	<use xlink:href="#use3358" transform="matrix(0.74811092,0,0,0.74811092,53.305315,84.646333)" height="1024" width="1280" y="0" x="0"/>
	<use xlink:href="#use3358" transform="matrix(0.75693991,0,0,0.75693991,68.948268,82.213281)" height="1024" width="1280" y="0" x="0"/>
	<use xlink:href="#use3358" transform="matrix(0.82053363,0,0,0.82053363,88.755255,63.335356)" height="1024" width="1280" y="0" x="0"/>
	<use xlink:href="#use3358" transform="matrix(0.94994831,0,0,0.94994831,116.63043,24.046498)" height="1024" width="1280" y="0" x="0"/>
	<use xlink:href="#use3358" transform="matrix(0.99114583,0,0,0.99114583,153.53399,8.0034444)" height="1024" width="1280" y="0" x="0"/>
	<use xlink:href="#use3358" transform="matrix(1.0078197,0,0,1.0078197,180.97811,2.1591579)" height="1024" width="1280" y="0" x="0"/>
	<use xlink:href="#use3358" transform="matrix(1.0274174,0,0,1.0274174,202.6733,0.84337117)" height="1024" width="1280" y="0" x="0"/>
	<use xlink:href="#use3358" transform="matrix(1.032242,0,0,1.032242,228.86172,6.485112)" height="1024" width="1280" y="0" x="0"/>
	<use xlink:href="#use3358" transform="matrix(1.0182664,0,0,1.0182664,262.23283,15.247471)" height="1024" width="1280" y="0" x="0"/>
	<use xlink:href="#use3360" transform="matrix(0.74309942,0,0,0.74309942,34.863645,81.758648)" height="1024" width="1280" y="0" x="0"/>
	<use xlink:href="#use3360" transform="matrix(0.71558238,0,0,0.71558238,52.026822,90.073504)" height="1024" width="1280" y="0" x="0"/>
	<use xlink:href="#use3360" transform="matrix(0.72367338,0,0,0.72367338,67.939605,88.226047)" height="1024" width="1280" y="0" x="0"/>
	<use xlink:href="#use3360" transform="matrix(0.78049069,0,0,0.78049069,87.090123,71.873434)" height="1024" width="1280" y="0" x="0"/>
	<use xlink:href="#use3360" transform="matrix(0.91937028,0,0,0.91937028,112.51068,29.79896)" height="1024" width="1280" y="0" x="0"/>
	<use xlink:href="#use3360" transform="matrix(1.0170308,0,0,1.0170308,147.42349,-1.9794097)" height="1024" width="1280" y="0" x="0"/>
	<use xlink:href="#use3360" transform="matrix(1.0175429,0,0,1.0175429,179.6498,-4.4799014)" height="1024" width="1280" y="0" x="0"/>
	<use xlink:href="#use3360" transform="matrix(1.0162541,0,0,1.0162541,207.95728,-2.9956896)" height="1024" width="1280" y="0" x="0"/>
	<use xlink:href="#use3360" transform="matrix(1.0099636,0,0,1.0099636,236.07252,2.8666363)" height="1024" width="1280" y="0" x="0"/>
	<use xlink:href="#use3360" transform="matrix(1.0021549,0,0,1.0021549,266.82715,7.8982404)" height="1024" width="1280" y="0" x="0"/>
	<use xlink:href="#use3362" transform="matrix(0.75132345,0,0,0.75132345,29.808991,74.329668)" height="1024" width="1280" y="0" x="0"/>
	<use xlink:href="#use3362" transform="matrix(0.71991372,0,0,0.71991372,49.118391,84.268328)" height="1024" width="1280" y="0" x="0"/>
	<use xlink:href="#use3362" transform="matrix(0.72989436,0,0,0.72989436,66.550159,81.972267)" height="1024" width="1280" y="0" x="0"/>
	<use xlink:href="#use3362" transform="matrix(0.79877937,0,0,0.79877937,85.476737,61.288217)" height="1024" width="1280" y="0" x="0"/>
	<use xlink:href="#use3362" transform="matrix(0.94664161,0,0,0.94664161,107.77922,12.754496)" height="1024" width="1280" y="0" x="0"/>
	<use xlink:href="#use3362" transform="matrix(1.0737487,0,0,1.0737487,139.90851,-31.666125)" height="1024" width="1280" y="0" x="0"/>
	<use xlink:href="#use3362" transform="matrix(1.079353,0,0,1.079353,175.30007,-35.291428)" height="1024" width="1280" y="0" x="0"/>
	<use xlink:href="#use3362" transform="matrix(1.0567926,0,0,1.0567926,208.7207,-25.558449)" height="1024" width="1280" y="0" x="0"/>
	<use xlink:href="#use3362" transform="matrix(1.0297572,0,0,1.0297572,238.80359,-12.237321)" height="1024" width="1280" y="0" x="0"/>
	<use xlink:href="#use3362" transform="matrix(1.006979,0,0,1.006979,268.1101,-1.9354136)" height="1024" width="1280" y="0" x="0"/>
	<use xlink:href="#use3364" transform="matrix(0.80249771,0,0,0.80249771,22.346649,54.328712)" height="1024" width="1280" y="0" x="0"/>
	<use xlink:href="#use3364" transform="matrix(0.7703316,0,0,0.7703316,44.74019,65.751329)" height="1024" width="1280" y="0" x="0"/>
	<use xlink:href="#use3364" transform="matrix(0.79445012,0,0,0.79445012,63.519821,59.188314)" height="1024" width="1280" y="0" x="0"/>
	<use xlink:href="#use3364" transform="matrix(0.8748106,0,0,0.8748106,79.775374,31.090402)" height="1024" width="1280" y="0" x="0"/>
	<use xlink:href="#use3364" transform="matrix(1.0137885,0,0,1.0137885,98.470302,-20.638403)" height="1024" width="1280" y="0" x="0"/>
	<use xlink:href="#use3364" transform="matrix(1.1803217,0,0,1.1803217,128.62173,-84.079638)" height="1024" width="1280" y="0" x="0"/>
	<use xlink:href="#use3364" transform="matrix(1.1960185,0,0,1.1960185,168.65501,-92.604995)" height="1024" width="1280" y="0" x="0"/>
	<use xlink:href="#use3364" transform="matrix(1.1362648,0,0,1.1362648,209.26428,-67.111964)" height="1024" width="1280" y="0" x="0"/>
	<use xlink:href="#use3364" transform="matrix(1.0726395,0,0,1.0726395,243.02601,-36.31193)" height="1024" width="1280" y="0" x="0"/>
	<use xlink:href="#use3364" transform="matrix(1.0298217,0,0,1.0298217,270.73316,-13.636364)" height="1024" width="1280" y="0" x="0"/>
	<use xlink:href="#use3366" transform="matrix(0.91979947,0,0,0.91979947,11.988022,15.739851)" height="1024" width="1280" y="0" x="0"/>
	<use xlink:href="#use3366" transform="matrix(0.89541938,0,0,0.89541938,37.782927,24.859043)" height="1024" width="1280" y="0" x="0"/>
	<use xlink:href="#use3366" transform="matrix(0.94005718,0,0,0.94005718,56.520925,9.0736463)" height="1024" width="1280" y="0" x="0"/>
	<use xlink:href="#use3366" transform="matrix(1.0187408,0,0,1.0187408,70.348102,-22.586021)" height="1024" width="1280" y="0" x="0"/>
	<use xlink:href="#use3366" transform="matrix(1.153708,0,0,1.153708,85.552376,-78.567254)" height="1024" width="1280" y="0" x="0"/>
	<use xlink:href="#use3366" transform="matrix(1.3864144,0,0,1.3864144,109.98159,-174.58589)" height="1024" width="1280" y="0" x="0"/>
	<use xlink:href="#use3366" transform="matrix(1.4550838,0,0,1.4550838,153.91378,-206.45445)" height="1024" width="1280" y="0" x="0"/>
	<use xlink:href="#use3366" transform="matrix(1.2747787,0,0,1.2747787,208.99846,-130.23796)" height="1024" width="1280" y="0" x="0"/>
	<use xlink:href="#use3366" transform="matrix(1.1250461,0,0,1.1250461,249.0292,-61.780392)" height="1024" width="1280" y="0" x="0"/>
	<use xlink:href="#use3366" transform="matrix(1.0528998,0,0,1.0528998,276.05523,-25.509993)" height="1024" width="1280" y="0" x="0"/>
	<use xlink:href="#use3368" transform="matrix(0.99944176,0,0,0.99944176,4.3591632,-4.1471869)" height="1024" width="1280" y="0" x="0"/>
	<use xlink:href="#use3368" transform="matrix(1.0060214,0,0,1.0060214,31.981598,-7.2669128)" height="1024" width="1280" y="0" x="0"/>
	<use xlink:href="#use3368" transform="matrix(1.0533273,0,0,1.0533273,51.73412,-26.338115)" height="1024" width="1280" y="0" x="0"/>
	<use xlink:href="#use3368" transform="matrix(1.1311096,0,0,1.1311096,64.901998,-59.89832)" height="1024" width="1280" y="0" x="0"/>
	<use xlink:href="#use3368" transform="matrix(1.2888294,0,0,1.2888294,76.590445,-128.6216)" height="1024" width="1280" y="0" x="0"/>
	<use xlink:href="#use3368" transform="matrix(1.6998797,0,0,1.6998797,86.249089,-306.43622)" height="1024" width="1280" y="0" x="0"/>
	<use xlink:href="#use3368" transform="matrix(2.1637855,0,0,2.1637855,113.41212,-505.00108)" height="1024" width="1280" y="0" x="0"/>
	<use xlink:href="#use3368" transform="matrix(1.4813735,0,0,1.4813735,204.04225,-213.75809)" height="1024" width="1280" y="0" x="0"/>
	<use xlink:href="#use3368" transform="matrix(1.1701418,0,0,1.1701418,252.95601,-77.41823)" height="1024" width="1280" y="0" x="0"/>
	<use xlink:href="#use3368" transform="matrix(1.0678452,0,0,1.0678452,279.34527,-30.528128)" height="1024" width="1280" y="0" x="0"/>
	<use xlink:href="#use3370" transform="translate(4.442783,6.6959582)" height="1024" width="1280" y="0" x="0"/>
	<use xlink:href="#use3370" transform="matrix(1.0077628,0,0,1.0077628,31.337065,2.9900006)" height="1024" width="1280" y="0" x="0"/>
	<use xlink:href="#use3370" transform="matrix(1.0544267,0,0,1.0544267,50.971652,-18.719371)" height="1024" width="1280" y="0" x="0"/>
	<use xlink:href="#use3370" transform="matrix(1.123979,0,0,1.123979,64.311399,-49.751182)" height="1024" width="1280" y="0" x="0"/>
	<use xlink:href="#use3370" transform="matrix(1.2585548,0,0,1.2585548,77.74162,-109.20473)" height="1024" width="1280" y="0" x="0"/>
	<use xlink:href="#use3370" transform="matrix(1.644396,0,0,1.644396,91.663077,-281.15522)" height="1024" width="1280" y="0" x="0"/>
	<use xlink:href="#use3370" transform="matrix(2.1189043,0,0,2.1189043,116.59378,-492.68911)" height="1024" width="1280" y="0" x="0"/>
	<use xlink:href="#use3370" transform="matrix(1.4619174,0,0,1.4619174,203.99348,-198.06203)" height="1024" width="1280" y="0" x="0"/>
	<use xlink:href="#use3370" transform="matrix(1.1659451,0,0,1.1659451,252.06192,-68.759884)" height="1024" width="1280" y="0" x="0"/>
	<use xlink:href="#use3370" transform="matrix(1.0676122,0,0,1.0676122,278.43863,-27.540781)" height="1024" width="1280" y="0" x="0"/>
	<use xlink:href="#use3372" transform="translate(5.5116944,9.1406174)" height="1024" width="1280" y="0" x="0"/>
	<use xlink:href="#use3372" transform="matrix(1.003732,0,0,1.003732,30.395304,7.0262981)" height="1024" width="1280" y="0" x="0"/>
	<use xlink:href="#use3372" transform="matrix(1.0409537,0,0,1.0409537,51.399282,-11.808104)" height="1024" width="1280" y="0" x="0"/>
	<use xlink:href="#use3372" transform="matrix(1.0976578,0,0,1.0976578,67.173574,-36.966826)" height="1024" width="1280" y="0" x="0"/>
	<use xlink:href="#use3372" transform="matrix(1.1760015,0,0,1.1760015,86.46869,-70.327883)" height="1024" width="1280" y="0" x="0"/>
	<use xlink:href="#use3372" transform="matrix(1.3080257,0,0,1.3080257,117.15828,-128.77043)" height="1024" width="1280" y="0" x="0"/>
	<use xlink:href="#use3372" transform="matrix(1.3782686,0,0,1.3782686,159.53693,-158.3529)" height="1024" width="1280" y="0" x="0"/>
	<use xlink:href="#use3372" transform="matrix(1.2410404,0,0,1.2410404,208.5894,-96.413685)" height="1024" width="1280" y="0" x="0"/>
	<use xlink:href="#use3372" transform="matrix(1.1185641,0,0,1.1185641,246.65316,-45.964351)" height="1024" width="1280" y="0" x="0"/>
	<use xlink:href="#use3372" transform="matrix(1.0527883,0,0,1.0527883,273.8885,-20.731936)" height="1024" width="1280" y="0" x="0"/>
	<use xlink:href="#use3374" transform="translate(6.1342365,5.8331859)" height="1024" width="1280" y="0" x="0"/>
	<use xlink:href="#use3374" transform="matrix(1.0003715,0,0,1.0003715,29.54155,5.1946557)" height="1024" width="1280" y="0" x="0"/>
	<use xlink:href="#use3374" transform="matrix(1.019873,0,0,1.019873,52.498933,-6.2336791)" height="1024" width="1280" y="0" x="0"/>
	<use xlink:href="#use3374" transform="matrix(1.061138,0,0,1.061138,73.124179,-25.859104)" height="1024" width="1280" y="0" x="0"/>
	<use xlink:href="#use3374" transform="matrix(1.1066374,0,0,1.1066374,98.004299,-44.718579)" height="1024" width="1280" y="0" x="0"/>
	<use xlink:href="#use3374" transform="matrix(1.1477184,0,0,1.1477184,134.61217,-59.185725)" height="1024" width="1280" y="0" x="0"/>
	<use xlink:href="#use3374" transform="matrix(1.1548724,0,0,1.1548724,172.41776,-57.480273)" height="1024" width="1280" y="0" x="0"/>
	<use xlink:href="#use3374" transform="matrix(1.1180111,0,0,1.1180111,206.73093,-41.802102)" height="1024" width="1280" y="0" x="0"/>
	<use xlink:href="#use3374" transform="matrix(1.070028,0,0,1.070028,238.00814,-26.035111)" height="1024" width="1280" y="0" x="0"/>
	<use xlink:href="#use3374" transform="matrix(1.0307375,0,0,1.0307375,266.96906,-13.777825)" height="1024" width="1280" y="0" x="0"/>
	<use xlink:href="#use3376" transform="translate(5.8913961,-0.48431851)" height="1024" width="1280" y="0" x="0"/>
	<use xlink:href="#use3376" transform="translate(28.866762,-0.88718265)" height="1024" width="1280" y="0" x="0"/>
	<use xlink:href="#use3376" transform="matrix(1.0023645,0,0,1.0023645,52.284454,-2.2436962)" height="1024" width="1280" y="0" x="0"/>
	<use xlink:href="#use3376" transform="matrix(1.0230777,0,0,1.0230777,78.861761,-13.517412)" height="1024" width="1280" y="0" x="0"/>
	<use xlink:href="#use3376" transform="matrix(1.0494504,0,0,1.0494504,109.84763,-24.067084)" height="1024" width="1280" y="0" x="0"/>
	<use xlink:href="#use3376" transform="matrix(1.0679941,0,0,1.0679941,146.37317,-27.79518)" height="1024" width="1280" y="0" x="0"/>
	<use xlink:href="#use3376" transform="matrix(1.0703568,0,0,1.0703568,177.15158,-25.460785)" height="1024" width="1280" y="0" x="0"/>
	<use xlink:href="#use3376" transform="matrix(1.0552663,0,0,1.0552663,204.33652,-18.984949)" height="1024" width="1280" y="0" x="0"/>
	<use xlink:href="#use3376" transform="matrix(1.0314259,0,0,1.0314259,230.96041,-11.321153)" height="1024" width="1280" y="0" x="0"/>
	<use xlink:href="#use3376" transform="matrix(1.0096943,0,0,1.0096943,260.01501,-4.3785856)" height="1024" width="1280" y="0" x="0"/>
	<use xlink:href="#use3378" transform="translate(5.2120997,-6.4549036)" height="1024" width="1280" y="0" x="0"/>
	<use xlink:href="#use3378" transform="translate(29.145214,-6.4434874)" height="1024" width="1280" y="0" x="0"/>
	<use xlink:href="#use3378" transform="translate(53.507095,-4.9943725)" height="1024" width="1280" y="0" x="0"/>
	<use xlink:href="#use3378" transform="matrix(1.0010361,0,0,1.0010361,81.896933,-2.8848415)" height="1024" width="1280" y="0" x="0"/>
	<use xlink:href="#use3378" transform="matrix(1.0081904,0,0,1.0081904,118.33929,-3.3146842)" height="1024" width="1280" y="0" x="0"/>
	<use xlink:href="#use3378" transform="matrix(1.0176193,0,0,1.0176193,152.8989,-6.0578035)" height="1024" width="1280" y="0" x="0"/>
	<use xlink:href="#use3378" transform="matrix(1.0206802,0,0,1.0206802,179.36499,-6.986055)" height="1024" width="1280" y="0" x="0"/>
	<use xlink:href="#use3378" transform="matrix(1.0148149,0,0,1.0148149,203.38602,-4.0241009)" height="1024" width="1280" y="0" x="0"/>
	<use xlink:href="#use3378" transform="matrix(1.005289,0,0,1.005289,227.36217,0.63922053)" height="1024" width="1280" y="0" x="0"/>
	<use xlink:href="#use3378" transform="matrix(1.0003753,0,0,1.0003753,254.65619,1.8241103)" height="1024" width="1280" y="0" x="0"/>
	<use xlink:href="#use3380" transform="matrix(1.0000308,0,0,1.0000308,4.3897257,-9.5772107)" height="1024" width="1280" y="0" x="0"/>
	<use xlink:href="#use3380" transform="matrix(1.0000564,0,0,1.0000564,30.27545,-9.378496)" height="1024" width="1280" y="0" x="0"/>
	<use xlink:href="#use3380" transform="matrix(1.0000013,0,0,1.0000013,56.40114,-6.5524194)" height="1024" width="1280" y="0" x="0"/>
	<use xlink:href="#use3380" transform="translate(86.618016,-2.3203104)" height="1024" width="1280" y="0" x="0"/>
	<use xlink:href="#use3380" transform="matrix(1.0000259,0,0,1.0000259,123.01477,2.3022747)" height="1024" width="1280" y="0" x="0"/>
	<use xlink:href="#use3380" transform="matrix(1.0003929,0,0,1.0003929,154.61114,3.3407703)" height="1024" width="1280" y="0" x="0"/>
	<use xlink:href="#use3380" transform="matrix(1.0007738,0,0,1.0007738,180.23387,2.5191618)" height="1024" width="1280" y="0" x="0"/>
	<use xlink:href="#use3380" transform="matrix(1.0004217,0,0,1.0004217,202.97273,1.8523255)" height="1024" width="1280" y="0" x="0"/>
	<use xlink:href="#use3380" transform="matrix(1.0000173,0,0,1.0000173,225.10886,1.2947551)" height="1024" width="1280" y="0" x="0"/>
	<use xlink:href="#use3380" transform="translate(250.78164,0.5674264)" height="1024" width="1280" y="0" x="0"/>
	<use xlink:href="#use3382" transform="matrix(1.0136046,0,0,1.0136046,2.0681661,-21.135479)" height="1024" width="1280" y="0" x="0"/>
	<use xlink:href="#use3382" transform="matrix(1.0213465,0,0,1.0213465,31.188895,-24.99038)" height="1024" width="1280" y="0" x="0"/>
	<use xlink:href="#use3382" transform="matrix(1.016059,0,0,1.016059,59.64697,-16.672692)" height="1024" width="1280" y="0" x="0"/>
	<use xlink:href="#use3382" transform="matrix(1.0037292,0,0,1.0037292,90.261583,-4.2141764)" height="1024" width="1280" y="0" x="0"/>
	<use xlink:href="#use3382" transform="translate(124.73693,-0.33587467)" height="1024" width="1280" y="0" x="0"/>
	<use xlink:href="#use3382" transform="translate(154.89321,-1.2593909)" height="1024" width="1280" y="0" x="0"/>
	<use xlink:href="#use3382" transform="translate(180.39504,-2.5420513)" height="1024" width="1280" y="0" x="0"/>
	<use xlink:href="#use3382" transform="translate(202.9842,-3.6169397)" height="1024" width="1280" y="0" x="0"/>
	<use xlink:href="#use3382" transform="translate(225.05987,-4.0463844)" height="1024" width="1280" y="0" x="0"/>
	<use xlink:href="#use3382" transform="translate(250.34038,-3.6935538)" height="1024" width="1280" y="0" x="0"/>
	<use xlink:href="#use3384" transform="matrix(1.0944826,0,0,1.0944826,-4.6900245,-80.514677)" height="1024" width="1280" y="0" x="0"/>
	<use xlink:href="#use3384" transform="matrix(1.1153447,0,0,1.1153447,28.414447,-94.352843)" height="1024" width="1280" y="0" x="0"/>
	<use xlink:href="#use3384" transform="matrix(1.0882166,0,0,1.0882166,60.712405,-71.19428)" height="1024" width="1280" y="0" x="0"/>
	<use xlink:href="#use3384" transform="matrix(1.040252,0,0,1.040252,92.415994,-34.045515)" height="1024" width="1280" y="0" x="0"/>
	<use xlink:href="#use3384" transform="matrix(1.0040524,0,0,1.0040524,124.44547,-8.7381321)" height="1024" width="1280" y="0" x="0"/>
	<use xlink:href="#use3384" transform="translate(155.16998,-7.4128103)" height="1024" width="1280" y="0" x="0"/>
	<use xlink:href="#use3384" transform="translate(180.53841,-8.5753614)" height="1024" width="1280" y="0" x="0"/>
	<use xlink:href="#use3384" transform="translate(203.99746,-10.245788)" height="1024" width="1280" y="0" x="0"/>
	<use xlink:href="#use3384" transform="translate(227.3187,-10.411181)" height="1024" width="1280" y="0" x="0"/>
	<use xlink:href="#use3384" transform="translate(254.0012,-8.6209855)" height="1024" width="1280" y="0" x="0"/>
	<use xlink:href="#use3386" transform="matrix(1.2778462,0,0,1.2778462,-19.123863,-215.42113)" height="1024" width="1280" y="0" x="0"/>
	<use xlink:href="#use3386" transform="matrix(1.3042569,0,0,1.3042569,19.848032,-235.94034)" height="1024" width="1280" y="0" x="0"/>
	<use xlink:href="#use3386" transform="matrix(1.2217561,0,0,1.2217561,59.52201,-174.30733)" height="1024" width="1280" y="0" x="0"/>
	<use xlink:href="#use3386" transform="matrix(1.1150504,0,0,1.1150504,94.42782,-94.750185)" height="1024" width="1280" y="0" x="0"/>
	<use xlink:href="#use3386" transform="matrix(1.0296128,0,0,1.0296128,126.02646,-31.901076)" height="1024" width="1280" y="0" x="0"/>
	<use xlink:href="#use3386" transform="matrix(1.0005467,0,0,1.0005467,154.89086,-11.780064)" height="1024" width="1280" y="0" x="0"/>
	<use xlink:href="#use3386" transform="translate(181.82323,-11.765994)" height="1024" width="1280" y="0" x="0"/>
	<use xlink:href="#use3386" transform="translate(206.36045,-11.026782)" height="1024" width="1280" y="0" x="0"/>
	<use xlink:href="#use3386" transform="translate(232.32296,-9.805752)" height="1024" width="1280" y="0" x="0"/>
	<use xlink:href="#use3386" transform="translate(261.17659,-6.3860461)" height="1024" width="1280" y="0" x="0"/>
	<use xlink:href="#use3388" transform="matrix(1.6168942,0,0,1.6168942,-44.741409,-467.6489)" height="1024" width="1280" y="0" x="0"/>
	<use xlink:href="#use3388" transform="matrix(1.7023354,0,0,1.7023354,-1.4311323,-532.83806)" height="1024" width="1280" y="0" x="0"/>
	<use xlink:href="#use3388" transform="matrix(1.4773478,0,0,1.4773478,52.394367,-365.86281)" height="1024" width="1280" y="0" x="0"/>
	<use xlink:href="#use3388" transform="matrix(1.24121,0,0,1.24121,95.096693,-188.31788)" height="1024" width="1280" y="0" x="0"/>
	<use xlink:href="#use3388" transform="matrix(1.0851347,0,0,1.0851347,126.88229,-70.812846)" height="1024" width="1280" y="0" x="0"/>
	<use xlink:href="#use3388" transform="matrix(1.0095212,0,0,1.0095212,155.5722,-14.063794)" height="1024" width="1280" y="0" x="0"/>
	<use xlink:href="#use3388" transform="translate(184.87041,-5.598943)" height="1024" width="1280" y="0" x="0"/>
	<use xlink:href="#use3388" transform="translate(210.38882,-3.1720452)" height="1024" width="1280" y="0" x="0"/>
	<use xlink:href="#use3388" transform="translate(238.67092,-0.95235343)" height="1024" width="1280" y="0" x="0"/>
	<use xlink:href="#use3388" transform="translate(268.40628,2.0903624)" height="1024" width="1280" y="0" x="0"/>
	<use xlink:href="#use3390" transform="matrix(1.9244544,0,0,1.9244544,-68.428445,-699.09035)" height="1024" width="1280" y="0" x="0"/>
	<use xlink:href="#use3390" transform="matrix(2.2019569,0,0,2.2019569,-29.387605,-909.32771)" height="1024" width="1280" y="0" x="0"/>
	<use xlink:href="#use3390" transform="matrix(1.7523406,0,0,1.7523406,41.572986,-569.10388)" height="1024" width="1280" y="0" x="0"/>
	<use xlink:href="#use3390" transform="matrix(1.3433375,0,0,1.3433375,94.428315,-258.63705)" height="1024" width="1280" y="0" x="0"/>
	<use xlink:href="#use3390" transform="matrix(1.1256598,0,0,1.1256598,128.17532,-93.180088)" height="1024" width="1280" y="0" x="0"/>
	<use xlink:href="#use3390" transform="matrix(1.0210146,0,0,1.0210146,157.18646,-13.419072)" height="1024" width="1280" y="0" x="0"/>
	<use xlink:href="#use3390" transform="matrix(1.0000537,0,0,1.0000537,187.4988,3.4818029)" height="1024" width="1280" y="0" x="0"/>
	<use xlink:href="#use3390" transform="matrix(1.0003534,0,0,1.0003534,213.56637,4.1311801)" height="1024" width="1280" y="0" x="0"/>
	<use xlink:href="#use3390" transform="matrix(1.001307,0,0,1.001307,243.08249,3.901484)" height="1024" width="1280" y="0" x="0"/>
	<use xlink:href="#use3390" transform="matrix(1.0005537,0,0,1.0005537,272.58211,4.6332454)" height="1024" width="1280" y="0" x="0"/>
	<use xlink:href="#use3392" transform="matrix(1.6901939,0,0,1.6901939,-53.686585,-519.06224)" height="1024" width="1280" y="0" x="0"/>
	<use xlink:href="#use3392" transform="matrix(1.8298168,0,0,1.8298168,-10.479908,-624.21885)" height="1024" width="1280" y="0" x="0"/>
	<use xlink:href="#use3392" transform="matrix(1.5632205,0,0,1.5632205,49.866213,-419.37406)" height="1024" width="1280" y="0" x="0"/>
	<use xlink:href="#use3392" transform="matrix(1.2764081,0,0,1.2764081,95.619314,-199.91801)" height="1024" width="1280" y="0" x="0"/>
	<use xlink:href="#use3392" transform="matrix(1.1061622,0,0,1.1061622,127.44662,-71.199225)" height="1024" width="1280" y="0" x="0"/>
	<use xlink:href="#use3392" transform="matrix(1.0179355,0,0,1.0179355,156.70061,-5.7759099)" height="1024" width="1280" y="0" x="0"/>
	<use xlink:href="#use3392" transform="matrix(1.0107555,0,0,1.0107555,185.62084,-3.606773)" height="1024" width="1280" y="0" x="0"/>
	<use xlink:href="#use3392" transform="matrix(1.0341891,0,0,1.0341891,211.11827,-25.6862)" height="1024" width="1280" y="0" x="0"/>
	<use xlink:href="#use3392" transform="matrix(1.0560456,0,0,1.0560456,241.40426,-44.765303)" height="1024" width="1280" y="0" x="0"/>
	<use xlink:href="#use3392" transform="matrix(1.038006,0,0,1.038006,274.23013,-30.884616)" height="1024" width="1280" y="0" x="0"/>
	<use xlink:href="#use3394" transform="matrix(1.3444673,0,0,1.3444673,-28.893367,-253.27902)" height="1024" width="1280" y="0" x="0"/>
	<use xlink:href="#use3394" transform="matrix(1.379877,0,0,1.379877,13.36887,-277.75371)" height="1024" width="1280" y="0" x="0"/>
	<use xlink:href="#use3394" transform="matrix(1.2821096,0,0,1.2821096,58.435032,-202.89808)" height="1024" width="1280" y="0" x="0"/>
	<use xlink:href="#use3394" transform="matrix(1.1543664,0,0,1.1543664,94.463148,-105.86075)" height="1024" width="1280" y="0" x="0"/>
	<use xlink:href="#use3394" transform="matrix(1.0578796,0,0,1.0578796,123.73433,-33.353002)" height="1024" width="1280" y="0" x="0"/>
	<use xlink:href="#use3394" transform="matrix(1.0146939,0,0,1.0146939,152.03372,-2.8451893)" height="1024" width="1280" y="0" x="0"/>
	<use xlink:href="#use3394" transform="matrix(1.060237,0,0,1.060237,175.94268,-46.314152)" height="1024" width="1280" y="0" x="0"/>
	<use xlink:href="#use3394" transform="matrix(1.1837319,0,0,1.1837319,198.88931,-152.94231)" height="1024" width="1280" y="0" x="0"/>
	<use xlink:href="#use3394" transform="matrix(1.3003435,0,0,1.3003435,229.88317,-250.17218)" height="1024" width="1280" y="0" x="0"/>
	<use xlink:href="#use3394" transform="matrix(1.2073274,0,0,1.2073274,272.53031,-173.32716)" height="1024" width="1280" y="0" x="0"/>
	<use xlink:href="#use3396" transform="matrix(1.1451526,0,0,1.1451526,-12.821394,-103.39182)" height="1024" width="1280" y="0" x="0"/>
	<use xlink:href="#use3396" transform="matrix(1.1627398,0,0,1.1627398,24.56004,-115.93144)" height="1024" width="1280" y="0" x="0"/>
	<use xlink:href="#use3396" transform="matrix(1.1245686,0,0,1.1245686,61.480358,-87.255552)" height="1024" width="1280" y="0" x="0"/>
	<use xlink:href="#use3396" transform="matrix(1.0650943,0,0,1.0650943,92.849071,-42.206675)" height="1024" width="1280" y="0" x="0"/>
	<use xlink:href="#use3396" transform="matrix(1.0176377,0,0,1.0176377,120.69973,-6.0636795)" height="1024" width="1280" y="0" x="0"/>
	<use xlink:href="#use3396" transform="matrix(1.0144272,0,0,1.0144272,146.57298,-7.2319555)" height="1024" width="1280" y="0" x="0"/>
	<use xlink:href="#use3396" transform="matrix(1.1117174,0,0,1.1117174,166.02547,-94.581365)" height="1024" width="1280" y="0" x="0"/>
	<use xlink:href="#use3396" transform="matrix(1.4736426,0,0,1.4736426,178.63736,-403.01805)" height="1024" width="1280" y="0" x="0"/>
	<use xlink:href="#use3396" transform="matrix(1.9267587,0,0,1.9267587,197.42265,-784.5984)" height="1024" width="1280" y="0" x="0"/>
	<use xlink:href="#use3396" transform="matrix(1.514716,0,0,1.514716,265.05047,-433.31374)" height="1024" width="1280" y="0" x="0"/>
	<use xlink:href="#use3398" transform="matrix(1.0349256,0,0,1.0349256,-3.9958042,-22.283949)" height="1024" width="1280" y="0" x="0"/>
	<use xlink:href="#use3398" transform="matrix(1.0469805,0,0,1.0469805,30.022763,-32.421775)" height="1024" width="1280" y="0" x="0"/>
	<use xlink:href="#use3398" transform="matrix(1.0343084,0,0,1.0343084,63.026391,-23.819058)" height="1024" width="1280" y="0" x="0"/>
	<use xlink:href="#use3398" transform="matrix(1.0129681,0,0,1.0129681,92.368526,-8.2088205)" height="1024" width="1280" y="0" x="0"/>
	<use xlink:href="#use3398" transform="matrix(1.0018007,0,0,1.0018007,118.97738,-0.65822132)" height="1024" width="1280" y="0" x="0"/>
	<use xlink:href="#use3398" transform="matrix(1.0125024,0,0,1.0125024,143.27986,-11.895387)" height="1024" width="1280" y="0" x="0"/>
	<use xlink:href="#use3398" transform="matrix(1.1336159,0,0,1.1336159,161.65072,-118.30109)" height="1024" width="1280" y="0" x="0"/>
	<use xlink:href="#use3398" transform="matrix(1.6630492,0,0,1.6630492,166.08455,-577.1013)" height="1024" width="1280" y="0" x="0"/>
	<use xlink:href="#use3398" transform="matrix(2.322009,0,0,2.322009,177.11293,-1145.6439)" height="1024" width="1280" y="0" x="0"/>
	<use xlink:href="#use3398" transform="matrix(1.5383014,0,0,1.5383014,270.00794,-456.03129)" height="1024" width="1280" y="0" x="0"/>
	<use xlink:href="#use3400" transform="matrix(1.000197,0,0,1.000197,-1.8598108,3.1734514)" height="1024" width="1280" y="0" x="0"/>
	<use xlink:href="#use3400" transform="matrix(1.0011786,0,0,1.0011786,31.173596,0.64855537)" height="1024" width="1280" y="0" x="0"/>
	<use xlink:href="#use3400" transform="matrix(1.0010735,0,0,1.0010735,62.976692,-2.1981854)" height="1024" width="1280" y="0" x="0"/>
	<use xlink:href="#use3400" transform="matrix(1.000181,0,0,1.000181,91.68259,-3.7610443)" height="1024" width="1280" y="0" x="0"/>
	<use xlink:href="#use3400" transform="matrix(1.0000099,0,0,1.0000099,118.31866,-4.6880948)" height="1024" width="1280" y="0" x="0"/>
	<use xlink:href="#use3400" transform="matrix(1.0083398,0,0,1.0083398,143.90354,-11.444665)" height="1024" width="1280" y="0" x="0"/>
	<use xlink:href="#use3400" transform="matrix(1.0968166,0,0,1.0968166,164.92137,-87.249217)" height="1024" width="1280" y="0" x="0"/>
	<use xlink:href="#use3400" transform="matrix(1.4136008,0,0,1.4136008,182.12913,-363.93983)" height="1024" width="1280" y="0" x="0"/>
	<use xlink:href="#use3400" transform="matrix(1.5834722,0,0,1.5834722,220.28495,-506.87085)" height="1024" width="1280" y="0" x="0"/>
	<use xlink:href="#use3400" transform="matrix(1.2422437,0,0,1.2422437,285.0252,-195.70617)" height="1024" width="1280" y="0" x="0"/>
	<g display="none">
		<rect id="rect3187-0" style="color:#000000;enable-background:accumulate;" fill-rule="nonzero" height="30" width="30" y="-11.209" x="-15.831"/>
		<use id="use3342"  opacity="0.3" xlink:href="#rect3187-0" transform="translate(59.396963,29.698484)" height="1024" width="1280" y="0" x="0" fill="#aaccee">
			<animate begin="1s" from="#aaccee" repeatCount="indefinite" attributeName="fill" to="#6699cc" dur="1.5s"/>
		</use>
		<use id="use3344"  opacity="0.3" xlink:href="#rect3187-0" transform="translate(59.396963,59.698484)" height="1024" width="1280" y="0" x="0" fill="#aaccee">
			<animate begin="1.1s" from="#aaccee" repeatCount="indefinite" attributeName="fill" to="#6699cc" dur="1.5s"/>
		</use>
		<use id="use3346"  opacity="0.3" xlink:href="#rect3187-0" transform="translate(59.396963,89.698484)" height="1024" width="1280" y="0" x="0" fill="#aaccee">
			<animate begin="1.2s" from="#aaccee" repeatCount="indefinite" attributeName="fill" to="#6699cc" dur="1.5s"/>
		</use>
		<use id="use3348"  opacity="0.3" xlink:href="#rect3187-0" transform="translate(59.396963,119.69849)" height="1024" width="1280" y="0" x="0" fill="#aaccee">
			<animate begin="1.3s" from="#aaccee" repeatCount="indefinite" attributeName="fill" to="#6699cc" dur="1.5s"/>
		</use>
		<use id="use3350"  opacity="0.3" xlink:href="#rect3187-0" transform="translate(59.396963,149.69849)" height="1024" width="1280" y="0" x="0" fill="#aaccee">
			<animate begin="1.4s" from="#aaccee" repeatCount="indefinite" attributeName="fill" to="#6699cc" dur="1.5s"/>
		</use>
		<use id="use3352"  opacity="0.3" xlink:href="#rect3187-0" transform="translate(59.396963,179.69849)" height="1024" width="1280" y="0" x="0" fill="#aaccee">
			<animate begin="1.5s" from="#aaccee" repeatCount="indefinite" attributeName="fill" to="#6699cc" dur="1.5s"/>
		</use>
		<use id="use3354"  opacity="0.3" xlink:href="#rect3187-0" transform="translate(59.396963,209.69849)" height="1024" width="1280" y="0" x="0" fill="#aaccee">
			<animate begin="1.6s" from="#aaccee" repeatCount="indefinite" attributeName="fill" to="#6699cc" dur="1.5s"/>
		</use>
		<use id="use3356"  opacity="0.3" xlink:href="#rect3187-0" transform="translate(59.396963,239.69849)" height="1024" width="1280" y="0" x="0" fill="#aaccee">
			<animate begin="1.7s" from="#aaccee" repeatCount="indefinite" attributeName="fill" to="#6699cc" dur="1.5s"/>
		</use>
		<use id="use3358"  opacity="0.3" xlink:href="#rect3187-0" transform="translate(59.396963,269.69849)" height="1024" width="1280" y="0" x="0" fill="#aaccee">
			<animate begin="1.8s" from="#aaccee" repeatCount="indefinite" attributeName="fill" to="#6699cc" dur="1.5s"/>
		</use>
		<use id="use3360"  opacity="0.3" xlink:href="#rect3187-0" transform="translate(59.396963,299.69849)" height="1024" width="1280" y="0" x="0" fill="#aaccee">
			<animate begin="1.9s" from="#aaccee" repeatCount="indefinite" attributeName="fill" to="#6699cc" dur="1.5s"/>
		</use>
		<use id="use3362"  opacity="0.3" xlink:href="#rect3187-0" transform="translate(59.396963,329.69849)" height="1024" width="1280" y="0" x="0" fill="#aaccee">
			<animate begin="2s" from="#aaccee" repeatCount="indefinite" attributeName="fill" to="#6699cc" dur="1.5s"/>
		</use>
		<use id="use3364"  opacity="0.3" xlink:href="#rect3187-0" transform="translate(59.396963,359.69849)" height="1024" width="1280" y="0" x="0" fill="#aaccee">
			<animate begin="2.1s" from="#aaccee" repeatCount="indefinite" attributeName="fill" to="#6699cc" dur="1.5s"/>
		</use>
		<use id="use3366"  opacity="0.3" xlink:href="#rect3187-0" transform="translate(59.396963,389.69849)" height="1024" width="1280" y="0" x="0" fill="#aaccee">
			<animate begin="2.2s" from="#aaccee" repeatCount="indefinite" attributeName="fill" to="#6699cc" dur="1.5s"/>
		</use>
		<use id="use3368"  opacity="0.3" xlink:href="#rect3187-0" transform="translate(59.396963,419.69849)" height="1024" width="1280" y="0" x="0" fill="#aaccee">
			<animate begin="2.3s" from="#aaccee" repeatCount="indefinite" attributeName="fill" to="#6699cc" dur="1.5s"/>
		</use>
		<use id="use3370"  opacity="0.3" xlink:href="#rect3187-0" transform="translate(59.396963,449.69849)" height="1024" width="1280" y="0" x="0" fill="#aaccee">
			<animate begin="2.4s" from="#aaccee" repeatCount="indefinite" attributeName="fill" to="#6699cc" dur="1.5s"/>
		</use>
		<use id="use3372"  opacity="0.3" xlink:href="#rect3187-0" transform="translate(59.396963,479.69849)" height="1024" width="1280" y="0" x="0" fill="#aaccee">
			<animate begin="2.5s" from="#aaccee" repeatCount="indefinite" attributeName="fill" to="#6699cc" dur="1.5s"/>
		</use>
		<use id="use3374"  opacity="0.3" xlink:href="#rect3187-0" transform="translate(59.396963,509.69849)" height="1024" width="1280" y="0" x="0" fill="#aaccee">
			<animate begin="2.6s" from="#aaccee" repeatCount="indefinite" attributeName="fill" to="#6699cc" dur="1.5s"/>
		</use>
		<use id="use3376"  opacity="0.3" xlink:href="#rect3187-0" transform="translate(59.396963,539.69849)" height="1024" width="1280" y="0" x="0" fill="#aaccee">
			<animate begin="2.7s" from="#aaccee" repeatCount="indefinite" attributeName="fill" to="#6699cc" dur="1.5s"/>
		</use>
		<use id="use3378"  opacity="0.3" xlink:href="#rect3187-0" transform="translate(59.396963,569.69849)" height="1024" width="1280" y="0" x="0" fill="#aaccee">
			<animate begin="2.8s" from="#aaccee" repeatCount="indefinite" attributeName="fill" to="#6699cc" dur="1.5s"/>
		</use>
		<use id="use3380"  opacity="0.3" xlink:href="#rect3187-0" transform="translate(59.396963,599.69849)" height="1024" width="1280" y="0" x="0" fill="#aaccee">
			<animate begin="2.9s" from="#aaccee" repeatCount="indefinite" attributeName="fill" to="#6699cc" dur="1.5s"/>
		</use>
		<use id="use3382"  opacity="0.3" xlink:href="#rect3187-0" transform="translate(59.396963,629.69849)" height="1024" width="1280" y="0" x="0" fill="#aaccee">
			<animate begin="3s" from="#aaccee" repeatCount="indefinite" attributeName="fill" to="#6699cc" dur="1.5s"/>
		</use>
		<use id="use3384"  opacity="0.3" xlink:href="#rect3187-0" transform="translate(59.396963,659.69849)" height="1024" width="1280" y="0" x="0" fill="#aaccee">
			<animate begin="3.1s" from="#aaccee" repeatCount="indefinite" attributeName="fill" to="#6699cc" dur="1.5s"/>
		</use>
		<use id="use3386"  opacity="0.3" xlink:href="#rect3187-0" transform="translate(59.396963,689.69849)" height="1024" width="1280" y="0" x="0" fill="#aaccee">
			<animate begin="3.2s" from="#aaccee" repeatCount="indefinite" attributeName="fill" to="#6699cc" dur="1.5s"/>
		</use>
		<use id="use3388"  opacity="0.3" xlink:href="#rect3187-0" transform="translate(59.396963,719.69849)" height="1024" width="1280" y="0" x="0" fill="#aaccee">
			<animate begin="3.3s" from="#aaccee" repeatCount="indefinite" attributeName="fill" to="#6699cc" dur="1.5s"/>
		</use>
		<use id="use3390"  opacity="0.3" xlink:href="#rect3187-0" transform="translate(59.396963,749.69849)" height="1024" width="1280" y="0" x="0" fill="#aaccee">
			<animate begin="3.4s" from="#aaccee" repeatCount="indefinite" attributeName="fill" to="#6699cc" dur="1.5s"/>
		</use>
		<use id="use3392"  opacity="0.3" xlink:href="#rect3187-0" transform="translate(59.396963,779.69849)" height="1024" width="1280" y="0" x="0" fill="#aaccee">
			<animate begin="3.5s" from="#aaccee" repeatCount="indefinite" attributeName="fill" to="#6699cc" dur="1.5s"/>
		</use>
		<use id="use3394"  opacity="0.3" xlink:href="#rect3187-0" transform="translate(59.396963,809.69849)" height="1024" width="1280" y="0" x="0" fill="#aaccee">
			<animate begin="3.6s" from="#aaccee" repeatCount="indefinite" attributeName="fill" to="#6699cc" dur="1.5s"/>
		</use>
		<use id="use3396"  opacity="0.3" xlink:href="#rect3187-0" transform="translate(59.396963,839.69849)" height="1024" width="1280" y="0" x="0" fill="#aaccee">
			<animate begin="3.7s" from="#aaccee" repeatCount="indefinite" attributeName="fill" to="#6699cc" dur="1.5s"/>
		</use>
		<use id="use3398"  opacity="0.3" xlink:href="#rect3187-0" transform="translate(59.396963,869.69849)" height="1024" width="1280" y="0" x="0" fill="#aaccee">
			<animate begin="3.8s" from="#aaccee" repeatCount="indefinite" attributeName="fill" to="#6699cc" dur="1.5s"/>
		</use>
		<use id="use3400"  opacity="0.3" xlink:href="#rect3187-0" transform="translate(59.396963,899.69849)" height="1024" width="1280" y="0" x="0" fill="#aaccee">
			<animate begin="3.9s" from="#aaccee" repeatCount="indefinite" attributeName="fill" to="#6699cc" dur="1.5s"/>
		</use>
	</g>
</svg>