<?xml version="1.0" encoding="utf-8"?>
<!-- Generator: Adobe Illustrator 13.0.0, SVG Export Plug-In . SVG Version: 6.00 Build 14948)  -->
<svg version="1.2" baseProfile="tiny" id="Layer_1" xmlns="http://www.w3.org/2000/svg" xmlns:xlink="http://www.w3.org/1999/xlink"
	 x="0px" y="0px" width="595.972px" height="548.354px" viewBox="0 0 595.972 548.354" xml:space="preserve">
<g>
	<g>
		<path fill="#FFFFFF" d="M496.107,299.8c0,15.664-27.287,28.445-30.217,43.25c-3.018,15.255,17.25,37.479,11.432,51.515
			c-5.922,14.275-36.025,15.635-44.521,28.328c-8.564,12.789,1.646,41.112-9.199,51.955c-10.844,10.845-39.17,0.637-51.959,9.198
			c-12.688,8.496-14.049,38.599-28.328,44.52c-14.033,5.819-36.258-14.444-51.509-11.428c-14.808,2.927-27.589,30.217-43.251,30.217
			c-15.664,0-28.444-27.287-43.248-30.217c-15.255-3.018-37.475,17.249-51.514,11.43c-14.279-5.922-15.634-36.021-28.328-44.521
			c-12.788-8.563-41.115,1.646-51.956-9.196c-10.843-10.845-0.636-39.169-9.199-51.958c-8.495-12.693-38.598-14.05-44.52-28.328
			c-5.819-14.036,14.444-36.258,11.427-51.514C28.292,328.249,1,315.464,1,299.8c0-15.662,27.289-28.445,30.217-43.249
			c3.018-15.254-17.246-37.478-11.427-51.514c5.922-14.279,36.024-15.636,44.52-28.328c8.563-12.789-1.644-41.111,9.199-51.955
			c10.846-10.845,39.168-0.637,51.956-9.198c12.694-8.497,14.049-38.6,28.328-44.521c14.039-5.819,36.259,14.446,51.514,11.43
			c14.804-2.93,27.584-30.217,43.248-30.217c15.662,0,28.443,27.289,43.251,30.217c15.252,3.018,37.477-17.248,51.512-11.428
			c14.279,5.922,15.639,36.022,28.328,44.521c12.787,8.563,41.115-1.646,51.957,9.197c10.844,10.845,0.637,39.167,9.197,51.957
			c8.496,12.692,38.6,14.051,44.521,28.329c5.82,14.035-14.443,36.258-11.428,51.51C468.82,271.356,496.107,284.138,496.107,299.8z"
			/>
		<path fill="none" stroke="#231F20" stroke-width="2" stroke-miterlimit="10" d="M496.107,299.8
			c0,15.664-27.287,28.445-30.217,43.25c-3.018,15.255,17.25,37.479,11.432,51.515c-5.922,14.275-36.025,15.635-44.521,28.328
			c-8.564,12.789,1.646,41.112-9.199,51.955c-10.844,10.845-39.17,0.637-51.959,9.198c-12.688,8.496-14.049,38.599-28.328,44.52
			c-14.033,5.819-36.258-14.444-51.509-11.428c-14.808,2.927-27.589,30.217-43.251,30.217c-15.664,0-28.444-27.287-43.248-30.217
			c-15.255-3.018-37.475,17.249-51.514,11.43c-14.279-5.922-15.634-36.021-28.328-44.521c-12.788-8.563-41.115,1.646-51.956-9.196
			c-10.843-10.845-0.636-39.169-9.199-51.958c-8.495-12.693-38.598-14.05-44.52-28.328c-5.819-14.036,14.444-36.258,11.427-51.514
			C28.292,328.249,1,315.464,1,299.8c0-15.662,27.289-28.445,30.217-43.249c3.018-15.254-17.246-37.478-11.427-51.514
			c5.922-14.279,36.024-15.636,44.52-28.328c8.563-12.789-1.644-41.111,9.199-51.955c10.846-10.845,39.168-0.637,51.956-9.198
			c12.694-8.497,14.049-38.6,28.328-44.521c14.039-5.819,36.259,14.446,51.514,11.43c14.804-2.93,27.584-30.217,43.248-30.217
			c15.662,0,28.443,27.289,43.251,30.217c15.252,3.018,37.477-17.248,51.512-11.428c14.279,5.922,15.639,36.022,28.328,44.521
			c12.787,8.563,41.115-1.646,51.957,9.197c10.844,10.845,0.637,39.167,9.197,51.957c8.496,12.692,38.6,14.051,44.521,28.329
			c5.82,14.035-14.443,36.258-11.428,51.51C468.82,271.356,496.107,284.138,496.107,299.8z"/>
	</g>
	<g>
		<g>
			<path fill="#9EDBF8" d="M405.49,462.867c0.023-3.777,0.85-16.407-0.795-16.39c-5.588,0.063-12.768-0.094-16.928-0.124
				c-1.068,3.772-0.893,15.687,0.373,16.207C389.359,463.063,401.191,463.678,405.49,462.867z"/>
			<g>
				<path fill="#231F20" d="M406.746,462.531c0.068-5.04,1.035-10.696-0.215-15.636c-0.5-1.977-4.367-0.984-5.73-0.987
					c-4.17-0.012-8.34-0.101-12.51-0.137c-0.441-0.003-1.631,0.235-1.77,0.78c-0.762,3.051-0.738,6.339-0.699,9.462
					c0.016,1.199-0.342,6.563,1.301,7.077c2.398,0.752,5.258,0.604,7.738,0.689c3.451,0.122,6.996,0.201,10.416-0.364
					c1.076-0.178,2.178-1.389,0.422-1.1c-3.031,0.501-6.186,0.399-9.242,0.313c-1.145-0.032-6.623,0.381-7.334-0.722
					c-1.043-1.621-0.74-4.751-0.789-6.568c-0.078-3.033-0.064-6.229,0.678-9.187c-0.588,0.261-1.178,0.521-1.766,0.779
					c3.4,0.03,6.807,0.089,10.211,0.122c1.883,0.018,3.766,0.021,5.648,0.013c1.15-0.005,1.055,1.027,1.172,1.907
					c0.625,4.672,0.02,9.534-0.047,14.228C404.226,463.746,406.732,463.354,406.746,462.531z"/>
			</g>
		</g>
		<g>
			<g>
				<path fill="#9EDBF8" d="M429.621,316.126c0.025-3.777,1.703-16.4-1.855-16.396c-12.104,0.015-27.648-0.203-36.648-0.271
					c-2.277,3.764-1.799,15.68,0.945,16.21C394.707,316.184,420.324,316.899,429.621,316.126z"/>
				<g>
					<path fill="#231F20" d="M430.876,315.79c0.088-3.143,2.615-16.134-2.314-16.635c-12.043-1.226-24.801-0.18-36.924-0.277
						c-0.545-0.005-1.502,0.237-1.766,0.78c-2.01,4.101-1.807,9.532-0.771,13.865c0.783,3.263,3.412,2.89,6.193,3.041
						c11.188,0.608,22.621,0.967,33.803,0.144c0.748-0.055,2.717-1.286,1.047-1.163c-9.873,0.729-19.883,0.373-29.764,0.021
						c-3.064-0.109-7.557,0.761-8.766-2.716c-1.402-4.028-1.115-9.789,0.746-13.59c-0.592,0.261-1.182,0.521-1.77,0.779
						c10.117,0.083,20.238,0.214,30.355,0.261c2.164,0.011,6.445-0.751,7.357,1.794c0.52,1.461,0.441,3.229,0.475,4.75
						c0.074,3.211-0.324,6.412-0.416,9.617C428.349,316.993,430.853,316.616,430.876,315.79z"/>
				</g>
			</g>
			<g>
				<path fill="#9EDBF8" d="M405.304,437.563c0,0,4.898-62.227,4.912-77.679c0,0-17.592-0.47-24.551-0.014
					c-0.016,5.658,2.369,70.173,2.693,76.909L405.304,437.563z"/>
				<g>
					<path fill="#231F20" d="M406.558,437.396c2.031-25.84,4.783-51.916,4.914-77.848c0.002-0.296-0.584-0.337-0.76-0.341
						c-8.164-0.214-16.389-0.468-24.547-0.016c-0.576,0.033-1.758,0.248-1.754,1.016c0.063,25.604,1.5,51.335,2.689,76.909
						c0.014,0.301,0.572,0.334,0.758,0.342c5.65,0.263,11.297,0.521,16.945,0.782c0.906,0.043,2.693-1.277,0.996-1.355
						c-3.248-0.149-6.492-0.302-9.74-0.45c-2.059-0.096-4.117-0.189-6.178-0.284c-1.238-0.058-0.275,0.185-0.338-1.259
						c-0.34-8.025-0.627-16.055-0.922-24.083c-0.631-17.067-1.658-34.191-1.701-51.273c-0.584,0.338-1.17,0.677-1.754,1.016
						c5.205-0.288,10.424-0.216,15.629-0.154c2.402,0.026,4.801,0.074,7.203,0.127c2.254,0.05,0.973,0.197,0.918,2.475
						c-0.219,9.301-0.879,18.601-1.48,27.883c-1.012,15.624-2.158,31.242-3.387,46.852
						C403.974,438.7,406.496,438.192,406.558,437.396z"/>
				</g>
			</g>
			<g>
				<path fill="#9EDBF8" d="M67.484,240.436c18.273-0.163,58.596,0.188,76.596,1.313c0,0,0,17.805,0,23.075
					c-19-0.976-48.154-0.65-48.154-0.65c0.162,8.612-0.063,24.946-0.063,24.946s33.987,0.725,42.938,1.058
					c-0.055,6.335,0.258,22.1,0.258,22.1s-31.98-0.002-43.191-0.49c0,0-0.113,31.693-0.979,48.16
					c-10.889-0.162-16.475-0.283-27.757-0.545C66.729,330.473,67.443,253.46,67.484,240.436z"/>
				<g>
					<path fill="#231F20" d="M67.098,241.126c18.632-0.149,37.27,0.054,55.898,0.507c4.318,0.105,8.654,0.242,12.975,0.413
						c2.58,0.103,7.109-1.048,7.109,1.767c0,7.115,0,14.23,0,21.347c0-0.343,1.146-0.686,1.73-1.028
						c-16.064-0.793-32.189-0.818-48.271-0.648c-0.582,0.006-1.766,0.267-1.754,1.028c0.127,8.256,0.02,16.518-0.121,24.772
						c-0.008,0.428,0.389,0.521,0.76,0.528c10.361,0.221,20.719,0.454,31.078,0.716c2.818,0.071,5.637,0.146,8.455,0.229
						c3.572,0.104,2.6,1.354,2.619,4.775c0.035,5.693,0.133,11.388,0.24,17.08c0.582-0.343,1.166-0.687,1.75-1.028
						c-14.393-0.003-28.818,0.09-43.199-0.489c-0.593-0.024-1.747,0.284-1.749,1.027c-0.063,15.992-0.18,32.015-0.982,47.987
						c0.583-0.285,1.165-0.57,1.747-0.856c-7.728-0.115-15.457-0.265-23.185-0.439c-4.313-0.099-3.779-1.457-3.812-5.06
						c-0.024-2.911-0.037-5.825-0.046-8.737c-0.045-13.527,0.014-27.054,0.08-40.579c0.106-21.446,0.352-42.893,0.428-64.338
						c0.001-0.743-2.508-0.28-2.512,0.673c-0.142,39.65-0.929,79.313-0.403,118.966c0.005,0.3,0.576,0.351,0.762,0.355
						c9.233,0.213,18.469,0.402,27.702,0.544c0.433,0.007,1.717-0.235,1.748-0.855c0.806-16.089,0.921-32.226,0.983-48.332
						c-0.584,0.343-1.168,0.687-1.749,1.028c14.382,0.58,28.806,0.485,43.2,0.49c0.579,0,1.762-0.271,1.75-1.028
						c-0.14-7.365-0.286-14.734-0.248-22.102c0-0.299-0.584-0.349-0.761-0.354c-12.141-0.435-24.29-0.646-36.432-0.915
						c-1.841-0.041-3.681-0.08-5.52-0.119c-1.487-0.033-0.189-0.123-0.197,0.374c0.016-0.94,0.029-1.883,0.042-2.823
						c0.108-7.386,0.191-14.775,0.077-22.163c-0.584,0.344-1.169,0.687-1.751,1.028c16.082-0.172,32.465-0.144,48.527,0.649
						c0.592,0.028,2.012-0.289,2.012-1.028c0-7.691,0-15.383,0-23.074c0-0.304-0.844-0.345-1.025-0.354
						c-25.492-1.542-51.305-1.52-76.836-1.313C67.311,239.751,65.404,241.142,67.098,241.126z"/>
				</g>
			</g>
			<g>
				<path fill="#9EDBF8" d="M156.376,258.517c0,0,11.92-0.072,17.983-0.072c0,0,0.167,13.848,0.217,22.948
					c4.972-14.085,12.569-18.36,26.867-18.794c20.791-0.629,28.672,17.439,31.633,24.729c-3.651,3.98-8.571,7.112-13.339,10.343
					c-1.734-5.2-6.682-17.986-17.644-17.714c-12.87,0.32-26.434,23.731-26,48.731c0,0-11.483,0-18.634,0
					C157.246,310.688,156.526,277.582,156.376,258.517z"/>
				<g>
					<path fill="#231F20" d="M155.552,259.444c1.813-0.045,17.552-0.396,17.555-0.275c0.092,7.56,0.168,15.116,0.215,22.675
						c0.002,0.383,2.324-0.128,2.489-0.573c3.164-8.52,7.855-15.294,17.283-17.377c8.909-1.97,18.108-0.523,25.529,4.792
						c4.859,3.483,8.296,8.711,10.961,13.969c0.977,1.93,2.824,4.361,0.938,6.283c-3.446,3.514-7.858,6.144-11.915,8.875
						c0.795-0.153,1.591-0.31,2.384-0.462c-3.741-10.928-11.892-20.788-24.289-15.93c-6.579,2.578-11.079,9.473-14.276,15.364
						c-5.448,10.043-7.594,21.616-7.588,32.933c0.695-0.267,1.389-1.028,2.083-1.028c-5.118,0-10.233,0-15.35,0
						c-4.185,0-2.921-4.795-2.964-7.87c-0.063-4.367-0.139-8.624-0.213-12.991c-0.279-16.434-0.622-32.81-0.763-49.245
						c-0.003-0.313-2.518,0.057-2.509,0.702c0.198,23.545,0.807,46.907,1.084,70.451c0,0.143,0.375-0.047,0.429-0.047
						c6.21,0,12.422,0,18.635,0c0.389,0,2.082-0.032,2.079-0.61c-0.009-14.793,3.832-30.107,13.421-41.681
						c11.578-13.972,23.495-1.729,27.711,10.577c0.195,0.571,2.099-0.247,2.382-0.438c4.702-3.168,9.355-6.254,13.344-10.315
						c0.082-0.052,0.125-0.115,0.125-0.205c-5.016-12.252-13.947-23.963-28.312-24.737c-15.473-0.83-27.102,4.458-32.679,19.464
						c0.831-0.191,1.661-0.381,2.49-0.571c-0.046-7.611-0.125-15.22-0.217-22.831c-0.001-0.141-0.375-0.133-0.43-0.131
						c-5.995,0.02-11.99,0.15-17.983,0.299C156.73,258.519,154.37,259.474,155.552,259.444z"/>
				</g>
			</g>
			<g>
				<g>
					<g>
						<path fill="#9EDBF8" d="M175.358,347.789c0,0-1.433,38.344-2.515,51.354c0,0-19.484-20.849-42.9-4.126
							c-10.744,7.674-15.811,21.693-13.431,33.149c3.465,16.684,12.651,26.802,27.301,28.167c12.347,1.151,23.612-3.9,27.947-10.184
							l-0.216,9.992c3.898,0,14.08,0.867,19.282,0c0-2.602,3.899-108.354,3.899-108.354L175.358,347.789L175.358,347.789z
							 M159.758,433.341c-5.896,5.402-18.807,5.485-23.28-1.72c-2.345-3.773-4.237-20.395,9.031-23.096
							C161.478,404.841,170.569,424.005,159.758,433.341z"/>
					</g>
					<g>
						<path fill="#231F20" d="M174.107,347.965c-0.641,17.113-1.143,34.278-2.514,51.354c0.807-0.217,1.614-0.434,2.42-0.648
							c-18.925-19.885-51.211-9.624-58.326,15.955c-4,14.369,3.427,32.229,16.479,39.316c12.28,6.67,32.131,3.429,40.755-7.802
							c-0.806,0.116-1.611,0.229-2.416,0.346c-0.073,3.331-0.143,6.661-0.215,9.992c-0.009,0.286,0.591,0.313,0.75,0.314
							c6.531,0.1,13.088,0.823,19.596-0.023c0.497-0.064,1.439-0.336,1.446-0.964c0.332-36.049,2.564-72.165,3.896-108.191
							c0.015-0.413-0.402-0.475-0.747-0.475c-6.456,0-12.912,0-19.367,0c-0.858,0-2.699,1.302-1.011,1.302
							c5.675,0,11.347,0,17.021,0c0.75,0,1.494,0,2.241,0c-0.771,0-0.625-0.844-0.657,0.036c-0.041,1.097-0.081,2.192-0.122,3.292
							c-0.44,11.947-0.878,23.897-1.314,35.849c-0.839,22.928-2.239,45.916-2.449,68.86c0.48-0.321,0.962-0.642,1.444-0.963
							c-1.472,0.19-18.217,0.378-18.213,0.094c0.073-3.266,0.144-6.53,0.213-9.796c0.018-0.816-2.167,0.022-2.416,0.346
							c-9.74,12.686-30.971,12.575-42.385,2.433c-9.107-8.095-12.604-22.781-10.026-34.316c3.617-16.19,20.104-27.752,36.478-24.33
							c6.24,1.304,12.608,5.05,17.008,9.671c0.44,0.462,2.365,0.063,2.42-0.648c1.371-17.072,1.873-34.238,2.514-51.353
							C176.646,346.67,174.136,347.217,174.107,347.965z"/>
						<path fill="#231F20" d="M158.766,433.185c-5.854,4.889-18.402,5.022-21.65-3.229c-1.941-4.935-1.367-11.352,1.258-15.895
							c4.689-8.117,16.238-6.124,21.507-0.005C164.717,419.68,164.098,428.217,158.766,433.185c-1.04,0.968,1.447,0.813,1.984,0.313
							c6.826-6.357,6.256-16.376-0.617-22.512c-6.318-5.639-17.381-4.397-22.969,1.587c-4.567,4.892-5.031,14.997-1.229,20.421
							c5.294,7.551,18.671,5.638,24.814,0.504C161.832,432.596,159.323,432.719,158.766,433.185z"/>
					</g>
				</g>
			</g>
			<g>
				<path fill="#9EDBF8" d="M287.136,405.223c6.5,0,14.819-0.271,14.819-0.271s0,0,0.338,12.154
					c1.256-8.641,8.242-11.232,15.717-10.907c6.332,0.275,10.367,5.066,12.189,12.188c2.725-7.125,7.799-11.861,14.787-11.861
					c7.961,0,14.717,3.1,18.199,10.887c2.691,6.019,1.941,28.915,2.27,43.54l-13.832-0.147c0,0,2.301-36.729-6.477-36.403
					c-10.412,0.386-7.961,37.212-7.961,37.212c-2.602,0-10.555-0.271-13.154,0.054c-0.486-17.875,0.803-37.916-8.783-37.916
					c-10.406,0-12.676,13.652-12.758,21.78l-0.918,15.983c-5.199-0.325-11.199-0.017-14.112,0.262
					C287.46,461.773,287.136,408.465,287.136,405.223z"/>
				<g>
					<path fill="#231F20" d="M286.646,405.938c3.828-0.015,7.65-0.081,11.477-0.175c1.033-0.026,2.068-0.059,3.103-0.09
						c-0.541,0.018-0.535-0.645-0.525-0.287c0.113,4.02,0.225,8.036,0.34,12.057c0.021,0.842,2.365,0.225,2.51-0.492
						c1.563-7.739,7.723-10.729,15.365-9.883c5.813,0.646,8.611,6.829,10.027,11.654c0.283,0.965,2.25,0.127,2.514-0.492
						c7.512-17.813,29.668-11.404,31.809,5.755c1.533,12.295,0.695,24.939,0.936,37.303c0.578-0.351,1.16-0.7,1.742-1.052
						c-4.414-0.048-8.824-0.095-13.236-0.142c-1.076-0.013,0.168,0.609,0.186,0.331c0.033-0.547,0.059-1.096,0.084-1.643
						c0.104-2.304,0.148-4.608,0.172-6.916c0.068-7.11,1.527-22.711-5.186-27.535c-6.395-4.592-10.238,7.447-10.986,11.162
						c-1.717,8.559-1.604,17.763-1.045,26.453c0.58-0.351,1.164-0.701,1.744-1.052c-4.158-0.032-8.396-0.369-12.541-0.011
						c0.646-0.058-0.334-19.792-0.467-21.727c-0.453-6.505-1.967-17.857-11.086-15.942c-15.216,3.194-12.588,26.693-13.264,38.452
						c0.582-0.291,1.162-0.58,1.742-0.871c-1.102-0.051-13.351-0.661-13.344,0.598c-0.007-1.229-0.013-2.456-0.021-3.684
						c-0.038-6.023-0.071-12.045-0.11-18.065c-0.068-11.586-0.178-23.173-0.193-34.759c-0.001-0.787-2.511-0.309-2.511,0.673
						c0.025,18.85,0.209,37.701,0.327,56.55c0.001,0.42,0.854,0.381,1.083,0.362c4.601-0.384,9.184-0.453,13.794-0.245
						c0.455,0.021,1.709-0.241,1.746-0.871c0.508-8.894,0.133-18.521,2.445-27.162c1.17-4.367,5.918-13.383,12.504-8.609
						c2.605,1.888,3.25,6.219,3.777,9.126c1.623,8.896,1.004,18.292,1.219,27.29c0.008,0.422,0.852,0.384,1.084,0.362
						c4.258-0.368,8.57-0.069,12.838-0.037c0.576,0.005,1.793-0.277,1.744-1.051c-0.328-5.06-0.318-10.146-0.109-15.211
						c0.094-2.239,1.99-24.559,7.777-20.398c4.699,3.378,4.217,14.658,4.426,19.638c0.219,5.207,0.145,10.454-0.168,15.656
						c-0.027,0.432,0.402,0.555,0.768,0.559c4.611,0.05,9.221,0.099,13.83,0.147c0.604,0.008,1.758-0.275,1.742-1.051
						c-0.178-9.239-0.051-18.482-0.32-27.722c-0.217-7.397-0.27-14.578-4.943-20.638c-4.391-5.686-12.938-7.226-19.619-6.048
						c-6.436,1.136-10.508,6.706-12.881,12.334c0.836-0.164,1.674-0.329,2.512-0.493c-2.361-8.05-7.574-13.517-16.432-12.501
						c-7.223,0.828-12.488,4.283-13.984,11.715c0.838-0.163,1.674-0.328,2.51-0.492c-0.111-4.052-0.225-8.104-0.34-12.154
						c-0.01-0.299-0.57-0.385-0.77-0.379c-4.937,0.156-9.877,0.253-14.816,0.271C286.682,404.512,284.949,405.944,286.646,405.938z"
						/>
				</g>
			</g>
			<g>
				<g>
					<g>
						<path fill="#9EDBF8" d="M248.929,391.083c-25.745-4.71-37.915,13.88-38.632,27.49c-1.427,27.104,31.102,35.759,47.047,25.372
							C281.598,428.145,275.674,395.975,248.929,391.083z M253.563,428.08c-5.124,7.522-23.598,9.604-27.142-3.396
							c-0.781-3.153-1.222-15.085,8.987-18.688C250.582,400.644,262.318,415.242,253.563,428.08z"/>
					</g>
					<g>
						<path fill="#231F20" d="M249.955,390.578c-16.663-2.685-32.998,3.539-39.247,20.139c-6.594,17.514,5.514,33.5,22.526,37.263
							c15.43,3.412,30.797-4.084,37.877-18.157C279.855,412.439,267.666,394.239,249.955,390.578
							c-0.613-0.127-2.813,0.854-2.055,1.01c13.905,2.876,23.865,13.625,23.439,28.134c-0.508,17.35-17.26,29.463-33.663,27.645
							c-14.602-1.619-25.827-12.702-26.167-27.492c-0.155-6.687,2.602-13.259,6.59-18.499c7.113-9.349,18.721-11.569,29.801-9.786
							C248.516,391.688,250.691,390.696,249.955,390.578z"/>
						<path fill="#231F20" d="M252.421,428.156c-4.507,5.989-13.589,6.881-19.806,3.163c-4.932-2.95-5.75-8.791-5.033-13.952
							c1.466-10.581,13.403-15.031,22.113-9.168c6.928,4.661,6.621,13.721,2.628,20.091c-0.222,0.355,2.081,0.217,2.482-0.421
							c5.755-9.184,2.301-20.29-8.526-23.142c-8.598-2.266-18.096,2.579-20.726,10.993c-2.571,8.21,1.097,16.378,9.655,18.491
							c6.539,1.613,15.366-0.723,19.498-6.208C255.232,427.306,252.797,427.658,252.421,428.156z"/>
					</g>
				</g>
			</g>
			<g>
				<g>
					<g>
						<path fill="#9EDBF8" d="M287.018,317.952c0,0-11.263,10.586-24.036,7.898c-6.081-1.206-13.279-6.387-13.111-15.295
							c8.563,0.425,41.015-2.188,41.015-2.188c7.227-29.247-27.082-37.514-41.729-29.268c-24.667,12.647-19.347,55.11,5.042,60.7
							c22.735,5.213,40.05-10.589,40.05-10.589C288.867,320.977,287.018,317.952,287.018,317.952z M263.362,288.71
							c6.479-0.271,10.815,3.794,12.23,8.169c0,0-18.862,1.088-21.304,0.614C253.451,293.577,257.9,288.939,263.362,288.71z"/>
					</g>
					<g>
						<path fill="#231F20" d="M285.873,318.008c-5.431,4.984-12.791,8.079-20.188,7.584c-8.283-0.555-14.242-7.384-14.561-15.374
							c-0.686,0.301-1.37,0.602-2.056,0.901c13.696,0.518,27.644-1.088,41.289-2.182c0.428-0.035,1.646-0.214,1.771-0.771
							c4.01-17.932-7.857-30.415-25.213-32.46c-15.046-1.771-28.512,6.747-33.362,21.102c-5.279,15.62,0.91,36.585,17.127,42.797
							c14.38,5.509,33.595-0.478,44.714-10.448c0.084-0.076,0.119-0.169,0.108-0.279c-2.434-3.735-4.896-7.461-7.229-11.262
							c-0.425-0.69-2.776,0.24-2.513,0.673c0.968,1.574,1.968,3.126,2.965,4.683c0.389,0.606,4.225,6.435,4.322,6.347
							c-0.486,0.436-1.008,0.832-1.525,1.231c-7.621,5.909-16.97,9.3-26.582,9.73c-19.508,0.874-30.617-15.255-30.602-33.293
							c0.015-17.55,13.082-31.687,30.974-30.151c17.041,1.463,28.107,14.84,24.328,31.736c0.589-0.257,1.182-0.515,1.772-0.771
							c-13.457,1.079-27.237,2.7-40.746,2.189c-0.484-0.018-2.084,0.165-2.054,0.901c0.864,21.736,28.315,17.314,39.552,7.003
							C288.777,317.332,286.353,317.568,285.873,318.008z"/>
						<path fill="#231F20" d="M262.835,289.279c5.401,0.028,9.626,2.914,11.502,7.938c0.595-0.303,1.189-0.604,1.783-0.904
							c-3.837,0.22-7.674,0.403-11.514,0.557c-2.385,0.095-4.771,0.168-7.159,0.177c-1.291,0.004-1.881,0.333-2.005-0.801
							C255.026,292.465,259.81,289.592,262.835,289.279c0.72-0.075,2.713-1.312,1.055-1.138c-5.069,0.524-11.524,3.65-10.858,9.688
							c0.021,0.18,0.342,0.211,0.456,0.229c6.919,1.017,14.62-0.211,21.579-0.61c0.286-0.017,1.996-0.329,1.782-0.905
							c-2.123-5.69-7.074-8.372-12.959-8.401C263.136,288.138,261.155,289.271,262.835,289.279z"/>
					</g>
				</g>
			</g>
			<g>
				<g>
					<g>
						<path fill="#9EDBF8" d="M361.531,324.883c0,0-11.262,10.586-24.035,7.898c-6.08-1.206-13.281-6.386-13.113-15.295
							c8.564,0.425,41.018-2.188,41.018-2.188c7.227-29.247-27.082-37.514-41.73-29.268c-24.666,12.648-19.346,55.111,5.043,60.701
							c22.734,5.212,40.049-10.589,40.049-10.589C363.38,327.908,361.531,324.883,361.531,324.883z M337.876,295.643
							c6.48-0.271,10.814,3.794,12.23,8.169c0,0-18.861,1.088-21.307,0.613C327.964,300.508,332.416,295.871,337.876,295.643z"/>
					</g>
					<g>
						<path fill="#231F20" d="M360.539,324.718c-10.857,9.963-34.137,11.58-34.898-7.567c-0.586,0.333-1.174,0.665-1.76,0.998
							c13.709,0.518,27.674-1.113,41.332-2.209c0.424-0.033,1.326-0.31,1.439-0.813c4.006-17.918-7.859-30.518-25.242-32.566
							c-15.107-1.778-28.48,6.74-33.352,21.148c-5.275,15.615,0.93,36.667,17.15,42.881c14.326,5.488,33.441-0.318,44.549-10.279
							c0.217-0.193,0.344-0.379,0.174-0.643c-2.434-3.735-4.895-7.461-7.227-11.262c-0.398-0.646-2.846,0.131-2.342,0.952
							c1.564,2.549,3.199,5.056,4.824,7.566c0.859,1.329,3.221,2.538,1.789,3.723c-1.172,0.97-2.426,1.839-3.688,2.68
							c-11.215,7.452-27.105,10.968-39.541,4.551c-18.822-9.712-19.137-40.363-4.889-53.708
							c14.523-13.604,43.27-5.201,46.115,14.965c0.408,2.898,0.039,5.849-0.461,8.705c-0.189,1.075,1.92,0.756-0.486,0.943
							c-4.186,0.327-8.375,0.63-12.566,0.917c-8.801,0.603-17.746,1.457-26.576,1.124c-0.535-0.021-1.787,0.282-1.756,0.998
							c0.859,21.576,28.123,17.575,39.398,7.226C363.58,324.084,361.089,324.211,360.539,324.718z"/>
						<path fill="#231F20" d="M337.373,296.305c5.371,0.026,9.602,2.813,11.479,7.844c0.584-0.333,1.172-0.666,1.76-0.998
							c-3.84,0.22-7.678,0.403-11.518,0.556c-2.385,0.094-4.77,0.169-7.156,0.178c-1.701,0.006-2.066,0.461-1.91-1.471
							c0.297-3.662,4.514-5.805,7.664-6.131c1.176-0.123,2.119-1.46,0.371-1.28c-5.035,0.523-11.164,3.896-10.518,9.762
							c0.021,0.194,0.33,0.282,0.477,0.305c6.928,1.018,14.615-0.194,21.582-0.595c0.354-0.021,2.014-0.313,1.76-0.997
							c-2.123-5.685-7.074-8.467-12.982-8.496C337.505,294.976,335.681,296.295,337.373,296.305z"/>
					</g>
				</g>
			</g>
		</g>
	</g>
	<g>
		<g>
			<path fill="#FFFFFF" d="M582.048,125.281c-28.967-19.611-71.35-28.53-104.137-31.122c-35.621-3.229-60.154-5.855-111.506,20.255
				c-42.994,21.866-68.384,78.054-72.366,133.615c0,0,11.11-4.476,22.715-5.626c12.537-1.244,17.463-3.832,17.463-3.832
				l14.672-12.023c11.223,12.04,48.209,21.142,57.48-4.858h-0.004c22.938,13,53.373,16.191,68.547-15.723
				c28.604,10.748,69.715-6.406,71.41-28.511C579.572,175.879,613.779,148.573,582.048,125.281z"/>
			<path fill="#FFFFFF" d="M348.271,227.725c-5.283,2.982-9.785,6.44-14.053,10.847L348.271,227.725z"/>
		</g>
		<g>
			<g>
				<path fill="#231F20" d="M295.306,247.913c2.579-33.789,12.287-67.464,31.281-95.769c19.723-29.388,51.379-45.905,84.965-54.818
					c26.371-6.999,54.314-4.123,81.035-0.74c17.723,2.246,35.258,6.148,52.186,11.874c15.521,5.251,35.617,12.704,45.363,26.682
					c8.908,12.775-2.014,25.687-12.746,32.445c-14.918,9.398-33.145,10.791-50.086,7.563c-20.668-3.94-41.242-13.289-59.021-24.472
					c-0.854-0.535-3.105,0.646-1.957,1.37c18.539,11.658,39.84,20.934,61.361,25.037c22.357,4.264,57.07-1.288,66.955-25.289
					c4.766-11.577-4.117-22.217-13.236-28.277c-13.729-9.124-29.473-15.155-45.191-19.823
					c-28.141-8.354-58.471-11.915-87.795-12.363c-17.623-0.269-34.736,2.965-51.338,8.771
					c-19.791,6.917-39.357,16.096-54.838,30.459c-31.775,29.481-46.254,75.479-49.471,117.587
					C292.681,249.362,295.227,248.947,295.306,247.913L295.306,247.913z"/>
			</g>
			<g>
				<path fill="#231F20" d="M544.775,178.728c-1.193,10.165-9.914,17.152-18.271,21.856c-11.1,6.248-24.34,8.833-36.98,7.966
					c-11.762-0.806-23.15-6.441-33.66-11.41c-12.107-5.725-23.797-12.763-33.447-22.121c-0.871-0.84-3,0.47-1.92,1.519
					c10.766,10.436,23.969,17.806,37.492,24.049c11.762,5.431,23.402,10.017,36.51,10.132c18.701,0.167,50.232-9.983,52.832-32.146
					C547.49,177.211,544.916,177.506,544.775,178.728L544.775,178.728z"/>
			</g>
			<g>
				<path fill="#231F20" d="M473.707,206.233c-5.074,10.299-12.578,18.804-23.695,22.523c-9.617,3.219-20.225,1.734-29.67-1.284
					c-15.357-4.911-33.523-16.197-40.639-31.331c-0.539-1.146-3.029-0.424-2.512,0.673c7.969,16.957,28.197,28.739,45.555,33.559
					c22.621,6.284,43.002-2.758,53.371-23.808C476.765,205.251,474.222,205.186,473.707,206.233L473.707,206.233z"/>
			</g>
			<g>
				<path fill="#231F20" d="M340.261,217.012c10.412,23.867,56.234,33.633,67.355,5.354c0.25-0.637-2.207-0.345-2.492,0.381
					c-10.537,26.796-52.75,15.607-62.35-6.407C342.451,215.599,339.998,216.405,340.261,217.012L340.261,217.012z"/>
			</g>
			<g>
				<path fill="#231F20" d="M342.367,146.855c27.965-28.314,71.156-46.815,111.506-41.63c1.178,0.149,2.588-1.521,0.893-1.739
					c-41.42-5.321-85.766,13.626-114.48,42.699C339.187,147.295,341.625,147.606,342.367,146.855L342.367,146.855z"/>
			</g>
			<g>
				<path fill="#231F20" d="M462.195,104.298c5.363,1.127,10.898,1.383,16.08,3.29c0.689,0.257,2.557-0.773,2.369-0.843
					c-5.291-1.947-10.9-2.244-16.379-3.396C463.691,103.229,461.523,104.156,462.195,104.298L462.195,104.298z"/>
			</g>
			<g>
				<path fill="#231F20" d="M389.363,146.253c1.635,3.1,4.504,5.507,7.975,6.229c0.596,0.126,1.324-0.051,1.773-0.477
					c0.387-0.362,0.277-0.847-0.258-0.959c-2.99-0.623-5.564-2.784-6.979-5.468C391.398,144.674,388.957,145.479,389.363,146.253
					L389.363,146.253z"/>
			</g>
			<g>
				<path fill="#231F20" d="M411.437,141.902c0.373,0.417,0.783,0.737,1.262,1.026c0.43,0.263,1.193,0.02,1.617-0.137
					c0.104-0.038,1.145-0.481,0.746-0.725c-0.477-0.289-0.885-0.609-1.26-1.027C413.378,140.563,411.039,141.454,411.437,141.902
					L411.437,141.902z"/>
			</g>
			<g>
				<path fill="#231F20" d="M335.359,238.48c4.139-4.219,8.748-7.773,13.875-10.715c1.072-0.614-1.467-0.347-1.926-0.081
					c-5.254,3.014-9.98,6.656-14.227,10.979C332.548,239.209,334.933,238.912,335.359,238.48L335.359,238.48z"/>
			</g>
		</g>
	</g>
	<g>
		<g>
			<path fill="#FFFFFF" d="M293.838,1.047c-28.881,5.054-59.626,24.363-80.896,41.896c-23.354,18.804-39.673,31.505-55.419,77.152
				c-13.179,38.226,4.243,86.884,34.204,122.691c0,0,4.088-9.167,10.415-16.621c6.832-8.051,8.297-12.48,8.297-12.48l2.331-15.53
				c13.777,0.721,41.311-15.378,32.311-36.147v-0.003c20-5.82,41.113-21.584,31.668-49.657c23.504-10.183,38.047-44.6,26.194-58.912
				C322.06,33.121,326.531-3.391,293.838,1.047z"/>
			<path fill="#FFFFFF" d="M212.59,198.964c-1.447,4.876-2.147,9.582-2.151,14.723L212.59,198.964z"/>
		</g>
		<g>
			<g>
				<path fill="#231F20" d="M192.895,242.31c-21.991-26.598-38.405-60.056-38.571-95.144c-0.083-17.374,6.081-33.675,13.21-49.263
					c5.832-12.758,13.5-24.522,23.237-34.636c8.473-8.803,18.306-16.361,27.869-23.927c15.475-12.241,32.517-22.752,50.737-30.37
					c12.055-5.04,34.451-14.354,44.193-0.674c6.285,8.826,2.02,22.247-2.127,30.973c-12.398,26.075-45.173,38.166-71.735,43.747
					c-1.534,0.32-1.188,1.488,0.314,1.173c19.427-4.082,39.332-11.61,55.459-23.268c14.321-10.354,31.491-35.66,20.427-53.586
					c-4.91-7.955-16.217-8.177-24.292-6.491c-16.998,3.547-32.829,10.792-47.77,19.503c-13.805,8.05-26.341,17.847-38.707,27.917
					c-8.647,7.044-16.891,14.491-23.924,23.183c-8.273,10.228-14.321,22.049-19.4,34.124c-6.297,14.97-10.336,29.755-9.951,46.077
					c0.796,33.631,17.66,66.184,38.694,91.619C191.082,243.901,193.489,243.027,192.895,242.31L192.895,242.31z"/>
			</g>
			<g>
				<path fill="#231F20" d="M302.074,54.734c10.408,13.704-1.369,35.264-10.951,45.893c-6.924,7.683-15.921,11.527-25.375,15.129
					c-12.491,4.761-25.745,8.337-39.186,8.367c-1.421,0.003-1.938,1.812-0.23,1.807c13.239-0.028,26.272-3.456,38.625-8.022
					c10.711-3.961,20.265-8.194,28.262-16.561c10.343-10.821,21.822-33.662,11.158-47.708
					C303.695,52.743,301.3,53.717,302.074,54.734L302.074,54.734z"/>
			</g>
			<g>
				<path fill="#231F20" d="M275.25,112.684c5.714,17.875-0.524,33.682-16.622,43.151c-12.366,7.273-31.141,11.479-45.017,6.229
					c-0.56-0.211-2.815,0.691-2.063,0.978c14.174,5.361,32.439,0.995,45.563-5.298c18.346-8.796,26.944-26.044,20.649-45.732
					C277.572,111.422,275.082,112.149,275.25,112.684L275.25,112.684z"/>
			</g>
			<g>
				<path fill="#231F20" d="M201.08,196.819c20.023,8.063,54.518-11.074,44.775-35.146c-0.336-0.828-2.808-0.061-2.512,0.674
					c8.906,22.012-21.188,40.981-40.254,33.306C202.38,195.366,200.084,196.418,201.08,196.819L201.08,196.819z"/>
			</g>
			<g>
				<path fill="#231F20" d="M162.362,153.726c0.412-33.616,15.709-70.264,43.261-90.846c1.029-0.768-1.481-0.434-1.929-0.099
					c-27.884,20.828-43.426,57.531-43.845,91.616C159.844,154.83,162.354,154.472,162.362,153.726L162.362,153.726z"/>
			</g>
			<g>
				<path fill="#231F20" d="M210.69,57.385c3.854-2.405,7.291-5.476,11.49-7.302c1.524-0.663-0.837-0.674-1.466-0.399
					c-4.371,1.901-7.949,5.066-11.967,7.571C207.67,57.93,210.208,57.686,210.69,57.385L210.69,57.385z"/>
			</g>
			<g>
				<path fill="#231F20" d="M189.457,125.539c3.16,1.027,6.84,0.672,9.676-1.101c1.434-0.895-0.806-0.997-1.508-0.56
					c-1.868,1.165-4.08,1.224-6.144,0.553C190.811,124.214,188.539,125.242,189.457,125.539L189.457,125.539z"/>
			</g>
			<g>
				<path fill="#231F20" d="M200.722,110.46c0.7,0.051,1.339-0.003,2.026-0.156c0.531-0.12,1.171-0.653,1.007-1.265
					c-0.173-0.641-0.974-0.71-1.503-0.59c-0.27,0.062-0.379,0.093-0.691,0.07c-0.619-0.044-1.355,0.167-1.629,0.793
					C199.69,109.872,200.152,110.419,200.722,110.46L200.722,110.46z"/>
			</g>
			<g>
				<path fill="#231F20" d="M211.694,213.35c0.052-4.98,0.767-9.806,2.141-14.588c0.181-0.636-2.29-0.282-2.489,0.405
					c-1.396,4.875-2.111,9.787-2.164,14.854C209.177,214.53,211.684,214.147,211.694,213.35L211.694,213.35z"/>
			</g>
		</g>
	</g>
</g>
</svg>
