<?xml version="1.0" encoding="utf-8"?>
<!-- Generator: Adobe Illustrator 13.0.0, SVG Export Plug-In . SVG Version: 6.00 Build 14948)  -->
<svg version="1.2" baseProfile="tiny" id="Layer_1" xmlns="http://www.w3.org/2000/svg" xmlns:xlink="http://www.w3.org/1999/xlink"
	 x="0px" y="0px" width="471.108px" height="471.107px" viewBox="0 0 471.108 471.107" xml:space="preserve">
<g>
	<path fill="#FFFFFF" d="M470.108,235.555c0,14.84-25.854,26.949-28.632,40.977c-2.857,14.453,16.345,35.51,10.829,48.807
		c-5.609,13.531-34.133,14.818-42.181,26.842c-8.113,12.119,1.557,38.957-8.717,49.229c-10.272,10.275-37.113,0.604-49.229,8.717
		c-12.024,8.049-13.31,36.57-26.84,42.182c-13.3,5.514-34.356-13.688-48.806-10.828c-14.027,2.773-26.138,28.629-40.979,28.629
		s-26.949-25.854-40.977-28.631c-14.453-2.857-35.51,16.344-48.809,10.83c-13.529-5.611-14.814-34.133-26.84-42.182
		c-12.119-8.113-38.957,1.557-49.23-8.717c-10.275-10.273-0.602-37.111-8.715-49.23c-8.052-12.025-36.571-13.309-42.182-26.84
		c-5.516-13.297,13.688-34.354,10.829-48.805C26.857,262.504,1,250.395,1,235.555c0-14.842,25.855-26.951,28.632-40.979
		c2.858-14.451-16.345-35.51-10.829-48.807c5.61-13.529,34.133-14.814,42.183-26.84c8.112-12.119-1.56-38.955,8.715-49.23
		c10.274-10.273,37.11-0.604,49.229-8.717c12.025-8.049,13.311-36.57,26.84-42.182c13.299-5.514,34.354,13.688,48.809,10.83
		C208.602,26.857,220.714,1,235.555,1s26.951,25.857,40.979,28.631c14.452,2.857,35.51-16.344,48.807-10.83
		c13.529,5.611,14.814,34.133,26.839,42.184c12.119,8.113,38.958-1.559,49.231,8.715c10.275,10.275,0.603,37.111,8.715,49.23
		c8.051,12.025,36.571,13.311,42.181,26.84c5.516,13.297-13.685,34.355-10.828,48.807
		C444.254,208.602,470.108,220.713,470.108,235.555z"/>
	<path fill="none" stroke="#231F20" stroke-width="2" stroke-miterlimit="10" d="M470.108,235.555
		c0,14.84-25.854,26.949-28.632,40.977c-2.857,14.453,16.345,35.51,10.829,48.807c-5.609,13.531-34.133,14.818-42.181,26.842
		c-8.113,12.119,1.557,38.957-8.717,49.229c-10.272,10.275-37.113,0.604-49.229,8.717c-12.024,8.049-13.31,36.57-26.84,42.182
		c-13.3,5.514-34.356-13.688-48.806-10.828c-14.027,2.773-26.138,28.629-40.979,28.629s-26.949-25.854-40.977-28.631
		c-14.453-2.857-35.51,16.344-48.809,10.83c-13.529-5.611-14.814-34.133-26.84-42.182c-12.119-8.113-38.957,1.557-49.23-8.717
		c-10.275-10.273-0.602-37.111-8.715-49.23c-8.052-12.025-36.571-13.309-42.182-26.84c-5.516-13.297,13.688-34.354,10.829-48.805
		C26.857,262.504,1,250.395,1,235.555c0-14.842,25.855-26.951,28.632-40.979c2.858-14.451-16.345-35.51-10.829-48.807
		c5.61-13.529,34.133-14.814,42.183-26.84c8.112-12.119-1.56-38.955,8.715-49.23c10.274-10.273,37.11-0.604,49.229-8.717
		c12.025-8.049,13.311-36.57,26.84-42.182c13.299-5.514,34.354,13.688,48.809,10.83C208.602,26.857,220.714,1,235.555,1
		s26.951,25.857,40.979,28.631c14.452,2.857,35.51-16.344,48.807-10.83c13.529,5.611,14.814,34.133,26.839,42.184
		c12.119,8.113,38.958-1.559,49.231,8.715c10.275,10.275,0.603,37.111,8.715,49.23c8.051,12.025,36.571,13.311,42.181,26.84
		c5.516,13.297-13.685,34.355-10.828,48.807C444.254,208.602,470.108,220.713,470.108,235.555z"/>
</g>
</svg>
