<?xml version="1.0" encoding="utf-8"?>
<!-- Generator: Adobe Illustrator 13.0.0, SVG Export Plug-In . SVG Version: 6.00 Build 14948)  -->
<svg version="1.2" baseProfile="tiny" id="Layer_1" xmlns="http://www.w3.org/2000/svg" xmlns:xlink="http://www.w3.org/1999/xlink"
	 x="0px" y="0px" width="462.549px" height="462.549px" viewBox="0 0 462.549 462.549" xml:space="preserve">
<path fill="none" d="M461.275,231.551c0-22.578-11.806-42.384-29.568-53.621c9.86-18.652,10.219-41.797-1.106-61.416
	c-11.288-19.553-31.418-30.804-52.422-31.655c-0.78-21.08-12.046-41.307-31.662-52.634c-19.552-11.287-42.61-10.966-61.227-1.202
	c-11.221-17.866-31.086-29.748-53.736-29.748c-22.58,0-42.388,11.806-53.627,29.571c-18.648-9.862-41.793-10.224-61.412,1.103
	C96.961,43.238,85.711,63.367,84.86,84.371c-21.08,0.782-41.307,12.045-52.631,31.662c-11.291,19.555-10.969,42.609-1.206,61.227
	C13.16,188.479,1.275,208.348,1.275,230.998c0,22.58,11.806,42.386,29.571,53.625c-9.863,18.647-10.221,41.795,1.105,61.411
	c11.287,19.554,31.414,30.804,52.42,31.657c0.784,21.078,12.047,41.305,31.662,52.631c19.557,11.29,42.611,10.966,61.227,1.203
	c11.218,17.865,31.086,29.748,53.74,29.748c22.576,0,42.382-11.806,53.621-29.569c18.65,9.86,41.798,10.222,61.414-1.104
	c19.554-11.29,30.804-31.416,31.655-52.422c21.079-0.784,41.307-12.045,52.634-31.663c11.287-19.554,10.966-42.609,1.199-61.227
	C449.393,274.069,461.275,254.203,461.275,231.551z"/>
<path fill="#FFFFFF" d="M153.336,439.841c0.041-0.012,0.08-0.021,0.12-0.033c-0.038,0.004-0.077,0.007-0.115,0.011
	C153.34,439.824,153.338,439.832,153.336,439.841z"/>
<path fill="#FFFFFF" d="M153.219,439.828l-0.039,0.056c0.054-0.015,0.104-0.029,0.156-0.043c0.002-0.009,0.003-0.017,0.005-0.022
	C153.301,439.821,153.26,439.824,153.219,439.828z"/>
<path fill="#FFFFFF" d="M309.26,437.604c-0.264-0.685-0.804-1.294-1.557-1.837c0.275,0.586,0.541,1.177,0.797,1.771
	C308.752,437.563,309.006,437.582,309.26,437.604z"/>
<path fill="#FFFFFF" d="M306.52,437.315c0.659,0.085,1.318,0.16,1.98,0.223c-0.256-0.595-0.521-1.186-0.797-1.771
	c-0.711-0.512-1.611-0.964-2.648-1.362C305.563,435.359,306.05,436.33,306.52,437.315z"/>
<path d="M462.549,231.551c0-21.914-10.884-42.036-29.178-54.064c9.932-19.611,9.332-42.556-1.668-61.609
	c-10.957-18.979-30.445-30.962-52.305-32.233c-1.2-21.949-13.189-41.519-32.246-52.521c-9.824-5.671-20.98-8.669-32.265-8.669
	c-10.079,0-20.132,2.386-29.15,6.907C273.722,10.952,253.554,0,231.553,0c-21.916,0-42.041,10.885-54.07,29.181
	c-9.07-4.587-19.189-7.007-29.344-7.007c-11.281,0-22.438,2.998-32.263,8.67C96.9,41.802,84.915,61.291,83.644,83.15
	c-21.951,1.202-41.52,13.191-52.519,32.245c-10.957,18.978-11.593,41.848-1.765,61.415C10.952,188.827,0,208.996,0,230.998
	c0,21.914,10.885,42.038,29.181,54.067c-9.935,19.608-9.335,42.552,1.667,61.605c10.954,18.976,30.442,30.962,52.304,32.236
	c1.203,21.947,13.192,41.517,32.245,52.52c7.507,4.333,15.792,7.101,24.314,8.167c0.413-0.822,0.865-1.625,1.348-2.41
	c-8.549-0.924-16.874-3.627-24.388-7.966c-18.626-10.756-30.225-30.035-31.026-51.574l-0.044-1.178l-1.178-0.048
	c-21.456-0.873-40.659-12.471-51.368-31.022c-10.755-18.628-11.16-41.124-1.083-60.178l0.552-1.042l-0.997-0.631
	C13.383,272.066,2.55,252.422,2.55,230.998c0-21.511,10.897-41.194,29.151-52.658l0.999-0.628l-0.548-1.044
	c-9.972-19.018-9.531-41.445,1.181-59.997c10.752-18.627,30.033-30.227,51.574-31.025l1.179-0.044l0.048-1.179
	c0.87-21.454,12.465-40.658,31.018-51.37c9.438-5.449,20.154-8.329,30.988-8.329c10.13,0,20.224,2.507,29.191,7.249l1.043,0.552
	l0.631-0.997c11.479-18.146,31.123-28.979,52.549-28.979c21.507,0,41.193,10.897,52.656,29.15l0.628,0.999l1.044-0.548
	c8.92-4.678,18.95-7.149,29.008-7.149c10.836,0,21.554,2.88,30.989,8.328c18.63,10.757,30.229,30.038,31.026,51.575l0.043,1.181
	l1.179,0.047c21.454,0.87,40.657,12.466,51.37,31.02c10.752,18.627,11.157,41.125,1.083,60.184l-0.552,1.043l0.997,0.63
	C449.168,190.484,460,210.127,460,231.551c0,21.512-10.899,41.196-29.154,52.657l-1,0.628l0.549,1.044
	c9.976,19.015,9.535,41.442-1.174,59.997c-10.755,18.627-30.036,30.226-51.578,31.025l-1.178,0.044l-0.049,1.18
	c-0.869,21.454-12.465,40.657-31.018,51.368c-5.868,3.39-12.229,5.781-18.807,7.109c0.255,0.489,0.498,0.984,0.727,1.488
	c0.215,0.477-0.913,1.037-1.835,1.125c-0.007,0.063-0.012,0.124-0.02,0.188c7.425-1.301,14.617-3.896,21.208-7.701
	c18.979-10.957,30.962-30.445,32.233-52.306c21.951-1.203,41.521-13.191,52.521-32.246c10.955-18.979,11.59-41.849,1.76-61.415
	C451.596,273.724,462.549,253.556,462.549,231.551z"/>
<path d="M231,460c-14.576,0-28.31-5.01-39.219-13.913l-3.878,0.038c11.69,10.479,26.893,16.424,43.097,16.424
	c16.612,0,32.194-6.264,44.005-17.265l-3.882,0.037C260.069,454.702,245.972,460,231,460z"/>
<path d="M186.953,441.711c-0.462,0.734-0.93,1.469-1.404,2.196c0.767,0.762,1.554,1.498,2.355,2.218l3.878-0.038
	C190.104,444.718,188.489,443.261,186.953,441.711z"/>
<path d="M279.767,440.353c-0.48-0.746-0.955-1.499-1.425-2.256c-2.222,2.621-4.637,5.035-7.219,7.226l3.882-0.037
	C276.67,443.733,278.26,442.088,279.767,440.353z"/>
<path d="M185.395,443.753c0.052,0.052,0.102,0.104,0.154,0.154c0.474-0.729,0.941-1.462,1.404-2.196
	c-0.05-0.051-0.097-0.104-0.146-0.152C186.341,442.294,185.871,443.025,185.395,443.753z"/>
<path d="M141.205,437.201c-0.049-0.006-0.097-0.012-0.146-0.018c-0.483,0.785-0.935,1.588-1.348,2.41
	c0.034,0.005,0.068,0.008,0.102,0.012C140.239,438.783,140.708,437.985,141.205,437.201z"/>
<path d="M147.66,437.548c-1.292,0-2.582-0.044-3.869-0.125c-0.495,0.796-0.956,1.611-1.375,2.449
	c1.742,0.145,3.491,0.226,5.244,0.226c0.926,0,1.852-0.042,2.776-0.082c0.184-0.865,0.402-1.723,0.663-2.568
	C149.955,437.512,148.808,437.548,147.66,437.548z"/>
<path d="M153.457,439.808c0.073-0.006,0.147-0.012,0.22-0.021c0.006-0.015,0.013-0.029,0.019-0.046
	C153.617,439.765,153.537,439.785,153.457,439.808z"/>
<path d="M178.34,430.849l-0.627-0.999l-1.045,0.548c-7.034,3.688-14.759,5.999-22.642,6.814c-0.246,0.78-0.455,1.572-0.633,2.375
	l1.478-2.065c-0.515,0.757-0.9,1.497-1.175,2.221c3.684-1.048,5.417-2.91,9.611-3.231c3.472-0.173,6.675-0.796,9.841-1.632
	c1.237-0.527,2.46-1.086,3.663-1.688c0.116,0.178,0.238,0.352,0.356,0.527c0.84-0.259,1.685-0.524,2.538-0.796
	C179.239,432.24,178.781,431.552,178.34,430.849z"/>
<path d="M153.696,439.741c-0.006,0.017-0.013,0.031-0.019,0.046c6.691-0.628,13.281-2.275,19.471-4.909
	c-3.166,0.836-6.369,1.459-9.841,1.632C159.112,436.831,157.379,438.694,153.696,439.741z"/>
<path d="M179.705,432.921c-0.853,0.271-1.697,0.536-2.538,0.796c2,3.001,4.219,5.799,6.628,8.38
	c0.479-0.736,0.952-1.479,1.417-2.226C183.232,437.706,181.391,435.388,179.705,432.921z"/>
<path d="M154.871,437.521l-1.478,2.065c-0.017,0.076-0.035,0.153-0.051,0.23c0.038-0.004,0.077-0.007,0.115-0.011
	c0.081-0.021,0.161-0.043,0.239-0.065C153.97,439.019,154.355,438.278,154.871,437.521z"/>
<path d="M152.541,437.348c-0.48,0.038-0.96,0.073-1.441,0.1c-0.261,0.847-0.479,1.703-0.663,2.568
	c0.465-0.021,0.929-0.034,1.393-0.063C152.023,439.078,152.258,438.21,152.541,437.348z"/>
<path d="M154.026,437.212c-0.495,0.051-0.99,0.096-1.485,0.136c-0.283,0.862-0.518,1.73-0.711,2.604
	c0.464-0.03,0.927-0.083,1.39-0.123l0.173-0.241C153.571,438.784,153.78,437.992,154.026,437.212z"/>
<path d="M153.393,439.587l-0.173,0.241c0.041-0.004,0.082-0.008,0.123-0.011C153.358,439.74,153.375,439.663,153.393,439.587z"/>
<path d="M185.211,439.871c-0.465,0.746-0.938,1.488-1.417,2.226c0.046,0.05,0.093,0.101,0.139,0.149
	c0.477-0.738,0.945-1.482,1.407-2.229C185.297,439.969,185.254,439.92,185.211,439.871z"/>
<path d="M143.641,437.414c-0.48,0.798-0.924,1.613-1.328,2.449c0.034,0.003,0.069,0.006,0.104,0.009
	c0.419-0.838,0.88-1.653,1.375-2.449C143.741,437.42,143.691,437.419,143.641,437.414z"/>
<path d="M185.838,440.552c-0.472,0.746-0.94,1.485-1.409,2.225c0.318,0.331,0.642,0.653,0.966,0.978
	c0.476-0.729,0.946-1.459,1.411-2.194C186.48,441.228,186.158,440.892,185.838,440.552z"/>
<path d="M185.341,440.017c-0.461,0.747-0.93,1.491-1.407,2.229c0.166,0.177,0.328,0.355,0.495,0.529
	c0.469-0.738,0.937-1.479,1.409-2.225C185.671,440.375,185.506,440.195,185.341,440.017z"/>
<path d="M142.467,437.319c-0.421-0.036-0.842-0.073-1.263-0.117c-0.497,0.783-0.965,1.582-1.392,2.404
	c0.43,0.054,0.859,0.105,1.29,0.15C141.501,438.936,141.96,438.121,142.467,437.319z"/>
<path d="M142.467,437.319c-0.507,0.803-0.966,1.616-1.365,2.438c0.403,0.041,0.807,0.073,1.21,0.106
	c0.404-0.836,0.848-1.651,1.328-2.449C143.249,437.39,142.858,437.353,142.467,437.319z"/>
<path d="M325.484,439.188c-0.001,0.01,0.001,0.02,0,0.03c0.922-0.088,2.05-0.648,1.835-1.125
	C327.518,438.534,326.399,439.087,325.484,439.188z"/>
<path d="M327.319,438.093c-0.229-0.504-0.472-0.999-0.727-1.488l0,0C326.848,437.094,327.091,437.589,327.319,438.093z"/>
<path d="M324.42,438.869c-0.266-0.591-0.56-1.168-0.865-1.737c-3.021,0.454-6.075,0.692-9.144,0.692h-0.003
	c-1.494,0-2.986-0.062-4.477-0.17c0.396,0.861,0.774,1.736,1.145,2.621c1.108,0.057,2.22,0.099,3.332,0.099c0.001,0,0.002,0,0.003,0
	c3.713,0,7.411-0.33,11.054-0.97c0.008-0.063,0.013-0.125,0.02-0.188C324.993,439.264,324.56,439.179,324.42,438.869z"/>
<path d="M284.174,430.026l-0.63,0.997c-0.097,0.152-0.197,0.3-0.296,0.451c1.021,0.012,2.397,0.047,3.996,0.123
	c-0.683-0.329-1.358-0.666-2.027-1.021L284.174,430.026z"/>
<path d="M287.245,431.598c-1.598-0.076-2.977-0.111-3.996-0.123c-0.905,1.405-1.859,2.767-2.861,4.081
	c0.461,0.785,0.93,1.565,1.41,2.343c1.145-1.455,2.238-2.963,3.268-4.529c7.08,3.58,14.805,5.819,22.683,6.64
	c-0.393-0.909-0.803-1.808-1.227-2.692C299.846,436.46,293.315,434.526,287.245,431.598z"/>
<path d="M309.299,439.496c0.087,0.225,0.176,0.447,0.262,0.673c0.506,0.037,1.011,0.079,1.517,0.106
	c-0.369-0.885-0.748-1.76-1.145-2.621c-0.225-0.016-0.448-0.033-0.673-0.052C309.481,438.18,309.507,438.81,309.299,439.496z"/>
<path d="M309.299,439.496c0.208-0.688,0.183-1.316-0.039-1.894c-0.254-0.021-0.508-0.041-0.76-0.065
	C308.778,438.187,309.042,438.841,309.299,439.496z"/>
<path d="M309.561,440.169c-0.086-0.226-0.175-0.448-0.262-0.673c-0.063,0.203-0.146,0.413-0.251,0.627
	C309.219,440.138,309.389,440.156,309.561,440.169z"/>
<path d="M306.52,437.315c0.425,0.886,0.834,1.783,1.228,2.692c0.434,0.045,0.867,0.079,1.302,0.115
	c0.104-0.214,0.188-0.424,0.251-0.627c-0.258-0.655-0.521-1.311-0.799-1.959C307.838,437.476,307.179,437.4,306.52,437.315z"/>
<path d="M324.42,438.869c0.14,0.31,0.572,0.395,1.063,0.349c0.001-0.012-0.001-0.021,0-0.03
	C324.991,439.241,324.555,439.168,324.42,438.869z"/>
<path d="M323.555,437.132c0.307,0.569,0.601,1.146,0.865,1.737C324.155,438.279,323.862,437.701,323.555,437.132L323.555,437.132z"
	/>
<path d="M278.342,438.097c0.47,0.757,0.943,1.51,1.425,2.256c0.004-0.004,0.008-0.008,0.012-0.012
	c-0.482-0.746-0.959-1.498-1.428-2.254C278.347,438.09,278.344,438.094,278.342,438.097z"/>
<path d="M278.351,438.087c0.469,0.756,0.944,1.508,1.428,2.254c0.414-0.479,0.822-0.963,1.225-1.453
	c-0.477-0.752-0.957-1.515-1.439-2.278C279.166,437.108,278.761,437.602,278.351,438.087z"/>
<path d="M280.375,435.572c0.46,0.785,0.931,1.565,1.41,2.342c0.004-0.005,0.008-0.011,0.013-0.016
	c-0.48-0.776-0.949-1.558-1.41-2.343C280.382,435.562,280.378,435.566,280.375,435.572z"/>
<path d="M280.375,435.572c-0.267,0.351-0.538,0.694-0.812,1.037c0.481,0.765,0.963,1.526,1.438,2.278
	c0.263-0.322,0.524-0.646,0.782-0.975C281.306,437.138,280.834,436.357,280.375,435.572z"/>
<path d="M325.045,436.891c0.275,0.528,0.531,1.058,0.756,1.591l-0.311,0.147c0.02,0.182,0.008,0.371-0.007,0.559
	c0.915-0.101,2.033-0.652,1.835-1.095c-0.229-0.504-0.472-0.999-0.727-1.488C326.079,436.707,325.563,436.8,325.045,436.891z"/>
<path d="M325.484,439.188c0.015-0.188,0.025-0.377,0.007-0.559l0.311-0.147c-0.225-0.533-0.479-1.063-0.756-1.591
	c-0.495,0.087-0.992,0.166-1.489,0.241c0.307,0.569,0.6,1.146,0.864,1.737C324.555,439.168,324.991,439.241,325.484,439.188z"/>
</svg>
