<?xml version="1.0" encoding="utf-8"?>
<!-- Generator: Adobe Illustrator 13.0.0, SVG Export Plug-In . SVG Version: 6.00 Build 14948)  -->
<svg version="1.2" baseProfile="tiny" id="Layer_1" xmlns="http://www.w3.org/2000/svg" xmlns:xlink="http://www.w3.org/1999/xlink"
	 x="0px" y="0px" width="471.063px" height="471.063px" viewBox="0 0 471.063 471.063" xml:space="preserve">
<path fill="#FFFFFF" stroke="#231F20" stroke-width="2" stroke-miterlimit="10" d="M470.063,235.813
	c0-23.021-12.036-43.219-30.15-54.676c10.055-19.021,10.421-42.621-1.127-62.627c-11.512-19.938-32.038-31.41-53.455-32.28
	c-0.797-21.496-12.284-42.121-32.286-53.67c-19.938-11.511-43.451-11.183-62.435-1.228C279.17,13.115,258.913,1,235.815,1
	c-23.024,0-43.223,12.037-54.685,30.154c-19.015-10.057-42.615-10.426-62.62,1.123C98.571,43.791,87.1,64.316,86.231,85.734
	c-21.496,0.799-42.121,12.282-53.668,32.286c-11.513,19.94-11.185,43.449-1.229,62.434C13.119,191.894,1,212.152,1,235.25
	c0,23.023,12.038,43.221,30.154,54.682c-10.058,19.016-10.423,42.618,1.127,62.621c11.51,19.938,32.033,31.409,53.452,32.28
	c0.8,21.494,12.284,42.119,32.287,53.669c19.941,11.514,43.451,11.184,62.433,1.227c11.438,18.219,31.698,30.334,54.798,30.334
	c23.022,0,43.218-12.037,54.679-30.15c19.019,10.056,42.621,10.423,62.624-1.127c19.939-11.512,31.41-32.035,32.279-53.455
	c21.495-0.801,42.12-12.283,53.67-32.287c11.51-19.938,11.183-43.448,1.225-62.434C457.947,279.169,470.063,258.912,470.063,235.813
	z"/>
</svg>
