<?xml version="1.0" encoding="utf-8"?>
<!-- Generator: Adobe Illustrator 13.0.0, SVG Export Plug-In . SVG Version: 6.00 Build 14948)  -->
<svg version="1.2" baseProfile="tiny" id="Layer_1" xmlns="http://www.w3.org/2000/svg" xmlns:xlink="http://www.w3.org/1999/xlink"
	 x="0px" y="0px" width="462.549px" height="462.547px" viewBox="0 0 462.549 462.547" xml:space="preserve">
<path fill="#FFFFFF" stroke="#231F20" d="M461.275,231.551c0-22.579-11.807-42.383-29.57-53.621
	c9.859-18.653,10.222-41.798-1.104-61.416c-11.29-19.553-31.419-30.804-52.421-31.655c-0.783-21.08-12.047-41.307-31.663-52.634
	c-19.553-11.287-42.611-10.966-61.227-1.202c-11.222-17.866-31.084-29.748-53.737-29.748c-22.578,0-42.386,11.806-53.626,29.571
	c-18.647-9.862-41.793-10.223-61.412,1.103C96.96,43.239,85.71,63.368,84.859,84.372c-21.081,0.782-41.306,12.045-52.632,31.662
	c-11.29,19.555-10.968,42.608-1.205,61.227C13.159,188.48,1.275,208.348,1.275,230.999c0,22.58,11.807,42.384,29.57,53.625
	c-9.861,18.647-10.221,41.795,1.105,61.41c11.287,19.555,31.415,30.805,52.421,31.657c0.781,21.078,12.046,41.306,31.663,52.631
	c19.555,11.291,42.607,10.967,61.225,1.203c11.219,17.865,31.085,29.75,53.739,29.75c22.577,0,42.384-11.807,53.622-29.57
	c18.648,9.859,41.795,10.222,61.411-1.104c19.556-11.288,30.807-31.415,31.656-52.421c21.079-0.785,41.306-12.046,52.632-31.662
	c11.289-19.556,10.967-42.609,1.202-61.228C449.39,274.07,461.275,254.204,461.275,231.551z"/>
<path fill="#231F20" stroke="#231F20" d="M33.055,345.396c-10.754-18.627-11.159-41.123-1.083-60.179l0.551-1.041l-0.997-0.631
	C13.382,272.066,2.55,252.422,2.55,230.998c0-21.511,10.896-41.195,29.15-52.658l0.999-0.627l-0.55-1.045
	c-9.972-19.017-9.529-41.445,1.182-59.997c10.754-18.627,30.035-30.227,51.573-31.026l1.181-0.043l0.048-1.179
	c0.87-21.454,12.465-40.658,31.018-51.371c9.438-5.448,20.154-8.328,30.989-8.328c10.13,0,20.224,2.506,29.19,7.249l1.043,0.551
	l0.63-0.997c11.479-18.145,31.125-28.978,52.549-28.978c21.51,0,41.195,10.896,52.658,29.151l0.627,0.998l1.045-0.548
	c8.918-4.678,18.947-7.149,29.008-7.149c10.835,0,21.551,2.88,30.988,8.328c18.628,10.756,30.227,30.038,31.025,51.576l0.043,1.18
	l1.181,0.048c21.45,0.87,40.653,12.466,51.366,31.019c10.752,18.625,11.156,41.124,1.083,60.184l-0.552,1.042l0.997,0.631
	c18.144,11.478,28.978,31.12,28.978,52.543c0,21.51-10.898,41.196-29.153,52.659l-0.999,0.627l0.548,1.045
	c9.974,19.016,9.533,41.443-1.178,59.996c-4.701,8.143-11.032,14.94-18.471,20.084c0.412,0.746,0.825,1.492,1.251,2.229
	c7.826-5.366,14.491-12.487,19.429-21.037c10.955-18.977,11.59-41.848,1.762-61.413c18.408-12.017,29.361-32.187,29.361-54.188
	c0-21.913-10.887-42.035-29.182-54.064c9.933-19.614,9.332-42.558-1.666-61.609c-10.959-18.978-30.444-30.962-52.305-32.234
	c-1.202-21.949-13.19-41.519-32.246-52.521c-9.825-5.671-20.98-8.669-32.264-8.669c-10.08,0-20.133,2.386-29.152,6.907
	C273.722,10.952,253.554,0,231.551,0c-21.915,0-42.039,10.885-54.069,29.182c-9.067-4.587-19.188-7.007-29.343-7.007
	c-11.281,0-22.438,2.998-32.264,8.67C96.899,41.802,84.914,61.291,83.643,83.151c-21.95,1.202-41.519,13.191-52.52,32.245
	c-10.956,18.977-11.594,41.848-1.766,61.416C10.952,188.828,0,208.995,0,230.998c0,21.915,10.885,42.038,29.18,54.067
	c-9.934,19.61-9.334,42.553,1.667,61.604c4.213,7.297,9.691,13.556,16.078,18.574c1.06-0.266,2.121-0.524,3.182-0.783
	C43.28,359.452,37.451,353.012,33.055,345.396z"/>
<path fill="#FFFFFF" stroke="#231F20" d="M345.396,429.494c-9.438,5.451-20.151,8.33-30.985,8.33c-0.002,0-0.003,0-0.004,0
	c-10.13,0-20.225-2.506-29.188-7.246l-1.042-0.553l-0.631,0.998c-11.479,18.143-31.122,28.975-52.545,28.975
	c-21.513,0-41.197-10.896-52.66-29.149l-0.627-0.998l-1.044,0.547c-8.92,4.678-18.951,7.15-29.007,7.15
	c-10.834,0-21.552-2.879-30.987-8.328c-4.017-2.318-7.704-5.037-11.029-8.086c-0.564,0.246-1.135,0.48-1.699,0.729
	c-0.28,0.125-0.563,0.254-0.845,0.379c3.672,3.484,7.784,6.578,12.298,9.187c9.825,5.672,20.981,8.67,32.265,8.67
	c10.078,0,20.131-2.387,29.148-6.908c12.017,18.406,32.186,29.357,54.188,29.357c21.912,0,42.035-10.884,54.063-29.179
	c9.069,4.586,19.188,7.004,29.343,7.007c0.002,0,0.002,0,0.004,0c11.28,0,22.438-3,32.262-8.673
	c8.988-5.188,16.405-12.296,21.862-20.659c-0.387-0.979-0.777-1.953-1.169-2.931C362.049,416.814,354.574,424.196,345.396,429.494z"
	/>
<path fill="#FFFFFF" stroke="#231F20" d="M85.646,377.645l-0.043-1.178l-1.179-0.049c-12.148-0.494-23.573-4.432-33.146-11.115
	c-1.073,0.27-2.15,0.543-3.228,0.814c10.01,7.512,22.138,12.033,35.101,12.79c0.89,16.214,7.667,31.121,18.827,42.243
	c0.843-0.363,1.686-0.732,2.529-1.092C93.094,409.053,86.253,394.002,85.646,377.645z"/>
<path fill="#FFFFFF" stroke="#231F20" d="M105.643,421.133c-0.139-0.127-0.274-0.256-0.414-0.385
	c-0.842,0.35-1.709,0.719-2.565,1.08c0.144,0.141,0.292,0.272,0.437,0.413c0.282-0.125,0.563-0.254,0.845-0.379
	C104.508,421.616,105.077,421.379,105.643,421.133z"/>
<path fill="#FFFFFF" stroke="#231F20" d="M101.979,421.152c0.229,0.229,0.453,0.453,0.686,0.678c0.856-0.361,1.725-0.73,2.565-1.08
	c-0.243-0.229-0.481-0.457-0.722-0.688C103.662,420.418,102.821,420.788,101.979,421.152z"/>
<path fill="#FFFFFF" stroke="#231F20" d="M50.513,364.754c-0.135-0.099-0.271-0.193-0.407-0.293
	c-1.061,0.26-2.122,0.521-3.182,0.783c0.125,0.1,0.25,0.193,0.375,0.293C48.366,365.271,49.441,365.014,50.513,364.754z"/>
<path fill="#FFFFFF" stroke="#231F20" d="M50.513,364.754c-1.072,0.26-2.146,0.518-3.213,0.783c0.25,0.191,0.498,0.391,0.75,0.58
	c1.076-0.271,2.153-0.547,3.228-0.814C51.021,365.124,50.768,364.938,50.513,364.754z"/>
<path fill="#FFFFFF" stroke="#231F20" d="M377.643,376.902l-1.18,0.046l-0.048,1.179c-0.387,9.516-2.887,18.586-7.162,26.672
	c0.407,1.024,0.812,2.057,1.219,3.084c4.899-8.555,7.84-18.26,8.435-28.482c11.069-0.606,21.531-3.961,30.598-9.575
	c-0.439-0.713-0.888-1.438-1.333-2.181C399.153,373.23,388.698,376.493,377.643,376.902z"/>
<path fill="#FFFFFF" stroke="#231F20" d="M368.317,406.502c-0.309,0.541-0.626,1.078-0.951,1.609
	c0.392,0.979,0.782,1.951,1.169,2.932c0.33-0.508,0.655-1.02,0.974-1.533C369.112,408.506,368.715,407.502,368.317,406.502z"/>
<path fill="#FFFFFF" stroke="#231F20" d="M409.846,366.564c0.421,0.651,0.884,1.369,1.385,2.147
	c0.258-0.172,0.514-0.349,0.771-0.522c-0.428-0.734-0.841-1.48-1.253-2.229C410.449,366.167,410.147,366.364,409.846,366.564z"/>
<path fill="#FFFFFF" stroke="#231F20" d="M408.169,367.643c0.445,0.742,0.894,1.468,1.333,2.18c0.582-0.358,1.156-0.729,1.729-1.108
	c-0.501-0.778-0.964-1.496-1.385-2.147C409.293,366.933,408.734,367.292,408.169,367.643z"/>
<path fill="#FFFFFF" stroke="#231F20" d="M368.317,406.502c0.398,1,0.795,2.004,1.189,3.008c0.329-0.538,0.65-1.08,0.966-1.629
	c-0.407-1.027-0.812-2.06-1.219-3.084C368.948,405.37,368.637,405.938,368.317,406.502z"/>
</svg>
