<?xml version="1.0" encoding="utf-8"?>
<!-- Generator: Adobe Illustrator 13.0.0, SVG Export Plug-In . SVG Version: 6.00 Build 14948)  -->
<svg version="1.2" baseProfile="tiny" id="Layer_1" xmlns="http://www.w3.org/2000/svg" xmlns:xlink="http://www.w3.org/1999/xlink"
	 x="0px" y="0px" width="517.274px" height="511.778px" viewBox="0 0 517.274 511.778" xml:space="preserve">
<g>
	<g>
		<g>
			<path fill="#EB2227" d="M47.906,112.855c-6.734-4.992-13.141-10.912-19.23-17.523c-6.608,2.334-13.223,6.967-18.383,15.541
				c2.088,11.625,5.719,22.824,11.002,32.982C25.332,123.72,37.615,115.851,47.906,112.855z"/>
			<path fill="#231F20" d="M21.295,145.156c-0.478,0-0.929-0.266-1.152-0.701c-5.21-10.018-8.955-21.238-11.129-33.352
				c-0.057-0.311,0.003-0.631,0.165-0.9c4.749-7.891,11.163-13.307,19.063-16.098c0.489-0.172,1.037-0.037,1.388,0.346
				c6.243,6.775,12.653,12.617,19.052,17.359c0.395,0.295,0.593,0.789,0.503,1.275c-0.087,0.486-0.44,0.881-0.915,1.018
				c-9.536,2.775-21.737,10.234-25.699,30.008c-0.108,0.539-0.545,0.953-1.092,1.031C21.417,145.152,21.356,145.156,21.295,145.156z
				 M11.66,111.126c1.907,10.393,4.992,20.1,9.189,28.914c4.509-16.902,15.127-24.375,24.287-27.654
				c-5.66-4.393-11.309-9.607-16.826-15.535C21.496,99.462,15.899,104.261,11.66,111.126z"/>
		</g>
		<g>
			<path fill="#EB2227" d="M28.676,95.332c-6.955-7.549-13.502-15.986-19.672-24.93c-1.47,13.438-1.091,27.23,1.289,40.471
				C15.453,102.298,22.067,97.666,28.676,95.332z"/>
			<path fill="#231F20" d="M10.293,112.173c-0.079,0-0.156-0.008-0.234-0.023c-0.533-0.098-0.949-0.514-1.045-1.047
				c-2.38-13.244-2.817-26.984-1.303-40.844c0.061-0.539,0.447-0.986,0.974-1.119c0.524-0.135,1.081,0.074,1.39,0.523
				c6.484,9.4,13.064,17.738,19.556,24.787c0.298,0.32,0.413,0.77,0.308,1.193s-0.416,0.768-0.828,0.914
				c-7.318,2.584-13.273,7.627-17.703,14.984C11.167,111.937,10.744,112.173,10.293,112.173z M9.957,74.033
				c-0.965,11.291-0.606,22.477,1.07,33.342c4.119-5.805,9.285-10.021,15.405-12.574C20.955,88.722,15.428,81.755,9.957,74.033z"/>
		</g>
		<g>
			<path fill="#EB2227" d="M70.567,125.271c-7.944-2.873-15.495-7.105-22.661-12.416c-10.291,2.996-22.574,10.865-26.611,31
				c5.18,9.965,11.949,18.928,20.41,26.313C39.448,143.337,57.811,130.736,70.567,125.271z"/>
			<path fill="#231F20" d="M41.705,171.466c-0.306,0-0.613-0.107-0.855-0.318c-8.3-7.244-15.267-16.225-20.707-26.693
				c-0.137-0.264-0.181-0.564-0.121-0.855c4.219-21.051,17.296-29.016,27.521-31.992c0.39-0.113,0.811-0.037,1.139,0.203
				c7.283,5.396,14.795,9.514,22.328,12.238c0.504,0.182,0.841,0.65,0.859,1.184c0.015,0.535-0.297,1.023-0.789,1.232
				c-13.977,5.988-30.196,18.412-28.08,43.594c0.045,0.527-0.234,1.029-0.709,1.27C42.106,171.421,41.906,171.466,41.705,171.466z
				 M22.662,143.662c4.737,9.012,10.638,16.875,17.571,23.416c-0.606-23.902,15.379-36.053,26.983-41.705
				c-6.608-2.695-13.172-6.414-19.559-11.086C38.291,117.177,26.63,124.64,22.662,143.662z"/>
		</g>
		<g>
			<path fill="#EB2227" d="M91.004,129.423c-7.094-0.334-13.896-1.787-20.437-4.152c-12.757,5.465-31.119,18.066-28.862,44.896
				c8.301,7.246,18.229,12.967,29.883,16.617C62.416,158.695,79.258,139.105,91.004,129.423z"/>
			<path fill="#231F20" d="M71.588,188.085c-0.131,0-0.262-0.02-0.389-0.061c-11.401-3.57-21.611-9.25-30.35-16.879
				c-0.254-0.221-0.412-0.533-0.439-0.869c-2.365-28.137,17.561-41.023,29.646-46.201c0.305-0.129,0.646-0.141,0.953-0.027
				c6.611,2.391,13.356,3.762,20.056,4.076c0.535,0.025,1.002,0.377,1.171,0.889c0.17,0.508,0.008,1.07-0.407,1.412
				c-10.968,9.043-28.024,28.336-19.007,55.957c0.15,0.463,0.031,0.971-0.311,1.316C72.263,187.949,71.928,188.085,71.588,188.085z
				 M42.959,169.533c7.768,6.691,16.724,11.809,26.657,15.236c-7.228-25.85,7.122-44.404,18.144-54.273
				c-5.74-0.543-11.493-1.826-17.145-3.828C56.842,132.689,41.129,144.98,42.959,169.533z"/>
		</g>
	</g>
	<g>
		<g>
			<path fill="#EB2227" d="M352.433,54.449c4.622-6.994,8.613-14.75,12.075-23.047c7.007-0.066,14.81,2.021,22.591,8.313
				c2.017,11.639,2.436,23.404,0.95,34.758C377.364,56.933,363.13,53.744,352.433,54.449z"/>
			<path fill="#231F20" d="M388.049,75.773c-0.448,0-0.871-0.232-1.111-0.623c-7.877-12.934-18.581-19.49-31.821-19.49
				c-0.854,0-1.729,0.029-2.597,0.086c-0.488,0.02-0.961-0.219-1.209-0.645c-0.248-0.428-0.234-0.957,0.039-1.369
				c4.389-6.645,8.412-14.075,11.957-22.581c0.201-0.48,0.668-0.548,1.189-0.548h0.326c8.261,0,16.034,2.644,23.095,8.353
				c0.245,0.199,0.411,0.354,0.464,0.663c2.103,12.127,2.422,23.89,0.954,35.087c-0.069,0.545-0.477,0.955-1.018,1.07
				C388.227,75.793,388.137,75.773,388.049,75.773z M355.116,52.603c9.158,0,21.888,3.391,32.046,17.906
				c0.926-9.721,0.503-19.783-1.261-30.201c-6.325-4.998-13.228-7.766-20.53-7.891c-3.157,7.463-6.68,15.186-10.496,20.186
				C354.957,52.603,355.037,52.603,355.116,52.603z"/>
		</g>
		<g>
			<path fill="#EB2227" d="M364.508,31.402c3.951-9.471,7.217-19.643,9.953-30.156c5.979,12.125,10.342,25.215,12.638,38.469
				C379.317,33.423,371.515,31.335,364.508,31.402z"/>
			<path fill="#231F20" d="M387.099,41.603c-0.29,0-0.579,0.061-0.815-0.133c-6.588-5.324-13.809-7.867-21.461-7.867h-0.303
				c-0.487,0-0.846-0.662-1.092-1.025c-0.245-0.363-0.289-1.049-0.121-1.451c3.689-8.842,7.02-19.043,9.896-30.096
				c0.137-0.525,0.584-0.966,1.125-1.022c0.556-0.059,1.059,0.204,1.297,0.69c6.126,12.422,10.402,25.384,12.71,38.558
				c0.06,0.146,0.091,0.592,0.091,0.76c0,0.719-0.582,1.587-1.301,1.587C387.115,41.603,387.109,41.603,387.099,41.603z
				 M366.431,30.136c6.63,0.305,12.929,2.5,18.782,6.543c-2.146-10.783-5.637-21.416-10.404-31.695
				C372.311,14.113,369.501,22.55,366.431,30.136z"/>
		</g>
		<g>
			<path fill="#EB2227" d="M335.391,73.869c6.482-5.418,12.124-11.979,17.042-19.42c10.697-0.705,24.932,2.484,35.616,20.023
				c-1.459,11.139-4.752,21.875-10.176,31.707C370.811,80.197,349.245,74.638,335.391,73.869z"/>
			<path fill="#231F20" d="M377.873,107.478c-0.051,0-0.104-0.002-0.155-0.008c-0.524-0.064-0.96-0.439-1.1-0.949
				c-6.628-24.385-26.118-30.51-41.301-31.355c-0.533-0.029-0.993-0.383-1.161-0.889s-0.007-1.064,0.4-1.406
				c6.143-5.133,11.79-11.572,16.793-19.141c0.225-0.338,0.594-0.553,1-0.58c0.925-0.061,1.855-0.09,2.767-0.09
				c9.768,0,23.602,3.598,34.042,20.736c0.154,0.254,0.219,0.551,0.177,0.846c-1.53,11.701-5.006,22.521-10.323,32.166
				C378.78,107.224,378.342,107.478,377.873,107.478z M338.574,72.818c12.838,1.342,32.016,7.289,39.622,29.953
				c4.278-8.514,7.132-17.92,8.503-28.012c-8.244-13.299-19.548-19.764-33.543-19.051C348.751,62.287,343.858,68.029,338.574,72.818
				z"/>
		</g>
		<g>
			<path fill="#EB2227" d="M317.608,84.765c6.554-2.74,12.446-6.436,17.782-10.896c13.854,0.77,35.42,6.328,42.482,32.311
				c-5.32,9.65-12.694,18.424-22.39,25.842C354.486,102.484,331.959,89.839,317.608,84.765z"/>
			<path fill="#231F20" d="M355.483,133.32c-0.19,0-0.38-0.041-0.558-0.123c-0.439-0.209-0.727-0.646-0.743-1.133
				c-0.982-29.051-23.606-41.336-37.007-46.072c-0.509-0.18-0.852-0.652-0.867-1.189s0.303-1.027,0.8-1.236
				c6.183-2.586,12.052-6.186,17.448-10.695c0.252-0.211,0.577-0.322,0.905-0.301c13.13,0.73,36.261,6.023,43.665,33.268
				c0.09,0.326,0.047,0.674-0.115,0.969c-5.602,10.162-13.254,18.992-22.74,26.246C356.041,133.23,355.763,133.32,355.483,133.32z
				 M321.025,84.664c13.73,5.498,33.563,18.016,35.617,44.789c8.16-6.619,14.825-14.492,19.836-23.439
				c-6.684-23.695-25.652-29.871-40.652-30.816C331.195,79.013,326.231,82.189,321.025,84.664z"/>
		</g>
	</g>
	<polygon fill="#FFFFFF" stroke="#231F20" stroke-width="2" stroke-miterlimit="10" points="470.539,275.382 430.835,314.218 
		452.891,365.201 401.305,385.814 402.127,441.357 346.583,440.728 326.149,492.384 275.094,470.507 236.395,510.345 
		197.557,470.642 146.578,492.699 125.962,441.113 70.422,441.935 71.05,386.392 19.395,365.957 41.274,314.898 1.433,276.201 
		41.137,237.365 19.081,186.384 70.667,165.769 69.844,110.228 125.391,110.857 145.824,59.201 196.879,81.078 235.578,41.238 
		274.413,80.945 325.395,58.888 346.01,110.472 401.553,109.65 400.924,165.195 452.58,185.628 430.7,236.685 	"/>
	<g>
		<path fill="#FFFFFF" d="M449.618,92.146c-10.852,1.609-17.657-14.408-9.099-21.721c6.845-5.85,15.599-5.037,19.457,2.965
			c-2.473-8.887,2.373-23.766,17.321-21.018c14.831,2.725,13.65,14.641,10.563,22.766c8.613-7.313,26.049-2.852,27.788,8.941
			c2.925,19.824-14.94,23.91-20.938,22.029c8.75,11.441-1.334,23.176-10.763,23.697c-16.399,0.906-18.024-8.682-16.888-18.918
			c-5.523,11.861-14.055,9.912-19.201,8.387C436.515,115.91,436.35,94.312,449.618,92.146z"/>
		<path fill="#231F20" d="M481.863,131.166c-5.988,0-10.227-1.484-12.959-4.535c-2.592-2.895-3.355-6.857-3.423-10.576
			c-2.916,3.766-6.625,5.668-11.075,5.668c-2.514,0-4.811-0.576-6.916-1.201c-6.918-2.051-9.646-9.676-9.252-15.893
			c0.324-5.143,2.582-9.338,6.084-11.74c-3.524-1.279-6.477-4.311-7.998-8.428c-2.073-5.615-0.757-11.514,3.352-15.023
			c3.107-2.656,6.741-4.121,10.229-4.121c3.123,0,5.938,1.139,8.161,3.229c0.009-3.979,1.106-8.434,3.841-12.033
			c3.566-4.693,9.077-6.625,15.626-5.418c5.696,1.047,9.664,3.496,11.796,7.277c2.408,4.277,2.031,9.385,0.886,13.709
			c2.416-1.17,5.233-1.795,8.219-1.795c7.997,0,17.197,4.768,18.502,13.605c1.047,7.09-0.326,12.783-4.081,17.131
			c-4.258,4.934-10.531,6.582-14.982,6.582h-0.003c-0.165,0-0.329,0.107-0.491,0.102c2.414,4.387,2.652,9.143,0.631,13.537
			c-2.512,5.457-8.264,9.518-13.986,9.834C483.274,131.119,482.552,131.166,481.863,131.166z M467.061,109.587
			c0.117,0,0.234,0.016,0.352,0.049c0.613,0.172,1.012,0.762,0.941,1.395c-0.747,6.729,0.044,11.135,2.486,13.865
			c2.486,2.775,6.699,3.959,13.037,3.613c4.802-0.268,9.643-3.68,11.771-8.299c1.986-4.324,1.287-9.051-1.97-13.313
			c-0.346-0.449-0.357-1.07-0.033-1.533c0.326-0.465,0.916-0.476,1.454-0.306c0.736,0.23,1.694,0.544,2.77,0.544h0.003
			c3.699,0,9.325-1.708,13.013-5.979c3.241-3.752,4.409-8.948,3.479-15.259c-1.092-7.395-9.021-11.431-15.931-11.431
			c-3.812,0-7.268,1.126-9.729,3.218c-0.454,0.385-1.105,0.402-1.592,0.059c-0.484-0.342-0.677-0.975-0.464-1.529
			c1.336-3.516,3.168-10.147,0.413-15.032c-1.732-3.078-5.096-5.097-9.995-5.997c-5.549-1.018-10.131,0.537-13.087,4.432
			c-2.979,3.92-4.11,10.07-2.75,14.959c0.182,0.648-0.163,1.326-0.796,1.564c-0.631,0.242-1.335-0.045-1.628-0.65
			c-1.877-3.896-5.038-6.039-8.9-6.039c-2.87,0-5.903,1.24-8.541,3.496c-3.969,3.393-3.946,8.498-2.598,12.146
			c1.838,4.982,6.141,7.971,10.664,7.299c0.7-0.1,1.363,0.381,1.475,1.086c0.109,0.705-0.372,1.369-1.076,1.484
			c-6.166,1.006-8.689,6.531-8.996,11.365c-0.331,5.219,1.844,11.586,7.396,13.232c1.919,0.57,3.994,1.096,6.178,1.096
			c4.969,0,8.723-2.873,11.476-8.783C466.099,109.873,466.567,109.587,467.061,109.587z"/>
	</g>
	<g>
		<path fill="#231F20" d="M425.623,123.726c-0.719,0-1.299-0.582-1.299-1.301s0.58-1.301,1.299-1.301
			c7.61,0,20.322-5.23,25.308-11.977c0.428-0.576,1.241-0.701,1.818-0.273s0.699,1.242,0.272,1.818
			C447.508,118.152,434.01,123.726,425.623,123.726z"/>
	</g>
</g>
</svg>
