<?xml version="1.0" encoding="utf-8"?>
<!-- Generator: Adobe Illustrator 13.0.0, SVG Export Plug-In . SVG Version: 6.00 Build 14948)  -->
<svg version="1.2" baseProfile="tiny" id="Layer_1" xmlns="http://www.w3.org/2000/svg" xmlns:xlink="http://www.w3.org/1999/xlink"
	 x="0px" y="0px" width="397.03px" height="345.678px" viewBox="0 0 397.03 345.678" xml:space="preserve">
<g>
	<g>
		<g>
			<path fill="#FFFFFF" stroke="#231F20" stroke-width="2" stroke-linecap="round" stroke-linejoin="round" d="M360.934,54.555"/>
			<path fill="#FFFFFF" stroke="#231F20" stroke-width="2" stroke-linecap="round" stroke-linejoin="round" d="M211.478,344.005
				c103.041-5.625,184.553-77.789,184.553-166.004c0-31.609-10.468-61.16-28.643-86.33c9.265-9.625,14.968-22.702,14.968-37.115
				C382.355,24.978,358.377,1,328.798,1c-19.681,0-36.869,10.622-46.18,26.44c-25.517-10.134-54.024-15.807-84.106-15.807
				c-30.688,0-59.743,5.896-85.653,16.417C103.639,11.896,86.262,1,66.33,1C36.75,1,12.774,24.978,12.774,54.556
				c0,14.983,6.158,28.519,16.075,38.241C11.168,117.72,1,146.859,1,178.001c0,88.217,81.514,160.381,184.554,166.004
				C185.554,344.005,202.693,345.518,211.478,344.005z"/>
		</g>
		<path d="M328.798,22.419c-11.015,0-20.733,5.551-26.521,14.005c19.671,10.251,37.051,23.322,51.329,38.556
			c4.58-5.553,7.327-12.668,7.327-20.425C360.934,36.809,346.545,22.419,328.798,22.419z"/>
		<path d="M66.33,22.419c-17.747,0-32.132,14.389-32.132,32.136c0,8.263,3.141,15.77,8.265,21.463
			C56.58,60.711,73.802,47.543,93.329,37.172C87.609,28.304,77.664,22.419,66.33,22.419z"/>
	</g>
	<g>
		<path fill="#231F20" d="M202.765,78.477c5.276,0,7.063,3.499,3.971,7.773l-2.593,3.587c-3.093,4.277-8.156,4.277-11.248,0
			l-2.594-3.585c-3.093-4.276-1.305-7.775,3.973-7.775H202.765z"/>
	</g>
	<g>
		
			<line fill="none" stroke="#231F20" stroke-width="2" stroke-linecap="round" stroke-linejoin="round" stroke-miterlimit="10" x1="103.736" y1="63.163" x2="147.606" y2="63.163"/>
		<g>
			
				<line fill="none" stroke="#231F20" stroke-width="2" stroke-linecap="round" stroke-linejoin="round" stroke-miterlimit="10" x1="114.706" y1="63.163" x2="114.706" y2="82.962"/>
			
				<line fill="none" stroke="#231F20" stroke-width="2" stroke-linecap="round" stroke-linejoin="round" stroke-miterlimit="10" x1="129.519" y1="63.163" x2="129.519" y2="82.962"/>
		</g>
	</g>
	<g>
		
			<line fill="none" stroke="#231F20" stroke-width="2" stroke-linecap="round" stroke-linejoin="round" stroke-miterlimit="10" x1="291.752" y1="63.163" x2="247.881" y2="63.163"/>
		<g>
			
				<line fill="none" stroke="#231F20" stroke-width="2" stroke-linecap="round" stroke-linejoin="round" stroke-miterlimit="10" x1="280.783" y1="63.163" x2="280.783" y2="82.962"/>
			
				<line fill="none" stroke="#231F20" stroke-width="2" stroke-linecap="round" stroke-linejoin="round" stroke-miterlimit="10" x1="265.97" y1="63.163" x2="265.97" y2="82.962"/>
		</g>
	</g>
</g>
</svg>
