<?xml version="1.0" encoding="utf-8"?>
<!-- Generator: Adobe Illustrator 13.0.0, SVG Export Plug-In . SVG Version: 6.00 Build 14948)  -->
<svg version="1.2" baseProfile="tiny" id="Layer_1" xmlns="http://www.w3.org/2000/svg" xmlns:xlink="http://www.w3.org/1999/xlink"
	 x="0px" y="0px" width="457.738px" height="448.074px" viewBox="0 0 457.738 448.074" xml:space="preserve">
<g>
	<path fill="#FFFFFF" stroke="#231F20" stroke-width="2" stroke-linecap="round" stroke-linejoin="round" d="M428.617,305.689
		c17.848-29.414,28.121-63.928,28.121-100.844c0-107.52-87.16-194.684-194.688-194.684c-107.52,0-194.684,87.164-194.684,194.684
		c0,70.609,37.586,132.436,93.846,166.568h-0.006c0,0,74.527,47.076,240.066,75.66c0,0-24.545-43.58,27.344-141.381V305.689z"/>
	<g>
		<g>
			<g>
				<path fill="#FBE901" d="M126.273,137.131c-37.53,0-68.063-30.533-68.063-68.064S88.743,1,126.273,1
					c37.532,0,68.066,30.535,68.066,68.066S163.806,137.131,126.273,137.131z"/>
			</g>
			<g>
				<path fill="#231F20" d="M126.273,2c37.043,0,67.066,30.025,67.066,67.066s-30.023,67.064-67.066,67.064
					c-37.039,0-67.063-30.023-67.063-67.064S89.234,2,126.273,2 M126.273,0C88.192,0,57.211,30.984,57.211,69.066
					s30.981,69.064,69.063,69.064c38.083,0,69.066-30.982,69.066-69.064S164.356,0,126.273,0L126.273,0z"/>
			</g>
		</g>
		<g>
			<g>
				<line fill="#FFFFFF" x1="95.979" y1="42.943" x2="95.979" y2="58.949"/>
				<path fill="#231F20" d="M95.979,59.949c-0.553,0-1-0.447-1-1V42.943c0-0.552,0.447-1,1-1s1,0.448,1,1v16.006
					C96.979,59.502,96.531,59.949,95.979,59.949z"/>
			</g>
			<g>
				<line fill="#FFFFFF" x1="152.922" y1="42.943" x2="152.922" y2="58.949"/>
				<path fill="#231F20" d="M152.922,59.949c-0.553,0-1-0.447-1-1V42.943c0-0.552,0.447-1,1-1s1,0.448,1,1v16.006
					C153.922,59.502,153.475,59.949,152.922,59.949z"/>
			</g>
		</g>
		<g>
			<circle fill="#FFFFFF" cx="124.447" cy="92.717" r="13.998"/>
			<path fill="#231F20" d="M124.449,107.717c-8.271,0-15-6.729-15-15s6.729-15.002,15-15.002c8.269,0,14.996,6.73,14.996,15.002
				S132.718,107.717,124.449,107.717z M124.449,79.715c-7.168,0-13,5.833-13,13.002s5.832,13,13,13c7.166,0,12.996-5.831,12.996-13
				S131.615,79.715,124.449,79.715z"/>
		</g>
		<g>
			<path fill="#FCD900" d="M20.047,14.025C18.145,26.572,18.078,31.939,1,34.373c12.195,2.172,16.049,4.215,20.664,19.77
				c0.246-2.957,3.137-19.365,17.82-20.725C24.709,30.83,24.125,28.59,20.047,14.025z"/>
			<path fill="#231F20" d="M21.663,55.143c-0.438,0-0.831-0.287-0.958-0.715c-4.416-14.884-7.71-16.902-19.881-19.07
				C0.341,35.271-0.009,34.848,0,34.355c0.009-0.49,0.373-0.902,0.859-0.973c15.622-2.226,16.26-6.51,17.967-17.959l0.232-1.548
				c0.07-0.466,0.457-0.819,0.927-0.849c0.465-0.027,0.898,0.275,1.024,0.729l0.037,0.135c3.988,14.242,4.501,16.072,18.61,18.543
				c0.493,0.086,0.847,0.525,0.826,1.025s-0.408,0.909-0.907,0.955c-5.864,0.543-10.42,3.656-13.543,9.255
				c-2.318,4.157-3.22,8.724-3.373,10.558c-0.039,0.479-0.415,0.861-0.894,0.911C21.732,55.141,21.697,55.143,21.663,55.143z
				 M6.252,34.428c7.678,1.893,11.492,4.98,15.153,15.607c0.526-2.068,1.411-4.704,2.882-7.341c2.53-4.537,6.055-7.663,10.344-9.22
				c-9.569-2.209-11.49-5.219-14.288-14.746C18.99,27.047,17.185,31.875,6.252,34.428z"/>
		</g>
		<g>
			<path fill="#FCD900" d="M39.484,33.418C24.709,30.83,24.125,28.59,20.047,14.025C18.145,26.572,18.078,31.939,1,34.373
				c12.195,2.172,16.049,4.215,20.664,19.77C21.91,51.186,24.801,34.777,39.484,33.418"/>
			<path fill="#231F20" d="M21.663,55.143c-0.438,0-0.831-0.287-0.958-0.715c-4.416-14.884-7.71-16.902-19.881-19.07
				C0.341,35.271-0.009,34.848,0,34.355c0.009-0.49,0.373-0.902,0.859-0.973c15.622-2.226,16.26-6.51,17.967-17.959l0.232-1.548
				c0.07-0.466,0.457-0.819,0.927-0.849c0.465-0.027,0.898,0.275,1.024,0.729l0.037,0.135c3.988,14.242,4.501,16.072,18.61,18.543
				c0.493,0.086,0.847,0.525,0.826,1.025s-0.408,0.909-0.907,0.955c-5.864,0.543-10.42,3.656-13.543,9.255
				c-2.318,4.157-3.22,8.724-3.373,10.558c-0.039,0.479-0.415,0.861-0.894,0.911C21.732,55.141,21.697,55.143,21.663,55.143z
				 M6.252,34.428c7.678,1.893,11.492,4.98,15.153,15.607c0.526-2.068,1.411-4.704,2.882-7.341c2.53-4.537,6.055-7.663,10.344-9.22
				c-9.569-2.209-11.49-5.219-14.288-14.746C18.99,27.047,17.185,31.875,6.252,34.428z"/>
		</g>
	</g>
</g>
</svg>
