<?xml version="1.0" encoding="utf-8"?>
<!-- Generator: Adobe Illustrator 13.0.0, SVG Export Plug-In . SVG Version: 6.00 Build 14948)  -->
<svg version="1.2" baseProfile="tiny" id="Layer_1" xmlns="http://www.w3.org/2000/svg" xmlns:xlink="http://www.w3.org/1999/xlink"
	 x="0px" y="0px" width="457.738px" height="448.074px" viewBox="0 0 457.738 448.074" xml:space="preserve">
<g>
	<path fill="#FFFFFF" stroke="#231F20" stroke-width="2" stroke-linecap="round" stroke-linejoin="round" d="M29.121,305.689
		C11.273,276.275,1,241.762,1,204.846C1,97.326,88.16,10.162,195.688,10.162c107.52,0,194.684,87.164,194.684,194.684
		c0,70.609-37.586,132.436-93.846,166.568h0.006c0,0-74.527,47.076-240.066,75.66c0,0,24.545-43.58-27.344-141.381V305.689z"/>
	<g>
		<g>
			<g>
				<path fill="#FBE901" d="M331.465,137.131c-37.532,0-68.066-30.534-68.066-68.064C263.398,31.534,293.933,1,331.465,1
					c37.53,0,68.063,30.534,68.063,68.066C399.527,106.597,368.995,137.131,331.465,137.131z"/>
			</g>
			<g>
				<path fill="#231F20" d="M331.465,2c37.039,0,67.063,30.025,67.063,67.066s-30.023,67.064-67.063,67.064
					c-37.043,0-67.066-30.023-67.066-67.064S294.422,2,331.465,2 M331.465,0c-38.084,0-69.066,30.982-69.066,69.066
					c0,38.082,30.982,69.064,69.066,69.064c38.081,0,69.063-30.982,69.063-69.064C400.527,30.982,369.546,0,331.465,0L331.465,0z"/>
			</g>
		</g>
		<g>
			<g>
				<line fill="#FFFFFF" x1="361.76" y1="42.943" x2="361.76" y2="58.949"/>
				<path fill="#231F20" d="M361.76,59.949c-0.553,0-1-0.448-1-1V42.943c0-0.553,0.447-1,1-1s1,0.447,1,1v16.006
					C362.76,59.501,362.313,59.949,361.76,59.949z"/>
			</g>
			<g>
				<line fill="#FFFFFF" x1="304.816" y1="42.943" x2="304.816" y2="58.949"/>
				<path fill="#231F20" d="M304.816,59.949c-0.553,0-1-0.448-1-1V42.943c0-0.553,0.447-1,1-1s1,0.447,1,1v16.006
					C305.816,59.501,305.369,59.949,304.816,59.949z"/>
			</g>
		</g>
		<g>
			<circle fill="#FFFFFF" cx="333.291" cy="92.717" r="13.998"/>
			<path fill="#231F20" d="M333.289,107.717c-8.269,0-14.996-6.729-14.996-15c0-8.272,6.728-15.002,14.996-15.002
				c8.271,0,15,6.729,15,15.002C348.289,100.987,341.561,107.717,333.289,107.717z M333.289,79.715
				c-7.166,0-12.996,5.832-12.996,13.002c0,7.168,5.83,13,12.996,13c7.168,0,13-5.832,13-13
				C346.289,85.547,340.457,79.715,333.289,79.715z"/>
		</g>
		<g>
			<path fill="#FCD900" d="M437.691,14.025c1.902,12.547,1.969,17.914,19.047,20.348c-12.195,2.172-16.049,4.215-20.664,19.77
				c-0.246-2.957-3.137-19.365-17.82-20.725C433.029,30.83,433.613,28.59,437.691,14.025z"/>
			<path fill="#231F20" d="M436.075,55.143c-0.034,0-0.069-0.002-0.104-0.006c-0.479-0.049-0.854-0.432-0.894-0.911
				c-0.153-1.834-1.055-6.399-3.373-10.558c-3.123-5.598-7.679-8.712-13.543-9.255c-0.499-0.046-0.887-0.454-0.907-0.955
				c-0.021-0.5,0.333-0.938,0.826-1.025c14.109-2.471,14.622-4.301,18.61-18.543l0.037-0.134c0.126-0.454,0.554-0.769,1.024-0.729
				c0.47,0.028,0.856,0.382,0.927,0.848l0.232,1.548c1.707,11.449,2.345,15.733,17.967,17.96c0.486,0.069,0.851,0.481,0.859,0.973
				s-0.341,0.916-0.824,1.002c-12.171,2.167-15.465,4.186-19.881,19.069C436.906,54.854,436.513,55.143,436.075,55.143z
				 M423.107,33.474c4.289,1.558,7.813,4.683,10.344,9.22c1.471,2.637,2.355,5.272,2.882,7.341
				c3.661-10.627,7.476-13.715,15.153-15.607c-10.933-2.553-12.738-7.381-14.091-15.699
				C434.598,28.255,432.677,31.265,423.107,33.474z"/>
		</g>
		<g>
			<path fill="#FCD900" d="M418.254,33.418c14.775-2.588,15.359-4.828,19.438-19.393c1.902,12.547,1.969,17.914,19.047,20.348
				c-12.195,2.172-16.049,4.215-20.664,19.77C435.828,51.186,432.938,34.777,418.254,33.418"/>
			<path fill="#231F20" d="M436.075,55.143c-0.034,0-0.069-0.002-0.104-0.006c-0.479-0.049-0.854-0.432-0.894-0.911
				c-0.153-1.834-1.055-6.399-3.373-10.558c-3.123-5.598-7.679-8.712-13.543-9.255c-0.499-0.046-0.887-0.454-0.907-0.955
				c-0.021-0.5,0.333-0.938,0.826-1.025c14.109-2.471,14.622-4.301,18.61-18.543l0.037-0.134c0.126-0.454,0.554-0.769,1.024-0.729
				c0.47,0.028,0.856,0.382,0.927,0.848l0.232,1.548c1.707,11.449,2.345,15.733,17.967,17.96c0.486,0.069,0.851,0.481,0.859,0.973
				s-0.341,0.916-0.824,1.002c-12.171,2.167-15.465,4.186-19.881,19.069C436.906,54.854,436.513,55.143,436.075,55.143z
				 M423.107,33.474c4.289,1.558,7.813,4.683,10.344,9.22c1.471,2.637,2.355,5.272,2.882,7.341
				c3.661-10.627,7.476-13.715,15.153-15.607c-10.933-2.553-12.738-7.381-14.091-15.699
				C434.598,28.255,432.677,31.265,423.107,33.474z"/>
		</g>
	</g>
</g>
</svg>
