<?xml version="1.0" encoding="utf-8"?>
<!-- Generator: Adobe Illustrator 13.0.0, SVG Export Plug-In . SVG Version: 6.00 Build 14948)  -->
<svg version="1.2" baseProfile="tiny" id="Layer_1" xmlns="http://www.w3.org/2000/svg" xmlns:xlink="http://www.w3.org/1999/xlink"
	 x="0px" y="0px" width="472.896px" height="472.896px" viewBox="0 0 472.896 472.896" xml:space="preserve">
<g>
	<path fill="#FFFFFF" stroke="#231F20" stroke-width="2" stroke-miterlimit="10" d="M471.002,236.447
		c-42.646,26.497-48.017,51.741-18.432,91.3c-49.008,6.358-63.059,27.035-50.267,74.554c-47.519-12.79-68.198,1.263-74.554,50.269
		c-39.562-29.583-64.803-24.213-91.3,18.433c-26.499-42.646-51.743-48.016-91.3-18.433c-6.361-49.006-27.037-63.059-74.556-50.269
		c12.79-47.519-1.262-68.195-50.269-74.554c29.584-39.559,24.217-64.803-18.432-91.3c42.648-26.498,48.016-51.74,18.432-91.297
		c49.007-6.36,63.059-27.039,50.269-74.557c47.519,12.791,68.194-1.26,74.556-50.267c39.557,29.584,64.801,24.214,91.3-18.431
		c26.497,42.646,51.738,48.016,91.3,18.431c6.355,49.007,27.035,63.058,74.554,50.267c-12.792,47.519,1.259,68.197,50.267,74.557
		C422.985,184.708,428.355,209.949,471.002,236.447z"/>
	<g>
		<g>
			<g>
				<g>
					<path fill="#EB2227" d="M170.012,330.547c-48.095-8.798-70.826,25.933-72.165,51.355
						c-2.671,50.635,58.101,66.805,87.891,47.399C231.045,399.785,219.979,339.688,170.012,330.547z M178.676,399.663
						c-9.58,14.053-44.088,17.94-50.708-6.341c-1.462-5.893-2.284-28.184,16.788-34.911
						C173.104,348.411,195.029,375.683,178.676,399.663z"/>
				</g>
				<g>
					<path fill="#231F20" d="M170.84,330.138c-19.563-3.395-39.62-0.393-54.945,12.936c-12.954,11.266-19.832,28.556-19.057,45.564
						c1.705,37.231,43.199,55.556,75.839,46.827c23.167-6.194,41.194-28.877,42.582-52.629
						C216.834,355.868,196.215,335.043,170.84,330.138c-0.497-0.097-2.27,0.701-1.654,0.82c20.191,3.904,37.021,17.14,42.503,37.385
						c5.438,20.066-3.142,40.652-18.022,54.254c-29.113,26.615-84.239,13.979-93.651-26.123
						c-3.696-15.751,0.751-32.501,10.22-45.357c13.822-18.765,36.857-23.99,58.951-20.158
						C169.684,331.044,171.447,330.242,170.84,330.138z"/>
					<path fill="#231F20" d="M177.672,399.832c-8.086,11.249-26.117,13.435-37.861,7.264c-10.85-5.7-12.846-18.11-10.648-29.048
						c3.792-18.881,25.598-26.721,41.765-17.187C185.069,369.199,185.973,387.114,177.672,399.832
						c-0.181,0.28,1.673,0.173,2.006-0.338c10.623-16.275,4.631-37.358-14.84-42.718c-16.49-4.539-33.85,5.007-37.681,21.609
						c-3.292,14.261,2.667,28.172,17.53,32.022c11.742,3.04,27.675-0.743,34.99-10.914
						C179.857,399.245,178.032,399.335,177.672,399.832z"/>
				</g>
			</g>
		</g>
		<g>
			<path fill="#EB2227" d="M196.482,365.962c8.258-1.457,36.433-7.798,39.088-6.089c0,0,17.759,36.161,21.967,45.413
				c1.264-13.828,2.537-49.359,2.537-49.359c14.5-2.566,35.785-5.463,41.455-5.76c8.152,29.547,12.12,68.473,17.866,98.319
				c0,0-17.392,2.671-24.565,3.97c-2.299-11.939-10.094-64.146-12.203-73.959c0,0-11.433,64.518-17.5,77.189
				c-7.188-9.549-34.314-51.561-40.574-65.86c4.451,34.592,6.713,53.815,9.339,71.45c-7.696,2.026-16.313,2.783-25.13,3.547
				C208.262,452.612,200.75,408.98,196.482,365.962z"/>
			<g>
				<path fill="#231F20" d="M196.287,366.304c8.028-1.445,15.994-3.22,24.021-4.664c4.159-0.748,8.405-1.579,12.642-1.667
					c2.1-0.043,2.197,1.374,3.029,3.073c6.926,14.126,14.003,28.203,20.544,42.512c0.191,0.422,1.987-0.098,2.025-0.543
					c1.457-16.396,1.945-32.912,2.537-49.359c-0.402,0.204-0.807,0.408-1.211,0.612c10.91-1.91,21.877-3.526,32.868-4.879
					c1.802-0.222,3.606-0.422,5.413-0.604c3.234-0.33,2.843,1.401,3.612,4.396c1.569,6.103,2.867,12.273,4.087,18.455
					c4.916,24.913,7.775,50.179,12.526,75.122c0.403-0.204,0.807-0.408,1.209-0.612c-7.905,1.215-15.812,2.437-23.692,3.813
					c-0.299,0.053-3.482-20.26-3.709-21.686c-2.768-17.324-4.934-34.872-8.551-52.047c-0.086-0.416-1.946,0.109-2.023,0.543
					c-2.003,11.28-4.174,22.533-6.459,33.76c-1.732,8.508-3.56,16.999-5.608,25.438c-1.456,5.986-2.815,12.289-5.417,17.908
					c0.67-0.152,1.34-0.307,2.01-0.459c-7.438-9.963-14.023-20.632-20.635-31.148c-7.048-11.214-14.531-22.584-19.938-34.712
					c-0.18-0.403-2.084,0.108-2.027,0.543c3.061,23.821,5.814,47.692,9.338,71.45c0.312-0.184,0.625-0.366,0.938-0.551
					c-6.754,1.68-13.639,2.449-20.558,3.092c-1.994,0.186-3.446,0.722-3.601-1.457c-0.094-1.359-0.24-2.715-0.38-4.069
					c-0.833-7.968-2.01-15.903-3.109-23.837c-3.19-22.973-6.356-45.952-8.673-69.035c-0.033-0.333-2.077,0.044-2.027,0.543
					c2.046,20.385,4.738,40.693,7.553,60.983c1.74,12.538,4.119,25.216,4.727,37.878c0.008,0.172,0.493,0.113,0.566,0.106
					c8.627-0.75,17.229-1.55,25.651-3.646c0.181-0.044,0.984-0.25,0.939-0.551c-3.524-23.758-6.276-47.631-9.337-71.45
					c-0.677,0.181-1.351,0.361-2.027,0.543c5.408,12.132,12.904,23.485,19.938,34.712c6.596,10.524,13.2,21.188,20.636,31.148
					c0.292,0.391,1.826-0.061,2.01-0.459c2.464-5.318,3.763-11.248,5.171-16.909c2.181-8.758,4.045-17.596,5.854-26.438
					c2.31-11.278,4.481-22.591,6.489-33.926c-0.673,0.181-1.348,0.361-2.023,0.543c5.143,24.44,7.534,49.426,12.2,73.959
					c0.044,0.229,0.701,0.091,0.817,0.07c8.164-1.459,16.368-2.711,24.565-3.971c0.198-0.031,1.276-0.264,1.21-0.613
					c-6.229-32.704-9.109-66.124-17.866-98.318c-0.047-0.178-0.456-0.113-0.566-0.106c-13.935,0.858-27.968,3.391-41.704,5.796
					c-0.271,0.047-1.197,0.228-1.211,0.613c-0.593,16.447-1.084,32.961-2.537,49.359c0.676-0.181,1.35-0.361,2.025-0.543
					c-6.818-14.919-14.205-29.596-21.43-44.322c-1.65-3.367-9.02-0.947-11.893-0.501c-9.574,1.486-19.013,3.712-28.547,5.429
					C195.902,365.761,194.857,366.56,196.287,366.304z"/>
			</g>
		</g>
		<g>
			<path fill="#EB2227" d="M377.254,342.022c-13.137-9.769-18.772-11.51-32.992-6.398c-20.938,7.522-23.246,25.684-17.016,39.474
				c3.621,7.866,11.975,17.083,23.491,18.756c13.461,1.957,32.737-3.76,32.147-21.92l-10.931,3.474l-5.401-19.976
				c0,0,33.073-9.499,41.414-11.471c1.396,6.276,5.429,20.974,5.429,20.974l-10.787,2.641c1.271,19.409-8.22,42.526-41.063,50.59
				c-14.229,3.491-49.891-4.082-59.787-31.291c-9.879-27.151-7.214-47.759,15.888-65.49c38.55-29.596,72.403-0.634,72.403-0.634
				S381.637,337.498,377.254,342.022z"/>
			<g>
				<path fill="#231F20" d="M378.205,341.66c-6.199-4.56-12.576-9.086-20.528-9.299c-7.147-0.188-14.936,2.86-21.015,6.362
					c-12.471,7.188-15.975,21.518-11.298,34.546c5.096,14.201,19.394,22.916,34.237,21.194c12.777-1.484,24.354-8.732,24.297-22.802
					c0-0.345-0.977-0.151-1.113-0.106c-3.645,1.157-7.289,2.314-10.932,3.473c0.369,0.035,0.744,0.071,1.114,0.107
					c-1.801-6.658-3.603-13.317-5.401-19.976c-0.307,0.217-0.608,0.434-0.913,0.65c13.755-3.949,27.5-8.128,41.414-11.472
					c-0.372-0.035-0.745-0.071-1.116-0.107c1.602,7.041,3.525,14.014,5.434,20.976c0.305-0.218,0.606-0.434,0.912-0.651
					c-3.598,0.881-7.195,1.761-10.791,2.641c-0.273,0.066-0.932,0.273-0.912,0.65c1.35,24.201-14.186,42.205-36.838,49.052
					c-18.51,5.595-41.654-3.365-54.23-17.271c-8.127-8.991-11.571-22.21-12.892-33.981c-1.374-12.261,2.044-23.865,9.646-33.517
					c10.137-12.87,26.245-22.094,42.581-23.471c10.687-0.899,21.485,2.031,30.885,6.998c1.45,0.766,8.699,4.47,8.004,5.836
					c-3.543,6.963-7.126,14.766-12.422,20.572c-0.486,0.533,1.492,0.309,1.854-0.086c5.507-6.04,9.22-14.143,12.871-21.39
					c0.031-0.08,0.014-0.147-0.053-0.202c-29.024-24.573-78.05-10.916-92.585,23.564c-4.33,10.272-3.53,21.777-1.01,32.374
					c2.623,11.032,7.071,20.762,15.61,28.384c11.943,10.658,31.044,16.833,46.984,14.184c25.633-4.262,45.088-25.292,43.621-51.59
					c-0.303,0.218-0.607,0.435-0.912,0.65c3.596-0.88,7.193-1.76,10.791-2.641c0.208-0.051,1.006-0.299,0.91-0.65
					c-1.908-6.961-3.828-13.935-5.432-20.975c-0.082-0.358-0.915-0.156-1.113-0.107c-13.916,3.344-27.662,7.522-41.416,11.471
					c-0.209,0.061-1.007,0.294-0.911,0.65c1.802,6.659,3.603,13.318,5.403,19.977c0.094,0.349,0.907,0.174,1.115,0.107
					c3.644-1.157,7.289-2.315,10.932-3.473c-0.371-0.036-0.744-0.072-1.115-0.107c0.057,14.241-12.099,21.221-25.155,21.547
					c-13.765,0.342-25.216-9.57-29.712-22.097c-3.594-10.018-1.691-21.029,5.813-28.673c5.961-6.07,16.355-9.893,24.771-9.669
					c7.043,0.188,13.303,5.09,18.714,9.071C376.799,342.749,378.596,341.948,378.205,341.66z"/>
			</g>
		</g>
	</g>
</g>
</svg>
