<?xml version="1.0" encoding="utf-8"?>
<!-- Generator: Adobe Illustrator 13.0.0, SVG Export Plug-In . SVG Version: 6.00 Build 14948)  -->
<svg version="1.2" baseProfile="tiny" id="Layer_1" xmlns="http://www.w3.org/2000/svg" xmlns:xlink="http://www.w3.org/1999/xlink"
	 x="0px" y="0px" width="472.896px" height="472.897px" viewBox="0 0 472.896 472.897" xml:space="preserve">
<g>
	<g>
		<path fill="#FFFFFF" d="M471.001,236.448c-42.645,26.498-48.014,51.742-18.432,91.301c-49.006,6.357-63.058,27.035-50.268,74.555
			c-47.518-12.791-68.195,1.262-74.553,50.268c-39.561-29.584-64.802-24.215-91.301,18.432
			c-26.496-42.646-51.74-48.016-91.298-18.432c-6.36-49.006-27.039-63.059-74.558-50.268c12.792-47.52-1.26-68.197-50.266-74.555
			C49.91,288.19,44.54,262.946,1.895,236.448c42.646-26.498,48.016-51.74,18.433-91.299c49.006-6.357,63.058-27.037,50.266-74.555
			c47.519,12.791,68.197-1.262,74.558-50.268c39.558,29.584,64.802,24.215,91.298-18.432c26.499,42.646,51.74,48.016,91.301,18.432
			c6.357,49.006,27.035,63.059,74.553,50.268c-12.79,47.518,1.262,68.197,50.268,74.555
			C422.987,184.708,428.356,209.95,471.001,236.448z"/>
		<path fill="none" stroke="#231F20" stroke-width="2" stroke-miterlimit="10" d="M471.001,236.448
			c-42.645,26.498-48.014,51.742-18.432,91.301c-49.006,6.357-63.058,27.035-50.268,74.555
			c-47.518-12.791-68.195,1.262-74.553,50.268c-39.561-29.584-64.802-24.215-91.301,18.432
			c-26.496-42.646-51.74-48.016-91.298-18.432c-6.36-49.006-27.039-63.059-74.558-50.268c12.792-47.52-1.26-68.197-50.266-74.555
			C49.91,288.19,44.54,262.946,1.895,236.448c42.646-26.498,48.016-51.74,18.433-91.299c49.006-6.357,63.058-27.037,50.266-74.555
			c47.519,12.791,68.197-1.262,74.558-50.268c39.558,29.584,64.802,24.215,91.298-18.432c26.499,42.646,51.74,48.016,91.301,18.432
			c6.357,49.006,27.035,63.059,74.553,50.268c-12.79,47.518,1.262,68.197,50.268,74.555
			C422.987,184.708,428.356,209.95,471.001,236.448z"/>
	</g>
	<g>
		<path fill="#E62328" d="M33.292,27.792c15.754-1.463,71.25-6.463,95.188-6.922c-0.143,32.402,4.706,85.674,4.706,85.674
			c-5.649,1.92-20.282,4.609-26.987,4.277c-1.451-8.324-1.394-16.197-3.229-23.453c0,0-37.283,4.084-47.156,5.213
			c-1.189-5.582-1.561-22.66-1.561-22.66c1.283-1.588,43.23-6.174,44.548-7.268c2.991-2.492,1.2-12.754,0.862-13.639
			c-1.092-2.832-51.052,4.523-66.643,4.881C33.089,44.45,32.575,39.438,33.292,27.792z"/>
		<g>
			<path fill="#231F20" d="M33.182,28.713c30.878-2.861,61.882-5.926,92.89-6.865c2.158-0.064,1.213,8.539,1.265,10.783
				c0.106,4.822,0.294,9.645,0.505,14.465c0.416,9.625,1.01,19.244,1.666,28.855c0.703,10.316,1.489,20.629,2.424,30.928
				c0.342-0.4,0.682-0.801,1.024-1.201c-6.335,2.023-12.999,3.111-19.587,3.877c-5.551,0.646-6.281-0.902-6.904-6.436
				c-0.611-5.406-1.035-10.77-2.238-16.088c-0.106-0.473-0.736-0.633-1.146-0.586c-8.081,0.885-16.161,1.771-24.243,2.664
				c-5.46,0.602-10.92,1.205-16.381,1.813c-1.939,0.217-3.879,0.434-5.818,0.654c0.325-0.037-0.582-8.953-0.615-9.479
				c-0.177-2.809-0.283-5.621-0.385-8.434c-0.033-0.928-0.059-1.855-0.085-2.783c-0.034-1.205,0.22-0.641-0.393-0.42
				c3.62-1.303,7.827-1.523,11.606-2.082c9.694-1.43,19.449-2.5,29.109-4.139c7.23-1.229,6.341-8.396,5.279-14.551
				c-0.736-4.268-10.951-2.037-13.662-1.834c-11.944,0.891-23.846,2.391-35.755,3.625c-4.989,0.514-9.985,1.002-14.989,1.328
				c-3.758,0.246-2.439-0.965-2.475-4.578c-0.039-3.973-0.119-7.943-0.066-11.918c0.04-2.875,0.194-5.748,0.355-8.617
				c0.074-1.313-2.48-0.951-2.543,0.189c-0.493,8.713-0.246,17.389-0.272,26.105c-0.003,0.648,0.606,0.844,1.161,0.828
				c15.119-0.445,30.227-2.805,45.266-4.301c6.178-0.615,12.523-1.461,18.74-1.193c3.969,0.17,3.417,12.262-0.508,13.012
				c-12.592,2.402-25.446,3.322-38.066,5.582c-2.193,0.393-5.404,0.41-5.334,3.152c0.189,7.23,0.215,14.719,1.551,21.848
				c0.088,0.473,0.75,0.631,1.146,0.586c10.952-1.25,21.909-2.439,32.866-3.645c4.314-0.475,8.627-0.947,12.939-1.42
				c0.376-0.041,0.751-0.082,1.125-0.123c-0.983,0.107,0.197,5.291,0.312,6.08c0.815,5.57,1.115,11.193,1.997,16.76
				c0.055,0.34,0.514,0.572,0.82,0.58c9.127,0.217,18.973-1.553,27.654-4.328c0.57-0.184,1.084-0.549,1.023-1.201
				c-2.572-28.361-4.742-56.943-4.689-85.432c0.001-0.65-0.607-0.842-1.162-0.828c-31.763,0.686-63.566,3.99-95.187,6.92
				C31.993,26.999,31.469,28.872,33.182,28.713z"/>
		</g>
	</g>
	<g>
		<path fill="#E62328" d="M144.104,63.284c12.445-1.154,56.29-5.107,75.201-5.469c-0.11,25.602,3.72,67.689,3.72,67.689
			c-4.462,1.518-16.024,3.639-21.321,3.379c-1.148-6.576-1.1-12.795-2.553-18.527c0,0-29.453,3.225-37.254,4.115
			c-0.941-4.408-1.232-17.904-1.232-17.904c1.012-1.252,34.153-4.873,35.193-5.74c2.367-1.969,0.949-10.078,0.682-10.773
			c-0.86-2.24-40.334,3.572-52.65,3.854C143.94,76.446,143.535,72.485,144.104,63.284z"/>
		<g>
			<path fill="#231F20" d="M143.993,64.206c24.616-2.277,49.34-4.752,74.061-5.441c-1.155,0.031,3.066,59.904,3.717,67.076
				c0.341-0.4,0.682-0.801,1.024-1.201c-5.452,1.715-11.171,2.635-16.845,3.189c-4.402,0.432-3.518-2.701-3.92-6.523
				c-0.4-3.803-0.799-7.545-1.623-11.285c-0.104-0.473-0.736-0.631-1.145-0.588c-6.439,0.705-12.878,1.412-19.317,2.123
				c-4.473,0.492-8.945,0.986-13.418,1.484c-1.058,0.117-3.464,0.596-3.544,0.168c-0.475-2.604-0.55-5.309-0.705-7.943
				c-0.129-2.203-0.208-4.408-0.279-6.613c-0.064-1.902-0.327-1.547,0.154-1.674c3.303-0.863,6.798-1.205,10.172-1.691
				c7.493-1.078,15.063-1.84,22.502-3.246c5.085-0.961,3.945-8.615,2.969-12.322c-0.691-2.635-11.338-0.736-12.854-0.611
				c-9.575,0.797-19.115,1.986-28.674,2.945c-3.809,0.383-7.621,0.738-11.445,0.908c0.43-0.02,0.474-18.342,0.553-19.771
				c0.072-1.314-2.48-0.951-2.544,0.189c-0.381,6.885-0.202,13.736-0.214,20.625c-0.002,0.646,0.605,0.846,1.162,0.828
				c11.908-0.367,23.799-2.203,35.641-3.387c4.825-0.482,9.748-1.096,14.604-0.967c2.563,0.068,1.886,4.088,1.899,6.002
				c0.029,3.787-1.032,3.779-4.094,4.262c-9.83,1.549-19.811,2.357-29.561,4.375c-1.98,0.41-2.902,0.742-2.846,2.822
				c0.154,5.594,0.212,11.35,1.217,16.869c0.088,0.475,0.752,0.633,1.146,0.588c8.793-1,17.591-1.957,26.388-2.924
				c3.264-0.357,6.525-0.717,9.789-1.074c1.783-0.195,0.483,1.9,0.781,3.684c0.783,4.678,0.976,9.447,1.703,14.139
				c0.079,0.512,0.756,0.58,1.146,0.588c7.165,0.119,14.841-1.291,21.663-3.439c0.572-0.18,1.084-0.549,1.025-1.201
				c-2.029-22.393-3.73-44.951-3.705-67.447c0.002-0.65-0.604-0.84-1.161-0.828c-25.097,0.559-50.22,3.156-75.202,5.469
				C142.806,62.491,142.282,64.364,143.993,64.206z"/>
		</g>
	</g>
	<g>
		<path fill="#E62328" d="M228.911,32.311c9.648-0.893,43.637-3.957,58.3-4.238c-0.087,19.846,2.883,52.473,2.883,52.473
			c-3.461,1.178-12.425,2.822-16.53,2.623c-0.889-5.102-0.854-9.92-1.977-14.365c0,0-22.834,2.502-28.883,3.193
			c-0.727-3.42-0.955-13.883-0.955-13.883c0.783-0.971,26.477-3.777,27.283-4.449c1.834-1.525,0.736-7.813,0.529-8.352
			c-0.669-1.734-31.27,2.768-40.816,2.99C228.784,42.518,228.472,39.448,228.911,32.311z"/>
		<g>
			<path fill="#231F20" d="M228.801,33.235c19.005-1.754,38.081-3.639,57.163-4.213c-0.922,0.027,2.371,46.314,2.873,51.861
				c0.342-0.4,0.686-0.803,1.023-1.201c-4.389,1.354-8.957,2.092-13.527,2.502c-2.729,0.244-2.095-3.623-2.313-5.748
				c-0.273-2.689-0.607-5.324-1.18-7.969c-0.102-0.473-0.736-0.631-1.143-0.586c-5.273,0.578-10.541,1.156-15.813,1.738
				c-3.496,0.385-6.992,0.771-10.487,1.16c-1.93,0.217-1.515,0.625-1.739-1.135c-0.283-2.205-0.357-4.441-0.466-6.66
				c-0.069-1.428-0.112-2.857-0.155-4.287c-0.02-0.705-1.188,0.182,0.467-0.195c2.994-0.682,6.096-1.012,9.133-1.438
				c5.367-0.754,10.848-1.223,16.149-2.375c3.702-0.803,2.66-7.178,2.028-9.713c-0.51-2.059-7.55-0.813-8.686-0.73
				c-7.671,0.561-15.314,1.547-22.965,2.328c-3.148,0.322-6.303,0.619-9.467,0.777c0.445-0.023,0.426-14.027,0.484-15.137
				c0.07-1.313-2.482-0.949-2.545,0.191c-0.285,5.338-0.161,10.65-0.166,15.99c0,0.646,0.606,0.848,1.162,0.828
				c9.383-0.313,18.746-1.742,28.08-2.67c3.674-0.363,7.451-0.857,11.15-0.686c1.312,0.061,0.926,4.115,0.924,4.719
				c-0.004,3.26-2.139,2.701-4.655,3.072c-7.302,1.072-15.001,1.426-22.142,3.373c-3.684,1.002-1.045,12.434-0.543,15.299
				c0.084,0.473,0.755,0.631,1.146,0.586c6.729-0.764,13.46-1.498,20.19-2.238c2.633-0.289,5.266-0.578,7.898-0.867
				c1.065-0.115,0.166,1.896,0.373,3.227c0.551,3.469,0.723,6.99,1.252,10.465c0.077,0.508,0.758,0.582,1.145,0.586
				c5.611,0.049,11.517-1.027,16.874-2.68c0.572-0.176,1.081-0.553,1.023-1.201c-1.569-17.344-2.872-34.809-2.867-52.232
				c0-0.65-0.604-0.84-1.161-0.828c-19.458,0.451-38.928,2.451-58.301,4.24C227.612,31.518,227.088,33.393,228.801,33.235z"/>
		</g>
	</g>
</g>
</svg>
