<?xml version="1.0" encoding="utf-8"?>
<!-- Generator: Adobe Illustrator 13.0.0, SVG Export Plug-In . SVG Version: 6.00 Build 14948)  -->
<svg version="1.2" baseProfile="tiny" id="Layer_1" xmlns="http://www.w3.org/2000/svg" xmlns:xlink="http://www.w3.org/1999/xlink"
	 x="0px" y="0px" width="477.39px" height="471.064px" viewBox="0 0 477.39 471.064" xml:space="preserve">
<g>
	<path fill="#FFFFFF" stroke="#231F20" stroke-width="2" stroke-miterlimit="10" d="M470.063,235.814
		c0-23.023-12.038-43.219-30.151-54.678c10.054-19.021,10.421-42.621-1.128-62.627c-11.512-19.938-32.038-31.41-53.452-32.279
		c-0.799-21.494-12.285-42.119-32.286-53.67c-19.939-11.51-43.452-11.182-62.435-1.227C279.171,13.117,258.914,1,235.814,1
		c-23.024,0-43.221,12.037-54.682,30.154c-19.016-10.057-42.617-10.424-62.623,1.125C98.571,43.791,87.1,64.316,86.232,85.734
		c-21.498,0.799-42.121,12.281-53.67,32.285c-11.512,19.941-11.183,43.451-1.229,62.434C13.119,191.893,1,212.154,1,235.25
		c0,23.023,12.036,43.221,30.154,54.682c-10.057,19.016-10.424,42.619,1.127,62.621c11.509,19.939,32.033,31.412,53.453,32.283
		c0.799,21.492,12.283,42.117,32.287,53.668c19.94,11.512,43.448,11.182,62.431,1.227c11.44,18.217,31.698,30.334,54.801,30.334
		c23.02,0,43.216-12.039,54.677-30.152c19.018,10.055,42.621,10.422,62.623-1.127c19.939-11.512,31.412-32.035,32.281-53.455
		c21.494-0.799,42.118-12.283,53.671-32.287c11.509-19.939,11.181-43.449,1.222-62.432
		C457.947,279.17,470.063,258.912,470.063,235.814z"/>
	<g>
		<g>
			<path fill="#FCD900" d="M140.412,141.654c-9.823,13.559-25.119,22.082-39.582,24.756c-33.243,6.146-63.252-8.836-76.692-36.863
				c-8.161-18.723-10.508-52.623,12.785-73.715c20.98-18.996,42.781-21.602,58.69-19.563c-12.07,6.078-24.951,19.846-29.77,35.439
				c-7.99,25.84,4.245,46.652,17.86,59.824C94.813,142.441,124.148,146.574,140.412,141.654z"/>
			<g>
				<path fill="#231F20" d="M139.38,141.352c-30.181,40.098-99.187,31.061-115.894-17.121c-6.594-19.016-4.981-41.33,6.008-58.346
					c13.657-21.148,41.316-31.662,65.661-28.787c-0.024-0.492-0.05-0.984-0.073-1.475c-29.661,15.678-41.754,52.068-24.679,81.342
					c6.969,11.943,16.479,20.205,29.661,24.236c12.741,3.896,27.65,4.85,40.553,1.215c1.522-0.428,1.121-1.957-0.411-1.525
					c-12.479,3.514-26.312,2.207-38.657-1.246c-12.502-3.496-20.846-11.539-27.863-22.178C55.339,89.658,67.26,52.184,96.143,36.914
					c0.801-0.422,1.048-1.342-0.072-1.475c-24.523-2.895-49.317,6.865-65.481,25.615c-15.146,17.57-16.5,43.988-9.163,65.148
					c17.27,49.801,89.864,55.813,120.02,15.752C142.383,140.709,139.989,140.539,139.38,141.352z"/>
			</g>
		</g>
		<g>
			<path fill="#231F20" d="M24.896,94.709c0.502,3.652,3.493,9.861,8.073,8.109c5.102-1.949,5.16-6.572,3.566-11.15
				c-0.302-0.877-2.797-0.152-2.509,0.672c0.976,2.807,2.066,6.934-0.908,8.941c-2.918,1.971-5.443-5.283-5.712-7.244
				C27.29,93.197,24.768,93.775,24.896,94.709L24.896,94.709z"/>
		</g>
		<g>
			<path fill="#231F20" d="M47.319,90.436c-0.23,2.521,0.282,5.211,1.583,7.402c1.203,2.025,2.508,2.586,4.801,2.141
				c5.189-1.008,6.063-5.746,5.557-10.309c-0.094-0.85-2.617-0.287-2.512,0.672c0.313,2.809,0.474,7.615-3.17,8.324
				c-1.556,0.303-2.405-1.85-2.885-2.998c-0.724-1.729-1.033-3.682-0.863-5.545C49.926,89.096,47.396,89.582,47.319,90.436
				L47.319,90.436z"/>
		</g>
		<g>
			<path fill="#FFFFFF" d="M50.302,125.609c-6.542,2.02-11.737-17.633-4.06-18.998C51.089,105.754,57.589,123.361,50.302,125.609z"
				/>
			<g>
				<path fill="#231F20" d="M50.201,125.236c-3.066,0.713-5.237-5.514-5.83-7.508c-0.931-3.148-1.468-7.865,1.151-10.365
					c2.023-1.932,5.425,6.041,5.825,7.199c0.967,2.807,2.303,9.334-1.477,10.777c-1.674,0.639-0.081,0.898,0.861,0.539
					c5.072-1.936,4.467-7.625,3.124-11.988c-1.118-3.645-3.913-9.221-8.572-7.42c-8.096,3.127-3.724,21.564,5.118,19.512
					C51.883,125.639,51.666,124.896,50.201,125.236z"/>
			</g>
		</g>
	</g>
	<g>
		<path fill="#FCD900" d="M122.721,22.439c0.525-3.154,0.229-8.428,0.753-11.582c2.104,2.629,5.129,6.039,7.23,8.141
			c3.35-1.059,6.502-2.424,10.248-3.082c-0.85,4.805-4.337,9.594-4.337,9.594s3.834,3.785,6.244,7.359
			c-4.229-0.508-6.323-0.26-10.711-1.248c-0.904,3.027-3.998,6.965-5.049,9.066c-1.148-2.441-3.1-9.986-3.1-9.986
			s-5.189-1.182-9.725-2.299C117.43,25.773,119.204,24.59,122.721,22.439z"/>
		<g>
			<path fill="#231F20" d="M123.673,22.367c0.472-3.85,0.283-7.732,0.755-11.582c-0.605,0.162-1.211,0.326-1.816,0.488
				c2.303,2.814,4.697,5.533,7.232,8.141c0.262,0.27,0.674,0.35,1.033,0.23c2.805-0.93,5.568-1.928,8.422-2.699
				c0.503-0.137-2.967,7.57-3.471,8.287c-0.129,0.184-0.279,0.488-0.073,0.691c2.28,2.289,4.352,4.738,6.241,7.359
				c0.396-0.365,0.792-0.732,1.189-1.1c-3.599-0.367-7.156-0.543-10.712-1.248c-0.407-0.08-1.068,0.16-1.226,0.578
				c-1.243,3.281-3.346,6.027-5.049,9.066c0.613-0.049,1.229-0.096,1.841-0.145c-1.343-3.211-2.221-6.625-3.097-9.988
				c-0.076-0.289-0.363-0.373-0.617-0.432c-2.516-0.574-5.029-1.17-7.542-1.77c-1.138-0.273,5.789-4.9,6.562-5.377
				c1.084-0.67-0.478-1.34-1.25-0.861c-2.958,1.83-5.748,3.764-8.445,5.963c-0.35,0.287-0.511,0.922,0.082,1.066
				c1.398,0.34,9.33,1.93,9.381,2.129c0.86,3.291,1.728,6.633,3.044,9.775c0.321,0.764,1.511,0.445,1.846-0.145
				c1.461-2.613,3.196-5.039,4.535-7.723c0.564-1.129,8.778,0.355,9.993,0.48c0.496,0.049,1.678-0.422,1.189-1.102
				c-1.185-1.643-6.27-6.723-5.759-7.488c1.879-2.811,3.158-5.846,3.945-9.119c0.146-0.607-0.783-0.646-1.128-0.574
				c-2.945,0.617-5.744,1.545-8.584,2.531c-2.407,0.834-6.593-5.809-7.858-7.359c-0.452-0.551-1.726-0.25-1.818,0.486
				c-0.47,3.848-0.28,7.732-0.751,11.58C121.648,23.477,123.571,23.219,123.673,22.367z"/>
		</g>
	</g>
	<g>
		<path fill="#FCD900" d="M200.549,75.225c0.354-2.119,0.154-5.662,0.507-7.781c1.414,1.768,3.449,4.057,4.86,5.471
			c2.25-0.713,4.368-1.629,6.886-2.07c-0.569,3.229-2.913,6.445-2.913,6.445s2.576,2.543,4.193,4.945
			c-2.84-0.342-4.245-0.176-7.196-0.84c-0.608,2.035-2.687,4.68-3.394,6.094c-0.771-1.643-2.08-6.711-2.08-6.711
			s-3.489-0.795-6.535-1.545C196.994,77.467,198.187,76.672,200.549,75.225z"/>
		<g>
			<path fill="#231F20" d="M201.505,75.152c0.313-2.586,0.19-5.195,0.505-7.781c-0.604,0.162-1.209,0.324-1.816,0.488
				c1.546,1.891,3.156,3.717,4.86,5.469c0.265,0.271,0.673,0.352,1.035,0.23c2.288-0.758,4.522-1.574,6.885-2.07
				c-0.374-0.191-0.75-0.383-1.126-0.572c-0.529,2.201-1.444,4.244-2.748,6.094c-0.131,0.186-0.276,0.49-0.072,0.693
				c1.531,1.537,2.925,3.184,4.193,4.947c0.396-0.367,0.793-0.734,1.189-1.1c-2.418-0.25-4.809-0.367-7.196-0.84
				c-0.412-0.08-1.071,0.158-1.228,0.576c-0.836,2.205-2.251,4.051-3.396,6.094c0.613-0.049,1.229-0.098,1.843-0.146
				c-0.902-2.156-1.49-4.449-2.083-6.709c-0.073-0.291-0.358-0.375-0.612-0.432c-2.108-0.482-4.216-0.984-6.317-1.496
				c0.024,0.354,0.053,0.709,0.079,1.064c1.813-1.479,3.688-2.779,5.676-4.008c1.084-0.67-0.477-1.34-1.25-0.861
				c-1.987,1.23-3.863,2.531-5.676,4.01c-0.35,0.285-0.508,0.92,0.082,1.064c1.64,0.4,3.279,0.789,4.923,1.172
				c1.131,0.266,1.383,0.635,1.25,0.135c0.579,2.211,1.161,4.455,2.046,6.566c0.32,0.764,1.51,0.445,1.844-0.145
				c1.142-2.043,2.557-3.887,3.39-6.092c-0.407,0.191-0.815,0.385-1.224,0.576c2.389,0.473,4.778,0.592,7.194,0.838
				c0.495,0.051,1.679-0.42,1.19-1.098c-0.949-1.318-1.965-2.551-3.053-3.756c-0.326-0.354-0.658-0.701-0.994-1.043
				c-0.205,0.539-0.152,0.537,0.152-0.008c1.29-1.926,2.166-3.998,2.704-6.242c0.146-0.605-0.778-0.646-1.125-0.574
				c-1.979,0.414-3.86,1.039-5.771,1.701c-1.323,0.459-4.208-3.973-4.941-4.871c-0.451-0.551-1.728-0.248-1.815,0.488
				c-0.318,2.584-0.19,5.195-0.505,7.779C199.48,76.262,201.4,76.004,201.505,75.152z"/>
		</g>
	</g>
	<g>
		<path fill="#FCD900" d="M32.85,201.324c0.354-2.119,0.155-5.662,0.505-7.781c1.416,1.768,3.447,4.057,4.862,5.471
			c2.248-0.713,4.37-1.629,6.885-2.07c-0.57,3.229-2.915,6.445-2.915,6.445s2.577,2.545,4.196,4.945
			c-2.843-0.342-4.248-0.174-7.197-0.838c-0.607,2.033-2.686,4.68-3.393,6.092c-0.771-1.641-2.081-6.711-2.081-6.711
			s-3.49-0.795-6.536-1.545C29.296,203.566,30.486,202.771,32.85,201.324z"/>
		<g>
			<path fill="#231F20" d="M33.805,201.254c0.314-2.586,0.189-5.197,0.506-7.783c-0.606,0.162-1.211,0.326-1.816,0.488
				c1.546,1.891,3.156,3.719,4.859,5.471c0.264,0.27,0.674,0.35,1.035,0.229c2.287-0.758,4.523-1.574,6.887-2.07
				c-0.375-0.189-0.753-0.383-1.127-0.572c-0.531,2.201-1.445,4.244-2.748,6.096c-0.131,0.184-0.278,0.488-0.074,0.691
				c1.533,1.539,2.927,3.186,4.195,4.947c0.396-0.367,0.791-0.734,1.188-1.1c-2.416-0.248-4.807-0.367-7.197-0.84
				c-0.409-0.08-1.068,0.16-1.228,0.576c-0.833,2.205-2.248,4.051-3.395,6.094c0.615-0.049,1.229-0.098,1.845-0.145
				c-0.902-2.158-1.492-4.451-2.083-6.711c-0.073-0.291-0.361-0.375-0.615-0.432c-2.108-0.482-4.214-0.984-6.315-1.496
				c0.025,0.354,0.052,0.709,0.08,1.064c1.813-1.479,3.687-2.777,5.676-4.008c1.084-0.67-0.477-1.338-1.25-0.859
				c-1.987,1.23-3.863,2.529-5.676,4.008c-0.352,0.287-0.511,0.922,0.082,1.064c1.638,0.4,3.279,0.789,4.921,1.174
				c1.133,0.264,1.385,0.633,1.252,0.133c0.579,2.211,1.161,4.455,2.044,6.566c0.321,0.766,1.512,0.447,1.844-0.145
				c1.144-2.043,2.557-3.887,3.394-6.092c-0.409,0.191-0.819,0.385-1.228,0.576c2.389,0.473,4.78,0.592,7.196,0.84
				c0.495,0.051,1.679-0.422,1.188-1.1c-0.947-1.318-1.963-2.551-3.054-3.756c-0.323-0.354-0.657-0.701-0.993-1.043
				c-0.203,0.541-0.151,0.537,0.153-0.008c1.289-1.926,2.167-3.996,2.703-6.242c0.146-0.605-0.778-0.646-1.124-0.572
				c-1.98,0.414-3.862,1.037-5.77,1.699c-1.323,0.459-4.209-3.973-4.942-4.869c-0.45-0.551-1.726-0.25-1.815,0.486
				c-0.315,2.586-0.188,5.195-0.504,7.779C31.779,202.361,33.701,202.104,33.805,201.254z"/>
		</g>
	</g>
	<g>
		<path fill="#FCD900" d="M405.846,345.643c0.425-2.566,0.186-6.855,0.613-9.422c1.712,2.139,4.172,4.912,5.88,6.621
			c2.728-0.859,5.294-1.971,8.339-2.506c-0.691,3.908-3.527,7.805-3.527,7.805s3.119,3.08,5.077,5.986
			c-3.439-0.414-5.141-0.211-8.712-1.016c-0.736,2.463-3.252,5.666-4.108,7.377c-0.934-1.986-2.521-8.125-2.521-8.125
			s-4.222-0.961-7.909-1.871C401.54,348.355,402.986,347.393,405.846,345.643z"/>
		<g>
			<path fill="#231F20" d="M406.801,345.57c0.381-3.131,0.229-6.289,0.611-9.422c-0.604,0.162-1.209,0.324-1.814,0.488
				c1.871,2.289,3.818,4.502,5.883,6.621c0.264,0.27,0.671,0.35,1.033,0.23c2.77-0.916,5.476-1.906,8.336-2.506
				c-0.374-0.191-0.751-0.383-1.125-0.574c-0.648,2.697-1.769,5.188-3.364,7.455c-0.129,0.184-0.276,0.488-0.073,0.691
				c1.855,1.861,3.542,3.855,5.077,5.988c0.397-0.367,0.794-0.734,1.189-1.1c-2.927-0.301-5.822-0.443-8.713-1.016
				c-0.406-0.082-1.066,0.158-1.226,0.576c-1.013,2.67-2.723,4.904-4.11,7.377c0.615-0.049,1.23-0.098,1.845-0.146
				c-1.095-2.611-1.807-5.389-2.521-8.125c-0.075-0.289-0.359-0.373-0.616-0.432c-2.569-0.586-5.132-1.195-7.69-1.82
				c0.025,0.355,0.052,0.711,0.08,1.066c2.191-1.791,4.463-3.363,6.868-4.852c1.084-0.67-0.476-1.338-1.249-0.861
				c-2.406,1.488-4.675,3.063-6.871,4.852c-0.35,0.287-0.509,0.922,0.084,1.064c1.984,0.484,3.969,0.957,5.956,1.422
				c0.981,0.229,1.724,0.713,1.6,0.24c0.699,2.678,1.407,5.395,2.478,7.951c0.317,0.764,1.51,0.445,1.841-0.145
				c1.192-2.125,2.604-4.098,3.695-6.281c0.354-0.713,7.032,0.408,7.896,0.498c0.495,0.051,1.679-0.422,1.189-1.1
				c-1.147-1.596-2.377-3.086-3.694-4.547c-0.996-1.1-1.423-0.789-1.005-1.418c1.545-2.309,2.597-4.793,3.24-7.484
				c0.146-0.605-0.779-0.646-1.125-0.572c-2.398,0.502-4.673,1.258-6.983,2.059c-1.795,0.623-5.237-4.764-6.202-5.943
				c-0.448-0.553-1.726-0.25-1.814,0.486c-0.385,3.131-0.232,6.289-0.615,9.42C404.772,346.68,406.695,346.422,406.801,345.57z"/>
		</g>
	</g>
	<g>
		<g>
			<path fill="#C5E8FA" d="M22.842,264.939c-11.185,5.09-14.299,21.016-9.098,31.416c10.398,19.066,42.031,5.463,42.031-11.871
				C55.775,267.152,40.609,255.404,22.842,264.939z"/>
			<g>
				<path fill="#231F20" d="M22.117,264.77c-12.137,6.219-15.852,23.258-8.047,34.373c6.497,9.252,19.473,7.844,28.463,3.809
					c12.396-5.566,17.545-17.586,12.022-30.158C48.717,259.496,33.434,259.129,22.117,264.77c-1.487,0.742,0.854,0.635,1.449,0.338
					c13.239-6.598,26.122-0.916,30.12,12.902c2.88,9.953-2.073,18.277-10.438,23.457c-10.033,6.209-23.73,4.477-28.881-6.834
					c-4.605-10.119-0.903-24.346,9.199-29.525C25.047,264.35,22.709,264.465,22.117,264.77z"/>
			</g>
		</g>
		<g>
			<path fill="#231F20" d="M21.234,277.02c-3.301,6.121-5.911,20.049,3.881,21.57c0.852,0.131,2.969-1.211,1.52-1.436
				c-8.781-1.363-5.923-14.697-3.051-20.029C24.18,276.02,21.65,276.246,21.234,277.02L21.234,277.02z"/>
		</g>
		<g>
			<path fill="#231F20" d="M31.021,299.486c1.93,0.328,4.076,0.104,5.525-1.32c0.436-0.428,0.177-1.068-0.338-1.26
				c-0.642-0.238-1.313,0.023-1.775,0.477c-0.563,0.551-1.883,0.34-2.557,0.225C30.605,297.393,29.339,299.201,31.021,299.486
				L31.021,299.486z"/>
		</g>
	</g>
	<g>
		<g>
			<path fill="#C5E8FA" d="M169.418,103.863c-7.245,3.666-9.672,16.01-5.74,23.871c7.862,14.416,30.637,1.68,30.637-11.424
				C194.314,103.205,179.594,96.781,169.418,103.863z"/>
			<g>
				<path fill="#231F20" d="M168.455,103.822c-9.105,5.398-10.627,20.068-3.475,27.619c5.804,6.129,16.156,2.529,21.998-1.414
					c8.425-5.688,11.483-16.26,4.628-24.451C185.848,98.693,175.356,99.457,168.455,103.822c-1.055,0.668,1.473,0.367,1.926,0.08
					c8.678-5.488,18.999-0.801,22.075,8.328c2.247,6.66-1.591,12.863-6.501,17.033c-7.861,6.678-18.698,5.412-22.099-4.635
					c-2.39-7.059-0.087-16.809,6.524-20.727C171.447,103.27,168.912,103.551,168.455,103.822z"/>
			</g>
		</g>
		<g>
			<path fill="#231F20" d="M168.905,111.713c-2.546,4.721-4.498,15.254,3.018,16.422c0.783,0.121,2.962-1.131,1.542-1.352
				c-6.518-1.012-4.35-11.086-2.223-15.027C171.805,110.711,169.288,111,168.905,111.713L168.905,111.713z"/>
		</g>
		<g>
			<path fill="#231F20" d="M178.04,128.598c0.919-0.121,1.837-0.244,2.756-0.365c0.468-0.063,1.293-0.301,1.428-0.842
				c0.144-0.551-0.769-0.561-1.077-0.52c-0.92,0.123-1.836,0.244-2.757,0.365c-0.467,0.063-1.29,0.301-1.428,0.842
				C176.819,128.629,177.732,128.639,178.04,128.598L178.04,128.598z"/>
		</g>
	</g>
	<g>
		<g>
			<path fill="#C5E8FA" d="M457.535,237.051c-5.549,2.807-7.405,12.258-4.397,18.277c6.022,11.039,23.461,1.287,23.461-8.748
				C476.599,236.547,465.326,231.629,457.535,237.051z"/>
			<g>
				<path fill="#231F20" d="M456.812,237.021c-6.971,4.131-8.13,15.361-2.656,21.141c4.438,4.686,12.342,1.938,16.81-1.078
					c6.448-4.354,8.784-12.445,3.54-18.715C470.103,233.107,462.089,233.682,456.812,237.021c-0.793,0.5,1.104,0.273,1.445,0.059
					c6.652-4.209,14.575-0.637,16.938,6.371c1.718,5.102-1.222,9.854-4.979,13.047c-6.03,5.119-14.35,4.166-16.962-3.541
					c-1.829-5.408-0.064-12.875,5.002-15.877C459.056,236.605,457.154,236.818,456.812,237.021z"/>
			</g>
		</g>
		<g>
			<path fill="#231F20" d="M457.16,243.061c-1.946,3.611-3.442,11.67,2.305,12.564c0.588,0.092,2.221-0.848,1.155-1.014
				c-5-0.777-3.34-8.492-1.708-11.518C459.333,242.311,457.448,242.527,457.16,243.061L457.16,243.061z"/>
		</g>
		<g>
			<path fill="#231F20" d="M464.14,255.979c0.704-0.092,1.407-0.186,2.109-0.279c0.35-0.047,0.968-0.227,1.073-0.631
				c0.105-0.414-0.58-0.42-0.812-0.389c-0.702,0.092-1.404,0.186-2.107,0.279c-0.351,0.047-0.966,0.225-1.071,0.631
				C463.227,256.004,463.907,256.01,464.14,255.979L464.14,255.979z"/>
		</g>
	</g>
	<g>
		<g>
			<path fill="#C5E8FA" d="M53.227,233.152c-4.304,2.176-5.742,9.506-3.408,14.174c4.668,8.559,18.188,0.996,18.188-6.783
				C68.007,232.76,59.266,228.947,53.227,233.152z"/>
			<g>
				<path fill="#231F20" d="M52.505,233.121c-5.438,3.223-6.378,11.953-2.098,16.473c3.511,3.711,9.868,1.48,13.395-0.9
					c5.032-3.398,6.882-9.691,2.785-14.592C63.089,229.924,56.673,230.486,52.505,233.121c-0.793,0.502,1.104,0.275,1.442,0.061
					c5.049-3.193,10.993-0.256,12.762,4.99c1.326,3.943-0.937,7.607-3.842,10.076c-4.597,3.904-10.78,2.984-12.747-2.818
					c-1.406-4.156-0.073-9.938,3.827-12.248C54.75,232.707,52.848,232.92,52.505,233.121z"/>
			</g>
		</g>
		<g>
			<path fill="#231F20" d="M52.738,237.809c-1.548,2.869-2.685,9.152,1.855,9.859c0.588,0.092,2.219-0.846,1.156-1.012
				c-3.786-0.592-2.488-6.537-1.261-8.814C54.912,237.059,53.027,237.275,52.738,237.809L52.738,237.809z"/>
		</g>
		<g>
			<path fill="#231F20" d="M58.318,247.943c0.545-0.072,1.089-0.145,1.637-0.217c0.35-0.047,0.968-0.227,1.07-0.631
				c0.107-0.414-0.578-0.42-0.811-0.389c-0.542,0.072-1.088,0.145-1.635,0.217c-0.35,0.047-0.967,0.225-1.07,0.631
				C57.402,247.969,58.089,247.975,58.318,247.943L58.318,247.943z"/>
		</g>
	</g>
	<g>
		<path fill="#231F20" d="M93.65,100.898c4.184,0.09,8.365,0.18,12.547,0.27c-0.325-0.535-0.648-1.07-0.976-1.605
			c-4.799,3.969-9.6,7.938-14.399,11.906c-0.744,0.615-0.645,1.469,0.417,1.568c4.339,0.402,8.675,0.805,13.011,1.209
			c1.217,0.113,2.582-0.172,3.552-0.953c0.757-0.609,0.633-1.471-0.421-1.568c-4.335-0.402-8.672-0.805-13.009-1.209
			c0.142,0.523,0.279,1.047,0.421,1.57c4.801-3.969,9.602-7.938,14.404-11.906c1.15-0.951,0.096-1.584-0.976-1.605
			c-4.186-0.092-8.367-0.182-12.549-0.271C93.949,98.266,90.266,100.824,93.65,100.898L93.65,100.898z"/>
	</g>
	<g>
		<path fill="#231F20" d="M115.697,82.051c5.349-3.043,10.697-6.086,16.042-9.131c-1.456,0.154-2.916,0.309-4.372,0.463
			c-3.065,8.635-6.128,17.27-9.191,25.906c-0.379,1.066,3.539-0.051,3.895-0.221c5.779-2.766,11.557-5.533,17.333-8.297
			c2.981-1.428-1.752-1.023-2.85-0.498c-5.778,2.766-11.556,5.533-17.333,8.297c1.297-0.072,2.596-0.145,3.895-0.219
			c3.064-8.635,6.127-17.27,9.19-25.904c0.4-1.129-3.956,0.225-4.374,0.463c-5.348,3.043-10.696,6.086-16.043,9.131
			C109.806,83.225,114.854,82.529,115.697,82.051L115.697,82.051z"/>
	</g>
	<g>
		<path fill="#231F20" d="M146.783,54.143c8.304,0.057,16.606,0.113,24.912,0.17c-0.311-0.48-0.622-0.959-0.932-1.439
			c-9.414,8.018-18.83,16.037-28.242,24.055c-0.711,0.605-0.695,1.336,0.379,1.42c8.618,0.672,17.239,1.346,25.859,2.02
			c1.293,0.102,5.842-2.164,3.172-2.371c-8.619-0.674-17.241-1.348-25.858-2.02c0.126,0.473,0.253,0.947,0.379,1.418
			c9.415-8.018,18.829-16.035,28.245-24.055c1.107-0.941,0.146-1.432-0.932-1.439c-8.304-0.059-16.61-0.115-24.915-0.172
			C147.257,51.717,143.41,54.119,146.783,54.143L146.783,54.143z"/>
	</g>
</g>
</svg>
