<?xml version="1.0" encoding="utf-8"?>
<!-- Generator: Adobe Illustrator 13.0.0, SVG Export Plug-In . SVG Version: 6.00 Build 14948)  -->
<svg version="1.2" baseProfile="tiny" id="Layer_1" xmlns="http://www.w3.org/2000/svg" xmlns:xlink="http://www.w3.org/1999/xlink"
	 x="0px" y="0px" width="472.895px" height="558.084px" viewBox="0 0 472.895 558.084" xml:space="preserve">
<g>
	<g>
		<path fill="#FFFFFF" d="M471,321.634c-42.645,26.497-48.014,51.741-18.432,91.3c-49.006,6.358-63.059,27.035-50.268,74.554
			c-47.518-12.79-68.195,1.263-74.553,50.269c-39.561-29.584-64.803-24.214-91.299,18.433
			c-26.498-42.646-51.742-48.017-91.301-18.433c-6.359-49.006-27.037-63.059-74.555-50.269
			c12.789-47.519-1.262-68.195-50.268-74.554c29.582-39.559,24.213-64.803-18.432-91.3c42.645-26.498,48.014-51.74,18.432-91.299
			c49.006-6.358,63.057-27.037,50.268-74.556c47.518,12.791,68.195-1.261,74.555-50.267c39.559,29.584,64.803,24.214,91.301-18.433
			c26.496,42.646,51.738,48.017,91.299,18.433c6.357,49.006,27.035,63.058,74.553,50.267c-12.791,47.519,1.262,68.197,50.268,74.556
			C422.986,269.894,428.355,295.136,471,321.634z"/>
		<path fill="#FFFFFF" stroke="#231F20" stroke-width="2" stroke-miterlimit="10" d="M471,321.634
			c-42.645,26.497-48.014,51.741-18.432,91.3c-49.006,6.358-63.059,27.035-50.268,74.554c-47.518-12.79-68.195,1.263-74.553,50.269
			c-39.561-29.584-64.803-24.214-91.299,18.433c-26.498-42.646-51.742-48.017-91.301-18.433
			c-6.359-49.006-27.037-63.059-74.555-50.269c12.789-47.519-1.262-68.195-50.268-74.554c29.582-39.559,24.213-64.803-18.432-91.3
			c42.645-26.498,48.014-51.74,18.432-91.299c49.006-6.358,63.057-27.037,50.268-74.556c47.518,12.791,68.195-1.261,74.555-50.267
			c39.559,29.584,64.803,24.214,91.301-18.433c26.496,42.646,51.738,48.017,91.299,18.433c6.357,49.006,27.035,63.058,74.553,50.267
			c-12.791,47.519,1.262,68.197,50.268,74.556C422.986,269.894,428.355,295.136,471,321.634z"/>
	</g>
	<g>
		<path fill="#A6DEF4" d="M133.563,102.353c22.074-33.538,13.035-40.641,9.207-62.812c11.555,18.525,22.395,31.853,39.107,16.318
			c13.529-13.146,20.08-31.807,28.598-55.181c1.205,23.488,2.35,51.771,24.912,62.691c16.229,7.856,34.639,0.381,47.77-13.957
			c-5.268,18.018-10.734,32.452-0.275,43.396c12.418,13,24.088,8.549,36.131,2.869c-6.564,12.643-12.82,22.839-11.799,48.853
			c-18.035-36.635-35.854-56.54-72.678-66.88C192.426,65.825,162.67,77.035,133.563,102.353z"/>
		<g>
			<path fill="#231F20" d="M134.721,102.336c6.592-10.151,13.939-21.799,14.369-34.296c0.34-9.85-3.34-19.252-5.064-28.835
				c-0.836,0.225-1.674,0.448-2.512,0.673c5.193,8.26,10.746,17.724,19.824,22.17c6.189,3.031,12.922,0.335,18.152-3.232
				c18.035-12.292,25.23-39.083,32.232-58.317c-0.836,0.173-1.67,0.344-2.504,0.517c1.049,20.49,1.531,45.371,19.113,59.25
				c18.285,14.438,41.924,3.988,55.982-10.868c-0.803,0.066-1.604,0.131-2.406,0.197c-4.127,14-11.322,31.143-0.201,43.683
				c10.791,12.166,24.807,8.886,37.779,2.835c-0.576-0.085-1.15-0.169-1.725-0.254c-3.418,6.556-6.789,13.036-8.959,20.133
				c-2.848,9.311-3.145,19.221-2.846,28.876c0.836-0.225,1.674-0.447,2.51-0.673c-7.805-15.739-16.705-31.075-29.375-43.433
				c-12.664-12.354-28.871-19.674-45.752-24.276c-17.51-4.774-35.803-5.649-53.451-1.187c-17.855,4.516-33.525,15.037-47.316,26.909
				c-1.063,0.914,1.441,0.756,1.98,0.292c13.943-12.003,29.355-22,47.361-26.553c19.424-4.912,40-1.735,58.729,4.466
				c32.01,10.6,50.828,35.245,65.314,64.454c0.371,0.748,2.535,0.147,2.51-0.673c-0.314-10.183,0.281-20.213,3.271-29.992
				c2.01-6.573,5.361-12.637,8.521-18.704c0.354-0.677-1.547-0.336-1.723-0.254c-6.672,3.111-13.402,6.063-20.943,5.1
				c-7.789-0.996-14.957-7.897-17.951-14.857c-4.752-11.049,1.621-25.587,4.764-36.253c0.279-0.945-2.115-0.112-2.406,0.197
				c-8.818,9.318-19.961,16.463-33.174,16.469c-10.543,0.003-19.998-6.503-25.973-14.752c-10.23-14.119-10.271-34.152-11.125-50.805
				c-0.039-0.791-2.303-0.034-2.504,0.517c-5.889,16.17-11.416,32.955-21.572,47.047c-5.756,7.987-15.031,17.55-25.605,12.371
				c-8.037-3.937-13.482-13.854-18.021-21.071c-0.412-0.658-2.664-0.173-2.512,0.673c1.531,8.51,4.572,16.816,5.074,25.485
				c0.783,13.448-7.188,26.232-14.184,37.006C131.824,103.264,134.324,102.948,134.721,102.336z"/>
		</g>
	</g>
	<g>
		<g>
			<g>
				<g>
					<path fill="#EC2181" d="M233.408,129.583c-23.422-4.285-34.492,12.628-35.146,25.012
						c-1.299,24.661,28.297,32.534,42.807,23.084C263.135,163.304,257.746,134.036,233.408,129.583z M237.629,163.247
						c-4.666,6.843-21.471,8.734-24.695-3.091c-0.713-2.869-1.111-13.725,8.176-17.003
						C234.914,138.282,245.594,151.565,237.629,163.247z"/>
				</g>
				<g>
					<path fill="#231F20" d="M233.861,128.735c-15.93-2.533-30.936,4.264-35.895,20.3c-4.951,16.003,6.787,29.663,21.938,32.761
						c14.51,2.966,28.66-4.705,34.455-18.289c6.771-15.87-4.523-31.429-20.211-34.717c-0.986-0.207-2.979,1.272-1.479,1.587
						c13.986,2.931,23.191,14.7,20.465,29.098c-2.908,15.338-18.645,23.413-33.037,20.472c-13.277-2.715-22.02-14.172-20.346-27.692
						c2.059-16.606,17.947-24.249,33.205-21.822C234.109,130.616,235.547,129.003,233.861,128.735z"/>
					<path fill="#231F20" d="M236.594,162.929c-3.578,4.746-10.404,5.859-15.826,4.122c-5.539-1.777-7.244-7.357-6.77-12.562
						c0.83-9.108,10.053-13.94,18.322-10.201c7.609,3.441,8.057,12.565,4.117,18.851c-0.707,1.132,1.85,1.063,2.383,0.214
						c4.582-7.315,3.209-17.808-5.811-21.01c-7.77-2.758-18.049,0.128-20.707,8.63c-2.256,7.211-0.5,14.653,6.986,17.665
						c6.242,2.511,15.303,0.332,19.375-5.074C239.611,162.309,237.223,162.091,236.594,162.929z"/>
				</g>
			</g>
		</g>
		<g>
			<path fill="#EC2181" d="M303.182,183.087c-1.631,8.12-16.373,16.407-23.947,6.771c-1.773-2.364-6.371-12.207,0.908-18.845
				c5.705-5.2,12.572-5.41,17.383-2.417c1.191-3.278,2.398-9.826,4.393-13.944c-4.852-2.166-9.379-2.341-15.732-0.926
				c-23.242,5.175-26.852,25.063-22.631,36.724c8.408,23.22,38.734,18.946,48.416,4.592c2.049-3.035,3.475-6.126,4.383-9.189
				c-4.254-1.092-8.934-2.199-13.098-3.202C303.229,182.798,303.213,182.939,303.182,183.087z"/>
			<g>
				<path fill="#231F20" d="M301.93,183.254c-2.588,9.367-16.637,14.608-22.264,4.949c-6.264-10.748,3.262-26.258,16.855-19.016
					c0.611,0.324,2.027-0.057,2.258-0.757c1.52-4.648,2.443-9.44,4.393-13.944c0.08-0.184-0.102-0.365-0.25-0.425
					c-11.336-4.511-26.98-0.334-35.035,8.886c-7.875,9.013-9.205,21.589-3.625,32.122c5.545,10.471,17.773,13.665,28.725,11.908
					c12.043-1.933,20.834-9.824,24.619-21.292c0.102-0.309-0.26-0.437-0.479-0.491c-4.357-1.104-8.727-2.151-13.096-3.201
					c-0.529-0.127-1.916,0.141-2.029,0.823C301.979,182.963,301.953,183.107,301.93,183.254c-0.154,0.932,2.369,0.484,2.506-0.333
					c0.023-0.146,0.049-0.291,0.072-0.437c-0.676,0.274-1.352,0.55-2.029,0.823c3.648,0.878,7.299,1.754,10.941,2.656
					c3.369,0.834-2.352,8.704-3.287,10.012c-3.414,4.756-9.078,7.623-14.564,9.179c-11.678,3.31-23.822-1.365-29.51-12.106
					c-4.447-8.397-3.33-18.962,1.609-26.839c4.518-7.2,12.625-10.688,20.639-12.275c3.779-0.748,13.191-1.781,10.998,4.341
					c-1.227,3.424-1.9,7.031-3.031,10.488c0.752-0.252,1.504-0.504,2.256-0.756c-5.531-2.948-12.631-2.647-17.643,1.412
					c-6.377,5.167-7.408,12.178-3.732,19.457c5.996,11.879,24.408,4.443,27.281-5.955
					C304.674,182.061,302.156,182.435,301.93,183.254z"/>
			</g>
		</g>
		<g>
			<path fill="#EC2181" d="M100.721,116.276c-7.102-4.146-16.375-6.964-23.779-6.646c-9.932,0.277-20.516,4.983-25.621,13.961
				c-5.375,9.578-5.113,16.84-0.395,26.579c4.557,9.302,14.162,14.839,23.318,13.853c11.348-1.823,32.412-4.944,28.121,10.426
				c-5.096,18.256-34.434,6.684-39.578,5.485c-1.086,5.796-1.516,11.154-1.436,17.275c24.734,6.956,68.324,3.7,54.535-38.04
				c-3.686-11.151-15.17-15.287-28.66-12.505c-6.445,1.332-13.086,3.847-18.223-1.722c-2.65-3.001-3.393-11.084-1.164-14.444
				c5.881-8.268,22.115-3.42,29.58-0.079C99.266,123.858,100.57,119.387,100.721,116.276z"/>
			<g>
				<path fill="#231F20" d="M101.705,115.619c-15.014-8.323-33.441-9.911-46.977,2.069c-14.238,12.604-9.492,39.092,8.564,45.589
					c7.174,2.582,13.604,0.881,20.93,0.206c7.316-0.676,18.652-0.519,17.217,9.666c-2.518,17.857-27.148,8.748-37.9,6.031
					c-0.631-0.158-1.877,0.103-2.014,0.884c-1.004,5.744-1.451,11.444-1.436,17.275c0,0.343,0.18,0.531,0.512,0.622
					c19.631,5.347,55.059,5.724,58.963-20.708c0.998-6.737-0.393-15.716-3.779-21.598c-4.076-7.083-10.973-10.043-18.877-10.6
					c-3.971-0.28-7.955,0.457-11.814,1.306c-5.52,1.212-10.246,2.311-14.93-1.938c-1.723-1.563-2.041-4.767-2.316-6.906
					c-2.086-16.237,20.281-10.038,28.586-6.441c0.723,0.313,2.004,0.078,2.248-0.788c1.307-4.64,2.873-9.32,3.301-14.143
					c0.102-1.148-2.439-0.706-2.523,0.261c-0.428,4.823-1.996,9.505-3.301,14.143c0.748-0.263,1.498-0.525,2.246-0.788
					c-9.643-4.177-32.287-10.135-33.143,6.539c-0.375,7.315,4.549,13.507,12.217,12.881c12.199-0.996,24.99-6.369,34.334,4.896
					c5.514,6.646,6.529,18.954,4.521,27.032c-2.029,8.173-9.119,13.271-16.719,15.808c-7.584,2.536-15.906,2.683-23.799,2.029
					c-3.895-0.322-7.752-1.014-11.549-1.918c-3.824-0.912-0.75-14.183-0.217-17.226c-0.672,0.295-1.344,0.589-2.014,0.884
					c10.398,2.625,21.031,6.801,31.826,3.619c8.256-2.434,16.064-17.356,4.871-21.295c-5.809-2.043-12.248-1.406-18.242-0.679
					c-4.885,0.591-9.115,1.39-14.047,0.036c-5.799-1.593-10.316-6.096-13.447-11.017c-7.887-12.399-4.207-28.082,7.791-36.208
					c11.865-8.038,27.299-4.665,38.945,1.791C100.553,117.389,102.832,116.244,101.705,115.619z"/>
			</g>
		</g>
		<g>
			<path fill="#EC2181" d="M132.049,118.811c7.549,0.376,10.238,0.257,17.053,0.595c-1.002,19.484-0.357,26.218-0.492,46.097
				c4.668-7.323,12.984-7.899,18.998-7.138c13.518,1.719,19.248,14.051,19.674,27.616c0.287,9.233-3.377,26.187-3.377,26.187
				s-10.242-0.143-14.621-0.359c0.756-7.894,9.184-35.052-5.863-36.774c-14.566-1.668-14.516,25.629-14.479,36.007
				c-3.895-0.193-10.971-0.178-16.207-0.438C132.289,197.523,132.027,141.383,132.049,118.811z"/>
			<g>
				<path fill="#231F20" d="M131.23,119.298c4.338,0.201,8.678,0.295,13.02,0.427c5.566,0.169,3.146,10.925,3.07,14.993
					c-0.191,10.371,0.088,20.748,0.033,31.12c-0.004,0.531,2.266-0.256,2.492-0.567c6.785-9.364,20.158-8.087,27.959-1.236
					c4.811,4.223,6.797,10.985,7.777,17.059c1.652,10.208-0.779,21.328-2.914,31.306c0.686-0.24,1.371-0.48,2.057-0.719
					c-4.473-0.064-8.945-0.15-13.414-0.308c-1.342-0.047,1.148-11.047,1.387-12.561c1.072-6.758,3.137-21.134-5.945-23.732
					c-19.277-5.517-19.102,24.769-19.064,36.297c0.691-0.274,1.385-0.55,2.074-0.824c-1.625-0.065-15.754,0.192-15.791-0.919
					c-0.088-2.727-0.129-5.455-0.172-8.182c-0.143-8.645-0.207-17.289-0.273-25.935c-0.145-19.014-0.234-38.028-0.221-57.042
					c0.002-0.354-2.51-0.009-2.51,0.673c-0.025,30.575-0.305,61.229,0.686,91.792c0.004,0.149,0.367,0.148,0.436,0.151
					c5.398,0.229,10.805,0.217,16.205,0.437c0.41,0.017,2.078-0.22,2.076-0.824c-0.025-7.948,0.133-43.118,16.227-33.796
					c10.045,5.818,2.584,26.646,1.604,35.237c-0.018,0.145,0.389,0.149,0.436,0.15c4.869,0.214,9.746,0.29,14.619,0.359
					c0.404,0.007,1.943-0.184,2.057-0.719c3.131-14.622,6.592-31.751-1.953-45.185c-7.607-11.96-27.629-12.314-35.813-1.019
					c0.83-0.188,1.662-0.378,2.492-0.567c0.082-15.38-0.264-30.727,0.492-46.097c0.008-0.147-0.381-0.148-0.436-0.151
					c-5.682-0.259-11.369-0.332-17.053-0.594C132.369,118.301,130.008,119.242,131.23,119.298z"/>
			</g>
		</g>
		<g>
			<path fill="#EC2181" d="M384.1,169.158c-2.83-3.269-28.787-28.399-29.719-29.715c4.91-5.065,26.141-28.067,29.793-31.134
				c-4.137-4.409-7.025-7.599-10.893-11.409c-2.828,2.169-26.211,26.039-28.078,28.59c0.197-3.993,1.201-35.244,1.176-37.258
				c-3.479-0.319-13.527-1.099-17.004-1.427c-1.125,22.543-3.605,78.629-3.797,91.713c3.424,0.504,12.285,0.847,16.166,1.229
				c0.014-0.335,0.9-12.291,1.896-27.795c2.586,2.89,25.449,24.751,28.801,29.441C376.26,178.261,384.1,169.158,384.1,169.158z"/>
			<g>
				<path fill="#231F20" d="M385.285,168.739c-9.01-10.1-19.369-19.034-28.813-28.729c-1.633-1.678,11.121-13.501,12.855-15.347
					c5.201-5.53,10.252-11.464,15.979-16.466c0.121-0.106,0.164-0.188,0.053-0.307c-3.594-3.842-7.168-7.693-10.893-11.409
					c-0.432-0.431-1.953,0.233-2.318,0.53c-5.359,4.354-10.066,9.737-14.893,14.656c-4.465,4.552-9.357,9.013-13.289,14.052
					c0.83-0.188,1.662-0.377,2.492-0.566c0.572-12.388,1.162-24.856,1.176-37.257c-0.047-0.083-0.121-0.127-0.219-0.134
					c-5.666-0.504-11.34-0.911-17.004-1.427c-0.475-0.043-2.258,0.116-2.293,0.807c-1.516,30.536-3.293,61.139-3.797,91.712
					c0.047,0.084,0.119,0.127,0.219,0.134c5.363,0.675,10.783,0.754,16.166,1.229c0.482,0.042,2.248-0.112,2.291-0.806
					c0.6-9.268,1.299-18.527,1.898-27.795c-0.814,0.251-1.629,0.502-2.441,0.755c9.203,9.996,20.543,18.472,28.73,29.359
					c0.402,0.535,2.002-0.114,2.389-0.448c4.291-3.714,8.055-8.068,11.762-12.355c0.109-0.127-1.99-0.098-2.473,0.46
					c-3.635,4.207-7.344,8.476-11.555,12.119c0.797-0.15,1.594-0.299,2.389-0.448c-8.234-10.95-19.617-19.473-28.871-29.524
					c-0.359-0.39-2.406,0.206-2.441,0.756c-0.6,9.268-1.299,18.527-1.896,27.795c0.762-0.269,1.527-0.537,2.291-0.807
					c-4.188-0.369-8.387-0.563-12.578-0.868c-4.625-0.335-3.314-3.094-3.199-6.871c0.27-8.813,0.635-17.624,0.994-26.435
					c0.803-19.549,1.664-39.095,2.635-58.635c-0.764,0.268-1.527,0.537-2.291,0.806c1.67,0.151,16.785,1.094,16.783,1.52
					c-0.002,3.424-0.172,6.854-0.275,10.274c-0.268,8.917-0.486,17.844-0.898,26.757c-0.025,0.523,2.264-0.272,2.492-0.566
					c4.148-5.319,9.354-10.018,14.068-14.824c4.498-4.587,8.904-9.589,13.904-13.647c-0.773,0.177-1.547,0.354-2.318,0.531
					c2.586,2.579,5.105,5.218,7.602,7.885c1.965,2.101,3.734,2.771,1.586,4.863c-3.119,3.038-6.094,6.232-9.092,9.39
					c-6.338,6.675-12.553,13.471-18.941,20.098c-0.084,0.055-0.125,0.13-0.125,0.225c8.789,10.854,20.484,19.368,29.789,29.798
					C383.313,170.023,385.629,169.125,385.285,168.739z"/>
			</g>
		</g>
		<g>
			<g>
				<path fill="#EC2181" d="M406.211,221.778c1.414-2.851,6.703-12.107,5.451-12.701c-4.256-2.017-9.631-4.785-12.768-6.346
					c-2.201,2.463-6.469,11.547-5.703,12.406C393.928,215.971,402.656,220.804,406.211,221.778z"/>
				<g>
					<path fill="#231F20" d="M407.455,221.581c1.926-3.804,4.74-7.742,5.617-11.961c0.342-1.635-2.709-2.191-3.738-2.697
						c-3.154-1.545-6.277-3.152-9.42-4.722c-0.557-0.279-1.791,0.123-2.168,0.58c-1.709,2.068-2.918,4.543-4.061,6.952
						c-0.617,1.303-2.381,4.214-1.748,5.741c0.586,1.416,4.299,2.724,5.531,3.382c2.475,1.321,5.031,2.632,7.723,3.454
						c0.639,0.194,2.895-0.801,2.039-1.063c-4.367-1.333-9.025-3.671-12.693-6.406c-1.719-1.283,4.535-10.984,5.508-12.158
						c-0.723,0.192-1.447,0.387-2.17,0.58c2.373,1.186,4.736,2.387,7.107,3.575c1.52,0.762,3.045,1.511,4.574,2.252
						c1.459,0.707,1.002,1.265,0.574,2.464c-1.295,3.638-3.428,6.989-5.164,10.423C404.705,222.489,407.105,222.271,407.455,221.581
						z"/>
				</g>
			</g>
			<g>
				<path fill="#EC2181" d="M415.416,202.554c0,0,26.686-45.293,32.402-56.987c0,0-13.141-6.851-18.578-9.076
					c-2.102,4.278-24.121,53.994-26.363,59.216L415.416,202.554z"/>
				<g>
					<path fill="#231F20" d="M416.58,202.562c11.09-18.828,22.795-37.569,32.492-57.163c0.094-0.189-0.115-0.351-0.25-0.42
						c-6.104-3.178-12.236-6.396-18.578-9.076c-0.705-0.298-1.916,0.051-2.258,0.756c-9.385,19.418-17.824,39.411-26.363,59.216
						c-0.084,0.196,0.107,0.343,0.248,0.42c4.18,2.283,8.361,4.565,12.541,6.848c0.682,0.374,3.006-0.631,2.008-1.175
						c-2.273-1.242-4.547-2.485-6.822-3.727c-1.561-0.852-3.123-1.705-4.682-2.557c-1.1-0.601-0.77-0.189-0.336-1.184
						c2.631-6.045,5.313-12.068,7.982-18.096c5.918-13.367,11.566-26.918,17.93-40.082c-0.752,0.252-1.504,0.505-2.258,0.756
						c3.852,1.628,7.592,3.503,11.328,5.373c1.852,0.925,3.693,1.868,5.533,2.814c1.824,0.937,1.496,0.449,0.568,2.253
						c-3.498,6.813-7.35,13.452-11.141,20.104c-6.666,11.693-13.439,23.326-20.271,34.924
						C413.672,203.53,416.186,203.23,416.58,202.562z"/>
				</g>
			</g>
		</g>
	</g>
</g>
</svg>
