<?xml version="1.0" encoding="utf-8"?>
<!-- Generator: Adobe Illustrator 13.0.0, SVG Export Plug-In . SVG Version: 6.00 Build 14948)  -->
<svg version="1.2" baseProfile="tiny" id="Layer_1" xmlns="http://www.w3.org/2000/svg" xmlns:xlink="http://www.w3.org/1999/xlink"
	 x="0px" y="0px" width="471.971px" height="471.972px" viewBox="0 0 471.971 471.972" xml:space="preserve">
<g>
	<polygon fill="#FFFFFF" stroke="#231F20" stroke-width="2" stroke-miterlimit="10" points="470.538,235.576 430.835,274.412 
		452.89,325.394 401.304,346.009 402.126,401.551 346.583,400.921 326.149,452.578 275.093,430.7 236.394,470.539 197.558,430.836 
		146.577,452.892 125.964,401.307 70.421,402.13 71.05,346.585 19.394,326.15 41.272,275.093 1.433,236.395 41.136,197.559 
		19.081,146.578 70.667,125.963 69.843,70.421 125.388,71.051 145.823,19.394 196.88,41.271 235.577,1.433 274.415,41.139 
		325.394,19.081 346.009,70.666 401.552,69.844 400.923,125.388 452.581,145.821 430.702,196.878 	"/>
	<g>
		<g>
			<g>
				<g>
					<g>
						<path fill="#171717" d="M165.71,117.091c4.68,4.236,11.205,8.8,15.689,15.304c4.484,7.177-1.262,20.586-4.492,27.582
							c-6.414,4.663-16.148,10.762-24.402,14.885c-8.252,4.126-24.623,8.607-29.963,9.145c-3.586-7.177-6.832-14.073-10.938-21.888"
							/>
					</g>
					<g>
						<g>
							<path d="M164.552,117.611c3.904,3.448,7.971,6.678,11.645,10.383c4.727,4.77,6.125,9.099,5.166,15.681
								c-0.758,5.182-2.934,10.175-5.045,14.92c-1.824,4.1-9.914,7.456-13.566,9.676c-9.504,5.775-19.232,9.774-29.93,12.733
								c-2.02,0.559-4.059,1.042-6.104,1.501c-3.424,0.769-3.318,0.37-4.85-2.729c-2.969-6.016-5.906-12.044-9.008-17.993
								c-0.506-0.967-2.959-0.186-2.512,0.673c3.77,7.234,7.305,14.584,10.938,21.888c0.209,0.419,0.67,0.521,1.115,0.467
								c19.15-2.383,36.66-11.597,52.373-22.288c6.508-4.427,8.908-15.12,9.514-22.626c0.848-10.515-10.555-17.266-17.42-23.326
								C166.116,115.906,163.751,116.905,164.552,117.611L164.552,117.611z"/>
						</g>
					</g>
				</g>
				<g>
					<g>
						<path fill="#171717" d="M78.095,182.336c1.281-4.856,5.883-22.557,9.65-33.857c1.795-6.279,5.037-14.705,6.463-18.479
							c14.67-10.356,30.145-20.444,44.857-30.489c4.307-3.049,20.186-11.881,27.99-14.884c-0.203,14.201-0.814,29.78-2.521,45.208
							C151.571,136.648,84.286,178.348,78.095,182.336"/>
					</g>
					<g>
						<g>
							<path d="M79.331,182.106c2.395-9.091,4.836-18.168,7.537-27.174c1.604-5.346,3.297-10.675,5.152-15.938
								c0.797-2.26,1.643-4.503,2.484-6.746c1.4-3.717,5.611-5.704,8.73-7.857c20.383-14.072,41.059-30.228,64.246-39.509
								c-0.563,0.027-1.121,0.053-1.682,0.08c-0.162,10.209-0.521,20.406-1.211,30.595c-0.17,2.541,0.277,13.563-1.932,14.753
								c-1.459,0.787-2.896,1.615-4.334,2.44c-9.848,5.654-19.537,11.591-29.236,17.493c-17.375,10.576-34.824,21.091-51.949,32.075
								c-1.033,0.663,1.486,0.307,1.914,0.032c17.934-11.503,36.211-22.505,54.412-33.574c9.34-5.68,18.682-11.377,28.174-16.798
								c1.275-0.728,2.557-1.441,3.854-2.129c1.355-0.72,1.104-8.536,1.238-10.103c1.012-11.79,1.395-23.63,1.582-35.458
								c0.006-0.402-1.545,0.023-1.684,0.079c-22.896,9.163-43.072,24.785-63.268,38.591c-3.389,2.315-6.752,4.662-10.109,7.022
								c-0.949,0.669-1.395,3.195-1.785,4.233c-2.199,5.847-4.102,11.771-6.002,17.718c-3.229,10.101-5.904,20.38-8.605,30.631
								C76.733,183.045,79.171,182.712,79.331,182.106L79.331,182.106z"/>
						</g>
					</g>
				</g>
				<g>
					<g>
						<path fill="#E8242A" d="M131.571,119.613c4.809-17.591,14.301-33.296,6.244-51.478c-0.248-0.558-2.678,0.298-2.512,0.673
							c7.988,18.025-1.434,33.822-6.201,51.273C128.983,120.519,131.411,120.206,131.571,119.613L131.571,119.613z"/>
					</g>
				</g>
				<g>
					<path fill="#E8242A" d="M135.122,69.189c-3.051-0.08-4.658-6.079,0.9-6.277C139.452,62.787,138.534,69.28,135.122,69.189z"/>
				</g>
				<g>
					<path fill="#E8242A" d="M125.786,122.29c-1.326,8.009,9.373,3.39,4.484-2.688C128.567,118.548,126.146,120.317,125.786,122.29z
						"/>
				</g>
				<g>
					<g>
						<path fill="#EA2328" d="M135.704,65.148c-2.176-0.457-11.045-11.919-14.096-18.206c-0.836-1.672-2.488-4.961-0.434-5.777
							c3.561-1.417,5.92,4.761,6.793,6.505C129.638,50.831,135.827,63.18,135.704,65.148z"/>
					</g>
					<g>
						<g>
							<path fill="#E8242A" d="M136.706,64.55c-3.426-1.289-6.385-6.521-8.426-9.307c-1.824-2.485-3.51-5.082-4.986-7.789
								c-0.457-0.839-0.852-1.711-1.242-2.582c-0.742-1.663-0.049-3.688,1.76-1.905c2.666,2.625,4.365,7.856,5.994,11.191
								c1.617,3.312,4.4,7.56,4.643,11.327c0.051,0.793,2.572,0.274,2.512-0.673c-0.332-5.176-4.531-11.191-6.828-15.724
								c-1.547-3.05-3.695-9.81-8.256-8.739c-5.721,1.342-1.271,7.622,0.619,10.744c2.109,3.487,4.58,6.773,7.162,9.92
								c1.33,1.621,2.992,3.962,5.045,4.734C135.446,66.028,137.733,64.936,136.706,64.55z"/>
						</g>
					</g>
				</g>
			</g>
			<g>
				<g>
					<path d="M88.61,192.594c-0.195,6.167,0.584,13.325,3.674,18.763c3.221,5.665,8.945,3.346,12.652-0.464
						c1.031-1.061-1.432-1.024-2.016-0.424c-2.029,2.083-4.418,4.177-6.967,1.727c-1.621-1.562-2.406-3.973-3.053-6.065
						c-1.35-4.388-1.924-9.261-1.777-13.847C91.157,191.231,88.638,191.752,88.61,192.594L88.61,192.594z"/>
				</g>
			</g>
			<g>
				<g>
					<path d="M81.562,208.905c-0.811,11.786,9.043,31.392,22.709,21.316c1.375-1.014-0.678-1.829-1.656-1.108
						c-11.713,8.635-19.125-11.471-18.512-20.411C84.188,207.42,81.636,207.798,81.562,208.905L81.562,208.905z"/>
				</g>
			</g>
			<g>
				<g>
					<path d="M198.603,117.791c11.293,3.968,6.85,18.617,2.803,26.521c-0.271,0.532,2.137,0.312,2.494-0.388
						c4.246-8.299,8.406-23.112-3.262-27.212C199.995,116.487,197.718,117.479,198.603,117.791L198.603,117.791z"/>
				</g>
			</g>
			<g>
				<g>
					<path d="M214.938,127.787c9.059,10.637-1.283,23.177-9.664,30.443c-1.289,1.116,0.691,2.107,1.691,1.242
						c9.035-7.833,19.967-21.428,10.266-32.822C216.446,125.729,214.069,126.767,214.938,127.787L214.938,127.787z"/>
				</g>
			</g>
			<g>
				<g>
					<path d="M138.563,192.121c0.369,9.533,0.031,19.064,0,28.6c0,0.473,2.508,0.095,2.512-0.673c0.029-9.536,0.369-19.066,0-28.6
						C141.056,190.947,138.534,191.371,138.563,192.121L138.563,192.121z"/>
				</g>
			</g>
			<g>
				<g>
					<path d="M146.515,172.325c0.719,18.365,0.393,36.736,0.705,55.109c0.021,1.242,2.551,0.795,2.531-0.231
						c-0.309-18.372,0.016-36.742-0.703-55.109C148.999,170.85,146.476,171.305,146.515,172.325L146.515,172.325z"/>
				</g>
			</g>
			<g>
				<g>
					<path d="M153.714,181.048c0.422,11.048,0.553,22.105,1.082,33.148c0.064,1.321,2.598,0.924,2.545-0.191
						c-0.529-11.044-0.66-22.102-1.082-33.149C156.208,179.535,153.671,179.929,153.714,181.048L153.714,181.048z"/>
				</g>
			</g>
		</g>
		<g>
			<path fill="#ED4B97" d="M40.935,130.989c0,0,10.828,1.235,15.977-4.448l5.676,13.402c0,0-7.195,7.689-17.326,6.119
				L40.935,130.989z"/>
			<path fill="#231F20" d="M47.997,147.574c-0.977,0-1.965-0.076-2.936-0.227c-0.5-0.078-0.91-0.439-1.051-0.927l-4.324-15.073
				c-0.121-0.417-0.023-0.866,0.256-1.197c0.279-0.332,0.709-0.502,1.139-0.453c0.033,0.005,10.188,1.137,14.865-4.029
				c0.299-0.328,0.742-0.483,1.182-0.409c0.438,0.074,0.807,0.367,0.98,0.774l5.676,13.403c0.201,0.473,0.104,1.02-0.248,1.395
				C63.278,141.106,57.12,147.574,47.997,147.574z M46.274,144.884c0.574,0.06,1.15,0.09,1.723,0.09
				c6.471,0,11.391-3.865,13.041-5.35l-4.602-10.872c-4.326,3.402-10.664,3.717-13.746,3.642L46.274,144.884z"/>
		</g>
		<g>
			<path fill="#ED4B97" d="M259.882,373.464c0,0,10.828,1.234,15.977-4.449l5.676,13.402c0,0-7.195,7.69-17.326,6.119
				L259.882,373.464z"/>
			<path fill="#231F20" d="M266.944,390.048c-0.977,0-1.965-0.076-2.936-0.227c-0.5-0.077-0.91-0.439-1.051-0.926l-4.324-15.073
				c-0.121-0.417-0.023-0.866,0.254-1.198c0.281-0.33,0.717-0.505,1.141-0.452c0.033,0.004,10.186,1.136,14.865-4.029
				c0.299-0.328,0.744-0.483,1.182-0.409c0.438,0.073,0.807,0.366,0.98,0.774l5.676,13.402c0.201,0.474,0.102,1.021-0.248,1.396
				C282.226,383.581,276.067,390.048,266.944,390.048z M265.222,387.357c0.574,0.06,1.148,0.091,1.723,0.091
				c6.473,0,11.393-3.865,13.041-5.351l-4.602-10.871c-4.328,3.402-10.664,3.71-13.746,3.641L265.222,387.357z"/>
		</g>
		<g>
			<path fill="#ED4B97" d="M99.517,344.855c0,0,9.066,6.047,16.242,3.343l-1.076,14.516c0,0-9.914,3.553-18.209-2.474
				L99.517,344.855z"/>
			<path fill="#231F20" d="M107.804,365.054c-4.588,0-8.656-1.266-12.094-3.762c-0.41-0.298-0.609-0.807-0.512-1.304l3.043-15.385
				c0.084-0.426,0.375-0.78,0.775-0.947c0.398-0.166,0.859-0.122,1.219,0.117c0.059,0.038,5.816,3.821,11.467,3.821
				c1.309,0,2.518-0.206,3.598-0.612c0.414-0.157,0.883-0.092,1.236,0.175c0.355,0.267,0.551,0.694,0.52,1.137l-1.076,14.517
				c-0.039,0.513-0.375,0.954-0.857,1.128C114.995,363.983,111.958,365.054,107.804,365.054z M97.915,359.655
				c2.84,1.857,6.162,2.799,9.889,2.799c2.523,0,4.58-0.441,5.648-0.727l0.873-11.779c-0.836,0.164-1.713,0.246-2.623,0.246
				c-4.543,0-8.961-2.025-11.268-3.284L97.915,359.655z"/>
		</g>
		<g>
			<path fill="#ED4B97" d="M286.767,88.742c0,0,10.828,1.235,15.977-4.449l5.676,13.403c0,0-7.197,7.689-17.326,6.119
				L286.767,88.742z"/>
			<path fill="#231F20" d="M293.829,105.326c-0.977,0-1.965-0.076-2.936-0.227c-0.5-0.077-0.91-0.439-1.051-0.926l-4.324-15.073
				c-0.121-0.417-0.023-0.866,0.256-1.198c0.281-0.33,0.705-0.503,1.139-0.452c0.033,0.005,10.189,1.136,14.865-4.029
				c0.299-0.328,0.744-0.483,1.182-0.409c0.438,0.073,0.807,0.366,0.979,0.774l5.678,13.402c0.201,0.474,0.104,1.021-0.248,1.396
				C309.11,98.859,302.952,105.326,293.829,105.326z M292.106,102.636c0.574,0.061,1.148,0.091,1.723,0.091
				c6.473,0,11.391-3.865,13.041-5.35l-4.602-10.872c-4.326,3.402-10.66,3.717-13.746,3.641L292.106,102.636z"/>
		</g>
		<g>
			<path fill="#ED4B97" d="M398.478,132.8c0,0,15.311-1.621,20.668-11.041l11.947,16.745c0,0-7.564,12.814-22.023,13.759
				L398.478,132.8z"/>
			<path fill="#231F20" d="M409.069,153.563c-0.473,0-0.91-0.258-1.139-0.679l-10.596-19.463c-0.207-0.381-0.209-0.84-0.008-1.225
				s0.582-0.644,1.014-0.689c0.145-0.016,14.715-1.67,19.676-10.391c0.219-0.386,0.619-0.633,1.063-0.656
				c0.484-0.019,0.867,0.184,1.125,0.544l11.947,16.745c0.299,0.418,0.32,0.973,0.061,1.415
				c-0.324,0.548-8.086,13.418-23.057,14.396C409.126,153.563,409.099,153.563,409.069,153.563z M400.509,133.812l9.301,17.086
				c11.213-1.122,17.963-9.82,19.709-12.36l-10.328-14.479C414.208,130.732,404.597,133.088,400.509,133.812z"/>
		</g>
		<g>
			<path fill="#8AC641" d="M287.958,141.453c0,0,9.635,1.099,14.219-3.96l5.051,11.929c0,0-6.406,6.844-15.42,5.446L287.958,141.453
				z"/>
			<path fill="#231F20" d="M294.243,156.356c-0.877,0-1.764-0.068-2.635-0.204c-0.5-0.077-0.91-0.438-1.051-0.926l-3.85-13.415
				c-0.121-0.417-0.021-0.866,0.258-1.198c0.279-0.33,0.711-0.502,1.139-0.452c0.027,0.002,8.996,1,13.109-3.541
				c0.297-0.328,0.74-0.483,1.18-0.408c0.438,0.073,0.807,0.366,0.979,0.774l5.053,11.928c0.201,0.474,0.104,1.021-0.248,1.396
				C307.946,150.557,302.425,156.356,294.243,156.356z M292.819,153.686c0.475,0.048,0.951,0.071,1.424,0.071
				c5.617,0,9.912-3.304,11.436-4.657l-3.984-9.412c-3.789,2.882-9.186,3.22-11.982,3.162L292.819,153.686z"/>
		</g>
		<g>
			<path fill="#8AC641" d="M126.069,418.782c0,0,9.637,1.099,14.219-3.96l5.053,11.929c0,0-6.404,6.844-15.422,5.446
				L126.069,418.782z"/>
			<path fill="#231F20" d="M132.354,433.686c-0.875,0-1.762-0.068-2.635-0.204c-0.5-0.077-0.908-0.438-1.049-0.926l-3.85-13.415
				c-0.121-0.417-0.021-0.866,0.258-1.198c0.279-0.33,0.713-0.502,1.139-0.452c0.029,0.001,8.994,1,13.107-3.541
				c0.299-0.328,0.746-0.484,1.18-0.408c0.439,0.073,0.809,0.366,0.98,0.774l5.053,11.928c0.199,0.474,0.104,1.021-0.248,1.396
				C146.06,427.886,140.538,433.686,132.354,433.686z M130.933,431.015c0.475,0.048,0.951,0.071,1.422,0.071
				c5.646,0,9.924-3.301,11.439-4.655l-3.986-9.414c-3.791,2.883-9.176,3.222-11.984,3.162L130.933,431.015z"/>
		</g>
		<g>
			<path fill="#8AC641" d="M116.034,251.713c0,0,9.637,1.1,14.221-3.96l5.049,11.929c0,0-6.402,6.844-15.42,5.446L116.034,251.713z"
				/>
			<path fill="#231F20" d="M122.321,266.616c-0.877,0-1.764-0.068-2.637-0.203c-0.5-0.078-0.91-0.439-1.049-0.927l-3.85-13.415
				c-0.121-0.417-0.023-0.866,0.256-1.197c0.279-0.332,0.713-0.501,1.139-0.453c0.031,0.003,8.996,1,13.109-3.541
				c0.297-0.328,0.744-0.483,1.182-0.408c0.438,0.073,0.807,0.366,0.979,0.774l5.053,11.929c0.199,0.474,0.102,1.02-0.248,1.395
				C136.024,260.816,130.501,266.616,122.321,266.616z M120.897,263.946c0.475,0.047,0.951,0.07,1.424,0.07
				c5.615,0,9.912-3.304,11.434-4.657l-3.982-9.412c-3.791,2.882-9.188,3.22-11.984,3.162L120.897,263.946z"/>
		</g>
		<g>
			<path fill="#FEDF00" d="M57.647,218.383c0,0,2.266,12.79,10.51,16.747l-13.389,11.038c0,0-11.23-5.61-12.875-17.723
				L57.647,218.383z"/>
			<path fill="#231F20" d="M54.769,247.468c-0.199,0-0.398-0.045-0.58-0.138c-0.486-0.241-11.865-6.063-13.584-18.71
				c-0.066-0.502,0.162-0.998,0.59-1.271l15.754-10.063c0.365-0.231,0.822-0.27,1.223-0.095c0.396,0.174,0.682,0.536,0.758,0.963
				c0.021,0.121,2.254,12.186,9.791,15.803c0.398,0.192,0.674,0.575,0.729,1.016c0.053,0.44-0.121,0.878-0.465,1.159l-13.389,11.038
				C55.358,247.366,55.065,247.468,54.769,247.468z M43.31,229.083c1.609,9.049,8.971,14.11,11.32,15.515l11.252-9.277
				c-5.65-3.795-8.184-11.334-9.094-14.847L43.31,229.083z"/>
		</g>
		<g>
			<path fill="#FEDF00" d="M257.173,39.828c0,0-6.855-12.591-16.867-13.841l10.141-16.246c0,0,13.721,1.938,19.689,14.036
				L257.173,39.828z"/>
			<path fill="#231F20" d="M257.173,41.127c-0.037,0-0.078-0.001-0.117-0.005c-0.432-0.038-0.816-0.291-1.023-0.672
				c-0.066-0.12-6.666-12.021-15.887-13.173c-0.441-0.055-0.822-0.331-1.014-0.731s-0.164-0.87,0.07-1.246l10.141-16.246
				c0.273-0.436,0.77-0.666,1.285-0.6c0.588,0.083,14.473,2.178,20.674,14.748c0.225,0.455,0.164,0.998-0.154,1.393l-12.963,16.05
				C257.937,40.952,257.563,41.127,257.173,41.127z M242.409,25.073c7.406,1.94,12.793,9.193,14.918,12.494l11.266-13.947
				c-4.922-9.106-14.645-11.819-17.514-12.437L242.409,25.073z"/>
		</g>
		<g>
			<path fill="#FEDF00" d="M209.017,350.795c0,0-7.18,5.015-7.258,11.176l-10.549-5.053c0,0,0.244-8.461,7.186-12.904
				L209.017,350.795z"/>
			<path fill="#231F20" d="M201.759,363.271c-0.193,0-0.385-0.043-0.563-0.128l-10.549-5.053c-0.465-0.222-0.752-0.696-0.738-1.21
				c0.01-0.374,0.352-9.201,7.785-13.961c0.426-0.272,0.973-0.273,1.4,0l10.621,6.78c0.365,0.232,0.588,0.634,0.6,1.067
				c0.01,0.434-0.199,0.844-0.555,1.093c-0.066,0.047-6.633,4.717-6.703,10.128c-0.006,0.443-0.236,0.854-0.613,1.088
				C202.233,363.205,201.997,363.271,201.759,363.271z M192.587,356.136l8.094,3.878c0.881-4.082,4.148-7.419,6.102-9.104
				l-8.363-5.338C193.94,348.858,192.847,354.12,192.587,356.136z"/>
		</g>
		<g>
			<path fill="#64AEE0" d="M189.712,84.579c0,0-5.316-13.365-15.143-15.811l12.057-14.966c0,0,13.432,3.576,17.926,16.343
				L189.712,84.579z"/>
			<path fill="#231F20" d="M189.712,85.878c-0.09,0-0.182-0.009-0.271-0.027c-0.426-0.091-0.777-0.388-0.938-0.79
				c-0.049-0.128-5.193-12.778-14.246-15.031c-0.43-0.106-0.777-0.427-0.918-0.847c-0.143-0.421-0.059-0.884,0.221-1.23
				l12.053-14.965c0.324-0.4,0.85-0.573,1.346-0.44c0.576,0.153,14.152,3.905,18.818,17.167c0.168,0.479,0.045,1.011-0.318,1.363
				l-14.84,14.434C190.372,85.75,190.046,85.878,189.712,85.878z M176.769,68.112c7.15,2.82,11.648,10.699,13.367,14.241
				l12.9-12.549c-3.811-9.667-13.176-13.537-15.955-14.495L176.769,68.112z"/>
		</g>
		<g>
			<path fill="#64AEE0" d="M376.565,345.46c0,0-0.225,14.382,7.908,20.413l-16.877,9.188c0,0-11.029-8.461-10.275-21.974
				L376.565,345.46z"/>
			<path fill="#231F20" d="M367.597,376.361c-0.281,0-0.561-0.091-0.791-0.269c-0.473-0.362-11.564-9.04-10.781-23.078
				c0.027-0.506,0.346-0.949,0.818-1.136l19.244-7.627c0.402-0.158,0.861-0.107,1.217,0.139c0.357,0.246,0.568,0.655,0.563,1.089
				c-0.002,0.138-0.111,13.792,7.383,19.35c0.355,0.264,0.553,0.691,0.521,1.135c-0.031,0.442-0.285,0.838-0.674,1.051
				l-16.877,9.189C368.022,376.31,367.81,376.361,367.597,376.361z M358.587,353.983c-0.193,10.391,6.969,17.56,9.168,19.512
				l14.438-7.86c-5.521-5.351-6.646-14.353-6.875-18.282L358.587,353.983z"/>
		</g>
		<g>
			<path fill="#64AEE0" d="M34.263,310.054c0,0-4.158-10.45-11.838-12.362l9.424-11.698c0,0,10.504,2.794,14.016,12.774
				L34.263,310.054z"/>
			<path fill="#231F20" d="M34.263,311.354c-0.092,0-0.182-0.009-0.271-0.028c-0.424-0.091-0.775-0.387-0.936-0.79
				c-0.041-0.099-4.012-9.856-10.943-11.582c-0.432-0.107-0.777-0.427-0.92-0.848c-0.141-0.42-0.059-0.884,0.221-1.229l9.424-11.699
				c0.322-0.401,0.852-0.575,1.346-0.44c0.455,0.121,11.211,3.092,14.908,13.6c0.168,0.479,0.043,1.011-0.32,1.364l-11.604,11.286
				C34.923,311.225,34.597,311.354,34.263,311.354z M24.603,297.062c5.248,2.26,8.631,7.899,10.072,10.777l9.672-9.408
				c-2.893-7.098-9.727-10.09-12.049-10.924L24.603,297.062z"/>
		</g>
		<g>
			<path fill="#8AC641" d="M295.622,457.208c0,0-3.844-15.154-14.088-19.173l15.102-14.432c0,0,13.973,5.748,17.016,20.142
				L295.622,457.208z"/>
			<path fill="#231F20" d="M295.622,458.508c-0.145,0-0.291-0.024-0.434-0.074c-0.408-0.146-0.719-0.484-0.824-0.905
				c-0.039-0.146-3.813-14.559-13.305-18.282c-0.412-0.162-0.715-0.523-0.801-0.959s0.057-0.885,0.377-1.191l15.102-14.433
				c0.371-0.354,0.916-0.458,1.393-0.262c0.596,0.245,14.645,6.181,17.793,21.075c0.104,0.495-0.088,1.006-0.494,1.31
				l-18.027,13.464C296.173,458.42,295.899,458.508,295.622,458.508z M283.806,437.662c7.457,4.039,11.219,13.4,12.529,17.391
				l15.859-11.843c-2.752-11.14-12.508-16.675-15.301-18.054L283.806,437.662z"/>
		</g>
		<g>
			<path fill="#231F20" d="M195.321,219.543c-2.656,3.131-5.455,5.17-9.297,5.17c-7.209,0-8.063-6.64-6.781-12.758
				c2.086-9.865,7.967-12.806,11.951-12.806c3.84,0,5.645,1.991,6.688,5.264l-3.225,1.471c-0.617-1.993-1.66-3.747-4.078-3.747
				c-4.934,0-7.211,5.976-8.016,9.77c-0.809,3.842-1.188,9.819,3.84,9.819c2.895,0,4.744-1.756,6.689-3.985L195.321,219.543z"/>
			<path fill="#231F20" d="M225.292,211.955c-0.426,1.992-2.846,12.758-11.477,12.758c-3.984,0-8.16-2.846-6.072-12.758
				c2.088-9.865,7.447-12.806,11.525-12.806C223.206,199.149,227.427,201.994,225.292,211.955z M211.063,211.955
				c-0.76,3.604-1.424,9.771,3.367,9.771c4.789,0,6.783-6.166,7.541-9.771c0.807-3.652,1.424-9.818-3.367-9.818
				C213.815,202.137,211.87,208.303,211.063,211.955z"/>
			<path fill="#231F20" d="M239.376,199.576h3.936l5.123,20.821l0.143-0.096l1.09-6.403l3.035-14.322h3.178l-5.264,24.71h-3.936
				l-5.172-20.822l-0.094,0.096l-1.092,6.45l-3.035,14.276h-3.178L239.376,199.576z"/>
			<path fill="#231F20" d="M279.64,222.01c-2.371,1.612-5.645,2.703-8.158,2.703c-7.256,0-7.92-6.735-6.639-12.807
				c1.279-5.976,4.932-12.757,11.996-12.757c3.322,0,5.789,1.943,6.881,4.741l-3.037,1.756c-0.807-1.992-2.277-3.51-4.695-3.51
				c-4.885,0-7.02,6.119-7.826,9.865c-0.807,3.842-1.232,9.724,3.748,9.724c1.611,0,3.318-0.428,4.885-1.281l1.375-6.497h-5.928
				l0.615-2.847h9.107L279.64,222.01z"/>
			<path fill="#231F20" d="M297.372,199.576h8.396c4.127,0,6.973,1.944,5.977,6.734c-0.664,3.035-3.32,6.022-6.498,6.924
				l3.938,10.008l-3.133,1.661l-3.936-11.194h-4.6l-2.23,10.577h-3.176L297.372,199.576z M302.308,210.863
				c3.131,0,5.502-1.755,6.117-4.553c0.475-2.229-0.521-3.89-3.367-3.89h-5.121l-1.803,8.442H302.308z"/>
			<path fill="#231F20" d="M324.786,217.551l-3.891,7.353l-2.893-1.14l12.947-24.188h4.08l2.607,24.188l-3.367,1.14l-0.711-7.353
				H324.786z M332.185,203.275l-5.93,11.43h7.02L332.185,203.275z"/>
			<path fill="#231F20" d="M359.31,202.421h-6.83l0.617-2.845h16.695l-0.617,2.845h-6.688l-4.648,21.865h-3.178L359.31,202.421z"/>
			<path fill="#231F20" d="M381.122,216.461c-0.045,3.035,0.949,5.265,4.271,5.265c2.607,0,4.979-1.424,5.549-4.175
				c0.662-3.035-1.756-3.794-3.938-4.79c-3.32-1.518-6.496-2.467-5.502-7.114c0.855-4.174,4.744-6.497,8.633-6.497
				c4.127,0,6.023,2.371,6.213,6.213l-3.227,0.9c-0.045-2.419-0.994-4.126-3.699-4.126c-2.039,0-4.221,1.043-4.693,3.272
				c-0.521,2.324,0.756,3.035,2.465,3.842l4.791,2.324c1.943,1.232,2.75,3.225,2.182,5.787c-0.996,4.694-4.838,7.351-9.391,7.351
				c-4.602,0-6.877-2.94-6.689-7.351L381.122,216.461z"/>
			<path fill="#231F20" d="M225.292,255.825c-0.426,1.991-2.846,12.757-11.477,12.757c-3.984,0-8.16-2.845-6.072-12.757
				c2.088-9.866,7.447-12.806,11.525-12.806C223.206,243.02,227.427,245.864,225.292,255.825z M211.063,255.825
				c-0.76,3.604-1.424,9.77,3.367,9.77c4.789,0,6.783-6.166,7.541-9.77c0.807-3.652,1.424-9.819-3.367-9.819
				C213.815,246.006,211.87,252.173,211.063,255.825z"/>
			<path fill="#231F20" d="M239.376,243.445h3.936l5.123,20.822l0.143-0.096l1.09-6.403l3.035-14.323h3.178l-5.264,24.711h-3.936
				l-5.172-20.822l-0.094,0.096l-1.092,6.45l-3.035,14.276h-3.178L239.376,243.445z"/>
			<path fill="#231F20" d="M311.271,242.829l2.609,1.564l-11.004,14.229l-2.039,9.533h-3.178l2.039-9.533l-4.98-14.229l3.369-1.564
				l3.889,12.71L311.271,242.829z"/>
			<path fill="#231F20" d="M339.108,255.825c-0.426,1.991-2.846,12.757-11.479,12.757c-3.982,0-8.158-2.845-6.07-12.757
				c2.088-9.866,7.445-12.806,11.525-12.806C337.021,243.02,341.243,245.864,339.108,255.825z M324.88,255.825
				c-0.76,3.604-1.424,9.77,3.367,9.77s6.783-6.166,7.541-9.77c0.807-3.652,1.424-9.819-3.369-9.819
				C327.63,246.006,325.687,252.173,324.88,255.825z"/>
			<path fill="#231F20" d="M356.892,243.445l-3.605,16.837c-0.758,3.605-0.096,5.313,3.178,5.313c3.984,0,5.217-1.755,5.975-5.313
				l3.607-16.837h3.176l-3.936,18.355c-0.713,3.272-3.748,6.781-9.201,6.781c-5.359,0-7.02-3.366-6.26-6.972l3.889-18.165H356.892z"
				/>
			<path fill="#231F20" d="M382.735,243.445h8.396c4.125,0,6.973,1.945,5.975,6.735c-0.664,3.035-3.32,6.022-6.496,6.924
				l3.936,10.008l-3.131,1.66l-3.936-11.193h-4.6l-2.23,10.577h-3.178L382.735,243.445z M387.669,254.733
				c3.131,0,5.502-1.755,6.117-4.553c0.477-2.229-0.521-3.89-3.367-3.89h-5.121l-1.803,8.442H387.669z"/>
			<path fill="#231F20" d="M137.37,309.749c-2.371,1.612-5.643,2.703-8.156,2.703c-7.258,0-7.922-6.734-6.641-12.806
				c1.279-5.976,4.932-12.758,11.998-12.758c3.322,0,5.787,1.944,6.879,4.742l-3.035,1.756c-0.809-1.992-2.279-3.511-4.697-3.511
				c-4.885,0-7.018,6.119-7.824,9.866c-0.807,3.841-1.234,9.723,3.744,9.723c1.613,0,3.322-0.428,4.887-1.28l1.377-6.498h-5.93
				l0.615-2.846h9.107L137.37,309.749z"/>
			<path fill="#231F20" d="M155.104,287.315h8.396c4.125,0,6.971,1.945,5.975,6.735c-0.664,3.035-3.32,6.022-6.496,6.924
				l3.936,10.008l-3.131,1.66l-3.936-11.193h-4.6l-2.23,10.576h-3.178L155.104,287.315z M160.038,298.603
				c3.131,0,5.502-1.754,6.117-4.552c0.477-2.229-0.521-3.891-3.367-3.891h-5.121l-1.803,8.442H160.038z"/>
			<path fill="#231F20" d="M182.517,305.291l-3.889,7.352l-2.895-1.139l12.949-24.188h4.078l2.609,24.188l-3.369,1.139l-0.711-7.352
				H182.517z M189.915,291.015l-5.93,11.43h7.02L189.915,291.015z"/>
			<path fill="#231F20" d="M210.591,287.315h8.252c7.02,0,9.582,2.894,7.637,12.047c-1.662,7.731-4.031,12.663-12.9,12.663h-8.252
				l0.615-2.846h2.561l4.031-19.02h-2.561L210.591,287.315z M211.683,309.18h3.365c4.174,0,6.5-2.372,8.016-9.485
				c1.613-7.589-0.141-9.534-4.078-9.534h-3.273L211.683,309.18z"/>
			<path fill="#231F20" d="M243.075,287.315l-3.604,16.837c-0.76,3.605-0.096,5.313,3.178,5.313c3.984,0,5.219-1.756,5.977-5.313
				l3.605-16.837h3.178l-3.938,18.355c-0.713,3.272-3.748,6.781-9.201,6.781c-5.361,0-7.02-3.366-6.26-6.972l3.887-18.165H243.075z"
				/>
			<path fill="#231F20" d="M267.878,305.291l-3.889,7.352l-2.893-1.139l12.947-24.188h4.078l2.609,24.188l-3.367,1.139l-0.711-7.352
				H267.878z M275.278,291.015l-5.93,11.43h7.02L275.278,291.015z"/>
			<path fill="#231F20" d="M302.403,290.16h-6.83l0.615-2.845h16.695l-0.615,2.845h-6.688l-4.648,21.865h-3.178L302.403,290.16z"/>
			<path fill="#231F20" d="M323.269,309.18h3.463l4.031-19.02H327.3l0.617-2.845h10.148l-0.617,2.845h-3.51l-4.031,19.02h3.512
				l-0.617,2.846h-10.15L323.269,309.18z"/>
			<path fill="#231F20" d="M367.563,299.694c-0.428,1.992-2.846,12.758-11.479,12.758c-3.982,0-8.156-2.845-6.07-12.758
				c2.088-9.865,7.447-12.806,11.523-12.806C365.478,286.889,369.698,289.734,367.563,299.694z M353.335,299.694
				c-0.76,3.604-1.424,9.771,3.367,9.771s6.783-6.166,7.541-9.771c0.807-3.652,1.424-9.818-3.367-9.818
				S354.142,296.042,353.335,299.694z"/>
			<path fill="#231F20" d="M381.647,287.315h3.936l5.123,20.821l0.143-0.095l1.09-6.403l3.035-14.323h3.178l-5.264,24.71h-3.938
				l-5.17-20.821l-0.094,0.096l-1.092,6.45l-3.035,14.275h-3.178L381.647,287.315z"/>
			<path fill="#231F20" d="M412.376,305.007h4.365l-1.471,7.019h-4.365L412.376,305.007z M413.61,302.208l3.795-21.817h4.838
				l-5.598,21.817H413.61z"/>
		</g>
	</g>
</g>
</svg>
