<?xml version="1.0" encoding="utf-8"?>
<!-- Generator: Adobe Illustrator 13.0.0, SVG Export Plug-In . SVG Version: 6.00 Build 14948)  -->
<svg version="1.2" baseProfile="tiny" id="Layer_1" xmlns="http://www.w3.org/2000/svg" xmlns:xlink="http://www.w3.org/1999/xlink"
	 x="0px" y="0px" width="397.033px" height="376.49px" viewBox="0 0 397.033 376.49" xml:space="preserve">
<g>
	<g>
		<g>
			<path fill="#FFFFFF" stroke="#231F20" stroke-width="2" stroke-linecap="round" stroke-linejoin="round" d="M360.936,54.557"/>
			<path fill="#FFFFFF" stroke="#231F20" stroke-width="2" stroke-linecap="round" stroke-linejoin="round" d="M367.391,91.671
				c9.261-9.625,14.965-22.702,14.965-37.113C382.355,24.979,358.38,1,328.801,1c-19.682,0-36.87,10.622-46.18,26.441
				c-25.52-10.135-54.025-15.808-84.106-15.808c-30.688,0-59.744,5.896-85.654,16.417C103.641,11.896,86.264,1,66.332,1
				C36.753,1,12.774,24.979,12.774,54.558c0,14.983,6.158,28.519,16.075,38.24C11.168,117.72,1,146.859,1,178.003
				c0,83.965,73.853,153.389,169.824,164.733l-2.394,32.754l29.77-31.122c0.105,0,0.21,0.003,0.314,0.003
				c109.087,0,197.519-74.484,197.519-166.368C396.033,146.393,385.564,116.841,367.391,91.671z"/>
		</g>
		<path d="M328.801,22.422c-11.016,0-20.734,5.551-26.523,14.002c19.672,10.251,37.051,23.322,51.331,38.556
			c4.578-5.553,7.327-12.668,7.327-20.423C360.936,36.811,346.547,22.422,328.801,22.422z"/>
		<path d="M66.332,22.422c-17.746,0-32.134,14.389-32.134,32.135c0,8.261,3.144,15.768,8.267,21.461
			C56.58,60.711,73.803,47.543,93.33,37.172C87.609,28.306,77.666,22.422,66.332,22.422z"/>
	</g>
	<g>
		<path fill="#231F20" d="M202.765,78.478c5.277,0,7.065,3.499,3.974,7.773l-2.594,3.587c-3.094,4.276-8.156,4.276-11.248,0
			l-2.594-3.585c-3.092-4.276-1.307-7.775,3.971-7.775H202.765z"/>
	</g>
	
		<polyline fill="none" stroke="#231F20" stroke-width="2" stroke-linecap="round" stroke-linejoin="round" stroke-miterlimit="10" points="
		116.002,56.22 142.055,63.751 116.002,77.246 	"/>
	
		<polyline fill="none" stroke="#231F20" stroke-width="2" stroke-linecap="round" stroke-linejoin="round" stroke-miterlimit="10" points="
		276.717,56.22 250.663,63.751 276.717,77.246 	"/>
</g>
</svg>
