<?xml version="1.0" encoding="utf-8"?>
<!-- Generator: Adobe Illustrator 13.0.0, SVG Export Plug-In . SVG Version: 6.00 Build 14948)  -->
<svg version="1.2" baseProfile="tiny" id="Layer_1" xmlns="http://www.w3.org/2000/svg" xmlns:xlink="http://www.w3.org/1999/xlink"
	 x="0px" y="0px" width="397.033px" height="345.456px" viewBox="0 0 397.033 345.456" xml:space="preserve">
<g>
	<g>
		<g>
			<path fill="#FFFFFF" stroke="#231F20" stroke-width="2" stroke-linecap="round" stroke-linejoin="round" d="M360.936,54.557"/>
			<path fill="#FFFFFF" stroke="#231F20" stroke-width="2" stroke-linecap="round" stroke-linejoin="round" d="M211.479,344.006
				c103.041-5.625,184.555-77.789,184.555-166.003c0-31.61-10.469-61.162-28.643-86.332c9.262-9.625,14.965-22.702,14.965-37.113
				C382.355,24.979,358.381,1,328.801,1c-19.682,0-36.869,10.622-46.18,26.441c-25.52-10.135-54.025-15.808-84.105-15.808
				c-30.689,0-59.744,5.896-85.654,16.417C103.641,11.896,86.264,1,66.332,1C36.754,1,12.775,24.979,12.775,54.558
				c0,14.983,6.158,28.519,16.074,38.24C11.168,117.72,1,146.859,1,178.003c0,88.215,81.515,160.379,184.556,166.003
				C185.556,344.006,197.663,345.02,211.479,344.006z"/>
		</g>
		<path d="M328.801,22.422c-11.016,0-20.734,5.551-26.523,14.002c19.672,10.251,37.051,23.322,51.332,38.556
			c4.578-5.553,7.326-12.668,7.326-20.423C360.936,36.811,346.547,22.422,328.801,22.422z"/>
		<path d="M66.332,22.422c-17.746,0-32.133,14.389-32.133,32.135c0,8.261,3.143,15.768,8.266,21.461
			C56.58,60.711,73.803,47.543,93.33,37.172C87.609,28.306,77.666,22.422,66.332,22.422z"/>
	</g>
	<g>
		<path fill="#231F20" d="M202.766,78.478c5.277,0,7.064,3.499,3.973,7.773l-2.594,3.587c-3.094,4.276-8.156,4.276-11.248,0
			l-2.594-3.585c-3.092-4.276-1.307-7.775,3.971-7.775H202.766z"/>
	</g>
	
		<polyline fill="none" stroke="#231F20" stroke-width="2" stroke-linecap="round" stroke-linejoin="round" stroke-miterlimit="10" points="
		116.002,56.22 142.055,63.751 116.002,77.246 	"/>
	
		<polyline fill="none" stroke="#231F20" stroke-width="2" stroke-linecap="round" stroke-linejoin="round" stroke-miterlimit="10" points="
		276.717,56.22 250.664,63.751 276.717,77.246 	"/>
</g>
</svg>
